<svg width="20" height="20" viewBox="0 0 20 20" fill="none" xmlns="http://www.w3.org/2000/svg">
<path fill-rule="evenodd" clip-rule="evenodd" d="M9.25 0.75C9.25 0.3355 9.5855 0 10 0C10.4145 0 10.75 0.3355 10.75 0.75V5.25C10.75 5.6645 10.4145 6 10 6C9.5855 6 9.25 5.6645 9.25 5.25V0.75ZM9.25 14.75C9.25 14.3355 9.5855 14 10 14C10.4145 14 10.75 14.3355 10.75 14.75V19.25C10.75 19.6645 10.4145 20 10 20C9.5855 20 9.25 19.6645 9.25 19.25V14.75ZM14.596 6.46485L17.0709 3.98985C17.3635 3.69685 17.3635 3.22235 17.0709 2.92935C16.778 2.63635 16.3029 2.63635 16.01 2.92935L13.535 5.40385C13.242 5.69685 13.242 6.17185 13.535 6.46485C13.8279 6.75785 14.3029 6.75785 14.596 6.46485ZM2.9293 16.0101L5.4043 13.5352C5.6968 13.2422 6.1718 13.2422 6.4648 13.5352C6.7578 13.8281 6.7578 14.3032 6.4648 14.5956L3.9898 17.0707C3.6968 17.3636 3.2223 17.3636 2.9293 17.0707C2.6363 16.7776 2.6363 16.3032 2.9293 16.0101ZM19.25 9.25H14.75C14.3355 9.25 14 9.5855 14 10C14 10.4145 14.3355 10.75 14.75 10.75H19.25C19.6645 10.75 20 10.4145 20 10C20 9.5855 19.6645 9.25 19.25 9.25ZM5.25 9.25C5.6645 9.25 6 9.5855 6 10C6 10.4145 5.6645 10.75 5.25 10.75H0.75C0.3355 10.75 0 10.4145 0 10C0 9.5855 0.3355 9.25 0.75 9.25H5.25ZM14.596 13.5352C14.3029 13.2422 13.8279 13.2422 13.535 13.5352C13.242 13.8281 13.242 14.3032 13.535 14.5956L16.01 17.0707C16.3029 17.3636 16.778 17.3636 17.0709 17.0707C17.3635 16.7776 17.3635 16.3032 17.0709 16.0101L14.596 13.5352ZM2.929 2.9292C3.222 2.6367 3.697 2.6367 3.99 2.9292L6.465 5.4042C6.758 5.6972 6.758 6.1717 6.465 6.4647C6.172 6.7577 5.697 6.7577 5.4045 6.4647L2.929 3.9902C2.6365 3.6972 2.6365 3.2222 2.929 2.9292Z" fill="#65B157"/>
</svg>
