<svg width="20" height="17" viewBox="0 0 20 17" fill="none" xmlns="http://www.w3.org/2000/svg">
<path fill-rule="evenodd" clip-rule="evenodd" d="M4.26497 0.24464C4.55891 -0.0450884 5.03103 -0.0450884 5.32497 0.24464C5.61081 0.526548 5.62187 0.98426 5.34997 1.27964L2.84997 3.77964C2.7092 3.92302 2.51587 4.00252 2.31497 3.99964C2.11428 4.00136 1.92139 3.92204 1.77997 3.77964L0.719966 2.71964C0.57828 2.57967 0.498535 2.3888 0.498535 2.18964C0.498535 1.99048 0.57828 1.79961 0.719966 1.65964C0.859933 1.51795 1.0508 1.43821 1.24997 1.43821C1.44913 1.43821 1.64 1.51795 1.77997 1.65964L2.31497 2.19464L4.26497 0.24464ZM18.835 1.74964H8.16497C7.77454 1.77377 7.47718 2.10914 7.49997 2.49964C7.47718 2.89014 7.77454 3.22551 8.16497 3.24964H18.835C19.2254 3.22551 19.5227 2.89014 19.5 2.49964C19.5227 2.10914 19.2254 1.77377 18.835 1.74964ZM4.26497 6.74464C4.55891 6.45491 5.03103 6.45491 5.32497 6.74464C5.47 6.88124 5.55429 7.07024 5.55898 7.26942C5.56368 7.4686 5.4884 7.66136 5.34997 7.80464L2.84997 10.2796C2.7092 10.423 2.51587 10.5025 2.31497 10.4996C2.11428 10.5014 1.92139 10.422 1.77997 10.2796L0.719966 9.21964C0.57828 9.07967 0.498535 8.8888 0.498535 8.68964C0.498535 8.49048 0.57828 8.29961 0.719966 8.15964C0.859933 8.01795 1.0508 7.93821 1.24997 7.93821C1.44913 7.93821 1.64 8.01795 1.77997 8.15964L2.31497 8.69464L4.26497 6.74464ZM8.16497 8.24964H18.835C19.2254 8.27377 19.5227 8.60914 19.5 8.99964C19.5227 9.39014 19.2254 9.72551 18.835 9.74964H8.16497C7.77454 9.72551 7.47718 9.39014 7.49997 8.99964C7.47718 8.60914 7.77454 8.27377 8.16497 8.24964ZM18.835 14.7496H8.16497C7.77454 14.7738 7.47718 15.1091 7.49997 15.4996C7.47718 15.8901 7.77454 16.2255 8.16497 16.2496H18.835C19.2254 16.2255 19.5227 15.8901 19.5 15.4996C19.5227 15.1091 19.2254 14.7738 18.835 14.7496ZM4.26497 13.2446C4.55891 12.9549 5.03103 12.9549 5.32497 13.2446C5.61081 13.5265 5.62187 13.9843 5.34997 14.2796L2.84997 16.7796C2.7092 16.923 2.51587 17.0025 2.31497 16.9996C2.11428 17.0014 1.92139 16.922 1.77997 16.7796L0.719966 15.7196C0.57828 15.5797 0.498535 15.3888 0.498535 15.1896C0.498535 14.9905 0.57828 14.7996 0.719966 14.6596C0.859933 14.518 1.0508 14.4382 1.24997 14.4382C1.44913 14.4382 1.64 14.518 1.77997 14.6596L2.31497 15.1946L4.26497 13.2446Z" 
fill="#65B157"/>
</svg>
