<svg width="24" height="24" viewBox="0 0 24 24" fill="none" xmlns="http://www.w3.org/2000/svg">
<path fill-rule="evenodd" clip-rule="evenodd" d="M22 17.075V4.75004C21.9993 4.44847 21.8181 4.17664 21.54 4.06004C21.4487 4.01958 21.3498 3.99913 21.25 4.00004H2.75C2.59987 3.99852 2.45302 4.04397 2.33 4.13004C2.12337 4.26863 1.99957 4.50123 2 4.75004V17.25C2 17.6643 2.33579 18 2.75 18H5V21.23C4.99987 21.3245 5.01857 21.4179 5.055 21.505C5.09462 21.5961 5.15054 21.6791 5.22 21.75C5.29049 21.82 5.37363 21.876 5.465 21.915C5.641 21.9884 5.839 21.9884 6.015 21.915C6.10706 21.8773 6.19043 21.8212 6.26 21.75L10.035 18H21.27C21.6764 17.9892 22.0001 17.6566 22 17.25C22.0077 17.192 22.0077 17.1331 22 17.075ZM9.415 16.5L7.915 18L6.5 19.42V16.5H3.5V5.50001H20.5V16.5H9.415ZM7.025 11.0001C7.025 10.4478 7.47272 10.0001 8.025 10.0001C8.57729 10.0001 9.025 10.4478 9.025 11.0001C9.025 11.5524 8.57729 12.0001 8.025 12.0001C7.47272 12.0001 7.025 11.5524 7.025 11.0001ZM17.025 11.0001C17.025 11.5524 16.5773 12.0001 16.025 12.0001C15.4727 12.0001 15.025 11.5524 15.025 11.0001C15.025 10.4478 15.4727 10.0001 16.025 10.0001C16.5773 10.0001 17.025 10.4478 17.025 11.0001ZM11.025 11.0001C11.025 10.4478 11.4727 10.0001 12.025 10.0001C12.5773 10.0001 13.025 10.4478 13.025 11.0001C13.025 11.5524 12.5773 12.0001 12.025 12.0001C11.4727 12.0001 11.025 11.5524 11.025 11.0001Z" 
fill="#4d4d4d"/>
</svg>
