<svg width="22" height="22" viewBox="0 0 22 22" fill="none" xmlns="http://www.w3.org/2000/svg">
<path fill-rule="evenodd" clip-rule="evenodd" d="M14.7725 19.16C15.5065 18.119 16.0955 16.7805 16.4835 15.25H18.9295C18.008 16.963 16.5435 18.3375 14.7725 19.16ZM3.0705 15.25H5.5165C5.9045 16.7805 6.4935 18.119 7.2275 19.16C5.4565 18.3375 3.992 16.963 3.0705 15.25ZM7.2275 2.8395C6.4935 3.8805 5.9045 5.219 5.5165 6.75H3.0705C3.992 5.0365 5.4565 3.662 7.2275 2.8395ZM18.9295 6.75H16.4835C16.0955 5.219 15.5065 3.8805 14.7725 2.8395C16.5435 3.662 18.008 5.0365 18.9295 6.75ZM16.785 8.25H19.5665C19.8455 9.1175 20 10.0405 20 11C20 11.959 19.8455 12.882 19.5665 13.75H16.785C16.921 12.872 17 11.953 17 11C17 10.0465 16.921 9.128 16.785 8.25ZM11 2C12.4945 2 14.106 3.8275 14.935 6.75H7.065C7.894 3.8275 9.5055 2 11 2ZM2 11C2 10.0405 2.1545 9.1175 2.4335 8.25H5.215C5.079 9.128 5 10.0465 5 11C5 11.953 5.079 12.872 5.215 13.75H2.4335C2.1545 12.882 2 11.959 2 11ZM6.726 13.75C6.5815 12.896 6.5 11.9755 6.5 11C6.5 10.024 6.5815 9.104 6.726 8.25H15.274C15.4185 9.104 15.5 10.024 15.5 11C15.5 11.9755 15.4185 12.896 15.274 13.75H6.726ZM11 20C9.5055 20 7.894 18.172 7.065 15.25H14.935C14.106 18.172 12.4945 20 11 20ZM11 0.5C5.201 0.5 0.5 5.201 0.5 11C0.5 16.799 5.201 21.5 11 21.5C16.799 21.5 21.5 16.799 21.5 11C21.5 5.201 16.799 0.5 11 0.5Z" 
fill="#65B157"/>
</svg>
