<?xml version="1.0" encoding="utf-8"?>
<!-- Generator: Adobe Illustrator 25.0.1, SVG Export Plug-In . SVG Version: 6.00 Build 0)  -->
<svg version="1.1" id="_x30_3_Negative_EN" xmlns="http://www.w3.org/2000/svg" xmlns:xlink="http://www.w3.org/1999/xlink" x="0px"
	 y="0px" viewBox="0 0 150 150" style="enable-background:new 0 0 150 150;" xml:space="preserve">
<style type="text/css">
	.st0{fill:#1C3664;}
	.st1{fill:#EE3F2B;}
	.st2{fill:#FFFFFF;}
</style>
<g id="Elements_2_">
	<g id="Bckgd_5_">
		<rect id="Bckgd_3_" x="-0.1" y="-0.1" class="st0" width="150" height="100"/>
	</g>
	<g id="Color_2_">
		<rect id="GCM_x5F_Color_2_" x="-0.1" y="99.9" class="st1" width="150" height="50"/>
	</g>
	<g id="Number_2_">
		<g>
			<g>
				<path class="st2" d="M27.5,129c0,5.1-2.5,8.6-6.5,8.6c-4.8,0-6.8-4.4-6.8-11.4c0-8.1,3-13.2,7.8-13.2c1.7,0,3,0.6,4.1,1.5
					l-1.5,2.9c-0.8-0.6-1.5-0.9-2.5-0.9c-2.1,0-3.5,2.4-3.7,7.1c1.1-1.6,2.4-2.4,4-2.4C25.2,121.3,27.5,124,27.5,129z M21.2,124.7
					c-1,0-2,0.9-2.8,2.3c0.1,5.2,0.7,7.1,2.6,7.1c1.6,0,2.4-1.8,2.4-5C23.4,125.7,22.5,124.7,21.2,124.7z"/>
			</g>
		</g>
	</g>
	<g>
		<g>
			<path class="st2" d="M46.8,114.6l-0.9,1c-0.5-0.4-1-0.6-1.6-0.6c-1.1,0-2,0.9-2,3.6c0,2.6,0.8,3.5,2,3.5c0.7,0,1.2-0.3,1.7-0.7
				l0.8,1c-0.6,0.6-1.4,1.1-2.6,1.1c-2.2,0-3.8-1.6-3.8-5c0-3.3,1.6-4.9,3.7-4.9C45.3,113.6,46.1,114,46.8,114.6z"/>
			<path class="st2" d="M54.5,118.6c0,3.2-1.4,5-3.8,5c-2.3,0-3.7-1.7-3.7-4.9c0-3.2,1.4-5,3.7-5C53.1,113.6,54.5,115.3,54.5,118.6z
				 M48.8,118.6c0,2.7,0.7,3.6,1.9,3.6c1.2,0,1.9-0.9,1.9-3.6c0-2.6-0.7-3.6-1.9-3.6C49.5,115,48.8,115.9,48.8,118.6z"/>
			<path class="st2" d="M62,123.3h-2.3l-2.7-7.7c0.1,0.9,0.2,2,0.2,3.8v3.9h-1.6v-9.5h2.2l2.8,7.7c-0.1-0.5-0.2-1.9-0.2-3.2v-4.5H62
				V123.3z"/>
			<path class="st2" d="M69,115.2h-2.2v8.1H65v-8.1h-2.3v-1.4h6.4L69,115.2z"/>
			<path class="st2" d="M72.6,119.5h-1v3.8h-1.8v-9.5h2.5c2.4,0,3.6,1,3.6,2.8c0,1.2-0.5,2.1-1.7,2.6l2.2,4.2h-1.9L72.6,119.5z
				 M72.5,118.2c1.1,0,1.6-0.5,1.6-1.6c0-1-0.5-1.5-1.7-1.5h-0.7v3.1H72.5z"/>
			<path class="st2" d="M81.7,121.1H79l-0.5,2.2h-1.8l2.6-9.5h2.2l2.6,9.5h-1.8L81.7,121.1z M81.4,119.8l-1.1-4.6l-1.1,4.6H81.4z"/>
			<path class="st2" d="M89.4,115.2h-2.2v8.1h-1.8v-8.1h-2.3v-1.4h6.4L89.4,115.2z"/>
			<path class="st2" d="M93.7,121.1H91l-0.5,2.2h-1.8l2.6-9.5h2.2l2.6,9.5h-1.8L93.7,121.1z M93.4,119.8l-1.1-4.6l-1.1,4.6H93.4z"/>
			<path class="st2" d="M102.3,114.6l-0.9,1c-0.5-0.4-1-0.6-1.6-0.6c-1.1,0-2,0.9-2,3.6c0,2.6,0.8,3.5,2,3.5c0.7,0,1.2-0.3,1.7-0.7
				l0.8,1c-0.6,0.6-1.4,1.1-2.6,1.1c-2.2,0-3.8-1.6-3.8-5c0-3.3,1.6-4.9,3.7-4.9C100.9,113.6,101.6,114,102.3,114.6z"/>
			<path class="st2" d="M105,123.3h-1.8v-9.5h1.8V123.3z"/>
			<path class="st2" d="M113.6,118.6c0,3.2-1.4,5-3.8,5c-2.3,0-3.7-1.7-3.7-4.9c0-3.2,1.4-5,3.7-5
				C112.2,113.6,113.6,115.3,113.6,118.6z M108,118.6c0,2.7,0.7,3.6,1.9,3.6c1.2,0,1.9-0.9,1.9-3.6c0-2.6-0.7-3.6-1.9-3.6
				C108.7,115,108,115.9,108,118.6z M111.5,111.8l-2.8,1.1l-0.4-0.9l2.6-1.6L111.5,111.8z"/>
			<path class="st2" d="M121.1,123.3h-2.3l-2.7-7.7c0.1,0.9,0.2,2,0.2,3.8v3.9h-1.6v-9.5h2.2l2.8,7.7c-0.1-0.5-0.2-1.9-0.2-3.2v-4.5
				h1.6V123.3z"/>
			<path class="st2" d="M129,119.7v3.6h-1.8v-3.6l-2.7-5.9h1.9l1.7,4.4l1.7-4.4h1.8L129,119.7z"/>
			<path class="st2" d="M46.3,127.7h-2.2v8.1h-1.8v-8.1h-2.3v-1.4h6.4L46.3,127.7z"/>
			<path class="st2" d="M49.9,132h-1v3.8h-1.8v-9.5h2.5c2.4,0,3.6,1,3.6,2.8c0,1.2-0.5,2.1-1.7,2.6l2.2,4.2h-1.9L49.9,132z
				 M49.8,130.7c1.1,0,1.6-0.5,1.6-1.6c0-1-0.5-1.5-1.7-1.5H49v3.1H49.8z"/>
			<path class="st2" d="M59,133.6h-2.7l-0.5,2.2H54l2.6-9.5h2.2l2.6,9.5h-1.8L59,133.6z M58.7,132.3l-1.1-4.6l-1.1,4.6H58.7z"/>
			<path class="st2" d="M68.3,133.1c0,2-1.5,2.7-3.6,2.7H62v-9.5h2.2c2.3,0,3.6,0.8,3.6,2.4c0,1.2-0.8,1.8-1.7,2
				C67.3,131,68.3,131.6,68.3,133.1z M63.8,127.6v2.6h0.8c1,0,1.5-0.5,1.5-1.3c0-0.9-0.5-1.3-1.7-1.3H63.8z M66.4,133
				c0-1.1-0.6-1.5-1.7-1.5h-0.9v3h0.8C65.7,134.5,66.4,134.2,66.4,133z"/>
			<path class="st2" d="M73.4,133.6h-2.7l-0.5,2.2h-1.8l2.6-9.5h2.2l2.6,9.5h-1.8L73.4,133.6z M73.1,132.3l-1.1-4.6l-1.1,4.6H73.1z"
				/>
			<path class="st2" d="M78.5,134.4c0,2.2-1.2,3-2.6,3.5l-0.5-1.3c1.1-0.5,1.3-1,1.3-2.3v-8h1.8V134.4z"/>
			<path class="st2" d="M87.1,131.1c0,3.2-1.4,5-3.8,5c-2.3,0-3.7-1.7-3.7-4.9c0-3.2,1.4-5,3.7-5C85.6,126.1,87.1,127.8,87.1,131.1z
				 M81.4,131.1c0,2.7,0.7,3.6,1.9,3.6c1.2,0,1.9-0.9,1.9-3.6c0-2.6-0.7-3.6-1.9-3.6C82.1,127.5,81.4,128.4,81.4,131.1z"/>
			<path class="st2" d="M97.6,131c0,3.9-2.1,4.8-4.2,4.8H91v-9.5h2.2C95.4,126.3,97.6,127,97.6,131z M92.8,127.7v6.8h0.7
				c1.2,0,2.2-0.6,2.2-3.5c0-2.9-1-3.4-2.2-3.4H92.8z"/>
			<path class="st2" d="M103.5,127.6h-3.1v2.7h2.7v1.3h-2.7v2.8h3.3v1.3h-5v-9.5h5L103.5,127.6z"/>
			<path class="st2" d="M110.5,127.1l-0.9,1c-0.5-0.4-1-0.6-1.6-0.6c-1.1,0-2,0.9-2,3.6c0,2.6,0.8,3.5,2,3.5c0.7,0,1.2-0.3,1.7-0.7
				l0.8,1c-0.6,0.6-1.4,1.1-2.6,1.1c-2.2,0-3.8-1.6-3.8-5c0-3.3,1.6-4.9,3.7-4.9C109,126.1,109.8,126.5,110.5,127.1z"/>
			<path class="st2" d="M116.2,127.6h-3.1v2.7h2.7v1.3h-2.7v2.8h3.3v1.3h-5v-9.5h5L116.2,127.6z"/>
			<path class="st2" d="M123.8,135.8h-2.3l-2.7-7.7c0.1,0.9,0.2,2,0.2,3.8v3.9h-1.6v-9.5h2.2l2.8,7.7c-0.1-0.5-0.2-1.9-0.2-3.2v-4.5
				h1.6V135.8z"/>
			<path class="st2" d="M130.7,127.7h-2.2v8.1h-1.8v-8.1h-2.3v-1.4h6.4L130.7,127.7z"/>
			<path class="st2" d="M136.5,127.6h-3.1v2.7h2.7v1.3h-2.7v2.8h3.3v1.3h-5v-9.5h5L136.5,127.6z"/>
		</g>
	</g>
</g>
<g id="Icon_2_">
	<g>
		<g>
			<polygon class="st2" points="58.9,61.4 56.1,58 57,57.2 59.1,59.7 64.8,54.8 65.6,55.7 			"/>
			<path class="st2" d="M64.2,70.8c-0.6,0-1.2-0.2-1.8-0.3c-0.6-0.1-1.1-0.3-1.6-0.3c-0.5,0-1,0.1-1.6,0.3c-0.9,0.2-1.8,0.5-2.7,0.2
				c-0.9-0.3-1.6-1.1-2.2-1.8c-0.4-0.4-0.7-0.8-1.1-1.1c-0.4-0.3-0.9-0.5-1.4-0.7c-0.9-0.3-1.8-0.7-2.3-1.5C49,64.9,49,64,48.9,63.1
				c0-0.6-0.1-1.1-0.2-1.5c-0.1-0.4-0.4-0.8-0.7-1.3c-0.5-0.8-1-1.6-1-2.6s0.5-1.9,1-2.6c0.3-0.5,0.6-0.9,0.7-1.3
				c0.1-0.4,0.2-1,0.2-1.5c0.1-0.9,0.1-1.9,0.7-2.7c0.6-0.8,1.5-1.1,2.3-1.5c0.5-0.2,1-0.4,1.4-0.7c0.4-0.3,0.7-0.7,1.1-1.1
				c0.6-0.7,1.2-1.5,2.2-1.8c0.9-0.3,1.8-0.1,2.7,0.2c0.6,0.1,1.1,0.3,1.6,0.3c0.5,0,1-0.1,1.6-0.3c0.9-0.2,1.8-0.5,2.7-0.2
				c0.9,0.3,1.6,1.1,2.2,1.8c0.4,0.4,0.7,0.8,1.1,1.1c0.4,0.3,0.9,0.5,1.4,0.7c0.9,0.3,1.8,0.7,2.3,1.5c0.6,0.8,0.6,1.7,0.7,2.7
				c0,0.6,0.1,1.1,0.2,1.5c0.1,0.4,0.4,0.8,0.7,1.3c0.5,0.8,1,1.6,1,2.6c0,1-0.5,1.9-1,2.6c-0.3,0.5-0.6,0.9-0.7,1.3
				c-0.1,0.4-0.2,1-0.2,1.5c-0.1,0.9-0.1,1.9-0.7,2.7c-0.6,0.8-1.5,1.1-2.3,1.5c-0.5,0.2-1,0.4-1.4,0.7c-0.4,0.3-0.7,0.7-1.1,1.1
				c-0.6,0.7-1.2,1.5-2.2,1.8C64.8,70.8,64.5,70.8,64.2,70.8z M60.8,69c0.6,0,1.3,0.2,1.9,0.3c0.8,0.2,1.5,0.4,2,0.2
				c0.6-0.2,1.1-0.8,1.6-1.4c0.4-0.5,0.8-0.9,1.3-1.3c0.5-0.4,1.1-0.6,1.7-0.8c0.7-0.3,1.4-0.6,1.8-1c0.4-0.5,0.4-1.2,0.5-2
				c0-0.6,0.1-1.2,0.3-1.8c0.2-0.6,0.5-1.1,0.8-1.6c0.4-0.7,0.8-1.3,0.8-1.9s-0.4-1.3-0.8-1.9c-0.3-0.5-0.7-1-0.8-1.6
				c-0.2-0.6-0.2-1.2-0.3-1.8c-0.1-0.8-0.1-1.5-0.5-2c-0.4-0.5-1.1-0.8-1.8-1c-0.6-0.2-1.2-0.5-1.7-0.8c-0.5-0.4-0.9-0.8-1.3-1.3
				c-0.5-0.6-1-1.2-1.6-1.4c-0.6-0.2-1.3,0-2,0.2c-0.6,0.2-1.2,0.3-1.9,0.3s-1.3-0.2-1.9-0.3c-0.8-0.2-1.5-0.4-2-0.2
				c-0.6,0.2-1.1,0.8-1.6,1.4c-0.4,0.5-0.8,0.9-1.3,1.3c-0.5,0.4-1.1,0.6-1.7,0.8c-0.7,0.3-1.4,0.6-1.8,1c-0.4,0.5-0.4,1.2-0.5,2
				c0,0.6-0.1,1.2-0.3,1.8c-0.2,0.6-0.5,1.1-0.8,1.6c-0.4,0.7-0.8,1.3-0.8,1.9s0.4,1.3,0.8,1.9c0.3,0.5,0.7,1,0.8,1.6
				c0.2,0.6,0.2,1.2,0.3,1.8c0.1,0.8,0.1,1.5,0.5,2c0.4,0.5,1.1,0.8,1.8,1c0.6,0.2,1.2,0.5,1.7,0.8c0.5,0.4,0.9,0.8,1.3,1.3
				c0.5,0.6,1,1.2,1.6,1.4c0.6,0.2,1.3,0,2-0.2C59.5,69.2,60.2,69,60.8,69z"/>
			<path class="st2" d="M102.3,80.1h-43c-0.3,0-0.6-0.3-0.6-0.6v-9.6H60v9h41.7V35.1l-14.1-14H60v23.6h-1.2V20.5
				c0-0.3,0.3-0.6,0.6-0.6h28.5c0.2,0,0.3,0.1,0.4,0.2l14.5,14.4c0.1,0.1,0.2,0.3,0.2,0.4v44.6C102.9,79.8,102.7,80.1,102.3,80.1z"
				/>
			<path class="st2" d="M102.3,35.5H87.9c-0.3,0-0.6-0.3-0.6-0.6V20.5c0-0.3,0.2-0.5,0.4-0.6c0.2-0.1,0.5,0,0.7,0.1l14.5,14.4
				c0.2,0.2,0.2,0.4,0.1,0.7C102.8,35.3,102.6,35.5,102.3,35.5z M88.5,34.2h12.3L88.5,22V34.2z"/>
		</g>
		<path class="st2" d="M60.8,65.5c-4.3,0-7.8-3.5-7.8-7.8s3.5-7.8,7.8-7.8c4.3,0,7.8,3.5,7.8,7.8S65.1,65.5,60.8,65.5z M60.8,51.2
			c-3.6,0-6.5,2.9-6.5,6.5s2.9,6.5,6.5,6.5c3.6,0,6.5-2.9,6.5-6.5S64.4,51.2,60.8,51.2z"/>
		<path class="st2" d="M80.8,69.9c-0.2,0-0.4-0.1-0.5-0.2c-0.7-0.5-0.2-1.6,0.5-3.1c0.1-0.3,0.3-0.7,0.5-1.1
			C80.6,66,79.3,67,77,69.2c-0.2,0.2-0.6,0.2-0.9,0c-0.2-0.2-0.2-0.6,0-0.9c4.9-4.6,5.7-4.7,6.3-4.2c0.6,0.5,0.2,1.5-0.5,3
			c-0.2,0.3-0.4,0.8-0.5,1.2c0.4-0.3,0.8-0.6,1.2-0.9c1.7-1.3,3.5-2.7,4.7-2c0.4,0.3,0.5,0.6,0.6,0.9c0.1,0.2,0.1,0.4,0.3,0.6
			c0.5,0.5,1.3,0.8,2.5,0.7c0.3,0,0.6,0.2,0.7,0.6c0,0.3-0.2,0.6-0.6,0.7c-1.6,0.1-2.8-0.3-3.5-1.1c-0.4-0.4-0.5-0.8-0.6-1.1
			c0-0.1-0.1-0.2-0.1-0.2c-0.4-0.3-2.5,1.3-3.2,1.9C82.2,69.3,81.4,69.9,80.8,69.9z"/>
		<rect x="71.9" y="50.8" class="st2" width="23.9" height="1.2"/>
		<rect x="65.8" y="42.3" class="st2" width="30" height="1.2"/>
	</g>
</g>
</svg>
