<?xml version="1.0" encoding="utf-8"?>
<!-- Generator: Adobe Illustrator 25.0.1, SVG Export Plug-In . SVG Version: 6.00 Build 0)  -->
<svg version="1.1" id="_x30_3_Negative_EN" xmlns="http://www.w3.org/2000/svg" xmlns:xlink="http://www.w3.org/1999/xlink" x="0px"
	 y="0px" viewBox="0 0 150 150" style="enable-background:new 0 0 150 150;" xml:space="preserve">
<style type="text/css">
	.st0{fill:#003366;}
	.st1{fill:#C7C216;}
	.st2{fill:#FFFFFF;}
</style>
<g id="Elements_2_">
	<g id="Bckgd_5_">
		<rect id="Bckgd_3_" x="-0.1" y="-0.1" class="st0" width="150" height="100"/>
	</g>
	<g id="Color_2_">
		<rect id="GCM_x5F_Color_2_" x="-0.1" y="99.9" class="st1" width="150" height="50"/>
	</g>
	<g id="Number_2_">
		<g>
			<g>
				<path class="st2" d="M18,137.1h-4v-18.8l-3.9,3.1l-1.8-3.2l6.1-4.7H18V137.1z"/>
				<path class="st2" d="M31.7,119c0,2.9-1.3,4.8-3.8,5.6c2.5,0.3,4.4,2.1,4.4,5.8c0,3.9-2.5,7.3-6.9,7.3c-2.7,0-4.6-1.3-6.2-3.5
					l2.3-2.5c1.2,1.5,2.2,2.2,3.7,2.2c1.7,0,2.9-1.3,2.9-3.8c0-2.7-1.2-3.7-3.2-3.7h-1.4l0.5-3.4h1c1.7,0,2.8-1.2,2.8-3.4
					c0-1.9-1-3-2.5-3c-1.3,0-2.4,0.7-3.5,2l-2.1-2.5c1.7-2,3.7-3.1,6-3.1C29.5,113,31.7,115.7,31.7,119z"/>
			</g>
		</g>
	</g>
	<g>
		<g>
			<path class="st2" d="M45,121.1h-2.8l-0.5,2.2H40l2.6-9.5h2.2l2.6,9.5h-1.8L45,121.1z M44.7,119.8l-1.1-4.6l-1.1,4.6H44.7z"/>
			<path class="st2" d="M50.2,121.9h3.4l-0.2,1.5h-5v-9.5h1.8V121.9z"/>
			<path class="st2" d="M59.3,115.2h-2.2v8.1h-1.8v-8.1H53v-1.4h6.4L59.3,115.2z"/>
			<path class="st2" d="M65.4,115.1h-3.1v2.7H65v1.3h-2.7v2.8h3.3v1.3h-5.1v-9.5h5.1L65.4,115.1z"/>
			<path class="st2" d="M69.6,119.5h-1v3.8h-1.8v-9.5h2.5c2.4,0,3.6,1,3.6,2.8c0,1.2-0.5,2.1-1.7,2.6l2.2,4.2h-2L69.6,119.5z
				 M69.5,118.2c1.1,0,1.7-0.5,1.7-1.6c0-1-0.5-1.5-1.8-1.5h-0.7v3.1H69.5z"/>
			<path class="st2" d="M80.9,123.3h-2.3l-2.8-7.7c0.1,0.9,0.2,2,0.2,3.8v3.9h-1.6v-9.5h2.3l2.8,7.7c-0.1-0.5-0.2-1.9-0.2-3.2v-4.5
				h1.6V123.3z"/>
			<path class="st2" d="M87,121.1h-2.7l-0.5,2.2h-1.8l2.6-9.5h2.2l2.6,9.5h-1.8L87,121.1z M86.7,119.8l-1.1-4.6l-1.1,4.6H86.7z"/>
			<path class="st2" d="M95,115.2h-2.2v8.1h-1.8v-8.1h-2.3v-1.4h6.4L95,115.2z"/>
			<path class="st2" d="M98,123.3h-1.8v-9.5H98V123.3z"/>
			<path class="st2" d="M103.7,123.3h-2.2l-2.6-9.5h1.8l1.8,7.9l1.7-7.9h1.8L103.7,123.3z"/>
			<path class="st2" d="M110.9,121.1h-2.8l-0.5,2.2h-1.8l2.6-9.5h2.2l2.6,9.5h-1.8L110.9,121.1z M110.5,119.8l-1.1-4.6l-1.1,4.6
				H110.5z"/>
			<path class="st2" d="M119.9,114.8l-0.9,1c-0.6-0.5-1.2-0.8-1.9-0.8c-0.8,0-1.3,0.4-1.3,1.1c0,0.7,0.3,1,1.7,1.5
				c1.5,0.6,2.5,1.3,2.5,3c0,1.7-1.2,2.9-3.3,2.9c-1.4,0-2.4-0.5-3.1-1.3l0.9-1c0.6,0.6,1.3,0.9,2.2,0.9c0.9,0,1.5-0.5,1.5-1.4
				c0-0.8-0.3-1.2-1.7-1.6c-1.8-0.6-2.6-1.5-2.6-2.8c0-1.5,1.3-2.6,3-2.6C118.3,113.6,119.1,114,119.9,114.8z"/>
			<path class="st2" d="M45,134.6h-2.8l-0.5,2.2H40l2.6-9.5h2.2l2.6,9.5h-1.8L45,134.6z M44.7,133.3l-1.1-4.6l-1.1,4.6H44.7z"/>
			<path class="st2" d="M53.1,135.4h3.4l-0.2,1.5h-5v-9.5h1.8V135.4z"/>
			<path class="st2" d="M62.1,134.6h-2.7l-0.5,2.2H57l2.6-9.5h2.2l2.6,9.5h-1.8L62.1,134.6z M61.8,133.3l-1.1-4.6l-1.1,4.6H61.8z"/>
			<path class="st2" d="M75,132c0,3.9-2.1,4.8-4.2,4.8h-2.4v-9.5h2.2C72.9,127.3,75,128,75,132z M70.2,128.7v6.8h0.8
				c1.2,0,2.2-0.6,2.2-3.5c0-2.9-1-3.4-2.3-3.4H70.2z"/>
			<path class="st2" d="M81.3,128.6h-3.1v2.7h2.7v1.3h-2.7v2.8h3.3v1.3h-5.1v-9.5h5.1L81.3,128.6z"/>
			<path class="st2" d="M88.6,128.7h-2.2v8.1h-1.8v-8.1h-2.3v-1.4h6.4L88.6,128.7z"/>
			<path class="st2" d="M94.7,128.6h-3.1v2.7h2.7v1.3h-2.7v2.8h3.3v1.3h-5.1v-9.5h5.1L94.7,128.6z"/>
			<path class="st2" d="M102.6,136.8h-2.3l-2.8-7.7c0.1,0.9,0.2,2,0.2,3.8v3.9h-1.6v-9.5h2.3l2.8,7.7c-0.1-0.5-0.2-1.9-0.2-3.2v-4.5
				h1.6V136.8z"/>
			<path class="st2" d="M110.4,128.1l-0.9,1c-0.5-0.4-1-0.6-1.6-0.6c-1.1,0-2,0.9-2,3.6c0,2.6,0.8,3.5,2,3.5c0.7,0,1.2-0.3,1.7-0.7
				l0.9,1c-0.6,0.6-1.4,1.1-2.6,1.1c-2.2,0-3.8-1.6-3.8-5c0-3.3,1.6-4.9,3.8-4.9C108.9,127.1,109.7,127.5,110.4,128.1z"/>
			<path class="st2" d="M113.3,136.8h-1.8v-9.5h1.8V136.8z"/>
			<path class="st2" d="M122.4,132.1c0,3.2-1.4,5-3.8,5c-2.3,0-3.8-1.7-3.8-4.9c0-3.2,1.5-5,3.8-5
				C120.9,127.1,122.4,128.8,122.4,132.1z M116.6,132.1c0,2.7,0.7,3.6,1.9,3.6c1.3,0,1.9-0.9,1.9-3.6c0-2.6-0.7-3.6-1.9-3.6
				C117.3,128.5,116.6,129.4,116.6,132.1z M120.2,125.3l-2.9,1.1l-0.4-0.9l2.6-1.6L120.2,125.3z"/>
			<path class="st2" d="M130.2,136.8h-2.3l-2.8-7.7c0.1,0.9,0.2,2,0.2,3.8v3.9h-1.6v-9.5h2.3l2.8,7.7c-0.1-0.5-0.2-1.9-0.2-3.2v-4.5
				h1.6V136.8z"/>
		</g>
	</g>
</g>
<g id="Icon_2_">
	<g>
		<g>
			<path class="st2" d="M57.3,44.6H56v-1.3h1.2V44.6z M57.3,42H56v-1.3h1.2V42z"/>
			<path class="st2" d="M64.5,44.6h-1.2v-1.3h1.2V44.6z M64.5,42h-1.2v-1.3h1.2V42z"/>
		</g>
		<g>
			<path class="st2" d="M78.3,69.8h-6.6V63c-1.7-1.1-2.6-3-2.6-5c0.1-3.2,2.8-5.8,6-5.7c1.6,0,3,0.7,4.1,1.8
				c1.1,1.1,1.7,2.6,1.6,4.2l0,0c0,1.9-1,3.7-2.6,4.7V69.8z M72.9,68.6h4.1v-6.3l0.3-0.2c1.4-0.8,2.3-2.3,2.3-3.9l0,0
				c0-1.2-0.4-2.4-1.3-3.3c-0.9-0.9-2-1.4-3.3-1.4c-2.5-0.1-4.7,2-4.8,4.5c0,1.7,0.8,3.2,2.3,4.1l0.3,0.2V68.6z"/>
			<path class="st2" d="M74.9,80.1c-0.2,0-0.4,0-0.6,0c-6.6-0.1-12.8-2.8-17.2-7.4c-3.9-4.1-6-9.3-5.8-14.8l0.3-11.1h47.1L98.4,59
				C98.1,70.7,87.6,80.1,74.9,80.1z M52.8,48.1L52.5,58c-0.1,5.1,1.8,10,5.5,13.9c4.1,4.3,10.1,6.9,16.3,7
				c12.3,0.3,22.6-8.7,22.8-19.9l0.3-10.8H52.8z"/>
			<g>
				<polygon class="st2" points="75.1,21.1 74.9,21.1 74.9,19.9 75.1,19.9 				"/>
				<path class="st2" d="M93.7,48.1h-8.1v-9.5C85.6,32.8,80.8,28,75,28c-5.7,0-10.3,4.5-10.6,10.1l0,0.6h-8.1l0-0.6
					c0.3-10.1,8.5-18.1,18.7-18.1h0c10.3,0,18.8,8.4,18.8,18.7V48.1z M86.9,46.8h5.6v-8.2c0-9.6-7.9-17.4-17.5-17.5
					c-9.3,0-16.8,7.1-17.4,16.3h5.6c0.6-6,5.7-10.7,11.8-10.7c6.6,0,11.9,5.4,11.9,11.9V46.8z"/>
			</g>
		</g>
	</g>
</g>
</svg>
