<?xml version="1.0" encoding="utf-8"?>
<!-- Generator: Adobe Illustrator 25.0.1, SVG Export Plug-In . SVG Version: 6.00 Build 0)  -->
<svg version="1.1" id="_x30_3_Negative_EN" xmlns="http://www.w3.org/2000/svg" xmlns:xlink="http://www.w3.org/1999/xlink" x="0px"
	 y="0px" viewBox="0 0 150 150" style="enable-background:new 0 0 150 150;" xml:space="preserve">
<style type="text/css">
	.st0{fill:#003366;}
	.st1{fill:#FCB613;}
	.st2{fill:#FFFFFF;}
</style>
<g id="Elements_2_">
	<g id="Bckgd_5_">
		<rect id="Bckgd_3_" x="-0.1" y="-0.1" class="st0" width="150" height="100"/>
	</g>
	<g id="Color_2_">
		<rect id="GCM_x5F_Color_2_" x="-0.1" y="99.9" class="st1" width="150" height="50"/>
	</g>
	<g id="Number_2_">
		<g>
			<g>
				<path class="st2" d="M18.9,137.1h-4v-18.8l-3.9,3.1l-1.8-3.2l6.1-4.7h3.7V137.1z"/>
				<path class="st2" d="M30,137.1h-4v-18.8l-3.9,3.1l-1.8-3.2l6.1-4.7H30V137.1z"/>
			</g>
		</g>
	</g>
	<g>
		<g>
			<path class="st2" d="M47.3,114.7l-0.9,0.9c-0.6-0.5-1.1-0.7-1.8-0.7c-1.2,0-2.2,0.9-2.2,3.6c0,2.8,0.7,3.6,1.9,3.6
				c0.5,0,0.9-0.1,1.3-0.4v-2.5h-1.2l-0.2-1.3h3.1v4.6c-0.9,0.6-1.9,0.9-3,0.9c-2.5,0-3.8-1.6-3.8-5c0-3.3,1.8-4.9,4-4.9
				C45.7,113.6,46.6,114,47.3,114.7z"/>
			<path class="st2" d="M53.8,115.1h-3.1v2.7h2.7v1.3h-2.7v2.8h3.3v1.3H49v-9.5H54L53.8,115.1z"/>
			<path class="st2" d="M61.1,114.8l-0.9,1c-0.6-0.5-1.2-0.8-1.9-0.8c-0.8,0-1.3,0.4-1.3,1.1c0,0.7,0.3,1,1.7,1.5
				c1.5,0.6,2.5,1.3,2.5,3c0,1.7-1.2,2.9-3.3,2.9c-1.4,0-2.4-0.5-3.1-1.3l0.9-1c0.6,0.6,1.3,0.9,2.2,0.9c0.9,0,1.5-0.5,1.5-1.4
				c0-0.8-0.3-1.2-1.7-1.6c-1.8-0.6-2.6-1.5-2.6-2.8c0-1.5,1.3-2.6,3-2.6C59.5,113.6,60.4,114,61.1,114.8z"/>
			<path class="st2" d="M68.2,115.2H66v8.1h-1.8v-8.1H62v-1.4h6.4L68.2,115.2z"/>
			<path class="st2" d="M71.2,123.3h-1.8v-9.5h1.8V123.3z"/>
			<path class="st2" d="M80.2,118.6c0,3.2-1.4,5-3.8,5c-2.3,0-3.8-1.7-3.8-4.9c0-3.2,1.5-5,3.8-5C78.8,113.6,80.2,115.3,80.2,118.6z
				 M74.5,118.6c0,2.7,0.7,3.6,1.9,3.6c1.3,0,1.9-0.9,1.9-3.6c0-2.6-0.7-3.6-1.9-3.6C75.2,115,74.5,115.9,74.5,118.6z M78.1,111.8
				l-2.9,1.1l-0.4-0.9l2.6-1.6L78.1,111.8z"/>
			<path class="st2" d="M88.1,123.3h-2.3l-2.8-7.7c0.1,0.9,0.2,2,0.2,3.8v3.9h-1.6v-9.5h2.3l2.8,7.7c-0.1-0.5-0.2-1.9-0.2-3.2v-4.5
				h1.6V123.3z"/>
			<path class="st2" d="M47.6,131c0,3.9-2.1,4.8-4.2,4.8h-2.4v-9.5h2.2C45.4,126.3,47.6,127,47.6,131z M42.7,127.7v6.8h0.8
				c1.2,0,2.2-0.6,2.2-3.5c0-2.9-1-3.4-2.3-3.4H42.7z"/>
			<path class="st2" d="M53.9,127.6h-3.1v2.7h2.7v1.3h-2.7v2.8h3.3v1.3H49v-9.5h5.1L53.9,127.6z"/>
			<path class="st2" d="M58.6,126.3h4.9l-0.2,1.3h-3v2.9h2.6v1.3h-2.6v4h-1.8V126.3z"/>
			<path class="st2" d="M67.4,132h-1v3.8h-1.8v-9.5h2.5c2.4,0,3.6,1,3.6,2.8c0,1.2-0.5,2.1-1.7,2.6l2.2,4.2h-2L67.4,132z
				 M67.2,130.7c1.1,0,1.7-0.5,1.7-1.6c0-1-0.5-1.5-1.8-1.5h-0.7v3.1H67.2z"/>
			<path class="st2" d="M79.3,131.1c0,3.2-1.4,5-3.8,5c-2.3,0-3.8-1.7-3.8-4.9c0-3.2,1.5-5,3.8-5C77.8,126.1,79.3,127.8,79.3,131.1z
				 M73.6,131.1c0,2.7,0.7,3.6,1.9,3.6c1.3,0,1.9-0.9,1.9-3.6c0-2.6-0.7-3.6-1.9-3.6C74.3,127.5,73.6,128.4,73.6,131.1z"/>
			<path class="st2" d="M87.1,135.8h-2.3l-2.8-7.7c0.1,0.9,0.2,2,0.2,3.8v3.9h-1.6v-9.5H83l2.8,7.7c-0.1-0.5-0.2-1.9-0.2-3.2v-4.5
				h1.6V135.8z"/>
			<path class="st2" d="M94.4,127.7h-2.2v8.1h-1.8v-8.1h-2.3v-1.4h6.4L94.4,127.7z"/>
			<path class="st2" d="M100.5,127.6h-3.1v2.7h2.7v1.3h-2.7v2.8h3.3v1.3h-5.1v-9.5h5.1L100.5,127.6z"/>
			<path class="st2" d="M104.8,132h-1v3.8H102v-9.5h2.5c2.4,0,3.6,1,3.6,2.8c0,1.2-0.5,2.1-1.7,2.6l2.2,4.2h-2L104.8,132z
				 M104.6,130.7c1.1,0,1.6-0.5,1.6-1.6c0-1-0.5-1.5-1.8-1.5h-0.7v3.1H104.6z"/>
			<path class="st2" d="M114.3,133.6h-2.7l-0.5,2.2h-1.8l2.6-9.5h2.2l2.6,9.5h-1.8L114.3,133.6z M114,132.3l-1.1-4.6l-1.1,4.6H114z"
				/>
			<path class="st2" d="M123.3,127.3l-0.9,1c-0.6-0.5-1.2-0.8-1.9-0.8c-0.8,0-1.3,0.4-1.3,1.1c0,0.7,0.3,1,1.7,1.5
				c1.5,0.6,2.5,1.3,2.5,3c0,1.7-1.2,2.9-3.3,2.9c-1.4,0-2.4-0.5-3.1-1.3l0.9-1c0.6,0.6,1.3,0.9,2.2,0.9c0.9,0,1.5-0.5,1.5-1.4
				c0-0.8-0.3-1.2-1.6-1.6c-1.8-0.6-2.6-1.5-2.6-2.8c0-1.5,1.3-2.6,3-2.6C121.7,126.1,122.5,126.5,123.3,127.3z"/>
		</g>
	</g>
</g>
<g id="Icon_2_">
	<g>
		<path class="st2" d="M100,70.5c-0.4-0.6-1.1-1.1-1.9-1.2l-2.9-0.5l2.6-14.3c0.3-1.5,0-3-0.9-4.3c-0.9-1.3-2.2-2.1-3.7-2.4
			l-7.9-1.4l1-5.7l0.7,0.1c0,0,0.1,0,0.1,0c0.2,0,0.4-0.1,0.5-0.3l6.1-10.7c0,0,0-0.1,0-0.1c0,0,0-0.1,0-0.1c0-0.1,0-0.1,0-0.2
			c0,0,0-0.1,0-0.1l-2.3-6.7c-0.1-0.2-0.3-0.4-0.5-0.4L79,19.9c-0.2,0-0.4,0-0.6,0.2l-4.8,5.4c0,0,0,0.1,0,0.1
			c0,0.1-0.1,0.1-0.1,0.2c0,0,0,0.1,0,0.1c0,0,0,0.1,0,0.1l1.9,12.2c0,0.3,0.2,0.5,0.5,0.5l0.7,0.1l-1,5.7l-7.7-1.4
			c-3.1-0.6-6.1,1.5-6.6,4.6L58.5,62l-3.1-0.6c-1.6-0.3-3.1,0.8-3.4,2.3c-0.1,0.8,0,1.5,0.5,2.2c0.4,0.6,1.1,1.1,1.9,1.2L97.1,75
			c0.2,0,0.3,0,0.5,0c1.4,0,2.6-1,2.8-2.4C100.6,71.9,100.4,71.1,100,70.5z M93,49c1.2,0.2,2.2,0.9,2.9,1.8c0.7,1,0.9,2.2,0.7,3.3
			L94,68.5L91.1,68l0.7-3.8l-3.2-0.6l1.3-7.1c0.1-0.8,0-1.5-0.5-2.2c-0.4-0.6-1.1-1.1-1.9-1.2l-3.3-0.6l0.9-5L93,49z M63.6,63
			l0.5-2.5l2,0.4l0,0l22.3,4.1l0,0l2,0.4l-0.5,2.5L63.6,63z M76.2,52.4l7.8,1.4l0,0l3.3,0.6c0.4,0.1,0.8,0.3,1.1,0.7
			c0.2,0.4,0.3,0.8,0.3,1.2l-1.3,7.1l-19.8-3.6l1.3-7.1c0.2-0.9,1-1.5,1.9-1.3L76.2,52.4z M79.1,21.2l11.4,2.1l1.8,5.4l-17.1-3.1
			L79.1,21.2z M78.1,39.2c0.3,0.1,0.7-0.2,0.7-0.5c0.1-0.3-0.2-0.7-0.5-0.7l-1-0.2c0,0,0,0,0,0s0,0,0,0l-0.8-0.2l-1.7-10.9l17.5,3.2
			l-5.5,9.6L86,39.4c0,0,0,0,0,0s0,0,0,0L83.8,39c-0.3-0.1-0.7,0.2-0.7,0.5c-0.1,0.3,0.2,0.7,0.5,0.7l1.6,0.3L83,52.4L75.5,51
			l2.2-11.9L78.1,39.2z M62.4,48c0.4-2.4,2.8-4,5.2-3.6l7.7,1.4l-0.9,5L71,50.2c-1.6-0.3-3.1,0.8-3.4,2.3l-1.3,7.1L63.1,59l-0.7,3.8
			l-2.6-0.5L62.4,48z M99.2,72.4c-0.2,0.9-1,1.5-1.9,1.3l-42.7-7.8c-0.4-0.1-0.8-0.3-1.1-0.7c-0.2-0.4-0.3-0.8-0.3-1.2
			c0.2-0.9,1-1.5,1.9-1.3l7,1.3l0,0l28.8,5.3l0,0l7,1.3C98.8,70.7,99.4,71.5,99.2,72.4z"/>
		
			<rect x="74.7" y="54.8" transform="matrix(0.1801 -0.9836 0.9836 0.1801 -10.165 134.0388)" class="st2" width="1.3" height="36.7"/>
		<polygon class="st2" points="60.6,78 51.1,80.1 89.9,80.1 83.2,78 		"/>
	</g>
</g>
</svg>
