<?xml version="1.0" encoding="utf-8"?>
<!-- Generator: Adobe Illustrator 25.0.1, SVG Export Plug-In . SVG Version: 6.00 Build 0)  -->
<svg version="1.1" id="_x30_3_Negative_EN" xmlns="http://www.w3.org/2000/svg" xmlns:xlink="http://www.w3.org/1999/xlink" x="0px"
	 y="0px" viewBox="0 0 150 150" style="enable-background:new 0 0 150 150;" xml:space="preserve">
<style type="text/css">
	.st0{fill:#003366;}
	.st1{fill:#007CBB;}
	.st2{fill:#FFFFFF;}
</style>
<g id="Elements_2_">
	<g id="Bckgd_5_">
		<rect id="Bckgd_3_" x="-0.1" y="-0.1" class="st0" width="150" height="100"/>
	</g>
	<g id="Color_2_">
		<rect id="GCM_x5F_Color_2_" x="-0.1" y="99.9" class="st1" width="150" height="50"/>
	</g>
	<g>
		<g>
			<path class="st2" d="M43.6,120.1h-1v3.8h-1.8v-9.5h2.5c2.4,0,3.5,1,3.5,2.8c0,1.2-0.5,2.1-1.7,2.6l2.2,4.2h-1.9L43.6,120.1z
				 M43.5,118.8c1.1,0,1.6-0.5,1.6-1.6c0-1-0.5-1.5-1.7-1.5h-0.7v3.1H43.5z"/>
			<path class="st2" d="M53.1,115.7h-3v2.7h2.7v1.3H50v2.8h3.2v1.3h-5v-9.5h5L53.1,115.7z"/>
			<path class="st2" d="M60,115.8h-2.1v8.1h-1.7v-8.1h-2.2v-1.4h6.3L60,115.8z"/>
			<path class="st2" d="M67.9,119.1c0,3.2-1.4,5-3.7,5c-2.3,0-3.7-1.7-3.7-4.9c0-3.2,1.4-5,3.7-5C66.5,114.2,67.9,115.8,67.9,119.1z
				 M62.3,119.1c0,2.7,0.7,3.6,1.9,3.6c1.2,0,1.9-0.9,1.9-3.6c0-2.6-0.7-3.6-1.9-3.6C63,115.5,62.3,116.5,62.3,119.1z"/>
			<path class="st2" d="M71.9,120.1h-1v3.8h-1.8v-9.5h2.5c2.4,0,3.5,1,3.5,2.8c0,1.2-0.5,2.1-1.7,2.6l2.2,4.2h-1.9L71.9,120.1z
				 M71.7,118.8c1.1,0,1.6-0.5,1.6-1.6c0-1-0.5-1.5-1.7-1.5h-0.7v3.1H71.7z"/>
			<path class="st2" d="M82.8,123.9h-2.2l-2.7-7.7c0.1,0.9,0.2,2,0.2,3.8v3.9h-1.6v-9.5h2.2l2.7,7.7c-0.1-0.5-0.2-1.9-0.2-3.2v-4.5
				h1.6V123.9z"/>
			<path class="st2" d="M91.5,119.1c0,3.2-1.4,5-3.7,5c-2.3,0-3.7-1.7-3.7-4.9c0-3.2,1.4-5,3.7-5C90.1,114.2,91.5,115.8,91.5,119.1z
				 M85.9,119.1c0,2.7,0.7,3.6,1.9,3.6c1.2,0,1.9-0.9,1.9-3.6c0-2.6-0.7-3.6-1.9-3.6C86.6,115.5,85.9,116.5,85.9,119.1z"/>
			<path class="st2" d="M102.1,119.1c0,3.9-2,4.8-4.1,4.8h-2.4v-9.5h2.2C100.1,114.4,102.1,115.1,102.1,119.1z M97.4,115.7v6.8h0.7
				c1.2,0,2.2-0.6,2.2-3.5c0-2.9-1-3.4-2.2-3.4H97.4z"/>
			<path class="st2" d="M105.2,123.9h-1.8v-9.5h1.8V123.9z"/>
			<path class="st2" d="M113.1,115.3l-0.9,0.9c-0.6-0.5-1.1-0.7-1.8-0.7c-1.2,0-2.1,0.9-2.1,3.6c0,2.8,0.6,3.6,1.9,3.6
				c0.5,0,0.9-0.1,1.3-0.4v-2.5h-1.2l-0.2-1.3h3.1v4.6c-0.8,0.6-1.9,0.9-2.9,0.9c-2.5,0-3.7-1.6-3.7-5c0-3.3,1.8-4.9,3.9-4.9
				C111.5,114.2,112.4,114.6,113.1,115.3z"/>
			<path class="st2" d="M120.9,123.9h-2.2l-2.7-7.7c0.1,0.9,0.2,2,0.2,3.8v3.9h-1.6v-9.5h2.2l2.7,7.7c-0.1-0.5-0.2-1.9-0.2-3.2v-4.5
				h1.6V123.9z"/>
			<path class="st2" d="M129.6,119.1c0,3.2-1.4,5-3.7,5c-2.3,0-3.7-1.7-3.7-4.9c0-3.2,1.4-5,3.7-5
				C128.1,114.2,129.6,115.8,129.6,119.1z M124,119.1c0,2.7,0.7,3.6,1.9,3.6c1.2,0,1.9-0.9,1.9-3.6c0-2.6-0.7-3.6-1.9-3.6
				C124.7,115.5,124,116.5,124,119.1z"/>
			<path class="st2" d="M44.4,133.8v3.6h-1.8v-3.6l-2.7-5.9h1.9l1.7,4.4l1.7-4.4h1.8L44.4,133.8z"/>
			<path class="st2" d="M53.4,133.6h-1v3.8h-1.8v-9.5h2.5c2.4,0,3.5,1,3.5,2.8c0,1.2-0.5,2.1-1.7,2.6l2.2,4.2h-1.9L53.4,133.6z
				 M53.2,132.3c1.1,0,1.6-0.5,1.6-1.6c0-1-0.5-1.5-1.7-1.5h-0.7v3.1H53.2z"/>
			<path class="st2" d="M62.8,129.2h-3v2.7h2.7v1.3h-2.7v2.8H63v1.3h-5v-9.5h5L62.8,129.2z"/>
			<path class="st2" d="M65.9,137.4h-1.8v-9.5h1.8V137.4z"/>
			<path class="st2" d="M73.9,137.4h-2.2l-2.7-7.7c0.1,0.9,0.2,2,0.2,3.8v3.9h-1.6v-9.5h2.2l2.7,7.7c-0.1-0.5-0.2-1.9-0.2-3.2v-4.5
				h1.6V137.4z"/>
			<path class="st2" d="M80.9,129.3h-2.1v8.1H77v-8.1h-2.2v-1.4h6.3L80.9,129.3z"/>
			<path class="st2" d="M86.7,129.2h-3v2.7h2.7v1.3h-2.7v2.8h3.2v1.3h-5v-9.5h5L86.7,129.2z"/>
			<path class="st2" d="M94.1,128.8l-0.9,0.9c-0.6-0.5-1.1-0.7-1.8-0.7c-1.2,0-2.1,0.9-2.1,3.6c0,2.8,0.6,3.6,1.9,3.6
				c0.5,0,0.9-0.1,1.3-0.4v-2.5h-1.2l-0.2-1.3h3.1v4.6c-0.8,0.6-1.9,0.9-2.9,0.9c-2.5,0-3.7-1.6-3.7-5c0-3.3,1.8-4.9,3.9-4.9
				C92.6,127.7,93.4,128.1,94.1,128.8z"/>
			<path class="st2" d="M98.3,133.6h-1v3.8h-1.8v-9.5h2.5c2.4,0,3.5,1,3.5,2.8c0,1.2-0.5,2.1-1.7,2.6l2.2,4.2h-1.9L98.3,133.6z
				 M98.2,132.3c1.1,0,1.6-0.5,1.6-1.6c0-1-0.5-1.5-1.7-1.5h-0.7v3.1H98.2z"/>
			<path class="st2" d="M107.5,135.2h-2.7l-0.5,2.2h-1.8l2.6-9.5h2.1l2.6,9.5H108L107.5,135.2z M107.2,133.8l-1.1-4.6l-1.1,4.6
				H107.2z"/>
			<path class="st2" d="M116.2,128.7l-0.9,1c-0.5-0.4-1-0.6-1.5-0.6c-1.1,0-2,0.9-2,3.6c0,2.6,0.8,3.5,2,3.5c0.7,0,1.2-0.3,1.7-0.7
				l0.8,1c-0.6,0.6-1.4,1.1-2.6,1.1c-2.2,0-3.7-1.6-3.7-5c0-3.3,1.6-4.9,3.7-4.9C114.7,127.7,115.5,128.1,116.2,128.7z"/>
			<path class="st2" d="M118.9,137.4h-1.8v-9.5h1.8V137.4z"/>
			<path class="st2" d="M127.6,132.6c0,3.2-1.4,5-3.7,5c-2.3,0-3.7-1.7-3.7-4.9c0-3.2,1.4-5,3.7-5
				C126.2,127.7,127.6,129.3,127.6,132.6z M122,132.6c0,2.7,0.7,3.6,1.9,3.6c1.2,0,1.9-0.9,1.9-3.6c0-2.6-0.7-3.6-1.9-3.6
				C122.7,129,122,130,122,132.6z M125.5,125.9l-2.8,1.1l-0.4-0.9l2.6-1.6L125.5,125.9z"/>
			<path class="st2" d="M135.2,137.4H133l-2.7-7.7c0.1,0.9,0.2,2,0.2,3.8v3.9h-1.6v-9.5h2.2l2.7,7.7c-0.1-0.5-0.2-1.9-0.2-3.2v-4.5
				h1.6V137.4z"/>
		</g>
	</g>
	<g id="Number_2_">
		<g>
			<g>
				<path class="st2" d="M20.4,119.6c0,3.9-1.5,6.7-7.2,13.7h7.6l-0.4,3.8H8.6v-3.5c6.1-8.1,7.5-10.4,7.5-13.6c0-2-0.9-3.2-2.4-3.2
					c-1.3,0-2.2,0.8-3.3,2.4L8,116.9c1.5-2.5,3.5-3.9,6.2-3.9C18.2,113,20.4,116,20.4,119.6z"/>
				<path class="st2" d="M30.9,137.1h-4v-18.8l-3.9,3.1l-1.8-3.2l6.1-4.7h3.7V137.1z"/>
			</g>
		</g>
	</g>
</g>
<g id="Icon_2_">
	<g>
		<g>
			<path class="st2" d="M75.6,80.1H44.8V65.5h30.8V80.1z M46,78.9h28.3V66.7H46V78.9z"/>
			<path class="st2" d="M105.2,80.1H74.4V65.5h30.8V80.1z M75.6,78.9H104V66.7H75.6V78.9z"/>
			<g>
				<path class="st2" d="M102.1,66.4h-9.8v-4.6h9.8V66.4z M93.5,65.2h7.3v-2.1h-7.3V65.2z"/>
				<path class="st2" d="M87.9,66.4h-9.8v-4.6h9.8V66.4z M79.3,65.2h7.3v-2.1h-7.3V65.2z"/>
			</g>
			<g>
				<path class="st2" d="M71.9,66.4h-9.8v-4.6h9.8V66.4z M63.4,65.2h7.3v-2.1h-7.3V65.2z"/>
				<path class="st2" d="M57.8,66.4h-9.8v-4.6h9.8V66.4z M49.2,65.2h7.3v-2.1h-7.3V65.2z"/>
			</g>
		</g>
		<g>
			<path class="st2" d="M64,56.5l-6.2-13.3l27.9-13l6.2,13.3L64,56.5z M59.4,43.9l5.2,11l25.7-11.9l-5.2-11L59.4,43.9z"/>
			<g>
				<polygon class="st2" points="73.8,36.1 72.2,32.5 81.1,28.4 82.7,32 81.6,32.5 80.5,30 73.8,33.1 75,35.6 				"/>
				<polygon class="st2" points="61,42.1 59.3,38.5 68.2,34.3 69.9,38 68.8,38.5 67.6,36 61,39.1 62.1,41.6 				"/>
			</g>
		</g>
		<polygon class="st2" points="51.5,56.5 45.1,53 45.7,51.9 51,54.8 53.9,49.5 55,50.1 		"/>
		<path class="st2" d="M50.7,55.7c-0.4-1.3-0.8-2.7-1-4l1.2-0.2c0.2,1.3,0.6,2.6,1,3.8L50.7,55.7z M49.3,49c0-0.6-0.1-1.3-0.1-1.9
			c0-0.8,0-1.5,0.1-2.3l1.2,0.1c-0.1,0.7-0.1,1.4-0.1,2.2c0,0.6,0,1.2,0.1,1.8L49.3,49z M51,42.3l-1.2-0.2c0.3-1.4,0.6-2.7,1.1-4
			l1.2,0.4C51.6,39.7,51.2,41,51,42.3z M101.3,38.8c-0.3-0.8-0.6-1.6-0.9-2.4l1.1-0.5c0.4,0.8,0.7,1.7,1,2.5L101.3,38.8z M53,36.1
			l-1.1-0.5c0.6-1.2,1.3-2.5,2-3.6l1,0.7C54.2,33.7,53.6,34.9,53,36.1z M99.2,34.1c-0.7-1.1-1.4-2.2-2.2-3.3l1-0.8
			c0.9,1.1,1.7,2.2,2.3,3.4L99.2,34.1z M56.5,30.5l-1-0.8c0.9-1.1,1.9-2.1,2.9-3l0.8,0.9C58.3,28.5,57.4,29.5,56.5,30.5z M95.2,28.9
			c-0.9-0.9-1.9-1.8-3-2.6l0.7-1c1.1,0.8,2.2,1.7,3.1,2.7L95.2,28.9z M61.3,26l-0.7-1c1.1-0.8,2.3-1.5,3.5-2.2l0.6,1.1
			C63.5,24.6,62.4,25.3,61.3,26z M90,24.8c-1.1-0.7-2.3-1.3-3.5-1.8l0.5-1.2c1.3,0.5,2.5,1.1,3.7,1.8L90,24.8z M67.1,22.9l-0.5-1.2
			c0.4-0.2,0.8-0.3,1.2-0.4c0.9-0.3,1.8-0.6,2.7-0.8l0.3,1.2c-0.9,0.2-1.8,0.4-2.6,0.7C67.9,22.6,67.5,22.8,67.1,22.9z M84,22.2
			c-1.3-0.4-2.6-0.7-3.9-0.8l0.2-1.2c1.4,0.2,2.7,0.5,4.1,0.9L84,22.2z M73.5,21.3l-0.1-1.2c1.4-0.2,2.8-0.2,4.1-0.2l0,1.2
			C76.2,21.1,74.8,21.2,73.5,21.3z"/>
	</g>
</g>
</svg>
