<?xml version="1.0" encoding="UTF-8"?><svg id="a" xmlns="http://www.w3.org/2000/svg" viewBox="0 0 150 150"><defs><style>.i{fill:#fff;}.j{fill:#fdaa1c;}.k{fill:#036;}</style></defs><g id="b"><g id="c"><rect id="d" class="k" x="-.05" y="-.07" width="150" height="100"/></g><g id="e"><rect id="f" class="j" x="-.05" y="99.93" width="150" height="50"/></g><g id="g"><g><path class="i" d="M17.04,137.06h-4.02v-18.8l-3.9,3.12-1.82-3.19,6.07-4.73h3.66v23.59Z"/><path class="i" d="M32.96,125.3c0,8.19-2.38,12.32-6.78,12.32s-6.78-4.13-6.78-12.32,2.35-12.29,6.78-12.29,6.78,4.17,6.78,12.29Zm-9.34,0c0,6.76,.77,8.68,2.56,8.68s2.53-1.86,2.53-8.68-.74-8.65-2.53-8.65-2.56,1.92-2.56,8.65Z"/></g></g><g><path class="i" d="M45.75,108.89h-3.06v2.69h2.68v1.31h-2.68v2.85h3.28v1.33h-5.05v-9.5h5.02l-.19,1.32Z"/><path class="i" d="M49.65,113.25h-.97v3.82h-1.77v-9.5h2.48c2.41,0,3.55,.96,3.55,2.79,0,1.2-.54,2.09-1.69,2.56l2.19,4.15h-1.95l-1.85-3.82Zm-.16-1.28c1.12,0,1.63-.5,1.63-1.61,0-1.03-.52-1.48-1.74-1.48h-.7v3.09h.8Z"/><path class="i" d="M56.86,113.25h-.97v3.82h-1.77v-9.5h2.48c2.41,0,3.55,.96,3.55,2.79,0,1.2-.54,2.09-1.69,2.56l2.19,4.15h-1.95l-1.85-3.82Zm-.16-1.28c1.12,0,1.63-.5,1.63-1.61,0-1.03-.52-1.48-1.74-1.48h-.69v3.09h.8Z"/><path class="i" d="M65.88,114.86h-2.72l-.52,2.21h-1.78l2.61-9.5h2.15l2.6,9.5h-1.82l-.52-2.21Zm-.3-1.35l-1.06-4.58-1.06,4.58h2.12Z"/><path class="i" d="M75.39,112.27c0,3.88-2.07,4.8-4.15,4.8h-2.39v-9.5h2.21c2.23,0,4.34,.71,4.34,4.7Zm-4.78-3.37v6.83h.75c1.22,0,2.21-.62,2.21-3.46s-1.04-3.37-2.25-3.37h-.71Z"/><path class="i" d="M78.24,117.07h-1.77v-9.5h1.77v9.5Z"/><path class="i" d="M85.58,108.35l-.87,1.03c-.49-.41-.98-.65-1.56-.65-1.13,0-1.99,.89-1.99,3.56s.83,3.55,2,3.55c.72,0,1.21-.34,1.67-.73l.84,1.02c-.56,.59-1.43,1.14-2.6,1.14-2.22,0-3.77-1.65-3.77-4.98s1.63-4.94,3.74-4.94c1.09,0,1.82,.37,2.53,.99Z"/><path class="i" d="M90.83,114.86h-2.72l-.52,2.21h-1.78l2.61-9.5h2.15l2.6,9.5h-1.82l-.52-2.21Zm-.3-1.35l-1.06-4.58-1.06,4.58h2.12Z"/><path class="i" d="M42.69,128.11h3.35l-.19,1.46h-4.93v-9.5h1.77v8.04Z"/><path class="i" d="M51.21,127.36h-2.72l-.52,2.21h-1.78l2.61-9.5h2.15l2.6,9.5h-1.82l-.52-2.21Zm-.3-1.35l-1.06-4.58-1.06,4.58h2.12Z"/><path class="i" d="M62.14,121.47h-2.16v8.1h-1.76v-8.1h-2.26v-1.4h6.37l-.19,1.4Z"/><path class="i" d="M65.72,125.75h-.97v3.82h-1.77v-9.5h2.48c2.41,0,3.55,.96,3.55,2.79,0,1.2-.54,2.09-1.69,2.56l2.19,4.15h-1.95l-1.85-3.82Zm-.16-1.28c1.12,0,1.63-.5,1.63-1.61,0-1.03-.52-1.48-1.74-1.48h-.69v3.09h.8Z"/><path class="i" d="M74.74,127.36h-2.72l-.52,2.21h-1.78l2.61-9.5h2.15l2.6,9.5h-1.82l-.52-2.21Zm-.3-1.35l-1.06-4.58-1.06,4.58h2.12Z"/><path class="i" d="M82.38,121.47h-2.16v8.1h-1.76v-8.1h-2.26v-1.4h6.37l-.19,1.4Z"/><path class="i" d="M86.59,127.36h-2.72l-.52,2.21h-1.78l2.61-9.5h2.15l2.6,9.5h-1.82l-.52-2.21Zm-.3-1.35l-1.06-4.58-1.06,4.58h2.12Z"/><path class="i" d="M47.46,137.27c0,3.88-2.07,4.8-4.15,4.8h-2.4v-9.5h2.21c2.23,0,4.34,.71,4.34,4.7Zm-4.78-3.37v6.83h.75c1.22,0,2.21-.62,2.21-3.46s-1.04-3.37-2.25-3.37h-.71Z"/><path class="i" d="M53.36,133.89h-3.06v2.69h2.68v1.31h-2.68v2.85h3.28v1.33h-5.05v-9.5h5.02l-.19,1.32Z"/><path class="i" d="M63.4,135.59c0,2.16-1.39,3.15-3.5,3.15h-.79v3.33h-1.77v-9.5h2.44c2.31,0,3.62,1,3.62,3.02Zm-1.82,0c0-1.2-.59-1.72-1.78-1.72h-.68v3.53h.68c1.16,0,1.78-.43,1.78-1.82Z"/><path class="i" d="M69,133.89h-3.06v2.69h2.68v1.31h-2.68v2.85h3.28v1.33h-5.05v-9.5h5.02l-.19,1.32Z"/><path class="i" d="M72.9,138.25h-.97v3.82h-1.77v-9.5h2.48c2.41,0,3.55,.96,3.55,2.79,0,1.2-.54,2.09-1.69,2.56l2.19,4.15h-1.95l-1.85-3.82Zm-.16-1.28c1.12,0,1.63-.5,1.63-1.61,0-1.03-.52-1.48-1.74-1.48h-.7v3.09h.8Z"/><path class="i" d="M82.9,133.53l-.84,.98c-.6-.54-1.17-.78-1.85-.78-.78,0-1.28,.43-1.28,1.14s.33,1.03,1.71,1.53c1.52,.56,2.5,1.25,2.5,2.97s-1.23,2.91-3.27,2.91c-1.4,0-2.38-.54-3.12-1.29l.9-1c.64,.56,1.29,.92,2.15,.92,.91,0,1.5-.54,1.5-1.44,0-.78-.34-1.18-1.63-1.64-1.8-.65-2.56-1.46-2.56-2.83,0-1.54,1.25-2.63,2.97-2.63,1.22,0,2.08,.41,2.82,1.17Z"/><path class="i" d="M91.21,137.31c0,3.25-1.43,4.96-3.76,4.96s-3.74-1.66-3.74-4.95,1.44-4.96,3.74-4.96,3.76,1.65,3.76,4.95Zm-5.65,.01c0,2.65,.71,3.59,1.89,3.59s1.9-.94,1.9-3.6-.67-3.59-1.9-3.59-1.89,.96-1.89,3.6Z"/><path class="i" d="M98.66,142.07h-2.26l-2.75-7.74c.08,.85,.23,2.05,.23,3.79v3.95h-1.58v-9.5h2.23l2.78,7.74c-.08-.54-.23-1.88-.23-3.23v-4.51h1.58v9.5Z"/><path class="i" d="M104.31,139.86h-2.72l-.52,2.21h-1.78l2.61-9.5h2.15l2.6,9.5h-1.82l-.52-2.21Zm-.3-1.35l-1.06-4.58-1.06,4.58h2.12Z"/><path class="i" d="M112.91,133.53l-.84,.98c-.6-.54-1.17-.78-1.85-.78-.78,0-1.28,.43-1.28,1.14s.33,1.03,1.71,1.53c1.52,.56,2.5,1.25,2.5,2.97s-1.22,2.91-3.27,2.91c-1.4,0-2.38-.54-3.12-1.29l.9-1c.64,.56,1.29,.92,2.15,.92,.91,0,1.5-.54,1.5-1.44,0-.78-.34-1.18-1.63-1.64-1.8-.65-2.56-1.46-2.56-2.83,0-1.54,1.25-2.63,2.97-2.63,1.23,0,2.08,.41,2.82,1.17Z"/></g></g><g id="h"><g><g><path class="i" d="M69.45,41.99c-5.04,0-9.15-4.15-9.15-9.26s4.1-9.26,9.15-9.26,9.15,4.15,9.15,9.26-4.1,9.26-9.15,9.26Zm0-17.27c-4.35,0-7.9,3.59-7.9,8.01s3.54,8.01,7.9,8.01,7.9-3.59,7.9-8.01-3.54-8.01-7.9-8.01Z"/><path class="i" d="M69.45,80.12c-5.63,0-11.14-1.56-15.91-4.52-.18-.11-.3-.31-.3-.53v-22.03c0-2.8,1.96-5.73,4.37-6.53,7.75-2.52,15.93-2.52,23.67,0h0c2.37,.79,4.37,3.78,4.37,6.53v22.03c0,.22-.11,.42-.3,.53-4.77,2.96-10.28,4.52-15.91,4.52Zm-14.96-5.4c4.51,2.72,9.67,4.15,14.96,4.15s10.45-1.43,14.96-4.15v-21.68c0-2.22-1.64-4.72-3.51-5.34-7.49-2.44-15.41-2.44-22.89,0-1.86,.62-3.51,3.12-3.51,5.34v21.68Z"/><g><rect class="i" x="59.75" y="59.22" width="1.25" height="19.04"/><rect class="i" x="77.89" y="59.22" width="1.25" height="19.04"/></g></g><path class="i" d="M69.45,80.12c-16.66,0-30.21-13.51-30.21-30.12s13.55-30.12,30.21-30.12,30.21,13.51,30.21,30.12c0,1.82-.17,3.67-.51,5.5-.05,.3-.31,.51-.61,.51-.03,0-.07,0-.11,0l-7.21,.23c-.27,0-.48,.23-.47,.5l.22,7.3c0,.27,.12,.52,.31,.71h0l2.38,2.38c.22,.22,.25,.57,.06,.82-5.68,7.62-14.75,12.17-24.26,12.17Zm0-59c-15.97,0-28.96,12.95-28.96,28.88s12.99,28.88,28.96,28.88c8.94,0,17.47-4.19,22.93-11.24l-1.99-1.99c-.42-.42-.66-.97-.68-1.56l-.22-7.3c-.03-.96,.72-1.76,1.68-1.79l6.83-.22c.27-1.59,.4-3.19,.4-4.77,0-15.92-12.99-28.88-28.96-28.88Z"/><path class="i" d="M93.63,59.75c-.16,0-.32-.06-.44-.18l-10.02-9.99c-.24-.24-.25-.64,0-.88,.24-.24,.64-.25,.88,0l10.02,9.99c.24,.24,.25,.64,0,.88-.12,.12-.28,.18-.44,.18Z"/><rect class="i" x="68.82" y="20.68" width="1.25" height="59.01" transform="translate(-15.12 63.93) rotate(-45.08)"/><path class="i" d="M101.71,76.25c-.46,0-.89-.18-1.21-.5l-10.11-10.1c-.42-.42-.66-.97-.68-1.56l-.22-7.3c-.03-.96,.72-1.76,1.68-1.79l7.27-.23c.64,0,1.21,.21,1.66,.62l10.13,10.12c.32,.3,.51,.72,.53,1.18s-.15,.89-.46,1.23l-7.33,7.8c-.32,.34-.76,.53-1.23,.54h-.03Zm-3.19-20.25s-.02,0-.03,0l-7.27,.23c-.27,0-.48,.23-.47,.5l.22,7.3c0,.27,.12,.52,.31,.71h0l10.11,10.1c.09,.09,.19,.15,.34,.14,.13,0,.25-.05,.33-.15l7.33-7.8c.08-.09,.13-.21,.12-.33s-.06-.24-.15-.32l-10.13-10.12c-.18-.17-.44-.27-.71-.27Z"/></g></g><path class="i" d="M96.69,113.25h-.97v3.82h-1.77v-9.5h2.48c2.41,0,3.55,.96,3.55,2.79,0,1.2-.54,2.09-1.69,2.56l2.19,4.15h-1.95l-1.85-3.82Zm-.16-1.28c1.12,0,1.63-.5,1.63-1.61,0-1.03-.52-1.49-1.74-1.49h-.69v3.09h.8Z"/></svg>