<?xml version="1.0" encoding="utf-8"?>
<!-- Generator: Adobe Illustrator 25.0.1, SVG Export Plug-In . SVG Version: 6.00 Build 0)  -->
<svg version="1.1" id="_x30_3_Negative_EN" xmlns="http://www.w3.org/2000/svg" xmlns:xlink="http://www.w3.org/1999/xlink" x="0px"
	 y="0px" viewBox="0 0 150 150" style="enable-background:new 0 0 150 150;" xml:space="preserve">
<style type="text/css">
	.st0{fill:#1C3664;}
	.st1{fill:#5B366A;}
	.st2{fill:#FFFFFF;}
</style>
<g id="Elements_2_">
	<g id="Bckgd_5_">
		<rect id="Bckgd_3_" x="-0.1" y="-0.1" class="st0" width="150" height="100"/>
	</g>
	<g id="Color_2_">
		<rect id="GCM_x5F_Color_2_" x="-0.1" y="99.9" class="st1" width="150" height="50"/>
	</g>
	<g id="Number_2_">
		<g>
			<g>
				<path class="st2" d="M24.5,137.1h-4v-18.8l-3.9,3.1l-1.8-3.2l6.1-4.7h3.7V137.1z"/>
			</g>
		</g>
	</g>
	<g id="Title_2_">
		<g>
			<g>
				<path class="st2" d="M48.3,125.5c0,4.2-2.3,5.2-4.6,5.2h-2.6v-10.4h2.4C46,120.4,48.3,121.1,48.3,125.5z M43,121.8v7.5h0.8
					c1.4,0,2.4-0.7,2.4-3.8c0-3.2-1.1-3.7-2.5-3.7H43z"/>
				<path class="st2" d="M54.2,128.3h-3l-0.6,2.4h-2l2.9-10.4h2.4l2.9,10.4h-2L54.2,128.3z M53.8,126.8l-1.2-5l-1.2,5H53.8z"/>
				<path class="st2" d="M63,121.9h-2.4v8.8h-1.9v-8.8h-2.5v-1.5h7L63,121.9z"/>
				<path class="st2" d="M71.8,125.5c0,3.5-1.6,5.4-4.1,5.4c-2.5,0-4.1-1.8-4.1-5.4c0-3.5,1.6-5.4,4.1-5.4
					C70.2,120.1,71.8,121.9,71.8,125.5z M65.6,125.5c0,2.9,0.8,3.9,2.1,3.9c1.4,0,2.1-1,2.1-3.9c0-2.9-0.7-3.9-2.1-3.9
					C66.4,121.6,65.6,122.7,65.6,125.5z"/>
				<path class="st2" d="M79.2,121.4l-0.9,1.1c-0.7-0.6-1.3-0.9-2-0.9c-0.9,0-1.4,0.5-1.4,1.2c0,0.8,0.4,1.1,1.9,1.7
					c1.7,0.6,2.8,1.4,2.8,3.2c0,1.8-1.4,3.2-3.6,3.2c-1.5,0-2.6-0.6-3.4-1.4l1-1.1c0.7,0.6,1.4,1,2.4,1c1,0,1.7-0.6,1.7-1.6
					c0-0.9-0.4-1.3-1.8-1.8c-2-0.7-2.8-1.6-2.8-3.1c0-1.7,1.4-2.9,3.3-2.9C77.5,120.1,78.4,120.6,79.2,121.4z"/>
			</g>
		</g>
	</g>
</g>
<g id="Icon_2_">
	<g id="_x31_010">
		<path class="st2" d="M65.5,34.4c-3.1,0-5.6-3.1-5.6-6.9s2.5-6.9,5.6-6.9c3.1,0,5.6,3.1,5.6,6.9S68.6,34.4,65.5,34.4z M65.5,21.9
			c-2.4,0-4.4,2.5-4.4,5.6s2,5.6,4.4,5.6c2.4,0,4.4-2.5,4.4-5.6S67.9,21.9,65.5,21.9z"/>
		<path class="st2" d="M89.5,34.4c-3.1,0-5.6-3.1-5.6-6.9s2.5-6.9,5.6-6.9s5.6,3.1,5.6,6.9S92.6,34.4,89.5,34.4z M89.5,21.9
			c-2.4,0-4.4,2.5-4.4,5.6s2,5.6,4.4,5.6s4.4-2.5,4.4-5.6S91.9,21.9,89.5,21.9z"/>
		<path class="st2" d="M102.4,34.4c-3.1,0-5.6-3.1-5.6-6.9s2.5-6.9,5.6-6.9s5.6,3.1,5.6,6.9S105.5,34.4,102.4,34.4z M102.4,21.9
			c-2.4,0-4.4,2.5-4.4,5.6s2,5.6,4.4,5.6s4.4-2.5,4.4-5.6S104.8,21.9,102.4,21.9z"/>
		<polygon class="st2" points="57.6,33.6 56.4,33.6 56.4,23.9 54.3,24.8 53.8,23.7 57.6,22 		"/>
		<polygon class="st2" points="75.9,33.6 74.7,33.6 74.7,23.9 72.6,24.8 72,23.7 75.9,22 		"/>
		<polygon class="st2" points="82.2,33.6 81,33.6 81,23.9 78.9,24.8 78.4,23.7 82.2,22 		"/>
		<polygon class="st2" points="87,63.3 85.7,63.3 85.7,53.7 83.6,54.6 83.1,53.5 87,51.7 		"/>
		<polygon class="st2" points="93,63.3 91.7,63.3 91.7,53.7 89.6,54.6 89.1,53.5 93,51.7 		"/>
		<path class="st2" d="M61.4,64.2c-3.1,0-5.6-3.1-5.6-6.9s2.5-6.9,5.6-6.9c3.1,0,5.6,3.1,5.6,6.9S64.5,64.2,61.4,64.2z M61.4,51.7
			c-2.4,0-4.4,2.5-4.4,5.6s2,5.6,4.4,5.6s4.4-2.5,4.4-5.6S63.8,51.7,61.4,51.7z"/>
		<path class="st2" d="M75.7,64.2c-3.1,0-5.6-3.1-5.6-6.9s2.5-6.9,5.6-6.9s5.6,3.1,5.6,6.9S78.8,64.2,75.7,64.2z M75.7,51.7
			c-2.4,0-4.4,2.5-4.4,5.6s2,5.6,4.4,5.6s4.4-2.5,4.4-5.6S78.1,51.7,75.7,51.7z"/>
		<polygon class="st2" points="57.6,48.5 56.4,48.5 56.4,38.8 54.3,39.7 53.8,38.6 57.6,36.8 		"/>
		<polygon class="st2" points="63.5,48.5 62.2,48.5 62.2,38.8 60.1,39.7 59.6,38.6 63.5,36.8 		"/>
		<polygon class="st2" points="69.3,48.5 68.1,48.5 68.1,38.8 66,39.7 65.5,38.6 69.3,36.8 		"/>
		<path class="st2" d="M76.6,49.3c-3.1,0-5.6-3.1-5.6-6.9s2.5-6.9,5.6-6.9s5.6,3.1,5.6,6.9S79.7,49.3,76.6,49.3z M76.6,36.8
			c-2.4,0-4.4,2.5-4.4,5.6s2,5.6,4.4,5.6s4.4-2.5,4.4-5.6S79,36.8,76.6,36.8z"/>
		<path class="st2" d="M89.5,49.3c-3.1,0-5.6-3.1-5.6-6.9s2.5-6.9,5.6-6.9s5.6,3.1,5.6,6.9S92.6,49.3,89.5,49.3z M89.5,36.8
			c-2.4,0-4.4,2.5-4.4,5.6s2,5.6,4.4,5.6s4.4-2.5,4.4-5.6S91.9,36.8,89.5,36.8z"/>
		<polygon class="st2" points="76.6,78.2 75.3,78.2 75.3,68.5 73.2,69.5 72.7,68.4 76.6,66.6 		"/>
		<polygon class="st2" points="71.7,78.2 70.5,78.2 70.5,68.5 68.4,69.5 67.8,68.4 71.7,66.6 		"/>
		<polygon class="st2" points="81.5,78.2 80.2,78.2 80.2,68.5 78.1,69.5 77.6,68.4 81.5,66.6 		"/>
		<path class="st2" d="M61.4,79.1c-3.1,0-5.6-3.1-5.6-6.9s2.5-6.9,5.6-6.9c3.1,0,5.6,3.1,5.6,6.9S64.5,79.1,61.4,79.1z M61.4,66.6
			c-2.4,0-4.4,2.5-4.4,5.6s2,5.6,4.4,5.6s4.4-2.5,4.4-5.6S63.8,66.6,61.4,66.6z"/>
		<path class="st2" d="M89.5,79.1c-3.1,0-5.6-3.1-5.6-6.9s2.5-6.9,5.6-6.9s5.6,3.1,5.6,6.9S92.6,79.1,89.5,79.1z M89.5,66.6
			c-2.4,0-4.4,2.5-4.4,5.6s2,5.6,4.4,5.6s4.4-2.5,4.4-5.6S91.9,66.6,89.5,66.6z"/>
	</g>
	<g id="Lines">
		<rect x="42" y="42.4" class="st2" width="6" height="1.2"/>
		<rect x="42" y="26.9" class="st2" width="6" height="1.2"/>
		<rect x="42" y="56.7" class="st2" width="6" height="1.2"/>
		<rect x="42" y="71.6" class="st2" width="6" height="1.2"/>
	</g>
	<path class="st2" d="M51.5,77.9h-1.2v-1h1.2V77.9z M51.5,75.7h-1.2v-1.2h1.2V75.7z M51.5,73.2h-1.2v-1.2h1.2V73.2z M51.5,70.7h-1.2
		v-1.2h1.2V70.7z M51.5,68.2h-1.2v-1.2h1.2V68.2z M51.5,65.7h-1.2v-1.2h1.2V65.7z M51.5,63.2h-1.2v-1.2h1.2V63.2z M51.5,60.7h-1.2
		v-1.2h1.2V60.7z M51.5,58.2h-1.2v-1.2h1.2V58.2z M51.5,55.7h-1.2v-1.2h1.2V55.7z M51.5,53.2h-1.2v-1.2h1.2V53.2z M51.5,50.7h-1.2
		v-1.2h1.2V50.7z M51.5,48.2h-1.2v-1.2h1.2V48.2z M51.5,45.7h-1.2v-1.2h1.2V45.7z M51.5,43.2h-1.2v-1.2h1.2V43.2z M51.5,40.7h-1.2
		v-1.2h1.2V40.7z M51.5,38.2h-1.2v-1.2h1.2V38.2z M51.5,35.7h-1.2v-1.2h1.2V35.7z M51.5,33.2h-1.2v-1.3h1.2V33.2z M51.5,30.7h-1.2
		v-1.2h1.2V30.7z M51.5,28.2h-1.2v-1.2h1.2V28.2z M51.5,25.7h-1.2v-1.2h1.2V25.7z M51.5,23.2h-1.2v-1.2h1.2V23.2z"/>
</g>
</svg>
