<?xml version="1.0" encoding="utf-8"?>
<!-- Generator: Adobe Illustrator 25.0.1, SVG Export Plug-In . SVG Version: 6.00 Build 0)  -->
<svg version="1.1" id="_x30_3_Negative_EN" xmlns="http://www.w3.org/2000/svg" xmlns:xlink="http://www.w3.org/1999/xlink" x="0px"
	 y="0px" viewBox="0 0 150 150" style="enable-background:new 0 0 150 150;" xml:space="preserve">
<style type="text/css">
	.st0{fill:#1C3664;}
	.st1{fill:#F05C2B;}
	.st2{fill:#FFFFFF;}
</style>
<g id="Elements_2_">
	<g id="Bckgd_5_">
		<rect id="Bckgd_3_" x="-0.1" y="-0.1" class="st0" width="150" height="100"/>
	</g>
	<g id="Color_2_">
		<rect id="GCM_x5F_Color_2_" x="-0.1" y="99.9" class="st1" width="150" height="50"/>
	</g>
	<g id="Number_2_">
		<g>
			<g>
				<path class="st2" d="M26.4,116.8l-6.7,20.8l-3.7-1.5l6.2-18.9h-7.4v-3.7h11.7V116.8z"/>
			</g>
		</g>
	</g>
	<g>
		<g>
			<path class="st2" d="M41.6,119.5h-1v3.8h-1.8v-9.5h2.5c2.4,0,3.5,1,3.5,2.8c0,1.2-0.5,2.1-1.7,2.6l2.2,4.2h-1.9L41.6,119.5z
				 M41.5,118.2c1.1,0,1.6-0.5,1.6-1.6c0-1-0.5-1.5-1.7-1.5h-0.7v3.1H41.5z"/>
			<path class="st2" d="M50.9,115.1h-3v2.7h2.7v1.3h-2.7v2.8h3.2v1.3h-5v-9.5h5L50.9,115.1z"/>
			<path class="st2" d="M58.6,118.5c0,3.9-2,4.8-4.1,4.8h-2.4v-9.5h2.2C56.6,113.8,58.6,114.5,58.6,118.5z M53.9,115.2v6.8h0.7
				c1.2,0,2.2-0.6,2.2-3.5c0-2.9-1-3.4-2.2-3.4H53.9z"/>
			<path class="st2" d="M66.1,120.5c0,1.7-1.1,3.1-3.2,3.1c-2.1,0-3.2-1.3-3.2-3.1v-6.6h1.8v6.5c0,1.2,0.4,1.8,1.4,1.8
				c1,0,1.4-0.6,1.4-1.8v-6.5h1.8V120.5z"/>
			<path class="st2" d="M73.3,114.6l-0.9,1c-0.5-0.4-1-0.6-1.5-0.6c-1.1,0-2,0.9-2,3.6c0,2.6,0.8,3.5,2,3.5c0.7,0,1.2-0.3,1.7-0.7
				l0.8,1c-0.6,0.6-1.4,1.1-2.6,1.1c-2.2,0-3.7-1.6-3.7-5c0-3.3,1.6-4.9,3.7-4.9C71.9,113.6,72.6,114,73.3,114.6z"/>
			<path class="st2" d="M75.9,123.3h-1.8v-9.5h1.8V123.3z"/>
			<path class="st2" d="M80.2,119.5h-1v3.8h-1.8v-9.5h2.5c2.4,0,3.5,1,3.5,2.8c0,1.2-0.5,2.1-1.7,2.6l2.2,4.2H82L80.2,119.5z
				 M80,118.2c1.1,0,1.6-0.5,1.6-1.6c0-1-0.5-1.5-1.7-1.5h-0.7v3.1H80z"/>
			<path class="st2" d="M42.6,137.3h-2.1l-2.5-9.5h1.8l1.8,7.9l1.7-7.9H45L42.6,137.3z"/>
			<path class="st2" d="M52,134.5c0,1.7-1.1,3.1-3.2,3.1c-2.1,0-3.2-1.3-3.2-3.1v-6.6h1.8v6.5c0,1.2,0.4,1.8,1.4,1.8
				c1,0,1.4-0.6,1.4-1.8v-6.5H52V134.5z"/>
			<path class="st2" d="M55.2,135.9h3.3l-0.2,1.5h-4.9v-9.5h1.8V135.9z"/>
			<path class="st2" d="M65.6,137.3h-2.2l-2.7-7.7c0.1,0.9,0.2,2,0.2,3.8v3.9h-1.6v-9.5h2.2l2.7,7.7c-0.1-0.5-0.2-1.9-0.2-3.2v-4.5
				h1.6V137.3z"/>
			<path class="st2" d="M71.9,129.1h-3v2.7h2.7v1.3h-2.7v2.8h3.2v1.3h-5v-9.5h5L71.9,129.1z"/>
			<path class="st2" d="M75.9,133.5h-1v3.8h-1.8v-9.5h2.5c2.4,0,3.5,1,3.5,2.8c0,1.2-0.5,2.1-1.7,2.6l2.2,4.2h-1.9L75.9,133.5z
				 M75.7,132.2c1.1,0,1.6-0.5,1.6-1.6c0-1-0.5-1.5-1.7-1.5h-0.7v3.1H75.7z"/>
			<path class="st2" d="M84.9,135.1h-2.7l-0.5,2.2h-1.8l2.6-9.5h2.1l2.6,9.5h-1.8L84.9,135.1z M84.6,133.8l-1.1-4.6l-1.1,4.6H84.6z"
				/>
			<path class="st2" d="M94,134.6c0,2-1.5,2.7-3.6,2.7h-2.5v-9.5h2.2c2.2,0,3.6,0.8,3.6,2.4c0,1.2-0.8,1.8-1.7,2
				C93.1,132.5,94,133.1,94,134.6z M89.6,129.1v2.6h0.8c1,0,1.5-0.5,1.5-1.3c0-0.9-0.5-1.3-1.6-1.3H89.6z M92.2,134.5
				c0-1.1-0.6-1.5-1.7-1.5h-0.9v3h0.8C91.5,136,92.2,135.7,92.2,134.5z"/>
			<path class="st2" d="M96.9,137.3h-1.8v-9.5h1.8V137.3z"/>
			<path class="st2" d="M100.1,135.9h3.3l-0.2,1.5h-4.9v-9.5h1.8V135.9z"/>
			<path class="st2" d="M106,137.3h-1.8v-9.5h1.8V137.3z"/>
			<path class="st2" d="M114,132.5c0,3.9-2,4.8-4.1,4.8h-2.4v-9.5h2.2C111.9,127.8,114,128.5,114,132.5z M109.2,129.2v6.8h0.7
				c1.2,0,2.2-0.6,2.2-3.5c0-2.9-1-3.4-2.2-3.4H109.2z"/>
			<path class="st2" d="M119,135.1h-2.7l-0.5,2.2H114l2.6-9.5h2.1l2.6,9.5h-1.8L119,135.1z M118.7,133.8l-1.1-4.6l-1.1,4.6H118.7z"
				/>
			<path class="st2" d="M128.5,132.5c0,3.9-2,4.8-4.1,4.8H122v-9.5h2.2C126.4,127.8,128.5,128.5,128.5,132.5z M123.8,129.2v6.8h0.7
				c1.2,0,2.2-0.6,2.2-3.5c0-2.9-1-3.4-2.2-3.4H123.8z"/>
			<path class="st2" d="M134.4,129.1h-3v2.7h2.7v1.3h-2.7v2.8h3.2v1.3h-5v-9.5h5L134.4,129.1z"/>
			<path class="st2" d="M141.3,128.8l-0.8,1c-0.6-0.5-1.2-0.8-1.8-0.8c-0.8,0-1.3,0.4-1.3,1.1c0,0.7,0.3,1,1.7,1.5
				c1.5,0.6,2.5,1.3,2.5,3c0,1.7-1.2,2.9-3.2,2.9c-1.4,0-2.4-0.5-3.1-1.3l0.9-1c0.6,0.6,1.3,0.9,2.1,0.9c0.9,0,1.5-0.5,1.5-1.4
				c0-0.8-0.3-1.2-1.6-1.6c-1.8-0.6-2.5-1.5-2.5-2.8c0-1.5,1.2-2.6,2.9-2.6C139.7,127.6,140.5,128,141.3,128.8z"/>
		</g>
	</g>
</g>
<g id="Icon_2_">
	<g>
		<g>
			<path class="st2" d="M75.8,50.4c-4.1,0-6.2-3.1-6.2-6.2c0-1.6,0.5-3.1,1.5-4.3c1.1-1.3,2.7-2,4.6-2c3.4,0,6.2,2.8,6.2,6.2
				S79.3,50.4,75.8,50.4z M75.8,39.2c-1.5,0-2.8,0.5-3.7,1.5c-0.8,0.9-1.2,2.1-1.2,3.4c0,2.4,1.5,5,4.9,5c2.8,0,5-2.2,5-5
				S78.6,39.2,75.8,39.2z"/>
			<path class="st2" d="M85,65.2c-0.3,0-0.6-0.3-0.6-0.6v-4.9c0-3.3-2.7-5.9-6-5.9h-5.2c-3.3,0-6,2.7-6,5.9c0,0.3-0.3,0.6-0.6,0.6
				S66,60,66,59.6c0-4,3.2-7.2,7.2-7.2h5.2c4,0,7.2,3.2,7.2,7.2v4.9C85.6,64.9,85.3,65.2,85,65.2z"/>
		</g>
		<path class="st2" d="M62.8,34.8c-1.6,0-2.8-0.6-3.4-1.7l1.1-0.6c0.4,0.8,1.6,1.2,3,1c0.8-0.1,1.6-0.4,2.4-0.9l7.9-4.4l0.6,1.1
			l-7.9,4.4c-1,0.6-2,0.9-2.9,1C63.4,34.8,63.1,34.8,62.8,34.8z"/>
		<path class="st2" d="M91.9,34c-5.5,0-10.4-1.9-10.7-2L71,28.5c-1.6-0.4-3.5-0.1-4.9,0.8l-5.4,3.3c-1.2,0.7-2.6,1.1-3.9,1.1
			c0,0,0,0,0,0c-1.7,0-3.2-0.6-4.2-1.7c-0.4-0.4-0.6-1-0.7-1.5l0-0.3c-0.1-0.9,0.3-1.8,1.1-2.2l12.4-7.4c1.3-0.8,2.9-1.2,4.5-1.2
			c0,0,0,0,0,0l26.8,0.3c0.4,0,10,0,19.9,5.6c0.3,0.2,0.4,0.6,0.2,0.9c-0.2,0.3-0.6,0.4-0.9,0.2c-9.4-5.4-18.8-5.5-19.3-5.5
			c0,0,0,0,0,0l-26.8-0.3c0,0,0,0,0,0c-1.3,0-2.6,0.4-3.8,1.1L53.6,29c-0.3,0.2-0.5,0.6-0.5,1l0,0.3c0,0.3,0.2,0.6,0.4,0.9
			c0.7,0.8,1.9,1.3,3.2,1.3c1.1,0,2.2-0.3,3.2-1l5.4-3.3c1.8-1.1,3.9-1.4,5.9-0.9l10.3,3.5c0.1,0.1,11.6,4.4,18.6-0.3
			c0.3-0.2,0.7-0.1,0.9,0.2c0.2,0.3,0.1,0.7-0.2,0.9C98.2,33.4,95,34,91.9,34z"/>
		<path class="st2" d="M106.8,35.5c-0.2,0-0.3-0.1-0.5-0.2c-3.9-4.2-9.5-4.4-9.5-4.4c-0.3,0-0.6-0.3-0.6-0.6c0-0.3,0.3-0.6,0.6-0.6
			c0,0,0,0,0,0c0.2,0,6.2,0.2,10.4,4.8c0.2,0.3,0.2,0.7,0,0.9C107.1,35.4,106.9,35.5,106.8,35.5z"/>
		<g>
			<path class="st2" d="M76.1,70.5l-0.6-1.1l7.9-4.4c1-0.6,2-0.9,2.9-1c2-0.3,3.6,0.3,4.3,1.6l-1.1,0.6c-0.4-0.8-1.6-1.2-3-1
				c-0.8,0.1-1.6,0.4-2.4,0.9L76.1,70.5z"/>
			<path class="st2" d="M69.9,69.1c-0.4,0-0.8,0-1.3-0.1c-0.3-0.1-0.5-0.4-0.5-0.8c0.1-0.3,0.4-0.5,0.8-0.5c2.7,0.7,5.3-1.6,6.2-2.8
				c0.2-0.3,0.2-0.6,0.1-0.9c-0.1-0.3-0.4-0.6-0.7-0.7l-12.4-3.8c-1.2-0.3-2.6-0.2-3.8,0.4l-5.6,2.9c-0.1,0.1-0.2,0.1-0.4,0.2
				l-4.3,2.6c-0.3,0.2-0.7,0.1-0.9-0.2c-0.2-0.3-0.1-0.7,0.2-0.9l4.3-2.6c0.1-0.1,0.3-0.2,0.4-0.3l5.6-2.9c1.5-0.8,3.1-1,4.7-0.5
				l12.4,3.8c0.7,0.2,1.3,0.8,1.5,1.5c0.2,0.7,0.1,1.4-0.3,2C75.1,67.1,72.6,69.1,69.9,69.1z"/>
			<path class="st2" d="M80.2,79.5C80.2,79.5,80.2,79.5,80.2,79.5l-26.8-0.3c-0.4,0-10,0-19.9-5.6c-0.3-0.2-0.4-0.6-0.2-0.9
				c0.2-0.3,0.6-0.4,0.9-0.2C43.7,78,53.3,78,53.4,78l26.8,0.3c0,0,0,0,0,0c1.3,0,2.6-0.4,3.8-1.1l12.4-7.4c0.3-0.2,0.5-0.6,0.5-1
				l0-0.3c0-0.3-0.2-0.6-0.4-0.9c-0.7-0.8-1.9-1.3-3.2-1.3c0,0,0,0,0,0c-1.1,0-2.2,0.3-3.2,1l-5.4,3.3c-1.8,1.1-3.9,1.4-5.9,0.9
				l-10.4-2.6c-0.3-0.1-0.5-0.4-0.5-0.8s0.4-0.5,0.8-0.5L79,70.2c1.7,0.4,3.5,0.1,5-0.8l5.4-3.3c1.2-0.7,2.6-1.1,3.9-1.1
				c0,0,0,0,0,0c1.7,0,3.2,0.6,4.2,1.7c0.4,0.4,0.6,1,0.7,1.5l0,0.3c0.1,0.9-0.3,1.8-1.1,2.2l-12.4,7.4
				C83.3,79.1,81.7,79.5,80.2,79.5z"/>
			<path class="st2" d="M50.9,66.5C50.9,66.5,50.9,66.5,50.9,66.5c-0.3,0-6.2-0.2-10.4-4.8c-0.2-0.3-0.2-0.7,0-0.9
				c0.3-0.2,0.6-0.2,0.9,0c3.9,4.2,9.5,4.4,9.5,4.4c0.3,0,0.6,0.3,0.6,0.6C51.6,66.2,51.3,66.5,50.9,66.5z"/>
		</g>
		<path class="st2" d="M89.2,38.2c-0.6,0-1.1-0.1-1.6-0.2l-12.4-3.8c-0.7-0.2-1.3-0.8-1.5-1.5c-0.2-0.7-0.1-1.4,0.3-2
			c0.3-0.4,0.6-0.8,1-1.2c0.3-0.2,0.6-0.2,0.9,0c0.2,0.3,0.2,0.6,0,0.9c-0.3,0.3-0.6,0.7-0.9,1c-0.2,0.3-0.2,0.6-0.1,0.9
			c0.1,0.3,0.4,0.6,0.7,0.7l12.4,3.8c1.3,0.3,2.6,0.2,3.8-0.4c0,0,4.1-2.5,6.4-4.7c0.3-0.2,0.6-0.2,0.9,0c0.2,0.3,0.2,0.6,0,0.9
			c-2.4,2.3-6.5,4.8-6.6,4.9C91.4,38,90.3,38.2,89.2,38.2z"/>
	</g>
</g>
</svg>
