<?xml version="1.0" encoding="utf-8"?>
<!-- Generator: Adobe Illustrator 25.0.1, SVG Export Plug-In . SVG Version: 6.00 Build 0)  -->
<svg version="1.1" id="_x30_3_Negative_EN" xmlns="http://www.w3.org/2000/svg" xmlns:xlink="http://www.w3.org/1999/xlink" x="0px"
	 y="0px" viewBox="0 0 150 150" style="enable-background:new 0 0 150 150;" xml:space="preserve">
<style type="text/css">
	.st0{fill:#003366;}
	.st1{fill:#115A85;}
	.st2{fill:#FFFFFF;}
</style>
<g id="Elements_2_">
	<g id="Bckgd_5_">
		<rect id="Bckgd_3_" x="-0.1" y="-0.1" class="st0" width="150" height="100"/>
	</g>
	<g id="Color_2_">
		<rect id="GCM_x5F_Color_2_" x="-0.1" y="99.9" class="st1" width="150" height="50"/>
	</g>
	<g id="Number_2_">
		<g>
			<g>
				<path class="st2" d="M19.4,119.6c0,3.9-1.5,6.7-7.2,13.7h7.6l-0.4,3.8H7.6v-3.5c6.1-8.1,7.5-10.4,7.5-13.6c0-2-0.9-3.2-2.4-3.2
					c-1.3,0-2.2,0.8-3.3,2.4L7,116.9c1.5-2.5,3.5-3.9,6.2-3.9C17.2,113,19.4,116,19.4,119.6z"/>
				<path class="st2" d="M32.7,119c0,2.9-1.3,4.8-3.8,5.6c2.5,0.3,4.4,2.1,4.4,5.8c0,3.9-2.5,7.3-6.9,7.3c-2.7,0-4.6-1.3-6.2-3.5
					l2.3-2.5c1.2,1.5,2.2,2.2,3.7,2.2c1.7,0,2.9-1.3,2.9-3.8c0-2.7-1.2-3.7-3.2-3.7h-1.4l0.5-3.4h1c1.7,0,2.8-1.2,2.8-3.4
					c0-1.9-1-3-2.5-3c-1.3,0-2.4,0.7-3.5,2l-2.1-2.5c1.7-2,3.7-3.1,6-3.1C30.5,113,32.7,115.7,32.7,119z"/>
			</g>
		</g>
	</g>
	<g id="Title_2_">
		<g>
			<g>
				<path class="st2" d="M46.9,114.6l-0.9,1c-0.5-0.4-1-0.6-1.6-0.6c-1.1,0-2,0.9-2,3.6c0,2.6,0.8,3.5,2,3.5c0.7,0,1.2-0.3,1.7-0.7
					l0.9,1c-0.6,0.6-1.4,1.1-2.6,1.1c-2.2,0-3.8-1.6-3.8-5c0-3.3,1.7-4.9,3.8-4.9C45.4,113.6,46.2,114,46.9,114.6z"/>
				<path class="st2" d="M55,118.6c0,3.2-1.4,5-3.8,5c-2.3,0-3.8-1.7-3.8-4.9c0-3.2,1.5-5,3.8-5C53.5,113.6,55,115.3,55,118.6z
					 M49.2,118.6c0,2.7,0.7,3.6,1.9,3.6c1.3,0,1.9-0.9,1.9-3.6c0-2.6-0.7-3.6-1.9-3.6C49.9,115,49.2,115.9,49.2,118.6z"/>
				<path class="st2" d="M63.6,118.6c0,3.2-1.4,5-3.8,5c-2.3,0-3.8-1.7-3.8-4.9c0-3.2,1.5-5,3.8-5C62.1,113.6,63.6,115.3,63.6,118.6
					z M57.9,118.6c0,2.7,0.7,3.6,1.9,3.6c1.3,0,1.9-0.9,1.9-3.6c0-2.6-0.7-3.6-1.9-3.6C58.6,115,57.9,115.9,57.9,118.6z"/>
				<path class="st2" d="M71.1,116.8c0,2.2-1.4,3.1-3.5,3.1h-0.8v3.3H65v-9.5h2.5C69.8,113.8,71.1,114.8,71.1,116.8z M69.3,116.8
					c0-1.2-0.6-1.7-1.8-1.7h-0.7v3.5h0.7C68.7,118.7,69.3,118.2,69.3,116.8z"/>
				<path class="st2" d="M77.1,115.1h-3.1v2.7h2.7v1.3h-2.7v2.8h3.3v1.3h-5.1v-9.5h5.1L77.1,115.1z"/>
				<path class="st2" d="M81.4,119.5h-1v3.8h-1.8v-9.5h2.5c2.4,0,3.6,1,3.6,2.8c0,1.2-0.5,2.1-1.7,2.6l2.2,4.2h-2L81.4,119.5z
					 M81.3,118.2c1.1,0,1.7-0.5,1.7-1.6c0-1-0.5-1.5-1.8-1.5h-0.7v3.1H81.3z"/>
				<path class="st2" d="M90.9,121.1h-2.8l-0.5,2.2h-1.8l2.6-9.5h2.2l2.6,9.5h-1.8L90.9,121.1z M90.6,119.8l-1.1-4.6l-1.1,4.6H90.6z
					"/>
				<path class="st2" d="M99.9,114.6l-0.9,1c-0.5-0.4-1-0.6-1.6-0.6c-1.1,0-2,0.9-2,3.6c0,2.6,0.8,3.5,2,3.5c0.7,0,1.2-0.3,1.7-0.7
					l0.9,1c-0.6,0.6-1.4,1.1-2.6,1.1c-2.2,0-3.8-1.6-3.8-5c0-3.3,1.7-4.9,3.8-4.9C98.4,113.6,99.2,114,99.9,114.6z"/>
				<path class="st2" d="M102.8,123.3H101v-9.5h1.8V123.3z"/>
				<path class="st2" d="M111.9,118.6c0,3.2-1.4,5-3.8,5c-2.3,0-3.8-1.7-3.8-4.9c0-3.2,1.5-5,3.8-5
					C110.4,113.6,111.9,115.3,111.9,118.6z M106.2,118.6c0,2.7,0.7,3.6,1.9,3.6c1.3,0,1.9-0.9,1.9-3.6c0-2.6-0.7-3.6-1.9-3.6
					C106.8,115,106.2,115.9,106.2,118.6z M109.7,111.8l-2.9,1.1l-0.4-0.9l2.6-1.6L109.7,111.8z"/>
				<path class="st2" d="M119.7,123.3h-2.3l-2.8-7.7c0.1,0.9,0.2,2,0.2,3.8v3.9h-1.6v-9.5h2.3l2.8,7.7c-0.1-0.5-0.2-1.9-0.2-3.2
					v-4.5h1.6V123.3z"/>
				<path class="st2" d="M42.7,135.8h-1.8v-9.5h1.8V135.8z"/>
				<path class="st2" d="M51,135.8h-2.3l-2.8-7.7c0.1,0.9,0.2,2,0.2,3.8v3.9h-1.6v-9.5h2.3l2.8,7.7c-0.1-0.5-0.2-1.9-0.2-3.2v-4.5
					H51V135.8z"/>
				<path class="st2" d="M58.3,127.7h-2.2v8.1h-1.8v-8.1H52v-1.4h6.4L58.3,127.7z"/>
				<path class="st2" d="M64.3,127.6h-3.1v2.7H64v1.3h-2.7v2.8h3.3v1.3h-5.1v-9.5h5.1L64.3,127.6z"/>
				<path class="st2" d="M68.6,132h-1v3.8h-1.8v-9.5h2.5c2.4,0,3.6,1,3.6,2.8c0,1.2-0.5,2.1-1.7,2.6l2.2,4.2h-2L68.6,132z
					 M68.5,130.7c1.1,0,1.6-0.5,1.6-1.6c0-1-0.5-1.5-1.8-1.5h-0.7v3.1H68.5z"/>
				<path class="st2" d="M79.9,135.8h-2.3l-2.8-7.7c0.1,0.9,0.2,2,0.2,3.8v3.9h-1.6v-9.5h2.3l2.8,7.7c-0.1-0.5-0.2-1.9-0.2-3.2v-4.5
					h1.6V135.8z"/>
				<path class="st2" d="M86,133.6h-2.7l-0.5,2.2h-1.8l2.6-9.5h2.2l2.6,9.5h-1.8L86,133.6z M85.7,132.3l-1.1-4.6l-1.1,4.6H85.7z"/>
				<path class="st2" d="M95,127.1l-0.9,1c-0.5-0.4-1-0.6-1.6-0.6c-1.1,0-2,0.9-2,3.6c0,2.6,0.8,3.5,2,3.5c0.7,0,1.2-0.3,1.7-0.7
					l0.9,1c-0.6,0.6-1.4,1.1-2.6,1.1c-2.2,0-3.8-1.6-3.8-5c0-3.3,1.6-4.9,3.8-4.9C93.5,126.1,94.3,126.5,95,127.1z"/>
				<path class="st2" d="M97.9,135.8h-1.8v-9.5h1.8V135.8z"/>
				<path class="st2" d="M106.9,131.1c0,3.2-1.4,5-3.8,5c-2.3,0-3.8-1.7-3.8-4.9c0-3.2,1.5-5,3.8-5
					C105.5,126.1,106.9,127.8,106.9,131.1z M101.2,131.1c0,2.7,0.7,3.6,1.9,3.6c1.3,0,1.9-0.9,1.9-3.6c0-2.6-0.7-3.6-1.9-3.6
					C101.9,127.5,101.2,128.4,101.2,131.1z"/>
				<path class="st2" d="M114.8,135.8h-2.3l-2.8-7.7c0.1,0.9,0.2,2,0.2,3.8v3.9h-1.6v-9.5h2.3l2.8,7.7c-0.1-0.5-0.2-1.9-0.2-3.2
					v-4.5h1.6V135.8z"/>
				<path class="st2" d="M120.9,133.6h-2.7l-0.5,2.2h-1.8l2.6-9.5h2.2l2.6,9.5h-1.8L120.9,133.6z M120.6,132.3l-1.1-4.6l-1.1,4.6
					H120.6z"/>
				<path class="st2" d="M126,134.4h3.4l-0.2,1.5h-5v-9.5h1.8V134.4z"/>
			</g>
		</g>
	</g>
</g>
<g id="Icon_2_">
	<g>
		<path class="st2" d="M74.9,74.6c-13.4,0-24.3-10.9-24.3-24.3s10.9-24.3,24.3-24.3S99.2,37,99.2,50.3S88.3,74.6,74.9,74.6z
			 M74.9,27.3c-12.7,0-23.1,10.3-23.1,23s10.4,23,23.1,23S98,63,98,50.3S87.6,27.3,74.9,27.3z"/>
		<g>
			<g>
				<path class="st2" d="M99.1,75.8L84,60.3c-0.1-0.1-0.2-0.3-0.2-0.4c0-1.3,0.6-2.5,1.7-3.7c0.5-0.5,1.4-0.8,2.4-1.1
					c0.7-0.2,1.6-0.5,1.9-0.8c0.5-0.5,0.8-1.2,0.8-2c0-0.8-0.3-1.5-0.8-2c0,0-0.1-0.1-0.1-0.1c-1.1-1.1-2.9-1.1-4,0
					c-0.3,0.3-0.6,1.2-0.8,1.9c-0.3,1-0.6,1.9-1.1,2.4c-1.2,1.1-2.4,1.7-3.7,1.7c-0.2,0-0.3-0.1-0.5-0.2l-4.7-4.7l-4.5,4.5
					c0.1,0.9,0.5,1.7,1.3,2.6c0.3,0.3,1.1,0.5,1.8,0.8c0.9,0.3,1.9,0.6,2.4,1.1c0.8,0.8,1.2,1.8,1.2,2.9c0,1.1-0.4,2.1-1.2,2.9
					c0,0,0,0,0,0c0,0,0,0,0,0c-1.6,1.6-4.2,1.6-5.8,0c-0.5-0.5-0.8-1.5-1.1-2.4c-0.2-0.7-0.5-1.5-0.8-1.8c-0.9-0.8-1.7-1.2-2.6-1.3
					l-6.9,6.9h0l-8.3,8.3c-0.2,0.2-0.6,0.2-0.9,0c-0.2-0.2-0.2-0.6,0-0.9l15.4-15.3c0.1-0.1,0.3-0.2,0.4-0.2c0,0,0,0,0,0
					c1.3,0,2.5,0.6,3.7,1.7c0.5,0.5,0.8,1.4,1.1,2.4c0.2,0.7,0.5,1.6,0.8,1.9c1.1,1.1,2.9,1.1,4,0c0,0,0.1-0.1,0.1-0.1
					c0.5-0.5,0.8-1.2,0.8-1.9c0-0.8-0.3-1.5-0.8-2c-0.3-0.3-1.2-0.6-1.9-0.8c-1-0.3-1.9-0.6-2.4-1.1c-1.1-1.2-1.7-2.4-1.7-3.7
					c0-0.2,0.1-0.3,0.2-0.4l5.2-5.2c0.2-0.2,0.6-0.2,0.9,0l5,5c0.9-0.1,1.7-0.5,2.6-1.3c0.3-0.3,0.5-1.1,0.8-1.8
					c0.3-0.9,0.6-1.9,1.1-2.4c1.6-1.6,4.2-1.6,5.8,0c0,0,0,0,0,0c0,0,0,0,0,0c0.8,0.8,1.2,1.8,1.2,2.9s-0.4,2.1-1.2,2.9
					c-0.5,0.5-1.5,0.8-2.4,1.1c-0.7,0.2-1.5,0.5-1.8,0.8c-0.8,0.9-1.2,1.7-1.3,2.6L100,75L99.1,75.8z"/>
				<path class="st2" d="M62.1,52.6c-1,0-2.1-0.4-2.9-1.2c0,0,0,0,0,0c0,0,0,0,0,0c-0.8-0.8-1.2-1.8-1.2-2.9c0-1.1,0.4-2.1,1.2-2.9
					c0.5-0.5,1.5-0.8,2.4-1.1c0.7-0.2,1.5-0.5,1.8-0.8c0.8-0.9,1.2-1.7,1.3-2.6L49.5,25.9l0.9-0.9l15.4,15.4
					c0.1,0.1,0.2,0.3,0.2,0.4c0,1.3-0.6,2.5-1.7,3.7c-0.5,0.5-1.4,0.8-2.4,1.1c-0.7,0.2-1.6,0.5-1.9,0.8c-0.5,0.5-0.8,1.2-0.8,2
					c0,0.8,0.3,1.5,0.8,2c0,0,0.1,0.1,0.1,0.1c1.1,1.1,2.9,1.1,4,0c0.3-0.3,0.6-1.2,0.8-1.9c0.3-1,0.6-1.9,1.1-2.4
					c1.2-1.1,2.4-1.7,3.7-1.7c0.2,0,0.3,0.1,0.5,0.2l4.7,4.7l4.5-4.5c-0.1-0.9-0.5-1.7-1.3-2.6c-0.3-0.3-1.1-0.5-1.8-0.8
					c-0.9-0.3-1.9-0.6-2.4-1.1c-0.8-0.8-1.2-1.8-1.2-2.9c0-1.1,0.4-2.1,1.2-2.9c0,0,0,0,0,0c0,0,0,0,0,0c1.6-1.6,4.2-1.6,5.8,0
					c0.5,0.5,0.8,1.5,1.1,2.4c0.2,0.7,0.5,1.5,0.8,1.8c0.9,0.8,1.7,1.2,2.6,1.3l15.1-15l0.9,0.9L84.9,41.3c-0.1,0.1-0.3,0.2-0.5,0.2
					c-1.3,0-2.5-0.6-3.7-1.7c-0.5-0.5-0.8-1.4-1.1-2.4c-0.2-0.7-0.5-1.6-0.8-1.9c-1.1-1.1-2.9-1.1-4,0c0,0-0.1,0.1-0.1,0.1
					c-0.5,0.5-0.8,1.2-0.8,1.9c0,0.8,0.3,1.5,0.8,2c0.3,0.3,1.2,0.6,1.9,0.8c1,0.3,1.9,0.6,2.4,1.1c1.1,1.2,1.7,2.4,1.7,3.7
					c0,0.2-0.1,0.3-0.2,0.4l-5.2,5.2c-0.2,0.2-0.6,0.2-0.9,0l-5-5c-0.9,0.1-1.7,0.5-2.6,1.3c-0.3,0.3-0.5,1.1-0.8,1.8
					c-0.3,0.9-0.6,1.9-1.1,2.4C64.2,52.2,63.1,52.6,62.1,52.6z"/>
			</g>
			<g>
				<path class="st2" d="M55.1,31.5l-4.8-4.8l7.3-7.3l4.8,4.8L55.1,31.5z M52.1,26.8l3,3l5.5-5.5l-3-3L52.1,26.8z"/>
				<path class="st2" d="M91,80.5l-4.7-4.9l7.4-7.1l4.7,4.9L91,80.5z M88.1,75.7l3,3.1l5.6-5.4l-3-3.1L88.1,75.7z"/>
				<g>
					<path class="st2" d="M51.8,74.3L44.5,67l4.8-4.8l7.3,7.3L51.8,74.3z M46.2,67l5.5,5.5l3-3L49.3,64L46.2,67z"/>
				</g>
				<path class="st2" d="M100.7,38.2L93.4,31l4.8-4.8l7.3,7.3L100.7,38.2z M95.2,31l5.5,5.5l3-3l-5.5-5.5L95.2,31z"/>
			</g>
		</g>
	</g>
</g>
</svg>
