<?xml version="1.0" encoding="utf-8"?>
<!-- Generator: Adobe Illustrator 25.0.1, SVG Export Plug-In . SVG Version: 6.00 Build 0)  -->
<svg version="1.1" id="_x30_3_Negative_EN" xmlns="http://www.w3.org/2000/svg" xmlns:xlink="http://www.w3.org/1999/xlink" x="0px"
	 y="0px" viewBox="0 0 150 150" style="enable-background:new 0 0 150 150;" xml:space="preserve">
<style type="text/css">
	.st0{fill:#1C3664;}
	.st1{fill:#FE7C23;}
	.st2{fill:#FFFFFF;}
</style>
<g id="Elements_2_">
	<g id="Bckgd_5_">
		<rect id="Bckgd_3_" x="-0.1" y="-0.1" class="st0" width="150" height="100"/>
	</g>
	<g id="Color_2_">
		<rect id="GCM_x5F_Color_2_" x="0.1" y="100" class="st1" width="150" height="50"/>
	</g>
	<g>
		<g>
			<path class="st2" d="M47,121.5l-0.9,1.1c-0.7-0.6-1.3-0.9-2-0.9c-0.9,0-1.4,0.5-1.4,1.2c0,0.8,0.4,1.1,1.9,1.7
				c1.7,0.6,2.8,1.4,2.8,3.2c0,1.8-1.3,3.2-3.6,3.2c-1.5,0-2.6-0.6-3.4-1.4l1-1.1c0.7,0.6,1.4,1,2.4,1c1,0,1.7-0.6,1.7-1.6
				c0-0.9-0.4-1.3-1.8-1.8c-2-0.7-2.8-1.6-2.8-3.1c0-1.7,1.4-2.9,3.3-2.9C45.3,120.2,46.2,120.7,47,121.5z"/>
			<path class="st2" d="M53.3,128.4h-3l-0.6,2.4h-2l2.9-10.4H53l2.9,10.4h-2L53.3,128.4z M52.9,126.9l-1.2-5l-1.2,5H52.9z"/>
			<path class="st2" d="M58.9,129.2h3.7l-0.2,1.6h-5.4v-10.4h2V129.2z"/>
			<path class="st2" d="M67.1,130.8h-2.4L62,120.4h2l2,8.7l1.9-8.7h1.9L67.1,130.8z"/>
			<path class="st2" d="M74.9,128.4h-3l-0.6,2.4h-2l2.9-10.4h2.4l2.9,10.4h-2L74.9,128.4z M74.6,126.9l-1.2-5l-1.2,5H74.6z"/>
			<path class="st2" d="M81.6,126.6h-1.1v4.2h-2v-10.4h2.7c2.7,0,3.9,1,3.9,3c0,1.3-0.6,2.3-1.9,2.8l2.4,4.5h-2.1L81.6,126.6z
				 M81.4,125.2c1.2,0,1.8-0.5,1.8-1.8c0-1.1-0.6-1.6-1.9-1.6h-0.8v3.4H81.4z"/>
			<path class="st2" d="M94.3,130.8h-2.4l-2.8-10.4h2l2,8.7l1.9-8.7H97L94.3,130.8z"/>
			<path class="st2" d="M100,130.8h-2v-10.4h2V130.8z"/>
			<path class="st2" d="M109.1,125.6c0,4.2-2.3,5.2-4.6,5.2h-2.6v-10.4h2.4C106.8,120.4,109.1,121.2,109.1,125.6z M103.9,121.9v7.5
				h0.8c1.4,0,2.4-0.7,2.4-3.8c0-3.2-1.1-3.7-2.5-3.7H103.9z"/>
			<path class="st2" d="M115,128.4h-3l-0.6,2.4h-2l2.9-10.4h2.4l2.9,10.4h-2L115,128.4z M114.7,126.9l-1.2-5l-1.2,5H114.7z"/>
			<path class="st2" d="M124.8,121.5l-0.9,1.1c-0.7-0.6-1.3-0.9-2-0.9c-0.9,0-1.4,0.5-1.4,1.2c0,0.8,0.4,1.1,1.9,1.7
				c1.7,0.6,2.8,1.4,2.8,3.2c0,1.8-1.3,3.2-3.6,3.2c-1.5,0-2.6-0.6-3.4-1.4l1-1.1c0.7,0.6,1.4,1,2.4,1c1,0,1.7-0.6,1.7-1.6
				c0-0.9-0.4-1.3-1.8-1.8c-2-0.7-2.8-1.6-2.8-3.1c0-1.7,1.4-2.9,3.3-2.9C123.1,120.2,124,120.7,124.8,121.5z"/>
		</g>
	</g>
	<g id="Number_2_">
		<g>
			<g>
				<path class="st2" d="M27.5,130.7c0,4-2.6,6.9-7,6.9c-4.3,0-6.9-2.9-6.9-6.8c0-2.8,1.3-4.7,3.5-6c-2.1-1.5-2.8-3.4-2.8-5.6
					c0-3.9,2.6-6.3,6.2-6.3c3.6,0,6.3,2.1,6.3,6.1c0,2.1-0.9,3.9-3.1,5.3C26.4,125.9,27.5,128,27.5,130.7z M23.4,130.7
					c0-2.1-0.8-3-2.9-4.1l-0.8-0.4c-1.4,1-2,2.5-2,4.4c0,2.3,1.1,3.5,2.9,3.5C22.5,134.1,23.4,132.9,23.4,130.7z M18.3,119.3
					c0,1.8,0.7,2.7,2.3,3.6l0.5,0.3c1.3-1.2,1.7-2.3,1.7-3.9c0-2-0.8-3-2.3-3C19.2,116.3,18.3,117.2,18.3,119.3z"/>
			</g>
		</g>
	</g>
</g>
<g id="Icon_2_">
	<g>
		<path class="st2" d="M77.1,47.7c-0.7,0-1.3-0.2-1.9-0.6l-0.8-0.6c0,0-0.1-0.1-0.1-0.1c-0.3-0.2-0.3-0.6-0.1-0.9
			c0.2-0.3,0.6-0.3,0.8-0.1c0,0,0.1,0.1,0.1,0.1l0.8,0.6c1.1,0.8,2.7,0.2,3.7-0.8l3.1-4.3c0.2-0.3,0.6-0.3,0.9-0.1
			c0.3,0.2,0.3,0.6,0.1,0.9l-3.2,4.3C79.6,47,78.4,47.7,77.1,47.7z"/>
		<path class="st2" d="M69.4,49.7c-0.8,0-1.5-0.2-2.2-0.7l-1-0.7c0,0-0.1-0.1-0.1-0.1c-0.2-0.2-0.3-0.6-0.1-0.9l8.4-11.6
			c0.1-0.1,0.2-0.2,0.3-0.2l21.7-9.2l3.9-6.4l1.1,0.7l-4,6.5c-0.1,0.1-0.2,0.2-0.3,0.2l-21.8,9.2l-7.9,11l0.6,0.4
			c1.4,1,3.4,0.3,4.6-0.9l4.6-6.4c0.1-0.1,0.2-0.2,0.4-0.3l4.3-0.8l4.3-0.7c0.1,0,0.2-0.1,0.3-0.1l7.4-1.2c0.3-0.1,0.6,0.2,0.7,0.5
			c0.1,0.3-0.1,0.6-0.4,0.7c0,0-0.1,0-0.1,0L86.2,40c-0.5,0.2-0.9,0.5-1.3,1.1c-0.5,0.8-0.7,1.8-0.6,2.7c0,0,0.1,0.5,0.2,1l12.3-2.1
			l4.1-5.1l2.9-7l2.7-5.6l1.1,0.5l-2.7,5.5l-3,7c0,0.1-0.1,0.1-0.1,0.1l-4.3,5.3c-0.1,0.1-0.2,0.2-0.4,0.2l-13.2,2.2
			c-0.3,0.1-0.6-0.1-0.7-0.4c0,0,0-0.1-0.3-1.6c-0.2-1.2,0-2.5,0.7-3.6l-2,0.3l-4,0.8l-4.4,6.3c0,0,0,0.1-0.1,0.1
			C72.3,48.9,70.9,49.7,69.4,49.7z"/>
		<g>
			<path class="st2" d="M78.9,80.1c-0.3,0-0.7-0.1-1-0.2l-12.9-3.2c-2.5,0.3-13.7,1.6-16-0.1L47,74.7l-4.2,0.9l-0.2-1.2l4.9-1
				l2.4,2.3c1.4,1.1,10,0.5,15.1-0.2l0.1,0l0.1,0l13.1,3.2c0.8,0.2,1.7,0.1,1.9-0.5c0.1-0.3,0.1-0.7-0.1-1c-0.2-0.3-0.4-0.5-0.8-0.6
				l-11.3-4.9l0.3-1.2l16.5,0.4c0.3,0,0.6-0.2,0.9-0.4c0.2-0.3,0.4-0.6,0.3-0.9c0-0.7-0.6-1.3-1.3-1.3c0,0,0,0-0.1,0l-16.9-1.5
				l-0.1-1.2l18.1-3.2c0.4,0,0.7-0.2,0.9-0.5c0.2-0.3,0.3-0.6,0.3-1c0-0.3-0.2-0.7-0.5-0.9c-0.3-0.2-0.6-0.3-1-0.3l-18.2,2.3
				l-0.4-1.2l14.9-8c0.3-0.2,0.5-0.4,0.6-0.8c0.1-0.3,0.1-0.7-0.1-1c-0.3-0.6-1.1-0.9-1.8-0.5l-14,5.4l-7,0.2l0-1.2l6.8-0.2
				l13.6-5.3c1.2-0.6,2.7-0.2,3.4,1.1c0.3,0.6,0.4,1.3,0.2,1.9c-0.2,0.7-0.6,1.2-1.2,1.5l-12,6.4l14.9-1.9c0.7-0.1,1.3,0.1,1.9,0.5
				s0.9,1,1,1.7c0.1,0.7-0.1,1.3-0.5,1.9c-0.4,0.5-1,0.9-1.7,1l-13.5,2.4L84.5,67c0,0,0.1,0,0.1,0c1.3,0,2.4,1.1,2.5,2.5
				c0,0.7-0.2,1.3-0.7,1.8s-1.1,0.8-1.8,0.8l-13.3-0.3l8.3,3.6c0.6,0.2,1.1,0.6,1.4,1.2s0.4,1.3,0.2,1.9C81,79.6,80,80.1,78.9,80.1z
				"/>
			<path class="st2" d="M42.7,65.1l-0.4-1.2l4.5-1.4l1-6.4l4.6-5.9L62.7,40l0.2,0c0.9-0.1,1.7,0.2,2.2,0.8c0.5,0.6,0.7,1.5,0.5,2.4
				c-1.1,4.2-4.9,8.6-5.8,9.6l-0.1,3.6c0,0.2,0.2,5.6-3.7,6.5l-0.3-1.2c3-0.7,2.8-5.2,2.8-5.3l0.1-4.1l0.2-0.2c0,0,4.5-4.9,5.7-9.2
				c0.1-0.5,0-0.9-0.2-1.2c-0.2-0.3-0.5-0.4-0.9-0.4l-10,9.8L49,56.6l-1.1,6.9L42.7,65.1z"/>
		</g>
	</g>
</g>
</svg>
