<?xml version="1.0" encoding="utf-8"?>
<!-- Generator: Adobe Illustrator 25.0.1, SVG Export Plug-In . SVG Version: 6.00 Build 0)  -->
<svg version="1.1" id="_x30_3_Negative_EN" xmlns="http://www.w3.org/2000/svg" xmlns:xlink="http://www.w3.org/1999/xlink" x="0px"
	 y="0px" viewBox="0 0 150 150" style="enable-background:new 0 0 150 150;" xml:space="preserve">
<style type="text/css">
	.st0{fill:#003366;}
	.st1{fill:#8DC120;}
	.st2{fill:#FFFFFF;}
</style>
<g id="Elements_2_">
	<g id="Bckgd_5_">
		<rect id="Bckgd_3_" x="-0.1" y="-0.1" class="st0" width="150" height="100"/>
	</g>
	<g id="Color_2_">
		<rect id="GCM_x5F_Color_2_" x="-0.1" y="99.9" class="st1" width="150" height="50"/>
	</g>
	<g id="Number_2_">
		<g>
			<g>
				<path class="st2" d="M17.6,137.1h-4v-18.8l-3.9,3.1l-1.8-3.2l6.1-4.7h3.7V137.1z"/>
				<path class="st2" d="M33,131.8H31v5.3h-4l0-5.3h-7.7v-3.3l5.2-15.5l3.5,1.5l-4.4,13.7H27l0.5-5.8H31v5.8H33V131.8z"/>
			</g>
		</g>
	</g>
	<g id="Title_2_">
		<g>
			<g>
				<path class="st2" d="M47.1,117.8c0,2.2-1.4,3.1-3.5,3.1h-0.8v3.3h-1.8v-9.5h2.5C45.7,114.8,47.1,115.8,47.1,117.8z M45.2,117.8
					c0-1.2-0.6-1.7-1.8-1.7h-0.7v3.5h0.7C44.6,119.7,45.2,119.2,45.2,117.8z"/>
				<path class="st2" d="M51,120.5h-1v3.8h-1.8v-9.5h2.5c2.4,0,3.6,1,3.6,2.8c0,1.2-0.5,2.1-1.7,2.6l2.2,4.2h-2L51,120.5z
					 M50.8,119.2c1.1,0,1.6-0.5,1.6-1.6c0-1-0.5-1.5-1.8-1.5H50v3.1H50.8z"/>
				<path class="st2" d="M62.9,119.6c0,3.2-1.4,5-3.8,5c-2.3,0-3.8-1.7-3.8-4.9c0-3.2,1.5-5,3.8-5C61.4,114.6,62.9,116.3,62.9,119.6
					z M57.2,119.6c0,2.7,0.7,3.6,1.9,3.6c1.3,0,1.9-0.9,1.9-3.6c0-2.6-0.7-3.6-1.9-3.6C57.9,116,57.2,116.9,57.2,119.6z"/>
				<path class="st2" d="M69.6,116.2h-2.2v8.1h-1.8v-8.1h-2.3v-1.4h6.4L69.6,116.2z"/>
				<path class="st2" d="M75.7,116.1h-3.1v2.7h2.7v1.3h-2.7v2.8h3.3v1.3h-5.1v-9.5h5.1L75.7,116.1z"/>
				<path class="st2" d="M83,115.6l-0.9,1c-0.5-0.4-1-0.6-1.6-0.6c-1.1,0-2,0.9-2,3.6c0,2.6,0.8,3.5,2,3.5c0.7,0,1.2-0.3,1.7-0.7
					l0.9,1c-0.6,0.6-1.4,1.1-2.6,1.1c-2.2,0-3.8-1.6-3.8-5c0-3.3,1.6-4.9,3.8-4.9C81.6,114.6,82.3,115,83,115.6z"/>
				<path class="st2" d="M89.8,115.6l-0.9,1c-0.5-0.4-1-0.6-1.6-0.6c-1.1,0-2,0.9-2,3.6c0,2.6,0.8,3.5,2,3.5c0.7,0,1.2-0.3,1.7-0.7
					l0.9,1c-0.6,0.6-1.4,1.1-2.6,1.1c-2.2,0-3.8-1.6-3.8-5c0-3.3,1.7-4.9,3.8-4.9C88.4,114.6,89.1,115,89.8,115.6z"/>
				<path class="st2" d="M92.8,124.3H91v-9.5h1.8V124.3z"/>
				<path class="st2" d="M101.8,119.6c0,3.2-1.4,5-3.8,5c-2.3,0-3.8-1.7-3.8-4.9c0-3.2,1.5-5,3.8-5
					C100.3,114.6,101.8,116.3,101.8,119.6z M96.1,119.6c0,2.7,0.7,3.6,1.9,3.6c1.3,0,1.9-0.9,1.9-3.6c0-2.6-0.7-3.6-1.9-3.6
					C96.8,116,96.1,116.9,96.1,119.6z M99.7,112.8l-2.9,1.1l-0.4-0.9l2.6-1.6L99.7,112.8z"/>
				<path class="st2" d="M109.7,124.3h-2.3l-2.8-7.7c0.1,0.9,0.2,2,0.2,3.8v3.9h-1.6v-9.5h2.3l2.8,7.7c-0.1-0.5-0.2-1.9-0.2-3.2
					v-4.5h1.6V124.3z"/>
				<path class="st2" d="M46.9,128.1l-0.9,1c-0.5-0.4-1-0.6-1.6-0.6c-1.1,0-2,0.9-2,3.6c0,2.6,0.8,3.5,2,3.5c0.7,0,1.2-0.3,1.7-0.7
					l0.9,1c-0.6,0.6-1.4,1.1-2.6,1.1c-2.2,0-3.8-1.6-3.8-5c0-3.3,1.7-4.9,3.8-4.9C45.4,127.1,46.2,127.5,46.9,128.1z"/>
				<path class="st2" d="M55,132.1c0,3.2-1.4,5-3.8,5c-2.3,0-3.8-1.7-3.8-4.9c0-3.2,1.5-5,3.8-5C53.5,127.1,55,128.8,55,132.1z
					 M49.2,132.1c0,2.7,0.7,3.6,1.9,3.6c1.3,0,1.9-0.9,1.9-3.6c0-2.6-0.7-3.6-1.9-3.6C49.9,128.5,49.2,129.4,49.2,132.1z"/>
				<path class="st2" d="M62.8,136.8h-2.3l-2.8-7.7c0.1,0.9,0.2,2,0.2,3.8v3.9h-1.6v-9.5h2.3l2.8,7.7c-0.1-0.5-0.2-1.9-0.2-3.2v-4.5
					h1.6V136.8z"/>
				<path class="st2" d="M70.1,128.3l-0.9,1c-0.6-0.5-1.2-0.8-1.9-0.8c-0.8,0-1.3,0.4-1.3,1.1c0,0.7,0.3,1,1.7,1.5
					c1.5,0.6,2.5,1.3,2.5,3c0,1.7-1.2,2.9-3.3,2.9c-1.4,0-2.4-0.5-3.1-1.3l0.9-1c0.6,0.6,1.3,0.9,2.2,0.9c0.9,0,1.5-0.5,1.5-1.4
					c0-0.8-0.3-1.2-1.7-1.6c-1.8-0.6-2.6-1.5-2.6-2.8c0-1.5,1.3-2.6,3-2.6C68.5,127.1,69.3,127.5,70.1,128.3z"/>
				<path class="st2" d="M78,134c0,1.7-1.1,3.1-3.2,3.1c-2.2,0-3.2-1.3-3.2-3.1v-6.6h1.8v6.5c0,1.2,0.4,1.8,1.5,1.8
					c1,0,1.5-0.6,1.5-1.8v-6.5H78V134z"/>
				<path class="st2" d="M81.5,135.4h3.4l-0.2,1.5h-5v-9.5h1.8V135.4z"/>
				<path class="st2" d="M90.4,134.6h-2.8l-0.5,2.2h-1.8l2.6-9.5h2.2l2.6,9.5H91L90.4,134.6z M90.1,133.3l-1.1-4.6l-1.1,4.6H90.1z"
					/>
				<path class="st2" d="M96.5,133h-1v3.8h-1.8v-9.5h2.5c2.4,0,3.6,1,3.6,2.8c0,1.2-0.5,2.1-1.7,2.6l2.2,4.2h-2L96.5,133z
					 M96.4,131.7c1.1,0,1.6-0.5,1.6-1.6c0-1-0.5-1.5-1.8-1.5h-0.7v3.1H96.4z"/>
			</g>
		</g>
	</g>
</g>
<g id="Icon_2_">
	<g>
		<path class="st2" d="M82.2,51.2H80v-1.2h2.2V51.2z M77.8,51.2h-2.2v-1.2h2.2V51.2z M73.4,51.2h-2.2v-1.2h2.2V51.2z M69.1,51.2
			h-2.2v-1.2h2.2V51.2z"/>
		<g>
			<rect x="73.4" y="19.9" class="st2" width="1.2" height="13.3"/>
			<path class="st2" d="M86.6,29.6H73.4v-8.3h13.2l-1.8,4.2L86.6,29.6z M74.7,28.3h10l-1.3-2.9l1.3-2.9h-10V28.3z"/>
		</g>
		<g>
			<rect x="59.2" y="74.7" class="st2" width="31.9" height="1.2"/>
			<g>
				<polygon class="st2" points="88.1,75.1 86.8,75.1 86.8,44.8 63.4,44.8 63.4,75.1 62.1,75.1 62.1,43.5 88.1,43.5 				"/>
				<path class="st2" d="M90.9,44.8H59.3v-9.4h31.5V44.8z M60.6,43.5h29v-6.9h-29V43.5z"/>
				<polygon class="st2" points="82.2,74.8 80.9,74.8 80.9,56.6 69.2,56.6 69.2,74.8 68,74.8 68,55.4 82.2,55.4 				"/>
				<rect x="57.4" y="78.8" class="st2" width="35.5" height="1.2"/>
			</g>
			<g>
				<polygon class="st2" points="47.9,79.1 46.6,79.1 46.6,49.9 60.2,49.9 60.2,51.2 47.9,51.2 				"/>
				<polygon class="st2" points="103.4,79.1 102.1,79.1 102.1,51.2 89.8,51.2 89.8,49.9 103.4,49.9 				"/>
			</g>
		</g>
	</g>
</g>
</svg>
