<?xml version="1.0" encoding="utf-8"?>
<!-- Generator: Adobe Illustrator 25.0.1, SVG Export Plug-In . SVG Version: 6.00 Build 0)  -->
<svg version="1.1" id="_x30_3_Negative_EN" xmlns="http://www.w3.org/2000/svg" xmlns:xlink="http://www.w3.org/1999/xlink" x="0px"
	 y="0px" viewBox="0 0 150 150" style="enable-background:new 0 0 150 150;" xml:space="preserve">
<style type="text/css">
	.st0{fill:#003366;}
	.st1{fill:#FFC30B;}
	.st2{fill:#FFFFFF;}
	.st3{fill:none;stroke:#FFFFFF;stroke-width:1.25;stroke-miterlimit:10;}
</style>
<g id="Elements_2_">
	<g id="Bckgd_5_">
		<rect id="Bckgd_3_" x="-0.1" y="-0.1" class="st0" width="150" height="100"/>
	</g>
	<g id="Color_2_">
		<rect id="GCM_x5F_Color_2_" x="-0.1" y="99.9" class="st1" width="150" height="50"/>
	</g>
	<g id="Number_2_">
		<g>
			<g>
				<path class="st2" d="M18.2,137.1h-4v-18.8l-3.9,3.1l-1.8-3.2l6.1-4.7h3.7V137.1z"/>
				<path class="st2" d="M31.8,119.6c0,3.9-1.5,6.7-7.2,13.7h7.6l-0.4,3.8H20.1v-3.5c6.1-8.1,7.5-10.4,7.5-13.6c0-2-0.9-3.2-2.4-3.2
					c-1.3,0-2.2,0.8-3.3,2.4l-2.5-2.2c1.5-2.5,3.5-3.9,6.2-3.9C29.6,113,31.8,116,31.8,119.6z"/>
			</g>
		</g>
	</g>
	<g>
		<g>
			<path class="st2" d="M46.8,108.4l-0.9,1c-0.5-0.4-1-0.6-1.6-0.6c-1.1,0-2,0.9-2,3.6c0,2.6,0.8,3.5,2,3.5c0.7,0,1.2-0.3,1.7-0.7
				l0.8,1c-0.6,0.6-1.4,1.1-2.6,1.1c-2.2,0-3.8-1.6-3.8-5c0-3.3,1.6-4.9,3.7-4.9C45.3,107.4,46.1,107.7,46.8,108.4z"/>
			<path class="st2" d="M54.4,112.3c0,3.2-1.4,5-3.8,5c-2.3,0-3.7-1.7-3.7-4.9c0-3.2,1.4-5,3.7-5C53,107.4,54.4,109,54.4,112.3z
				 M48.8,112.3c0,2.7,0.7,3.6,1.9,3.6c1.2,0,1.9-0.9,1.9-3.6c0-2.6-0.7-3.6-1.9-3.6C49.5,108.7,48.8,109.7,48.8,112.3z"/>
			<path class="st2" d="M61.9,117.1h-2.3l-2.8-7.7c0.1,0.9,0.2,2,0.2,3.8v3.9h-1.6v-9.5h2.2l2.8,7.7c-0.1-0.5-0.2-1.9-0.2-3.2v-4.5
				h1.6V117.1z"/>
			<path class="st2" d="M68.8,109h-2.2v8.1h-1.8V109h-2.3v-1.4H69L68.8,109z"/>
			<path class="st2" d="M72.4,113.2h-1v3.8h-1.8v-9.5h2.5c2.4,0,3.6,1,3.6,2.8c0,1.2-0.5,2.1-1.7,2.6l2.2,4.2h-1.9L72.4,113.2z
				 M72.2,112c1.1,0,1.6-0.5,1.6-1.6c0-1-0.5-1.5-1.7-1.5h-0.7v3.1H72.2z"/>
			<path class="st2" d="M83.8,112.3c0,3.2-1.4,5-3.8,5c-2.3,0-3.7-1.7-3.7-4.9c0-3.2,1.4-5,3.7-5C82.4,107.4,83.8,109,83.8,112.3z
				 M78.2,112.3c0,2.7,0.7,3.6,1.9,3.6c1.2,0,1.9-0.9,1.9-3.6c0-2.6-0.7-3.6-1.9-3.6C78.9,108.7,78.2,109.7,78.2,112.3z"/>
			<path class="st2" d="M86.7,115.6H90l-0.2,1.5h-4.9v-9.5h1.8V115.6z"/>
			<path class="st2" d="M92.8,116.2c0,0.3-0.1,0.6-0.3,1.2l-0.8,2h-1l0.5-2.3c-0.3-0.2-0.5-0.5-0.5-0.9c0-0.6,0.4-1.1,1-1.1
				C92.4,115.1,92.8,115.6,92.8,116.2z"/>
			<path class="st2" d="M45.8,121.9h-3.1v2.7h2.7v1.3h-2.7v2.8H46v1.3h-5.1v-9.5H46L45.8,121.9z"/>
			<path class="st2" d="M51.5,130.1h-2.2l-2.6-9.5h1.8l1.8,7.9l1.7-7.9H54L51.5,130.1z"/>
			<path class="st2" d="M58.6,127.9h-2.7l-0.5,2.2h-1.8l2.6-9.5h2.2l2.6,9.5h-1.8L58.6,127.9z M58.3,126.5l-1.1-4.6l-1.1,4.6H58.3z"
				/>
			<path class="st2" d="M63.7,128.6h3.4l-0.2,1.5h-5v-9.5h1.8V128.6z"/>
			<path class="st2" d="M74.5,127.2c0,1.7-1.1,3.1-3.2,3.1c-2.2,0-3.2-1.3-3.2-3.1v-6.6h1.8v6.5c0,1.2,0.4,1.8,1.5,1.8
				c1,0,1.5-0.6,1.5-1.8v-6.5h1.8V127.2z"/>
			<path class="st2" d="M80.2,127.9h-2.7l-0.5,2.2h-1.8l2.6-9.5h2.2l2.6,9.5h-1.8L80.2,127.9z M79.9,126.5l-1.1-4.6l-1.1,4.6H79.9z"
				/>
			<path class="st2" d="M89.2,121.4l-0.9,1c-0.5-0.4-1-0.6-1.6-0.6c-1.1,0-2,0.9-2,3.6c0,2.6,0.8,3.5,2,3.5c0.7,0,1.2-0.3,1.7-0.7
				l0.9,1c-0.6,0.6-1.4,1.1-2.6,1.1c-2.2,0-3.8-1.6-3.8-5c0-3.3,1.7-4.9,3.8-4.9C87.7,120.4,88.5,120.7,89.2,121.4z"/>
			<path class="st2" d="M92.1,130.1h-1.8v-9.5h1.8V130.1z"/>
			<path class="st2" d="M101.2,125.3c0,3.2-1.4,5-3.8,5c-2.3,0-3.8-1.7-3.8-4.9c0-3.2,1.5-5,3.8-5C99.7,120.4,101.2,122,101.2,125.3
				z M95.5,125.3c0,2.7,0.7,3.6,1.9,3.6c1.3,0,1.9-0.9,1.9-3.6c0-2.6-0.7-3.6-1.9-3.6C96.1,121.7,95.5,122.7,95.5,125.3z M99,118.6
				l-2.9,1.1l-0.4-0.9l2.6-1.6L99,118.6z"/>
			<path class="st2" d="M109,130.1h-2.3l-2.8-7.7c0.1,0.9,0.2,2,0.2,3.8v3.9h-1.6v-9.5h2.3l2.8,7.7c-0.1-0.5-0.2-1.9-0.2-3.2v-4.5
				h1.6V130.1z"/>
			<path class="st2" d="M44.5,139.5v3.6h-1.8v-3.6l-2.7-5.9h1.9l1.8,4.4l1.8-4.4h1.8L44.5,139.5z"/>
			<path class="st2" d="M58.3,138.3c0,3.2-1.4,5-3.8,5c-2.3,0-3.8-1.7-3.8-4.9c0-3.2,1.5-5,3.8-5C56.9,133.4,58.3,135,58.3,138.3z
				 M52.6,138.3c0,2.7,0.7,3.6,1.9,3.6c1.2,0,1.9-0.9,1.9-3.6c0-2.6-0.7-3.6-1.9-3.6C53.3,134.7,52.6,135.7,52.6,138.3z"/>
			<path class="st2" d="M62.5,139.2h-1v3.8h-1.8v-9.5h2.5c2.4,0,3.6,1,3.6,2.8c0,1.2-0.5,2.1-1.7,2.6l2.2,4.2h-2L62.5,139.2z
				 M62.4,138c1.1,0,1.7-0.5,1.7-1.6c0-1-0.5-1.5-1.8-1.5h-0.7v3.1H62.4z"/>
			<path class="st2" d="M69.2,143.1h-1.8v-9.5h1.8V143.1z"/>
			<path class="st2" d="M75.9,134.9h-3.1v2.7h2.7v1.3h-2.7v2.8h3.3v1.3H71v-9.5h5.1L75.9,134.9z"/>
			<path class="st2" d="M83.8,143.1h-2.3l-2.8-7.7c0.1,0.9,0.2,2,0.2,3.8v3.9h-1.6v-9.5h2.3l2.8,7.7c-0.1-0.5-0.2-1.9-0.2-3.2v-4.5
				h1.6V143.1z"/>
			<path class="st2" d="M91.1,135h-2.2v8.1h-1.8V135h-2.3v-1.4h6.4L91.1,135z"/>
			<path class="st2" d="M95.7,140.9h-2.8l-0.5,2.2h-1.8l2.6-9.5h2.2l2.6,9.5h-1.8L95.7,140.9z M95.4,139.5l-1.1-4.6l-1.1,4.6H95.4z"
				/>
			<path class="st2" d="M104.7,134.4l-0.9,1c-0.5-0.4-1-0.6-1.6-0.6c-1.1,0-2,0.9-2,3.6c0,2.6,0.8,3.5,2,3.5c0.7,0,1.2-0.3,1.7-0.7
				l0.9,1c-0.6,0.6-1.4,1.1-2.6,1.1c-2.2,0-3.8-1.6-3.8-5c0-3.3,1.6-4.9,3.8-4.9C103.2,133.4,104,133.7,104.7,134.4z"/>
			<path class="st2" d="M107.6,143.1h-1.8v-9.5h1.8V143.1z"/>
			<path class="st2" d="M116.7,138.3c0,3.2-1.4,5-3.8,5c-2.3,0-3.8-1.7-3.8-4.9c0-3.2,1.5-5,3.8-5
				C115.2,133.4,116.7,135,116.7,138.3z M111,138.3c0,2.7,0.7,3.6,1.9,3.6c1.2,0,1.9-0.9,1.9-3.6c0-2.6-0.7-3.6-1.9-3.6
				C111.6,134.7,111,135.7,111,138.3z M114.5,131.6l-2.9,1.1l-0.4-0.9l2.6-1.6L114.5,131.6z"/>
			<path class="st2" d="M124.5,143.1h-2.3l-2.8-7.7c0.1,0.9,0.2,2,0.2,3.8v3.9h-1.6v-9.5h2.3l2.8,7.7c-0.1-0.5-0.2-1.9-0.2-3.2v-4.5
				h1.6V143.1z"/>
		</g>
	</g>
</g>
<g id="Icon_2_">
	<g>
		<path class="st2" d="M78.1,75.4h-5.6c-0.6,0-1.2-0.5-1.3-1.1l-0.4-1.7c0-0.1-0.1-0.1-0.1-0.1c-0.9-0.2-1.8-0.4-2.7-0.7
			c0,0-0.1,0-0.1,0l-1.2,1.3c-0.4,0.5-1.1,0.6-1.7,0.3l-4.8-2.8c-0.6-0.3-0.8-1-0.6-1.6l0.5-1.6c0,0,0-0.1,0-0.1
			c-0.7-0.6-1.4-1.3-2-2c0,0-0.1-0.1-0.1,0L56.1,66c-0.6,0.2-1.3-0.1-1.6-0.6l-2.8-4.8c-0.3-0.6-0.2-1.3,0.3-1.7l1.5-1.3
			c0,0,0-0.1,0-0.1c-0.2-0.8-0.5-1.6-0.6-2.4c0,0,0-0.1-0.1-0.1l-2.1-0.4c-0.6-0.1-1.1-0.7-1.1-1.3v-5.6c0-0.6,0.5-1.2,1.1-1.3
			l2.3-0.5c0,0,0.1,0,0.1-0.1c0.2-0.7,0.4-1.4,0.6-2.1c0,0,0-0.1,0-0.1l-1.9-1.7c-0.5-0.4-0.6-1.1-0.3-1.7l2.8-4.8
			c0.3-0.6,1-0.8,1.6-0.6l2.6,0.8c0,0,0.1,0,0.1,0c0.2-0.2,0.4-0.4,0.6-0.6c0.2-0.2,0.4-0.4,0.7-0.6c0,0,0.1-0.1,0-0.1L59,31.1
			c-0.2-0.6,0.1-1.3,0.6-1.6l4.8-2.8c0.6-0.3,1.3-0.2,1.7,0.3l2.1,2.3c0,0,0.1,0,0.1,0c0.5-0.1,1-0.3,1.5-0.4c0,0,0.1,0,0.1-0.1
			l0.7-3.2c0.1-0.6,0.7-1.1,1.3-1.1h5.6c0.6,0,1.2,0.5,1.3,1.1l0.7,3.2c0,0,0,0.1,0.1,0.1c0.5,0.1,0.9,0.2,1.4,0.3c0,0,0.1,0,0.1,0
			l2.3-2.5c0.4-0.5,1.1-0.6,1.7-0.3l4.8,2.8c0.6,0.3,0.8,1,0.6,1.6l-1,3.1c0,0,0,0.1,0,0.1c0.4,0.3,0.7,0.6,1,1c0,0,0.1,0,0.1,0
			l3.2-1c0.6-0.2,1.3,0.1,1.6,0.6l2.8,4.8c0.3,0.6,0.2,1.3-0.3,1.7l-2.2,2c0,0,0,0.1,0,0.1c0.2,0.5,0.3,1,0.5,1.6c0,0,0,0.1,0.1,0.1
			l3,0.6c0.6,0.1,1.1,0.7,1.1,1.3l0,5.6c0,0.6-0.5,1.2-1.1,1.3l-2.6,0.5c0,0-0.1,0-0.1,0.1c-0.1,0.7-0.3,1.3-0.4,2c0,0,0,0.1,0,0.1
			l2,1.8c0.5,0.4,0.6,1.1,0.3,1.7l-2.8,4.8c-0.3,0.6-1,0.8-1.6,0.6l-2.1-0.7c-0.1,0-0.1,0-0.1,0c-0.5,0.6-1,1.2-1.6,1.7
			c0,0,0,0.1,0,0.1l0.7,2.2c0.2,0.6-0.1,1.3-0.6,1.6l-4.8,2.8c-0.6,0.3-1.3,0.2-1.7-0.3l-1.3-1.4c0,0-0.1,0-0.1,0
			c-0.9,0.3-1.7,0.6-2.6,0.8c0,0-0.1,0-0.1,0.1l-0.4,1.9C79.3,75,78.7,75.4,78.1,75.4z M67.9,70.6c0.1,0,0.3,0,0.4,0.1
			c0.8,0.3,1.7,0.5,2.6,0.6c0.6,0.1,1,0.5,1.1,1.1l0.4,1.7c0,0.1,0.1,0.1,0.1,0.1h5.6c0.1,0,0.1,0,0.1-0.1l0.4-1.9
			c0.1-0.5,0.5-0.9,1-1c0.8-0.2,1.6-0.4,2.4-0.7c0.5-0.2,1.1-0.1,1.5,0.4l1.3,1.4c0,0,0.1,0.1,0.2,0l4.8-2.8c0,0,0.1-0.1,0.1-0.1
			l-0.7-2.2c-0.2-0.5,0-1,0.4-1.4c0.5-0.5,1.1-1.1,1.5-1.6c0.4-0.4,0.9-0.6,1.5-0.4l2.1,0.7c0.1,0,0.1,0,0.1-0.1l2.8-4.8
			c0,0,0-0.1,0-0.1l-2-1.8c-0.4-0.3-0.5-0.9-0.4-1.4c0.2-0.6,0.3-1.2,0.4-1.8c0.1-0.6,0.5-1,1.1-1.1l2.6-0.5c0.1,0,0.1-0.1,0.1-0.1
			l0-5.6c0-0.1,0-0.1-0.1-0.1l-3-0.6c-0.5-0.1-0.9-0.5-1-1c-0.1-0.5-0.3-1-0.5-1.5c-0.2-0.5,0-1.1,0.4-1.5l2.2-2c0,0,0.1-0.1,0-0.1
			l-2.8-4.8c0,0-0.1-0.1-0.1-0.1l-3.2,1c-0.5,0.2-1,0-1.4-0.3c-0.3-0.3-0.6-0.6-1-0.9c-0.4-0.4-0.6-0.9-0.4-1.4l1-3.1
			c0-0.1,0-0.1-0.1-0.1l-4.8-2.8c0,0-0.1,0-0.2,0L82,30.1c-0.4,0.4-0.9,0.5-1.4,0.4c-0.4-0.1-0.9-0.2-1.3-0.3c-0.5-0.1-0.9-0.5-1-1
			l-0.7-3.2c0-0.1-0.1-0.1-0.1-0.1h-5.6c-0.1,0-0.1,0-0.1,0.1l-0.7,3.2c-0.1,0.5-0.5,0.9-1,1c-0.5,0.1-0.9,0.2-1.4,0.4
			c-0.5,0.2-1.1,0-1.4-0.4l-2.1-2.3c0,0-0.1-0.1-0.2,0l-4.8,2.8c0,0-0.1,0.1-0.1,0.1l0.9,2.8c0.2,0.5,0,1.1-0.4,1.4
			c-0.2,0.2-0.4,0.4-0.6,0.6c-0.2,0.2-0.4,0.4-0.6,0.6c-0.4,0.4-0.9,0.5-1.4,0.4l-2.6-0.8c-0.1,0-0.1,0-0.1,0.1l-2.8,4.8
			c0,0,0,0.1,0,0.1l1.9,1.7c0.4,0.4,0.6,0.9,0.4,1.5c-0.2,0.7-0.4,1.3-0.6,2c-0.1,0.5-0.5,0.9-1,1l-2.3,0.5c-0.1,0-0.1,0.1-0.1,0.1
			v5.6c0,0.1,0,0.1,0.1,0.1l2.1,0.4c0.5,0.1,1,0.5,1.1,1.1c0.2,0.8,0.4,1.6,0.6,2.3c0.2,0.5,0,1.1-0.4,1.4l-1.5,1.3
			c0,0-0.1,0.1,0,0.1l2.8,4.8c0,0,0.1,0.1,0.1,0.1l1.8-0.6c0.5-0.2,1.1,0,1.4,0.4c0.6,0.7,1.2,1.3,1.9,1.8c0.4,0.4,0.6,0.9,0.4,1.4
			l-0.5,1.6c0,0.1,0,0.1,0.1,0.1l4.8,2.8c0.1,0,0.1,0,0.2,0l1.2-1.3C67.2,70.8,67.5,70.6,67.9,70.6z"/>
		<g>
			<polygon class="st2" points="93.7,55 82.6,55 82.6,43.9 90.2,43.9 90.2,45.1 83.8,45.1 83.8,53.7 92.5,53.7 92.5,50.4 93.7,50.4 
							"/>
			<polygon class="st2" points="88.3,52 85.1,48.4 86,47.6 88.3,50.1 92.2,45.4 93.1,46.2 			"/>
		</g>
		<path class="st3" d="M79,66.2"/>
		<path class="st2" d="M79.3,63.2l-0.1-0.8c-0.2-2.2-2-3.9-4.3-3.9c-2.2,0-4,1.7-4.3,3.9l-0.1,0.8l-0.8-0.3c-3.8-1.5-6.7-4.5-8-8.4
			l-0.3-0.8h3.3l2.5-4.3l-2.5-4.3H62l0.4-0.9c1.5-3.3,4.2-5.8,7.5-7.1l0.7-0.3l0.1,0.8c0.3,2.1,2.1,3.7,4.2,3.7s3.9-1.6,4.2-3.7
			l0.1-0.8l0.7,0.3c3.3,1.3,6.1,3.9,7.6,7.2l-1.1,0.5c-1.2-2.7-3.5-5-6.2-6.2c-0.7,2.3-2.8,4-5.3,4c-2.5,0-4.6-1.7-5.3-4
			c-2.4,1.1-4.4,3-5.7,5.3h1.6l3.2,5.5l-3.2,5.5h-2.2c1.2,2.9,3.5,5.2,6.3,6.5c0.6-2.4,2.8-4.2,5.4-4.2c2.6,0,4.7,1.7,5.4,4.2
			c3.1-1.4,5.5-4.1,6.6-7.3l1.2,0.4c-1.3,3.8-4.3,6.9-8,8.3L79.3,63.2z"/>
		<g>
			<g>
				<path class="st2" d="M75,80.1c-7.8,0-15.5-3-21.4-8.8c-11.5-11.5-11.7-30.4-0.5-42.1l0.9,0.9c-10.8,11.2-10.6,29.4,0.5,40.4
					c10.8,10.8,28.3,11.3,39.7,1.2l0.8,0.9C89.3,77.6,82.2,80.1,75,80.1z"/>
				<g>
					<polygon class="st2" points="50.3,29.5 50.4,30.1 53.4,29.8 53.5,32.9 54.1,32.9 54.1,29.1 					"/>
				</g>
			</g>
			<g>
				<path class="st2" d="M96.9,70.8L96,69.9c10.8-11.2,10.6-29.4-0.5-40.4c-10.7-10.6-28-11.3-39.4-1.5l-0.8-0.9
					c11.9-10.2,30-9.6,41.1,1.5C107.9,40.2,108.1,59.1,96.9,70.8z"/>
				<g>
					<polygon class="st2" points="99.7,70.5 99.6,69.9 96.6,70.2 96.5,67.1 95.9,67.1 95.9,70.9 					"/>
				</g>
			</g>
		</g>
		<path class="st2" d="M65.6,54.9h-6.4l-3.2-5.5l3.2-5.5h6.4l3.2,5.5L65.6,54.9z M59.9,53.7h5l2.5-4.3l-2.5-4.3h-5l-2.5,4.3
			L59.9,53.7z"/>
		<path class="st2" d="M75,42.6c-3.1,0-5.5-2.5-5.5-5.5c0-3,2.5-5.5,5.5-5.5s5.5,2.5,5.5,5.5C80.5,40.1,78,42.6,75,42.6z M75,32.8
			c-2.4,0-4.3,1.9-4.3,4.3c0,2.4,1.9,4.3,4.3,4.3s4.3-1.9,4.3-4.3C79.3,34.7,77.4,32.8,75,32.8z"/>
		<path class="st2" d="M75,68.3c-3.1,0-5.5-2.5-5.5-5.5c0-3,2.5-5.5,5.5-5.5s5.5,2.5,5.5,5.5C80.5,65.8,78,68.3,75,68.3z M75,58.5
			c-2.4,0-4.3,1.9-4.3,4.3c0,2.4,1.9,4.3,4.3,4.3s4.3-1.9,4.3-4.3C79.3,60.4,77.4,58.5,75,58.5z"/>
	</g>
</g>
</svg>
