<?xml version="1.0" encoding="utf-8"?>
<!-- Generator: Adobe Illustrator 25.0.1, SVG Export Plug-In . SVG Version: 6.00 Build 0)  -->
<svg version="1.1" id="_x30_3_Negative_EN" xmlns="http://www.w3.org/2000/svg" xmlns:xlink="http://www.w3.org/1999/xlink" x="0px"
	 y="0px" viewBox="0 0 150 150" style="enable-background:new 0 0 150 150;" xml:space="preserve">
<style type="text/css">
	.st0{fill:#003366;}
	.st1{fill:#0D92C8;}
	.st2{fill:#FFFFFF;}
</style>
<g id="Elements_2_">
	<g id="Bckgd_5_">
		<rect id="Bckgd_3_" x="-0.1" y="-0.1" class="st0" width="150" height="100"/>
	</g>
	<g id="Color_2_">
		<rect id="GCM_x5F_Color_2_" x="0.1" y="100" class="st1" width="150" height="50"/>
	</g>
	<g id="Number_2_">
		<g>
			<g>
				<path class="st2" d="M18.7,119.6c0,3.9-1.5,6.7-7.2,13.7h7.6l-0.4,3.8H7v-3.5c6.1-8.1,7.5-10.4,7.5-13.6c0-2-0.9-3.2-2.4-3.2
					c-1.3,0-2.2,0.8-3.3,2.4l-2.5-2.2c1.5-2.5,3.5-3.9,6.2-3.9C16.5,113,18.7,116,18.7,119.6z"/>
				<path class="st2" d="M33.6,125.3c0,8.2-2.4,12.3-6.8,12.3c-4.4,0-6.8-4.1-6.8-12.3c0-8.2,2.4-12.3,6.8-12.3
					C31.3,113,33.6,117.2,33.6,125.3z M24.3,125.3c0,6.8,0.8,8.7,2.6,8.7c1.8,0,2.5-1.9,2.5-8.7c0-6.8-0.7-8.6-2.5-8.6
					C25.1,116.7,24.3,118.6,24.3,125.3z"/>
			</g>
		</g>
	</g>
	<g>
		<path class="st2" d="M46.8,115.5h-2.3v8.8h-1.9v-8.8h-2.4V114H47L46.8,115.5z"/>
		<path class="st2" d="M50.9,120.2h-1v4.2h-1.9V114h2.7c2.6,0,3.8,1.1,3.8,3c0,1.3-0.6,2.3-1.8,2.8l2.4,4.5h-2.1L50.9,120.2z
			 M50.7,118.8c1.2,0,1.8-0.5,1.8-1.8c0-1.1-0.6-1.6-1.9-1.6h-0.7v3.4H50.7z"/>
		<path class="st2" d="M60.9,122h-2.9l-0.6,2.4h-1.9l2.8-10.4h2.3l2.8,10.4h-2L60.9,122z M60.5,120.5l-1.1-5l-1.1,5H60.5z"/>
		<path class="st2" d="M71.1,124.4h-2.4l-3-8.4c0.1,0.9,0.2,2.2,0.2,4.1v4.3h-1.7V114h2.4l3,8.4c-0.1-0.6-0.2-2.1-0.2-3.5V114h1.7
			V124.4z"/>
		<path class="st2" d="M78.7,115.1l-0.9,1.1c-0.6-0.6-1.3-0.9-2-0.9c-0.8,0-1.4,0.5-1.4,1.2c0,0.8,0.4,1.1,1.9,1.7
			c1.6,0.6,2.7,1.4,2.7,3.2c0,1.8-1.3,3.2-3.5,3.2c-1.5,0-2.6-0.6-3.4-1.4l1-1.1c0.7,0.6,1.4,1,2.3,1c1,0,1.6-0.6,1.6-1.6
			c0-0.9-0.4-1.3-1.8-1.8c-1.9-0.7-2.8-1.6-2.8-3.1c0-1.7,1.4-2.9,3.2-2.9C77,113.8,78,114.2,78.7,115.1z"/>
		<path class="st2" d="M80.2,114h5.3l-0.2,1.4h-3.2v3.1h2.8v1.4h-2.8v4.3h-1.9V114z"/>
		<path class="st2" d="M91.7,115.5h-3.3v2.9h2.9v1.4h-2.9v3.1H92v1.5h-5.5V114h5.4L91.7,115.5z"/>
		<path class="st2" d="M96.1,120.2h-1v4.2h-1.9V114h2.7c2.6,0,3.8,1.1,3.8,3c0,1.3-0.6,2.3-1.8,2.8l2.4,4.5h-2.1L96.1,120.2z
			 M96,118.8c1.2,0,1.8-0.5,1.8-1.8c0-1.1-0.6-1.6-1.9-1.6h-0.7v3.4H96z"/>
		<path class="st2" d="M106.4,115.5h-3.3v2.9h2.9v1.4h-2.9v3.1h3.5v1.5h-5.5V114h5.4L106.4,115.5z"/>
		<path class="st2" d="M114.7,124.4h-2.4l-3-8.4c0.1,0.9,0.2,2.2,0.2,4.1v4.3h-1.7V114h2.4l3,8.4c-0.1-0.6-0.2-2.1-0.2-3.5V114h1.7
			V124.4z"/>
		<path class="st2" d="M122.9,114.9L122,116c-0.5-0.5-1.1-0.7-1.7-0.7c-1.2,0-2.1,1-2.1,3.9c0,2.8,0.9,3.9,2.2,3.9
			c0.8,0,1.3-0.4,1.8-0.8l0.9,1.1c-0.6,0.6-1.5,1.2-2.8,1.2c-2.4,0-4.1-1.8-4.1-5.4c0-3.6,1.8-5.4,4-5.4
			C121.4,113.8,122.2,114.2,122.9,114.9z"/>
		<path class="st2" d="M125.9,124.4H124V114h1.9V124.4z"/>
		<path class="st2" d="M132.2,122h-2.9l-0.6,2.4h-1.9l2.8-10.4h2.3l2.8,10.4h-2L132.2,122z M131.9,120.5l-1.1-5l-1.1,5H131.9z"/>
		<path class="st2" d="M141.7,115.1l-0.9,1.1c-0.6-0.6-1.3-0.9-2-0.9c-0.8,0-1.4,0.5-1.4,1.2c0,0.8,0.4,1.1,1.9,1.7
			c1.6,0.6,2.7,1.4,2.7,3.2c0,1.8-1.3,3.2-3.5,3.2c-1.5,0-2.6-0.6-3.4-1.4l1-1.1c0.7,0.6,1.4,1,2.3,1c1,0,1.6-0.6,1.6-1.6
			c0-0.9-0.4-1.3-1.8-1.8c-1.9-0.7-2.8-1.6-2.8-3.1c0-1.7,1.4-2.9,3.2-2.9C140,113.8,140.9,114.2,141.7,115.1z"/>
		<path class="st2" d="M48.1,131.6c0,4.2-2.2,5.2-4.5,5.2H41v-10.4h2.4C45.8,126.5,48.1,127.3,48.1,131.6z M42.9,128v7.5h0.8
			c1.3,0,2.4-0.7,2.4-3.8c0-3.2-1.1-3.7-2.4-3.7H42.9z"/>
		<path class="st2" d="M54.7,127.9h-3.3v2.9h2.9v1.4h-2.9v3.1h3.5v1.5h-5.5v-10.4h5.4L54.7,127.9z"/>
		<path class="st2" d="M62.4,132.7h-1v4.2h-1.9v-10.4h2.7c2.6,0,3.8,1.1,3.8,3c0,1.3-0.6,2.3-1.8,2.8l2.4,4.5h-2.1L62.4,132.7z
			 M62.2,131.3c1.2,0,1.8-0.5,1.8-1.8c0-1.1-0.6-1.6-1.9-1.6h-0.7v3.4H62.2z"/>
		<path class="st2" d="M72.6,127.9h-3.3v2.9h2.9v1.4h-2.9v3.1h3.5v1.5h-5.5v-10.4h5.4L72.6,127.9z"/>
		<path class="st2" d="M83.1,136.9h-1.8l-0.2-4.4c-0.1-1.5-0.1-3.1-0.1-4.2l-1.6,7.5h-1.8l-1.7-7.5c0,1.4,0,2.8,0,4.3l-0.2,4.3h-1.8
			l0.7-10.4H77l1.5,7.3l1.4-7.3h2.5L83.1,136.9z"/>
		<path class="st2" d="M89.8,127.9h-3.3v2.9h2.9v1.4h-2.9v3.1h3.5v1.5h-5.5v-10.4H90L89.8,127.9z"/>
		<path class="st2" d="M97.4,127.5l-0.9,1.1c-0.6-0.6-1.3-0.9-2-0.9c-0.8,0-1.4,0.5-1.4,1.2c0,0.8,0.4,1.1,1.9,1.7
			c1.6,0.6,2.7,1.4,2.7,3.2c0,1.8-1.3,3.2-3.5,3.2c-1.5,0-2.6-0.6-3.4-1.4l1-1.1c0.7,0.6,1.4,1,2.3,1c1,0,1.6-0.6,1.6-1.6
			c0-0.9-0.4-1.3-1.8-1.8c-1.9-0.7-2.8-1.6-2.8-3.1c0-1.7,1.4-2.9,3.2-2.9C95.7,126.3,96.6,126.7,97.4,127.5z"/>
		<path class="st2" d="M103.4,134.4h-2.9l-0.6,2.4H98l2.8-10.4h2.3l2.8,10.4h-2L103.4,134.4z M103.1,133l-1.1-5l-1.1,5H103.1z"/>
		<path class="st2" d="M112.9,127.5l-0.9,1.1c-0.6-0.6-1.3-0.9-2-0.9c-0.8,0-1.4,0.5-1.4,1.2c0,0.8,0.4,1.1,1.9,1.7
			c1.6,0.6,2.7,1.4,2.7,3.2c0,1.8-1.3,3.2-3.5,3.2c-1.5,0-2.6-0.6-3.4-1.4l1-1.1c0.7,0.6,1.4,1,2.3,1c1,0,1.6-0.6,1.6-1.6
			c0-0.9-0.4-1.3-1.8-1.8c-1.9-0.7-2.8-1.6-2.8-3.1c0-1.7,1.4-2.9,3.2-2.9C111.2,126.3,112.1,126.7,112.9,127.5z"/>
	</g>
</g>
<g id="Icon_2_">
	<g>
		<g>
			<path class="st2" d="M98.4,42.1h-1.2c0-11.6-9.4-21-21-21s-21,9.4-21,21h-1.2c0-12.2,10-22.2,22.3-22.2S98.4,29.8,98.4,42.1z"/>
			<path class="st2" d="M76.1,33.2c-6,0-11.7-1.4-15.9-3.9l0.6-1.1c4,2.4,9.4,3.7,15.2,3.7c5.9,0,11.3-1.4,15.4-3.8l0.7,1.1
				C87.9,31.8,82.2,33.2,76.1,33.2z"/>
			<path class="st2" d="M64.8,42.1l-1.2,0c0.4-10.9,5.1-19.7,11.2-20.8l0.2,1.2C69.5,23.5,65.2,31.9,64.8,42.1z"/>
			<path class="st2" d="M87.4,42.1c-0.3-10.2-4.7-18.6-10.2-19.6l0.2-1.2c6.1,1.1,10.8,9.9,11.2,20.8L87.4,42.1z"/>
			<rect x="75.5" y="21.5" class="st2" width="1.2" height="10"/>
			<rect x="75.5" y="34.2" class="st2" width="1.2" height="7.9"/>
		</g>
		<g>
			<path class="st2" d="M78,67.2H67l-0.1-0.5c-0.5-2-2.1-3.6-4.1-4.1l-0.5-0.1V45.8h1.2v15.7c2.1,0.7,3.7,2.3,4.4,4.4H77
				c0.7-2.1,2.3-3.7,4.4-4.4V45.8h1.2v16.6l-0.5,0.1c-2,0.5-3.6,2.1-4.1,4.1L78,67.2z"/>
			<path class="st2" d="M72.5,53.3c-4.2,0-7.6-3.4-7.6-7.5h1.2c0,3.5,2.8,6.3,6.3,6.3c3.5,0,6.3-2.8,6.3-6.3H80
				C80,50,76.6,53.3,72.5,53.3z"/>
			<path class="st2" d="M72.6,62.7c-1.8,0-3.2-1.4-3.2-3.2c0-1.8,1.4-3.2,3.2-3.2s3.2,1.4,3.2,3.2C75.8,61.3,74.4,62.7,72.6,62.7z
				 M72.6,57.6c-1.1,0-2,0.9-2,2c0,1.1,0.9,2,2,2s2-0.9,2-2C74.6,58.4,73.7,57.6,72.6,57.6z"/>
			<g>
				<polygon class="st2" points="100.5,52.2 99.3,52.2 99.3,44.4 50.7,44.4 50.7,52.2 49.5,52.2 49.5,43.1 100.5,43.1 				"/>
				<polygon class="st2" points="86.3,70.7 58.7,70.7 58.7,45.8 59.9,45.8 59.9,69.5 85,69.5 85,45.8 86.3,45.8 				"/>
			</g>
			<polygon class="st2" points="91.4,75.8 62,75.8 62,74.5 90.1,74.5 90.1,45.8 91.4,45.8 			"/>
			<polygon class="st2" points="95.7,80.1 66.4,80.1 66.4,78.9 94.5,78.9 94.5,45.8 95.7,45.8 			"/>
		</g>
	</g>
</g>
</svg>
