<?xml version="1.0" encoding="utf-8"?>
<!-- Generator: Adobe Illustrator 25.0.1, SVG Export Plug-In . SVG Version: 6.00 Build 0)  -->
<svg version="1.1" id="_x30_3_Negative_EN" xmlns="http://www.w3.org/2000/svg" xmlns:xlink="http://www.w3.org/1999/xlink" x="0px"
	 y="0px" viewBox="0 0 150 150" style="enable-background:new 0 0 150 150;" xml:space="preserve">
<style type="text/css">
	.st0{fill:#1C3664;}
	.st1{fill:#9C2468;}
	.st2{fill:#FFFFFF;}
</style>
<g id="Elements_2_">
	<g id="Bckgd_5_">
		<rect id="Bckgd_3_" x="-0.1" y="-0.1" class="st0" width="150" height="100"/>
	</g>
	<g id="Color_2_">
		<rect id="GCM_x5F_Color_2_" x="-0.1" y="99.9" class="st1" width="150" height="50"/>
	</g>
	<g>
		<g>
			<path class="st2" d="M43.7,113.2h-1v3.8h-1.8v-9.5h2.5c2.4,0,3.6,1,3.6,2.8c0,1.2-0.6,2.1-1.7,2.6l2.2,4.2h-2L43.7,113.2z
				 M43.5,112c1.1,0,1.6-0.5,1.6-1.6c0-1-0.5-1.5-1.8-1.5h-0.7v3.1H43.5z"/>
			<path class="st2" d="M53.4,108.9h-3.1v2.7h2.7v1.3h-2.7v2.8h3.3v1.3h-5.1v-9.5h5.1L53.4,108.9z"/>
			<path class="st2" d="M61.6,112.3c0,3.9-2.1,4.8-4.2,4.8H55v-9.5h2.2C59.4,107.6,61.6,108.3,61.6,112.3z M56.7,108.9v6.8h0.8
				c1.2,0,2.2-0.6,2.2-3.5c0-2.9-1-3.4-2.3-3.4H56.7z"/>
			<path class="st2" d="M69.4,114.2c0,1.7-1.1,3.1-3.2,3.1c-2.2,0-3.2-1.3-3.2-3.1v-6.6h1.8v6.5c0,1.2,0.4,1.8,1.5,1.8
				c1,0,1.5-0.6,1.5-1.8v-6.5h1.8V114.2z"/>
			<path class="st2" d="M77.1,108.4l-0.9,1c-0.5-0.4-1-0.6-1.6-0.6c-1.1,0-2,0.9-2,3.6c0,2.6,0.8,3.5,2,3.5c0.7,0,1.2-0.3,1.7-0.7
				l0.9,1c-0.6,0.6-1.4,1.1-2.6,1.1c-2.2,0-3.8-1.6-3.8-5c0-3.3,1.6-4.9,3.8-4.9C75.6,107.4,76.3,107.7,77.1,108.4z"/>
			<path class="st2" d="M80,117.1h-1.8v-9.5H80V117.1z"/>
			<path class="st2" d="M84.6,113.2h-1v3.8h-1.8v-9.5h2.5c2.4,0,3.6,1,3.6,2.8c0,1.2-0.5,2.1-1.7,2.6l2.2,4.2h-2L84.6,113.2z
				 M84.4,112c1.1,0,1.7-0.5,1.7-1.6c0-1-0.5-1.5-1.8-1.5h-0.7v3.1H84.4z"/>
			<path class="st2" d="M42.7,128.1h3.4l-0.2,1.5h-5v-9.5h1.8V128.1z"/>
			<path class="st2" d="M54.2,124.8c0,3.2-1.4,5-3.8,5c-2.3,0-3.8-1.7-3.8-4.9c0-3.2,1.5-5,3.8-5C52.8,119.9,54.2,121.5,54.2,124.8z
				 M48.5,124.8c0,2.7,0.7,3.6,1.9,3.6c1.2,0,1.9-0.9,1.9-3.6c0-2.6-0.7-3.6-1.9-3.6C49.2,121.2,48.5,122.2,48.5,124.8z"/>
			<path class="st2" d="M61,121l-0.9,1c-0.6-0.5-1.2-0.8-1.9-0.8c-0.8,0-1.3,0.4-1.3,1.1c0,0.7,0.3,1,1.7,1.5c1.5,0.6,2.5,1.3,2.5,3
				c0,1.7-1.2,2.9-3.3,2.9c-1.4,0-2.4-0.5-3.1-1.3l0.9-1c0.6,0.6,1.3,0.9,2.2,0.9c0.9,0,1.5-0.5,1.5-1.4c0-0.8-0.3-1.2-1.6-1.6
				c-1.8-0.6-2.6-1.5-2.6-2.8c0-1.5,1.3-2.6,3-2.6C59.4,119.9,60.3,120.3,61,121z"/>
			<path class="st2" d="M65.6,120.1h4.9l-0.2,1.3h-3v2.9H70v1.3h-2.6v4h-1.8V120.1z"/>
			<path class="st2" d="M75.4,127.4h-2.7l-0.5,2.2h-1.8l2.6-9.5h2.2l2.6,9.5h-1.8L75.4,127.4z M75.1,126l-1.1-4.6l-1.1,4.6H75.1z"/>
			<path class="st2" d="M84.4,120.9l-0.9,1c-0.5-0.4-1-0.6-1.6-0.6c-1.1,0-2,0.9-2,3.6c0,2.6,0.8,3.5,2,3.5c0.7,0,1.2-0.3,1.7-0.7
				l0.9,1c-0.6,0.6-1.4,1.1-2.6,1.1c-2.2,0-3.8-1.6-3.8-5c0-3.3,1.7-4.9,3.8-4.9C82.9,119.9,83.7,120.2,84.4,120.9z"/>
			<path class="st2" d="M91.3,121.5h-2.2v8.1h-1.8v-8.1h-2.3v-1.4h6.4L91.3,121.5z"/>
			<path class="st2" d="M99.5,124.8c0,3.2-1.4,5-3.8,5c-2.3,0-3.8-1.7-3.8-4.9c0-3.2,1.5-5,3.8-5C98,119.9,99.5,121.5,99.5,124.8z
				 M93.8,124.8c0,2.7,0.7,3.6,1.9,3.6c1.3,0,1.9-0.9,1.9-3.6c0-2.6-0.7-3.6-1.9-3.6C94.5,121.2,93.8,122.2,93.8,124.8z"/>
			<path class="st2" d="M103.7,125.7h-1v3.8h-1.8v-9.5h2.5c2.4,0,3.6,1,3.6,2.8c0,1.2-0.5,2.1-1.7,2.6l2.2,4.2h-2L103.7,125.7z
				 M103.5,124.5c1.1,0,1.7-0.5,1.7-1.6c0-1-0.5-1.5-1.8-1.5h-0.7v3.1H103.5z"/>
			<path class="st2" d="M113.4,121.4h-3.1v2.7h2.7v1.3h-2.7v2.8h3.3v1.3h-5.1v-9.5h5.1L113.4,121.4z"/>
			<path class="st2" d="M120.7,121l-0.9,1c-0.6-0.5-1.2-0.8-1.9-0.8c-0.8,0-1.3,0.4-1.3,1.1c0,0.7,0.3,1,1.7,1.5
				c1.5,0.6,2.5,1.3,2.5,3c0,1.7-1.2,2.9-3.3,2.9c-1.4,0-2.4-0.5-3.1-1.3l0.9-1c0.6,0.6,1.3,0.9,2.2,0.9c0.9,0,1.5-0.5,1.5-1.4
				c0-0.8-0.3-1.2-1.6-1.6c-1.8-0.6-2.6-1.5-2.6-2.8c0-1.5,1.3-2.6,3-2.6C119.1,119.9,120,120.3,120.7,121z"/>
			<path class="st2" d="M45,139.9h-2.8l-0.5,2.2h-1.8l2.6-9.5h2.2l2.6,9.5h-1.8L45,139.9z M44.7,138.5l-1.1-4.6l-1.1,4.6H44.7z"/>
			<path class="st2" d="M55,137.3c0,3.9-2.1,4.8-4.2,4.8h-2.4v-9.5h2.2C52.8,132.6,55,133.3,55,137.3z M50.1,133.9v6.8h0.8
				c1.2,0,2.2-0.6,2.2-3.5c0-2.9-1-3.4-2.3-3.4H50.1z"/>
			<path class="st2" d="M60,142.1h-2.2l-2.6-9.5h1.8l1.8,7.9l1.7-7.9h1.8L60,142.1z"/>
			<path class="st2" d="M68.3,133.9h-3.1v2.7h2.7v1.3h-2.7v2.8h3.3v1.3h-5.1v-9.5h5.1L68.3,133.9z"/>
			<path class="st2" d="M72.6,138.2h-1v3.8h-1.8v-9.5h2.5c2.4,0,3.6,1,3.6,2.8c0,1.2-0.5,2.1-1.7,2.6l2.2,4.2h-2L72.6,138.2z
				 M72.4,137c1.1,0,1.6-0.5,1.6-1.6c0-1-0.5-1.5-1.8-1.5h-0.7v3.1H72.4z"/>
			<path class="st2" d="M83.1,133.5l-0.9,1c-0.6-0.5-1.2-0.8-1.9-0.8c-0.8,0-1.3,0.4-1.3,1.1c0,0.7,0.3,1,1.7,1.5
				c1.5,0.6,2.5,1.3,2.5,3c0,1.7-1.2,2.9-3.3,2.9c-1.4,0-2.4-0.5-3.1-1.3l0.9-1c0.6,0.6,1.3,0.9,2.2,0.9c0.9,0,1.5-0.5,1.5-1.4
				c0-0.8-0.3-1.2-1.7-1.6c-1.8-0.6-2.6-1.5-2.6-2.8c0-1.5,1.3-2.6,3-2.6C81.5,132.4,82.3,132.8,83.1,133.5z"/>
			<path class="st2" d="M91.8,137.3c0,3.2-1.4,5-3.8,5c-2.3,0-3.8-1.7-3.8-4.9c0-3.2,1.5-5,3.8-5C90.3,132.4,91.8,134,91.8,137.3z
				 M86.1,137.3c0,2.7,0.7,3.6,1.9,3.6c1.3,0,1.9-0.9,1.9-3.6c0-2.6-0.7-3.6-1.9-3.6C86.8,133.7,86.1,134.7,86.1,137.3z"/>
			<path class="st2" d="M98.6,133.5l-0.9,1c-0.6-0.5-1.2-0.8-1.9-0.8c-0.8,0-1.3,0.4-1.3,1.1c0,0.7,0.3,1,1.7,1.5
				c1.5,0.6,2.5,1.3,2.5,3c0,1.7-1.2,2.9-3.3,2.9c-1.4,0-2.4-0.5-3.1-1.3l0.9-1c0.6,0.6,1.3,0.9,2.2,0.9c0.9,0,1.5-0.5,1.5-1.4
				c0-0.8-0.3-1.2-1.6-1.6c-1.8-0.6-2.6-1.5-2.6-2.8c0-1.5,1.3-2.6,3-2.6C97,132.4,97.9,132.8,98.6,133.5z"/>
		</g>
	</g>
	<g id="Number_2_">
		<g>
			<g>
				<path class="st2" d="M26.2,119.6c0,3.9-1.5,6.7-7.2,13.7h7.6l-0.4,3.8H14.4v-3.5c6.1-8.1,7.5-10.4,7.5-13.6c0-2-0.9-3.2-2.4-3.2
					c-1.3,0-2.2,0.8-3.3,2.4l-2.5-2.2c1.5-2.5,3.5-3.9,6.2-3.9C24,113,26.2,116,26.2,119.6z"/>
			</g>
		</g>
	</g>
</g>
<g id="Icon_2_">
	<g id="Graphic_1_">
		<path class="st2" d="M50.1,79.5c-0.2,0-0.5-0.1-0.6-0.4c-0.1-0.3,0-0.7,0.3-0.8c8.9-4.2,18.6-6.4,28.7-6.4
			c9.6,0,18.8,1.9,27.4,5.8c0.3,0.1,0.5,0.5,0.3,0.8c-0.1,0.3-0.5,0.5-0.8,0.3C97,75.1,88,73.2,78.5,73.2c-9.9,0-19.4,2.1-28.2,6.3
			C50.3,79.5,50.2,79.5,50.1,79.5z"/>
		<g>
			<path class="st2" d="M75.7,51c-0.1,0-0.2,0-0.3-0.1l-3.7-2c-6.4-4.4-4.1-9.1-4.1-9.2c0,0,0-0.1,0.1-0.1c3.1-4.1,2.6-6,2.5-6.3
				l-5.8-5.9l0.9-0.9l5.9,5.9c0,0,0.1,0.1,0.1,0.1c0.2,0.2,1.5,2.5-2.4,7.7c-0.2,0.4-1.5,3.9,3.6,7.5l3,1.7c1.1-2.5,3.8-4.5,4.3-4.9
				c0.2-0.4,1.1-2,0.7-3.8c-0.4-1.5-1.5-2.9-3.5-4c-0.2-0.1-0.3-0.3-0.3-0.6c0-0.2,0.1-4.4,2.9-9.1c0.1-0.1,1.5-2.8-1-5.5l0.9-0.8
				c3.1,3.5,1.1,7,1.1,7c-2.2,3.6-2.6,7-2.7,8.1c2.1,1.2,3.4,2.8,3.8,4.6c0.6,2.6-0.9,4.8-1,4.9c0,0.1-0.1,0.1-0.2,0.2
				c0,0-3.4,2.3-4.2,5c-0.1,0.2-0.2,0.3-0.4,0.4C75.9,51,75.8,51,75.7,51z"/>
			<path class="st2" d="M79.1,30.8l-1-0.8l4.5-5.7l1.6-4.3l1.2,0.4l-1.6,4.4c0,0.1-0.1,0.1-0.1,0.2L79.1,30.8z"/>
			<path class="st2" d="M81.3,40.7l-0.7-1c0,0,5-3.3,5.5-7.1c0.6-4,2.5-5,5.4-6.6c0.3-0.2,0.6-0.4,1-0.5c3-1.7,2.9-5.1,2.9-5.2
				l1.2-0.1c0,0.2,0.3,4.3-3.5,6.4c-0.3,0.2-0.7,0.4-1,0.5c-2.8,1.6-4.3,2.4-4.8,5.7C86.7,37.1,81.5,40.5,81.3,40.7z"/>
			<path class="st2" d="M94.6,30.9c-0.1,0-0.2,0-0.2,0L89,28.6l0.5-1.2l5.1,2.1l4.2-2l0.5,1.1l-4.4,2.1
				C94.8,30.9,94.7,30.9,94.6,30.9z"/>
			<path class="st2" d="M61,75l-1.2-0.3l0.7-2.6c0.1-0.2,0.2-0.4,0.4-0.4l7.2-2.7l1.6-2.4c0.3-0.9,4.1-11.7,0.4-15.5
				c-2.2-2.3-4.4-3.2-6.9-4.3c-2-0.8-4.2-1.8-6.8-3.6c-6-4.2-4.2-13.6-4.1-14l1.2,0.3c0,0.1-1.8,9,3.6,12.7c2.5,1.7,4.6,2.6,6.6,3.5
				c2.5,1.1,4.9,2.1,7.3,4.6c4.4,4.5,0.1,16.3-0.1,16.8c0,0,0,0.1-0.1,0.1L69,69.8c-0.1,0.1-0.2,0.2-0.3,0.2l-7.1,2.7L61,75z"/>
			<path class="st2" d="M44.5,46.2l-0.7-1c0.3-0.2,6.6-4.7,13.6-2.7L57,43.6C50.6,41.8,44.5,46.1,44.5,46.2z"/>
			<path class="st2" d="M53.3,39.9c-3.6-4.2-8.3-3.2-8.4-3.1l-0.3-1.2c0.2-0.1,5.6-1.3,9.7,3.5L53.3,39.9z"/>
		</g>
		<path class="st2" d="M81,40.8c-0.2,0-0.4-0.1-0.5-0.3c-0.2-0.3-0.1-0.7,0.2-0.9c4.9-3.3,10.3-5.2,10.5-5.2
			c0.3-0.1,0.7,0.1,0.8,0.4s-0.1,0.7-0.4,0.8c-0.1,0-5.4,1.9-10.2,5.1C81.3,40.8,81.2,40.8,81,40.8z"/>
		<path class="st2" d="M92.3,74.3c-0.2,0-0.5-0.1-0.6-0.4l-2.1-4.7l-8.4-1.6c-0.2,0-0.3-0.1-0.4-0.3c-1.4-2.3-1.8-4.4-1.3-6.2
			c0.7-2.4,2.7-3.5,2.8-3.5c1.6-1,3.5-2.2,4.2-2.7c0-0.1-0.1-0.1-0.1-0.2l-6.5,2.9c-0.2,0.1-0.4,0.1-0.6,0C79.2,57.4,79,57.2,79,57
			c-0.2-2.8-0.1-5.1-0.1-5.1c0-0.2,0.1-0.3,0.2-0.4c4.7-4.5,3.5-12.2,3.5-12.3c-0.1-0.3,0.2-0.7,0.5-0.7c0.3-0.1,0.7,0.2,0.7,0.5
			c0.1,0.3,1.2,8.2-3.7,13.2c0,0.6,0,2,0.1,3.9l6.2-2.7c0.3-0.1,0.7,0,0.8,0.3c0.7,1.4,0.6,1.7,0.4,2c-0.1,0.1-0.2,0.3-4.7,3.1
			c-0.1,0-1.7,0.9-2.2,2.8c-0.4,1.4-0.1,3.1,1,5l8.5,1.7c0.2,0,0.4,0.2,0.5,0.4l2.2,5c0.1,0.3,0,0.7-0.3,0.8
			C92.4,74.3,92.3,74.3,92.3,74.3z"/>
		
			<rect x="65.9" y="32.7" transform="matrix(0.9509 -0.3094 0.3094 0.9509 -8.2456 22.4016)" class="st2" width="1.3" height="8.9"/>
		<rect x="59.5" y="37" transform="matrix(0.9925 -0.1219 0.1219 0.9925 -4.1125 7.9512)" class="st2" width="6.8" height="1.2"/>
		<path class="st2" d="M81.8,49.4l-0.5-1.1l8.9-4c0.1-0.1,0.3-0.1,0.5,0l3.6,1.2l-0.4,1.2l-3.4-1.1L81.8,49.4z"/>
		
			<rect x="85.4" y="42.4" transform="matrix(0.4138 -0.9104 0.9104 0.4138 12.8037 106.0165)" class="st2" width="6.6" height="1.3"/>
		<path class="st2" d="M68.4,31.5c0-0.2-0.4-4.4,2-7.1l0.9,0.8c-2.1,2.3-1.7,6.1-1.7,6.1L68.4,31.5z"/>
		
			<rect x="84.4" y="56.5" transform="matrix(0.6679 -0.7442 0.7442 0.6679 -15.3977 82.7098)" class="st2" width="1.2" height="4.1"/>
	</g>
</g>
</svg>
