<?xml version="1.0" encoding="utf-8"?>
<!-- Generator: Adobe Illustrator 25.0.1, SVG Export Plug-In . SVG Version: 6.00 Build 0)  -->
<svg version="1.1" id="_x30_3_Negative_EN" xmlns="http://www.w3.org/2000/svg" xmlns:xlink="http://www.w3.org/1999/xlink" x="0px"
	 y="0px" viewBox="0 0 150 150" style="enable-background:new 0 0 150 150;" xml:space="preserve">
<style type="text/css">
	.st0{fill:#003366;}
	.st1{fill:#56C02B;}
	.st2{fill:#FFFFFF;}
</style>
<g id="Elements_2_">
	<g id="Bckgd_5_">
		<rect id="Bckgd_3_" x="-0.1" y="-0.1" class="st0" width="150" height="100"/>
	</g>
	<g id="Color_2_">
		<rect id="GCM_x5F_Color_2_" x="-0.1" y="99.9" class="st1" width="150" height="50"/>
	</g>
	<g id="Number_2_">
		<g>
			<g>
				<path class="st2" d="M17.8,137.1h-4v-18.8l-3.9,3.1l-1.8-3.2l6.1-4.7h3.7V137.1z"/>
				<path class="st2" d="M31.2,117h-6.6v5.6c0.9-0.6,1.8-0.8,2.7-0.8c3,0,5.2,2.7,5.2,7.6c0,4.9-2.8,8.3-7.1,8.3
					c-2.7,0-4.6-1.4-6-3.4l2.3-2.5c1,1.4,2.1,2.2,3.5,2.2c1.9,0,3-1.5,3-4.6c0-3.2-1.1-4.2-2.6-4.2c-0.8,0-1.4,0.2-2.2,0.8h-2.8
					v-12.5h11L31.2,117z"/>
			</g>
		</g>
	</g>
	<g>
		<g>
			<path class="st2" d="M45,114.4h-2.8l-0.5,2.2h-1.8l2.6-9.5h2.2l2.6,9.5h-1.8L45,114.4z M44.7,113.1l-1.1-4.6l-1.1,4.6H44.7z"/>
			<path class="st2" d="M54.2,107.9l-0.9,1c-0.5-0.4-1-0.6-1.6-0.6c-1.1,0-2,0.9-2,3.6c0,2.6,0.8,3.5,2,3.5c0.7,0,1.2-0.3,1.7-0.7
				l0.9,1c-0.6,0.6-1.4,1.1-2.6,1.1c-2.2,0-3.8-1.6-3.8-5c0-3.3,1.7-4.9,3.8-4.9C52.7,106.9,53.4,107.3,54.2,107.9z"/>
			<path class="st2" d="M61.1,107.9l-0.9,1c-0.5-0.4-1-0.6-1.6-0.6c-1.1,0-2,0.9-2,3.6c0,2.6,0.8,3.5,2,3.5c0.7,0,1.2-0.3,1.7-0.7
				l0.9,1c-0.6,0.6-1.4,1.1-2.6,1.1c-2.2,0-3.8-1.6-3.8-5c0-3.3,1.6-4.9,3.8-4.9C59.7,106.9,60.4,107.3,61.1,107.9z"/>
			<path class="st2" d="M67.3,108.4h-3.1v2.7h2.7v1.3h-2.7v2.8h3.3v1.3h-5.1v-9.5h5.1L67.3,108.4z"/>
			<path class="st2" d="M74.7,108.1l-0.9,1c-0.6-0.5-1.2-0.8-1.9-0.8c-0.8,0-1.3,0.4-1.3,1.1c0,0.7,0.3,1,1.7,1.5
				c1.5,0.6,2.5,1.3,2.5,3c0,1.7-1.2,2.9-3.3,2.9c-1.4,0-2.4-0.5-3.1-1.3l0.9-1c0.6,0.6,1.3,0.9,2.2,0.9c0.9,0,1.5-0.5,1.5-1.4
				c0-0.8-0.3-1.2-1.7-1.6c-1.8-0.6-2.6-1.5-2.6-2.8c0-1.5,1.3-2.6,3-2.6C73.1,106.9,73.9,107.3,74.7,108.1z"/>
			<path class="st2" d="M83.6,111.9c0,3.2-1.4,5-3.8,5c-2.3,0-3.8-1.7-3.8-4.9c0-3.2,1.5-5,3.8-5C82.1,106.9,83.6,108.6,83.6,111.9z
				 M77.9,111.9c0,2.7,0.7,3.6,1.9,3.6c1.3,0,1.9-0.9,1.9-3.6c0-2.6-0.7-3.6-1.9-3.6C78.5,108.3,77.9,109.2,77.9,111.9z"/>
			<path class="st2" d="M45,127.9h-2.8l-0.5,2.2h-1.8l2.6-9.5h2.2l2.6,9.5h-1.8L45,127.9z M44.7,126.6l-1.1-4.6l-1.1,4.6H44.7z"/>
			<path class="st2" d="M57,121.6l-0.9,1c-0.6-0.5-1.2-0.8-1.9-0.8c-0.8,0-1.3,0.4-1.3,1.1c0,0.7,0.3,1,1.7,1.5
				c1.5,0.6,2.5,1.3,2.5,3c0,1.7-1.2,2.9-3.3,2.9c-1.4,0-2.4-0.5-3.1-1.3l0.9-1c0.6,0.6,1.3,0.9,2.2,0.9c0.9,0,1.5-0.5,1.5-1.4
				c0-0.8-0.3-1.2-1.7-1.6c-1.8-0.6-2.6-1.5-2.6-2.8c0-1.5,1.3-2.6,3-2.6C55.4,120.4,56.3,120.8,57,121.6z"/>
			<path class="st2" d="M63.5,121.9h-3.1v2.7h2.7v1.3h-2.7v2.8h3.3v1.3h-5.1v-9.5h5.1L63.5,121.9z"/>
			<path class="st2" d="M67.9,126.3h-1v3.8h-1.8v-9.5h2.5c2.4,0,3.6,1,3.6,2.8c0,1.2-0.5,2.1-1.7,2.6l2.2,4.2h-2L67.9,126.3z
				 M67.8,125c1.1,0,1.6-0.5,1.6-1.6c0-1-0.5-1.5-1.8-1.5H67v3.1H67.8z"/>
			<path class="st2" d="M76.6,130.1h-2.2l-2.6-9.5h1.8l1.8,7.9l1.7-7.9h1.8L76.6,130.1z"/>
			<path class="st2" d="M82,130.1h-1.8v-9.5H82V130.1z"/>
			<path class="st2" d="M89.9,121.4l-0.9,1c-0.5-0.4-1-0.6-1.6-0.6c-1.1,0-2,0.9-2,3.6c0,2.6,0.8,3.5,2,3.5c0.7,0,1.2-0.3,1.7-0.7
				l0.9,1c-0.6,0.6-1.4,1.1-2.6,1.1c-2.2,0-3.8-1.6-3.8-5c0-3.3,1.6-4.9,3.8-4.9C88.5,120.4,89.2,120.8,89.9,121.4z"/>
			<path class="st2" d="M93,130.1h-1.8v-9.5H93V130.1z"/>
			<path class="st2" d="M102.2,125.4c0,3.2-1.4,5-3.8,5c-2.3,0-3.8-1.7-3.8-4.9c0-3.2,1.5-5,3.8-5
				C100.7,120.4,102.2,122.1,102.2,125.4z M96.5,125.4c0,2.7,0.7,3.6,1.9,3.6c1.3,0,1.9-0.9,1.9-3.6c0-2.6-0.7-3.6-1.9-3.6
				C97.2,121.8,96.5,122.7,96.5,125.4z"/>
			<path class="st2" d="M109.1,121.6l-0.9,1c-0.6-0.5-1.2-0.8-1.9-0.8c-0.8,0-1.3,0.4-1.3,1.1c0,0.7,0.3,1,1.7,1.5
				c1.5,0.6,2.5,1.3,2.5,3c0,1.7-1.2,2.9-3.3,2.9c-1.4,0-2.4-0.5-3.1-1.3l0.9-1c0.6,0.6,1.3,0.9,2.2,0.9c0.9,0,1.5-0.5,1.5-1.4
				c0-0.8-0.3-1.2-1.6-1.6c-1.8-0.6-2.6-1.5-2.6-2.8c0-1.5,1.3-2.6,3-2.6C107.5,120.4,108.4,120.8,109.1,121.6z"/>
			<path class="st2" d="M47.2,140.9c0,2-1.5,2.7-3.7,2.7h-2.6v-9.5h2.3c2.3,0,3.6,0.8,3.6,2.4c0,1.2-0.8,1.8-1.7,2
				C46.2,138.8,47.2,139.4,47.2,140.9z M42.7,135.4v2.6h0.8c1,0,1.5-0.5,1.5-1.3c0-0.9-0.5-1.3-1.7-1.3H42.7z M45.4,140.8
				c0-1.1-0.6-1.5-1.7-1.5h-0.9v3h0.8C44.6,142.3,45.4,142,45.4,140.8z"/>
			<path class="st2" d="M52.8,141.4h-2.8l-0.5,2.2h-1.8l2.6-9.5h2.2l2.6,9.5h-1.8L52.8,141.4z M50.3,133.3l-0.4-0.9l2.6-1.6l0.7,1.3
				L50.3,133.3z M52.5,140.1l-1.1-4.6l-1.1,4.6H52.5z"/>
			<path class="st2" d="M62,135.1l-0.9,1c-0.6-0.5-1.2-0.8-1.9-0.8c-0.8,0-1.3,0.4-1.3,1.1c0,0.7,0.3,1,1.7,1.5
				c1.5,0.6,2.5,1.3,2.5,3c0,1.7-1.2,2.9-3.3,2.9c-1.4,0-2.4-0.5-3.1-1.3l0.9-1c0.6,0.6,1.3,0.9,2.2,0.9c0.9,0,1.5-0.5,1.5-1.4
				c0-0.8-0.3-1.2-1.6-1.6c-1.8-0.6-2.6-1.5-2.6-2.8c0-1.5,1.3-2.6,3-2.6C60.4,133.9,61.3,134.3,62,135.1z"/>
			<path class="st2" d="M65.4,143.6h-1.8v-9.5h1.8V143.6z"/>
			<path class="st2" d="M73.3,134.9l-0.9,1c-0.5-0.4-1-0.6-1.6-0.6c-1.1,0-2,0.9-2,3.6c0,2.6,0.8,3.5,2,3.5c0.7,0,1.2-0.3,1.7-0.7
				l0.9,1c-0.6,0.6-1.4,1.1-2.6,1.1c-2.2,0-3.8-1.6-3.8-5c0-3.3,1.7-4.9,3.8-4.9C71.9,133.9,72.6,134.3,73.3,134.9z"/>
			<path class="st2" d="M81.5,138.9c0,3.2-1.4,5-3.8,5c-2.3,0-3.8-1.7-3.8-4.9c0-3.2,1.5-5,3.8-5C80.1,133.9,81.5,135.6,81.5,138.9z
				 M75.8,138.9c0,2.7,0.7,3.6,1.9,3.6c1.3,0,1.9-0.9,1.9-3.6c0-2.6-0.7-3.6-1.9-3.6C76.5,135.3,75.8,136.2,75.8,138.9z"/>
			<path class="st2" d="M88.5,135.1l-0.9,1c-0.6-0.5-1.2-0.8-1.9-0.8c-0.8,0-1.3,0.4-1.3,1.1c0,0.7,0.3,1,1.7,1.5
				c1.5,0.6,2.5,1.3,2.5,3c0,1.7-1.2,2.9-3.3,2.9c-1.4,0-2.4-0.5-3.1-1.3l0.9-1c0.6,0.6,1.3,0.9,2.2,0.9c0.9,0,1.5-0.5,1.5-1.4
				c0-0.8-0.3-1.2-1.6-1.6c-1.8-0.6-2.6-1.5-2.6-2.8c0-1.5,1.3-2.6,3-2.6C86.9,133.9,87.7,134.3,88.5,135.1z"/>
		</g>
	</g>
</g>
<g id="Icon_2_">
	<g>
		<polygon class="st2" points="67.8,73 59.2,73 59.2,66.9 52.9,66.9 52.9,58.7 54.2,58.7 54.2,65.6 60.4,65.6 60.4,71.7 66.6,71.7 
			66.6,65.6 72.8,65.6 72.8,58.7 74,58.7 74,66.9 67.8,66.9 		"/>
		<path class="st2" d="M63.2,80.1c-12.6,0-22.8-10.2-22.8-22.8c0-11.2,18-32.7,21.6-36.9c0.6-0.7,1.8-0.7,2.4,0
			c2.7,3.2,12,14.2,17.4,24.4l0.5,0.9H54.2v12.3h5V52h8.7v6.1h5V52h9.6l0.4,1.2c0.7,1.8,1.7,3.5,3.1,4.9l0.2,0.2l0,0.3
			C85.4,70.6,75.4,80.1,63.2,80.1z M63.2,21.1c-0.1,0-0.2,0-0.3,0.1c-3.6,4.1-21.3,25.4-21.3,36.1c0,11.9,9.7,21.5,21.6,21.5
			c11.4,0,20.8-8.8,21.5-20.1c-1.4-1.5-2.5-3.2-3.2-5.1l-0.1-0.4H74v6.1h-7.5v-6.1h-6.2v6.1h-7.5V44.5h27.3
			c-5.5-9.8-14.2-20.2-16.8-23.3C63.4,21.1,63.3,21.1,63.2,21.1z"/>
		<path class="st2" d="M95.2,63.2c-6.1,0-11.5-3.8-13.6-9.6l-0.1-0.4H74v6.1h-7.5v-6.1h-6.2v6.1h-7.5V44.5h28.5l0.1-0.4
			c2-5.7,7.5-9.6,13.6-9.6c7.9,0,14.4,6.4,14.4,14.3S103.1,63.2,95.2,63.2z M72.8,52h9.6l0.4,1.2c1.9,5.2,6.8,8.7,12.4,8.7
			c7.3,0,13.2-5.9,13.2-13.1s-5.9-13.1-13.2-13.1c-5.6,0-10.5,3.5-12.4,8.7l-0.4,1.2H54.2v12.3h5V52h8.7v6.1h5V52z M95.1,56.4
			c-4.2,0-7.5-3.4-7.5-7.5s3.4-7.5,7.5-7.5s7.5,3.4,7.5,7.5S99.3,56.4,95.1,56.4z M95.1,42.6c-3.5,0-6.3,2.8-6.3,6.3
			s2.8,6.3,6.3,6.3s6.3-2.8,6.3-6.3S98.6,42.6,95.1,42.6z"/>
	</g>
</g>
</svg>
