<?xml version="1.0" encoding="utf-8"?>
<!-- Generator: Adobe Illustrator 25.0.1, SVG Export Plug-In . SVG Version: 6.00 Build 0)  -->
<svg version="1.1" id="_x30_3_Negative_EN" xmlns="http://www.w3.org/2000/svg" xmlns:xlink="http://www.w3.org/1999/xlink" x="0px"
	 y="0px" viewBox="0 0 150 150" style="enable-background:new 0 0 150 150;" xml:space="preserve">
<style type="text/css">
	.st0{fill:#003366;}
	.st1{fill:#26BDE2;}
	.st2{fill:#FFFFFF;}
</style>
<g id="Elements_2_">
	<g id="Bckgd_5_">
		<rect id="Bckgd_3_" x="-0.1" y="-0.1" class="st0" width="150" height="100"/>
	</g>
	<g id="Color_2_">
		<rect id="GCM_x5F_Color_2_" x="-0.1" y="99.9" class="st1" width="150" height="50"/>
	</g>
	<g id="Number_2_">
		<g>
			<g>
				<path class="st2" d="M17.2,137.1h-4v-18.8l-3.9,3.1l-1.8-3.2l6.1-4.7h3.7V137.1z"/>
				<path class="st2" d="M33.1,130.7c0,4-2.6,6.9-7,6.9c-4.3,0-6.9-2.9-6.9-6.8c0-2.8,1.3-4.7,3.5-6c-2.1-1.5-2.8-3.4-2.8-5.6
					c0-3.9,2.6-6.3,6.2-6.3c3.6,0,6.3,2.1,6.3,6.1c0,2.1-0.9,3.9-3.1,5.3C32,125.9,33.1,128,33.1,130.7z M29.1,130.7
					c0-2.1-0.8-3-2.9-4.1l-0.8-0.4c-1.4,1-2,2.5-2,4.4c0,2.3,1.1,3.5,2.9,3.5C28.1,134.1,29.1,132.9,29.1,130.7z M23.9,119.3
					c0,1.8,0.7,2.7,2.3,3.6l0.5,0.3c1.3-1.2,1.7-2.3,1.7-3.9c0-2-0.8-3-2.3-3C24.8,116.3,23.9,117.2,23.9,119.3z"/>
			</g>
		</g>
	</g>
	<g>
		<g>
			<path class="st2" d="M46.8,111.7c0,3.5-1.9,4.4-3.8,4.4h-2.2v-8.6h2C44.9,107.4,46.8,108,46.8,111.7z M42.4,108.6v6.2h0.7
				c1.1,0,2-0.6,2-3.1c0-2.6-0.9-3.1-2-3.1H42.4z"/>
			<path class="st2" d="M52.1,108.6h-2.8v2.4h2.4v1.2h-2.4v2.6h3v1.2h-4.6v-8.6h4.6L52.1,108.6z"/>
			<path class="st2" d="M58.4,108.3l-0.8,0.9c-0.5-0.5-1.1-0.7-1.7-0.7c-0.7,0-1.2,0.4-1.2,1c0,0.6,0.3,0.9,1.6,1.4
				c1.4,0.5,2.3,1.1,2.3,2.7c0,1.5-1.1,2.6-3,2.6c-1.3,0-2.2-0.5-2.8-1.2l0.8-0.9c0.6,0.5,1.2,0.8,2,0.8c0.8,0,1.4-0.5,1.4-1.3
				c0-0.7-0.3-1.1-1.5-1.5c-1.6-0.6-2.3-1.3-2.3-2.6c0-1.4,1.1-2.4,2.7-2.4C56.9,107.2,57.7,107.6,58.4,108.3z"/>
			<path class="st2" d="M63.2,114h-2.5l-0.5,2h-1.6l2.4-8.6h2l2.4,8.6h-1.7L63.2,114z M62.9,112.8l-1-4.2l-1,4.2H62.9z"/>
			<path class="st2" d="M68.4,112.5h-0.9v3.5h-1.6v-8.6h2.3c2.2,0,3.2,0.9,3.2,2.5c0,1.1-0.5,1.9-1.5,2.3l2,3.8h-1.8L68.4,112.5z
				 M68.3,111.4c1,0,1.5-0.5,1.5-1.5c0-0.9-0.5-1.3-1.6-1.3h-0.6v2.8H68.3z"/>
			<path class="st2" d="M75,112.5h-0.9v3.5h-1.6v-8.6h2.3c2.2,0,3.2,0.9,3.2,2.5c0,1.1-0.5,1.9-1.5,2.3l2,3.8h-1.8L75,112.5z
				 M74.8,111.4c1,0,1.5-0.5,1.5-1.5c0-0.9-0.5-1.3-1.6-1.3h-0.6v2.8H74.8z"/>
			<path class="st2" d="M85.4,111.7c0,2.9-1.3,4.5-3.4,4.5c-2.1,0-3.4-1.5-3.4-4.5c0-2.9,1.3-4.5,3.4-4.5
				C84.1,107.2,85.4,108.7,85.4,111.7z M80.3,111.7c0,2.4,0.6,3.3,1.7,3.3c1.1,0,1.7-0.8,1.7-3.3c0-2.4-0.6-3.3-1.7-3.3
				C80.9,108.4,80.3,109.3,80.3,111.7z"/>
			<path class="st2" d="M88,114.7h3l-0.2,1.3h-4.5v-8.6H88V114.7z"/>
			<path class="st2" d="M93.3,114.7h3l-0.2,1.3h-4.5v-8.6h1.6V114.7z"/>
			<path class="st2" d="M103.3,111.7c0,2.9-1.3,4.5-3.4,4.5c-2.1,0-3.4-1.5-3.4-4.5c0-2.9,1.3-4.5,3.4-4.5
				C102,107.2,103.3,108.7,103.3,111.7z M98.2,111.7c0,2.4,0.6,3.3,1.7,3.3c1.1,0,1.7-0.8,1.7-3.3c0-2.4-0.6-3.3-1.7-3.3
				C98.8,108.4,98.2,109.3,98.2,111.7z"/>
			<path class="st2" d="M44,125.2v3.3h-1.6v-3.3l-2.5-5.4h1.7l1.6,4l1.6-4h1.7L44,125.2z"/>
			<path class="st2" d="M54.8,120.6l-0.8,0.9c-0.4-0.4-0.9-0.6-1.4-0.6c-1,0-1.8,0.8-1.8,3.2c0,2.3,0.8,3.2,1.8,3.2
				c0.7,0,1.1-0.3,1.5-0.7l0.8,0.9c-0.5,0.5-1.3,1-2.4,1c-2,0-3.4-1.5-3.4-4.5c0-3,1.5-4.5,3.4-4.5C53.4,119.7,54.1,120,54.8,120.6z
				"/>
			<path class="st2" d="M61.7,124.2c0,2.9-1.3,4.5-3.4,4.5c-2.1,0-3.4-1.5-3.4-4.5c0-2.9,1.3-4.5,3.4-4.5
				C60.4,119.7,61.7,121.2,61.7,124.2z M56.6,124.2c0,2.4,0.6,3.3,1.7,3.3c1.1,0,1.7-0.8,1.7-3.3c0-2.4-0.6-3.3-1.7-3.3
				C57.2,120.9,56.6,121.8,56.6,124.2z"/>
			<path class="st2" d="M68.5,128.5h-2.1l-2.5-7c0.1,0.8,0.2,1.9,0.2,3.4v3.6h-1.4v-8.6h2l2.5,7c-0.1-0.5-0.2-1.7-0.2-2.9v-4.1h1.4
				V128.5z"/>
			<path class="st2" d="M76.3,124.2c0,2.9-1.3,4.5-3.4,4.5c-2.1,0-3.4-1.5-3.4-4.5c0-2.9,1.3-4.5,3.4-4.5
				C75,119.7,76.3,121.2,76.3,124.2z M71.2,124.2c0,2.4,0.6,3.3,1.7,3.3c1.1,0,1.7-0.8,1.7-3.3c0-2.4-0.6-3.3-1.7-3.3
				C71.8,120.9,71.2,121.8,71.2,124.2z"/>
			<path class="st2" d="M82.7,120.6l-0.8,0.9c-0.4-0.4-0.9-0.6-1.4-0.6c-1,0-1.8,0.8-1.8,3.2c0,2.3,0.8,3.2,1.8,3.2
				c0.7,0,1.1-0.3,1.5-0.7l0.8,0.9c-0.5,0.5-1.3,1-2.4,1c-2,0-3.4-1.5-3.4-4.5c0-3,1.5-4.5,3.4-4.5C81.3,119.7,82,120,82.7,120.6z"
				/>
			<path class="st2" d="M85,128.5h-1.6v-8.6H85V128.5z"/>
			<path class="st2" d="M93.9,128.5h-1.5l-0.2-3.6c-0.1-1.3-0.1-2.6-0.1-3.5l-1.3,6.2h-1.5l-1.4-6.2c0,1.1,0,2.3,0,3.6l-0.2,3.6H86
				l0.6-8.6h2L90,126l1.2-6.1h2.1L93.9,128.5z"/>
			<path class="st2" d="M96.5,128.5h-1.6v-8.6h1.6V128.5z"/>
			<path class="st2" d="M102.3,121.1h-2.8v2.4h2.4v1.2h-2.4v2.6h3v1.2h-4.6v-8.6h4.6L102.3,121.1z"/>
			<path class="st2" d="M109.1,128.5H107l-2.5-7c0.1,0.8,0.2,1.9,0.2,3.4v3.6h-1.4v-8.6h2l2.5,7c-0.1-0.5-0.2-1.7-0.2-2.9v-4.1h1.4
				V128.5z"/>
			<path class="st2" d="M115.4,121.2h-2v7.4h-1.6v-7.4h-2.1v-1.3h5.8L115.4,121.2z"/>
			<path class="st2" d="M122.4,124.2c0,2.9-1.3,4.5-3.4,4.5c-2.1,0-3.4-1.5-3.4-4.5c0-2.9,1.3-4.5,3.4-4.5
				C121.1,119.7,122.4,121.2,122.4,124.2z M117.2,124.2c0,2.4,0.6,3.3,1.7,3.3c1.1,0,1.7-0.8,1.7-3.3c0-2.4-0.6-3.3-1.7-3.3
				C117.9,120.9,117.2,121.8,117.2,124.2z"/>
			<path class="st2" d="M46.8,136.7c0,3.5-1.9,4.4-3.8,4.4h-2.2v-8.6h2C44.9,132.4,46.8,133,46.8,136.7z M42.4,133.6v6.2h0.7
				c1.1,0,2-0.6,2-3.1c0-2.6-0.9-3.1-2-3.1H42.4z"/>
			<path class="st2" d="M52.1,133.6h-2.8v2.4h2.4v1.2h-2.4v2.6h3v1.2h-4.6v-8.6h4.6L52.1,133.6z"/>
			<path class="st2" d="M61.1,133.1l-0.8,0.9c-0.4-0.4-0.9-0.6-1.4-0.6c-1,0-1.8,0.8-1.8,3.2c0,2.3,0.8,3.2,1.8,3.2
				c0.7,0,1.1-0.3,1.5-0.7l0.8,0.9c-0.5,0.5-1.3,1-2.4,1c-2,0-3.4-1.5-3.4-4.5c0-3,1.5-4.5,3.4-4.5
				C59.8,132.2,60.5,132.5,61.1,133.1z"/>
			<path class="st2" d="M67.6,138.4c0,1.6-1,2.8-2.9,2.8c-2,0-2.9-1.2-2.9-2.8v-6h1.6v5.9c0,1.1,0.4,1.6,1.3,1.6
				c0.9,0,1.3-0.5,1.3-1.6v-5.9h1.6V138.4z"/>
			<path class="st2" d="M72.4,139h-2.5l-0.5,2h-1.6l2.4-8.6h2l2.4,8.6h-1.7L72.4,139z M72.1,137.8l-1-4.2l-1,4.2H72.1z"/>
			<path class="st2" d="M76.7,139.7h3l-0.2,1.3h-4.5v-8.6h1.6V139.7z"/>
			<path class="st2" d="M82,141h-1.6v-8.6H82V141z"/>
			<path class="st2" d="M83.3,132.4h4.5l-0.2,1.2h-2.7v2.6h2.3v1.2h-2.3v3.6h-1.6V132.4z"/>
			<path class="st2" d="M90,141h-1.6v-8.6H90V141z"/>
			<path class="st2" d="M96.7,133.1l-0.8,0.9c-0.4-0.4-0.9-0.6-1.4-0.6c-1,0-1.8,0.8-1.8,3.2c0,2.3,0.8,3.2,1.8,3.2
				c0.7,0,1.1-0.3,1.5-0.7l0.8,0.9c-0.5,0.5-1.3,1-2.4,1c-2,0-3.4-1.5-3.4-4.5c0-3,1.5-4.5,3.4-4.5
				C95.4,132.2,96.1,132.5,96.7,133.1z"/>
			<path class="st2" d="M101.5,139H99l-0.5,2h-1.6l2.4-8.6h2l2.4,8.6H102L101.5,139z M101.2,137.8l-1-4.2l-1,4.2H101.2z"/>
			<path class="st2" d="M109.3,133.1l-0.8,0.9c-0.4-0.4-0.9-0.6-1.4-0.6c-1,0-1.8,0.8-1.8,3.2c0,2.3,0.8,3.2,1.8,3.2
				c0.7,0,1.1-0.3,1.5-0.7l0.8,0.9c-0.5,0.5-1.3,1-2.4,1c-2,0-3.4-1.5-3.4-4.5c0-3,1.5-4.5,3.4-4.5
				C108,132.2,108.6,132.5,109.3,133.1z"/>
			<path class="st2" d="M111.6,141H110v-8.6h1.6V141z"/>
			<path class="st2" d="M119.4,136.7c0,2.9-1.3,4.5-3.4,4.5c-2.1,0-3.4-1.5-3.4-4.5c0-2.9,1.3-4.5,3.4-4.5
				C118.1,132.2,119.4,133.7,119.4,136.7z M114.3,136.7c0,2.4,0.6,3.3,1.7,3.3c1.1,0,1.7-0.8,1.7-3.3c0-2.4-0.6-3.3-1.7-3.3
				C114.9,133.4,114.3,134.3,114.3,136.7z"/>
			<path class="st2" d="M126.2,141h-2.1l-2.5-7c0.1,0.8,0.2,1.9,0.2,3.4v3.6h-1.4v-8.6h2l2.5,7c-0.1-0.5-0.2-1.7-0.2-2.9v-4.1h1.4
				V141z"/>
			<path class="st2" d="M132,133.6h-2.8v2.4h2.4v1.2h-2.4v2.6h3v1.2h-4.6v-8.6h4.6L132,133.6z"/>
			<path class="st2" d="M138.2,133.3l-0.8,0.9c-0.5-0.5-1.1-0.7-1.7-0.7c-0.7,0-1.2,0.4-1.2,1c0,0.6,0.3,0.9,1.6,1.4
				c1.4,0.5,2.3,1.1,2.3,2.7c0,1.5-1.1,2.6-3,2.6c-1.3,0-2.2-0.5-2.8-1.2l0.8-0.9c0.6,0.5,1.2,0.8,2,0.8c0.8,0,1.4-0.5,1.4-1.3
				c0-0.7-0.3-1.1-1.5-1.5c-1.6-0.6-2.3-1.3-2.3-2.6c0-1.4,1.1-2.4,2.7-2.4C136.7,132.2,137.5,132.6,138.2,133.3z"/>
		</g>
	</g>
</g>
<g id="Icon_2_">
	<g>
		<path class="st2" d="M74.7,34.1c-3.9,0-7.1-3.2-7.1-7.1s3.2-7.1,7.1-7.1s7.1,3.2,7.1,7.1S78.6,34.1,74.7,34.1z M74.7,21.2
			c-3.2,0-5.9,2.6-5.9,5.9s2.6,5.9,5.9,5.9s5.9-2.6,5.9-5.9S77.9,21.2,74.7,21.2z"/>
		<g>
			<path class="st2" d="M77.2,80.1H72c-2.2,0-4-1.8-4-4V52.7c0-0.3,0.3-0.6,0.6-0.6s0.6,0.3,0.6,0.6v23.4c0,1.5,1.2,2.7,2.7,2.7h5.2
				c1.5,0,2.7-1.2,2.7-2.7V52.7c0-0.3,0.3-0.6,0.6-0.6s0.6,0.3,0.6,0.6v23.4C81.2,78.3,79.4,80.1,77.2,80.1z"/>
			<path class="st2" d="M74.6,80.1c-0.3,0-0.6-0.3-0.6-0.6V57.2c0-0.3,0.3-0.6,0.6-0.6s0.6,0.3,0.6,0.6v22.3
				C75.2,79.8,74.9,80.1,74.6,80.1z"/>
		</g>
		<g>
			<path class="st2" d="M52.5,55.9c-4.2,0-8.1-2.1-10.5-5.6c-0.5-0.7-0.5-1.6-0.1-2.4c0.4-0.8,1.2-1.2,2.1-1.2l5.7,0l2-3.4l-2-3.4
				l-5.7,0c-0.9,0-1.7-0.5-2.1-1.2c-0.4-0.8-0.4-1.7,0.1-2.4c2.4-3.6,6.3-5.7,10.6-5.7c5.2,0,9.8,3.1,11.7,7.8
				c0.1,0.3,0,0.7-0.3,0.8c-0.3,0.1-0.7,0-0.8-0.3c-1.8-4.3-5.9-7.1-10.6-7.1c-3.9,0-7.4,1.9-9.6,5.1c-0.2,0.3-0.2,0.8-0.1,1.1
				c0.2,0.4,0.6,0.6,1,0.6l6.5,0l2.7,4.6L50.3,48l-6.4,0c-0.4,0-0.8,0.2-1,0.6c-0.2,0.4-0.2,0.8,0.1,1.1c2.1,3.1,5.7,5,9.5,5
				c4.6,0,8.7-2.7,10.5-6.9c0.1-0.3,0.5-0.5,0.8-0.3c0.3,0.1,0.5,0.5,0.3,0.8C62.2,52.9,57.6,55.9,52.5,55.9z"/>
			<path class="st2" d="M97.5,55.9c-5.1,0-9.7-3-11.7-7.7c-0.1-0.3,0-0.7,0.3-0.8c0.3-0.1,0.7,0,0.8,0.3c1.8,4.2,5.9,6.9,10.5,6.9
				c3.8,0,7.3-1.9,9.5-5c0.2-0.3,0.3-0.8,0.1-1.1c-0.2-0.4-0.6-0.6-1-0.6l-6.4,0L97,43.3l2.7-4.6l6.5,0c0.4,0,0.8-0.2,1-0.6
				c0.2-0.4,0.2-0.8-0.1-1.1c-2.1-3.2-5.7-5.1-9.6-5.1c-4.6,0-8.8,2.8-10.6,7.1c-0.1,0.3-0.5,0.5-0.8,0.3c-0.3-0.1-0.5-0.5-0.3-0.8
				c2-4.8,6.6-7.8,11.7-7.8c4.3,0,8.2,2.1,10.6,5.7c0.5,0.7,0.5,1.6,0.1,2.4c-0.4,0.8-1.2,1.2-2.1,1.2l-5.7,0l-2,3.4l2,3.4l5.7,0
				c0.9,0,1.7,0.5,2.1,1.2c0.4,0.8,0.4,1.7-0.1,2.4C105.6,53.8,101.7,55.9,97.5,55.9z"/>
		</g>
	</g>
	<g>
		<path class="st2" d="M67.7,41.9v-2.6h14.4v2.6H67.7z M67.7,47.3v-2.6h14.4v2.6H67.7z"/>
	</g>
</g>
</svg>
