<?xml version="1.0" encoding="utf-8"?>
<!-- Generator: Adobe Illustrator 25.0.1, SVG Export Plug-In . SVG Version: 6.00 Build 0)  -->
<svg version="1.1" id="_x30_3_Negative_EN" xmlns="http://www.w3.org/2000/svg" xmlns:xlink="http://www.w3.org/1999/xlink" x="0px"
	 y="0px" viewBox="0 0 150 150" style="enable-background:new 0 0 150 150;" xml:space="preserve">
<style type="text/css">
	.st0{fill:#003366;}
	.st1{fill:#FD9D24;}
	.st2{fill:#FFFFFF;}
</style>
<g id="Elements_2_">
	<g id="Bckgd_5_">
		<rect id="Bckgd_3_" x="-0.1" y="-0.1" class="st0" width="150" height="100"/>
	</g>
	<g id="Color_2_">
		<rect id="GCM_x5F_Color_2_" x="-0.1" y="99.9" class="st1" width="150" height="50"/>
	</g>
	<g id="Number_2_">
		<g>
			<g>
				<path class="st2" d="M27.2,122.2c0,9.7-3.5,13.6-11.2,15.8l-0.8-3.5c4.6-1.5,7-3.5,7.6-8c-0.9,1.4-2.1,2.2-3.7,2.2
					c-2.8,0-5.2-2.9-5.2-7.7c0-5.1,2.9-8.1,6.7-8.1C24.9,113,27.2,116.6,27.2,122.2z M22.9,123.1c0.1-5-0.6-6.6-2.5-6.6
					c-1.5,0-2.5,1.3-2.5,4.4c0,3.2,1,4.4,2.3,4.4C21.3,125.3,22.2,124.5,22.9,123.1z"/>
			</g>
		</g>
	</g>
	<g>
		<g>
			<path class="st2" d="M45.7,108.9h-3.1v2.7h2.7v1.3h-2.7v2.8H46v1.3h-5v-9.5h5L45.7,108.9z"/>
			<path class="st2" d="M49.6,113.2h-1v3.8h-1.8v-9.5h2.5c2.4,0,3.6,1,3.6,2.8c0,1.2-0.5,2.1-1.7,2.6l2.2,4.2h-1.9L49.6,113.2z
				 M49.5,112c1.1,0,1.6-0.5,1.6-1.6c0-1-0.5-1.5-1.7-1.5h-0.7v3.1H49.5z"/>
			<path class="st2" d="M56.9,113.2h-1v3.8h-1.8v-9.5h2.5c2.4,0,3.6,1,3.6,2.8c0,1.2-0.5,2.1-1.7,2.6l2.2,4.2h-1.9L56.9,113.2z
				 M56.7,112c1.1,0,1.6-0.5,1.6-1.6c0-1-0.5-1.5-1.7-1.5h-0.7v3.1H56.7z"/>
			<path class="st2" d="M65.9,114.9h-2.7l-0.5,2.2h-1.8l2.6-9.5h2.2l2.6,9.5h-1.8L65.9,114.9z M65.6,113.5l-1.1-4.6l-1.1,4.6H65.6z"
				/>
			<path class="st2" d="M75.4,112.3c0,3.9-2.1,4.8-4.2,4.8h-2.4v-9.5H71C73.3,107.6,75.4,108.3,75.4,112.3z M70.6,108.9v6.8h0.7
				c1.2,0,2.2-0.6,2.2-3.5c0-2.9-1-3.4-2.2-3.4H70.6z"/>
			<path class="st2" d="M78.2,117.1h-1.8v-9.5h1.8V117.1z"/>
			<path class="st2" d="M85.6,108.4l-0.9,1c-0.5-0.4-1-0.6-1.6-0.6c-1.1,0-2,0.9-2,3.6c0,2.6,0.8,3.5,2,3.5c0.7,0,1.2-0.3,1.7-0.7
				l0.8,1c-0.6,0.6-1.4,1.1-2.6,1.1c-2.2,0-3.8-1.6-3.8-5c0-3.3,1.6-4.9,3.7-4.9C84.1,107.4,84.9,107.7,85.6,108.4z"/>
			<path class="st2" d="M90.8,114.9h-2.7l-0.5,2.2h-1.8l2.6-9.5h2.2l2.6,9.5h-1.8L90.8,114.9z M90.5,113.5l-1.1-4.6l-1.1,4.6H90.5z"
				/>
			<path class="st2" d="M96.5,113.2h-1v3.8h-1.8v-9.5h2.5c2.4,0,3.6,1,3.6,2.8c0,1.2-0.5,2.1-1.7,2.6l2.2,4.2h-1.9L96.5,113.2z
				 M96.4,112c1.1,0,1.6-0.5,1.6-1.6c0-1-0.5-1.5-1.7-1.5h-0.7v3.1H96.4z"/>
			<path class="st2" d="M42.7,128.1H46l-0.2,1.5h-4.9v-9.5h1.8V128.1z"/>
			<path class="st2" d="M51.2,127.4h-2.7l-0.5,2.2h-1.8l2.6-9.5h2.2l2.6,9.5h-1.8L51.2,127.4z M50.9,126l-1.1-4.6l-1.1,4.6H50.9z"/>
			<path class="st2" d="M62.1,121.5H60v8.1h-1.8v-8.1H56v-1.4h6.4L62.1,121.5z"/>
			<path class="st2" d="M65.7,125.7h-1v3.8H63v-9.5h2.5c2.4,0,3.6,1,3.6,2.8c0,1.2-0.5,2.1-1.7,2.6l2.2,4.2h-1.9L65.7,125.7z
				 M65.6,124.5c1.1,0,1.6-0.5,1.6-1.6c0-1-0.5-1.5-1.7-1.5h-0.7v3.1H65.6z"/>
			<path class="st2" d="M74.7,127.4H72l-0.5,2.2h-1.8l2.6-9.5h2.2l2.6,9.5h-1.8L74.7,127.4z M74.4,126l-1.1-4.6l-1.1,4.6H74.4z"/>
			<path class="st2" d="M82.4,121.5h-2.2v8.1h-1.8v-8.1h-2.3v-1.4h6.4L82.4,121.5z"/>
			<path class="st2" d="M86.6,127.4h-2.7l-0.5,2.2h-1.8l2.6-9.5h2.2l2.6,9.5h-1.8L86.6,127.4z M86.3,126l-1.1-4.6l-1.1,4.6H86.3z"/>
			<path class="st2" d="M47.5,137.3c0,3.9-2.1,4.8-4.2,4.8h-2.4v-9.5h2.2C45.4,132.6,47.5,133.3,47.5,137.3z M42.7,133.9v6.8h0.7
				c1.2,0,2.2-0.6,2.2-3.5c0-2.9-1-3.4-2.2-3.4H42.7z"/>
			<path class="st2" d="M53.4,133.9h-3.1v2.7H53v1.3h-2.7v2.8h3.3v1.3h-5.1v-9.5h5L53.4,133.9z"/>
			<path class="st2" d="M63.4,135.6c0,2.2-1.4,3.1-3.5,3.1h-0.8v3.3h-1.8v-9.5h2.4C62.1,132.6,63.4,133.6,63.4,135.6z M61.6,135.6
				c0-1.2-0.6-1.7-1.8-1.7h-0.7v3.5h0.7C60.9,137.4,61.6,137,61.6,135.6z"/>
			<path class="st2" d="M69,133.9h-3.1v2.7h2.7v1.3h-2.7v2.8h3.3v1.3h-5v-9.5h5L69,133.9z"/>
			<path class="st2" d="M72.9,138.2h-1v3.8h-1.8v-9.5h2.5c2.4,0,3.6,1,3.6,2.8c0,1.2-0.5,2.1-1.7,2.6l2.2,4.2h-1.9L72.9,138.2z
				 M72.7,137c1.1,0,1.6-0.5,1.6-1.6c0-1-0.5-1.5-1.7-1.5h-0.7v3.1H72.7z"/>
			<path class="st2" d="M82.9,133.5l-0.8,1c-0.6-0.5-1.2-0.8-1.9-0.8c-0.8,0-1.3,0.4-1.3,1.1c0,0.7,0.3,1,1.7,1.5
				c1.5,0.6,2.5,1.3,2.5,3c0,1.7-1.2,2.9-3.3,2.9c-1.4,0-2.4-0.5-3.1-1.3l0.9-1c0.6,0.6,1.3,0.9,2.2,0.9c0.9,0,1.5-0.5,1.5-1.4
				c0-0.8-0.3-1.2-1.6-1.6c-1.8-0.6-2.6-1.5-2.6-2.8c0-1.5,1.3-2.6,3-2.6C81.3,132.4,82.2,132.8,82.9,133.5z"/>
			<path class="st2" d="M91.2,137.3c0,3.2-1.4,5-3.8,5c-2.3,0-3.7-1.7-3.7-4.9c0-3.2,1.4-5,3.7-5C89.8,132.4,91.2,134,91.2,137.3z
				 M85.6,137.3c0,2.7,0.7,3.6,1.9,3.6c1.2,0,1.9-0.9,1.9-3.6c0-2.6-0.7-3.6-1.9-3.6C86.2,133.7,85.6,134.7,85.6,137.3z"/>
			<path class="st2" d="M98.7,142.1h-2.3l-2.7-7.7c0.1,0.9,0.2,2,0.2,3.8v3.9h-1.6v-9.5h2.2l2.8,7.7c-0.1-0.5-0.2-1.9-0.2-3.2v-4.5
				h1.6V142.1z"/>
			<path class="st2" d="M104.3,139.9h-2.7l-0.5,2.2h-1.8l2.6-9.5h2.2l2.6,9.5h-1.8L104.3,139.9z M104,138.5l-1.1-4.6l-1.1,4.6H104z"
				/>
			<path class="st2" d="M112.9,133.5l-0.8,1c-0.6-0.5-1.2-0.8-1.9-0.8c-0.8,0-1.3,0.4-1.3,1.1c0,0.7,0.3,1,1.7,1.5
				c1.5,0.6,2.5,1.3,2.5,3c0,1.7-1.2,2.9-3.3,2.9c-1.4,0-2.4-0.5-3.1-1.3l0.9-1c0.6,0.6,1.3,0.9,2.2,0.9c0.9,0,1.5-0.5,1.5-1.4
				c0-0.8-0.3-1.2-1.6-1.6c-1.8-0.6-2.6-1.5-2.6-2.8c0-1.5,1.3-2.6,3-2.6C111.3,132.4,112.2,132.8,112.9,133.5z"/>
		</g>
	</g>
</g>
<g id="Icon_2_">
	<g>
		<path class="st2" d="M88.8,69.6H63.2c-0.3,0-0.6-0.3-0.6-0.6c-0.3-4.9-4.4-8.7-9.3-8.7c-4.9,0-9,3.8-9.3,8.7
			c0,0.3-0.3,0.6-0.6,0.6h-6.5c-0.3,0-0.6-0.3-0.6-0.6V20.5c0-0.3,0.3-0.6,0.6-0.6h51.9c0.3,0,0.6,0.3,0.6,0.6V69
			C89.5,69.4,89.2,69.6,88.8,69.6z M63.7,68.4h24.5V21.1H37.5v47.3h5.3c0.6-5.2,5.1-9.3,10.5-9.3S63.1,63.2,63.7,68.4z"/>
		<path class="st2" d="M113.1,69.6h-4.3c-0.3,0-0.6-0.3-0.6-0.6c-0.3-4.9-4.4-8.7-9.3-8.7c-4.7,0-8.7,3.5-9.2,8.2
			c0,0.3-0.3,0.6-0.7,0.6c-0.3,0-0.6-0.3-0.6-0.6V32.4c0-0.3,0.3-0.6,0.6-0.6h17.1c0.2,0,0.5,0.1,0.6,0.4l7,15.8
			c0,0.1,0.1,0.2,0.1,0.3V69C113.7,69.4,113.4,69.6,113.1,69.6z M109.4,68.4h3.1V48.3L105.7,33H89.6v31.6c1.8-3.3,5.3-5.4,9.2-5.4
			C104.3,59.1,108.7,63.2,109.4,68.4z"/>
		<path class="st2" d="M113.1,48.8H94.7c-0.3,0-0.6-0.3-0.6-0.6V32.5h1.2v15h17.8V48.8z"/>
		<rect x="36.9" y="47.5" class="st2" width="51.9" height="1.2"/>
		<path class="st2" d="M53.4,34.4c-2.7,0-4.9-2.2-4.9-4.9s2.2-4.9,4.9-4.9s4.9,2.2,4.9,4.9S56.1,34.4,53.4,34.4z M53.4,25.8
			c-2,0-3.6,1.6-3.6,3.7s1.6,3.7,3.6,3.7c2,0,3.6-1.6,3.6-3.7S55.4,25.8,53.4,25.8z"/>
		<path class="st2" d="M61.9,48.2h-1.2v-8.6c0-1-0.7-2.1-1.5-2.4c-3.7-1.2-7.6-1.2-11.2,0c-0.8,0.3-1.5,1.4-1.5,2.4v8.6H45v-8.6
			c0-1.5,1.1-3.1,2.4-3.5c3.9-1.3,8.1-1.3,12,0c1.3,0.4,2.4,2,2.4,3.5V48.2z"/>
		<rect x="48.6" y="42.7" class="st2" width="1.2" height="5.5"/>
		<rect x="57.1" y="42.7" class="st2" width="1.2" height="5.5"/>
		<path class="st2" d="M73.2,34.4c-2.7,0-4.9-2.2-4.9-4.9s2.2-4.9,4.9-4.9s4.9,2.2,4.9,4.9S75.9,34.4,73.2,34.4z M73.2,25.8
			c-2,0-3.6,1.6-3.6,3.7s1.6,3.7,3.6,3.7c2,0,3.6-1.6,3.6-3.7S75.2,25.8,73.2,25.8z"/>
		<path class="st2" d="M81.6,48.2h-1.2v-8.6c0-1-0.7-2.1-1.5-2.4c-3.7-1.2-7.6-1.2-11.2,0c-0.8,0.3-1.5,1.4-1.5,2.4v8.6h-1.2v-8.6
			c0-1.5,1.1-3.1,2.4-3.5c3.9-1.3,8.1-1.3,12,0c1.3,0.4,2.4,2,2.4,3.5V48.2z"/>
		<rect x="68.4" y="42.7" class="st2" width="1.2" height="5.5"/>
		<rect x="76.9" y="42.7" class="st2" width="1.2" height="5.5"/>
		<path class="st2" d="M98.9,80.1c-5.8,0-10.6-4.7-10.6-10.5s4.7-10.5,10.6-10.5s10.6,4.7,10.6,10.5S104.7,80.1,98.9,80.1z
			 M98.9,60.4c-5.1,0-9.3,4.1-9.3,9.2s4.2,9.2,9.3,9.2c5.1,0,9.3-4.1,9.3-9.2S104,60.4,98.9,60.4z"/>
		<path class="st2" d="M53.3,80.1c-5.8,0-10.6-4.7-10.6-10.5s4.7-10.5,10.6-10.5s10.6,4.7,10.6,10.5S59.1,80.1,53.3,80.1z
			 M53.3,60.4c-5.1,0-9.3,4.1-9.3,9.2s4.2,9.2,9.3,9.2c5.1,0,9.3-4.1,9.3-9.2S58.4,60.4,53.3,60.4z"/>
	</g>
</g>
</svg>
