<?xml version="1.0" encoding="utf-8"?>
<!-- Generator: Adobe Illustrator 25.0.1, SVG Export Plug-In . SVG Version: 6.00 Build 0)  -->
<svg version="1.1" id="_x30_3_Negative_EN" xmlns="http://www.w3.org/2000/svg" xmlns:xlink="http://www.w3.org/1999/xlink" x="0px"
	 y="0px" viewBox="0 0 150 150" style="enable-background:new 0 0 150 150;" xml:space="preserve">
<style type="text/css">
	.st0{fill:#003366;}
	.st1{fill:#36BEA5;}
	.st2{fill:#FFFFFF;}
</style>
<g id="Elements_2_">
	<g id="Bckgd_5_">
		<rect id="Bckgd_3_" x="-0.1" y="-0.1" class="st0" width="150" height="100"/>
	</g>
	<g id="Color_2_">
		<rect id="GCM_x5F_Color_2_" x="-0.1" y="99.9" class="st1" width="150" height="50"/>
	</g>
	<g>
		<g>
			<path class="st2" d="M44.7,116.1h-3v2.7h2.7v1.3h-2.7v2.8h3.2v1.3h-5v-9.5h5L44.7,116.1z"/>
			<path class="st2" d="M47.8,122.9h3.3l-0.2,1.5h-4.9v-9.5h1.8V122.9z"/>
			<path class="st2" d="M53.8,124.3H52v-9.5h1.8V124.3z"/>
			<path class="st2" d="M63.6,124.3H62l-0.2-4c-0.1-1.4-0.1-2.9-0.1-3.9l-1.5,6.8h-1.6l-1.5-6.8c0,1.3,0,2.6,0,3.9l-0.2,3.9h-1.7
				l0.6-9.5H58l1.4,6.7l1.3-6.7H63L63.6,124.3z"/>
			<path class="st2" d="M66.8,124.3H65v-9.5h1.8V124.3z"/>
			<path class="st2" d="M74.7,124.3h-2.2l-2.7-7.7c0.1,0.9,0.2,2,0.2,3.8v3.9h-1.6v-9.5h2.2l2.7,7.7c-0.1-0.5-0.2-1.9-0.2-3.2v-4.5
				h1.6V124.3z"/>
			<path class="st2" d="M80.5,122.1h-2.7l-0.5,2.2h-1.8l2.6-9.5h2.1l2.6,9.5H81L80.5,122.1z M80.2,120.8l-1.1-4.6l-1.1,4.6H80.2z"/>
			<path class="st2" d="M86.3,120.5h-1v3.8h-1.8v-9.5h2.5c2.4,0,3.5,1,3.5,2.8c0,1.2-0.5,2.1-1.7,2.6l2.2,4.2h-1.9L86.3,120.5z
				 M86.2,119.2c1.1,0,1.6-0.5,1.6-1.6c0-1-0.5-1.5-1.7-1.5h-0.7v3.1H86.2z"/>
			<path class="st2" d="M95.6,122.9h3.3l-0.2,1.5h-4.9v-9.5h1.8V122.9z"/>
			<path class="st2" d="M104.2,122.1h-2.7l-0.5,2.2h-1.8l2.6-9.5h2.1l2.6,9.5h-1.8L104.2,122.1z M103.9,120.8l-1.1-4.6l-1.1,4.6
				H103.9z"/>
			<path class="st2" d="M112.9,115.8l-0.8,1c-0.6-0.5-1.2-0.8-1.8-0.8c-0.8,0-1.3,0.4-1.3,1.1c0,0.7,0.3,1,1.7,1.5
				c1.5,0.6,2.5,1.3,2.5,3c0,1.7-1.2,2.9-3.2,2.9c-1.4,0-2.4-0.5-3.1-1.3l0.9-1c0.6,0.6,1.3,0.9,2.1,0.9c0.9,0,1.5-0.5,1.5-1.4
				c0-0.8-0.3-1.2-1.6-1.6c-1.8-0.6-2.5-1.5-2.5-2.8c0-1.5,1.2-2.6,2.9-2.6C111.3,114.6,112.2,115,112.9,115.8z"/>
			<path class="st2" d="M46.4,132c0,3.9-2,4.8-4.1,4.8h-2.4v-9.5h2.2C44.3,127.3,46.4,128,46.4,132z M41.7,128.7v6.8h0.7
				c1.2,0,2.2-0.6,2.2-3.5c0-2.9-1-3.4-2.2-3.4H41.7z"/>
			<path class="st2" d="M49.4,136.8h-1.8v-9.5h1.8V136.8z"/>
			<path class="st2" d="M56.4,128.3l-0.8,1c-0.6-0.5-1.2-0.8-1.8-0.8c-0.8,0-1.3,0.4-1.3,1.1c0,0.7,0.3,1,1.7,1.5
				c1.5,0.6,2.5,1.3,2.5,3c0,1.7-1.2,2.9-3.2,2.9c-1.4,0-2.4-0.5-3.1-1.3l0.9-1c0.6,0.6,1.3,0.9,2.1,0.9c0.9,0,1.5-0.5,1.5-1.4
				c0-0.8-0.3-1.2-1.6-1.6c-1.8-0.6-2.5-1.5-2.5-2.8c0-1.5,1.2-2.6,2.9-2.6C54.8,127.1,55.7,127.5,56.4,128.3z"/>
			<path class="st2" d="M63.6,128.1l-0.9,1c-0.5-0.4-1-0.6-1.5-0.6c-1.1,0-2,0.9-2,3.6c0,2.6,0.8,3.5,2,3.5c0.7,0,1.2-0.3,1.7-0.7
				l0.8,1c-0.6,0.6-1.4,1.1-2.6,1.1c-2.2,0-3.7-1.7-3.7-5c0-3.3,1.6-4.9,3.7-4.9C62.2,127.1,62.9,127.5,63.6,128.1z"/>
			<path class="st2" d="M67.3,133h-1v3.8h-1.8v-9.5h2.5c2.4,0,3.5,1,3.5,2.8c0,1.2-0.5,2.1-1.7,2.6l2.2,4.2h-1.9L67.3,133z
				 M67.2,131.7c1.1,0,1.6-0.5,1.6-1.6c0-1-0.5-1.5-1.7-1.5h-0.7v3.1H67.2z"/>
			<path class="st2" d="M73.7,136.8H72v-9.5h1.8V136.8z"/>
			<path class="st2" d="M83.6,136.8h-1.7l-0.2-4c-0.1-1.4-0.1-2.9-0.1-3.9l-1.5,6.8h-1.6l-1.5-6.8c0,1.3,0,2.6,0,3.9l-0.2,3.9h-1.7
				l0.6-9.5h2.2l1.4,6.7l1.3-6.7h2.2L83.6,136.8z"/>
			<path class="st2" d="M86.7,136.8h-1.8v-9.5h1.8V136.8z"/>
			<path class="st2" d="M94.6,136.8h-2.2l-2.7-7.7c0.1,0.9,0.2,2,0.2,3.8v3.9h-1.6v-9.5h2.2l2.7,7.7c-0.1-0.5-0.2-1.9-0.2-3.2v-4.5
				h1.6V136.8z"/>
			<path class="st2" d="M100.4,134.6h-2.7l-0.5,2.2h-1.8l2.6-9.5h2.1l2.6,9.5h-1.8L100.4,134.6z M100.1,133.3l-1.1-4.6l-1.1,4.6
				H100.1z"/>
			<path class="st2" d="M109.1,128.1l-0.9,1c-0.5-0.4-1-0.6-1.5-0.6c-1.1,0-2,0.9-2,3.6c0,2.6,0.8,3.5,2,3.5c0.7,0,1.2-0.3,1.7-0.7
				l0.8,1c-0.6,0.6-1.4,1.1-2.6,1.1c-2.2,0-3.7-1.7-3.7-5c0-3.3,1.6-4.9,3.7-4.9C107.7,127.1,108.4,127.5,109.1,128.1z"/>
			<path class="st2" d="M111.9,136.8h-1.8v-9.5h1.8V136.8z"/>
			<path class="st2" d="M120.6,132.1c0,3.2-1.4,5-3.7,5c-2.3,0-3.7-1.7-3.7-4.9c0-3.2,1.4-5,3.7-5
				C119.1,127.1,120.6,128.8,120.6,132.1z M115,132.1c0,2.7,0.7,3.6,1.9,3.6c1.2,0,1.9-0.9,1.9-3.6c0-2.6-0.7-3.6-1.9-3.6
				C115.6,128.5,115,129.4,115,132.1z"/>
			<path class="st2" d="M128.1,136.8h-2.2l-2.7-7.7c0.1,0.9,0.2,2,0.2,3.8v3.9h-1.6v-9.5h2.2l2.7,7.7c-0.1-0.5-0.2-1.9-0.2-3.2v-4.5
				h1.6V136.8z"/>
			<path class="st2" d="M134.6,128.6h-3v2.7h2.7v1.3h-2.7v2.8h3.2v1.3h-5v-9.5h5L134.6,128.6z"/>
			<path class="st2" d="M141.6,128.3l-0.8,1c-0.6-0.5-1.2-0.8-1.8-0.8c-0.8,0-1.3,0.4-1.3,1.1c0,0.7,0.3,1,1.7,1.5
				c1.5,0.6,2.5,1.3,2.5,3c0,1.7-1.2,2.9-3.2,2.9c-1.4,0-2.4-0.5-3.1-1.3l0.9-1c0.6,0.6,1.3,0.9,2.1,0.9c0.9,0,1.5-0.5,1.5-1.4
				c0-0.8-0.3-1.2-1.6-1.6c-1.8-0.6-2.5-1.5-2.5-2.8c0-1.5,1.2-2.6,2.9-2.6C140,127.1,140.8,127.5,141.6,128.3z"/>
		</g>
	</g>
	<g id="Number_2_">
		<g>
			<g>
				<path class="st2" d="M18.8,137.1h-4v-18.8l-3.9,3.1l-1.8-3.2l6.1-4.7h3.7V137.1z"/>
				<path class="st2" d="M31.9,116.8l-6.7,20.8l-3.7-1.5l6.2-18.9h-7.4v-3.7h11.7V116.8z"/>
			</g>
		</g>
	</g>
</g>
<g id="Icon_2_">
	<g>
		<path class="st2" d="M65,55.7l-3.8-3.8c-1.8-1.8-3.2-4-4-6.3c0-0.1-0.8-4.1-3.2-6.5l-6.6-6.5l0.9-0.9l6.6,6.5
			c2.7,2.7,3.5,6.9,3.5,7.1c0.7,2.1,2,4.1,3.7,5.7l3.8,3.8L65,55.7z"/>
		
			<rect x="63.1" y="19.6" transform="matrix(0.7063 -0.7079 0.7079 0.7063 -0.6066 53.1019)" class="st2" width="1.2" height="15.5"/>
		<g>
			<path class="st2" d="M46.6,70.8l-0.9-0.9l5.7-5.6c1.1-1.1,1.7-2.6,1.9-4.2c0.2-2.8,1.1-5.5,2.5-8l2.8-4.6l1.1,0.6l-2.8,4.6
				c-1.4,2.3-2.2,4.9-2.4,7.5c-0.1,1.9-0.9,3.7-2.2,5L46.6,70.8z"/>
			<path class="st2" d="M55.9,80.1L55,79.2l3.7-3.7c2.7-2.7,6.9-3.5,7.1-3.5c2.1-0.7,4.1-2,5.8-3.7L76,64l0.9,0.9l-4.4,4.4
				c-1.8,1.8-4,3.2-6.3,4c-0.1,0-4.1,0.8-6.5,3.2L55.9,80.1z"/>
		</g>
		<path class="st2" d="M93.1,50.2l-0.6-0.7c-0.2-0.2-0.4-0.5-0.7-0.7l0.9-0.9c0,0,0.1,0.1,0.1,0.1l0.2-0.4c1.3-2.3,2.1-4.9,2.2-7.5
			c0.1-1.9,0.9-3.8,2.3-5.2l5.8-6.4l0.9,0.8l-5.8,6.4c-1.2,1.3-1.9,2.8-1.9,4.5c-0.1,2.7-0.9,5.5-2.3,8L93.1,50.2z"/>
		<path class="st2" d="M77.2,33.3l-0.9-0.9l0.8-0.8c1.8-1.9,3.9-3.3,6.2-4.1c0.1,0,4.1-0.9,6.5-3.4l4.2-4.2l0.9,0.9L90.6,25
			c-2.6,2.7-6.8,3.6-7,3.7c-2,0.8-4,2.1-5.7,3.8L77.2,33.3z"/>
		<g>
			<path class="st2" d="M94.3,75.5l-8.3-8.3c-3.5,0.3-7.1-0.6-10.3-2.5L66.1,59c-1.5-0.9-1.8-2.6-1.3-3.8c0.4-1.2,1.7-2.3,3.4-2
				c0.7,0.1,1.4,0.4,1.9,0.7l1,0.6l-9.2-9.2c-0.6-0.6-0.9-1.3-0.9-2.1c0-0.8,0.3-1.5,0.9-2.1c0.5-0.5,1-0.7,1.6-0.8l-0.9-0.9
				c-0.6-0.6-0.9-1.3-0.9-2.1c0-0.8,0.3-1.5,0.9-2.1c1-1,2.4-1.1,3.6-0.5c0.1-0.6,0.4-1.3,0.8-1.7c1.1-1.1,2.8-1.2,4-0.2
				c0.1-0.6,0.4-1.2,0.8-1.6c1.2-1.2,3-1.2,4.2,0l16.7,16.6c1.8,1.8,3.2,4,4,6.3c0,0.1,0.8,4.1,3.2,6.5l3.7,3.7l-0.9,0.9L99,61.7
				c-2.7-2.7-3.5-6.9-3.5-7.1c-0.7-2.1-2-4.1-3.7-5.7L75.2,32.2c-0.7-0.7-1.7-0.7-2.4,0c-0.3,0.3-0.5,0.8-0.5,1.2
				c0,0.5,0.2,0.9,0.5,1.2l10.4,10.3l-0.9,0.9L70.4,34c-0.7-0.7-1.7-0.7-2.4,0c-0.3,0.3-0.5,0.8-0.5,1.2c0,0.5,0.2,0.9,0.5,1.2
				l10.1,10l-0.9,0.9L66,36.2c-0.7-0.7-1.7-0.7-2.4,0C63.2,36.5,63,37,63,37.4c0,0.5,0.2,0.9,0.5,1.2l11.2,11.1l-0.9,0.9l-8.6-8.6
				c-0.7-0.7-1.7-0.7-2.4,0c-0.3,0.3-0.5,0.8-0.5,1.2c0,0.5,0.2,0.9,0.5,1.2L75,56.7L74.5,58l-5-3c-0.4-0.3-0.9-0.4-1.5-0.5
				c-1.1-0.2-1.8,0.5-2.1,1.2c-0.3,0.7-0.2,1.7,0.8,2.3l9.5,5.6c3.1,1.8,6.6,2.6,9.9,2.3l0.3,0l8.7,8.7L94.3,75.5z"/>
		</g>
	</g>
</g>
</svg>
