<?xml version="1.0" encoding="utf-8"?>
<!-- Generator: Adobe Illustrator 25.0.1, SVG Export Plug-In . SVG Version: 6.00 Build 0)  -->
<svg version="1.1" xmlns="http://www.w3.org/2000/svg" xmlns:xlink="http://www.w3.org/1999/xlink" x="0px" y="0px"
	 viewBox="0 0 150 150" style="enable-background:new 0 0 150 150;" xml:space="preserve">
<style type="text/css">
	.st0{fill:#ED313A;}
	.st1{fill:#FFFFFF;}
	.st2{fill:#1C3664;}
</style>
<g id="_x30_2_Positive_EN">
	<g id="Color_2_">
		<rect id="GCM_x5F_Color_2_" x="-0.1" y="99.9" class="st0" width="150" height="50"/>
	</g>
	<g id="Title_8_">
		<g>
			<g>
				<path class="st1" d="M44.4,116.4h-2l-2.4-9h1.7l1.7,7.5l1.6-7.5h1.7L44.4,116.4z"/>
				<path class="st1" d="M49.6,105.6l-2.7,1.1l-0.4-0.8l2.5-1.5L49.6,105.6z M48.9,116.4h-1.7v-9h1.7V116.4z"/>
				<path class="st1" d="M54.3,114.3h-2.6l-0.5,2.1h-1.7l2.5-9h2l2.5,9h-1.7L54.3,114.3z M54,113.1l-1-4.3l-1,4.3H54z"/>
				<path class="st1" d="M62.4,108.4l-0.8,0.9c-0.6-0.5-1.1-0.7-1.7-0.7c-0.7,0-1.2,0.4-1.2,1.1c0,0.7,0.3,1,1.6,1.4
					c1.4,0.5,2.4,1.2,2.4,2.8c0,1.6-1.2,2.8-3.1,2.8c-1.3,0-2.3-0.5-2.9-1.2l0.8-0.9c0.6,0.5,1.2,0.9,2,0.9c0.9,0,1.4-0.5,1.4-1.4
					c0-0.7-0.3-1.1-1.5-1.5c-1.7-0.6-2.4-1.4-2.4-2.7c0-1.5,1.2-2.5,2.8-2.5C60.9,107.3,61.7,107.6,62.4,108.4z"/>
				<path class="st1" d="M72.3,111.9c0,3.7-2,4.5-3.9,4.5h-2.3v-9h2.1C70.3,107.5,72.3,108.1,72.3,111.9z M67.7,108.7v6.5h0.7
					c1.2,0,2.1-0.6,2.1-3.3c0-2.7-1-3.2-2.1-3.2H67.7z"/>
				<path class="st1" d="M77.8,108.7h-2.9v2.5h2.5v1.2h-2.5v2.7H78v1.3h-4.8v-9H78L77.8,108.7z"/>
				<path class="st1" d="M48.6,128.9h-1.6l-0.2-3.8c-0.1-1.3-0.1-2.7-0.1-3.7l-1.4,6.5h-1.6l-1.5-6.5c0,1.2,0,2.4,0,3.7l-0.2,3.7
					h-1.6l0.6-9h2.1l1.4,6.3l1.3-6.3H48L48.6,128.9z"/>
				<path class="st1" d="M51.4,128.9h-1.7v-9h1.7V128.9z"/>
				<path class="st1" d="M58.8,120.8l-0.9,0.9c-0.6-0.5-1-0.7-1.7-0.7c-1.1,0-2,0.8-2,3.4c0,2.6,0.6,3.4,1.8,3.4
					c0.5,0,0.9-0.1,1.2-0.3v-2.4h-1.2l-0.2-1.2h2.9v4.4c-0.8,0.5-1.8,0.9-2.8,0.9c-2.3,0-3.6-1.5-3.6-4.7c0-3.1,1.7-4.7,3.7-4.7
					C57.3,119.8,58.1,120.2,58.8,120.8z"/>
				<path class="st1" d="M62.6,125.3h-0.9v3.6H60v-9h2.3c2.3,0,3.4,0.9,3.4,2.6c0,1.1-0.5,2-1.6,2.4l2.1,3.9h-1.8L62.6,125.3z
					 M62.5,124.1c1.1,0,1.5-0.5,1.5-1.5c0-1-0.5-1.4-1.6-1.4h-0.7v2.9H62.5z"/>
				<path class="st1" d="M71.2,126.8h-2.6l-0.5,2.1h-1.7l2.5-9h2l2.5,9h-1.7L71.2,126.8z M70.9,125.6l-1-4.3l-1,4.3H70.9z"/>
				<path class="st1" d="M79.3,120.7l-0.8,1c-0.5-0.4-0.9-0.6-1.5-0.6c-1.1,0-1.9,0.8-1.9,3.4c0,2.4,0.8,3.4,1.9,3.4
					c0.7,0,1.1-0.3,1.6-0.7l0.8,1c-0.5,0.6-1.4,1.1-2.5,1.1c-2.1,0-3.6-1.6-3.6-4.7c0-3.1,1.5-4.7,3.5-4.7
					C77.9,119.8,78.6,120.1,79.3,120.7z"/>
				<path class="st1" d="M81.7,128.9H80v-9h1.7V128.9z"/>
				<path class="st1" d="M89.8,124.4c0,3.1-1.4,4.7-3.6,4.7c-2.2,0-3.5-1.6-3.5-4.7c0-3.1,1.4-4.7,3.5-4.7
					C88.5,119.8,89.8,121.3,89.8,124.4z M84.5,124.5c0,2.5,0.7,3.4,1.8,3.4c1.2,0,1.8-0.9,1.8-3.4c0-2.5-0.6-3.4-1.8-3.4
					C85.1,121,84.5,122,84.5,124.5z M87.8,118.1l-2.7,1.1l-0.4-0.8l2.5-1.5L87.8,118.1z"/>
				<path class="st1" d="M96.9,128.9h-2.1l-2.6-7.3c0.1,0.8,0.2,1.9,0.2,3.6v3.7h-1.5v-9H93l2.6,7.3c-0.1-0.5-0.2-1.8-0.2-3.1V120
					h1.5V128.9z"/>
				<path class="st1" d="M43.4,137.8h-0.9v3.6h-1.7v-9h2.3c2.3,0,3.4,0.9,3.4,2.6c0,1.1-0.5,2-1.6,2.4l2.1,3.9h-1.8L43.4,137.8z
					 M43.3,136.6c1.1,0,1.5-0.5,1.5-1.5c0-1-0.5-1.4-1.6-1.4h-0.7v2.9H43.3z"/>
				<path class="st1" d="M52.3,133.7h-2.9v2.5h2.5v1.2h-2.5v2.7h3.1v1.3h-4.8v-9h4.7L52.3,133.7z"/>
				<path class="st1" d="M59.2,133.3l-0.9,0.9c-0.6-0.5-1-0.7-1.7-0.7c-1.1,0-2,0.8-2,3.4c0,2.6,0.6,3.4,1.8,3.4
					c0.5,0,0.9-0.1,1.2-0.3v-2.4h-1.2l-0.2-1.2h2.9v4.4c-0.8,0.5-1.8,0.9-2.8,0.9c-2.3,0-3.6-1.5-3.6-4.7c0-3.1,1.7-4.7,3.7-4.7
					C57.7,132.3,58.5,132.7,59.2,133.3z"/>
				<path class="st1" d="M66.4,138.7c0,1.6-1,2.9-3,2.9c-2,0-3-1.2-3-2.9v-6.3H62v6.2c0,1.1,0.4,1.7,1.4,1.7c0.9,0,1.4-0.6,1.4-1.7
					v-6.2h1.7V138.7z"/>
				<path class="st1" d="M69.4,140.1h3.2l-0.2,1.4h-4.7v-9h1.7V140.1z"/>
				<path class="st1" d="M77.4,139.3h-2.6l-0.5,2.1h-1.7l2.5-9h2l2.5,9h-1.7L77.4,139.3z M77.1,138.1l-1-4.3l-1,4.3H77.1z"/>
				<path class="st1" d="M82.8,137.8h-0.9v3.6h-1.7v-9h2.3c2.3,0,3.4,0.9,3.4,2.6c0,1.1-0.5,2-1.6,2.4l2.1,3.9h-1.8L82.8,137.8z
					 M82.6,136.6c1.1,0,1.5-0.5,1.5-1.5c0-1-0.5-1.4-1.6-1.4h-0.7v2.9H82.6z"/>
			</g>
		</g>
	</g>
</g>
<g id="_x30_3_Negative_EN">
	<g id="Elements_2_">
		<g id="Bckgd_5_">
			<rect id="Bckgd_3_" x="-0.1" y="-0.1" class="st2" width="150" height="100"/>
		</g>
		<g id="Number_2_">
			<g>
				<g>
					<path class="st1" d="M25.5,117h-6.6v5.6c0.9-0.6,1.8-0.8,2.7-0.8c3,0,5.2,2.7,5.2,7.6c0,4.9-2.8,8.3-7.1,8.3
						c-2.7,0-4.6-1.4-6-3.4l2.3-2.5c1,1.4,2.1,2.2,3.5,2.2c1.9,0,3-1.5,3-4.6c0-3.2-1.1-4.2-2.6-4.2c-0.8,0-1.4,0.2-2.2,0.8H15
						v-12.5h11L25.5,117z"/>
				</g>
			</g>
		</g>
	</g>
	<g id="Icon_2_">
		<g>
			<g>
				<polygon class="st1" points="121.9,56.2 111.1,56.2 111.1,45.4 118.4,45.4 118.4,46.6 112.3,46.6 112.3,55 120.7,55 120.7,51.7 
					121.9,51.7 				"/>
				<polygon class="st1" points="116.6,53.4 113.5,49.9 114.4,49 116.6,51.4 120.4,46.9 121.3,47.7 				"/>
			</g>
			<g>
				<polygon class="st1" points="38.9,56.2 28.1,56.2 28.1,45.4 35.5,45.4 35.5,46.6 29.3,46.6 29.3,55 37.7,55 37.7,51.7 
					38.9,51.7 				"/>
				<polygon class="st1" points="33.7,53.4 30.5,49.9 31.4,49 33.6,51.4 37.4,46.9 38.3,47.7 				"/>
			</g>
			<g>
				<polygon class="st1" points="80.7,29.9 69.8,29.9 69.8,19 77.2,19 77.2,20.2 71.1,20.2 71.1,28.6 79.4,28.6 79.4,25.3 
					80.7,25.3 				"/>
				<polygon class="st1" points="75.4,27 72.2,23.5 73.2,22.6 75.3,25.1 79.1,20.5 80.1,21.3 				"/>
			</g>
			<g>
				<path class="st1" d="M75.2,81c-3.6,0-6.5-2.9-6.5-6.5s2.9-6.5,6.5-6.5c3.6,0,6.5,2.9,6.5,6.5S78.8,81,75.2,81z M75.2,69.3
					c-2.9,0-5.2,2.3-5.2,5.2s2.3,5.2,5.2,5.2c2.9,0,5.2-2.3,5.2-5.2S78.1,69.3,75.2,69.3z"/>
				<path class="st1" d="M84.9,69.4h-1.2c0-1.4,0.2-2.8,0.6-4.1c1.6-5.3,6.1-9.4,11.5-10.4c0.2,0,0.4,0,0.5,0.1
					c0.1,0.1,0.2,0.3,0.2,0.5v3.7l11.2-7.8l-11.2-7.8v4.1c0,0.3-0.2,0.6-0.6,0.6c-5.6,0.7-10.7,3.5-14.2,7.9c-0.5,0.6-1.3,0.8-2,0.6
					c-0.7-0.3-1.2-0.9-1.2-1.7V44.9c0-0.3,0.3-0.6,0.6-0.6h4l-7.8-11.2l-7.8,11.2h4c0.3,0,0.6,0.3,0.6,0.6v10.2
					c0,0.8-0.5,1.5-1.2,1.7c-0.7,0.3-1.5,0-2-0.6c-3.5-4.5-8.6-7.3-14.2-7.9c-0.3,0-0.6-0.3-0.6-0.6v-4.1l-11.2,7.8L54,59.1v-3.7
					c0-0.2,0.1-0.4,0.2-0.5c0.1-0.1,0.3-0.2,0.5-0.1c5.4,1,9.9,5,11.5,10.3c0.4,1.4,0.6,2.8,0.6,4.2h-1.2c0-1.3-0.2-2.6-0.6-3.9
					c-1.4-4.6-5.2-8.1-9.8-9.3v4.1c0,0.2-0.1,0.4-0.3,0.6c-0.2,0.1-0.5,0.1-0.6,0l-12.9-9c-0.2-0.1-0.3-0.3-0.3-0.5s0.1-0.4,0.3-0.5
					l12.9-9c0.2-0.1,0.4-0.1,0.6,0c0.2,0.1,0.3,0.3,0.3,0.6v4.8c5.7,0.8,10.9,3.8,14.5,8.3c0.2,0.3,0.5,0.2,0.6,0.2
					c0.1,0,0.4-0.2,0.4-0.5v-9.5h-4.5c-0.2,0-0.4-0.1-0.6-0.3c-0.1-0.2-0.1-0.5,0-0.6l9-12.9c0.2-0.3,0.8-0.3,1,0l9,12.9
					c0.1,0.2,0.2,0.4,0,0.6c-0.1,0.2-0.3,0.3-0.6,0.3h-4.5v9.5c0,0.4,0.3,0.5,0.4,0.5c0.1,0,0.4,0.1,0.6-0.2
					c3.6-4.6,8.8-7.5,14.5-8.3v-4.8c0-0.2,0.1-0.4,0.3-0.6c0.2-0.1,0.5-0.1,0.6,0l12.9,9c0.2,0.1,0.3,0.3,0.3,0.5s-0.1,0.4-0.3,0.5
					l-12.9,9c-0.2,0.1-0.4,0.1-0.6,0c-0.2-0.1-0.3-0.3-0.3-0.6v-4.1c-4.7,1.1-8.5,4.7-9.8,9.4C85.1,66.8,84.9,68.1,84.9,69.4z"/>
			</g>
		</g>
	</g>
</g>
</svg>
