<?xml version="1.0" encoding="utf-8"?>
<!-- Generator: Adobe Illustrator 25.0.1, SVG Export Plug-In . SVG Version: 6.00 Build 0)  -->
<svg version="1.1" id="_x30_3_Negative_EN" xmlns="http://www.w3.org/2000/svg" xmlns:xlink="http://www.w3.org/1999/xlink" x="0px"
	 y="0px" viewBox="0 0 150 150" style="enable-background:new 0 0 150 150;" xml:space="preserve">
<style type="text/css">
	.st0{fill:#003366;}
	.st1{fill:#19A8D5;}
	.st2{fill:#FFFFFF;}
	.st3{fill:none;stroke:#FFFFFF;stroke-width:1.25;stroke-linecap:round;stroke-miterlimit:10;}
</style>
<g id="Elements_2_">
	<g id="Bckgd_5_">
		<rect id="Bckgd_3_" x="-0.1" y="-0.1" class="st0" width="150" height="100"/>
	</g>
	<g id="Color_2_">
		<rect id="GCM_x5F_Color_2_" x="-0.1" y="99.9" class="st1" width="150" height="50"/>
	</g>
	<g id="Number_2_">
		<g>
			<g>
				<path class="st2" d="M17.5,137.1h-4v-18.8l-3.9,3.1l-1.8-3.2l6.1-4.7h3.7V137.1z"/>
				<path class="st2" d="M32.7,122.2c0,9.7-3.5,13.6-11.2,15.8l-0.8-3.5c4.6-1.5,7-3.5,7.6-8c-0.9,1.4-2.1,2.2-3.7,2.2
					c-2.8,0-5.2-2.9-5.2-7.7c0-5.1,2.9-8.1,6.7-8.1C30.4,113,32.7,116.6,32.7,122.2z M28.5,123.1c0.1-5-0.6-6.6-2.5-6.6
					c-1.5,0-2.5,1.3-2.5,4.4c0,3.2,1,4.4,2.3,4.4C26.8,125.3,27.8,124.5,28.5,123.1z"/>
			</g>
		</g>
	</g>
	<g>
		<g>
			<path class="st2" d="M46.7,108.6l-0.9,1c-0.5-0.4-1-0.6-1.5-0.6c-1.1,0-2,0.9-2,3.6c0,2.6,0.8,3.5,2,3.5c0.7,0,1.2-0.3,1.7-0.7
				l0.8,1c-0.6,0.6-1.4,1.1-2.6,1.1c-2.2,0-3.7-1.6-3.7-5c0-3.3,1.6-4.9,3.7-4.9C45.3,107.6,46,108,46.7,108.6z"/>
			<path class="st2" d="M54.3,112.5c0,3.2-1.4,5-3.7,5c-2.3,0-3.7-1.7-3.7-4.9c0-3.2,1.4-5,3.7-5C52.9,107.6,54.3,109.2,54.3,112.5z
				 M48.7,112.6c0,2.7,0.7,3.6,1.9,3.6c1.2,0,1.9-0.9,1.9-3.6c0-2.6-0.7-3.6-1.9-3.6C49.4,108.9,48.7,109.9,48.7,112.6z"/>
			<path class="st2" d="M61.7,117.3h-2.2l-2.7-7.7c0.1,0.9,0.2,2,0.2,3.8v3.9h-1.6v-9.5h2.2l2.7,7.7c-0.1-0.5-0.2-1.9-0.2-3.2v-4.5
				h1.6V117.3z"/>
			<path class="st2" d="M68.5,109.2h-2.1v8.1h-1.7v-8.1h-2.2v-1.4h6.3L68.5,109.2z"/>
			<path class="st2" d="M72,113.5h-1v3.8h-1.8v-9.5h2.5c2.4,0,3.5,1,3.5,2.8c0,1.2-0.5,2.1-1.7,2.6l2.2,4.2h-1.9L72,113.5z
				 M71.9,112.2c1.1,0,1.6-0.5,1.6-1.6c0-1-0.5-1.5-1.7-1.5h-0.7v3.1H71.9z"/>
			<path class="st2" d="M78.2,117.3h-1.8v-9.5h1.8V117.3z"/>
			<path class="st2" d="M85.8,114.6c0,2-1.5,2.7-3.6,2.7h-2.5v-9.5h2.2c2.2,0,3.6,0.8,3.6,2.4c0,1.2-0.8,1.8-1.7,2
				C84.8,112.5,85.8,113,85.8,114.6z M81.4,109.1v2.6h0.8c1,0,1.5-0.5,1.5-1.3c0-0.9-0.5-1.3-1.6-1.3H81.4z M84,114.5
				c0-1.1-0.6-1.5-1.7-1.5h-0.9v3h0.8C83.3,116,84,115.6,84,114.5z"/>
			<path class="st2" d="M93,114.4c0,1.7-1.1,3.1-3.2,3.1c-2.1,0-3.2-1.3-3.2-3.1v-6.6h1.8v6.5c0,1.2,0.4,1.8,1.4,1.8
				c1,0,1.4-0.6,1.4-1.8v-6.5H93V114.4z"/>
			<path class="st2" d="M100.2,108.6l-0.9,1c-0.5-0.4-1-0.6-1.5-0.6c-1.1,0-2,0.9-2,3.6c0,2.6,0.8,3.5,2,3.5c0.7,0,1.2-0.3,1.7-0.7
				l0.8,1c-0.6,0.6-1.4,1.1-2.6,1.1c-2.2,0-3.7-1.6-3.7-5c0-3.3,1.6-4.9,3.7-4.9C98.8,107.6,99.5,108,100.2,108.6z"/>
			<path class="st2" d="M102.7,117.3H101v-9.5h1.8V117.3z"/>
			<path class="st2" d="M111.2,112.5c0,3.2-1.4,5-3.7,5c-2.3,0-3.7-1.7-3.7-4.9c0-3.2,1.4-5,3.7-5
				C109.8,107.6,111.2,109.2,111.2,112.5z M105.6,112.6c0,2.7,0.7,3.6,1.9,3.6c1.2,0,1.9-0.9,1.9-3.6c0-2.6-0.7-3.6-1.9-3.6
				C106.3,108.9,105.6,109.9,105.6,112.6z M109.1,105.8l-2.8,1.1l-0.4-0.9l2.6-1.6L109.1,105.8z"/>
			<path class="st2" d="M118.6,117.3h-2.2l-2.7-7.7c0.1,0.9,0.2,2,0.2,3.8v3.9h-1.6v-9.5h2.2l2.7,7.7c-0.1-0.5-0.2-1.9-0.2-3.2v-4.5
				h1.6V117.3z"/>
			<path class="st2" d="M47.4,126c0,3.9-2,4.8-4.1,4.8h-2.4v-9.5h2.2C45.3,121.3,47.4,122,47.4,126z M42.7,122.6v6.8h0.7
				c1.2,0,2.2-0.6,2.2-3.5c0-2.9-1-3.4-2.2-3.4H42.7z"/>
			<path class="st2" d="M53.2,122.6h-3v2.7h2.7v1.3h-2.7v2.8h3.2v1.3h-5v-9.5h5L53.2,122.6z"/>
			<path class="st2" d="M58.9,129.3h3.3l-0.2,1.5h-4.9v-9.5h1.8V129.3z"/>
			<path class="st2" d="M69.8,126c0,3.2-1.4,5-3.7,5c-2.3,0-3.7-1.7-3.7-4.9c0-3.2,1.4-5,3.7-5C68.4,121.1,69.8,122.7,69.8,126z
				 M64.3,126.1c0,2.7,0.7,3.6,1.9,3.6c1.2,0,1.9-0.9,1.9-3.6c0-2.6-0.7-3.6-1.9-3.6C64.9,122.4,64.3,123.4,64.3,126.1z"/>
			<path class="st2" d="M76.2,122.3l-0.8,1c-0.6-0.5-1.2-0.8-1.8-0.8c-0.8,0-1.3,0.4-1.3,1.1c0,0.7,0.3,1,1.7,1.5
				c1.5,0.6,2.5,1.3,2.5,3c0,1.7-1.2,2.9-3.2,2.9c-1.4,0-2.4-0.5-3.1-1.3l0.9-1c0.6,0.6,1.3,0.9,2.1,0.9c0.9,0,1.5-0.5,1.5-1.4
				c0-0.8-0.3-1.2-1.6-1.6c-1.8-0.6-2.5-1.5-2.5-2.8c0-1.5,1.2-2.6,2.9-2.6C74.6,121.1,75.4,121.5,76.2,122.3z"/>
			<path class="st2" d="M88.2,130.8h-1.7l-0.2-4c-0.1-1.4-0.1-2.9-0.1-3.9l-1.5,6.8h-1.6l-1.5-6.8c0,1.3,0,2.6,0,3.9l-0.2,3.9h-1.7
				l0.6-9.5h2.2l1.4,6.7l1.3-6.7h2.2L88.2,130.8z"/>
			<path class="st2" d="M91.1,130.8h-1.8v-9.5h1.8V130.8z"/>
			<path class="st2" d="M98.8,122.2l-0.9,0.9c-0.6-0.5-1.1-0.7-1.8-0.7c-1.2,0-2.1,0.9-2.1,3.6c0,2.7,0.6,3.6,1.9,3.6
				c0.5,0,0.9-0.1,1.3-0.4v-2.5h-1.2l-0.2-1.3h3.1v4.6c-0.8,0.6-1.9,0.9-2.9,0.9c-2.5,0-3.7-1.6-3.7-5c0-3.3,1.8-4.9,3.9-4.9
				C97.2,121.1,98.1,121.5,98.8,122.2z"/>
			<path class="st2" d="M102.8,127h-1v3.8h-1.8v-9.5h2.5c2.4,0,3.5,1,3.5,2.8c0,1.2-0.5,2.1-1.7,2.6l2.2,4.2h-1.9L102.8,127z
				 M102.6,125.7c1.1,0,1.6-0.5,1.6-1.6c0-1-0.5-1.5-1.7-1.5h-0.7v3.1H102.6z"/>
			<path class="st2" d="M111.7,128.6H109l-0.5,2.2h-1.8l2.6-9.5h2.1l2.6,9.5h-1.8L111.7,128.6z M111.4,127.2l-1.1-4.6l-1.1,4.6
				H111.4z"/>
			<path class="st2" d="M120.9,130.8h-2.2l-2.7-7.7c0.1,0.9,0.2,2,0.2,3.8v3.9h-1.6v-9.5h2.2l2.7,7.7c-0.1-0.5-0.2-1.9-0.2-3.2v-4.5
				h1.6V130.8z"/>
			<path class="st2" d="M127.8,122.7h-2.1v8.1h-1.7v-8.1h-2.2v-1.4h6.3L127.8,122.7z"/>
			<path class="st2" d="M133.4,122.6h-3v2.7h2.7v1.3h-2.7v2.8h3.2v1.3h-5v-9.5h5L133.4,122.6z"/>
			<path class="st2" d="M140.2,122.3l-0.8,1c-0.6-0.5-1.2-0.8-1.8-0.8c-0.8,0-1.3,0.4-1.3,1.1c0,0.7,0.3,1,1.7,1.5
				c1.5,0.6,2.5,1.3,2.5,3c0,1.7-1.2,2.9-3.2,2.9c-1.4,0-2.4-0.5-3.1-1.3l0.9-1c0.6,0.6,1.3,0.9,2.1,0.9c0.9,0,1.5-0.5,1.5-1.4
				c0-0.8-0.3-1.2-1.6-1.6c-1.8-0.6-2.5-1.5-2.5-2.8c0-1.5,1.2-2.6,2.9-2.6C138.6,121.1,139.4,121.5,140.2,122.3z"/>
			<path class="st2" d="M44.4,140.7v3.6h-1.8v-3.6l-2.7-5.9h1.9l1.7,4.4l1.7-4.4h1.8L44.4,140.7z"/>
			<path class="st2" d="M52,142.8h3.3l-0.2,1.5h-4.9v-9.5H52V142.8z"/>
			<path class="st2" d="M60.4,142.1h-2.7l-0.5,2.2h-1.8l2.6-9.5h2.1l2.6,9.5H61L60.4,142.1z M60.1,140.7l-1.1-4.6l-1.1,4.6H60.1z"/>
			<path class="st2" d="M69,135.8l-0.8,1c-0.6-0.5-1.2-0.8-1.8-0.8c-0.8,0-1.3,0.4-1.3,1.1c0,0.7,0.3,1,1.7,1.5
				c1.5,0.6,2.5,1.3,2.5,3c0,1.7-1.2,2.9-3.2,2.9c-1.4,0-2.4-0.5-3.1-1.3l0.9-1c0.6,0.6,1.3,0.9,2.1,0.9c0.9,0,1.5-0.5,1.5-1.4
				c0-0.8-0.3-1.2-1.6-1.6c-1.8-0.6-2.5-1.5-2.5-2.8c0-1.5,1.2-2.6,2.9-2.6C67.4,134.6,68.2,135,69,135.8z"/>
			<path class="st2" d="M79.3,139.5c0,3.9-2,4.8-4.1,4.8h-2.4v-9.5H75C77.2,134.8,79.3,135.5,79.3,139.5z M74.5,136.1v6.8h0.7
				c1.2,0,2.2-0.6,2.2-3.5c0-2.9-1-3.4-2.2-3.4H74.5z"/>
			<path class="st2" d="M82.1,144.3h-1.8v-9.5h1.8V144.3z"/>
			<path class="st2" d="M87.7,142.1H85l-0.5,2.2h-1.8l2.6-9.5h2.1l2.6,9.5h-1.8L87.7,142.1z M85.2,133.9l-0.4-0.9l2.6-1.6l0.7,1.3
				L85.2,133.9z M87.4,140.7l-1.1-4.6l-1.1,4.6H87.4z"/>
			<path class="st2" d="M96.2,135.8l-0.8,1c-0.6-0.5-1.2-0.8-1.8-0.8c-0.8,0-1.3,0.4-1.3,1.1c0,0.7,0.3,1,1.7,1.5
				c1.5,0.6,2.5,1.3,2.5,3c0,1.7-1.2,2.9-3.2,2.9c-1.4,0-2.4-0.5-3.1-1.3l0.9-1c0.6,0.6,1.3,0.9,2.1,0.9c0.9,0,1.5-0.5,1.5-1.4
				c0-0.8-0.3-1.2-1.6-1.6c-1.8-0.6-2.5-1.5-2.5-2.8c0-1.5,1.2-2.6,2.9-2.6C94.6,134.6,95.5,135,96.2,135.8z"/>
			<path class="st2" d="M103.3,137.8c0,2.2-1.4,3.1-3.5,3.1h-0.8v3.3h-1.8v-9.5h2.4C102,134.8,103.3,135.8,103.3,137.8z
				 M101.5,137.8c0-1.2-0.6-1.7-1.8-1.7h-0.7v3.5h0.7C100.9,139.6,101.5,139.2,101.5,137.8z"/>
			<path class="st2" d="M111.3,139.5c0,3.2-1.4,5-3.7,5c-2.3,0-3.7-1.7-3.7-4.9c0-3.2,1.4-5,3.7-5
				C109.9,134.6,111.3,136.2,111.3,139.5z M105.7,139.6c0,2.7,0.7,3.6,1.9,3.6c1.2,0,1.9-0.9,1.9-3.6c0-2.6-0.7-3.6-1.9-3.6
				C106.4,135.9,105.7,136.9,105.7,139.6z"/>
			<path class="st2" d="M115.1,140.5h-1v3.8h-1.8v-9.5h2.5c2.4,0,3.5,1,3.5,2.8c0,1.2-0.5,2.1-1.7,2.6l2.2,4.2h-1.9L115.1,140.5z
				 M114.9,139.2c1.1,0,1.6-0.5,1.6-1.6c0-1-0.5-1.5-1.7-1.5h-0.7v3.1H114.9z"/>
			<path class="st2" d="M124,142.1h-2.7l-0.5,2.2H119l2.6-9.5h2.1l2.6,9.5h-1.8L124,142.1z M123.7,140.7l-1.1-4.6l-1.1,4.6H123.7z"
				/>
			<path class="st2" d="M132.5,135.8l-0.8,1c-0.6-0.5-1.2-0.8-1.8-0.8c-0.8,0-1.3,0.4-1.3,1.1c0,0.7,0.3,1,1.7,1.5
				c1.5,0.6,2.5,1.3,2.5,3c0,1.7-1.2,2.9-3.2,2.9c-1.4,0-2.4-0.5-3.1-1.3l0.9-1c0.6,0.6,1.3,0.9,2.1,0.9c0.9,0,1.5-0.5,1.5-1.4
				c0-0.8-0.3-1.2-1.6-1.6c-1.8-0.6-2.5-1.5-2.5-2.8c0-1.5,1.2-2.6,2.9-2.6C130.9,134.6,131.8,135,132.5,135.8z"/>
		</g>
	</g>
</g>
<g id="Icon_2_">
	<g>
		<g>
			<path class="st2" d="M74.8,80.1c-1.7,0-3.1-1.4-3.1-3.1h1.2c0,1,0.8,1.9,1.9,1.9s1.9-0.8,1.9-1.9H78C78,78.7,76.5,80.1,74.8,80.1
				z"/>
			<g>
				<path class="st2" d="M75.5,71.1c-4.5,0-8.8-1.2-12.7-3.3c-0.3-0.2-0.4-0.6-0.2-0.9s0.6-0.4,0.9-0.2c3.7,2.1,7.8,3.2,12.1,3.2
					C89,69.8,100,58.9,100,45.5S89,21.1,75.5,21.1C62,21.1,51.1,32,51.1,45.5c0,6.6,2.6,12.8,7.4,17.5c0.2,0.2,0.3,0.6,0,0.9
					c-0.2,0.2-0.6,0.3-0.9,0c-5-4.9-7.8-11.4-7.8-18.3c0-14.1,11.5-25.6,25.7-25.6c14.2,0,25.7,11.5,25.7,25.6S89.7,71.1,75.5,71.1z
					"/>
				<path class="st2" d="M58.8,64.2h-9.4c-0.3,0-0.6-0.3-0.6-0.6s0.3-0.6,0.6-0.6h8.1l0-8c0-0.3,0.3-0.6,0.6-0.6l0,0
					c0.3,0,0.6,0.3,0.6,0.6L58.8,64.2z"/>
			</g>
			<g>
				<path class="st2" d="M75.1,67.4c-0.7,0-1.4,0-2-0.1c-0.3,0-0.6-0.3-0.6-0.7c0-0.3,0.3-0.6,0.7-0.6c3.8,0.3,7.7-0.3,11.1-1.9
					c0.3-0.1,0.7,0,0.8,0.3c0.1,0.3,0,0.7-0.3,0.8C81.8,66.6,78.5,67.4,75.1,67.4z"/>
			</g>
			<path class="st2" d="M77.3,75.2h-4.9c-2.2,0-4-1.8-4-4v-8.8c0-0.3,0.3-0.6,0.6-0.6h11.7c0.3,0,0.6,0.3,0.6,0.6v8.8
				C81.3,73.4,79.5,75.2,77.3,75.2z M69.6,63v8.2c0,1.5,1.2,2.8,2.8,2.8h4.9c1.5,0,2.8-1.2,2.8-2.8V63H69.6z"/>
			<g>
				<path class="st2" d="M75.5,63h-4.7c-1.4,0-1.9-1-2.3-2.1l-1.4-4.5c-0.3-1-0.8-2-1.6-3.1c-1.4-2-2.1-4.4-2.1-6.8h1.2
					c0,2.2,0.6,4.3,1.9,6.1c0.8,1.2,1.4,2.3,1.7,3.4l1.4,4.4c0.4,1.1,0.6,1.2,1.1,1.2h4.7V63z"/>
				<path class="st2" d="M78.9,63h-4.7v-1.2h4.7c0.6,0,0.7,0,1.1-1.2l1.4-4.4c0.3-1.1,0.9-2.2,1.7-3.4c1.2-1.8,1.9-3.9,1.9-6.1
					c0-5.5-4.5-10-10.1-10c-5.6,0-10.1,4.5-10.1,10h-1.2c0-6.2,5.1-11.3,11.3-11.3c6.2,0,11.3,5,11.3,11.3l0,0c0,0,0,0,0,0s0,0,0,0
					l0,0c0,2.4-0.7,4.7-2.1,6.7c-0.7,1.1-1.2,2.1-1.6,3.1l-1.4,4.4C80.7,62.4,80.3,63,78.9,63z"/>
			</g>
			<g>
				
					<rect x="66.3" y="27.1" transform="matrix(0.8844 -0.4667 0.4667 0.8844 -5.7658 34.5747)" class="st2" width="1.3" height="3.7"/>
				
					<rect x="88.7" y="56" transform="matrix(0.6713 -0.7412 0.7412 0.6713 -13.4859 85.2453)" class="st2" width="1.2" height="3.7"/>
				<rect x="61.2" y="31" transform="matrix(0.6712 -0.7413 0.7413 0.6712 -4.043 56.6227)" class="st2" width="1.2" height="3.7"/>
				
					<rect x="92.2" y="50.5" transform="matrix(0.3779 -0.9258 0.9258 0.3779 9.2452 118.5256)" class="st2" width="1.3" height="3.7"/>
				<rect x="57.7" y="36.5" transform="matrix(0.3776 -0.926 0.926 0.3776 0.8372 77.8737)" class="st2" width="1.3" height="3.7"/>
				
					<rect x="93.6" y="44.2" transform="matrix(3.983199e-02 -0.9992 0.9992 3.983199e-02 44.3983 138.3803)" class="st2" width="1.2" height="3.7"/>
				
					<rect x="56.3" y="42.7" transform="matrix(3.958071e-02 -0.9992 0.9992 3.958071e-02 10.1433 99.7675)" class="st2" width="1.2" height="3.7"/>
				<rect x="91.5" y="39.1" transform="matrix(0.953 -0.3031 0.3031 0.953 -7.644 30.1547)" class="st2" width="3.7" height="1.3"/>
				
					<rect x="88.5" y="33.4" transform="matrix(0.7926 -0.6097 0.6097 0.7926 -2.0008 62.1235)" class="st2" width="3.7" height="1.2"/>
				
					<rect x="83.7" y="29" transform="matrix(0.5362 -0.8441 0.8441 0.5362 14.6318 85.9658)" class="st2" width="3.7" height="1.2"/>
				
					<rect x="77.7" y="26.6" transform="matrix(0.2141 -0.9768 0.9768 0.2141 35.9236 99.1032)" class="st2" width="3.7" height="1.2"/>
				
					<rect x="72.5" y="25.1" transform="matrix(0.9909 -0.1348 0.1348 0.9909 -2.968 10.097)" class="st2" width="1.2" height="3.7"/>
			</g>
		</g>
		<path class="st3" d="M69.2,58"/>
	</g>
</g>
</svg>
