<?xml version="1.0" encoding="utf-8"?>
<!-- Generator: Adobe Illustrator 25.0.1, SVG Export Plug-In . SVG Version: 6.00 Build 0)  -->
<svg version="1.1" id="_x30_3_Negative_EN" xmlns="http://www.w3.org/2000/svg" xmlns:xlink="http://www.w3.org/1999/xlink" x="0px"
	 y="0px" viewBox="0 0 150 150" style="enable-background:new 0 0 150 150;" xml:space="preserve">
<style type="text/css">
	.st0{fill:#1C3664;}
	.st1{fill:#E82050;}
	.st2{fill:#FFFFFF;}
</style>
<g id="Elements_2_">
	<g id="Bckgd_5_">
		<rect id="Bckgd_3_" x="-0.1" y="-0.1" class="st0" width="150" height="100"/>
	</g>
	<g id="Color_2_">
		<rect id="GCM_x5F_Color_2_" x="-0.1" y="99.9" class="st1" width="150" height="50"/>
	</g>
	<g id="Number_2_">
		<g>
			<g>
				<path class="st2" d="M27.6,131.8h-2.1v5.3h-4l0-5.3h-7.7v-3.3l5.2-15.5l3.5,1.5L18,128.1h3.5l0.5-5.8h3.5v5.8h2.1V131.8z"/>
			</g>
		</g>
	</g>
	<g id="Title_2_">
		<g>
			<g>
				<path class="st2" d="M42.7,117.1h-1.8v-9.5h1.8V117.1z"/>
				<path class="st2" d="M50.7,112.3c0,3.9-2.1,4.8-4.2,4.8h-2.4v-9.5h2.2C48.6,107.6,50.7,108.3,50.7,112.3z M45.9,108.9v6.8h0.7
					c1.2,0,2.2-0.6,2.2-3.5c0-2.9-1-3.4-2.2-3.4H45.9z"/>
				<path class="st2" d="M56.6,108.9h-3.1v2.7h2.7v1.3h-2.7v2.8h3.3v1.3h-5v-9.5h5L56.6,108.9z"/>
				<path class="st2" d="M64.1,117.1h-2.3l-2.8-7.7c0.1,0.9,0.2,2,0.2,3.8v3.9h-1.6v-9.5H60l2.8,7.7c-0.1-0.5-0.2-1.9-0.2-3.2v-4.5
					h1.6V117.1z"/>
				<path class="st2" d="M71,109h-2.2v8.1h-1.8V109h-2.3v-1.4h6.4L71,109z"/>
				<path class="st2" d="M73.6,117.1h-1.8v-9.5h1.8V117.1z"/>
				<path class="st2" d="M81.6,112.3c0,3.9-2.1,4.8-4.2,4.8h-2.4v-9.5h2.2C79.5,107.6,81.6,108.3,81.6,112.3z M76.8,108.9v6.8h0.7
					c1.2,0,2.2-0.6,2.2-3.5c0-2.9-1-3.4-2.2-3.4H76.8z"/>
				<path class="st2" d="M86.6,114.9h-2.7l-0.5,2.2h-1.8l2.6-9.5h2.2l2.6,9.5h-1.8L86.6,114.9z M86.3,113.5l-1.1-4.6l-1.1,4.6H86.3z
					"/>
				<path class="st2" d="M96.1,112.3c0,3.9-2.1,4.8-4.2,4.8h-2.4v-9.5h2.2C94,107.6,96.1,108.3,96.1,112.3z M91.3,108.9v6.8h0.7
					c1.2,0,2.2-0.6,2.2-3.5c0-2.9-1-3.4-2.2-3.4H91.3z"/>
				<path class="st2" d="M42.9,128.2c0,2.2-1.2,3-2.6,3.5l-0.5-1.3c1.1-0.5,1.3-1,1.3-2.3v-8h1.8V128.2z"/>
				<path class="st2" d="M50.7,126.7c0,1.7-1.1,3.1-3.2,3.1c-2.2,0-3.2-1.3-3.2-3.1v-6.6h1.8v6.5c0,1.2,0.4,1.8,1.4,1.8
					c1,0,1.4-0.6,1.4-1.8v-6.5h1.8V126.7z"/>
				<path class="st2" d="M54.8,125.7h-1v3.8h-1.8v-9.5h2.5c2.4,0,3.6,1,3.6,2.8c0,1.2-0.5,2.1-1.7,2.6l2.2,4.2h-1.9L54.8,125.7z
					 M54.7,124.5c1.1,0,1.6-0.5,1.6-1.6c0-1-0.5-1.5-1.7-1.5h-0.7v3.1H54.7z"/>
				<path class="st2" d="M61.8,118.1l-2.8,1.1l-0.4-0.9l2.6-1.6L61.8,118.1z M61.1,129.6h-1.8v-9.5h1.8V129.6z"/>
				<path class="st2" d="M69.1,124.8c0,3.9-2.1,4.8-4.2,4.8h-2.4v-9.5h2.2C67,120.1,69.1,120.8,69.1,124.8z M64.3,121.4v6.8h0.7
					c1.2,0,2.2-0.6,2.2-3.5c0-2.9-1-3.4-2.2-3.4H64.3z"/>
				<path class="st2" d="M72,129.6h-1.8v-9.5H72V129.6z"/>
				<path class="st2" d="M79.3,120.9l-0.9,1c-0.5-0.4-1-0.6-1.6-0.6c-1.1,0-2,0.9-2,3.6c0,2.6,0.8,3.5,2,3.5c0.7,0,1.2-0.3,1.7-0.7
					l0.8,1c-0.6,0.6-1.4,1.1-2.6,1.1c-2.2,0-3.8-1.6-3.8-5c0-3.3,1.6-4.9,3.7-4.9C77.9,119.9,78.6,120.2,79.3,120.9z"/>
				<path class="st2" d="M84.6,127.4h-2.7l-0.5,2.2h-1.8l2.6-9.5h2.2l2.6,9.5h-1.8L84.6,127.4z M84.3,126l-1.1-4.6l-1.1,4.6H84.3z"
					/>
				<path class="st2" d="M93.6,126v3.6h-1.8V126l-2.7-5.9H91l1.7,4.4l1.7-4.4h1.8L93.6,126z"/>
				<path class="st2" d="M47.5,137.3c0,3.9-2.1,4.8-4.2,4.8h-2.4v-9.5h2.2C45.4,132.6,47.5,133.3,47.5,137.3z M42.7,133.9v6.8h0.7
					c1.2,0,2.2-0.6,2.2-3.5c0-2.9-1-3.4-2.2-3.4H42.7z"/>
				<path class="st2" d="M55.7,137.3c0,3.2-1.4,5-3.8,5c-2.3,0-3.7-1.7-3.7-4.9c0-3.2,1.4-5,3.7-5C54.2,132.4,55.7,134,55.7,137.3z
					 M50,137.3c0,2.7,0.7,3.6,1.9,3.6c1.2,0,1.9-0.9,1.9-3.6c0-2.6-0.7-3.6-1.9-3.6C50.7,133.7,50,134.7,50,137.3z"/>
				<path class="st2" d="M62.6,133.4l-0.9,1c-0.5-0.4-1-0.6-1.6-0.6c-1.1,0-2,0.9-2,3.6c0,2.6,0.8,3.5,2,3.5c0.7,0,1.2-0.3,1.7-0.7
					l0.8,1c-0.6,0.6-1.4,1.1-2.6,1.1c-2.2,0-3.8-1.6-3.8-5c0-3.3,1.6-4.9,3.7-4.9C61.2,132.4,61.9,132.7,62.6,133.4z"/>
				<path class="st2" d="M69.8,139.2c0,1.7-1.1,3.1-3.2,3.1c-2.2,0-3.2-1.3-3.2-3.1v-6.6h1.8v6.5c0,1.2,0.4,1.8,1.4,1.8
					c1,0,1.4-0.6,1.4-1.8v-6.5h1.8V139.2z"/>
				<path class="st2" d="M79.4,142.1h-1.7l-0.2-4c-0.1-1.4-0.1-2.9-0.1-3.9l-1.5,6.8h-1.6l-1.6-6.8c0,1.3,0,2.6,0,3.9l-0.2,3.9h-1.7
					l0.7-9.5h2.2l1.4,6.7l1.3-6.7h2.3L79.4,142.1z"/>
				<path class="st2" d="M85.4,133.9h-3.1v2.7H85v1.3h-2.7v2.8h3.3v1.3h-5v-9.5h5L85.4,133.9z"/>
				<path class="st2" d="M92.9,142.1h-2.3l-2.7-7.7c0.1,0.9,0.2,2,0.2,3.8v3.9h-1.6v-9.5h2.2l2.8,7.7c-0.1-0.5-0.2-1.9-0.2-3.2v-4.5
					h1.6V142.1z"/>
				<path class="st2" d="M99.8,134h-2.2v8.1h-1.8V134h-2.3v-1.4h6.4L99.8,134z"/>
				<path class="st2" d="M104,139.9h-2.7l-0.5,2.2h-1.8l2.6-9.5h2.2l2.6,9.5h-1.8L104,139.9z M103.7,138.5l-1.1-4.6l-1.1,4.6H103.7z
					"/>
				<path class="st2" d="M112.5,133.4l-0.9,1c-0.5-0.4-1-0.6-1.6-0.6c-1.1,0-2,0.9-2,3.6c0,2.6,0.8,3.5,2,3.5c0.7,0,1.2-0.3,1.7-0.7
					l0.8,1c-0.6,0.6-1.4,1.1-2.6,1.1c-2.2,0-3.8-1.6-3.8-5c0-3.3,1.6-4.9,3.7-4.9C111.1,132.4,111.8,132.7,112.5,133.4z"/>
				<path class="st2" d="M115.1,142.1h-1.8v-9.5h1.8V142.1z"/>
				<path class="st2" d="M123.7,137.3c0,3.2-1.4,5-3.8,5c-2.3,0-3.7-1.7-3.7-4.9c0-3.2,1.4-5,3.7-5
					C122.3,132.4,123.7,134,123.7,137.3z M118.1,137.3c0,2.7,0.7,3.6,1.9,3.6c1.2,0,1.9-0.9,1.9-3.6c0-2.6-0.7-3.6-1.9-3.6
					C118.7,133.7,118.1,134.7,118.1,137.3z M121.6,130.6l-2.8,1.1l-0.4-0.9l2.6-1.6L121.6,130.6z"/>
				<path class="st2" d="M131.2,142.1h-2.3l-2.8-7.7c0.1,0.9,0.2,2,0.2,3.8v3.9h-1.6v-9.5h2.2l2.8,7.7c-0.1-0.5-0.2-1.9-0.2-3.2
					v-4.5h1.6V142.1z"/>
			</g>
		</g>
	</g>
</g>
<g id="Icon_2_">
	<g id="Doc_6_">
		<path class="st2" d="M101.5,74.1l-0.1-1.2c1.3-0.2,2.4-1.3,2.4-2.5v-47c0-0.5-0.2-1-0.6-1.3c-0.4-0.4-1.1-0.6-1.7-0.5l-36.2,4.3
			c-1.3,0.2-2.4,1.3-2.4,2.5v1.4h-1.2v-1.4c0-1.8,1.6-3.5,3.5-3.7l36.2-4.3c1-0.1,2,0.2,2.7,0.8c0.6,0.6,1,1.4,1,2.2v47
			C105,72.2,103.4,73.8,101.5,74.1z"/>
		<path class="st2" d="M98.3,79.7H65c-1.9,0-3.4-1.5-3.4-3.4v-3.6h1.2v3.6c0,1.2,0.9,2.1,2.1,2.1h33.3c1.2,0,2.1-0.9,2.1-2.1v-47
			c0-1.2-0.9-2.1-2.1-2.1H65c-1.2,0-2.1,0.9-2.1,2.1V32h-1.2v-2.7c0-1.9,1.5-3.4,3.4-3.4h33.3c1.9,0,3.4,1.5,3.4,3.4v47
			C101.6,78.1,100.1,79.7,98.3,79.7z"/>
	</g>
	<g id="Photo_6_">
		<path class="st2" d="M56.1,52.5c-3.5,0-6.3-2.8-6.3-6.3s2.8-6.3,6.3-6.3c3.5,0,6.3,2.8,6.3,6.3S59.6,52.5,56.1,52.5z M56.1,41.1
			c-2.8,0-5.1,2.3-5.1,5.1s2.3,5.1,5.1,5.1c2.8,0,5.1-2.3,5.1-5.1S58.9,41.1,56.1,41.1z"/>
		<polygon class="st2" points="66.9,44.9 65.7,44.9 65.7,36.6 57.4,36.6 57.4,35.4 66.9,35.4 		"/>
		<polygon class="st2" points="66.9,56.9 57.4,56.9 57.4,55.7 65.7,55.7 65.7,47.5 66.9,47.5 		"/>
		<polygon class="st2" points="54.8,56.9 45.4,56.9 45.4,47.5 46.6,47.5 46.6,55.7 54.8,55.7 		"/>
		<polygon class="st2" points="46.6,44.9 45.4,44.9 45.4,35.4 54.8,35.4 54.8,36.6 46.6,36.6 		"/>
	</g>
	<g>
		<path class="st2" d="M58.6,63h-1.1v-1.2h1.1V63z M56.3,63H55v-1.2h1.2V63z M53.8,63h-1.2v-1.2h1.2V63z M51.3,63H50v-1.2h1.2V63z
			 M48.8,63h-1.2v-1.2h1.2V63z M46.3,63H45v-1.2h1.2V63z"/>
		<path class="st2" d="M76.5,63h-1.1v-1.2h1.1V63z M74.2,63h-1.2v-1.2h1.2V63z M71.7,63h-1.2v-1.2h1.2V63z M69.2,63h-1.2v-1.2h1.2
			V63z M66.7,63h-1.2v-1.2h1.2V63z M64.2,63h-1.2v-1.2h1.2V63z"/>
		<path class="st2" d="M94.4,63h-1.1v-1.2h1.1V63z M92.1,63h-1.2v-1.2h1.2V63z M89.6,63h-1.2v-1.2h1.2V63z M87.1,63h-1.2v-1.2h1.2
			V63z M84.6,63h-1.2v-1.2h1.2V63z M82.1,63h-1.2v-1.2h1.2V63z"/>
	</g>
	<path class="st2" d="M93.8,68.9h-1.2v-1.2h1.2V68.9z M91.3,68.9H90v-1.2h1.2V68.9z M88.8,68.9h-1.2v-1.2h1.2V68.9z M86.3,68.9H85
		v-1.2h1.2V68.9z M83.8,68.9h-1.2v-1.2h1.2V68.9z M81.3,68.9H80v-1.2h1.2V68.9z M78.8,68.9h-1.2v-1.2h1.2V68.9z M76.3,68.9H75v-1.2
		h1.2V68.9z M73.8,68.9h-1.2v-1.2h1.2V68.9z M71.3,68.9H70v-1.2h1.2V68.9z M68.8,68.9h-1.2v-1.2h1.2V68.9z M66.3,68.9H65v-1.2h1.2
		V68.9z M63.8,68.9h-1.2v-1.2h1.2V68.9z M61.3,68.9H60v-1.2h1.2V68.9z M58.8,68.9h-1.2v-1.2h1.2V68.9z M56.3,68.9H55v-1.2h1.2V68.9z
		 M53.8,68.9h-1.2v-1.2h1.2V68.9z M51.3,68.9H50v-1.2h1.2V68.9z M48.8,68.9h-1.2v-1.2h1.2V68.9z M46.3,68.9H45v-1.2h1.2V68.9z"/>
	<g>
		<g>
			<path class="st2" d="M74.8,52.6V38.8h2.1v13.8H74.8z"/>
			<path class="st2" d="M79.4,52.6V38.8H83c3.7,0,6.7,2.4,6.7,6.9c0,4.4-2.8,6.9-7,6.9H79.4z M83,50.5c2.5,0,4.5-1.4,4.5-4.8
				c0-2.9-1.8-4.7-4.3-4.7h-1.7v9.6H83z"/>
		</g>
	</g>
</g>
</svg>
