<?xml version="1.0" encoding="utf-8"?>
<!-- Generator: Adobe Illustrator 25.0.1, SVG Export Plug-In . SVG Version: 6.00 Build 0)  -->
<svg version="1.1" id="_x30_3_Negative_EN" xmlns="http://www.w3.org/2000/svg" xmlns:xlink="http://www.w3.org/1999/xlink" x="0px"
	 y="0px" viewBox="0 0 150 150" style="enable-background:new 0 0 150 150;" xml:space="preserve">
<style type="text/css">
	.st0{fill:#1C3664;}
	.st1{fill:#DC1768;}
	.st2{fill:#FFFFFF;}
</style>
<g id="Elements_2_">
	<g id="Bckgd_5_">
		<rect id="Bckgd_3_" x="-0.1" y="-0.1" class="st0" width="150" height="100"/>
	</g>
	<g id="Color_2_">
		<rect id="GCM_x5F_Color_2_" x="-0.1" y="99.9" class="st1" width="150" height="50"/>
	</g>
	<g id="Number_2_">
		<g>
			<g>
				<path class="st2" d="M26,119c0,2.9-1.3,4.8-3.8,5.6c2.5,0.3,4.4,2.1,4.4,5.8c0,3.9-2.5,7.3-6.9,7.3c-2.7,0-4.6-1.3-6.2-3.5
					l2.3-2.5c1.2,1.5,2.2,2.2,3.7,2.2c1.7,0,2.9-1.3,2.9-3.8c0-2.7-1.2-3.7-3.2-3.7h-1.4l0.5-3.4h1c1.7,0,2.8-1.2,2.8-3.4
					c0-1.9-1-3-2.5-3c-1.3,0-2.4,0.7-3.5,2l-2.1-2.5c1.7-2,3.7-3.1,6-3.1C23.8,113,26,115.7,26,119z"/>
			</g>
		</g>
	</g>
	<g id="Title_2_">
		<g>
			<g>
				<path class="st2" d="M47.1,116.8c0,2.2-1.4,3.1-3.5,3.1h-0.8v3.3h-1.8v-9.5h2.5C45.7,113.8,47.1,114.8,47.1,116.8z M45.2,116.8
					c0-1.2-0.6-1.7-1.8-1.7h-0.7v3.5h0.7C44.6,118.7,45.2,118.2,45.2,116.8z"/>
				<path class="st2" d="M51,119.5h-1v3.8h-1.8v-9.5h2.5c2.4,0,3.6,1,3.6,2.8c0,1.2-0.5,2.1-1.7,2.6l2.2,4.2h-2L51,119.5z
					 M50.8,118.2c1.1,0,1.6-0.5,1.6-1.6c0-1-0.5-1.5-1.8-1.5H50v3.1H50.8z"/>
				<path class="st2" d="M62.9,118.6c0,3.2-1.4,5-3.8,5c-2.3,0-3.8-1.7-3.8-4.9c0-3.2,1.5-5,3.8-5C61.4,113.6,62.9,115.3,62.9,118.6
					z M57.2,118.6c0,2.7,0.7,3.6,1.9,3.6c1.3,0,1.9-0.9,1.9-3.6c0-2.6-0.7-3.6-1.9-3.6C57.9,115,57.2,115.9,57.2,118.6z"/>
				<path class="st2" d="M67.9,123.3h-2.2l-2.6-9.5H65l1.8,7.9l1.7-7.9h1.8L67.9,123.3z"/>
				<path class="st2" d="M73.2,123.3h-1.8v-9.5h1.8V123.3z"/>
				<path class="st2" d="M80.4,114.8l-0.9,1c-0.6-0.5-1.2-0.8-1.9-0.8c-0.8,0-1.3,0.4-1.3,1.1c0,0.7,0.3,1,1.7,1.5
					c1.5,0.6,2.5,1.3,2.5,3c0,1.7-1.2,2.9-3.3,2.9c-1.4,0-2.4-0.5-3.1-1.3l0.9-1c0.6,0.6,1.3,0.9,2.2,0.9c0.9,0,1.5-0.5,1.5-1.4
					c0-0.8-0.3-1.2-1.7-1.6c-1.8-0.6-2.6-1.5-2.6-2.8c0-1.5,1.3-2.6,3-2.6C78.8,113.6,79.7,114,80.4,114.8z"/>
				<path class="st2" d="M83.7,123.3h-1.8v-9.5h1.8V123.3z"/>
				<path class="st2" d="M92.7,118.6c0,3.2-1.4,5-3.8,5c-2.3,0-3.8-1.7-3.8-4.9c0-3.2,1.5-5,3.8-5C91.3,113.6,92.7,115.3,92.7,118.6
					z M87,118.6c0,2.7,0.7,3.6,1.9,3.6c1.3,0,1.9-0.9,1.9-3.6c0-2.6-0.7-3.6-1.9-3.6C87.7,115,87,115.9,87,118.6z M90.6,111.8
					l-2.9,1.1l-0.4-0.9l2.6-1.6L90.6,111.8z"/>
				<path class="st2" d="M100.6,123.3h-2.3l-2.8-7.7c0.1,0.9,0.2,2,0.2,3.8v3.9h-1.6v-9.5h2.3l2.8,7.7c-0.1-0.5-0.2-1.9-0.2-3.2
					v-4.5h1.6V123.3z"/>
				<path class="st2" d="M47.6,131c0,3.9-2.1,4.8-4.2,4.8h-2.4v-9.5h2.2C45.4,126.3,47.6,127,47.6,131z M42.7,127.7v6.8h0.8
					c1.2,0,2.2-0.6,2.2-3.5c0-2.9-1-3.4-2.3-3.4H42.7z"/>
				<path class="st2" d="M53.9,127.6h-3.1v2.7h2.7v1.3h-2.7v2.8h3.3v1.3H49v-9.5h5.1L53.9,127.6z"/>
				<path class="st2" d="M60.4,135.8h-1.8v-9.5h1.8V135.8z"/>
				<path class="st2" d="M68.6,135.8h-2.3l-2.8-7.7c0.1,0.9,0.2,2,0.2,3.8v3.9h-1.6v-9.5h2.3l2.8,7.7c-0.1-0.5-0.2-1.9-0.2-3.2v-4.5
					h1.6V135.8z"/>
				<path class="st2" d="M70.4,126.3h4.9l-0.2,1.3h-3v2.9h2.6v1.3h-2.6v4h-1.8V126.3z"/>
				<path class="st2" d="M83.5,131.1c0,3.2-1.4,5-3.8,5c-2.3,0-3.8-1.7-3.8-4.9c0-3.2,1.5-5,3.8-5C82.1,126.1,83.5,127.8,83.5,131.1
					z M77.8,131.1c0,2.7,0.7,3.6,1.9,3.6c1.3,0,1.9-0.9,1.9-3.6c0-2.6-0.7-3.6-1.9-3.6C78.5,127.5,77.8,128.4,77.8,131.1z"/>
				<path class="st2" d="M87.7,132h-1v3.8H85v-9.5h2.5c2.4,0,3.6,1,3.6,2.8c0,1.2-0.5,2.1-1.7,2.6l2.2,4.2h-2L87.7,132z M87.6,130.7
					c1.1,0,1.7-0.5,1.7-1.6c0-1-0.5-1.5-1.8-1.5h-0.7v3.1H87.6z"/>
				<path class="st2" d="M101.1,135.8h-1.7l-0.2-4c-0.1-1.4-0.1-2.9-0.1-3.9l-1.5,6.8h-1.7l-1.6-6.8c0,1.3,0,2.6,0,3.9l-0.2,3.9
					h-1.7l0.7-9.5h2.3l1.4,6.7l1.3-6.7h2.3L101.1,135.8z"/>
				<path class="st2" d="M107,133.6h-2.7l-0.5,2.2h-1.8l2.6-9.5h2.2l2.6,9.5h-1.8L107,133.6z M106.7,132.3l-1.1-4.6l-1.1,4.6H106.7z
					"/>
				<path class="st2" d="M116,127.1l-0.9,1c-0.5-0.4-1-0.6-1.6-0.6c-1.1,0-2,0.9-2,3.6c0,2.6,0.8,3.5,2,3.5c0.7,0,1.2-0.3,1.7-0.7
					l0.9,1c-0.6,0.6-1.4,1.1-2.6,1.1c-2.2,0-3.8-1.7-3.8-5c0-3.3,1.6-4.9,3.8-4.9C114.5,126.1,115.3,126.5,116,127.1z"/>
				<path class="st2" d="M118.9,135.8h-1.8v-9.5h1.8V135.8z"/>
				<path class="st2" d="M127.9,131.1c0,3.2-1.4,5-3.8,5c-2.3,0-3.8-1.7-3.8-4.9c0-3.2,1.5-5,3.8-5
					C126.5,126.1,127.9,127.8,127.9,131.1z M122.2,131.1c0,2.7,0.7,3.6,1.9,3.6c1.3,0,1.9-0.9,1.9-3.6c0-2.6-0.7-3.6-1.9-3.6
					C122.9,127.5,122.2,128.4,122.2,131.1z M125.8,124.3l-2.9,1.1l-0.4-0.9l2.6-1.6L125.8,124.3z"/>
				<path class="st2" d="M135.8,135.8h-2.3l-2.8-7.7c0.1,0.9,0.2,2,0.2,3.8v3.9h-1.6v-9.5h2.3l2.8,7.7c-0.1-0.5-0.2-1.9-0.2-3.2
					v-4.5h1.6V135.8z"/>
			</g>
		</g>
	</g>
</g>
<g id="Icon_2_">
	<g id="Icon_5_">
		<path class="st2" d="M80.3,80.1H69.7V49.7h10.6V80.1z M71,78.9H79V51H71V78.9z"/>
		<rect x="64.8" y="78.9" class="st2" width="5.5" height="1.2"/>
		<rect x="79.6" y="78.9" class="st2" width="5.5" height="1.2"/>
		<path class="st2" d="M75,45.6c-3.6,0-6.5-2.9-6.5-6.5s2.9-6.5,6.5-6.5c3.6,0,6.5,2.9,6.5,6.5S78.6,45.6,75,45.6z M75,33.8
			c-2.9,0-5.3,2.4-5.3,5.3c0,2.9,2.4,5.3,5.3,5.3c2.9,0,5.3-2.4,5.3-5.3C80.3,36.2,77.9,33.8,75,33.8z"/>
		<rect x="64.8" y="49.7" class="st2" width="5.5" height="1.2"/>
		<g>
			<path class="st2" d="M100.9,45.6c-3.6,0-6.5-2.9-6.5-6.5s2.9-6.5,6.5-6.5c3.6,0,6.5,2.9,6.5,6.5S104.5,45.6,100.9,45.6z
				 M100.9,33.8c-2.9,0-5.3,2.4-5.3,5.3c0,2.9,2.4,5.3,5.3,5.3c2.9,0,5.3-2.4,5.3-5.3C106.1,36.1,103.8,33.8,100.9,33.8z"/>
			<path class="st2" d="M49.1,45.6c-3.6,0-6.5-2.9-6.5-6.5s2.9-6.5,6.5-6.5c3.6,0,6.5,2.9,6.5,6.5S52.7,45.6,49.1,45.6z M49.1,33.8
				c-2.9,0-5.3,2.4-5.3,5.3c0,2.9,2.4,5.3,5.3,5.3c2.9,0,5.3-2.4,5.3-5.3C54.4,36.1,52.1,33.8,49.1,33.8z"/>
		</g>
		<path class="st2" d="M70.3,74.7l-0.2,0c-13.2-2.3-22.9-13.8-22.9-27.2c0-0.9,0-1.8,0.1-2.7l0.1-0.7l0.7,0.1c0.3,0.1,0.6,0.1,1,0.1
			c2.9,0,5.3-2.4,5.3-5.3c0-2-1.1-3.8-3-4.7L50.8,34l0.3-0.6c5-8.4,14.1-13.6,23.8-13.6c9.7,0,18.8,5.2,23.8,13.6l0.3,0.6l-0.6,0.3
			c-1.8,0.9-3,2.7-3,4.7c0,2.9,2.4,5.3,5.3,5.3c0.3,0,0.6,0,1-0.1l0.7-0.1l0.1,0.7c0.1,0.9,0.1,1.8,0.1,2.7
			c0,13.4-9.6,24.9-22.8,27.2l-0.1,0l-0.1-1.2c0,0,0,0,0,0l0,0c12.6-2.2,21.7-13.2,21.7-26c0-0.6,0-1.3-0.1-2c-3.9,0.3-7-2.7-7-6.5
			c0-2.3,1.2-4.3,3.1-5.5C92.6,25.9,84.1,21.1,75,21.1s-17.6,4.7-22.4,12.4c1.9,1.2,3.1,3.2,3.1,5.5c0,3.8-3.2,6.8-7,6.5
			c0,0.7-0.1,1.3-0.1,2c0,12.8,9.2,23.8,21.8,26L70.3,74L70.3,74.7z"/>
		<g>
			<path class="st2" d="M91.9,39.6h-1.8v-1.2h1.8V39.6z M88.4,39.6h-1.8v-1.2h1.8V39.6z M84.8,39.6h-1.8v-1.2h1.8V39.6z"/>
			<path class="st2" d="M66.7,39.6h-1.8v-1.2h1.8V39.6z M63.1,39.6h-1.8v-1.2h1.8V39.6z M59.6,39.6h-1.8v-1.2h1.8V39.6z"/>
		</g>
	</g>
</g>
</svg>
