<?xml version="1.0" encoding="utf-8"?>
<!-- Generator: Adobe Illustrator 25.0.1, SVG Export Plug-In . SVG Version: 6.00 Build 0)  -->
<svg version="1.1" id="_x30_3_Negative_EN" xmlns="http://www.w3.org/2000/svg" xmlns:xlink="http://www.w3.org/1999/xlink" x="0px"
	 y="0px" viewBox="0 0 150 150" style="enable-background:new 0 0 150 150;" xml:space="preserve">
<style type="text/css">
	.st0{fill:#003366;}
	.st1{fill:#46BF68;}
	.st2{fill:#FFFFFF;}
</style>
<g id="Elements_2_">
	<g id="Bckgd_5_">
		<rect id="Bckgd_3_" x="-0.1" y="-0.1" class="st0" width="150" height="100"/>
	</g>
	<g id="Color_2_">
		<rect id="GCM_x5F_Color_2_" x="-0.1" y="99.9" class="st1" width="150" height="50"/>
	</g>
	<g>
		<g>
			<path class="st2" d="M42.7,116.6h-1.8v-9.5h1.8V116.6z"/>
			<path class="st2" d="M51.1,116.6h-2.3l-2.8-7.7c0.1,0.9,0.2,2,0.2,3.8v3.9h-1.6v-9.5h2.3l2.8,7.7c-0.1-0.5-0.2-1.9-0.2-3.2v-4.5
				h1.6V116.6z"/>
			<path class="st2" d="M59,107.9l-0.9,1c-0.5-0.4-1-0.6-1.6-0.6c-1.1,0-2,0.9-2,3.6c0,2.6,0.8,3.5,2,3.5c0.7,0,1.2-0.3,1.7-0.7
				l0.9,1c-0.6,0.6-1.4,1.1-2.6,1.1c-2.2,0-3.8-1.7-3.8-5c0-3.3,1.6-4.9,3.8-4.9C57.5,106.9,58.3,107.3,59,107.9z"/>
			<path class="st2" d="M62.1,115.2h3.4l-0.2,1.5h-5v-9.5h1.8V115.2z"/>
			<path class="st2" d="M73,113.8c0,1.7-1.1,3.1-3.2,3.1c-2.2,0-3.2-1.3-3.2-3.1v-6.6h1.8v6.5c0,1.2,0.4,1.8,1.5,1.8
				c1,0,1.5-0.6,1.5-1.8v-6.5H73V113.8z"/>
			<path class="st2" d="M80.2,108.1l-0.9,1c-0.6-0.5-1.2-0.8-1.9-0.8c-0.8,0-1.3,0.4-1.3,1.1c0,0.7,0.3,1,1.7,1.5
				c1.5,0.6,2.5,1.3,2.5,3c0,1.7-1.2,2.9-3.3,2.9c-1.4,0-2.4-0.5-3.1-1.3l0.9-1c0.6,0.6,1.3,0.9,2.2,0.9c0.9,0,1.5-0.5,1.5-1.4
				c0-0.8-0.3-1.2-1.7-1.6c-1.8-0.6-2.6-1.5-2.6-2.8c0-1.5,1.3-2.6,3-2.6C78.6,106.9,79.5,107.3,80.2,108.1z"/>
			<path class="st2" d="M83.6,116.6h-1.8v-9.5h1.8V116.6z"/>
			<path class="st2" d="M92.8,111.9c0,3.2-1.4,5-3.8,5c-2.3,0-3.8-1.7-3.8-4.9c0-3.2,1.5-5,3.8-5C91.3,106.9,92.8,108.6,92.8,111.9z
				 M87.1,111.9c0,2.7,0.7,3.6,1.9,3.6c1.2,0,1.9-0.9,1.9-3.6c0-2.6-0.7-3.6-1.9-3.6C87.8,108.3,87.1,109.2,87.1,111.9z M90.7,105.1
				l-2.9,1.1l-0.4-0.9l2.6-1.6L90.7,105.1z"/>
			<path class="st2" d="M100.8,116.6h-2.3l-2.8-7.7c0.1,0.9,0.2,2,0.2,3.8v3.9h-1.6v-9.5h2.3l2.8,7.7c-0.1-0.5-0.2-1.9-0.2-3.2v-4.5
				h1.6V116.6z"/>
			<path class="st2" d="M44.5,126.5v3.6h-1.8v-3.6l-2.7-5.9h1.9l1.8,4.4l1.8-4.4h1.8L44.5,126.5z"/>
			<path class="st2" d="M57.4,121.4l-0.9,1c-0.5-0.4-1-0.6-1.6-0.6c-1.1,0-2,0.9-2,3.6c0,2.6,0.8,3.5,2,3.5c0.7,0,1.2-0.3,1.7-0.7
				l0.9,1c-0.6,0.6-1.4,1.1-2.6,1.1c-2.2,0-3.8-1.7-3.8-5c0-3.3,1.6-4.9,3.8-4.9C55.9,120.4,56.6,120.8,57.4,121.4z"/>
			<path class="st2" d="M65.6,125.4c0,3.2-1.4,5-3.8,5c-2.3,0-3.8-1.7-3.8-4.9c0-3.2,1.5-5,3.8-5C64.1,120.4,65.6,122.1,65.6,125.4z
				 M59.9,125.4c0,2.7,0.7,3.6,1.9,3.6c1.2,0,1.9-0.9,1.9-3.6c0-2.6-0.7-3.6-1.9-3.6C60.6,121.8,59.9,122.7,59.9,125.4z"/>
			<path class="st2" d="M71.8,125.9h-2.9v4.3h-1.8v-9.5h1.8v3.8h2.9v-3.8h1.8v9.5h-1.8V125.9z"/>
			<path class="st2" d="M80.4,121.9h-3.1v2.7H80v1.3h-2.7v2.8h3.3v1.3h-5.1v-9.5h5.1L80.4,121.9z"/>
			<path class="st2" d="M87.8,121.6l-0.9,1c-0.6-0.5-1.2-0.8-1.9-0.8c-0.8,0-1.3,0.4-1.3,1.1c0,0.7,0.3,1,1.7,1.5
				c1.5,0.6,2.5,1.3,2.5,3c0,1.7-1.2,2.9-3.3,2.9c-1.4,0-2.4-0.5-3.1-1.3l0.9-1c0.6,0.6,1.3,0.9,2.2,0.9c0.9,0,1.5-0.5,1.5-1.4
				c0-0.8-0.3-1.2-1.7-1.6c-1.8-0.6-2.6-1.5-2.6-2.8c0-1.5,1.3-2.6,3-2.6C86.2,120.4,87.1,120.8,87.8,121.6z"/>
			<path class="st2" d="M91.3,130.1h-1.8v-9.5h1.8V130.1z"/>
			<path class="st2" d="M100.4,125.4c0,3.2-1.4,5-3.8,5c-2.3,0-3.8-1.7-3.8-4.9c0-3.2,1.5-5,3.8-5C99,120.4,100.4,122.1,100.4,125.4
				z M94.7,125.4c0,2.7,0.7,3.6,1.9,3.6c1.3,0,1.9-0.9,1.9-3.6c0-2.6-0.7-3.6-1.9-3.6C95.4,121.8,94.7,122.7,94.7,125.4z
				 M98.3,118.6l-2.9,1.1l-0.4-0.9l2.6-1.6L98.3,118.6z"/>
			<path class="st2" d="M108.4,130.1h-2.3l-2.8-7.7c0.1,0.9,0.2,2,0.2,3.8v3.9H102v-9.5h2.3l2.8,7.7c-0.1-0.5-0.2-1.9-0.2-3.2v-4.5
				h1.6V130.1z"/>
			<path class="st2" d="M46.3,135.1l-0.9,1c-0.6-0.5-1.2-0.8-1.9-0.8c-0.8,0-1.3,0.4-1.3,1.1c0,0.7,0.3,1,1.7,1.5
				c1.5,0.6,2.5,1.3,2.5,3c0,1.7-1.2,2.9-3.3,2.9c-1.4,0-2.4-0.5-3.1-1.3l0.9-1c0.6,0.6,1.3,0.9,2.2,0.9c0.9,0,1.5-0.5,1.5-1.4
				c0-0.8-0.3-1.2-1.6-1.6c-1.8-0.6-2.6-1.5-2.6-2.8c0-1.5,1.3-2.6,3-2.6C44.7,133.9,45.6,134.3,46.3,135.1z"/>
			<path class="st2" d="M55.2,138.9c0,3.2-1.4,5-3.8,5c-2.3,0-3.8-1.7-3.8-4.9c0-3.2,1.5-5,3.8-5C53.7,133.9,55.2,135.6,55.2,138.9z
				 M49.5,138.9c0,2.7,0.7,3.6,1.9,3.6c1.3,0,1.9-0.9,1.9-3.6c0-2.6-0.7-3.6-1.9-3.6C50.2,135.3,49.5,136.2,49.5,138.9z"/>
			<path class="st2" d="M62.7,134.9l-0.9,1c-0.5-0.4-1-0.6-1.6-0.6c-1.1,0-2,0.9-2,3.6c0,2.6,0.8,3.5,2,3.5c0.7,0,1.2-0.3,1.7-0.7
				l0.9,1c-0.6,0.6-1.4,1.1-2.6,1.1c-2.2,0-3.8-1.7-3.8-5c0-3.3,1.6-4.9,3.8-4.9C61.3,133.9,62,134.3,62.7,134.9z"/>
			<path class="st2" d="M65.8,143.6H64v-9.5h1.8V143.6z"/>
			<path class="st2" d="M72,141.4h-2.8l-0.5,2.2h-1.8l2.6-9.5h2.2l2.6,9.5h-1.8L72,141.4z M71.7,140.1l-1.1-4.6l-1.1,4.6H71.7z"/>
			<path class="st2" d="M77.2,142.2h3.4l-0.2,1.5h-5v-9.5h1.8V142.2z"/>
		</g>
	</g>
	<g id="Number_2_">
		<g>
			<g>
				<path class="st2" d="M17.4,137.1h-4v-18.8l-3.9,3.1l-1.8-3.2l6.1-4.7h3.7V137.1z"/>
				<path class="st2" d="M33,129c0,5.1-2.5,8.6-6.5,8.6c-4.8,0-6.8-4.4-6.8-11.4c0-8.1,3-13.2,7.8-13.2c1.7,0,3,0.6,4.1,1.5
					l-1.5,2.9c-0.8-0.6-1.5-0.9-2.5-0.9c-2.1,0-3.5,2.4-3.7,7.1c1.1-1.6,2.4-2.4,4-2.4C30.8,121.3,33,124,33,129z M26.8,124.7
					c-1,0-2,0.9-2.8,2.3c0.1,5.2,0.7,7.1,2.6,7.1c1.6,0,2.4-1.8,2.4-5C28.9,125.7,28.1,124.7,26.8,124.7z"/>
			</g>
		</g>
	</g>
</g>
<g id="Icon_2_">
	<g>
		
			<rect x="86.5" y="49.2" transform="matrix(6.249878e-03 -1 1 6.249878e-03 45.7043 145.7147)" class="st2" width="19.4" height="1.3"/>
		<rect x="53.2" y="40.2" transform="matrix(1 -7.219304e-03 7.219304e-03 1 -0.359 0.39)" class="st2" width="1.3" height="19.5"/>
		<g>
			<g>
				<rect x="59.8" y="54.3" class="st2" width="1.2" height="25.2"/>
				<rect x="88.9" y="54.3" class="st2" width="1.2" height="25.2"/>
				<rect x="74.4" y="54.3" class="st2" width="1.2" height="25.2"/>
				<rect x="81.6" y="54.3" class="st2" width="1.2" height="25.2"/>
				<rect x="67.1" y="54.3" class="st2" width="1.2" height="25.2"/>
			</g>
			<rect x="66.9" y="36.2" class="st2" width="1.2" height="15.7"/>
			<rect x="81.6" y="36.2" class="st2" width="1.2" height="15.7"/>
		</g>
		<path class="st2" d="M60.1,47.4l-4.6-8h9.3L60.1,47.4z M57.7,40.7l2.5,4.3l2.5-4.3H57.7z"/>
		<path class="st2" d="M74.9,46.8c-2,0-3.7-1.7-3.7-3.7s1.7-3.7,3.7-3.7c2,0,3.7,1.7,3.7,3.7S76.9,46.8,74.9,46.8z M74.9,40.7
			c-1.4,0-2.5,1.1-2.5,2.4s1.1,2.4,2.5,2.4s2.5-1.1,2.5-2.4S76.2,40.7,74.9,40.7z"/>
		<path class="st2" d="M92.9,46.8h-7.4v-7.4h7.4V46.8z M86.8,45.6h4.9v-4.9h-4.9V45.6z"/>
		<path class="st2" d="M75.5,30.6c-3,0-5.4-2.4-5.4-5.4c0-3,2.4-5.4,5.4-5.4s5.4,2.4,5.4,5.4C80.9,28.2,78.4,30.6,75.5,30.6z
			 M75.5,21.1c-2.3,0-4.1,1.8-4.1,4.1c0,2.3,1.9,4.1,4.1,4.1s4.1-1.8,4.1-4.1C79.6,23,77.7,21.1,75.5,21.1z"/>
		<path class="st2" d="M61.6,30.6c-3,0-5.4-2.4-5.4-5.4c0-3,2.4-5.4,5.4-5.4c3,0,5.4,2.4,5.4,5.4C67,28.2,64.5,30.6,61.6,30.6z
			 M61.6,21.1c-2.3,0-4.1,1.8-4.1,4.1c0,2.3,1.9,4.1,4.1,4.1c2.3,0,4.1-1.8,4.1-4.1C65.7,23,63.9,21.1,61.6,21.1z"/>
		<path class="st2" d="M89.4,30.6c-3,0-5.4-2.4-5.4-5.4c0-3,2.4-5.4,5.4-5.4c3,0,5.4,2.4,5.4,5.4C94.8,28.2,92.3,30.6,89.4,30.6z
			 M89.4,21.1c-2.3,0-4.1,1.8-4.1,4.1c0,2.3,1.9,4.1,4.1,4.1c2.3,0,4.1-1.8,4.1-4.1C93.5,23,91.6,21.1,89.4,21.1z"/>
		<path class="st2" d="M54.5,38.6c-1,0-2-0.4-2.9-1.1c-0.9-0.8-1.4-1.9-1.5-3c-0.1-0.9,0.2-1.7,0.8-2.3c1.3-1.4,3.7-1.4,5.3,0.1
			c0.9,0.8,1.4,1.9,1.5,2.9c0.1,0.9-0.2,1.7-0.8,2.3C56.3,38.3,55.4,38.6,54.5,38.6z M53.3,32.4c-0.6,0-1.1,0.2-1.5,0.6
			c-0.4,0.5-0.5,1-0.5,1.4c0,0.8,0.4,1.5,1.1,2.1c1.2,1,2.8,1.1,3.6,0.2c0.3-0.4,0.5-0.9,0.5-1.4c0-0.8-0.4-1.5-1.1-2.1h0
			C54.8,32.7,54,32.4,53.3,32.4z"/>
		<path class="st2" d="M92.9,80.1H57.1c-1.6,0-2.9-1.2-3-2.8L53.3,59c0-0.9-0.8-1.6-1.7-1.6c-1.6,0-3-1.3-3-3V40
			c0-1.8,0.7-3.5,2-4.8l0.6-0.6l0.4,0.8c0.2,0.4,0.5,0.8,0.8,1.1c1.2,1,2.8,1.1,3.6,0.2c0.5-0.6,0.6-1.6,0.2-2.5l-0.4-0.9h38.5
			l-0.4,0.9c-0.5,0.9-0.4,1.9,0.2,2.5c0.8,0.9,2.4,0.8,3.6-0.2c0.3-0.3,0.6-0.7,0.8-1.1l0.4-0.8l0.6,0.6c1.3,1.3,2,2.9,2,4.7v14.4
			c0,1.6-1.3,3-3,3c-0.9,0-1.7,0.7-1.7,1.6l-0.9,18.3C95.7,78.9,94.4,80.1,92.9,80.1z M50.9,36.7c-0.7,0.9-1.1,2.1-1.1,3.2v14.4
			c0,0.9,0.8,1.7,1.7,1.7c1.6,0,2.9,1.2,3,2.8l0.9,18.3c0,0.9,0.8,1.6,1.7,1.6h35.7c0.9,0,1.7-0.7,1.7-1.6l0.9-18.3
			c0.1-1.6,1.4-2.8,3-2.8c0.9,0,1.7-0.8,1.7-1.7V40c0-1.2-0.4-2.3-1.1-3.2c-0.2,0.3-0.4,0.5-0.7,0.7c-1.7,1.5-4.1,1.5-5.3,0.1
			c-0.7-0.8-0.9-1.9-0.7-3H57.6c0.3,1.1,0,2.2-0.7,3c-1.3,1.4-3.7,1.4-5.3-0.1C51.4,37.2,51.1,37,50.9,36.7z"/>
		<path class="st2" d="M95.5,38.6c-0.9,0-1.8-0.3-2.4-1c-0.6-0.6-0.8-1.4-0.8-2.3c0.1-1.1,0.6-2.2,1.5-2.9c1.7-1.5,4.1-1.5,5.3-0.1
			c0.6,0.6,0.8,1.4,0.8,2.3c-0.1,1.1-0.6,2.2-1.5,3C97.5,38.2,96.5,38.6,95.5,38.6z M96.7,32.4c-0.7,0-1.4,0.3-2.1,0.8
			c-0.6,0.6-1,1.3-1.1,2.1c0,0.6,0.1,1.1,0.5,1.4c0.8,0.9,2.4,0.8,3.6-0.2c0.6-0.6,1-1.3,1.1-2.1c0-0.4,0-1-0.5-1.4
			C97.8,32.6,97.3,32.4,96.7,32.4z"/>
	</g>
</g>
</svg>
