<?xml version="1.0" encoding="UTF-8" standalone="no"?>
<!DOCTYPE svg PUBLIC "-//W3C//DTD SVG 1.1//EN" "http://www.w3.org/Graphics/SVG/1.1/DTD/svg11.dtd">
<svg xmlns="http://www.w3.org/2000/svg" xmlns:xlink="http://www.w3.org/1999/xlink" version="1.1" width="178.238pt" height="192.254pt" viewBox="0 0 178.238 192.254">
<g enable-background="new">
<path transform="matrix(1,0,0,-1,0,192.254)" d="M 0 0 L 178.238 0 L 178.238 192.254 L 0 192.254 Z " fill="#dd1367"/>
<text fill="#ffffff" xml:space="preserve" transform="matrix(1 0 -0 1 0 192.254)" font-size="13" font-family="SemplicitaPro" font-weight="bold"><tspan y="-28.7178" x="34.3955 38.2695 49.4105 57.3015 65.0235 73.2005 84.3415 94.0525 101.9435 105.8175 117.6085 128.7495 138.4605 145.5585">INTERNATIONAL </tspan><tspan y="-13.1178" x="40.739503 50.6455 62.4365 74.2275 82.027507 89.749507 97.926509 107.637508 115.5285 119.402507 131.19351">COOPERATION</tspan></text>
<path transform="matrix(1,0,0,-1,76.2363,118.7708)" stroke-width="1.089" stroke-linecap="butt" stroke-miterlimit="10" stroke-linejoin="miter" fill="none" stroke="#ffffff" d="M 0 0 L 25.766 0 L 25.766 -18.864 L 0 -18.864 L 2.38 -9.422 L 0 0 Z "/>
<path transform="matrix(1,0,0,-1,102.002,137.635)" stroke-width="1.089" stroke-linecap="butt" stroke-miterlimit="10" stroke-linejoin="miter" fill="none" stroke="#ffffff" d="M 0 0 L 0 33.508 "/>
<path transform="matrix(1,0,0,-1,102.002,47.607698)" stroke-width="1.089" stroke-linecap="butt" stroke-miterlimit="10" stroke-linejoin="miter" fill="none" stroke="#ffffff" d="M 0 0 L -25.766 0 L -25.766 18.864 L 0 18.864 L -2.381 9.422 L 0 0 Z "/>
<path transform="matrix(1,0,0,-1,76.2363,28.743393)" stroke-width="1.089" stroke-linecap="butt" stroke-miterlimit="10" stroke-linejoin="miter" fill="none" stroke="#ffffff" d="M 0 0 L 0 -33.508 "/>
<path transform="matrix(1,0,0,-1,124.7002,96.072498)" stroke-width="1.089" stroke-linecap="butt" stroke-miterlimit="10" stroke-linejoin="miter" fill="none" stroke="#ffffff" d="M 0 0 L 0 25.766 L 18.864 25.766 L 18.864 0 L 9.422 2.38 L 0 0 Z "/>
<path transform="matrix(1,0,0,-1,143.5645,70.3064)" stroke-width="1.089" stroke-linecap="butt" stroke-miterlimit="10" stroke-linejoin="miter" fill="none" stroke="#ffffff" d="M 0 0 L -33.508 0 "/>
<path transform="matrix(1,0,0,-1,53.5371,70.3064)" stroke-width="1.089" stroke-linecap="butt" stroke-miterlimit="10" stroke-linejoin="miter" fill="none" stroke="#ffffff" d="M 0 0 L 0 -25.766 L -18.864 -25.766 L -18.864 0 L -9.422 -2.38 L 0 0 Z "/>
<path transform="matrix(1,0,0,-1,34.6729,96.072498)" stroke-width="1.089" stroke-linecap="butt" stroke-miterlimit="10" stroke-linejoin="miter" fill="none" stroke="#ffffff" d="M 0 0 L 33.508 0 "/>
<path transform="matrix(1,0,0,-1,105.1689,117.4588)" stroke-width="1.089" stroke-linecap="butt" stroke-miterlimit="10" stroke-linejoin="miter" fill="none" stroke="#ffffff" d="M 0 0 L 18.22 18.219 L 31.559 4.88 L 13.34 -13.339 L 8.346 -4.979 L 0 0 Z "/>
<path transform="matrix(1,0,0,-1,136.7275,112.578899)" stroke-width="1.089" stroke-linecap="butt" stroke-miterlimit="10" stroke-linejoin="miter" fill="none" stroke="#ffffff" d="M 0 0 L -23.693 23.694 "/>
<path transform="matrix(1,0,0,-1,73.0684,48.919694)" stroke-width="1.089" stroke-linecap="butt" stroke-miterlimit="10" stroke-linejoin="miter" fill="none" stroke="#ffffff" d="M 0 0 L -18.219 -18.219 L -31.559 -4.88 L -13.339 13.339 L -8.346 4.979 L 0 0 Z "/>
<path transform="matrix(1,0,0,-1,41.5098,53.800096)" stroke-width="1.089" stroke-linecap="butt" stroke-miterlimit="10" stroke-linejoin="miter" fill="none" stroke="#ffffff" d="M 0 0 L 23.694 -23.693 "/>
<path transform="matrix(1,0,0,-1,123.3887,67.1389)" stroke-width="1.089" stroke-linecap="butt" stroke-miterlimit="10" stroke-linejoin="miter" fill="none" stroke="#ffffff" d="M 0 0 L -18.22 18.219 L -4.88 31.558 L 13.339 13.339 L 4.979 8.345 L 0 0 Z "/>
<path transform="matrix(1,0,0,-1,118.5088,35.580797)" stroke-width="1.089" stroke-linecap="butt" stroke-miterlimit="10" stroke-linejoin="miter" fill="none" stroke="#ffffff" d="M 0 0 L -23.694 -23.693 "/>
<path transform="matrix(1,0,0,-1,54.8496,99.239498)" stroke-width="1.089" stroke-linecap="butt" stroke-miterlimit="10" stroke-linejoin="miter" fill="none" stroke="#ffffff" d="M 0 0 L 18.219 -18.219 L 4.88 -31.559 L -13.34 -13.339 L -4.979 -8.346 L 0 0 Z "/>
<path transform="matrix(1,0,0,-1,59.7295,130.7981)" stroke-width="1.089" stroke-linecap="butt" stroke-miterlimit="10" stroke-linejoin="miter" fill="none" stroke="#ffffff" d="M 0 0 L 23.693 23.694 "/>
<clipPath id="cp0">
<path transform="matrix(1,0,0,-1,0,192.254)" d="M 0 192.254 L 178.238 192.254 L 178.238 0 L 0 0 Z "/>
</clipPath>
<g clip-path="url(#cp0)">
<path transform="matrix(1,0,0,-1,113.3174,83.307399)" stroke-width="1.089" stroke-linecap="butt" stroke-miterlimit="10" stroke-linejoin="miter" fill="none" stroke="#ffffff" d="M 0 0 C 0 -13.364 -10.834 -24.198 -24.198 -24.198 C -37.563 -24.198 -48.396 -13.364 -48.396 0 C -48.396 13.365 -37.563 24.198 -24.198 24.198 C -10.834 24.198 0 13.365 0 0 Z "/>
</g>
</g>
</svg>
