<?xml version="1.0" encoding="UTF-8" standalone="no"?>
<!DOCTYPE svg PUBLIC "-//W3C//DTD SVG 1.1//EN" "http://www.w3.org/Graphics/SVG/1.1/DTD/svg11.dtd">
<svg xmlns="http://www.w3.org/2000/svg" xmlns:xlink="http://www.w3.org/1999/xlink" version="1.1" width="178.238pt" height="192.254pt" viewBox="0 0 178.238 192.254">
<g enable-background="new">
<path transform="matrix(1,0,0,-1,0,192.254)" d="M 0 0 L 178.238 0 L 178.238 192.254 L 0 192.254 Z " fill="#ffc30b"/>
<clipPath id="cp0">
<path transform="matrix(1,0,0,-1,0,192.254)" d="M 0 192.254 L 178.238 192.254 L 178.238 0 L 0 0 Z "/>
</clipPath>
<g clip-path="url(#cp0)">
<path transform="matrix(1,0,0,-1,47.5928,117.466098)" stroke-width="1.089" stroke-linecap="butt" stroke-miterlimit="10" stroke-linejoin="miter" fill="none" stroke="#ffffff" d="M 0 0 C 3.518 -4.331 7.683 -8.108 12.352 -11.192 M -9.629 17.815 C -7.898 12.367 -5.336 7.29 -2.085 2.732 M -12.063 37.837 C -12.136 36.664 -12.181 35.48 -12.181 34.286 C -12.181 29.747 -11.617 25.335 -10.57 21.12 M 15.272 -12.996 C 20.081 -15.749 25.34 -17.787 30.912 -18.975 M 34.29 -19.585 C 36.896 -19.966 39.557 -20.169 42.266 -20.169 C 45.271 -20.169 48.22 -19.922 51.092 -19.453 M 95.113 21.188 C 96.155 25.384 96.711 29.772 96.711 34.286 C 96.711 35.408 96.674 36.52 96.605 37.628 M 54.461 -18.791 C 59.939 -17.532 65.105 -15.442 69.815 -12.664 M 87.004 3.289 C 90.085 7.72 92.521 12.628 94.185 17.882 M 72.723 -10.833 C 77.36 -7.69 81.488 -3.852 84.959 .532 M 90.244 60.006 C 87.609 64.902 84.25 69.351 80.307 73.203 M 96.293 41.046 C 95.595 46.648 94.045 51.99 91.772 56.933 M 77.78 75.529 C 73.554 79.174 68.761 82.183 63.558 84.404 M 60.36 85.65 C 55.281 87.444 49.864 88.506 44.228 88.704 M 21.239 84.515 C 16.124 82.367 11.41 79.458 7.231 75.934 M 4.67 73.641 C .645 69.794 -2.789 65.332 -5.488 60.415 M 40.795 88.723 C 35.081 88.571 29.592 87.529 24.445 85.744 M -7.045 57.353 C -9.394 52.352 -11.004 46.94 -11.736 41.258 "/>
<path transform="matrix(1,0,0,-1,67.3203,101.165798)" stroke-width="1.089" stroke-linecap="butt" stroke-miterlimit="10" stroke-linejoin="miter" fill="none" stroke="#ffffff" d="M 0 0 L 43.895 0 "/>
<path transform="matrix(1,0,0,-1,107.6074,105.6189)" d="M 0 0 L -.744 .797 L 3.189 4.452 L -.744 8.108 L 0 8.906 L 4.789 4.452 Z " fill="#ffffff"/>
</g>
<text fill="#ffffff" xml:space="preserve" transform="matrix(1 0 -0 1 0 192.254)" font-size="32.6675" font-family="SemplicitaPro"><tspan y="-104.6309" x="53.332 70.3485 89.262989 105.94628">2030</tspan></text>
<text fill="#ffffff" xml:space="preserve" transform="matrix(1 0 -0 1 0 192.254)" font-size="13" font-family="SemplicitaPro" font-weight="bold"><tspan y="-27.8213" x="43.2637 50.946699 61.008699 68.691699 76.582698 86.29369 90.167697 101.30869 111.01969 119.36569 126.46369 134.1857">SUSTAINABLE </tspan><tspan y="-12.2213" x="38.3107 48.1907 55.9127 65.1557 72.8777 79.9757 91.7667 99.5667 112.384708 120.106708 131.24771 139.13872">DEVELOPMENT </tspan></text>
</g>
</svg>
