<?xml version="1.0" encoding="UTF-8" standalone="no"?>
<!DOCTYPE svg PUBLIC "-//W3C//DTD SVG 1.1//EN" "http://www.w3.org/Graphics/SVG/1.1/DTD/svg11.dtd">
<svg xmlns="http://www.w3.org/2000/svg" xmlns:xlink="http://www.w3.org/1999/xlink" version="1.1" width="178.238pt" height="192.254pt" viewBox="0 0 178.238 192.254">
<g enable-background="new">
<path transform="matrix(1,0,0,-1,0,192.254)" d="M 0 0 L 178.238 0 L 178.238 192.254 L 0 192.254 Z " fill="#086ba0"/>
<clipPath id="cp0">
<path transform="matrix(1,0,0,-1,0,192.254)" d="M 0 192.254 L 178.238 192.254 L 178.238 0 L 0 0 Z "/>
</clipPath>
<g clip-path="url(#cp0)">
<path transform="matrix(1,0,0,-1,80.1719,137.6492)" stroke-width="1.089" stroke-linecap="butt" stroke-miterlimit="10" stroke-linejoin="miter" fill="none" stroke="#ffffff" d="M 0 0 L 6.247 12.665 C 4.427 12.704 2.646 12.893 .888 13.15 "/>
<path transform="matrix(1,0,0,-1,59.4473,114.782)" stroke-width="1.089" stroke-linecap="butt" stroke-miterlimit="10" stroke-linejoin="miter" fill="none" stroke="#ffffff" d="M 0 0 C 0 0 1.976 -1.584 3.012 -2.314 "/>
<path transform="matrix(1,0,0,-1,46.0713,94.730197)" stroke-width="1.089" stroke-linecap="butt" stroke-miterlimit="10" stroke-linejoin="miter" fill="none" stroke="#ffffff" d="M 0 0 C .418 -1.316 .893 -2.604 1.429 -3.862 "/>
<path transform="matrix(1,0,0,-1,45.2119,71.485599)" stroke-width="1.089" stroke-linecap="butt" stroke-miterlimit="10" stroke-linejoin="miter" fill="none" stroke="#ffffff" d="M 0 0 C -.234 -.989 -.433 -1.99 -.599 -3.004 "/>
<path transform="matrix(1,0,0,-1,56.6709,50.905504)" stroke-width="1.089" stroke-linecap="butt" stroke-miterlimit="10" stroke-linejoin="miter" fill="none" stroke="#ffffff" d="M 0 0 C -.671 -.675 -1.321 -1.371 -1.947 -2.089 "/>
<path transform="matrix(1,0,0,-1,94.9004,137.6492)" stroke-width="1.089" stroke-linecap="butt" stroke-miterlimit="10" stroke-linejoin="miter" fill="none" stroke="#ffffff" d="M 0 0 L -6.248 12.665 C -4.427 12.704 -2.646 12.893 -.888 13.15 "/>
<path transform="matrix(1,0,0,-1,115.625,114.782)" stroke-width="1.089" stroke-linecap="butt" stroke-miterlimit="10" stroke-linejoin="miter" fill="none" stroke="#ffffff" d="M 0 0 C 0 0 -1.976 -1.584 -3.013 -2.314 "/>
<path transform="matrix(1,0,0,-1,129.001,94.730197)" stroke-width="1.089" stroke-linecap="butt" stroke-miterlimit="10" stroke-linejoin="miter" fill="none" stroke="#ffffff" d="M 0 0 C -.418 -1.316 -.893 -2.604 -1.429 -3.862 "/>
<path transform="matrix(1,0,0,-1,129.8594,71.485599)" stroke-width="1.089" stroke-linecap="butt" stroke-miterlimit="10" stroke-linejoin="miter" fill="none" stroke="#ffffff" d="M 0 0 C .234 -.989 .434 -1.99 .6 -3.004 "/>
<path transform="matrix(1,0,0,-1,118.4014,50.905504)" stroke-width="1.089" stroke-linecap="butt" stroke-miterlimit="10" stroke-linejoin="miter" fill="none" stroke="#ffffff" d="M 0 0 C .671 -.675 1.32 -1.371 1.946 -2.089 "/>
<path transform="matrix(1,0,0,-1,67.0391,116.424098)" stroke-width="1.089" stroke-linecap="butt" stroke-miterlimit="10" stroke-linejoin="miter" fill="none" stroke="#ffffff" d="M 0 0 C -6.018 0 -11.258 -3.283 -14.071 -8.151 C -11.258 -13.019 -6.018 -16.302 0 -16.302 C 6.017 -16.302 11.257 -13.019 14.07 -8.151 C 11.257 -3.283 6.017 0 0 0 Z M 40.967 0 C 34.949 0 29.709 -3.283 26.896 -8.151 C 29.709 -13.019 34.949 -16.302 40.967 -16.302 C 46.983 -16.302 52.224 -13.019 55.037 -8.151 C 52.224 -3.283 46.983 0 40.967 0 Z M -15.264 15.997 C -20.391 19.154 -26.57 19.106 -31.51 16.434 C -31.655 10.81 -28.904 5.263 -23.777 2.107 C -18.65 -1.05 -12.471 -1.001 -7.531 1.67 C -7.386 7.294 -10.137 12.841 -15.264 15.997 Z M 74.069 46.855 C 68.467 46.514 63.191 43.287 60.497 37.896 C 57.803 32.503 58.385 26.336 61.468 21.635 C 67.07 21.977 72.346 25.204 75.04 30.596 C 77.734 35.988 77.152 42.154 74.069 46.855 Z M 56.229 15.997 C 51.104 12.841 48.352 7.294 48.497 1.67 C 53.437 -1.001 59.616 -1.05 64.743 2.107 C 69.87 5.263 72.621 10.81 72.477 16.434 C 67.537 19.106 61.356 19.154 56.229 15.997 Z M -21.525 44.686 C -16.393 46.962 -12.569 51.829 -11.919 57.824 C -11.268 63.819 -13.957 69.396 -18.481 72.727 C -23.614 70.45 -27.437 65.583 -28.088 59.587 C -28.739 53.592 -26.05 48.016 -21.525 44.686 Z M 51.302 65.416 C 53.327 70.663 52.599 76.814 48.83 81.516 C 45.063 86.217 39.227 88.256 33.678 87.407 C 31.653 82.16 32.382 76.008 36.15 71.307 C 39.918 66.605 45.754 64.566 51.302 65.416 Z M 62.491 44.686 C 67.016 48.016 69.705 53.592 69.054 59.587 C 68.403 65.583 64.58 70.45 59.447 72.727 C 54.923 69.396 52.233 63.819 52.885 57.824 C 53.535 51.829 57.358 46.962 62.491 44.686 Z M 4.816 71.307 C 8.584 76.008 9.313 82.16 7.288 87.407 C 1.739 88.256 -4.097 86.217 -7.864 81.516 C -11.633 76.814 -12.36 70.663 -10.336 65.416 C -4.788 64.566 1.048 66.605 4.816 71.307 Z M -19.531 37.896 C -22.226 43.287 -27.501 46.514 -33.104 46.855 C -36.187 42.154 -36.769 35.988 -34.074 30.596 C -31.38 25.204 -26.104 21.977 -20.502 21.635 C -17.419 26.336 -16.837 32.503 -19.531 37.896 Z "/>
<path transform="matrix(1,0,0,-1,87.5449,53.970506)" stroke-width="1.089" stroke-linecap="butt" stroke-miterlimit="10" stroke-linejoin="miter" fill="none" stroke="#ffffff" d="M 0 0 C -15.481 0 -28.031 -12.55 -28.031 -28.031 C -28.031 -37.289 -23.541 -45.496 -16.623 -50.6 C -14.178 -46.98 -10.038 -44.601 -5.342 -44.601 L -.022 -44.601 L 5.297 -44.601 C 10.002 -44.601 14.148 -46.991 16.592 -50.623 C 23.527 -45.52 28.031 -37.303 28.031 -28.031 C 28.031 -12.55 15.481 0 0 0 Z "/>
<path transform="matrix(1,0,0,-1,87.5225,91.717998)" stroke-width="1.089" stroke-linecap="butt" stroke-miterlimit="10" stroke-linejoin="miter" fill="none" stroke="#ffffff" d="M 0 0 C 6.398 0 11.586 5.187 11.586 11.585 C 11.586 17.984 6.398 23.171 0 23.171 C -6.398 23.171 -11.586 17.984 -11.586 11.585 C -11.586 5.187 -6.398 0 0 0 Z "/>
</g>
<text fill="#ffffff" xml:space="preserve" transform="matrix(1 0 -0 1 0 192.254)" font-size="13" font-family="SemplicitaPro" font-weight="bold"><tspan y="-18.2173" x="37.2305 47.4225 57.4845 70.302509 80.013507 91.1545 94.274509 102.45151 106.32551 117.37551 127.56751 135.45851">HUMAN RIGHTS</tspan></text>
</g>
</svg>
