<?xml version="1.0" encoding="UTF-8" standalone="no"?>
<svg
   xmlns:dc="http://purl.org/dc/elements/1.1/"
   xmlns:cc="http://creativecommons.org/ns#"
   xmlns:rdf="http://www.w3.org/1999/02/22-rdf-syntax-ns#"
   xmlns:svg="http://www.w3.org/2000/svg"
   xmlns="http://www.w3.org/2000/svg"
   viewBox="0 0 237.65067 256.33868"
   height="256.33868"
   width="237.65067"
   xml:space="preserve"
   id="svg2"
   version="1.1"><metadata
     id="metadata8"><rdf:RDF><cc:Work
         rdf:about=""><dc:format>image/svg+xml</dc:format><dc:type
           rdf:resource="http://purl.org/dc/dcmitype/StillImage" /></cc:Work></rdf:RDF></metadata><defs
     id="defs6"><clipPath
       id="clipPath24"
       clipPathUnits="userSpaceOnUse"><path
         id="path22"
         d="M 0,192.254 H 178.238 V 0 H 0 Z" /></clipPath></defs><g
     transform="matrix(1.3333333,0,0,-1.3333333,0,256.33867)"
     id="g10"><path
       id="path12"
       style="fill:#36bea5;fill-opacity:1;fill-rule:nonzero;stroke:none"
       d="M 0,0 H 178.238 V 192.254 H 0 Z" /><text
       id="text16"
       style="font-variant:normal;font-weight:600;font-stretch:normal;font-size:13px;font-family:SemplicitaPro;-inkscape-font-specification:SemplicitaPro-Semibold;writing-mode:lr-tb;fill:#ffffff;fill-opacity:1;fill-rule:nonzero;stroke:none"
       transform="matrix(1,0,0,-1,33.6377,19.124)"><tspan
         id="tspan14"
         y="0"
         x="0 9.9060001 20.098 23.972 31.07 40.950001 46.527 54.209999 61.931999 73.072998 80.755997 84.629997 92.521004 96.394997 105.638">CHILD-SENSITIVE</tspan></text>
<g
       id="g18"><g
         clip-path="url(#clipPath24)"
         id="g20"><g
           transform="translate(35.5498,106.0794)"
           id="g26"><path
             id="path28"
             style="fill:none;stroke:#ffffff;stroke-width:1.08899999;stroke-linecap:butt;stroke-linejoin:miter;stroke-miterlimit:10;stroke-dasharray:none;stroke-opacity:1"
             d="M 0,0 C -0.771,14.866 4.519,29.985 15.873,41.34 27.224,52.69 42.344,57.98 57.209,57.209" /></g><g
           transform="translate(101.7832,162.0526)"
           id="g30"><path
             id="path32"
             style="fill:none;stroke:#ffffff;stroke-width:1.08899999;stroke-linecap:butt;stroke-linejoin:miter;stroke-miterlimit:10;stroke-dasharray:none;stroke-opacity:1"
             d="m 0,0 c 9.757,-2.167 19.026,-7.043 26.616,-14.633 21.259,-21.258 21.254,-55.723 0,-76.977 -21.258,-21.258 -55.722,-21.262 -76.98,-0.004 -7.59,7.59 -12.467,16.86 -14.633,26.616" /></g><g
           transform="translate(114.8252,64.4022)"
           id="g34"><path
             id="path36"
             style="fill:#36bea5;fill-opacity:1;fill-rule:nonzero;stroke:none"
             d="m 0,0 c -6.493,6.493 -6.493,17.02 0,23.513 6.492,6.492 17.02,6.492 23.513,0 C 30.005,17.02 30.005,6.493 23.513,0 17.02,-6.493 6.492,-6.493 0,0" /></g><g
           transform="translate(114.8252,64.4022)"
           id="g38"><path
             id="path40"
             style="fill:none;stroke:#ffffff;stroke-width:1.08899999;stroke-linecap:butt;stroke-linejoin:miter;stroke-miterlimit:10;stroke-dasharray:none;stroke-opacity:1"
             d="m 0,0 c -6.493,6.493 -6.493,17.02 0,23.513 6.492,6.492 17.02,6.492 23.513,0 C 30.005,17.02 30.005,6.493 23.513,0 17.02,-6.493 6.492,-6.493 0,0 Z" /></g><g
           transform="translate(45.5273,142.1654)"
           id="g42"><path
             id="path44"
             style="fill:#36bea5;fill-opacity:1;fill-rule:nonzero;stroke:none"
             d="m 0,0 c -3.399,3.398 -3.399,8.909 0,12.307 3.398,3.399 8.908,3.399 12.307,0 C 15.705,8.909 15.705,3.398 12.307,0 8.908,-3.399 3.398,-3.399 0,0" /></g><g
           transform="translate(45.5273,142.1654)"
           id="g46"><path
             id="path48"
             style="fill:none;stroke:#ffffff;stroke-width:1.08899999;stroke-linecap:butt;stroke-linejoin:miter;stroke-miterlimit:10;stroke-dasharray:none;stroke-opacity:1"
             d="m 0,0 c -3.399,3.398 -3.399,8.909 0,12.307 3.398,3.399 8.908,3.399 12.307,0 C 15.705,8.909 15.705,3.398 12.307,0 8.908,-3.399 3.398,-3.399 0,0 Z" /></g></g></g></g></svg>