<?xml version="1.0" encoding="UTF-8" standalone="no"?>
<svg
   xmlns:dc="http://purl.org/dc/elements/1.1/"
   xmlns:cc="http://creativecommons.org/ns#"
   xmlns:rdf="http://www.w3.org/1999/02/22-rdf-syntax-ns#"
   xmlns:svg="http://www.w3.org/2000/svg"
   xmlns="http://www.w3.org/2000/svg"
   viewBox="0 0 237.65067 256.33868"
   height="256.33868"
   width="237.65067"
   xml:space="preserve"
   id="svg2"
   version="1.1"><metadata
     id="metadata8"><rdf:RDF><cc:Work
         rdf:about=""><dc:format>image/svg+xml</dc:format><dc:type
           rdf:resource="http://purl.org/dc/dcmitype/StillImage" /></cc:Work></rdf:RDF></metadata><defs
     id="defs6"><clipPath
       id="clipPath20"
       clipPathUnits="userSpaceOnUse"><path
         id="path18"
         d="M 0,192.254 H 178.238 V 0 H 0 Z" /></clipPath></defs><g
     transform="matrix(1.3333333,0,0,-1.3333333,0,256.33867)"
     id="g10"><path
       id="path12"
       style="fill:#46bf68;fill-opacity:1;fill-rule:nonzero;stroke:none"
       d="M 0,0 H 178.238 V 192.254 H 0 Z" /><g
       id="g14"><g
         clip-path="url(#clipPath20)"
         id="g16"><g
           transform="translate(101.1406,130.036)"
           id="g22"><path
             id="path24"
             style="fill:none;stroke:#ffffff;stroke-width:1.08899999;stroke-linecap:butt;stroke-linejoin:miter;stroke-miterlimit:10;stroke-dasharray:none;stroke-opacity:1"
             d="M 0,0 C 22.979,-0.625 41.415,-19.45 41.415,-42.58" /></g><g
           transform="translate(104.5186,125.3626)"
           id="g26"><path
             id="path28"
             style="fill:#ffffff;fill-opacity:1;fill-rule:nonzero;stroke:none"
             d="M 0,0 0.782,0.759 -2.962,4.608 1.15,8.061 0.449,8.895 -4.559,4.688 Z" /></g><g
           transform="translate(75.6719,87.4725)"
           id="g30"><path
             id="path32"
             style="fill:none;stroke:#ffffff;stroke-width:1.08899999;stroke-linecap:butt;stroke-linejoin:miter;stroke-miterlimit:10;stroke-dasharray:none;stroke-opacity:1"
             d="M 0,0 C -22.979,0.625 -41.414,19.45 -41.414,42.58" /></g><g
           transform="translate(72.2949,92.1453)"
           id="g34"><path
             id="path36"
             style="fill:#ffffff;fill-opacity:1;fill-rule:nonzero;stroke:none"
             d="m 0,0 -0.782,-0.759 3.743,-3.848 -4.111,-3.454 0.701,-0.834 5.008,4.207 z" /></g><g
           transform="translate(67.125,121.4886)"
           id="g38"><path
             id="path40"
             style="fill:none;stroke:#ffffff;stroke-width:1.08899999;stroke-linecap:butt;stroke-linejoin:miter;stroke-miterlimit:10;stroke-dasharray:none;stroke-opacity:1"
             d="M 0,0 C 0.625,22.979 19.449,41.415 42.58,41.415" /></g><g
           transform="translate(71.7979,124.866)"
           id="g42"><path
             id="path44"
             style="fill:#ffffff;fill-opacity:1;fill-rule:nonzero;stroke:none"
             d="M 0,0 -0.759,0.782 -4.607,-2.961 -8.061,1.151 -8.895,0.449 -4.688,-4.559 Z" /></g><g
           transform="translate(109.6885,96.0199)"
           id="g46"><path
             id="path48"
             style="fill:none;stroke:#ffffff;stroke-width:1.08899999;stroke-linecap:butt;stroke-linejoin:miter;stroke-miterlimit:10;stroke-dasharray:none;stroke-opacity:1"
             d="M 0,0 C -0.626,-22.979 -19.45,-41.415 -42.58,-41.415" /></g><g
           transform="translate(105.0156,92.6424)"
           id="g50"><path
             id="path52"
             style="fill:#ffffff;fill-opacity:1;fill-rule:nonzero;stroke:none"
             d="M 0,0 0.759,-0.782 4.607,2.961 8.061,-1.151 8.895,-0.449 4.687,4.558 Z" /></g><g
           transform="translate(133.5312,108.7542)"
           id="g54"><path
             id="path56"
             style="fill:none;stroke:#ffffff;stroke-width:1.08899999;stroke-linecap:butt;stroke-linejoin:miter;stroke-miterlimit:10;stroke-dasharray:none;stroke-opacity:1"
             d="m 0,0 c 0,-24.921 -20.203,-45.125 -45.125,-45.125 -24.921,0 -45.124,20.204 -45.124,45.125 0,24.921 20.203,45.125 45.124,45.125 C -20.203,45.125 0,24.921 0,0 Z" /></g></g></g><text
       id="text62"
       style="font-variant:normal;font-weight:600;font-stretch:normal;font-size:13px;font-family:SemplicitaPro;-inkscape-font-specification:SemplicitaPro-Semibold;writing-mode:lr-tb;fill:#ffffff;fill-opacity:1;fill-rule:nonzero;stroke:none"
       transform="matrix(0.95,0,0,-1,6.8623,25.4106)"><tspan
         id="tspan58"
         y="0"
         x="0 13.598 23.465 34.931 41.703999 49.101002 54.353001 65.819 72.540001 77.792 88.516998 99.983002 108.901 116.298 124.15 134.966 147.459 154.856 165.672 173.23801">WHOLE-OF-GOVERNMENT </tspan><tspan
         id="tspan60"
         y="15.249"
         x="51.765999 61.152 68.626999 76.101997 83.954002 95.419998 104.806 114.387">APPROACH</tspan></text>
</g></svg>