<?xml version="1.0" encoding="UTF-8" standalone="no"?>
<svg
   xmlns:dc="http://purl.org/dc/elements/1.1/"
   xmlns:cc="http://creativecommons.org/ns#"
   xmlns:rdf="http://www.w3.org/1999/02/22-rdf-syntax-ns#"
   xmlns:svg="http://www.w3.org/2000/svg"
   xmlns="http://www.w3.org/2000/svg"
   viewBox="0 0 237.65067 256.33868"
   height="256.33868"
   width="237.65067"
   xml:space="preserve"
   id="svg2"
   version="1.1"><metadata
     id="metadata8"><rdf:RDF><cc:Work
         rdf:about=""><dc:format>image/svg+xml</dc:format><dc:type
           rdf:resource="http://purl.org/dc/dcmitype/StillImage" /></cc:Work></rdf:RDF></metadata><defs
     id="defs6"><clipPath
       id="clipPath20"
       clipPathUnits="userSpaceOnUse"><path
         id="path18"
         d="M 0,192.254 H 178.238 V 0 H 0 Z" /></clipPath></defs><g
     transform="matrix(1.3333333,0,0,-1.3333333,0,256.33867)"
     id="g10"><path
       id="path12"
       style="fill:#55bf2a;fill-opacity:1;fill-rule:nonzero;stroke:none"
       d="M 0,0 H 178.238 V 192.254 H 0 Z" /><g
       id="g14"><g
         clip-path="url(#clipPath20)"
         id="g16"><g
           transform="translate(47.9316,114.1024)"
           id="g22"><path
             id="path24"
             style="fill:none;stroke:#ffffff;stroke-width:1.08899999;stroke-linecap:butt;stroke-linejoin:miter;stroke-miterlimit:10;stroke-dasharray:none;stroke-opacity:1"
             d="m 0,0 c 3.032,-3.033 3.032,-7.95 0,-10.983 -3.033,-3.033 -7.951,-3.033 -10.983,0 -3.034,3.033 -3.034,7.95 0,10.983 3.032,3.033 7.95,3.033 10.983,0 z" /></g><g
           transform="translate(94.6104,160.7821)"
           id="g26"><path
             id="path28"
             style="fill:none;stroke:#ffffff;stroke-width:1.08899999;stroke-linecap:butt;stroke-linejoin:miter;stroke-miterlimit:10;stroke-dasharray:none;stroke-opacity:1"
             d="m 0,0 c 3.033,-3.033 3.033,-7.95 0,-10.983 -3.032,-3.034 -7.95,-3.034 -10.983,0 -3.033,3.033 -3.033,7.95 0,10.983 C -7.95,3.033 -3.032,3.033 0,0 Z" /></g><g
           transform="translate(71.2705,137.4422)"
           id="g30"><path
             id="path32"
             style="fill:none;stroke:#ffffff;stroke-width:1.08899999;stroke-linecap:butt;stroke-linejoin:miter;stroke-miterlimit:10;stroke-dasharray:none;stroke-opacity:1"
             d="m 0,0 c 3.033,-3.033 3.033,-7.95 0,-10.983 -3.032,-3.033 -7.95,-3.033 -10.983,0 -3.033,3.033 -3.033,7.95 0,10.983 C -7.95,3.033 -3.032,3.033 0,0 Z" /></g><g
           transform="translate(71.2705,90.763)"
           id="g34"><path
             id="path36"
             style="fill:none;stroke:#ffffff;stroke-width:1.08899999;stroke-linecap:butt;stroke-linejoin:miter;stroke-miterlimit:10;stroke-dasharray:none;stroke-opacity:1"
             d="m 0,0 c 3.033,-3.033 3.033,-7.951 0,-10.983 -3.032,-3.034 -7.95,-3.034 -10.983,0 -3.033,3.032 -3.033,7.95 0,10.983 C -7.95,3.033 -3.032,3.033 0,0 Z" /></g><g
           transform="translate(117.9502,137.4422)"
           id="g38"><path
             id="path40"
             style="fill:none;stroke:#ffffff;stroke-width:1.08899999;stroke-linecap:butt;stroke-linejoin:miter;stroke-miterlimit:10;stroke-dasharray:none;stroke-opacity:1"
             d="m 0,0 c 3.033,-3.033 3.033,-7.95 0,-10.983 -3.033,-3.033 -7.95,-3.033 -10.983,0 -3.034,3.033 -3.034,7.95 0,10.983 C -7.95,3.033 -3.033,3.033 0,0 Z" /></g><g
           transform="translate(94.6104,67.4232)"
           id="g42"><path
             id="path44"
             style="fill:none;stroke:#ffffff;stroke-width:1.08899999;stroke-linecap:butt;stroke-linejoin:miter;stroke-miterlimit:10;stroke-dasharray:none;stroke-opacity:1"
             d="m 0,0 c 3.033,-3.033 3.033,-7.951 0,-10.983 -3.032,-3.034 -7.95,-3.034 -10.983,0 -3.033,3.032 -3.033,7.95 0,10.983 C -7.95,3.033 -3.032,3.033 0,0 Z" /></g><g
           transform="translate(141.29,114.1024)"
           id="g46"><path
             id="path48"
             style="fill:none;stroke:#ffffff;stroke-width:1.08899999;stroke-linecap:butt;stroke-linejoin:miter;stroke-miterlimit:10;stroke-dasharray:none;stroke-opacity:1"
             d="m 0,0 c 3.033,-3.033 3.033,-7.95 0,-10.983 -3.033,-3.033 -7.95,-3.033 -10.983,0 -3.034,3.033 -3.034,7.95 0,10.983 C -7.95,3.033 -3.033,3.033 0,0 Z" /></g><g
           transform="translate(117.9502,90.763)"
           id="g50"><path
             id="path52"
             style="fill:none;stroke:#ffffff;stroke-width:1.08899999;stroke-linecap:butt;stroke-linejoin:miter;stroke-miterlimit:10;stroke-dasharray:none;stroke-opacity:1"
             d="m 0,0 c 3.033,-3.033 3.033,-7.951 0,-10.983 -3.033,-3.034 -7.95,-3.034 -10.983,0 -3.034,3.032 -3.034,7.95 0,10.983 C -7.95,3.033 -3.033,3.033 0,0 Z" /></g><g
           transform="translate(81.4727,156.5443)"
           id="g54"><path
             id="path56"
             style="fill:none;stroke:#ffffff;stroke-width:1.08899999;stroke-linecap:butt;stroke-linejoin:miter;stroke-miterlimit:10;stroke-dasharray:none;stroke-opacity:1"
             d="M 0,0 C -7.696,-1.221 -14.791,-4.249 -20.835,-8.638" /></g><g
           transform="translate(137.0527,116.2572)"
           id="g58"><path
             id="path60"
             style="fill:none;stroke:#ffffff;stroke-width:1.08899999;stroke-linecap:butt;stroke-linejoin:miter;stroke-miterlimit:10;stroke-dasharray:none;stroke-opacity:1"
             d="M 0,0 C -1.222,7.696 -4.249,14.791 -8.638,20.835" /></g><g
           transform="translate(49.8232,137.0921)"
           id="g62"><path
             id="path64"
             style="fill:none;stroke:#ffffff;stroke-width:1.08899999;stroke-linecap:butt;stroke-linejoin:miter;stroke-miterlimit:10;stroke-dasharray:none;stroke-opacity:1"
             d="M 0,0 C -4.389,-6.044 -7.416,-13.139 -8.638,-20.835" /></g><g
           transform="translate(117.6006,147.9071)"
           id="g66"><path
             id="path68"
             style="fill:none;stroke:#ffffff;stroke-width:1.08899999;stroke-linecap:butt;stroke-linejoin:miter;stroke-miterlimit:10;stroke-dasharray:none;stroke-opacity:1"
             d="M 0,0 C -6.045,4.389 -13.139,7.416 -20.835,8.637" /></g><g
           transform="translate(96.7656,60.6776)"
           id="g70"><path
             id="path72"
             style="fill:none;stroke:#ffffff;stroke-width:1.08899999;stroke-linecap:butt;stroke-linejoin:miter;stroke-miterlimit:10;stroke-dasharray:none;stroke-opacity:1"
             d="M 0,0 C 7.696,1.221 14.79,4.249 20.835,8.637" /></g><g
           transform="translate(41.1855,100.9647)"
           id="g74"><path
             id="path76"
             style="fill:none;stroke:#ffffff;stroke-width:1.08899999;stroke-linecap:butt;stroke-linejoin:miter;stroke-miterlimit:10;stroke-dasharray:none;stroke-opacity:1"
             d="M 0,0 C 1.222,-7.696 4.249,-14.791 8.638,-20.835" /></g><g
           transform="translate(128.415,80.1292)"
           id="g78"><path
             id="path80"
             style="fill:none;stroke:#ffffff;stroke-width:1.08899999;stroke-linecap:butt;stroke-linejoin:miter;stroke-miterlimit:10;stroke-dasharray:none;stroke-opacity:1"
             d="M 0,0 C 4.389,6.045 7.416,13.139 8.638,20.835" /></g><g
           transform="translate(60.6377,69.3153)"
           id="g82"><path
             id="path84"
             style="fill:none;stroke:#ffffff;stroke-width:1.08899999;stroke-linecap:butt;stroke-linejoin:miter;stroke-miterlimit:10;stroke-dasharray:none;stroke-opacity:1"
             d="M 0,0 C 6.044,-4.389 13.139,-7.417 20.835,-8.638" /></g><g
           transform="translate(117.9766,90.7264)"
           id="g86"><path
             id="path88"
             style="fill:none;stroke:#ffffff;stroke-width:1.08899999;stroke-linecap:butt;stroke-linejoin:miter;stroke-miterlimit:10;stroke-dasharray:none;stroke-opacity:1"
             d="M 0,0 C 1.912,3.079 3.345,6.488 4.195,10.123" /></g><g
           transform="translate(96.8809,75.5579)"
           id="g90"><path
             id="path92"
             style="fill:none;stroke:#ffffff;stroke-width:1.08899999;stroke-linecap:butt;stroke-linejoin:miter;stroke-miterlimit:10;stroke-dasharray:none;stroke-opacity:1"
             d="M 0,0 C 3.626,0.849 7.026,2.276 10.1,4.181" /></g><g
           transform="translate(71.2598,79.7376)"
           id="g94"><path
             id="path96"
             style="fill:none;stroke:#ffffff;stroke-width:1.08899999;stroke-linecap:butt;stroke-linejoin:miter;stroke-miterlimit:10;stroke-dasharray:none;stroke-opacity:1"
             d="M 0,0 C 3.072,-1.904 6.473,-3.331 10.098,-4.179" /></g><g
           transform="translate(56.0664,100.849)"
           id="g98"><path
             id="path100"
             style="fill:none;stroke:#ffffff;stroke-width:1.08899999;stroke-linecap:butt;stroke-linejoin:miter;stroke-miterlimit:10;stroke-dasharray:none;stroke-opacity:1"
             d="M 0,0 C 0.851,-3.632 2.281,-7.039 4.191,-10.117" /></g><g
           transform="translate(60.2451,126.4696)"
           id="g102"><path
             id="path104"
             style="fill:none;stroke:#ffffff;stroke-width:1.08899999;stroke-linecap:butt;stroke-linejoin:miter;stroke-miterlimit:10;stroke-dasharray:none;stroke-opacity:1"
             d="M 0,0 C -1.903,-3.072 -3.33,-6.472 -4.179,-10.097" /></g><g
           transform="translate(81.3574,141.6639)"
           id="g106"><path
             id="path108"
             style="fill:none;stroke:#ffffff;stroke-width:1.08899999;stroke-linecap:butt;stroke-linejoin:miter;stroke-miterlimit:10;stroke-dasharray:none;stroke-opacity:1"
             d="M 0,0 C -3.639,-0.852 -7.05,-2.286 -10.131,-4.2" /></g><g
           transform="translate(107.0186,137.4598)"
           id="g110"><path
             id="path112"
             style="fill:none;stroke:#ffffff;stroke-width:1.08899999;stroke-linecap:butt;stroke-linejoin:miter;stroke-miterlimit:10;stroke-dasharray:none;stroke-opacity:1"
             d="M 0,0 C -3.083,1.916 -6.497,3.352 -10.138,4.204" /></g><g
           transform="translate(122.1719,116.3729)"
           id="g114"><path
             id="path116"
             style="fill:none;stroke:#ffffff;stroke-width:1.08899999;stroke-linecap:butt;stroke-linejoin:miter;stroke-miterlimit:10;stroke-dasharray:none;stroke-opacity:1"
             d="M 0,0 C -0.85,3.63 -2.279,7.035 -4.187,10.11" /></g></g></g><text
       id="text122"
       style="font-variant:normal;font-weight:600;font-stretch:normal;font-size:13px;font-family:SemplicitaPro;-inkscape-font-specification:SemplicitaPro-Semibold;writing-mode:lr-tb;fill:#ffffff;fill-opacity:1;fill-rule:nonzero;stroke:none"
       transform="matrix(1,0,0,-1,19.6885,23.7192)"><tspan
         id="tspan118"
         y="0"
         x="0 13.923 24.115 35.905998 43.004002 50.726002 56.303001 68.094002 75.139999 80.717003 88.400002 100.191 110.097 113.971 121.693 129.584 138.073">WHOLE-OF-SOCIETY </tspan><tspan
         id="tspan120"
         y="15.6"
         x="33.046001 42.757 50.556999 58.356998 66.533997 78.324997 88.036003 97.942001">APPROACH</tspan></text>
</g></svg>