<?xml version="1.0" encoding="utf-8"?>
<!-- Generator: Adobe Illustrator 25.0.1, SVG Export Plug-In . SVG Version: 6.00 Build 0)  -->
<svg version="1.1" id="_x30_3_Negative_EN" xmlns="http://www.w3.org/2000/svg" xmlns:xlink="http://www.w3.org/1999/xlink" x="0px"
	 y="0px" viewBox="0 0 150 150" style="enable-background:new 0 0 150 150;" xml:space="preserve">
<style type="text/css">
	.st0{fill:#003366;}
	.st1{fill:#086BA0;}
	.st2{fill:#FFFFFF;}
</style>
<g id="Elements_2_">
	<g id="Bckgd_14_">
		<rect id="Bckgd_15_" x="-0.1" y="-0.1" class="st0" width="150" height="100"/>
	</g>
	<g id="Color_6_">
		<rect id="GCM_x5F_Color_9_" x="-0.1" y="99.9" class="st1" width="150" height="50"/>
	</g>
	<g id="Number_6_">
		<g>
			<g>
				<path class="st2" d="M19.7,119.6c0,3.9-1.5,6.7-7.2,13.7h7.6l-0.4,3.8H7.9v-3.5c6.1-8.1,7.5-10.4,7.5-13.6c0-2-0.9-3.2-2.4-3.2
					c-1.3,0-2.2,0.8-3.3,2.4l-2.5-2.2c1.5-2.5,3.5-3.9,6.2-3.9C17.5,113,19.7,116,19.7,119.6z"/>
				<path class="st2" d="M32.7,119.6c0,3.9-1.5,6.7-7.2,13.7h7.6l-0.4,3.8H20.9v-3.5c6.1-8.1,7.5-10.4,7.5-13.6c0-2-0.9-3.2-2.4-3.2
					c-1.3,0-2.2,0.8-3.3,2.4l-2.5-2.2c1.5-2.5,3.5-3.9,6.2-3.9C30.5,113,32.7,116,32.7,119.6z"/>
			</g>
		</g>
	</g>
	<g>
		<g>
			<path class="st2" d="M47.1,116.8c0,2.2-1.4,3.1-3.5,3.1h-0.8v3.3h-1.8v-9.5h2.5C45.7,113.8,47.1,114.8,47.1,116.8z M45.2,116.8
				c0-1.2-0.6-1.7-1.8-1.7h-0.7v3.5h0.7C44.6,118.7,45.2,118.2,45.2,116.8z"/>
			<path class="st2" d="M51,119.5h-1v3.8h-1.8v-9.5h2.5c2.4,0,3.6,1,3.6,2.8c0,1.2-0.5,2.1-1.7,2.6l2.2,4.2h-2L51,119.5z
				 M50.8,118.2c1.1,0,1.6-0.5,1.6-1.6c0-1-0.5-1.5-1.8-1.5H50v3.1H50.8z"/>
			<path class="st2" d="M62.9,118.6c0,3.2-1.4,5-3.8,5c-2.3,0-3.8-1.7-3.8-4.9c0-3.2,1.5-5,3.8-5C61.4,113.6,62.9,115.3,62.9,118.6z
				 M57.2,118.6c0,2.7,0.7,3.6,1.9,3.6c1.3,0,1.9-0.9,1.9-3.6c0-2.6-0.7-3.6-1.9-3.6C57.9,115,57.2,115.9,57.2,118.6z"/>
			<path class="st2" d="M69.6,115.2h-2.2v8.1h-1.8v-8.1h-2.3v-1.4h6.4L69.6,115.2z"/>
			<path class="st2" d="M75.7,115.1h-3.1v2.7h2.7v1.3h-2.7v2.8h3.3v1.3h-5.1v-9.5h5.1L75.7,115.1z"/>
			<path class="st2" d="M83,114.6l-0.9,1c-0.5-0.4-1-0.6-1.6-0.6c-1.1,0-2,0.9-2,3.6c0,2.6,0.8,3.5,2,3.5c0.7,0,1.2-0.3,1.7-0.7
				l0.9,1c-0.6,0.6-1.4,1.1-2.6,1.1c-2.2,0-3.8-1.6-3.8-5c0-3.3,1.6-4.9,3.8-4.9C81.6,113.6,82.3,114,83,114.6z"/>
			<path class="st2" d="M89.9,115.2h-2.2v8.1H86v-8.1h-2.3v-1.4h6.4L89.9,115.2z"/>
			<path class="st2" d="M92.9,123.3h-1.8v-9.5h1.8V123.3z"/>
			<path class="st2" d="M102,118.6c0,3.2-1.4,5-3.8,5c-2.3,0-3.8-1.7-3.8-4.9c0-3.2,1.5-5,3.8-5C100.5,113.6,102,115.3,102,118.6z
				 M96.3,118.6c0,2.7,0.7,3.6,1.9,3.6c1.3,0,1.9-0.9,1.9-3.6c0-2.6-0.7-3.6-1.9-3.6C96.9,115,96.3,115.9,96.3,118.6z"/>
			<path class="st2" d="M109.8,123.3h-2.3l-2.8-7.7c0.1,0.9,0.2,2,0.2,3.8v3.9h-1.6v-9.5h2.3l2.8,7.7c-0.1-0.5-0.2-1.9-0.2-3.2v-4.5
				h1.6V123.3z"/>
			<path class="st2" d="M46.4,127.3l-0.9,1c-0.6-0.5-1.2-0.8-1.9-0.8c-0.8,0-1.3,0.4-1.3,1.1c0,0.7,0.3,1,1.7,1.5
				c1.5,0.6,2.5,1.3,2.5,3c0,1.7-1.2,2.9-3.3,2.9c-1.4,0-2.4-0.5-3.1-1.3l0.9-1c0.6,0.6,1.3,0.9,2.2,0.9c0.9,0,1.5-0.5,1.5-1.4
				c0-0.8-0.3-1.2-1.6-1.6c-1.8-0.6-2.6-1.5-2.6-2.8c0-1.5,1.3-2.6,3-2.6C44.7,126.1,45.6,126.5,46.4,127.3z"/>
			<path class="st2" d="M55.1,131.1c0,3.2-1.4,5-3.8,5c-2.3,0-3.8-1.7-3.8-4.9c0-3.2,1.5-5,3.8-5C53.6,126.1,55.1,127.8,55.1,131.1z
				 M49.4,131.1c0,2.7,0.7,3.6,1.9,3.6c1.3,0,1.9-0.9,1.9-3.6c0-2.6-0.7-3.6-1.9-3.6C50.1,127.5,49.4,128.4,49.4,131.1z"/>
			<path class="st2" d="M62.5,127.1l-0.9,1c-0.5-0.4-1-0.6-1.6-0.6c-1.1,0-2,0.9-2,3.6c0,2.6,0.8,3.5,2,3.5c0.7,0,1.2-0.3,1.7-0.7
				l0.9,1c-0.6,0.6-1.4,1.1-2.6,1.1c-2.2,0-3.8-1.6-3.8-5c0-3.3,1.7-4.9,3.8-4.9C61,126.1,61.8,126.5,62.5,127.1z"/>
			<path class="st2" d="M65.4,135.8h-1.8v-9.5h1.8V135.8z"/>
			<path class="st2" d="M71.5,133.6h-2.8l-0.5,2.2h-1.8l2.6-9.5h2.2l2.6,9.5H72L71.5,133.6z M71.2,132.3l-1.1-4.6l-1.1,4.6H71.2z"/>
			<path class="st2" d="M76.6,134.4H80l-0.2,1.5h-5v-9.5h1.8V134.4z"/>
			<path class="st2" d="M85.9,127.6h-3.1v2.7h2.7v1.3h-2.7v2.8h3.3v1.3H81v-9.5h5.1L85.9,127.6z"/>
		</g>
	</g>
</g>
<g id="Icon_2_">
	<g>
		<path class="st2" d="M74.9,47.6c-4,0-7.3-3.3-7.3-7.3s3.3-7.3,7.3-7.3c4,0,7.3,3.3,7.3,7.3S79,47.6,74.9,47.6z M74.9,34.3
			c-3.4,0-6.1,2.7-6.1,6.1c0,3.3,2.7,6.1,6.1,6.1s6.1-2.7,6.1-6.1C81,37,78.3,34.3,74.9,34.3z"/>
		<path class="st2" d="M86.5,58.8h-1.2c0-4-3.3-7.2-7.3-7.2h-6.2c-4,0-7.3,3.2-7.3,7.2h-1.2c0-4.7,3.8-8.5,8.5-8.5H78
			C82.7,50.3,86.5,54.1,86.5,58.8z"/>
		<g>
			<path class="st2" d="M54.3,54.9l-1.2-0.4l3.7-11.8c0.3-1-0.1-2-1-2.6l-1.1-0.6l0.6-1.1l1.1,0.6c1.4,0.9,2,2.5,1.5,4L54.3,54.9z"
				/>
			<g>
				<path class="st2" d="M62.5,80.1c-0.2,0-0.3-0.1-0.4-0.2C54.4,72,53,67.8,53,67.6l-5.8-16.5c-0.3-0.8-0.3-1.8,0-2.6l4.4-12.8
					c0.1-0.3,0.5-0.5,0.8-0.4l1,0.3c0.9,0.3,1.6,1,2.1,1.8c0.4,0.9,0.5,1.8,0.2,2.7l-2.8,8.2c-0.1,0.4-0.1,0.8,0,1.1l2.4,6.7
					c0.4,1.1,1.7,1.7,2.8,1.3l0.3-0.1l-1.4-3.9c-0.5-1.4-0.2-3.1,0.7-4.4c0.5-0.7,1.3-1,2.2-0.9c0.8,0.1,1.5,0.7,1.8,1.5l3.3,9.2
					c0,0,2.3,5.7-3.3,8.7c-0.3,0.2-0.7,0-0.8-0.3c-0.2-0.3,0-0.7,0.3-0.8c4.7-2.5,2.8-7,2.8-7.1l-3.3-9.2c-0.1-0.4-0.4-0.6-0.8-0.7
					c-0.4-0.1-0.7,0.1-1,0.4c-0.7,1-0.9,2.2-0.5,3.2l1.6,4.5c0.1,0.2,0,0.3,0,0.5c-0.1,0.1-0.2,0.3-0.4,0.3l-0.9,0.3
					c-1.8,0.6-3.8-0.3-4.4-2.1L51.6,50c-0.2-0.6-0.2-1.3,0-2l2.8-8.2c0.2-0.6,0.2-1.2-0.1-1.8c-0.3-0.6-0.8-1-1.4-1.2l-0.4-0.1
					L48.3,49c-0.2,0.6-0.2,1.2,0,1.8l5.8,16.5c0,0.1,1.4,4.1,8.8,11.8c0.2,0.2,0.2,0.6,0,0.9C62.8,80,62.7,80.1,62.5,80.1z"/>
				<path class="st2" d="M68.2,74.5c-0.2,0-0.3-0.1-0.4-0.2c-3.3-3.3-5-6.1-5.9-7.8c-0.2-0.3,0-0.7,0.3-0.8c0.3-0.2,0.7,0,0.8,0.3
					c0.8,1.6,2.4,4.3,5.6,7.5c0.2,0.2,0.2,0.6,0,0.9C68.5,74.4,68.4,74.5,68.2,74.5z"/>
			</g>
		</g>
		<g>
			<path class="st2" d="M95.6,54.9l-3.7-11.8c-0.5-1.5,0.1-3.2,1.5-4l1.8-1l0.6,1.1L94,40.2c-0.8,0.5-1.2,1.6-0.9,2.5l3.7,11.8
				L95.6,54.9z"/>
			<g>
				<path class="st2" d="M87,80c-0.2,0-0.3-0.1-0.4-0.2c-0.2-0.2-0.2-0.6,0-0.9c7.5-7.5,9-11.5,9-11.6l6.1-16.4
					c0.2-0.6,0.2-1.2,0-1.8l-3.9-12.3L97.4,37c-0.6,0.2-1.1,0.6-1.4,1.2c-0.3,0.6-0.3,1.2-0.1,1.8l2.6,8.2c0.2,0.6,0.2,1.3,0,2
					l-2.5,6.7c-0.7,1.8-2.6,2.7-4.4,2l-0.9-0.3c-0.2-0.1-0.3-0.2-0.4-0.3c-0.1-0.2-0.1-0.3,0-0.5l1.7-4.5c0.4-1,0.2-2.3-0.5-3.3
					c-0.2-0.3-0.6-0.5-1-0.4c-0.4,0-0.7,0.3-0.8,0.7l-3.4,9.1c-0.1,0.2-2,4.7,2.6,7.2c0.3,0.2,0.4,0.5,0.2,0.8
					c-0.2,0.3-0.5,0.4-0.8,0.2c-5.6-3.1-3.2-8.7-3.2-8.8l3.4-9.1c0.3-0.8,1-1.4,1.9-1.5c0.8-0.1,1.7,0.3,2.1,0.9
					c0.9,1.3,1.2,3,0.6,4.4l-1.5,3.9l0.3,0.1c1.1,0.4,2.4-0.2,2.8-1.3l2.5-6.7c0.1-0.4,0.1-0.8,0-1.1l-2.6-8.2
					c-0.3-0.9-0.2-1.9,0.2-2.7c0.4-0.9,1.2-1.5,2.1-1.8l1-0.3c0.3-0.1,0.7,0.1,0.8,0.4l4.1,12.9c0.3,0.8,0.2,1.8-0.1,2.6l-6.1,16.4
					c-0.1,0.2-1.5,4.3-9.3,12.1C87.3,79.9,87.1,80,87,80z"/>
				<path class="st2" d="M81.7,74.5c-0.2,0-0.3-0.1-0.4-0.2c-0.2-0.2-0.2-0.6,0-0.9c3.2-3.2,4.8-5.8,5.6-7.5
					c0.1-0.3,0.5-0.4,0.8-0.3c0.3,0.2,0.4,0.5,0.3,0.8c-0.8,1.7-2.5,4.5-5.9,7.8C82,74.4,81.8,74.5,81.7,74.5z"/>
			</g>
		</g>
		<g>
			<g>
				<rect x="73.7" y="19.9" class="st2" width="1.2" height="4.8"/>
			</g>
			<g>
				
					<rect x="61.4" y="25" transform="matrix(0.7056 -0.7086 0.7086 0.7056 -1.1727 52.0407)" class="st2" width="1.3" height="4.8"/>
			</g>
			<g>
				
					<rect x="84.3" y="26.8" transform="matrix(0.7087 -0.7055 0.7055 0.7087 5.906 69.1662)" class="st2" width="4.8" height="1.3"/>
			</g>
			<g>
				
					<rect x="67.1" y="21.3" transform="matrix(0.9233 -0.3841 0.3841 0.9233 -3.8973 27.8222)" class="st2" width="1.3" height="4.8"/>
			</g>
			<g>
				
					<rect x="88.1" y="32.4" transform="matrix(0.9245 -0.3811 0.3811 0.9245 -5.7724 36.9756)" class="st2" width="4.8" height="1.3"/>
			</g>
			<g>
				
					<rect x="57.6" y="30.6" transform="matrix(0.3813 -0.9244 0.9244 0.3813 5.4789 74.3157)" class="st2" width="1.3" height="4.8"/>
			</g>
			<g>
				
					<rect x="78.6" y="23" transform="matrix(0.3843 -0.9232 0.9232 0.3843 28.0523 89.3969)" class="st2" width="4.8" height="1.3"/>
			</g>
			<g>
				
					<rect x="70.3" y="20.3" transform="matrix(0.9798 -0.1999 0.1999 0.9798 -3.105 14.6283)" class="st2" width="1.2" height="4.8"/>
			</g>
			<g>
				
					<rect x="59.2" y="27.7" transform="matrix(0.5506 -0.8348 0.8348 0.5506 1.7468 63.485)" class="st2" width="1.2" height="4.8"/>
			</g>
			<g>
				
					<rect x="81.6" y="24.6" transform="matrix(0.5543 -0.8323 0.8323 0.5543 16.4352 81.1622)" class="st2" width="4.8" height="1.3"/>
			</g>
			<g>
				
					<rect x="64" y="22.9" transform="matrix(0.8281 -0.5606 0.5606 0.8281 -3.0784 40.5829)" class="st2" width="1.3" height="4.8"/>
			</g>
			<g>
				
					<rect x="86.4" y="29.4" transform="matrix(0.8299 -0.5579 0.5579 0.8299 -1.6285 54.6697)" class="st2" width="4.8" height="1.2"/>
			</g>
			<g>
				
					<rect x="75.3" y="22" transform="matrix(0.1922 -0.9814 0.9814 0.1922 40.5283 94.5683)" class="st2" width="4.8" height="1.2"/>
			</g>
		</g>
	</g>
</g>
</svg>
