<?xml version="1.0" encoding="UTF-8" standalone="no"?>
<!DOCTYPE svg PUBLIC "-//W3C//DTD SVG 1.1//EN" "http://www.w3.org/Graphics/SVG/1.1/DTD/svg11.dtd">
<svg xmlns="http://www.w3.org/2000/svg" xmlns:xlink="http://www.w3.org/1999/xlink" version="1.1" width="150pt" height="150pt" viewBox="0 0 150 150">
<g enable-background="new">
<g id="Layer-1" data-name="03 Negative EN">
<path transform="matrix(1,0,0,-1,0,150)" d="M 0 50.073 L 149.95 50.073 L 149.95 150 L 0 150 Z " fill="#003366"/>
<path transform="matrix(1,0,0,-1,0,150)" d="M 0 .073 L 149.95 .073 L 149.95 50.073 L 0 50.073 Z " fill="#36bea5"/>
<path transform="matrix(1,0,0,-1,18.8338,137.06)" d="M 0 0 L -4.017 0 L -4.017 18.797 L -7.914 15.682 L -9.729 18.867 L -3.659 23.593 L 0 23.593 Z " fill="#ffffff"/>
<path transform="matrix(1,0,0,-1,31.909,116.8275)" d="M 0 0 L -6.665 -20.758 L -10.384 -19.287 L -4.225 -.351 L -11.663 -.351 L -11.663 3.36 L 0 3.36 Z " fill="#ffffff"/>
<path transform="matrix(1,0,0,-1,45.8289,116.141)" d="M 0 0 L -3.093 0 L -3.093 -2.694 L -.385 -2.694 L -.385 -4.001 L -3.093 -4.001 L -3.093 -6.847 L .221 -6.847 L .221 -8.18 L -4.88 -8.18 L -4.88 1.32 L .192 1.32 Z " fill="#ffffff"/>
<path transform="matrix(1,0,0,-1,49.1336,122.8637)" d="M 0 0 L 3.383 0 L 3.189 -1.457 L -1.787 -1.457 L -1.787 8.043 L 0 8.043 Z " fill="#ffffff"/>
<path transform="matrix(1,0,0,-1,0,150)" d="M 55.368 25.679 L 53.581 25.679 L 53.581 35.179 L 55.368 35.179 Z " fill="#ffffff"/>
<clipPath id="cp0">
<path transform="matrix(1,0,0,-1,0,150)" d="M 0 150 L 150 150 L 150 0 L 0 0 Z "/>
</clipPath>
<g clip-path="url(#cp0)">
<path transform="matrix(1,0,0,-1,65.5555,124.3207)" d="M 0 0 L -1.704 0 L -1.91 4 C -1.979 5.402 -2.034 6.86 -2.007 7.863 L -3.506 1.031 L -5.169 1.031 L -6.75 7.878 C -6.709 6.612 -6.736 5.307 -6.791 3.945 L -6.983 0 L -8.675 0 L -8.015 9.5 L -5.746 9.5 L -4.303 2.818 L -2.955 9.5 L -.659 9.5 Z " fill="#ffffff"/>
<path transform="matrix(1,0,0,-1,0,150)" d="M 68.878 25.679 L 67.090999 25.679 L 67.090999 35.179 L 68.878 35.179 Z " fill="#ffffff"/>
<path transform="matrix(1,0,0,-1,77.1082,124.3207)" d="M 0 0 L -2.282 0 L -5.06 7.74 C -4.978 6.888 -4.826 5.691 -4.826 3.945 L -4.826 0 L -6.421 0 L -6.421 9.5 L -4.166 9.5 L -1.361 1.76 C -1.444 2.296 -1.595 3.643 -1.595 4.99 L -1.595 9.5 L 0 9.5 Z " fill="#ffffff"/>
<path transform="matrix(1,0,0,-1,83.8162,116.141)" d="M 0 0 L -3.093 0 L -3.093 -2.694 L -.385 -2.694 L -.385 -4.001 L -3.093 -4.001 L -3.093 -6.847 L .221 -6.847 L .221 -8.18 L -4.88 -8.18 L -4.88 1.32 L .192 1.32 Z " fill="#ffffff"/>
<path transform="matrix(1,0,0,-1,87.9324,119.2201)" d="M 0 0 C 1.127 0 1.649 .495 1.649 1.608 C 1.649 2.64 1.127 3.093 -.11 3.093 L -.812 3.093 L -.812 0 Z M .165 -1.279 L -.812 -1.279 L -.812 -5.101 L -2.599 -5.101 L -2.599 4.399 L -.097 4.399 C 2.337 4.399 3.492 3.437 3.492 1.608 C 3.492 .412 2.942 -.481 1.787 -.949 L 4.001 -5.101 L 2.034 -5.101 Z " fill="#ffffff"/>
<path transform="matrix(1,0,0,-1,97.7908,122.8637)" d="M 0 0 L 3.383 0 L 3.189 -1.457 L -1.787 -1.457 L -1.787 8.043 L 0 8.043 Z " fill="#ffffff"/>
<path transform="matrix(1,0,0,-1,107.1189,116.141)" d="M 0 0 L -3.094 0 L -3.094 -2.694 L -.385 -2.694 L -.385 -4.001 L -3.094 -4.001 L -3.094 -6.847 L .22 -6.847 L .22 -8.18 L -4.881 -8.18 L -4.881 1.32 L .192 1.32 Z " fill="#ffffff"/>
<path transform="matrix(1,0,0,-1,114.3787,115.7836)" d="M 0 0 L -.853 -.976 C -1.457 -.439 -2.035 -.192 -2.723 -.192 C -3.506 -.192 -4.015 -.618 -4.015 -1.333 C -4.015 -2.021 -3.685 -2.364 -2.282 -2.859 C -.742 -3.423 .247 -4.11 .247 -5.829 C .247 -7.492 -.99 -8.743 -3.053 -8.743 C -4.469 -8.743 -5.458 -8.207 -6.2 -7.451 L -5.293 -6.447 C -4.647 -7.012 -3.987 -7.369 -3.121 -7.369 C -2.2 -7.369 -1.608 -6.833 -1.608 -5.925 C -1.608 -5.142 -1.952 -4.743 -3.259 -4.289 C -5.073 -3.643 -5.843 -2.832 -5.843 -1.457 C -5.843 .083 -4.578 1.169 -2.846 1.169 C -1.608 1.169 -.742 .757 0 0 " fill="#ffffff"/>
<path transform="matrix(1,0,0,-1,42.7361,128.6547)" d="M 0 0 L 0 -6.833 L .756 -6.833 C 1.993 -6.833 2.983 -6.214 2.983 -3.368 C 2.983 -.468 1.938 0 .715 0 Z M 4.825 -3.368 C 4.825 -7.245 2.735 -8.166 .632 -8.166 L -1.787 -8.166 L -1.787 1.334 L .439 1.334 C 2.694 1.334 4.825 .619 4.825 -3.368 " fill="#ffffff"/>
<path transform="matrix(1,0,0,-1,0,150)" d="M 50.788 13.179 L 49.001 13.179 L 49.001 22.679 L 50.788 22.679 Z " fill="#ffffff"/>
<path transform="matrix(1,0,0,-1,58.0418,128.2836)" d="M 0 0 L -.853 -.976 C -1.457 -.439 -2.034 -.192 -2.722 -.192 C -3.506 -.192 -4.014 -.618 -4.014 -1.333 C -4.014 -2.021 -3.685 -2.364 -2.282 -2.859 C -.742 -3.423 .248 -4.11 .248 -5.829 C .248 -7.492 -.989 -8.743 -3.052 -8.743 C -4.468 -8.743 -5.458 -8.207 -6.2 -7.451 L -5.293 -6.447 C -4.646 -7.012 -3.986 -7.369 -3.12 -7.369 C -2.199 -7.369 -1.608 -6.833 -1.608 -5.925 C -1.608 -5.142 -1.952 -4.743 -3.258 -4.289 C -5.072 -3.643 -5.843 -2.832 -5.843 -1.457 C -5.843 .083 -4.578 1.169 -2.846 1.169 C -1.608 1.169 -.742 .757 0 0 " fill="#ffffff"/>
<path transform="matrix(1,0,0,-1,65.5359,128.1049)" d="M 0 0 L -.88 -1.031 C -1.375 -.618 -1.87 -.385 -2.461 -.385 C -3.603 -.385 -4.469 -1.278 -4.469 -3.945 C -4.469 -6.53 -3.63 -7.492 -2.447 -7.492 C -1.719 -7.492 -1.224 -7.148 -.756 -6.764 L .096 -7.781 C -.468 -8.372 -1.348 -8.922 -2.53 -8.922 C -4.771 -8.922 -6.338 -7.272 -6.338 -3.945 C -6.338 -.659 -4.688 .99 -2.558 .99 C -1.457 .99 -.715 .619 0 0 " fill="#ffffff"/>
<path transform="matrix(1,0,0,-1,69.2879,131.7201)" d="M 0 0 C 1.128 0 1.65 .495 1.65 1.608 C 1.65 2.64 1.128 3.093 -.109 3.093 L -.811 3.093 L -.811 0 Z M .165 -1.279 L -.811 -1.279 L -.811 -5.101 L -2.598 -5.101 L -2.598 4.399 L -.096 4.399 C 2.338 4.399 3.492 3.437 3.492 1.608 C 3.492 .412 2.942 -.481 1.788 -.949 L 4.001 -5.101 L 2.035 -5.101 Z " fill="#ffffff"/>
<path transform="matrix(1,0,0,-1,0,150)" d="M 76.108 13.179 L 74.321 13.179 L 74.321 22.679 L 76.108 22.679 Z " fill="#ffffff"/>
<path transform="matrix(1,0,0,-1,86.2967,136.8207)" d="M 0 0 L -1.705 0 L -1.911 4 C -1.979 5.402 -2.035 6.86 -2.008 7.863 L -3.506 1.031 L -5.169 1.031 L -6.75 7.878 C -6.709 6.612 -6.736 5.307 -6.792 3.945 L -6.984 0 L -8.675 0 L -8.016 9.5 L -5.747 9.5 L -4.304 2.818 L -2.956 9.5 L -.66 9.5 Z " fill="#ffffff"/>
<path transform="matrix(1,0,0,-1,0,150)" d="M 89.618 13.179 L 87.83099 13.179 L 87.83099 22.679 L 89.618 22.679 Z " fill="#ffffff"/>
<path transform="matrix(1,0,0,-1,97.8484,136.8207)" d="M 0 0 L -2.282 0 L -5.06 7.74 C -4.977 6.888 -4.825 5.691 -4.825 3.945 L -4.825 0 L -6.42 0 L -6.42 9.5 L -4.166 9.5 L -1.361 1.76 C -1.443 2.296 -1.595 3.643 -1.595 4.99 L -1.595 9.5 L 0 9.5 Z " fill="#ffffff"/>
<path transform="matrix(1,0,0,-1,103.5965,133.2601)" d="M 0 0 L -1.072 4.578 L -2.145 0 Z M .303 -1.348 L -2.447 -1.348 L -2.97 -3.561 L -4.771 -3.561 L -2.131 5.939 L .041 5.939 L 2.667 -3.561 L .825 -3.561 Z " fill="#ffffff"/>
<path transform="matrix(1,0,0,-1,111.9597,128.72299)" d="M 0 0 L -2.186 0 L -2.186 -8.098 L -3.959 -8.098 L -3.959 0 L -6.241 0 L -6.241 1.402 L .193 1.402 Z " fill="#ffffff"/>
<path transform="matrix(1,0,0,-1,0,150)" d="M 114.951 13.179 L 113.163997 13.179 L 113.163997 22.679 L 114.951 22.679 Z " fill="#ffffff"/>
<path transform="matrix(1,0,0,-1,118.2664,132.0775)" d="M 0 0 C 0 -2.653 .715 -3.589 1.911 -3.589 C 3.162 -3.589 3.836 -2.653 3.836 .014 C 3.836 2.64 3.162 3.602 1.911 3.602 C .687 3.602 0 2.64 0 0 M 5.705 .014 C 5.705 -3.231 4.262 -4.949 1.911 -4.949 C -.412 -4.949 -1.87 -3.286 -1.87 0 C -1.87 3.23 -.412 4.963 1.911 4.963 C 4.248 4.963 5.705 3.313 5.705 .014 " fill="#ffffff"/>
<path transform="matrix(1,0,0,-1,131.8387,136.8207)" d="M 0 0 L -2.282 0 L -5.06 7.74 C -4.978 6.888 -4.826 5.691 -4.826 3.945 L -4.826 0 L -6.421 0 L -6.421 9.5 L -4.166 9.5 L -1.361 1.76 C -1.444 2.296 -1.595 3.643 -1.595 4.99 L -1.595 9.5 L 0 9.5 Z " fill="#ffffff"/>
<path transform="matrix(1,0,0,-1,139.1033,128.2836)" d="M 0 0 L -.853 -.976 C -1.457 -.439 -2.034 -.192 -2.722 -.192 C -3.506 -.192 -4.014 -.618 -4.014 -1.333 C -4.014 -2.021 -3.685 -2.364 -2.282 -2.859 C -.742 -3.423 .248 -4.11 .248 -5.829 C .248 -7.492 -.989 -8.743 -3.052 -8.743 C -4.468 -8.743 -5.458 -8.207 -6.2 -7.451 L -5.293 -6.447 C -4.646 -7.012 -3.986 -7.369 -3.12 -7.369 C -2.199 -7.369 -1.608 -6.833 -1.608 -5.925 C -1.608 -5.142 -1.952 -4.743 -3.258 -4.289 C -5.072 -3.643 -5.843 -2.832 -5.843 -1.457 C -5.843 .083 -4.578 1.169 -2.846 1.169 C -1.608 1.169 -.742 .757 0 0 " fill="#ffffff"/>
<path transform="matrix(1,0,0,-1,65.0437,55.7387)" d="M 0 0 L -3.821 3.812 C -5.633 5.619 -7.011 7.805 -7.807 10.13 C -7.837 10.259 -8.602 14.27 -10.999 16.661 L -17.555 23.202 L -16.672 24.087 L -10.116 17.546 C -7.438 14.874 -6.633 10.625 -6.601 10.445 C -5.89 8.389 -4.615 6.37 -2.938 4.696 L .883 .885 Z " fill="#ffffff"/>
<path transform="matrix(1,0,0,-1,68.7185,33.181)" d="M 0 0 L -10.938 10.912 L -10.055 11.797 L .883 .885 Z " fill="#ffffff"/>
<path transform="matrix(1,0,0,-1,46.5926,70.8041)" d="M 0 0 L -.883 .885 L 4.778 6.534 C 5.865 7.618 6.524 9.093 6.633 10.688 C 6.82 13.444 7.701 16.215 9.182 18.701 L 11.944 23.336 L 13.019 22.695 L 10.256 18.061 C 8.875 15.743 8.054 13.164 7.881 10.603 C 7.751 8.705 6.963 6.946 5.661 5.649 Z " fill="#ffffff"/>
<path transform="matrix(1,0,0,-1,55.8992,80.0892)" d="M 0 0 L -.883 .885 L 2.855 4.615 C 5.534 7.286 9.793 8.09 9.973 8.123 C 12.034 8.831 14.058 10.103 15.735 11.776 L 20.097 16.128 L 20.979 15.243 L 16.618 10.892 C 14.806 9.083 12.616 7.709 10.286 6.916 C 10.157 6.886 6.137 6.122 3.738 3.73 Z " fill="#ffffff"/>
<path transform="matrix(1,0,0,-1,93.117,50.2045)" d="M 0 0 L -.583 .656 C -.799 .899 -1.022 1.14 -1.257 1.373 L -.374 2.258 C -.329 2.214 -.285 2.169 -.241 2.124 L -.004 2.545 C 1.311 4.884 2.065 7.47 2.181 10.025 C 2.267 11.952 3.075 13.815 4.459 15.272 L 10.246 21.689 L 11.174 20.852 L 5.376 14.423 C 4.189 13.173 3.502 11.596 3.429 9.969 C 3.306 7.22 2.496 4.44 1.086 1.933 Z " fill="#ffffff"/>
<path transform="matrix(1,0,0,-1,77.1697,33.271898)" d="M 0 0 L -.904 .861 L -.138 1.666 C 1.628 3.52 3.782 4.949 6.091 5.801 C 6.22 5.835 10.22 6.698 12.556 9.15 L 16.775 13.36 L 17.658 12.476 L 13.449 8.277 C 10.853 5.55 6.614 4.641 6.436 4.604 C 4.393 3.842 2.401 2.52 .767 .804 Z " fill="#ffffff"/>
<path transform="matrix(1,0,0,-1,94.2752,75.4994)" d="M 0 0 L -8.326 8.308 C -11.812 8.054 -15.466 8.948 -18.663 10.846 L -28.184 16.493 C -29.72 17.403 -29.949 19.047 -29.496 20.271 C -29.052 21.471 -27.828 22.546 -26.107 22.243 C -25.368 22.104 -24.741 21.87 -24.174 21.532 L -23.161 20.932 L -32.346 30.096 C -32.902 30.65 -33.208 31.39 -33.208 32.176 C -33.208 32.968 -32.898 33.713 -32.336 34.274 C -31.885 34.725 -31.323 35 -30.738 35.101 L -31.628 35.988 C -32.184 36.542 -32.49 37.28 -32.49 38.066 C -32.491 38.858 -32.181 39.604 -31.618 40.167 C -30.654 41.13 -29.187 41.294 -28.058 40.652 C -27.976 41.303 -27.682 41.904 -27.209 42.376 C -26.119 43.463 -24.392 43.528 -23.232 42.576 C -23.133 43.183 -22.846 43.742 -22.4 44.188 C -21.244 45.341 -19.366 45.346 -18.216 44.197 L -1.532 27.553 C .279 25.746 1.657 23.561 2.453 21.234 C 2.483 21.105 3.248 17.095 5.646 14.703 L 9.365 10.992 L 8.482 10.107 L 4.764 13.818 C 2.085 16.489 1.279 20.739 1.247 20.919 C .536 22.977 -.738 24.995 -2.415 26.668 L -19.099 43.313 C -19.762 43.974 -20.847 43.971 -21.518 43.303 C -21.844 42.978 -22.022 42.546 -22.022 42.088 C -22.022 41.636 -21.847 41.212 -21.527 40.894 L -11.161 30.551 L -12.044 29.666 L -23.907 41.502 C -24.57 42.164 -25.655 42.159 -26.326 41.491 C -26.651 41.166 -26.831 40.735 -26.831 40.277 C -26.831 39.825 -26.655 39.401 -26.336 39.082 L -16.263 29.032 L -17.146 28.147 L -28.316 39.292 C -28.979 39.953 -30.064 39.95 -30.735 39.282 C -31.062 38.957 -31.24 38.525 -31.24 38.067 C -31.24 37.615 -31.064 37.191 -30.745 36.873 L -19.575 25.729 L -20.458 24.844 L -29.034 33.4 C -29.697 34.062 -30.782 34.058 -31.453 33.39 C -31.778 33.064 -31.958 32.634 -31.958 32.176 C -31.958 31.724 -31.782 31.299 -31.463 30.98 L -19.271 18.817 L -19.774 17.471 L -24.812 20.457 C -25.254 20.72 -25.744 20.903 -26.269 21.002 C -27.405 21.197 -28.079 20.498 -28.324 19.837 C -28.577 19.153 -28.525 18.148 -27.547 17.567 L -18.025 11.92 C -14.962 10.104 -11.454 9.273 -8.147 9.576 L -7.855 9.604 L .883 .885 Z " fill="#ffffff"/>
</g>
</g>
</g>
</svg>
