<?xml version="1.0" encoding="UTF-8" standalone="no"?>
<!DOCTYPE svg PUBLIC "-//W3C//DTD SVG 1.1//EN" "http://www.w3.org/Graphics/SVG/1.1/DTD/svg11.dtd">
<svg xmlns="http://www.w3.org/2000/svg" xmlns:xlink="http://www.w3.org/1999/xlink" version="1.1" width="150pt" height="150pt" viewBox="0 0 150 150">
<g enable-background="new">
<g id="Layer-1" data-name="02 Positive EN">
</g>
<g id="Layer-1" data-name="03 Negative EN">
<path transform="matrix(1,0,0,-1,0,150)" d="M 0 50.073 L 149.95 50.073 L 149.95 150 L 0 150 Z " fill="#1c3664"/>
<path transform="matrix(1,0,0,-1,0,150)" d="M 0 .073 L 149.95 .073 L 149.95 50.073 L 0 50.073 Z " fill="#ed313a"/>
<clipPath id="cp0">
<path transform="matrix(1,0,0,-1,0,150)" d="M 0 150 L 150 150 L 150 0 L 0 0 Z "/>
</clipPath>
<g clip-path="url(#cp0)">
<path transform="matrix(1,0,0,-1,25.5349,117.003299)" d="M 0 0 L -6.605 0 L -6.605 -5.565 C -5.683 -4.97 -4.82 -4.725 -3.868 -4.725 C -.893 -4.725 1.31 -7.42 1.31 -12.321 C 1.31 -17.256 -1.458 -20.617 -5.742 -20.617 C -8.479 -20.617 -10.324 -19.217 -11.753 -17.187 L -9.432 -14.701 C -8.45 -16.066 -7.379 -16.906 -5.921 -16.906 C -4.047 -16.906 -2.916 -15.366 -2.916 -12.321 C -2.916 -9.101 -3.987 -8.12 -5.504 -8.12 C -6.278 -8.12 -6.902 -8.365 -7.706 -8.926 L -10.533 -8.926 L -10.533 3.536 L .477 3.536 Z " fill="#ffffff"/>
<path transform="matrix(1,0,0,-1,40.864,107.4525)" d="M 0 0 L 4.631 0 L 4.451 -1.248 L 1.672 -1.248 L 1.672 -3.978 L 4.091 -3.978 L 4.091 -5.226 L 1.672 -5.226 L 1.672 -8.983 L 0 -8.983 Z " fill="#ffffff"/>
<path transform="matrix(1,0,0,-1,0,150)" d="M 47.854 33.564 L 46.182 33.564 L 46.182 42.546998 L 47.854 42.546998 Z " fill="#ffffff"/>
<path transform="matrix(1,0,0,-1,50.9031,115.058)" d="M 0 0 L 3.165 0 L 2.984 -1.378 L -1.672 -1.378 L -1.672 7.605 L 0 7.605 Z " fill="#ffffff"/>
<path transform="matrix(1,0,0,-1,0,150)" d="M 56.421 33.564 L 54.749 33.564 L 54.749 42.546998 L 56.421 42.546998 Z " fill="#ffffff"/>
<path transform="matrix(1,0,0,-1,61.6824,105.8138)" d="M 0 0 L -.412 -.832 L -3.101 .233 L -2.47 1.494 Z M .682 -2.887 L -2.213 -2.887 L -2.213 -5.435 L .321 -5.435 L .321 -6.67 L -2.213 -6.67 L -2.213 -9.36 L .887 -9.36 L .887 -10.622 L -3.885 -10.622 L -3.885 -1.639 L .861 -1.639 Z " fill="#ffffff"/>
<path transform="matrix(1,0,0,-1,65.8992,111.6127)" d="M 0 0 C 1.055 0 1.543 .468 1.543 1.521 C 1.543 2.496 1.055 2.925 -.104 2.925 L -.76 2.925 L -.76 0 Z M .154 -1.209 L -.76 -1.209 L -.76 -4.823 L -2.432 -4.823 L -2.432 4.16 L -.091 4.16 C 2.187 4.16 3.267 3.25 3.267 1.521 C 3.267 .391 2.752 -.455 1.672 -.896 L 3.743 -4.823 L 1.903 -4.823 Z " fill="#ffffff"/>
<path transform="matrix(1,0,0,-1,74.8553,108.7006)" d="M 0 0 L -2.895 0 L -2.895 -2.548 L -.36 -2.548 L -.36 -3.783 L -2.895 -3.783 L -2.895 -6.474 L .205 -6.474 L .205 -7.735 L -4.566 -7.735 L -4.566 1.248 L .18 1.248 Z " fill="#ffffff"/>
<path transform="matrix(1,0,0,-1,81.3308,108.3627)" d="M 0 0 L -.798 -.923 C -1.363 -.416 -1.903 -.182 -2.547 -.182 C -3.28 -.182 -3.756 -.585 -3.756 -1.261 C -3.756 -1.911 -3.447 -2.235 -2.135 -2.704 C -.694 -3.237 .231 -3.887 .231 -5.512 C .231 -7.085 -.926 -8.268 -2.855 -8.268 C -4.181 -8.268 -5.106 -7.761 -5.801 -7.046 L -4.952 -6.097 C -4.348 -6.63 -3.73 -6.968 -2.92 -6.968 C -2.058 -6.968 -1.505 -6.461 -1.505 -5.603 C -1.505 -4.862 -1.826 -4.485 -3.049 -4.056 C -4.746 -3.445 -5.467 -2.678 -5.467 -1.378 C -5.467 .078 -4.283 1.105 -2.662 1.105 C -1.505 1.105 -.694 .715 0 0 " fill="#ffffff"/>
<path transform="matrix(1,0,0,-1,42.5359,121.2133)" d="M 0 0 L 0 -6.461 L .708 -6.461 C 1.865 -6.461 2.792 -5.876 2.792 -3.186 C 2.792 -.442 1.814 0 .669 0 Z M 4.516 -3.186 C 4.516 -6.852 2.561 -7.723 .592 -7.723 L -1.672 -7.723 L -1.672 1.261 L .412 1.261 C 2.521 1.261 4.516 .585 4.516 -3.186 " fill="#ffffff"/>
<path transform="matrix(1,0,0,-1,52.6336,121.2006)" d="M 0 0 L -2.895 0 L -2.895 -2.548 L -.36 -2.548 L -.36 -3.783 L -2.895 -3.783 L -2.895 -6.474 L .206 -6.474 L .206 -7.735 L -4.566 -7.735 L -4.566 1.248 L .181 1.248 Z " fill="#ffffff"/>
<path transform="matrix(1,0,0,-1,64.1765,128.9359)" d="M 0 0 L -1.596 0 L -1.788 3.783 C -1.853 5.109 -1.904 6.487 -1.879 7.437 L -3.28 .976 L -4.837 .976 L -6.316 7.449 C -6.277 6.254 -6.304 5.019 -6.354 3.731 L -6.535 0 L -8.117 0 L -7.5 8.983 L -5.377 8.983 L -4.026 2.665 L -2.766 8.983 L -.618 8.983 Z " fill="#ffffff"/>
<path transform="matrix(1,0,0,-1,0,150)" d="M 66.971 21.064 L 65.299 21.064 L 65.299 30.046999 L 66.971 30.046999 Z " fill="#ffffff"/>
<path transform="matrix(1,0,0,-1,74.3367,120.8099)" d="M 0 0 L -.862 -.897 C -1.415 -.442 -1.865 -.222 -2.548 -.222 C -3.68 -.222 -4.593 -1.054 -4.593 -3.628 C -4.593 -6.228 -3.976 -7.034 -2.779 -7.034 C -2.329 -7.034 -1.917 -6.917 -1.557 -6.695 L -1.557 -4.304 L -2.715 -4.304 L -2.882 -3.056 L .051 -3.056 L .051 -7.437 C -.746 -7.982 -1.737 -8.32 -2.753 -8.32 C -5.095 -8.32 -6.329 -6.8 -6.329 -3.628 C -6.329 -.481 -4.645 1.053 -2.599 1.053 C -1.479 1.053 -.695 .649 0 0 " fill="#ffffff"/>
<path transform="matrix(1,0,0,-1,78.0086,124.1127)" d="M 0 0 C 1.055 0 1.544 .468 1.544 1.521 C 1.544 2.496 1.055 2.925 -.103 2.925 L -.759 2.925 L -.759 0 Z M .154 -1.209 L -.759 -1.209 L -.759 -4.823 L -2.431 -4.823 L -2.431 4.16 L -.09 4.16 C 2.187 4.16 3.268 3.25 3.268 1.521 C 3.268 .391 2.753 -.455 1.672 -.896 L 3.743 -4.823 L 1.904 -4.823 Z " fill="#ffffff"/>
<path transform="matrix(1,0,0,-1,86.409,125.5687)" d="M 0 0 L -1.003 4.329 L -2.006 0 Z M .283 -1.273 L -2.289 -1.273 L -2.778 -3.367 L -4.463 -3.367 L -1.993 5.616 L .039 5.616 L 2.496 -3.367 L .772 -3.367 Z " fill="#ffffff"/>
<path transform="matrix(1,0,0,-1,93.9197,121.2787)" d="M 0 0 L -2.046 0 L -2.046 -7.657 L -3.705 -7.657 L -3.705 0 L -5.84 0 L -5.84 1.326 L .18 1.326 Z " fill="#ffffff"/>
<path transform="matrix(1,0,0,-1,0,150)" d="M 96.401 21.064 L 94.729007 21.064 L 94.729007 30.046999 L 96.401 30.046999 Z " fill="#ffffff"/>
<path transform="matrix(1,0,0,-1,99.1863,124.4506)" d="M 0 0 C 0 -2.509 .669 -3.394 1.788 -3.394 C 2.959 -3.394 3.589 -2.509 3.589 .013 C 3.589 2.496 2.959 3.406 1.788 3.406 C .644 3.406 0 2.496 0 0 M 5.339 .013 C 5.339 -3.055 3.988 -4.68 1.788 -4.68 C -.386 -4.68 -1.749 -3.107 -1.749 0 C -1.749 3.055 -.386 4.693 1.788 4.693 C 3.975 4.693 5.339 3.133 5.339 .013 " fill="#ffffff"/>
<path transform="matrix(1,0,0,-1,111.5701,128.9359)" d="M 0 0 L -2.136 0 L -4.733 7.319 C -4.656 6.514 -4.515 5.383 -4.515 3.731 L -4.515 0 L -6.007 0 L -6.007 8.983 L -3.897 8.983 L -1.273 1.664 C -1.351 2.171 -1.492 3.445 -1.492 4.72 L -1.492 8.983 L 0 8.983 Z " fill="#ffffff"/>
<path transform="matrix(1,0,0,-1,43.2957,136.6127)" d="M 0 0 C 1.055 0 1.543 .468 1.543 1.521 C 1.543 2.496 1.055 2.925 -.104 2.925 L -.76 2.925 L -.76 0 Z M .154 -1.209 L -.76 -1.209 L -.76 -4.823 L -2.432 -4.823 L -2.432 4.16 L -.091 4.16 C 2.187 4.16 3.267 3.25 3.267 1.521 C 3.267 .391 2.752 -.455 1.672 -.896 L 3.743 -4.823 L 1.903 -4.823 Z " fill="#ffffff"/>
<path transform="matrix(1,0,0,-1,51.6336,130.5677)" d="M 0 0 L -2.688 -1.078 L -3.1 -.246 L -.63 1.248 Z M .618 -3.133 L -2.276 -3.133 L -2.276 -5.681 L .258 -5.681 L .258 -6.916 L -2.276 -6.916 L -2.276 -9.606 L .823 -9.606 L .823 -10.868 L -3.948 -10.868 L -3.948 -1.885 L .798 -1.885 Z " fill="#ffffff"/>
<path transform="matrix(1,0,0,-1,59.1551,133.3099)" d="M 0 0 L -.862 -.897 C -1.415 -.442 -1.865 -.222 -2.547 -.222 C -3.679 -.222 -4.592 -1.054 -4.592 -3.628 C -4.592 -6.228 -3.975 -7.034 -2.778 -7.034 C -2.328 -7.034 -1.917 -6.917 -1.557 -6.695 L -1.557 -4.304 L -2.714 -4.304 L -2.881 -3.056 L .052 -3.056 L .052 -7.437 C -.746 -7.982 -1.736 -8.32 -2.753 -8.32 C -5.094 -8.32 -6.329 -6.8 -6.329 -3.628 C -6.329 -.481 -4.644 1.053 -2.599 1.053 C -1.479 1.053 -.694 .649 0 0 " fill="#ffffff"/>
<path transform="matrix(1,0,0,-1,66.3592,138.7318)" d="M 0 0 C 0 -1.638 -1.029 -2.898 -3.036 -2.898 C -5.068 -2.898 -6.072 -1.677 -6.072 0 L -6.072 6.279 L -4.399 6.279 L -4.399 .091 C -4.399 -1.026 -3.988 -1.586 -3.036 -1.586 C -2.098 -1.586 -1.673 -1.026 -1.673 .091 L -1.673 6.279 L 0 6.279 Z " fill="#ffffff"/>
<path transform="matrix(1,0,0,-1,69.3513,140.058)" d="M 0 0 L 3.165 0 L 2.984 -1.378 L -1.672 -1.378 L -1.672 7.605 L 0 7.605 Z " fill="#ffffff"/>
<path transform="matrix(1,0,0,-1,0,150)" d="M 74.869 8.564 L 73.19701 8.564 L 73.19701 17.547 L 74.869 17.547 Z " fill="#ffffff"/>
<path transform="matrix(1,0,0,-1,80.1306,130.8138)" d="M 0 0 L -.411 -.832 L -3.1 .233 L -2.47 1.494 Z M .682 -2.887 L -2.213 -2.887 L -2.213 -5.435 L .321 -5.435 L .321 -6.67 L -2.213 -6.67 L -2.213 -9.36 L .888 -9.36 L .888 -10.622 L -3.885 -10.622 L -3.885 -1.639 L .862 -1.639 Z " fill="#ffffff"/>
<path transform="matrix(1,0,0,-1,84.3474,136.6127)" d="M 0 0 C 1.055 0 1.544 .468 1.544 1.521 C 1.544 2.496 1.055 2.925 -.103 2.925 L -.759 2.925 L -.759 0 Z M .154 -1.209 L -.759 -1.209 L -.759 -4.823 L -2.431 -4.823 L -2.431 4.16 L -.09 4.16 C 2.187 4.16 3.268 3.25 3.268 1.521 C 3.268 .391 2.753 -.455 1.672 -.896 L 3.743 -4.823 L 1.904 -4.823 Z " fill="#ffffff"/>
<path transform="matrix(1,0,0,-1,93.3035,133.70059)" d="M 0 0 L -2.895 0 L -2.895 -2.548 L -.36 -2.548 L -.36 -3.783 L -2.895 -3.783 L -2.895 -6.474 L .206 -6.474 L .206 -7.735 L -4.566 -7.735 L -4.566 1.248 L .181 1.248 Z " fill="#ffffff"/>
<path transform="matrix(1,0,0,-1,121.9207,56.2445)" d="M 0 0 L -10.867 0 L -10.867 10.852 L -3.482 10.852 L -3.482 9.602 L -9.617 9.602 L -9.617 1.25 L -1.25 1.25 L -1.25 4.523 L 0 4.523 Z " fill="#ffffff"/>
<path transform="matrix(1,0,0,-1,116.6287,53.359704)" d="M 0 0 L -3.156 3.504 L -2.229 4.34 L -.039 1.91 L 3.722 6.446 L 4.685 5.647 Z " fill="#ffffff"/>
<path transform="matrix(1,0,0,-1,38.9461,56.2445)" d="M 0 0 L -10.866 0 L -10.866 10.852 L -3.482 10.852 L -3.482 9.602 L -9.616 9.602 L -9.616 1.25 L -1.25 1.25 L -1.25 4.523 L 0 4.523 Z " fill="#ffffff"/>
<path transform="matrix(1,0,0,-1,33.6541,53.360704)" d="M 0 0 L -3.156 3.505 L -2.227 4.341 L -.039 1.912 L 3.722 6.447 L 4.685 5.648 Z " fill="#ffffff"/>
<path transform="matrix(1,0,0,-1,80.6746,29.850998)" d="M 0 0 L -10.867 0 L -10.867 10.851 L -3.483 10.851 L -3.483 9.601 L -9.617 9.601 L -9.617 1.25 L -1.25 1.25 L -1.25 4.523 L 0 4.523 Z " fill="#ffffff"/>
<path transform="matrix(1,0,0,-1,75.3826,26.968102)" d="M 0 0 L -3.156 3.505 L -2.229 4.341 L -.039 1.912 L 3.721 6.447 L 4.684 5.65 Z " fill="#ffffff"/>
<path transform="matrix(1,0,0,-1,75.2478,69.3285)" d="M 0 0 C -2.878 0 -5.22 -2.338 -5.22 -5.211 C -5.22 -8.084 -2.878 -10.422 0 -10.422 C 2.879 -10.422 5.221 -8.084 5.221 -5.211 C 5.221 -2.338 2.879 0 0 0 M 0 -11.672 C -3.567 -11.672 -6.47 -8.773 -6.47 -5.211 C -6.47 -1.648 -3.567 1.25 0 1.25 C 3.568 1.25 6.471 -1.648 6.471 -5.211 C 6.471 -8.773 3.568 -11.672 0 -11.672 " fill="#ffffff"/>
<path transform="matrix(1,0,0,-1,84.9031,69.3617)" d="M 0 0 L -1.25 0 C -1.25 1.403 -1.053 2.791 -.662 4.126 C .889 9.443 5.415 13.528 10.871 14.534 C 11.055 14.571 11.242 14.519 11.384 14.4 C 11.527 14.281 11.609 14.105 11.609 13.92 L 11.609 10.214 L 22.793 18.029 L 11.609 25.845 L 11.609 21.73 C 11.609 21.414 11.372 21.146 11.058 21.109 C 5.431 20.447 .386 17.624 -3.149 13.161 C -3.639 12.543 -4.435 12.311 -5.182 12.57 C -5.928 12.831 -6.41 13.509 -6.41 14.299 L -6.41 24.469 C -6.41 24.813 -6.13 25.094 -5.785 25.094 L -1.826 25.094 L -9.655 36.258 L -17.483 25.094 L -13.525 25.094 C -13.181 25.094 -12.9 24.813 -12.9 24.469 L -12.9 14.3 C -12.9 13.51 -13.383 12.831 -14.129 12.57 C -14.876 12.312 -15.671 12.542 -16.16 13.161 C -19.696 17.624 -24.742 20.447 -30.368 21.109 C -30.683 21.146 -30.92 21.414 -30.92 21.73 L -30.92 25.845 L -42.104 18.029 L -30.92 10.214 L -30.92 13.92 C -30.92 14.105 -30.838 14.281 -30.694 14.4 C -30.552 14.519 -30.362 14.571 -30.182 14.534 C -24.775 13.537 -20.261 9.497 -18.681 4.24 C -18.269 2.868 -18.06 1.441 -18.06 0 L -19.31 0 C -19.31 1.32 -19.501 2.626 -19.878 3.881 C -21.252 8.451 -25.05 12.019 -29.67 13.147 L -29.67 9.015 C -29.67 8.781 -29.8 8.568 -30.006 8.46 C -30.213 8.353 -30.462 8.37 -30.653 8.502 L -43.553 17.517 C -43.72 17.634 -43.819 17.825 -43.819 18.029 C -43.819 18.233 -43.72 18.425 -43.553 18.542 L -30.653 27.557 C -30.462 27.689 -30.214 27.706 -30.006 27.599 C -29.8 27.49 -29.67 27.277 -29.67 27.044 L -29.67 22.279 C -23.936 21.463 -18.807 18.515 -15.18 13.937 C -14.945 13.642 -14.631 13.72 -14.54 13.751 C -14.449 13.783 -14.15 13.917 -14.15 14.3 L -14.15 23.844 L -18.685 23.844 C -18.918 23.844 -19.132 23.974 -19.239 24.181 C -19.347 24.387 -19.33 24.637 -19.196 24.827 L -10.167 37.705 C -9.933 38.039 -9.378 38.039 -9.144 37.705 L -.113 24.827 C .021 24.637 .037 24.387 -.07 24.181 C -.178 23.974 -.392 23.844 -.625 23.844 L -5.16 23.844 L -5.16 14.299 C -5.16 13.917 -4.861 13.783 -4.771 13.751 C -4.68 13.72 -4.364 13.64 -4.13 13.937 C -.504 18.515 4.625 21.463 10.359 22.279 L 10.359 27.044 C 10.359 27.277 10.489 27.49 10.695 27.599 C 10.902 27.706 11.151 27.688 11.343 27.557 L 24.242 18.542 C 24.409 18.425 24.509 18.233 24.509 18.029 C 24.509 17.825 24.409 17.634 24.242 17.517 L 11.343 8.502 C 11.15 8.37 10.902 8.354 10.695 8.46 C 10.489 8.568 10.359 8.781 10.359 9.015 L 10.359 13.147 C 5.697 12.01 1.887 8.401 .537 3.776 C .181 2.555 0 1.284 0 0 " fill="#ffffff"/>
</g>
</g>
</g>
</svg>
