<?xml version="1.0" encoding="UTF-8" standalone="no"?>
<svg
   xmlns:dc="http://purl.org/dc/elements/1.1/"
   xmlns:cc="http://creativecommons.org/ns#"
   xmlns:rdf="http://www.w3.org/1999/02/22-rdf-syntax-ns#"
   xmlns:svg="http://www.w3.org/2000/svg"
   xmlns="http://www.w3.org/2000/svg"
   viewBox="0 0 200 200"
   height="200"
   width="200"
   xml:space="preserve"
   id="svg2"
   version="1.1"><metadata
     id="metadata8"><rdf:RDF><cc:Work
         rdf:about=""><dc:format>image/svg+xml</dc:format><dc:type
           rdf:resource="http://purl.org/dc/dcmitype/StillImage" /></cc:Work></rdf:RDF></metadata><defs
     id="defs6"><clipPath
       id="clipPath26"
       clipPathUnits="userSpaceOnUse"><path
         id="path24"
         d="M 0,150 H 150 V 0 H 0 Z" /></clipPath></defs><g
     transform="matrix(1.3333333,0,0,-1.3333333,0,200)"
     id="g10"><path
       id="path12"
       style="fill:#003366;fill-opacity:1;fill-rule:nonzero;stroke:none"
       d="M 0,50.073 H 149.95 V 150 H 0 Z" /><path
       id="path14"
       style="fill:#c7c216;fill-opacity:1;fill-rule:nonzero;stroke:none"
       d="m 0,0.073 h 149.95 v 50 H 0 Z" /><g
       transform="translate(18.0125,12.9405)"
       id="g16"><path
         id="path18"
         style="fill:#ffffff;fill-opacity:1;fill-rule:nonzero;stroke:none"
         d="m 0,0 h -4.017 v 18.797 l -3.897,-3.115 -1.815,3.185 6.07,4.726 H 0 Z" /></g><g
       id="g20"><g
         clip-path="url(#clipPath26)"
         id="g22"><g
           transform="translate(31.6892,31.002)"
           id="g28"><path
             id="path30"
             style="fill:#ffffff;fill-opacity:1;fill-rule:nonzero;stroke:none"
             d="m 0,0 c 0,-2.87 -1.339,-4.76 -3.838,-5.565 2.528,-0.35 4.433,-2.135 4.433,-5.776 0,-3.92 -2.47,-7.281 -6.873,-7.281 -2.678,0 -4.642,1.261 -6.189,3.466 l 2.291,2.45 c 1.22,-1.47 2.232,-2.17 3.659,-2.17 1.667,0 2.887,1.33 2.887,3.78 0,2.696 -1.16,3.675 -3.183,3.675 h -1.429 l 0.476,3.361 h 0.953 c 1.695,0 2.826,1.19 2.826,3.43 0,1.926 -0.982,2.976 -2.53,2.976 -1.279,0 -2.41,-0.665 -3.481,-1.96 l -2.053,2.519 c 1.697,2.031 3.69,3.081 6.04,3.081 C -2.202,5.986 0,3.256 0,0" /></g><g
           transform="translate(44.7293,30.2413)"
           id="g32"><path
             id="path34"
             style="fill:#ffffff;fill-opacity:1;fill-rule:nonzero;stroke:none"
             d="M 0,0 -1.072,4.578 -2.145,0 Z m 0.303,-1.348 h -2.75 L -2.97,-3.561 h -1.801 l 2.64,9.5 h 2.172 l 2.626,-9.5 H 0.825 Z" /></g><g
           transform="translate(50.1541,28.1378)"
           id="g36"><path
             id="path38"
             style="fill:#ffffff;fill-opacity:1;fill-rule:nonzero;stroke:none"
             d="M 0,0 H 3.382 L 3.189,-1.457 h -4.976 v 9.5 H 0 Z" /></g><g
           transform="translate(59.2801,34.7784)"
           id="g40"><path
             id="path42"
             style="fill:#ffffff;fill-opacity:1;fill-rule:nonzero;stroke:none"
             d="M 0,0 H -2.186 V -8.098 H -3.959 V 0 h -2.282 v 1.402 h 6.434 z" /></g><g
           transform="translate(65.365,34.8604)"
           id="g44"><path
             id="path46"
             style="fill:#ffffff;fill-opacity:1;fill-rule:nonzero;stroke:none"
             d="m 0,0 h -3.094 v -2.694 h 2.709 V -4.001 H -3.094 V -6.847 H 0.22 V -8.18 h -5.101 v 9.5 h 5.073 z" /></g><g
           transform="translate(69.4803,31.7813)"
           id="g48"><path
             id="path50"
             style="fill:#ffffff;fill-opacity:1;fill-rule:nonzero;stroke:none"
             d="m 0,0 c 1.128,0 1.65,0.495 1.65,1.608 0,1.032 -0.522,1.485 -1.759,1.485 h -0.702 l 0,-3.093 z m 0.165,-1.279 h -0.976 v -3.822 h -1.787 v 9.5 h 2.502 c 2.434,0 3.588,-0.962 3.588,-2.791 0,-1.196 -0.55,-2.089 -1.704,-2.557 L 4.001,-5.101 H 2.035 Z" /></g><g
           transform="translate(80.9344,26.6807)"
           id="g52"><path
             id="path54"
             style="fill:#ffffff;fill-opacity:1;fill-rule:nonzero;stroke:none"
             d="M 0,0 H -2.282 L -5.06,7.74 C -4.978,6.888 -4.826,5.691 -4.826,3.945 V 0 h -1.595 v 9.5 h 2.255 L -1.361,1.76 C -1.444,2.296 -1.595,3.643 -1.595,4.99 V 9.5 H 0 Z" /></g><g
           transform="translate(86.6824,30.2413)"
           id="g56"><path
             id="path58"
             style="fill:#ffffff;fill-opacity:1;fill-rule:nonzero;stroke:none"
             d="M 0,0 -1.072,4.578 -2.146,0 Z M 0.302,-1.348 H -2.447 L -2.97,-3.561 h -1.801 l 2.64,9.5 h 2.172 l 2.626,-9.5 H 0.824 Z" /></g><g
           transform="translate(95.0457,34.7784)"
           id="g60"><path
             id="path62"
             style="fill:#ffffff;fill-opacity:1;fill-rule:nonzero;stroke:none"
             d="M 0,0 H -2.187 V -8.098 H -3.96 V 0 h -2.282 v 1.402 h 6.434 z" /></g><path
           id="path64"
           style="fill:#ffffff;fill-opacity:1;fill-rule:nonzero;stroke:none"
           d="M 98.037,26.681 H 96.25 v 9.5 h 1.787 z" /><g
           transform="translate(103.7156,26.6807)"
           id="g66"><path
             id="path68"
             style="fill:#ffffff;fill-opacity:1;fill-rule:nonzero;stroke:none"
             d="m 0,0 h -2.158 l -2.558,9.5 h 1.842 L -1.045,1.567 0.701,9.5 h 1.787 z" /></g><g
           transform="translate(112.0545,34.8604)"
           id="g70"><path
             id="path72"
             style="fill:#ffffff;fill-opacity:1;fill-rule:nonzero;stroke:none"
             d="m 0,0 h -3.093 v -2.694 h 2.708 V -4.001 H -3.093 V -6.847 H 0.221 V -8.18 H -4.88 v 9.5 h 5.072 z" /></g><g
           transform="translate(119.3142,35.2178)"
           id="g74"><path
             id="path76"
             style="fill:#ffffff;fill-opacity:1;fill-rule:nonzero;stroke:none"
             d="m 0,0 -0.853,-0.976 c -0.604,0.537 -1.181,0.784 -1.869,0.784 -0.784,0 -1.292,-0.426 -1.292,-1.141 0,-0.688 0.329,-1.031 1.732,-1.526 1.54,-0.564 2.53,-1.251 2.53,-2.97 0,-1.663 -1.237,-2.914 -3.3,-2.914 -1.416,0 -2.406,0.536 -3.148,1.292 l 0.907,1.004 c 0.647,-0.565 1.307,-0.922 2.173,-0.922 0.921,0 1.512,0.536 1.512,1.444 0,0.783 -0.344,1.182 -1.65,1.636 -1.814,0.646 -2.585,1.457 -2.585,2.832 0,1.54 1.265,2.626 2.997,2.626 C -1.608,1.169 -0.742,0.757 0,0" /></g><g
           transform="translate(44.7293,16.7413)"
           id="g78"><path
             id="path80"
             style="fill:#ffffff;fill-opacity:1;fill-rule:nonzero;stroke:none"
             d="M 0,0 -1.072,4.578 -2.145,0 Z M 0.55,7.672 0.11,6.792 -2.764,7.919 -2.09,9.253 Z m -0.247,-9.02 h -2.75 L -2.97,-3.561 h -1.801 l 2.64,9.5 h 2.172 l 2.626,-9.5 H 0.825 Z" /></g><g
           transform="translate(53.1306,14.6378)"
           id="g82"><path
             id="path84"
             style="fill:#ffffff;fill-opacity:1;fill-rule:nonzero;stroke:none"
             d="M 0,0 H 3.382 L 3.189,-1.457 h -4.976 v 9.5 H 0 Z" /></g><g
           transform="translate(61.7791,16.7413)"
           id="g86"><path
             id="path88"
             style="fill:#ffffff;fill-opacity:1;fill-rule:nonzero;stroke:none"
             d="M 0,0 -1.072,4.578 -2.146,0 Z M 0.302,-1.348 H -2.447 L -2.97,-3.561 h -1.801 l 2.64,9.5 h 2.172 l 2.626,-9.5 H 0.824 Z" /></g><g
           transform="translate(70.991,18.2813)"
           id="g90"><path
             id="path92"
             style="fill:#ffffff;fill-opacity:1;fill-rule:nonzero;stroke:none"
             d="m 0,0 c 1.127,0 1.649,0.495 1.649,1.608 0,1.032 -0.522,1.485 -1.759,1.485 h -0.702 l 0,-3.093 z m 0.165,-1.279 h -0.977 v -3.822 h -1.787 v 9.5 h 2.502 c 2.434,0 3.589,-0.962 3.589,-2.791 0,-1.196 -0.55,-2.089 -1.705,-2.557 L 4.001,-5.101 H 2.034 Z" /></g><g
           transform="translate(80.2449,24.6739)"
           id="g94"><path
             id="path96"
             style="fill:#ffffff;fill-opacity:1;fill-rule:nonzero;stroke:none"
             d="m 0,0 -2.874,-1.141 -0.439,0.88 2.639,1.581 z M 0.659,-3.313 H -2.434 V -6.008 H 0.274 V -7.314 H -2.434 V -10.16 H 0.88 v -1.333 h -5.101 v 9.5 h 5.073 z" /></g><g
           transform="translate(88.1785,21.2784)"
           id="g98"><path
             id="path100"
             style="fill:#ffffff;fill-opacity:1;fill-rule:nonzero;stroke:none"
             d="M 0,0 H -2.187 V -8.098 H -3.96 V 0 h -2.282 v 1.402 h 6.434 z" /></g><g
           transform="translate(94.2625,21.3604)"
           id="g102"><path
             id="path104"
             style="fill:#ffffff;fill-opacity:1;fill-rule:nonzero;stroke:none"
             d="m 0,0 h -3.093 v -2.694 h 2.708 V -4.001 H -3.093 V -6.847 H 0.221 V -8.18 H -4.88 v 9.5 h 5.072 z" /></g><g
           transform="translate(102.201,13.1807)"
           id="g106"><path
             id="path108"
             style="fill:#ffffff;fill-opacity:1;fill-rule:nonzero;stroke:none"
             d="M 0,0 H -2.282 L -5.06,7.74 C -4.978,6.888 -4.826,5.691 -4.826,3.945 V 0 h -1.595 v 9.5 h 2.255 L -1.361,1.76 C -1.444,2.296 -1.595,3.643 -1.595,4.99 V 9.5 H 0 Z" /></g><g
           transform="translate(109.4939,21.2784)"
           id="g110"><path
             id="path112"
             style="fill:#ffffff;fill-opacity:1;fill-rule:nonzero;stroke:none"
             d="M 0,0 H -2.187 V -8.098 H -3.96 V 0 h -2.282 v 1.402 h 6.434 z" /></g><path
           id="path114"
           style="fill:#ffffff;fill-opacity:1;fill-rule:nonzero;stroke:none"
           d="m 112.485,13.181 h -1.787 v 9.5 h 1.787 z" /><g
           transform="translate(115.7996,17.9239)"
           id="g116"><path
             id="path118"
             style="fill:#ffffff;fill-opacity:1;fill-rule:nonzero;stroke:none"
             d="m 0,0 c 0,-2.653 0.715,-3.589 1.911,-3.589 1.251,0 1.925,0.936 1.925,3.603 0,2.626 -0.674,3.588 -1.925,3.588 C 0.687,3.602 0,2.64 0,0 m 5.706,0.014 c 0,-3.245 -1.443,-4.963 -3.795,-4.963 -2.323,0 -3.78,1.663 -3.78,4.949 0,3.23 1.457,4.963 3.78,4.963 2.338,0 3.795,-1.65 3.795,-4.949" /></g><g
           transform="translate(129.3719,13.1807)"
           id="g120"><path
             id="path122"
             style="fill:#ffffff;fill-opacity:1;fill-rule:nonzero;stroke:none"
             d="M 0,0 H -2.282 L -5.06,7.74 C -4.977,6.888 -4.825,5.691 -4.825,3.945 V 0 H -6.42 v 9.5 h 2.254 L -1.361,1.76 C -1.443,2.296 -1.595,3.643 -1.595,4.99 V 9.5 H 0 Z" /></g><path
           id="path124"
           style="fill:#ffffff;fill-opacity:1;fill-rule:nonzero;stroke:none"
           d="m 57.3,108.013 h -1.25 v 1.314 h 1.25 z m 0,-2.629 h -1.25 v 1.314 h 1.25 z" /><path
           id="path126"
           style="fill:#ffffff;fill-opacity:1;fill-rule:nonzero;stroke:none"
           d="m 64.469,108.013 h -1.25 v 1.314 h 1.25 z m 0,-2.629 h -1.25 v 1.314 h 1.25 z" /><g
           transform="translate(72.9334,81.4063)"
           id="g128"><path
             id="path130"
             style="fill:#ffffff;fill-opacity:1;fill-rule:nonzero;stroke:none"
             d="M 0,0 H 4.118 V 6.277 L 4.426,6.459 C 5.823,7.284 6.681,8.73 6.718,10.327 6.747,11.563 6.29,12.738 5.432,13.634 4.571,14.529 3.412,15.039 2.167,15.068 -0.38,15.151 -2.54,13.098 -2.601,10.543 -2.64,8.891 -1.76,7.329 -0.307,6.469 L 0,6.287 Z M 5.368,-1.25 H -1.25 v 6.837 c -1.658,1.122 -2.646,3.001 -2.601,4.985 0.076,3.198 2.712,5.747 5.908,5.747 0.047,0 0.092,0 0.139,-10e-4 1.578,-0.037 3.047,-0.683 4.138,-1.819 1.09,-1.138 1.671,-2.63 1.634,-4.201 C 7.923,8.387 6.959,6.647 5.368,5.576 Z" /></g><g
           transform="translate(52.7976,101.9083)"
           id="g132"><path
             id="path134"
             style="fill:#ffffff;fill-opacity:1;fill-rule:nonzero;stroke:none"
             d="m 0,0 -0.27,-9.896 c -0.129,-5.108 1.821,-10.04 5.492,-13.887 4.114,-4.312 10.058,-6.861 16.31,-6.994 12.31,-0.286 22.56,8.677 22.847,19.93 L 44.649,0 Z m 22.062,-32.033 c -0.185,0 -0.371,0.002 -0.557,0.006 -6.581,0.141 -12.846,2.831 -17.188,7.381 -3.902,4.089 -5.975,9.339 -5.837,14.782 L -1.217,1.25 h 47.148 l -0.302,-12.128 c -0.3,-11.768 -10.818,-21.155 -23.567,-21.155" /></g><g
           transform="translate(75.0555,128.8751)"
           id="g136"><path
             id="path138"
             style="fill:#ffffff;fill-opacity:1;fill-rule:nonzero;stroke:none"
             d="m 0,0 h -0.139 l 0.034,1.25 H 0 Z" /></g><g
           transform="translate(86.8631,103.1583)"
           id="g140"><path
             id="path142"
             style="fill:#ffffff;fill-opacity:1;fill-rule:nonzero;stroke:none"
             d="m 0,0 h 5.634 v 8.24 c 0,9.601 -7.853,17.439 -17.505,17.474 -9.291,-0.033 -16.833,-7.138 -17.444,-16.292 h 5.647 c 0.598,6.009 5.667,10.658 11.793,10.692 C -5.324,20.078 0,14.752 0,8.24 Z M 6.884,-1.25 H -1.25 v 9.49 c 0,5.826 -4.767,10.592 -10.625,10.624 -5.656,-0.031 -10.311,-4.467 -10.589,-10.098 l -0.029,-0.594 h -8.123 l 0.019,0.644 c 0.313,10.141 8.537,18.113 18.724,18.148 h 0.004 C -1.528,26.928 6.884,18.528 6.884,8.24 Z" /></g></g></g></g></svg>