<?xml version="1.0" encoding="UTF-8" standalone="no"?>
<!DOCTYPE svg PUBLIC "-//W3C//DTD SVG 1.1//EN" "http://www.w3.org/Graphics/SVG/1.1/DTD/svg11.dtd">
<svg xmlns="http://www.w3.org/2000/svg" xmlns:xlink="http://www.w3.org/1999/xlink" version="1.1" width="150pt" height="150pt" viewBox="0 0 150 150">
<g enable-background="new">
<g id="Layer-1" data-name="03 Negative EN">
<path transform="matrix(1,0,0,-1,0,150)" d="M 0 50.073 L 149.95 50.073 L 149.95 150 L 0 150 Z " fill="#1c3664"/>
<path transform="matrix(1,0,0,-1,0,150)" d="M 0 .073 L 149.95 .073 L 149.95 50.073 L 0 50.073 Z " fill="#ee3f2b"/>
<clipPath id="cp0">
<path transform="matrix(1,0,0,-1,0,150)" d="M 0 150 L 150 150 L 150 0 L 0 0 Z "/>
</clipPath>
<g clip-path="url(#cp0)">
<path transform="matrix(1,0,0,-1,43.4793,118.2217)" d="M 0 0 C 1.116 0 1.633 .495 1.633 1.608 C 1.633 2.64 1.116 3.094 -.109 3.094 L -.804 3.094 L -.804 0 Z M .163 -1.278 L -.804 -1.278 L -.804 -5.101 L -2.573 -5.101 L -2.573 4.399 L -.096 4.399 C 2.313 4.399 3.457 3.438 3.457 1.608 C 3.457 .413 2.912 -.48 1.77 -.948 L 3.96 -5.101 L 2.014 -5.101 Z " fill="#ffffff"/>
<path transform="matrix(1,0,0,-1,53.0203,115.1416)" d="M 0 0 L -3.063 0 L -3.063 -2.695 L -.381 -2.695 L -.381 -4.001 L -3.063 -4.001 L -3.063 -6.847 L .218 -6.847 L .218 -8.181 L -4.832 -8.181 L -4.832 1.319 L .19 1.319 Z " fill="#ffffff"/>
<path transform="matrix(1,0,0,-1,59.9676,114.6055)" d="M 0 0 L -.871 -1.031 C -1.361 -.619 -1.852 -.385 -2.437 -.385 C -3.566 -.385 -4.424 -1.278 -4.424 -3.946 C -4.424 -6.53 -3.594 -7.493 -2.423 -7.493 C -1.702 -7.493 -1.212 -7.149 -.749 -6.765 L .095 -7.781 C -.463 -8.373 -1.334 -8.923 -2.505 -8.923 C -4.724 -8.923 -6.275 -7.273 -6.275 -3.946 C -6.275 -.66 -4.642 .989 -2.532 .989 C -1.443 .989 -.708 .618 0 0 " fill="#ffffff"/>
<path transform="matrix(1,0,0,-1,63.4119,118.2217)" d="M 0 0 C 1.116 0 1.633 .495 1.633 1.608 C 1.633 2.64 1.116 3.094 -.109 3.094 L -.804 3.094 L -.804 0 Z M .163 -1.278 L -.804 -1.278 L -.804 -5.101 L -2.573 -5.101 L -2.573 4.399 L -.096 4.399 C 2.313 4.399 3.457 3.438 3.457 1.608 C 3.457 .413 2.912 -.48 1.77 -.948 L 3.96 -5.101 L 2.014 -5.101 Z " fill="#ffffff"/>
<path transform="matrix(1,0,0,-1,74.3406,120.4619)" d="M 0 0 C 0 -1.732 -1.089 -3.066 -3.213 -3.066 C -5.363 -3.066 -6.425 -1.774 -6.425 0 L -6.425 6.64 L -4.655 6.64 L -4.655 .096 C -4.655 -1.087 -4.22 -1.678 -3.213 -1.678 C -2.219 -1.678 -1.77 -1.087 -1.77 .096 L -1.77 6.64 L 0 6.64 Z " fill="#ffffff"/>
<path transform="matrix(1,0,0,-1,81.2215,115.2246)" d="M 0 0 L -2.164 0 L -2.164 -8.098 L -3.92 -8.098 L -3.92 0 L -6.18 0 L -6.18 1.402 L .19 1.402 Z " fill="#ffffff"/>
<path transform="matrix(1,0,0,-1,86.9724,115.1416)" d="M 0 0 L -3.063 0 L -3.063 -2.695 L -.381 -2.695 L -.381 -4.001 L -3.063 -4.001 L -3.063 -6.847 L .218 -6.847 L .218 -8.181 L -4.832 -8.181 L -4.832 1.319 L .19 1.319 Z " fill="#ffffff"/>
<path transform="matrix(1,0,0,-1,96.5555,123.322299)" d="M 0 0 L -1.688 0 L -1.893 4.001 C -1.96 5.403 -2.015 6.86 -1.987 7.864 L -3.471 1.031 L -5.118 1.031 L -6.684 7.878 C -6.643 6.613 -6.67 5.307 -6.724 3.946 L -6.915 0 L -8.589 0 L -7.936 9.5 L -5.689 9.5 L -4.261 2.818 L -2.927 9.5 L -.653 9.5 Z " fill="#ffffff"/>
<path transform="matrix(1,0,0,-1,102.6209,115.1416)" d="M 0 0 L -3.063 0 L -3.063 -2.695 L -.381 -2.695 L -.381 -4.001 L -3.063 -4.001 L -3.063 -6.847 L .218 -6.847 L .218 -8.181 L -4.832 -8.181 L -4.832 1.319 L .19 1.319 Z " fill="#ffffff"/>
<path transform="matrix(1,0,0,-1,110.2068,123.322299)" d="M 0 0 L -2.259 0 L -5.009 7.74 C -4.927 6.888 -4.777 5.692 -4.777 3.946 L -4.777 0 L -6.356 0 L -6.356 9.5 L -4.124 9.5 L -1.348 1.76 C -1.429 2.296 -1.578 3.644 -1.578 4.991 L -1.578 9.5 L 0 9.5 Z " fill="#ffffff"/>
<path transform="matrix(1,0,0,-1,117.156,115.2246)" d="M 0 0 L -2.164 0 L -2.164 -8.098 L -3.92 -8.098 L -3.92 0 L -6.179 0 L -6.179 1.402 L .19 1.402 Z " fill="#ffffff"/>
<path transform="matrix(1,0,0,-1,125.6228,115.1416)" d="M 0 0 L -3.063 0 L -3.063 -2.695 L -.381 -2.695 L -.381 -4.001 L -3.063 -4.001 L -3.063 -6.847 L .218 -6.847 L .218 -8.181 L -4.832 -8.181 L -4.832 1.319 L .19 1.319 Z " fill="#ffffff"/>
<path transform="matrix(1,0,0,-1,132.5515,115.2246)" d="M 0 0 L -2.164 0 L -2.164 -8.098 L -3.92 -8.098 L -3.92 0 L -6.179 0 L -6.179 1.402 L .19 1.402 Z " fill="#ffffff"/>
<path transform="matrix(1,0,0,-1,46.2693,127.7246)" d="M 0 0 L -2.164 0 L -2.164 -8.098 L -3.92 -8.098 L -3.92 0 L -6.18 0 L -6.18 1.402 L .19 1.402 Z " fill="#ffffff"/>
<path transform="matrix(1,0,0,-1,49.7615,130.7217)" d="M 0 0 C 1.116 0 1.633 .495 1.633 1.608 C 1.633 2.64 1.116 3.094 -.109 3.094 L -.804 3.094 L -.804 0 Z M .163 -1.278 L -.804 -1.278 L -.804 -5.101 L -2.573 -5.101 L -2.573 4.399 L -.096 4.399 C 2.313 4.399 3.457 3.438 3.457 1.608 C 3.457 .413 2.912 -.48 1.77 -.948 L 3.96 -5.101 L 2.014 -5.101 Z " fill="#ffffff"/>
<path transform="matrix(1,0,0,-1,58.7127,132.2617)" d="M 0 0 L -1.062 4.579 L -2.123 0 Z M .299 -1.347 L -2.423 -1.347 L -2.94 -3.561 L -4.724 -3.561 L -2.11 5.939 L .041 5.939 L 2.641 -3.561 L .816 -3.561 Z " fill="#ffffff"/>
<path transform="matrix(1,0,0,-1,65.3269,135.8223)" d="M 0 0 L -2.137 0 L -4.669 9.5 L -2.845 9.5 L -1.034 1.567 L .694 9.5 L 2.464 9.5 Z " fill="#ffffff"/>
<path transform="matrix(1,0,0,-1,71.8181,132.2617)" d="M 0 0 L -1.062 4.579 L -2.123 0 Z M .3 -1.347 L -2.423 -1.347 L -2.939 -3.561 L -4.723 -3.561 L -2.109 5.939 L .041 5.939 L 2.641 -3.561 L .817 -3.561 Z " fill="#ffffff"/>
<path transform="matrix(1,0,0,-1,0,150)" d="M 76.917 14.178 L 75.147 14.178 L 75.147 23.678002 L 76.917 23.678002 Z " fill="#ffffff"/>
<path transform="matrix(1,0,0,-1,80.2049,134.3643)" d="M 0 0 L 3.349 0 L 3.158 -1.458 L -1.77 -1.458 L -1.77 8.042 L 0 8.042 Z " fill="#ffffff"/>
<path transform="matrix(1,0,0,-1,88.8758,127.655307)" d="M 0 0 L 0 -6.833 L .749 -6.833 C 1.974 -6.833 2.954 -6.215 2.954 -3.368 C 2.954 -.468 1.92 0 .708 0 Z M 4.777 -3.368 C 4.777 -7.246 2.709 -8.167 .626 -8.167 L -1.77 -8.167 L -1.77 1.333 L .436 1.333 C 2.668 1.333 4.777 .618 4.777 -3.368 " fill="#ffffff"/>
<path transform="matrix(1,0,0,-1,98.9676,124.3282)" d="M 0 0 L -2.845 -1.142 L -3.28 -.262 L -.667 1.319 Z M .653 -3.313 L -2.409 -3.313 L -2.409 -6.009 L .272 -6.009 L .272 -7.314 L -2.409 -7.314 L -2.409 -10.16 L .871 -10.16 L .871 -11.494 L -4.179 -11.494 L -4.179 -1.994 L .844 -1.994 Z " fill="#ffffff"/>
<path transform="matrix(1,0,0,-1,106.5681,127.1055)" d="M 0 0 L -.871 -1.031 C -1.361 -.619 -1.852 -.385 -2.437 -.385 C -3.566 -.385 -4.424 -1.278 -4.424 -3.946 C -4.424 -6.53 -3.594 -7.493 -2.423 -7.493 C -1.702 -7.493 -1.212 -7.149 -.749 -6.765 L .095 -7.781 C -.463 -8.373 -1.334 -8.923 -2.505 -8.923 C -4.724 -8.923 -6.275 -7.273 -6.275 -3.946 C -6.275 -.66 -4.642 .989 -2.532 .989 C -1.443 .989 -.708 .618 0 0 " fill="#ffffff"/>
<path transform="matrix(1,0,0,-1,112.2713,127.6416)" d="M 0 0 L -3.063 0 L -3.063 -2.695 L -.381 -2.695 L -.381 -4.001 L -3.063 -4.001 L -3.063 -6.847 L .218 -6.847 L .218 -8.181 L -4.832 -8.181 L -4.832 1.319 L .19 1.319 Z " fill="#ffffff"/>
<path transform="matrix(1,0,0,-1,119.8572,135.8223)" d="M 0 0 L -2.259 0 L -5.009 7.74 C -4.927 6.888 -4.777 5.692 -4.777 3.946 L -4.777 0 L -6.356 0 L -6.356 9.5 L -4.124 9.5 L -1.348 1.76 C -1.429 2.296 -1.578 3.644 -1.578 4.991 L -1.578 9.5 L 0 9.5 Z " fill="#ffffff"/>
<path transform="matrix(1,0,0,-1,126.8064,127.7246)" d="M 0 0 L -2.164 0 L -2.164 -8.098 L -3.92 -8.098 L -3.92 0 L -6.18 0 L -6.18 1.402 L .19 1.402 Z " fill="#ffffff"/>
<path transform="matrix(1,0,0,-1,21.2058,124.7032)" d="M 0 0 C -1.042 0 -2.023 -.875 -2.827 -2.275 C -2.768 -7.456 -2.083 -9.346 -.238 -9.346 C 1.368 -9.346 2.143 -7.596 2.143 -4.376 C 2.172 -1.016 1.339 0 0 0 M 6.278 -4.306 C 6.278 -9.416 3.778 -12.917 -.238 -12.917 C -5.028 -12.917 -7.052 -8.506 -7.052 -1.505 C -7.052 6.546 -4.076 11.691 .773 11.691 C 2.47 11.691 3.809 11.096 4.85 10.186 L 3.362 7.245 C 2.589 7.806 1.814 8.155 .893 8.155 C -1.19 8.155 -2.56 5.74 -2.827 1.05 C -1.726 2.695 -.387 3.431 1.131 3.431 C 4.017 3.431 6.278 .7 6.278 -4.306 " fill="#ffffff"/>
<path transform="matrix(1,0,0,-1,58.9353,61.422899)" d="M 0 0 L -2.847 3.429 L -1.886 4.228 L .154 1.771 L 5.875 6.64 L 6.686 5.688 Z " fill="#ffffff"/>
<path transform="matrix(1,0,0,-1,57.4324,45.6055)" d="M 0 0 C -.183 0 -.355 -.021 -.515 -.072 C -1.104 -.263 -1.584 -.838 -2.091 -1.447 C -2.479 -1.914 -2.881 -2.396 -3.374 -2.751 C -3.874 -3.112 -4.464 -3.344 -5.034 -3.567 C -5.767 -3.855 -6.46 -4.127 -6.818 -4.616 C -7.173 -5.1 -7.225 -5.84 -7.28 -6.624 C -7.322 -7.236 -7.367 -7.869 -7.561 -8.459 C -7.746 -9.024 -8.078 -9.545 -8.399 -10.048 C -8.83 -10.722 -9.236 -11.359 -9.236 -11.996 C -9.236 -12.634 -8.829 -13.271 -8.398 -13.946 C -8.078 -14.449 -7.746 -14.969 -7.561 -15.534 C -7.367 -16.124 -7.322 -16.757 -7.28 -17.369 C -7.225 -18.153 -7.173 -18.894 -6.818 -19.377 C -6.46 -19.865 -5.768 -20.138 -5.034 -20.425 C -4.464 -20.649 -3.874 -20.881 -3.374 -21.242 C -2.881 -21.598 -2.479 -22.079 -2.092 -22.545 C -1.584 -23.155 -1.104 -23.73 -.516 -23.921 C .037 -24.097 .747 -23.918 1.499 -23.727 C 2.105 -23.572 2.732 -23.413 3.372 -23.413 C 4.012 -23.413 4.639 -23.572 5.245 -23.727 C 5.996 -23.918 6.705 -24.097 7.258 -23.921 C 7.848 -23.73 8.327 -23.154 8.835 -22.545 C 9.224 -22.079 9.624 -21.597 10.117 -21.242 C 10.617 -20.881 11.207 -20.649 11.777 -20.426 C 12.51 -20.138 13.203 -19.866 13.562 -19.377 C 13.916 -18.894 13.969 -18.153 14.023 -17.369 C 14.065 -16.757 14.11 -16.124 14.304 -15.534 C 14.489 -14.969 14.821 -14.449 15.142 -13.946 C 15.572 -13.271 15.979 -12.634 15.979 -11.996 C 15.979 -11.359 15.573 -10.722 15.143 -10.048 C 14.821 -9.545 14.489 -9.024 14.304 -8.459 C 14.11 -7.869 14.066 -7.236 14.023 -6.624 C 13.969 -5.84 13.917 -5.1 13.562 -4.616 C 13.203 -4.127 12.511 -3.855 11.777 -3.567 C 11.207 -3.344 10.617 -3.112 10.117 -2.751 C 9.624 -2.396 9.223 -1.914 8.835 -1.448 C 8.327 -.838 7.848 -.263 7.259 -.072 C 6.707 .104 5.996 -.076 5.244 -.267 C 4.639 -.421 4.012 -.58 3.372 -.58 C 2.732 -.58 2.104 -.421 1.498 -.267 C .964 -.131 .451 0 0 0 M -.001 -25.244 C -.302 -25.244 -.602 -25.206 -.898 -25.11 C -1.833 -24.81 -2.481 -24.031 -3.053 -23.345 C -3.406 -22.92 -3.74 -22.519 -4.104 -22.256 C -4.478 -21.987 -4.97 -21.794 -5.491 -21.589 C -6.357 -21.248 -7.253 -20.896 -7.826 -20.117 C -8.396 -19.342 -8.462 -18.383 -8.527 -17.456 C -8.566 -16.896 -8.604 -16.366 -8.748 -15.923 C -8.884 -15.509 -9.16 -15.076 -9.452 -14.618 C -9.938 -13.859 -10.486 -12.999 -10.486 -11.996 C -10.486 -10.994 -9.938 -10.134 -9.453 -9.375 C -9.16 -8.917 -8.884 -8.484 -8.748 -8.07 C -8.604 -7.627 -8.566 -7.098 -8.527 -6.537 C -8.462 -5.609 -8.396 -4.651 -7.826 -3.876 C -7.253 -3.096 -6.357 -2.744 -5.49 -2.404 C -4.97 -2.199 -4.478 -2.006 -4.104 -1.737 C -3.74 -1.475 -3.405 -1.072 -3.052 -.647 C -2.48 .039 -1.833 .816 -.897 1.117 C 0 1.405 .918 1.171 1.807 .945 C 2.363 .804 2.889 .67 3.372 .67 C 3.854 .67 4.38 .804 4.937 .945 C 5.827 1.172 6.749 1.405 7.642 1.117 C 8.576 .816 9.225 .038 9.796 -.648 C 10.149 -1.073 10.483 -1.475 10.848 -1.737 C 11.221 -2.006 11.713 -2.199 12.234 -2.404 C 13.101 -2.744 13.997 -3.096 14.569 -3.876 C 15.139 -4.651 15.206 -5.61 15.271 -6.537 C 15.31 -7.098 15.347 -7.628 15.491 -8.07 C 15.627 -8.484 15.903 -8.917 16.196 -9.375 C 16.681 -10.134 17.229 -10.994 17.229 -11.996 C 17.229 -12.999 16.681 -13.859 16.195 -14.618 C 15.903 -15.076 15.627 -15.509 15.491 -15.923 C 15.347 -16.366 15.31 -16.896 15.271 -17.456 C 15.205 -18.384 15.139 -19.342 14.569 -20.117 C 13.996 -20.897 13.101 -21.249 12.233 -21.589 C 11.713 -21.794 11.221 -21.987 10.848 -22.256 C 10.483 -22.519 10.149 -22.92 9.796 -23.345 C 9.225 -24.031 8.576 -24.81 7.641 -25.11 C 6.745 -25.4 5.826 -25.165 4.937 -24.938 C 4.38 -24.797 3.855 -24.663 3.372 -24.663 C 2.889 -24.663 2.363 -24.797 1.807 -24.938 C 1.212 -25.09 .604 -25.244 -.001 -25.244 " fill="#ffffff"/>
<path transform="matrix(1,0,0,-1,102.324,80.125)" d="M 0 0 L -42.988 0 C -43.333 0 -43.613 .28 -43.613 .625 L -43.613 10.229 L -42.363 10.229 L -42.363 1.25 L -.625 1.25 L -.625 44.997 L -14.715 59 L -42.363 59 L -42.363 35.394 L -43.613 35.394 L -43.613 59.625 C -43.613 59.97 -43.333 60.25 -42.988 60.25 L -14.457 60.25 C -14.292 60.25 -14.134 60.185 -14.017 60.068 L .44 45.7 C .559 45.583 .625 45.423 .625 45.257 L .625 .625 C .625 .28 .345 0 0 0 " fill="#ffffff"/>
<path transform="matrix(1,0,0,-1,88.492,34.243204)" d="M 0 0 L 12.316 0 L 0 12.241 Z M 13.832 -1.25 L -.625 -1.25 C -.97 -1.25 -1.25 -.97 -1.25 -.625 L -1.25 13.743 C -1.25 13.995 -1.098 14.224 -.865 14.32 C -.632 14.418 -.363 14.365 -.185 14.187 L 14.272 -.182 C 14.452 -.36 14.506 -.629 14.41 -.863 C 14.313 -1.098 14.085 -1.25 13.832 -1.25 " fill="#ffffff"/>
<path transform="matrix(1,0,0,-1,60.8045,51.2051)" d="M 0 0 C -3.611 0 -6.55 -2.918 -6.55 -6.505 C -6.55 -10.092 -3.611 -13.01 0 -13.01 C 3.611 -13.01 6.549 -10.092 6.549 -6.505 C 6.549 -2.918 3.611 0 0 0 M 0 -14.26 C -4.301 -14.26 -7.8 -10.781 -7.8 -6.505 C -7.8 -2.229 -4.301 1.25 0 1.25 C 4.3 1.25 7.799 -2.229 7.799 -6.505 C 7.799 -10.781 4.3 -14.26 0 -14.26 " fill="#ffffff"/>
<path transform="matrix(1,0,0,-1,80.7596,69.9034)" d="M 0 0 C -.187 0 -.356 .057 -.516 .179 C -1.216 .718 -.713 1.793 -.017 3.282 C .124 3.584 .315 3.993 .462 4.349 C -.186 3.909 -1.428 2.914 -3.782 .672 C -4.032 .435 -4.428 .443 -4.665 .693 C -4.903 .943 -4.894 1.339 -4.644 1.576 C .24 6.229 1.035 6.237 1.623 5.749 C 2.268 5.219 1.81 4.238 1.116 2.754 C .964 2.429 .755 1.981 .602 1.603 C .964 1.854 1.405 2.196 1.771 2.479 C 3.491 3.815 5.272 5.197 6.454 4.444 C 6.852 4.191 6.972 3.816 7.06 3.542 C 7.133 3.314 7.195 3.119 7.398 2.895 C 7.867 2.375 8.713 2.137 9.896 2.199 C 10.205 2.232 10.534 1.951 10.55 1.605 C 10.566 1.261 10.301 .968 9.956 .951 C 8.376 .869 7.203 1.246 6.471 2.057 C 6.088 2.48 5.957 2.89 5.87 3.159 C 5.842 3.246 5.805 3.363 5.782 3.392 C 5.34 3.676 3.305 2.088 2.536 1.491 C 1.402 .612 .614 0 0 0 " fill="#ffffff"/>
<path transform="matrix(1,0,0,-1,0,150)" d="M 95.825 97.921 L 71.88699 97.921 L 71.88699 99.171 L 95.825 99.171 Z " fill="#ffffff"/>
<path transform="matrix(1,0,0,-1,0,150)" d="M 95.825 106.434 L 65.835 106.434 L 65.835 107.684 L 95.825 107.684 Z " fill="#ffffff"/>
</g>
</g>
</g>
</svg>
