<?xml version="1.0" encoding="UTF-8" standalone="no"?>
<svg
   xmlns:dc="http://purl.org/dc/elements/1.1/"
   xmlns:cc="http://creativecommons.org/ns#"
   xmlns:rdf="http://www.w3.org/1999/02/22-rdf-syntax-ns#"
   xmlns:svg="http://www.w3.org/2000/svg"
   xmlns="http://www.w3.org/2000/svg"
   viewBox="0 0 200 200"
   height="200"
   width="200"
   xml:space="preserve"
   id="svg2"
   version="1.1"><metadata
     id="metadata8"><rdf:RDF><cc:Work
         rdf:about=""><dc:format>image/svg+xml</dc:format><dc:type
           rdf:resource="http://purl.org/dc/dcmitype/StillImage" /></cc:Work></rdf:RDF></metadata><defs
     id="defs6"><clipPath
       id="clipPath30"
       clipPathUnits="userSpaceOnUse"><path
         id="path28"
         d="M 0,150 H 150 V 0 H 0 Z" /></clipPath></defs><g
     transform="matrix(1.3333333,0,0,-1.3333333,0,200)"
     id="g10"><path
       id="path12"
       style="fill:#003366;fill-opacity:1;fill-rule:nonzero;stroke:none"
       d="M 0,50.074 H 149.95 V 150 H 0 Z" /><path
       id="path14"
       style="fill:#8dc120;fill-opacity:1;fill-rule:nonzero;stroke:none"
       d="m 0,0.074 h 149.95 v 50 H 0 Z" /><g
       transform="translate(17.6394,12.9409)"
       id="g16"><path
         id="path18"
         style="fill:#ffffff;fill-opacity:1;fill-rule:nonzero;stroke:none"
         d="m 0,0 h -4.017 v 18.797 l -3.897,-3.115 -1.815,3.185 6.07,4.726 H 0 Z" /></g><g
       transform="translate(33.0154,18.2261)"
       id="g20"><path
         id="path22"
         style="fill:#ffffff;fill-opacity:1;fill-rule:nonzero;stroke:none"
         d="M 0,0 H -2.054 V -5.285 H -6.011 L -6.04,0 h -7.736 V 3.291 L -8.6,18.832 -5.118,17.362 -9.552,3.711 h 3.541 l 0.477,5.81 h 3.48 v -5.81 l 2.054,0 z" /></g><g
       id="g24"><g
         clip-path="url(#clipPath30)"
         id="g26"><g
           transform="translate(45.2244,32.1548)"
           id="g32"><path
             id="path34"
             style="fill:#ffffff;fill-opacity:1;fill-rule:nonzero;stroke:none"
             d="m 0,0 c 0,1.196 -0.591,1.719 -1.801,1.719 h -0.687 v -3.533 h 0.687 C -0.633,-1.814 0,-1.389 0,0 m 1.842,0 c 0,-2.158 -1.403,-3.148 -3.533,-3.148 h -0.797 v -3.328 h -1.787 v 9.5 h 2.461 C 0.522,3.024 1.842,2.021 1.842,0" /></g><g
           transform="translate(50.7918,30.7798)"
           id="g36"><path
             id="path38"
             style="fill:#ffffff;fill-opacity:1;fill-rule:nonzero;stroke:none"
             d="m 0,0 c 1.127,0 1.649,0.495 1.649,1.608 0,1.032 -0.522,1.486 -1.759,1.486 h -0.702 l 0,-3.094 z m 0.165,-1.278 h -0.977 v -3.823 h -1.787 v 9.5 h 2.502 c 2.434,0 3.589,-0.961 3.589,-2.791 0,-1.195 -0.55,-2.088 -1.705,-2.556 L 4.001,-5.101 H 2.034 Z" /></g><g
           transform="translate(57.1775,30.4224)"
           id="g40"><path
             id="path42"
             style="fill:#ffffff;fill-opacity:1;fill-rule:nonzero;stroke:none"
             d="m 0,0 c 0,-2.653 0.715,-3.588 1.911,-3.588 1.251,0 1.925,0.935 1.925,3.602 0,2.626 -0.674,3.589 -1.925,3.589 C 0.687,3.603 0,2.64 0,0 m 5.705,0.014 c 0,-3.244 -1.443,-4.963 -3.794,-4.963 -2.323,0 -3.781,1.664 -3.781,4.949 0,3.231 1.458,4.963 3.781,4.963 2.337,0 3.794,-1.65 3.794,-4.949" /></g><g
           transform="translate(69.6326,33.7769)"
           id="g44"><path
             id="path46"
             style="fill:#ffffff;fill-opacity:1;fill-rule:nonzero;stroke:none"
             d="M 0,0 H -2.186 V -8.098 H -3.959 V 0 h -2.282 v 1.402 h 6.434 z" /></g><g
           transform="translate(75.7176,33.8599)"
           id="g48"><path
             id="path50"
             style="fill:#ffffff;fill-opacity:1;fill-rule:nonzero;stroke:none"
             d="m 0,0 h -3.094 v -2.695 h 2.709 V -4.001 H -3.094 V -6.847 H 0.22 v -1.334 h -5.101 v 9.5 h 5.073 z" /></g><g
           transform="translate(83.0076,34.396)"
           id="g52"><path
             id="path54"
             style="fill:#ffffff;fill-opacity:1;fill-rule:nonzero;stroke:none"
             d="m 0,0 -0.88,-1.031 c -0.495,0.412 -0.99,0.646 -1.581,0.646 -1.142,0 -2.008,-0.893 -2.008,-3.561 0,-2.584 0.839,-3.547 2.022,-3.547 0.728,0 1.223,0.344 1.691,0.728 l 0.852,-1.016 c -0.564,-0.592 -1.444,-1.142 -2.626,-1.142 -2.241,0 -3.808,1.65 -3.808,4.977 0,3.286 1.65,4.935 3.78,4.935 C -1.457,0.989 -0.715,0.618 0,0" /></g><g
           transform="translate(89.9441,33.7769)"
           id="g56"><path
             id="path58"
             style="fill:#ffffff;fill-opacity:1;fill-rule:nonzero;stroke:none"
             d="M 0,0 H -2.186 V -8.098 H -3.959 V 0 h -2.282 v 1.402 h 6.434 z" /></g><path
           id="path60"
           style="fill:#ffffff;fill-opacity:1;fill-rule:nonzero;stroke:none"
           d="m 92.935,25.679 h -1.787 v 9.5 h 1.787 z" /><g
           transform="translate(96.2508,30.4224)"
           id="g62"><path
             id="path64"
             style="fill:#ffffff;fill-opacity:1;fill-rule:nonzero;stroke:none"
             d="m 0,0 c 0,-2.653 0.715,-3.588 1.911,-3.588 1.251,0 1.925,0.935 1.925,3.602 0,2.626 -0.674,3.589 -1.925,3.589 C 0.687,3.603 0,2.64 0,0 m 5.706,0.014 c 0,-3.244 -1.443,-4.963 -3.795,-4.963 -2.323,0 -3.78,1.664 -3.78,4.949 0,3.231 1.457,4.963 3.78,4.963 2.338,0 3.795,-1.65 3.795,-4.949" /></g><g
           transform="translate(109.823,25.6792)"
           id="g66"><path
             id="path68"
             style="fill:#ffffff;fill-opacity:1;fill-rule:nonzero;stroke:none"
             d="M 0,0 H -2.282 L -5.06,7.74 C -4.978,6.888 -4.826,5.692 -4.826,3.946 V 0 h -1.595 v 9.5 h 2.255 L -1.361,1.76 C -1.444,2.296 -1.595,3.644 -1.595,4.991 V 9.5 H 0 Z" /></g><g
           transform="translate(46.8738,21.896)"
           id="g70"><path
             id="path72"
             style="fill:#ffffff;fill-opacity:1;fill-rule:nonzero;stroke:none"
             d="m 0,0 -0.88,-1.031 c -0.495,0.412 -0.989,0.646 -1.581,0.646 -1.141,0 -2.007,-0.893 -2.007,-3.561 0,-2.584 0.839,-3.547 2.021,-3.547 0.729,0 1.223,0.344 1.691,0.728 l 0.853,-1.016 c -0.564,-0.592 -1.444,-1.142 -2.626,-1.142 -2.242,0 -3.809,1.65 -3.809,4.977 0,3.286 1.651,4.935 3.781,4.935 1.1,0 1.842,-0.371 2.557,-0.989" /></g><g
           transform="translate(49.2449,17.9224)"
           id="g74"><path
             id="path76"
             style="fill:#ffffff;fill-opacity:1;fill-rule:nonzero;stroke:none"
             d="m 0,0 c 0,-2.653 0.715,-3.588 1.911,-3.588 1.251,0 1.925,0.935 1.925,3.602 0,2.626 -0.674,3.589 -1.925,3.589 C 0.687,3.603 0,2.64 0,0 m 5.706,0.014 c 0,-3.244 -1.443,-4.963 -3.795,-4.963 -2.323,0 -3.78,1.664 -3.78,4.949 0,3.231 1.457,4.963 3.78,4.963 2.338,0 3.795,-1.65 3.795,-4.949" /></g><g
           transform="translate(62.8172,13.1792)"
           id="g78"><path
             id="path80"
             style="fill:#ffffff;fill-opacity:1;fill-rule:nonzero;stroke:none"
             d="M 0,0 H -2.282 L -5.06,7.74 C -4.977,6.888 -4.825,5.692 -4.825,3.946 V 0 H -6.42 v 9.5 h 2.254 L -1.361,1.76 C -1.443,2.296 -1.595,3.644 -1.595,4.991 V 9.5 H 0 Z" /></g><g
           transform="translate(70.0828,21.7173)"
           id="g82"><path
             id="path84"
             style="fill:#ffffff;fill-opacity:1;fill-rule:nonzero;stroke:none"
             d="m 0,0 -0.853,-0.977 c -0.604,0.537 -1.182,0.785 -1.87,0.785 -0.783,0 -1.292,-0.427 -1.292,-1.142 0,-0.687 0.33,-1.031 1.733,-1.525 1.54,-0.565 2.529,-1.252 2.529,-2.97 0,-1.664 -1.237,-2.915 -3.3,-2.915 -1.416,0 -2.405,0.536 -3.147,1.292 l 0.907,1.004 c 0.646,-0.564 1.306,-0.921 2.172,-0.921 0.921,0 1.513,0.536 1.513,1.443 0,0.784 -0.344,1.183 -1.651,1.636 -1.814,0.646 -2.584,1.458 -2.584,2.832 0,1.54 1.265,2.626 2.997,2.626 C -1.608,1.168 -0.742,0.756 0,0" /></g><g
           transform="translate(77.9568,16.0396)"
           id="g86"><path
             id="path88"
             style="fill:#ffffff;fill-opacity:1;fill-rule:nonzero;stroke:none"
             d="m 0,0 c 0,-1.732 -1.1,-3.066 -3.244,-3.066 -2.173,0 -3.245,1.292 -3.245,3.066 v 6.64 h 1.788 V 0.096 c 0,-1.183 0.439,-1.774 1.457,-1.774 1.003,0 1.457,0.591 1.457,1.774 V 6.64 H 0 Z" /></g><g
           transform="translate(81.493,14.6372)"
           id="g90"><path
             id="path92"
             style="fill:#ffffff;fill-opacity:1;fill-rule:nonzero;stroke:none"
             d="M 0,0 H 3.382 L 3.189,-1.458 h -4.976 v 9.5 H 0 Z" /></g><g
           transform="translate(90.1414,16.7398)"
           id="g94"><path
             id="path96"
             style="fill:#ffffff;fill-opacity:1;fill-rule:nonzero;stroke:none"
             d="M 0,0 -1.072,4.579 -2.145,0 Z m 0.303,-1.347 h -2.75 L -2.97,-3.561 h -1.801 l 2.64,9.5 h 2.172 l 2.626,-9.5 H 0.825 Z" /></g><path
           id="path98"
           style="fill:#ffffff;fill-opacity:1;fill-rule:nonzero;stroke:none"
           d="m 95.565,13.179 h -1.787 v 9.5 h 1.787 z" /><g
           transform="translate(99.9734,18.2798)"
           id="g100"><path
             id="path102"
             style="fill:#ffffff;fill-opacity:1;fill-rule:nonzero;stroke:none"
             d="m 0,0 c 1.128,0 1.65,0.495 1.65,1.608 0,1.032 -0.522,1.486 -1.759,1.486 h -0.702 l 0,-3.094 z m 0.165,-1.278 h -0.976 v -3.823 h -1.787 v 9.5 h 2.502 c 2.434,0 3.588,-0.961 3.588,-2.791 0,-1.195 -0.55,-2.088 -1.704,-2.556 L 4.001,-5.101 H 2.035 Z" /></g><g
           transform="translate(109.8875,21.3599)"
           id="g104"><path
             id="path106"
             style="fill:#ffffff;fill-opacity:1;fill-rule:nonzero;stroke:none"
             d="m 0,0 h -3.094 v -2.695 h 2.709 V -4.001 H -3.094 V -6.847 H 0.22 v -1.334 h -5.101 v 9.5 h 5.073 z" /></g><path
           id="path108"
           style="fill:#ffffff;fill-opacity:1;fill-rule:nonzero;stroke:none"
           d="m 69.062,98.841 h -2.189 v 1.25 h 2.189 z m 4.379,0 h -2.189 v 1.25 h 2.189 z m 4.38,0 h -2.189 v 1.25 h 2.189 z m 4.379,0 h -2.189 v 1.25 H 82.2 Z" /><path
           id="path110"
           style="fill:#ffffff;fill-opacity:1;fill-rule:nonzero;stroke:none"
           d="m 74.674,116.722 h -1.25 v 13.34 h 1.25 z" /><g
           transform="translate(74.6736,121.6529)"
           id="g112"><path
             id="path114"
             style="fill:#ffffff;fill-opacity:1;fill-rule:nonzero;stroke:none"
             d="M 0,0 H 10.022 L 8.733,2.912 10.022,5.824 H 0 Z M 11.942,-1.25 H -1.25 V 7.074 H 11.942 L 10.101,2.912 Z" /></g><path
           id="path116"
           style="fill:#ffffff;fill-opacity:1;fill-rule:nonzero;stroke:none"
           d="M 91.023,74.037 H 59.164 v 1.25 h 31.859 z" /><g
           transform="translate(88.076,74.9361)"
           id="g118"><path
             id="path120"
             style="fill:#ffffff;fill-opacity:1;fill-rule:nonzero;stroke:none"
             d="M 0,0 H -1.25 V 30.313 H -24.715 V 0 h -1.25 V 31.563 H 0 Z" /></g><path
           id="path122"
           style="fill:#ffffff;fill-opacity:1;fill-rule:nonzero;stroke:none"
           d="m 60.585,106.5 h 29.017 v 6.884 H 60.585 Z m 30.266,-1.25 H 59.334 v 9.384 h 31.517 z" /><g
           transform="translate(82.1922,75.2486)"
           id="g124"><path
             id="path126"
             style="fill:#ffffff;fill-opacity:1;fill-rule:nonzero;stroke:none"
             d="M 0,0 H -1.25 V 18.108 H -12.947 V 0 h -1.25 V 19.358 H 0 Z" /></g><path
           id="path128"
           style="fill:#ffffff;fill-opacity:1;fill-rule:nonzero;stroke:none"
           d="M 92.835,69.937 H 57.353 v 1.25 h 35.482 z" /><g
           transform="translate(47.8748,70.8765)"
           id="g130"><path
             id="path132"
             style="fill:#ffffff;fill-opacity:1;fill-rule:nonzero;stroke:none"
             d="m 0,0 h -1.25 v 29.215 h 13.557 v -1.25 H 0 Z" /></g><g
           transform="translate(103.3758,70.8765)"
           id="g134"><path
             id="path136"
             style="fill:#ffffff;fill-opacity:1;fill-rule:nonzero;stroke:none"
             d="m 0,0 h -1.25 v 27.965 h -12.308 v 1.25 H 0 Z" /></g></g></g></g></svg>