<?xml version="1.0" encoding="UTF-8" standalone="no"?>
<!DOCTYPE svg PUBLIC "-//W3C//DTD SVG 1.1//EN" "http://www.w3.org/Graphics/SVG/1.1/DTD/svg11.dtd">
<svg xmlns="http://www.w3.org/2000/svg" xmlns:xlink="http://www.w3.org/1999/xlink" version="1.1" width="150pt" height="150pt" viewBox="0 0 150 150">
<g enable-background="new">
<g id="Layer-1" data-name="03 Negative EN">
<path transform="matrix(1,0,0,-1,0,150)" d="M 0 50.073 L 149.95 50.073 L 149.95 150 L 0 150 Z " fill="#003366"/>
<path transform="matrix(1,0,0,-1,0,150)" d="M 0 .074 L 149.95 .074 L 149.95 50.073 L 0 50.073 Z " fill="#19a8d5"/>
<path transform="matrix(1,0,0,-1,17.533,137.0594)" d="M 0 0 L -4.017 0 L -4.017 18.797 L -7.914 15.682 L -9.729 18.867 L -3.659 23.593 L 0 23.593 Z " fill="#ffffff"/>
<clipPath id="cp0">
<path transform="matrix(1,0,0,-1,0,150)" d="M 0 150 L 150 150 L 150 0 L 0 0 Z "/>
</clipPath>
<g clip-path="url(#cp0)">
<path transform="matrix(1,0,0,-1,28.4773,123.0926)" d="M 0 0 C .06 4.97 -.625 6.58 -2.47 6.58 C -4.017 6.58 -4.999 5.25 -4.999 2.17 C -4.999 -1.051 -4.017 -2.205 -2.708 -2.205 C -1.637 -2.205 -.714 -1.436 0 0 M 4.226 .91 C 4.226 -8.751 .714 -12.707 -6.963 -14.912 L -7.796 -11.446 C -3.243 -9.941 -.833 -7.911 -.179 -3.431 C -1.101 -4.796 -2.291 -5.671 -3.928 -5.671 C -6.725 -5.671 -9.135 -2.766 -9.135 2.03 C -9.135 7.141 -6.219 10.081 -2.47 10.081 C 1.964 10.081 4.226 6.511 4.226 .91 " fill="#ffffff"/>
<path transform="matrix(1,0,0,-1,46.782,108.3534)" d="M 0 0 L -.871 -1.031 C -1.361 -.619 -1.852 -.385 -2.436 -.385 C -3.566 -.385 -4.424 -1.278 -4.424 -3.946 C -4.424 -6.53 -3.594 -7.493 -2.422 -7.493 C -1.701 -7.493 -1.211 -7.149 -.748 -6.765 L .096 -7.781 C -.463 -8.373 -1.334 -8.923 -2.504 -8.923 C -4.723 -8.923 -6.274 -7.273 -6.274 -3.946 C -6.274 -.66 -4.641 .989 -2.531 .989 C -1.442 .989 -.707 .618 0 0 " fill="#ffffff"/>
<path transform="matrix(1,0,0,-1,48.7898,112.326999)" d="M 0 0 C 0 -2.653 .707 -3.588 1.892 -3.588 C 3.13 -3.588 3.797 -2.653 3.797 .014 C 3.797 2.64 3.13 3.603 1.892 3.603 C .68 3.603 0 2.64 0 0 M 5.648 .014 C 5.648 -3.23 4.219 -4.949 1.892 -4.949 C -.408 -4.949 -1.852 -3.285 -1.852 0 C -1.852 3.231 -.408 4.963 1.892 4.963 C 4.205 4.963 5.648 3.313 5.648 .014 " fill="#ffffff"/>
<path transform="matrix(1,0,0,-1,61.8855,117.070209)" d="M 0 0 L -2.26 0 L -5.01 7.74 C -4.928 6.888 -4.777 5.692 -4.777 3.946 L -4.777 0 L -6.357 0 L -6.357 9.5 L -4.125 9.5 L -1.348 1.76 C -1.43 2.296 -1.58 3.644 -1.58 4.991 L -1.58 9.5 L 0 9.5 Z " fill="#ffffff"/>
<path transform="matrix(1,0,0,-1,68.7664,108.9725)" d="M 0 0 L -2.164 0 L -2.164 -8.098 L -3.92 -8.098 L -3.92 0 L -6.18 0 L -6.18 1.402 L .189 1.402 Z " fill="#ffffff"/>
<path transform="matrix(1,0,0,-1,72.1902,111.969608)" d="M 0 0 C 1.115 0 1.633 .495 1.633 1.608 C 1.633 2.64 1.115 3.094 -.109 3.094 L -.803 3.094 L -.803 0 Z M .163 -1.278 L -.803 -1.278 L -.803 -5.101 L -2.572 -5.101 L -2.572 4.399 L -.096 4.399 C 2.314 4.399 3.457 3.438 3.457 1.608 C 3.457 .413 2.912 -.48 1.77 -.948 L 3.961 -5.101 L 2.014 -5.101 Z " fill="#ffffff"/>
<path transform="matrix(1,0,0,-1,0,150)" d="M 78.601 32.93 L 76.831 32.93 L 76.831 42.43 L 78.601 42.43 Z " fill="#ffffff"/>
<path transform="matrix(1,0,0,-1,84.448,114.2655)" d="M 0 0 C 0 1.1 -.639 1.54 -1.701 1.54 L -2.627 1.54 L -2.627 -1.471 L -1.81 -1.471 C -.721 -1.471 0 -1.154 0 0 M -2.627 5.39 L -2.627 2.777 L -1.823 2.777 C -.844 2.777 -.326 3.245 -.326 4.125 C -.326 5.046 -.871 5.39 -1.986 5.39 Z M 1.824 -.068 C 1.824 -2.063 .313 -2.805 -1.823 -2.805 L -4.396 -2.805 L -4.396 6.695 L -2.15 6.695 C .109 6.695 1.457 5.939 1.457 4.275 C 1.457 3.121 .695 2.461 -.217 2.228 C .857 2.008 1.824 1.457 1.824 -.068 " fill="#ffffff"/>
<path transform="matrix(1,0,0,-1,93.5476,114.2098)" d="M 0 0 C 0 -1.732 -1.09 -3.066 -3.213 -3.066 C -5.363 -3.066 -6.425 -1.774 -6.425 0 L -6.425 6.64 L -4.656 6.64 L -4.656 .096 C -4.656 -1.087 -4.221 -1.678 -3.213 -1.678 C -2.219 -1.678 -1.77 -1.087 -1.77 .096 L -1.77 6.64 L 0 6.64 Z " fill="#ffffff"/>
<path transform="matrix(1,0,0,-1,100.3601,108.9725)" d="M 0 0 L -2.164 0 L -2.164 -8.098 L -3.92 -8.098 L -3.92 0 L -6.18 0 L -6.18 1.402 L .189 1.402 Z " fill="#ffffff"/>
<path transform="matrix(1,0,0,-1,0,150)" d="M 102.98 32.93 L 101.21001 32.93 L 101.21001 42.43 L 102.98 42.43 Z " fill="#ffffff"/>
<path transform="matrix(1,0,0,-1,105.9217,112.326999)" d="M 0 0 C 0 -2.653 .708 -3.588 1.892 -3.588 C 3.13 -3.588 3.798 -2.653 3.798 .014 C 3.798 2.64 3.13 3.603 1.892 3.603 C .681 3.603 0 2.64 0 0 M 5.648 .014 C 5.648 -3.23 4.22 -4.949 1.892 -4.949 C -.408 -4.949 -1.851 -3.285 -1.851 0 C -1.851 3.231 -.408 4.963 1.892 4.963 C 4.206 4.963 5.648 3.313 5.648 .014 " fill="#ffffff"/>
<path transform="matrix(1,0,0,-1,119.0174,117.070209)" d="M 0 0 L -2.259 0 L -5.009 7.74 C -4.927 6.888 -4.777 5.692 -4.777 3.946 L -4.777 0 L -6.356 0 L -6.356 9.5 L -4.124 9.5 L -1.348 1.76 C -1.429 2.296 -1.579 3.644 -1.579 4.991 L -1.579 9.5 L 0 9.5 Z " fill="#ffffff"/>
<path transform="matrix(1,0,0,-1,42.6853,121.4032)" d="M 0 0 L 0 -6.833 L .749 -6.833 C 1.974 -6.833 2.954 -6.215 2.954 -3.368 C 2.954 -.468 1.919 0 .708 0 Z M 4.777 -3.368 C 4.777 -7.246 2.708 -8.167 .626 -8.167 L -1.77 -8.167 L -1.77 1.333 L .436 1.333 C 2.668 1.333 4.777 .618 4.777 -3.368 " fill="#ffffff"/>
<path transform="matrix(1,0,0,-1,53.3621,121.389499)" d="M 0 0 L -3.063 0 L -3.063 -2.695 L -.381 -2.695 L -.381 -4.001 L -3.063 -4.001 L -3.063 -6.847 L .219 -6.847 L .219 -8.181 L -4.832 -8.181 L -4.832 1.319 L .191 1.319 Z " fill="#ffffff"/>
<path transform="matrix(1,0,0,-1,60.2097,121.032108)" d="M 0 0 L -.844 -.977 C -1.443 -.44 -2.015 -.192 -2.695 -.192 C -3.471 -.192 -3.975 -.619 -3.975 -1.334 C -3.975 -2.021 -3.648 -2.365 -2.26 -2.859 C -.735 -3.424 .244 -4.111 .244 -5.829 C .244 -7.493 -.98 -8.744 -3.021 -8.744 C -4.424 -8.744 -5.404 -8.208 -6.139 -7.452 L -5.24 -6.448 C -4.602 -7.012 -3.947 -7.369 -3.09 -7.369 C -2.178 -7.369 -1.593 -6.833 -1.593 -5.926 C -1.593 -5.142 -1.934 -4.743 -3.227 -4.29 C -5.023 -3.644 -5.785 -2.832 -5.785 -1.458 C -5.785 .082 -4.533 1.168 -2.818 1.168 C -1.593 1.168 -.735 .756 0 0 " fill="#ffffff"/>
<path transform="matrix(1,0,0,-1,72.324,129.5702)" d="M 0 0 L -1.688 0 L -1.892 4.001 C -1.96 5.403 -2.015 6.86 -1.987 7.864 L -3.471 1.031 L -5.118 1.031 L -6.683 7.878 C -6.642 6.613 -6.669 5.307 -6.724 3.946 L -6.915 0 L -8.589 0 L -7.935 9.5 L -5.689 9.5 L -4.261 2.818 L -2.927 9.5 L -.653 9.5 Z " fill="#ffffff"/>
<path transform="matrix(1,0,0,-1,0,150)" d="M 75.27 20.43 L 73.5 20.43 L 73.5 29.93 L 75.27 29.93 Z " fill="#ffffff"/>
<path transform="matrix(1,0,0,-1,83.0574,120.9774)" d="M 0 0 L -.912 -.948 C -1.497 -.468 -1.973 -.233 -2.695 -.233 C -3.893 -.233 -4.859 -1.113 -4.859 -3.836 C -4.859 -6.585 -4.205 -7.437 -2.939 -7.437 C -2.463 -7.437 -2.027 -7.313 -1.646 -7.08 L -1.646 -4.551 L -2.871 -4.551 L -3.049 -3.23 L .055 -3.23 L .055 -7.864 C -.789 -8.441 -1.838 -8.799 -2.912 -8.799 C -5.39 -8.799 -6.696 -7.19 -6.696 -3.836 C -6.696 -.509 -4.913 1.113 -2.749 1.113 C -1.564 1.113 -.734 .687 0 0 " fill="#ffffff"/>
<path transform="matrix(1,0,0,-1,86.9363,124.469608)" d="M 0 0 C 1.115 0 1.633 .495 1.633 1.608 C 1.633 2.64 1.115 3.094 -.109 3.094 L -.803 3.094 L -.803 0 Z M .163 -1.278 L -.803 -1.278 L -.803 -5.101 L -2.572 -5.101 L -2.572 4.399 L -.096 4.399 C 2.314 4.399 3.457 3.438 3.457 1.608 C 3.457 .413 2.912 -.48 1.77 -.948 L 3.961 -5.101 L 2.014 -5.101 Z " fill="#ffffff"/>
<path transform="matrix(1,0,0,-1,95.8191,126.0096)" d="M 0 0 L -1.062 4.579 L -2.123 0 Z M .299 -1.347 L -2.423 -1.347 L -2.939 -3.561 L -4.723 -3.561 L -2.109 5.939 L .041 5.939 L 2.641 -3.561 L .816 -3.561 Z " fill="#ffffff"/>
<path transform="matrix(1,0,0,-1,105.4363,129.5702)" d="M 0 0 L -2.26 0 L -5.009 7.74 C -4.928 6.888 -4.777 5.692 -4.777 3.946 L -4.777 0 L -6.356 0 L -6.356 9.5 L -4.124 9.5 L -1.348 1.76 C -1.43 2.296 -1.578 3.644 -1.578 4.991 L -1.578 9.5 L 0 9.5 Z " fill="#ffffff"/>
<path transform="matrix(1,0,0,-1,112.3172,121.4725)" d="M 0 0 L -2.164 0 L -2.164 -8.098 L -3.92 -8.098 L -3.92 0 L -6.18 0 L -6.18 1.402 L .19 1.402 Z " fill="#ffffff"/>
<path transform="matrix(1,0,0,-1,118.5769,121.032108)" d="M 0 0 L -.844 -.977 C -1.443 -.44 -2.014 -.192 -2.695 -.192 C -3.471 -.192 -3.975 -.619 -3.975 -1.334 C -3.975 -2.021 -3.647 -2.365 -2.26 -2.859 C -.734 -3.424 .245 -4.111 .245 -5.829 C .245 -7.493 -.98 -8.744 -3.021 -8.744 C -4.424 -8.744 -5.403 -8.208 -6.139 -7.452 L -5.24 -6.448 C -4.6 -7.012 -3.947 -7.369 -3.09 -7.369 C -2.178 -7.369 -1.592 -6.833 -1.592 -5.926 C -1.592 -5.142 -1.933 -4.743 -3.226 -4.29 C -5.022 -3.644 -5.785 -2.832 -5.785 -1.458 C -5.785 .082 -4.532 1.168 -2.817 1.168 C -1.592 1.168 -.734 .756 0 0 " fill="#ffffff"/>
<path transform="matrix(1,0,0,-1,45.7478,133.8895)" d="M 0 0 L -3.063 0 L -3.063 -2.695 L -.382 -2.695 L -.382 -4.001 L -3.063 -4.001 L -3.063 -6.847 L .218 -6.847 L .218 -8.181 L -4.832 -8.181 L -4.832 1.319 L .19 1.319 Z " fill="#ffffff"/>
<path transform="matrix(1,0,0,-1,52.6082,133.9725)" d="M 0 0 L -2.164 0 L -2.164 -8.098 L -3.92 -8.098 L -3.92 0 L -6.18 0 L -6.18 1.402 L .19 1.402 Z " fill="#ffffff"/>
<path transform="matrix(1,0,0,-1,57.8767,133.9032)" d="M 0 0 L 0 -6.833 L .749 -6.833 C 1.974 -6.833 2.954 -6.215 2.954 -3.368 C 2.954 -.468 1.919 0 .708 0 Z M 4.777 -3.368 C 4.777 -7.246 2.708 -8.167 .626 -8.167 L -1.77 -8.167 L -1.77 1.333 L .436 1.333 C 2.668 1.333 4.777 .618 4.777 -3.368 " fill="#ffffff"/>
<path transform="matrix(1,0,0,-1,0,150)" d="M 65.509 7.93 L 63.739004 7.93 L 63.739004 17.43 L 65.509 17.43 Z " fill="#ffffff"/>
<path transform="matrix(1,0,0,-1,70.8435,138.5096)" d="M 0 0 L -1.062 4.579 L -2.124 0 Z M .3 -1.347 L -2.423 -1.347 L -2.94 -3.561 L -4.724 -3.561 L -2.11 5.939 L .041 5.939 L 2.641 -3.561 L .817 -3.561 Z " fill="#ffffff"/>
<path transform="matrix(1,0,0,-1,79.739,133.5321)" d="M 0 0 L -.844 -.977 C -1.443 -.44 -2.014 -.192 -2.695 -.192 C -3.471 -.192 -3.975 -.619 -3.975 -1.334 C -3.975 -2.021 -3.647 -2.365 -2.26 -2.859 C -.734 -3.424 .245 -4.111 .245 -5.829 C .245 -7.493 -.98 -8.744 -3.021 -8.744 C -4.424 -8.744 -5.403 -8.208 -6.139 -7.452 L -5.24 -6.448 C -4.6 -7.012 -3.947 -7.369 -3.09 -7.369 C -2.178 -7.369 -1.592 -6.833 -1.592 -5.926 C -1.592 -5.142 -1.933 -4.743 -3.226 -4.29 C -5.022 -3.644 -5.785 -2.832 -5.785 -1.458 C -5.785 .082 -4.532 1.168 -2.817 1.168 C -1.592 1.168 -.734 .756 0 0 " fill="#ffffff"/>
<path transform="matrix(1,0,0,-1,85.1277,135.5946)" d="M 0 0 C 0 1.196 -.584 1.719 -1.782 1.719 L -2.463 1.719 L -2.463 -1.814 L -1.782 -1.814 C -.625 -1.814 0 -1.389 0 0 M 1.824 0 C 1.824 -2.158 .436 -3.148 -1.674 -3.148 L -2.463 -3.148 L -2.463 -6.476 L -4.232 -6.476 L -4.232 3.024 L -1.796 3.024 C .518 3.024 1.824 2.021 1.824 0 " fill="#ffffff"/>
<path transform="matrix(1,0,0,-1,89.3416,137.327)" d="M 0 0 C 0 -2.653 .708 -3.588 1.892 -3.588 C 3.13 -3.588 3.798 -2.653 3.798 .014 C 3.798 2.64 3.13 3.603 1.892 3.603 C .681 3.603 0 2.64 0 0 M 5.648 .014 C 5.648 -3.23 4.22 -4.949 1.892 -4.949 C -.408 -4.949 -1.851 -3.285 -1.851 0 C -1.851 3.231 -.408 4.963 1.892 4.963 C 4.206 4.963 5.648 3.313 5.648 .014 " fill="#ffffff"/>
<path transform="matrix(1,0,0,-1,98.6531,136.9696)" d="M 0 0 C 1.117 0 1.634 .495 1.634 1.608 C 1.634 2.64 1.117 3.094 -.108 3.094 L -.803 3.094 L -.803 0 Z M .164 -1.278 L -.803 -1.278 L -.803 -5.101 L -2.572 -5.101 L -2.572 4.399 L -.095 4.399 C 2.314 4.399 3.457 3.438 3.457 1.608 C 3.457 .413 2.913 -.48 1.77 -.948 L 3.961 -5.101 L 2.015 -5.101 Z " fill="#ffffff"/>
<path transform="matrix(1,0,0,-1,107.5369,138.5096)" d="M 0 0 L -1.062 4.579 L -2.124 0 Z M .3 -1.347 L -2.423 -1.347 L -2.94 -3.561 L -4.724 -3.561 L -2.11 5.939 L .041 5.939 L 2.641 -3.561 L .817 -3.561 Z " fill="#ffffff"/>
<path transform="matrix(1,0,0,-1,74.826,80.1248)" d="M 0 0 C -1.724 0 -3.126 1.397 -3.126 3.114 L -1.876 3.114 C -1.876 2.086 -1.034 1.25 0 1.25 C 1.034 1.25 1.875 2.086 1.875 3.114 L 3.125 3.114 C 3.125 1.397 1.723 0 0 0 " fill="#ffffff"/>
<path transform="matrix(1,0,0,-1,75.5017,71.0526)" d="M 0 0 C -4.451 0 -8.838 1.151 -12.687 3.33 C -12.987 3.5 -13.093 3.882 -12.923 4.182 C -12.753 4.481 -12.372 4.589 -12.071 4.418 C -8.41 2.346 -4.235 1.25 0 1.25 C 13.482 1.25 24.451 12.168 24.451 25.589 C 24.451 39.01 13.482 49.928 0 49.928 C -13.481 49.928 -24.45 39.01 -24.45 25.589 C -24.45 18.959 -21.82 12.762 -17.044 8.138 C -16.796 7.897 -16.789 7.502 -17.029 7.254 C -17.27 7.005 -17.665 6.999 -17.913 7.239 C -22.935 12.101 -25.7 18.617 -25.7 25.589 C -25.7 39.698 -14.171 51.178 0 51.178 C 14.172 51.178 25.701 39.698 25.701 25.589 C 25.701 11.479 14.172 0 0 0 " fill="#ffffff"/>
<path transform="matrix(1,0,0,-1,58.7869,64.2118)" d="M 0 0 L -9.365 0 C -9.71 0 -9.99 .28 -9.99 .625 C -9.99 .97 -9.71 1.25 -9.365 1.25 L -1.25 1.25 L -1.254 9.262 C -1.254 9.606 -.975 9.887 -.629 9.887 C -.284 9.887 -.004 9.607 -.004 9.262 Z " fill="#ffffff"/>
<path transform="matrix(1,0,0,-1,75.1238,67.3631)" d="M 0 0 C -.675 0 -1.351 .029 -2.025 .088 C -2.369 .118 -2.623 .422 -2.594 .766 C -2.563 1.109 -2.257 1.353 -1.916 1.334 C 1.901 .995 5.743 1.67 9.194 3.274 C 9.504 3.422 9.879 3.286 10.024 2.972 C 10.17 2.658 10.034 2.287 9.722 2.142 C 6.683 .729 3.357 0 0 0 " fill="#ffffff"/>
<path transform="matrix(1,0,0,-1,69.616,62.991998)" d="M 0 0 L 0 -8.157 C 0 -9.675 1.242 -10.91 2.769 -10.91 L 7.651 -10.91 C 9.178 -10.91 10.419 -9.675 10.419 -8.157 L 10.419 0 Z M 7.651 -12.16 L 2.769 -12.16 C .553 -12.16 -1.25 -10.364 -1.25 -8.157 L -1.25 .625 C -1.25 .97 -.97 1.25 -.625 1.25 L 11.044 1.25 C 11.389 1.25 11.669 .97 11.669 .625 L 11.669 -8.157 C 11.669 -10.364 9.866 -12.16 7.651 -12.16 " fill="#ffffff"/>
<path transform="matrix(1,0,0,-1,75.5125,62.991998)" d="M 0 0 L -4.734 0 C -6.124 0 -6.594 .979 -6.989 2.071 L -8.403 6.537 C -8.714 7.519 -9.208 8.495 -9.956 9.609 C -11.312 11.624 -12.027 13.969 -12.027 16.391 L -10.777 16.391 C -10.777 14.218 -10.135 12.114 -8.919 10.307 C -8.113 9.107 -7.555 7.997 -7.212 6.914 L -5.806 2.473 C -5.403 1.362 -5.181 1.25 -4.734 1.25 L 0 1.25 Z " fill="#ffffff"/>
<path transform="matrix(1,0,0,-1,78.8728,62.991998)" d="M 0 0 L -4.734 0 L -4.734 1.25 L 0 1.25 C .602 1.25 .694 1.25 1.069 2.469 L 2.478 6.914 C 2.82 7.997 3.379 9.107 4.185 10.307 C 5.397 12.109 6.04 14.207 6.043 16.374 C 6.034 21.903 1.512 26.399 -4.047 26.399 C -9.611 26.399 -14.138 21.895 -14.138 16.357 L -15.388 16.357 C -15.388 22.584 -10.3 27.649 -4.047 27.649 C 2.195 27.649 7.275 22.602 7.293 16.391 L 7.293 16.374 L 7.293 16.357 C 7.286 13.947 6.57 11.614 5.222 9.609 C 4.474 8.495 3.979 7.519 3.669 6.537 L 2.263 2.096 C 1.808 .619 1.393 0 0 0 " fill="#ffffff"/>
<path transform="matrix(1,0,0,-1,67.2361,30.862198)" d="M 0 0 L -1.732 3.284 L -.627 3.868 L 1.105 .584 Z " fill="#ffffff"/>
<path transform="matrix(1,0,0,-1,90.3269,59.538904)" d="M 0 0 L -2.756 2.496 L -1.916 3.422 L .84 .926 Z " fill="#ffffff"/>
<path transform="matrix(1,0,0,-1,62.7635,34.579904)" d="M 0 0 L -2.757 2.495 L -1.919 3.423 L .838 .928 Z " fill="#ffffff"/>
<path transform="matrix(1,0,0,-1,94.3123,53.6649)" d="M 0 0 L -3.447 1.406 L -2.975 2.564 L .473 1.158 Z " fill="#ffffff"/>
<path transform="matrix(1,0,0,-1,59.8357,39.596498)" d="M 0 0 L -3.448 1.407 L -2.976 2.565 L .473 1.158 Z " fill="#ffffff"/>
<path transform="matrix(1,0,0,-1,96.0398,46.787004)" d="M 0 0 L -3.724 .148 L -3.675 1.396 L .049 1.248 Z " fill="#ffffff"/>
<path transform="matrix(1,0,0,-1,58.8074,45.305498)" d="M 0 0 L -3.723 .147 L -3.674 1.396 L .049 1.249 Z " fill="#ffffff"/>
<path transform="matrix(1,0,0,-1,91.7488,40.866098)" d="M 0 0 L -.379 1.191 L 3.171 2.32 L 3.55 1.129 Z " fill="#ffffff"/>
<path transform="matrix(1,0,0,-1,89.2322,35.632699)" d="M 0 0 L -.762 .99 L 2.186 3.26 L 2.947 2.27 Z " fill="#ffffff"/>
<path transform="matrix(1,0,0,-1,85.0711,31.572098)" d="M 0 0 L -1.055 .67 L .936 3.806 L 1.99 3.136 Z " fill="#ffffff"/>
<path transform="matrix(1,0,0,-1,79.7654,29.1717)" d="M 0 0 L -1.221 .268 L -.428 3.892 L .793 3.624 Z " fill="#ffffff"/>
<path transform="matrix(1,0,0,-1,72.7176,28.890503)" d="M 0 0 L -.5 3.676 L .738 3.844 L 1.238 .168 Z " fill="#ffffff"/>
</g>
</g>
</g>
</svg>
