<?xml version="1.0" encoding="UTF-8" standalone="no"?>
<!DOCTYPE svg PUBLIC "-//W3C//DTD SVG 1.1//EN" "http://www.w3.org/Graphics/SVG/1.1/DTD/svg11.dtd">
<svg xmlns="http://www.w3.org/2000/svg" xmlns:xlink="http://www.w3.org/1999/xlink" version="1.1" width="150pt" height="150pt" viewBox="0 0 150 150">
<g enable-background="new">
<g id="Layer-1" data-name="03 Negative EN">
<path transform="matrix(1,0,0,-1,0,150)" d="M 0 50.073 L 149.95 50.073 L 149.95 150 L 0 150 Z " fill="#003366"/>
<path transform="matrix(1,0,0,-1,0,150)" d="M 0 .073 L 149.95 .073 L 149.95 50.073 L 0 50.073 Z " fill="#26bde2"/>
<path transform="matrix(1,0,0,-1,17.2459,137.0596)" d="M 0 0 L -4.017 0 L -4.017 18.797 L -7.914 15.682 L -9.729 18.867 L -3.659 23.593 L 0 23.593 Z " fill="#ffffff"/>
<clipPath id="cp0">
<path transform="matrix(1,0,0,-1,0,150)" d="M 0 150 L 150 150 L 150 0 L 0 0 Z "/>
</clipPath>
<g clip-path="url(#cp0)">
<path transform="matrix(1,0,0,-1,23.9451,119.3477)" d="M 0 0 C 0 -1.82 .714 -2.73 2.32 -3.57 L 2.856 -3.851 C 4.165 -2.66 4.522 -1.505 4.522 .035 C 4.522 2.03 3.749 3.011 2.261 3.011 C .893 3.011 0 2.17 0 0 M 5.117 -11.341 C 5.117 -9.241 4.344 -8.296 2.172 -7.211 L 1.368 -6.826 C 0 -7.841 -.596 -9.276 -.596 -11.271 C -.596 -13.616 .506 -14.736 2.291 -14.736 C 4.136 -14.736 5.117 -13.512 5.117 -11.341 M 9.194 -11.341 C 9.194 -15.297 6.635 -18.272 2.172 -18.272 C -2.172 -18.272 -4.701 -15.332 -4.701 -11.446 C -4.701 -8.611 -3.422 -6.721 -1.161 -5.496 C -3.243 -4.025 -3.958 -2.136 -3.958 .07 C -3.958 3.955 -1.339 6.336 2.231 6.336 C 5.832 6.336 8.51 4.2 8.51 .28 C 8.51 -1.82 7.587 -3.641 5.445 -5.041 C 8.033 -6.581 9.194 -8.611 9.194 -11.341 " fill="#ffffff"/>
<path transform="matrix(1,0,0,-1,43.6795,110.127)" d="M 0 0 C 0 1.087 -.532 1.562 -1.621 1.562 L -2.24 1.562 L -2.24 -1.65 L -1.621 -1.65 C -.569 -1.65 0 -1.262 0 0 M 1.658 0 C 1.658 -1.963 .396 -2.861 -1.522 -2.861 L -2.24 -2.861 L -2.24 -5.887 L -3.849 -5.887 L -3.849 2.749 L -1.634 2.749 C .47 2.749 1.658 1.837 1.658 0 " fill="#ffffff"/>
<path transform="matrix(1,0,0,-1,50.4383,108.578098)" d="M 0 0 L -2.784 0 L -2.784 -2.449 L -.346 -2.449 L -.346 -3.637 L -2.784 -3.637 L -2.784 -6.223 L .198 -6.223 L .198 -7.436 L -4.393 -7.436 L -4.393 1.2 L .174 1.2 Z " fill="#ffffff"/>
<path transform="matrix(1,0,0,-1,53.8367,111.377)" d="M 0 0 C 1.016 0 1.485 .45 1.485 1.463 C 1.485 2.399 1.016 2.813 -.099 2.813 L -.73 2.813 L -.73 0 Z M .148 -1.162 L -.73 -1.162 L -.73 -4.637 L -2.338 -4.637 L -2.338 3.999 L -.086 3.999 C 2.104 3.999 3.144 3.125 3.144 1.463 C 3.144 .375 2.648 -.437 1.609 -.862 L 3.602 -4.637 L 1.832 -4.637 Z " fill="#ffffff"/>
<path transform="matrix(1,0,0,-1,58.0574,107.3779)" d="M 0 0 L 4.454 0 L 4.281 -1.2 L 1.607 -1.2 L 1.607 -3.823 L 3.935 -3.823 L 3.935 -5.023 L 1.607 -5.023 L 1.607 -8.636 L 0 -8.636 Z " fill="#ffffff"/>
<path transform="matrix(1,0,0,-1,67.5633,108.578098)" d="M 0 0 L -2.784 0 L -2.784 -2.449 L -.346 -2.449 L -.346 -3.637 L -2.784 -3.637 L -2.784 -6.223 L .198 -6.223 L .198 -7.436 L -4.393 -7.436 L -4.393 1.2 L .174 1.2 Z " fill="#ffffff"/>
<path transform="matrix(1,0,0,-1,73.8191,108.089908)" d="M 0 0 L -.792 -.937 C -1.238 -.562 -1.684 -.35 -2.215 -.35 C -3.242 -.35 -4.021 -1.162 -4.021 -3.587 C -4.021 -5.937 -3.268 -6.811 -2.203 -6.811 C -1.547 -6.811 -1.102 -6.498 -.681 -6.148 L .086 -7.074 C -.421 -7.611 -1.213 -8.111 -2.277 -8.111 C -4.294 -8.111 -5.705 -6.611 -5.705 -3.587 C -5.705 -.6 -4.22 .899 -2.302 .899 C -1.312 .899 -.644 .562 0 0 " fill="#ffffff"/>
<path transform="matrix(1,0,0,-1,79.7586,108.652408)" d="M 0 0 L -1.967 0 L -1.967 -7.361 L -3.563 -7.361 L -3.563 0 L -5.617 0 L -5.617 1.274 L .174 1.274 Z " fill="#ffffff"/>
<path transform="matrix(1,0,0,-1,0,150)" d="M 82.143 33.986 L 80.535999 33.986 L 80.535999 42.622 L 82.143 42.622 Z " fill="#ffffff"/>
<path transform="matrix(1,0,0,-1,84.8211,111.7012)" d="M 0 0 C 0 -2.412 .645 -3.262 1.721 -3.262 C 2.847 -3.262 3.453 -2.412 3.453 .012 C 3.453 2.398 2.847 3.273 1.721 3.273 C .619 3.273 0 2.398 0 0 M 5.137 .012 C 5.137 -2.938 3.837 -4.5 1.721 -4.5 C -.371 -4.5 -1.683 -2.987 -1.683 0 C -1.683 2.936 -.371 4.511 1.721 4.511 C 3.824 4.511 5.137 3.012 5.137 .012 " fill="#ffffff"/>
<path transform="matrix(1,0,0,-1,96.7312,116.0137)" d="M 0 0 L -2.055 0 L -4.554 7.036 C -4.479 6.262 -4.344 5.174 -4.344 3.587 L -4.344 0 L -5.779 0 L -5.779 8.636 L -3.75 8.636 L -1.225 1.6 C -1.299 2.088 -1.436 3.313 -1.436 4.537 L -1.436 8.636 L 0 8.636 Z " fill="#ffffff"/>
<path transform="matrix(1,0,0,-1,103.8494,116.0137)" d="M 0 0 L -2.054 0 L -4.554 7.036 C -4.479 6.262 -4.343 5.174 -4.343 3.587 L -4.343 0 L -5.778 0 L -5.778 8.636 L -3.749 8.636 L -1.226 1.6 C -1.3 2.088 -1.436 3.313 -1.436 4.537 L -1.436 8.636 L 0 8.636 Z " fill="#ffffff"/>
<path transform="matrix(1,0,0,-1,109.5818,108.578098)" d="M 0 0 L -2.784 0 L -2.784 -2.449 L -.347 -2.449 L -.347 -3.637 L -2.784 -3.637 L -2.784 -6.223 L .198 -6.223 L .198 -7.436 L -4.394 -7.436 L -4.394 1.2 L .173 1.2 Z " fill="#ffffff"/>
<path transform="matrix(1,0,0,-1,118.2342,116.0137)" d="M 0 0 L -1.534 0 L -1.72 3.637 C -1.782 4.912 -1.831 6.236 -1.808 7.148 L -3.155 .937 L -4.653 .937 L -6.076 7.161 C -6.039 6.012 -6.063 4.824 -6.113 3.587 L -6.286 0 L -7.809 0 L -7.215 8.636 L -5.173 8.636 L -3.874 2.563 L -2.661 8.636 L -.595 8.636 Z " fill="#ffffff"/>
<path transform="matrix(1,0,0,-1,123.6902,108.578098)" d="M 0 0 L -2.785 0 L -2.785 -2.449 L -.347 -2.449 L -.347 -3.637 L -2.785 -3.637 L -2.785 -6.223 L .197 -6.223 L .197 -7.436 L -4.393 -7.436 L -4.393 1.2 L .174 1.2 Z " fill="#ffffff"/>
<path transform="matrix(1,0,0,-1,130.5281,116.0137)" d="M 0 0 L -2.054 0 L -4.553 7.036 C -4.479 6.262 -4.343 5.174 -4.343 3.587 L -4.343 0 L -5.778 0 L -5.778 8.636 L -3.749 8.636 L -1.225 1.6 C -1.299 2.088 -1.436 3.313 -1.436 4.537 L -1.436 8.636 L 0 8.636 Z " fill="#ffffff"/>
<path transform="matrix(1,0,0,-1,136.7859,108.652408)" d="M 0 0 L -1.967 0 L -1.967 -7.361 L -3.563 -7.361 L -3.563 0 L -5.617 0 L -5.617 1.274 L .174 1.274 Z " fill="#ffffff"/>
<path transform="matrix(1,0,0,-1,44.2234,121.0781)" d="M 0 0 L -2.784 0 L -2.784 -2.449 L -.346 -2.449 L -.346 -3.637 L -2.784 -3.637 L -2.784 -6.223 L .198 -6.223 L .198 -7.436 L -4.393 -7.436 L -4.393 1.2 L .174 1.2 Z " fill="#ffffff"/>
<path transform="matrix(1,0,0,-1,50.4637,121.1524)" d="M 0 0 L -1.969 0 L -1.969 -7.361 L -3.564 -7.361 L -3.564 0 L -5.619 0 L -5.619 1.274 L .173 1.274 Z " fill="#ffffff"/>
<path transform="matrix(1,0,0,-1,55.9832,123.877)" d="M 0 0 C 1.014 0 1.484 .45 1.484 1.463 C 1.484 2.399 1.014 2.813 -.1 2.813 L -.73 2.813 L -.73 0 Z M .148 -1.162 L -.73 -1.162 L -.73 -4.637 L -2.34 -4.637 L -2.34 3.999 L -.088 3.999 C 2.104 3.999 3.143 3.125 3.143 1.463 C 3.143 .375 2.647 -.437 1.607 -.862 L 3.601 -4.637 L 1.831 -4.637 Z " fill="#ffffff"/>
<path transform="matrix(1,0,0,-1,64.5965,121.0781)" d="M 0 0 L -2.785 0 L -2.785 -2.449 L -.348 -2.449 L -.348 -3.637 L -2.785 -3.637 L -2.785 -6.223 L .197 -6.223 L .197 -7.436 L -4.394 -7.436 L -4.394 1.2 L .173 1.2 Z " fill="#ffffff"/>
<path transform="matrix(1,0,0,-1,70.8513,120.5899)" d="M 0 0 L -.792 -.937 C -1.237 -.562 -1.683 -.35 -2.216 -.35 C -3.242 -.35 -4.022 -1.162 -4.022 -3.587 C -4.022 -5.937 -3.267 -6.811 -2.202 -6.811 C -1.547 -6.811 -1.102 -6.498 -.681 -6.148 L .087 -7.074 C -.421 -7.611 -1.213 -8.111 -2.276 -8.111 C -4.294 -8.111 -5.705 -6.611 -5.705 -3.587 C -5.705 -.6 -4.22 .899 -2.302 .899 C -1.312 .899 -.644 .562 0 0 " fill="#ffffff"/>
<path transform="matrix(1,0,0,-1,72.6785,124.2012)" d="M 0 0 C 0 -2.412 .645 -3.262 1.721 -3.262 C 2.847 -3.262 3.453 -2.412 3.453 .012 C 3.453 2.398 2.847 3.273 1.721 3.273 C .619 3.273 0 2.398 0 0 M 5.137 .012 C 5.137 -2.938 3.837 -4.5 1.721 -4.5 C -.371 -4.5 -1.683 -2.987 -1.683 0 C -1.683 2.936 -.371 4.511 1.721 4.511 C 3.824 4.511 5.137 3.012 5.137 .012 " fill="#ffffff"/>
<path transform="matrix(1,0,0,-1,84.5887,128.5137)" d="M 0 0 L -2.055 0 L -4.554 7.036 C -4.479 6.262 -4.344 5.174 -4.344 3.587 L -4.344 0 L -5.779 0 L -5.779 8.636 L -3.75 8.636 L -1.225 1.6 C -1.299 2.088 -1.436 3.313 -1.436 4.537 L -1.436 8.636 L 0 8.636 Z " fill="#ffffff"/>
<path transform="matrix(1,0,0,-1,91.7068,128.5137)" d="M 0 0 L -2.054 0 L -4.554 7.036 C -4.479 6.262 -4.343 5.174 -4.343 3.587 L -4.343 0 L -5.778 0 L -5.778 8.636 L -3.749 8.636 L -1.226 1.6 C -1.3 2.088 -1.436 3.313 -1.436 4.537 L -1.436 8.636 L 0 8.636 Z " fill="#ffffff"/>
<path transform="matrix(1,0,0,-1,96.573,125.2764)" d="M 0 0 L -.966 4.161 L -1.931 0 Z M .271 -1.225 L -2.203 -1.225 L -2.674 -3.237 L -4.295 -3.237 L -1.918 5.398 L .037 5.398 L 2.4 -3.237 L .742 -3.237 Z " fill="#ffffff"/>
<path transform="matrix(1,0,0,-1,0,150)" d="M 101.147 21.486 L 99.54 21.486 L 99.54 30.122 L 101.147 30.122 Z " fill="#ffffff"/>
<path transform="matrix(1,0,0,-1,107.368,120.752)" d="M 0 0 L -.768 -.888 C -1.312 -.4 -1.831 -.176 -2.449 -.176 C -3.155 -.176 -3.613 -.562 -3.613 -1.213 C -3.613 -1.838 -3.316 -2.15 -2.054 -2.6 C -.668 -3.112 .223 -3.737 .223 -5.299 C .223 -6.812 -.891 -7.949 -2.746 -7.949 C -4.021 -7.949 -4.912 -7.461 -5.58 -6.773 L -4.764 -5.861 C -4.182 -6.374 -3.588 -6.699 -2.809 -6.699 C -1.979 -6.699 -1.447 -6.211 -1.447 -5.387 C -1.447 -4.674 -1.757 -4.312 -2.933 -3.9 C -4.566 -3.313 -5.259 -2.575 -5.259 -1.325 C -5.259 .074 -4.121 1.062 -2.561 1.062 C -1.447 1.062 -.668 .687 0 0 " fill="#ffffff"/>
<path transform="matrix(1,0,0,-1,113.4226,120.752)" d="M 0 0 L -.768 -.888 C -1.312 -.4 -1.832 -.176 -2.451 -.176 C -3.156 -.176 -3.614 -.562 -3.614 -1.213 C -3.614 -1.838 -3.316 -2.15 -2.055 -2.6 C -.669 -3.112 .223 -3.737 .223 -5.299 C .223 -6.812 -.892 -7.949 -2.748 -7.949 C -4.022 -7.949 -4.914 -7.461 -5.582 -6.773 L -4.766 -5.861 C -4.184 -6.374 -3.59 -6.699 -2.81 -6.699 C -1.98 -6.699 -1.448 -6.211 -1.448 -5.387 C -1.448 -4.674 -1.758 -4.312 -2.934 -3.9 C -4.566 -3.313 -5.26 -2.575 -5.26 -1.325 C -5.26 .074 -4.121 1.062 -2.563 1.062 C -1.448 1.062 -.669 .687 0 0 " fill="#ffffff"/>
<path transform="matrix(1,0,0,-1,117.991,125.2764)" d="M 0 0 L -.966 4.161 L -1.931 0 Z M .271 -1.225 L -2.203 -1.225 L -2.674 -3.237 L -4.295 -3.237 L -1.918 5.398 L .037 5.398 L 2.4 -3.237 L .742 -3.237 Z " fill="#ffffff"/>
<path transform="matrix(1,0,0,-1,126.7361,128.5137)" d="M 0 0 L -2.054 0 L -4.554 7.036 C -4.479 6.262 -4.343 5.174 -4.343 3.587 L -4.343 0 L -5.778 0 L -5.778 8.636 L -3.749 8.636 L -1.226 1.6 C -1.3 2.088 -1.436 3.313 -1.436 4.537 L -1.436 8.636 L 0 8.636 Z " fill="#ffffff"/>
<path transform="matrix(1,0,0,-1,133.4363,120.5899)" d="M 0 0 L -.793 -.937 C -1.238 -.562 -1.684 -.35 -2.216 -.35 C -3.242 -.35 -4.022 -1.162 -4.022 -3.587 C -4.022 -5.937 -3.268 -6.811 -2.203 -6.811 C -1.547 -6.811 -1.102 -6.498 -.682 -6.148 L .086 -7.074 C -.422 -7.611 -1.213 -8.111 -2.277 -8.111 C -4.295 -8.111 -5.705 -6.611 -5.705 -3.587 C -5.705 -.6 -4.221 .899 -2.303 .899 C -1.312 .899 -.645 .562 0 0 " fill="#ffffff"/>
<path transform="matrix(1,0,0,-1,138.5613,121.0781)" d="M 0 0 L -2.784 0 L -2.784 -2.449 L -.346 -2.449 L -.346 -3.637 L -2.784 -3.637 L -2.784 -6.223 L .198 -6.223 L .198 -7.436 L -4.393 -7.436 L -4.393 1.2 L .174 1.2 Z " fill="#ffffff"/>
<path transform="matrix(1,0,0,-1,41.4392,133.5899)" d="M 0 0 L 0 -6.211 L .681 -6.211 C 1.794 -6.211 2.686 -5.648 2.686 -3.063 C 2.686 -.426 1.745 0 .644 0 Z M 4.344 -3.063 C 4.344 -6.586 2.463 -7.424 .569 -7.424 L -1.608 -7.424 L -1.608 1.212 L .396 1.212 C 2.426 1.212 4.344 .562 4.344 -3.063 " fill="#ffffff"/>
<path transform="matrix(1,0,0,-1,51.1492,133.5781)" d="M 0 0 L -2.784 0 L -2.784 -2.449 L -.346 -2.449 L -.346 -3.637 L -2.784 -3.637 L -2.784 -6.223 L .198 -6.223 L .198 -7.436 L -4.393 -7.436 L -4.393 1.2 L .174 1.2 Z " fill="#ffffff"/>
<path transform="matrix(1,0,0,-1,57.3777,133.252)" d="M 0 0 L -.768 -.888 C -1.312 -.4 -1.832 -.176 -2.451 -.176 C -3.156 -.176 -3.614 -.562 -3.614 -1.213 C -3.614 -1.838 -3.316 -2.15 -2.055 -2.6 C -.669 -3.112 .223 -3.737 .223 -5.299 C .223 -6.812 -.892 -7.949 -2.748 -7.949 C -4.022 -7.949 -4.914 -7.461 -5.582 -6.773 L -4.766 -5.861 C -4.184 -6.374 -3.59 -6.699 -2.81 -6.699 C -1.98 -6.699 -1.448 -6.211 -1.448 -5.387 C -1.448 -4.674 -1.758 -4.312 -2.934 -3.9 C -4.566 -3.313 -5.26 -2.575 -5.26 -1.325 C -5.26 .074 -4.121 1.062 -2.563 1.062 C -1.448 1.062 -.669 .687 0 0 " fill="#ffffff"/>
<path transform="matrix(1,0,0,-1,63.9363,139.9629)" d="M 0 0 C 1.125 0 1.732 .85 1.732 3.273 C 1.732 5.673 1.125 6.535 0 6.535 C -1.102 6.535 -1.721 5.673 -1.721 3.262 C -1.721 .85 -1.077 0 0 0 M 3.86 -1.35 L 2.857 -2.612 C 2.104 -1.725 1.336 -1.2 -.087 -1.2 C -2.08 -1.2 -3.404 .312 -3.404 3.262 C -3.404 6.186 -2.092 7.772 0 7.772 C 2.104 7.772 3.415 6.248 3.415 3.273 C 3.415 1.1 2.598 .074 1.571 -.525 C 2.573 -.538 3.242 -.85 3.86 -1.35 " fill="#ffffff"/>
<path transform="matrix(1,0,0,-1,74.0535,138.4141)" d="M 0 0 C 0 -1.574 -.99 -2.787 -2.921 -2.787 C -4.876 -2.787 -5.842 -1.611 -5.842 0 L -5.842 6.036 L -4.232 6.036 L -4.232 .088 C -4.232 -.986 -3.836 -1.524 -2.921 -1.524 C -2.018 -1.524 -1.609 -.986 -1.609 .088 L -1.609 6.036 L 0 6.036 Z " fill="#ffffff"/>
<path transform="matrix(1,0,0,-1,78.5906,137.7764)" d="M 0 0 L -.965 4.161 L -1.93 0 Z M .273 -1.225 L -2.202 -1.225 L -2.672 -3.237 L -4.293 -3.237 L -1.918 5.398 L .037 5.398 L 2.401 -3.237 L .743 -3.237 Z " fill="#ffffff"/>
<path transform="matrix(1,0,0,-1,83.1668,139.6885)" d="M 0 0 L 3.044 0 L 2.871 -1.325 L -1.609 -1.325 L -1.609 7.311 L 0 7.311 Z " fill="#ffffff"/>
<path transform="matrix(1,0,0,-1,0,150)" d="M 88.471 8.986 L 86.863 8.986 L 86.863 17.622 L 88.471 17.622 Z " fill="#ffffff"/>
<path transform="matrix(1,0,0,-1,89.7947,132.3779)" d="M 0 0 L 4.454 0 L 4.282 -1.2 L 1.608 -1.2 L 1.608 -3.823 L 3.935 -3.823 L 3.935 -5.023 L 1.608 -5.023 L 1.608 -8.636 L 0 -8.636 Z " fill="#ffffff"/>
<path transform="matrix(1,0,0,-1,0,150)" d="M 96.516 8.986 L 94.908 8.986 L 94.908 17.622 L 96.516 17.622 Z " fill="#ffffff"/>
<path transform="matrix(1,0,0,-1,103.198,133.0899)" d="M 0 0 L -.793 -.937 C -1.238 -.562 -1.684 -.35 -2.216 -.35 C -3.242 -.35 -4.022 -1.162 -4.022 -3.587 C -4.022 -5.937 -3.268 -6.811 -2.203 -6.811 C -1.547 -6.811 -1.102 -6.498 -.682 -6.148 L .086 -7.074 C -.422 -7.611 -1.213 -8.111 -2.277 -8.111 C -4.295 -8.111 -5.705 -6.611 -5.705 -3.587 C -5.705 -.6 -4.221 .899 -2.303 .899 C -1.312 .899 -.645 .562 0 0 " fill="#ffffff"/>
<path transform="matrix(1,0,0,-1,107.698,137.7764)" d="M 0 0 L -.965 4.161 L -1.93 0 Z M .273 -1.225 L -2.202 -1.225 L -2.672 -3.237 L -4.293 -3.237 L -1.918 5.398 L .037 5.398 L 2.401 -3.237 L .743 -3.237 Z " fill="#ffffff"/>
<path transform="matrix(1,0,0,-1,114.9217,133.6524)" d="M 0 0 L -1.968 0 L -1.968 -7.361 L -3.563 -7.361 L -3.563 0 L -5.618 0 L -5.618 1.274 L .173 1.274 Z " fill="#ffffff"/>
<path transform="matrix(1,0,0,-1,0,150)" d="M 117.306 8.986 L 115.698 8.986 L 115.698 17.622 L 117.306 17.622 Z " fill="#ffffff"/>
<path transform="matrix(1,0,0,-1,119.9842,136.7012)" d="M 0 0 C 0 -2.412 .644 -3.262 1.72 -3.262 C 2.847 -3.262 3.452 -2.412 3.452 .012 C 3.452 2.398 2.847 3.273 1.72 3.273 C .618 3.273 0 2.398 0 0 M 5.136 .012 C 5.136 -2.938 3.837 -4.5 1.72 -4.5 C -.371 -4.5 -1.683 -2.987 -1.683 0 C -1.683 2.936 -.371 4.511 1.72 4.511 C 3.823 4.511 5.136 3.012 5.136 .012 " fill="#ffffff"/>
<path transform="matrix(1,0,0,-1,131.8933,141.0137)" d="M 0 0 L -2.054 0 L -4.553 7.036 C -4.479 6.262 -4.343 5.174 -4.343 3.587 L -4.343 0 L -5.778 0 L -5.778 8.636 L -3.749 8.636 L -1.225 1.6 C -1.299 2.088 -1.436 3.313 -1.436 4.537 L -1.436 8.636 L 0 8.636 Z " fill="#ffffff"/>
<path transform="matrix(1,0,0,-1,138.1277,133.252)" d="M 0 0 L -.768 -.888 C -1.312 -.4 -1.832 -.176 -2.451 -.176 C -3.156 -.176 -3.614 -.562 -3.614 -1.213 C -3.614 -1.838 -3.316 -2.15 -2.055 -2.6 C -.669 -3.112 .223 -3.737 .223 -5.299 C .223 -6.812 -.892 -7.949 -2.748 -7.949 C -4.022 -7.949 -4.914 -7.461 -5.582 -6.773 L -4.766 -5.861 C -4.184 -6.374 -3.59 -6.699 -2.81 -6.699 C -1.98 -6.699 -1.448 -6.211 -1.448 -5.387 C -1.448 -4.674 -1.758 -4.312 -2.934 -3.9 C -4.566 -3.313 -5.26 -2.575 -5.26 -1.325 C -5.26 .074 -4.121 1.062 -2.563 1.062 C -1.448 1.062 -.669 .687 0 0 " fill="#ffffff"/>
<path transform="matrix(1,0,0,-1,74.6834,21.167008)" d="M 0 0 C -3.236 0 -5.87 -2.625 -5.87 -5.851 C -5.87 -9.076 -3.236 -11.701 0 -11.701 C 3.236 -11.701 5.87 -9.076 5.87 -5.851 C 5.87 -2.625 3.236 0 0 0 M 0 -12.951 C -3.926 -12.951 -7.12 -9.766 -7.12 -5.851 C -7.12 -1.936 -3.926 1.25 0 1.25 C 3.926 1.25 7.12 -1.936 7.12 -5.851 C 7.12 -9.766 3.926 -12.951 0 -12.951 " fill="#ffffff"/>
<path transform="matrix(1,0,0,-1,77.2088,80.083)" d="M 0 0 L -5.25 0 C -7.438 0 -9.22 1.776 -9.22 3.959 L -9.22 27.36 C -9.22 27.705 -8.939 27.985 -8.595 27.985 C -8.25 27.985 -7.97 27.705 -7.97 27.36 L -7.97 3.959 C -7.97 2.465 -6.75 1.25 -5.25 1.25 L 0 1.25 C 1.5 1.25 2.72 2.465 2.72 3.959 L 2.72 27.36 C 2.72 27.705 3 27.985 3.345 27.985 C 3.689 27.985 3.97 27.705 3.97 27.36 L 3.97 3.959 C 3.97 1.776 2.188 0 0 0 " fill="#ffffff"/>
<path transform="matrix(1,0,0,-1,74.5838,80.083)" d="M 0 0 C -.345 0 -.625 .28 -.625 .625 L -.625 22.908 C -.625 23.253 -.345 23.533 0 23.533 C .345 23.533 .625 23.253 .625 22.908 L .625 .625 C .625 .28 .345 0 0 0 " fill="#ffffff"/>
<path transform="matrix(1,0,0,-1,52.5359,55.9151)" d="M 0 0 C -4.214 0 -8.144 2.079 -10.512 5.561 C -11 6.278 -11.052 7.201 -10.646 7.969 C -10.238 8.74 -9.441 9.219 -8.568 9.219 L -2.91 9.209 L -.947 12.6 L -2.911 15.991 L -8.641 15.992 C -9.521 15.992 -10.293 16.454 -10.708 17.227 C -11.117 17.989 -11.074 18.911 -10.595 19.634 C -8.234 23.193 -4.273 25.318 0 25.318 C 5.156 25.318 9.763 22.248 11.734 17.496 C 11.867 17.178 11.716 16.812 11.396 16.68 C 11.079 16.551 10.712 16.698 10.58 17.018 C 8.803 21.301 4.649 24.068 0 24.068 C -3.854 24.068 -7.425 22.152 -9.554 18.942 C -9.78 18.6 -9.801 18.18 -9.606 17.818 C -9.413 17.457 -9.052 17.242 -8.641 17.242 L -2.19 17.241 L .498 12.6 L -2.191 7.957 L -8.568 7.969 C -8.983 7.969 -9.348 7.75 -9.541 7.385 C -9.732 7.021 -9.709 6.603 -9.479 6.264 C -7.343 3.124 -3.8 1.25 0 1.25 C 4.602 1.25 8.737 3.978 10.537 8.199 C 10.673 8.518 11.04 8.666 11.357 8.529 C 11.675 8.394 11.822 8.026 11.688 7.709 C 9.69 3.026 5.104 0 0 0 " fill="#ffffff"/>
<path transform="matrix(1,0,0,-1,97.4637,55.9151)" d="M 0 0 C -5.103 0 -9.689 3.026 -11.688 7.709 C -11.822 8.026 -11.675 8.394 -11.357 8.529 C -11.041 8.665 -10.673 8.518 -10.537 8.199 C -8.736 3.978 -4.601 1.25 0 1.25 C 3.8 1.25 7.343 3.124 9.479 6.264 C 9.71 6.603 9.733 7.022 9.541 7.385 C 9.348 7.751 8.984 7.969 8.569 7.969 L 2.191 7.957 L -.497 12.6 L 2.19 17.241 L 8.641 17.242 C 9.053 17.242 9.414 17.458 9.607 17.818 C 9.802 18.18 9.781 18.6 9.555 18.942 C 7.426 22.152 3.854 24.068 0 24.068 C -4.649 24.068 -8.802 21.301 -10.579 17.018 C -10.712 16.698 -11.078 16.55 -11.396 16.68 C -11.715 16.812 -11.866 17.178 -11.733 17.496 C -9.762 22.248 -5.156 25.318 0 25.318 C 4.273 25.318 8.235 23.193 10.596 19.634 C 11.075 18.911 11.118 17.989 10.709 17.228 C 10.294 16.454 9.521 15.992 8.641 15.992 L 2.911 15.991 L .948 12.6 L 2.91 9.209 L 8.569 9.219 C 9.442 9.219 10.238 8.74 10.646 7.97 C 11.052 7.202 11.001 6.279 10.513 5.561 C 8.144 2.079 4.214 0 0 0 " fill="#ffffff"/>
<path transform="matrix(1,0,0,-1,0,150)" d="M 67.671 105.349 L 82.115 105.349 L 82.115 102.728 L 67.671 102.728 Z M 67.671 110.72 L 82.115 110.72 L 82.115 108.099 L 67.671 108.099 Z " fill="#ffffff"/>
</g>
</g>
</g>
</svg>
