<?xml version="1.0" encoding="UTF-8" standalone="no"?>
<!DOCTYPE svg PUBLIC "-//W3C//DTD SVG 1.1//EN" "http://www.w3.org/Graphics/SVG/1.1/DTD/svg11.dtd">
<svg xmlns="http://www.w3.org/2000/svg" xmlns:xlink="http://www.w3.org/1999/xlink" version="1.1" width="150pt" height="150pt" viewBox="0 0 150 150">
<g enable-background="new">
<g id="Layer-1" data-name="03 Negative EN">
<path transform="matrix(1,0,0,-1,0,150)" d="M 0 50.073 L 149.95 50.073 L 149.95 150 L 0 150 Z " fill="#1c3664"/>
<path transform="matrix(1,0,0,-1,0,150)" d="M 0 .074 L 149.95 .074 L 149.95 50.073 L 0 50.073 Z " fill="#5b366a"/>
<path transform="matrix(1,0,0,-1,24.4637,137.0593)" d="M 0 0 L -4.017 0 L -4.017 18.797 L -7.914 15.682 L -9.729 18.867 L -3.659 23.593 L 0 23.593 Z " fill="#ffffff"/>
<clipPath id="cp0">
<path transform="matrix(1,0,0,-1,0,150)" d="M 0 150 L 150 150 L 150 0 L 0 0 Z "/>
</clipPath>
<g clip-path="url(#cp0)">
<path transform="matrix(1,0,0,-1,43.0486,121.809299)" d="M 0 0 L 0 -7.454 L .824 -7.454 C 2.175 -7.454 3.254 -6.779 3.254 -3.675 C 3.254 -.51 2.114 0 .779 0 Z M 5.265 -3.675 C 5.265 -7.904 2.984 -8.909 .689 -8.909 L -1.95 -8.909 L -1.95 1.455 L .479 1.455 C 2.939 1.455 5.265 .676 5.265 -3.675 " fill="#ffffff"/>
<path transform="matrix(1,0,0,-1,51.493,125.5436)" d="M 0 0 C 0 -2.895 .78 -3.915 2.085 -3.915 C 3.45 -3.915 4.185 -2.895 4.185 .015 C 4.185 2.88 3.45 3.93 2.085 3.93 C .75 3.93 0 2.88 0 0 M 6.225 .015 C 6.225 -3.524 4.649 -5.399 2.085 -5.399 C -.45 -5.399 -2.04 -3.585 -2.04 0 C -2.04 3.524 -.45 5.415 2.085 5.415 C 4.635 5.415 6.225 3.615 6.225 .015 " fill="#ffffff"/>
<path transform="matrix(1,0,0,-1,66.2918,130.7184)" d="M 0 0 L -2.49 0 L -5.521 8.444 C -5.43 7.515 -5.266 6.21 -5.266 4.305 L -5.266 0 L -7.005 0 L -7.005 10.364 L -4.545 10.364 L -1.485 1.92 C -1.575 2.505 -1.74 3.975 -1.74 5.444 L -1.74 10.364 L 0 10.364 Z " fill="#ffffff"/>
<path transform="matrix(1,0,0,-1,75.283,130.7184)" d="M 0 0 L -2.49 0 L -5.521 8.444 C -5.43 7.515 -5.266 6.21 -5.266 4.305 L -5.266 0 L -7.005 0 L -7.005 10.364 L -4.545 10.364 L -1.485 1.92 C -1.575 2.505 -1.74 3.975 -1.74 5.444 L -1.74 10.364 L 0 10.364 Z " fill="#ffffff"/>
<path transform="matrix(1,0,0,-1,81.8738,118.1794)" d="M 0 0 L -3.135 -1.244 L -3.614 -.284 L -.734 1.44 Z M .72 -3.614 L -2.654 -3.614 L -2.654 -6.555 L .3 -6.555 L .3 -7.979 L -2.654 -7.979 L -2.654 -11.084 L .96 -11.084 L .96 -12.539 L -4.604 -12.539 L -4.604 -2.175 L .93 -2.175 Z " fill="#ffffff"/>
<path transform="matrix(1,0,0,-1,89.5652,121.7936)" d="M 0 0 L -3.374 0 L -3.374 -2.94 L -.42 -2.94 L -.42 -4.365 L -3.374 -4.365 L -3.374 -7.47 L .24 -7.47 L .24 -8.925 L -5.324 -8.925 L -5.324 1.439 L .21 1.439 Z " fill="#ffffff"/>
<path transform="matrix(1,0,0,-1,97.4783,121.404)" d="M 0 0 L -.93 -1.064 C -1.59 -.479 -2.22 -.21 -2.97 -.21 C -3.825 -.21 -4.38 -.675 -4.38 -1.455 C -4.38 -2.205 -4.02 -2.58 -2.49 -3.12 C -.81 -3.734 .27 -4.484 .27 -6.359 C .27 -8.175 -1.08 -9.539 -3.33 -9.539 C -4.875 -9.539 -5.955 -8.954 -6.765 -8.13 L -5.774 -7.034 C -5.069 -7.649 -4.35 -8.039 -3.405 -8.039 C -2.399 -8.039 -1.755 -7.454 -1.755 -6.465 C -1.755 -5.609 -2.13 -5.175 -3.555 -4.68 C -5.535 -3.975 -6.375 -3.09 -6.375 -1.59 C -6.375 .09 -4.995 1.275 -3.104 1.275 C -1.755 1.275 -.81 .825 0 0 " fill="#ffffff"/>
<path transform="matrix(1,0,0,-1,65.5291,21.947907)" d="M 0 0 C -2.417 0 -4.384 -2.523 -4.384 -5.625 C -4.384 -8.727 -2.417 -11.25 0 -11.25 C 2.417 -11.25 4.384 -8.727 4.384 -5.625 C 4.384 -2.523 2.417 0 0 0 M 0 -12.5 C -3.106 -12.5 -5.634 -9.416 -5.634 -5.625 C -5.634 -1.834 -3.106 1.25 0 1.25 C 3.106 1.25 5.634 -1.834 5.634 -5.625 C 5.634 -9.416 3.106 -12.5 0 -12.5 " fill="#ffffff"/>
<path transform="matrix(1,0,0,-1,89.4705,21.947907)" d="M 0 0 C -2.417 0 -4.384 -2.523 -4.384 -5.625 C -4.384 -8.727 -2.417 -11.25 0 -11.25 C 2.417 -11.25 4.384 -8.727 4.384 -5.625 C 4.384 -2.523 2.417 0 0 0 M 0 -12.5 C -3.106 -12.5 -5.634 -9.416 -5.634 -5.625 C -5.634 -1.834 -3.106 1.25 0 1.25 C 3.106 1.25 5.634 -1.834 5.634 -5.625 C 5.634 -9.416 3.106 -12.5 0 -12.5 " fill="#ffffff"/>
<path transform="matrix(1,0,0,-1,102.3543,21.947907)" d="M 0 0 C -2.417 0 -4.384 -2.523 -4.384 -5.625 C -4.384 -8.727 -2.417 -11.25 0 -11.25 C 2.417 -11.25 4.384 -8.727 4.384 -5.625 C 4.384 -2.523 2.417 0 0 0 M 0 -12.5 C -3.106 -12.5 -5.634 -9.416 -5.634 -5.625 C -5.634 -1.834 -3.106 1.25 0 1.25 C 3.106 1.25 5.634 -1.834 5.634 -5.625 C 5.634 -9.416 3.106 -12.5 0 -12.5 " fill="#ffffff"/>
<path transform="matrix(1,0,0,-1,57.6414,33.5729)" d="M 0 0 L -1.25 0 L -1.25 9.688 L -3.349 8.742 L -3.862 9.883 L 0 11.621 Z " fill="#ffffff"/>
<path transform="matrix(1,0,0,-1,75.9109,33.5729)" d="M 0 0 L -1.25 0 L -1.25 9.688 L -3.35 8.742 L -3.863 9.883 L 0 11.621 Z " fill="#ffffff"/>
<path transform="matrix(1,0,0,-1,82.2205,33.5729)" d="M 0 0 L -1.25 0 L -1.25 9.688 L -3.35 8.742 L -3.863 9.883 L 0 11.621 Z " fill="#ffffff"/>
<path transform="matrix(1,0,0,-1,86.9734,63.347398)" d="M 0 0 L -1.25 0 L -1.25 9.688 L -3.349 8.742 L -3.862 9.883 L 0 11.621 Z " fill="#ffffff"/>
<path transform="matrix(1,0,0,-1,92.9959,63.347398)" d="M 0 0 L -1.25 0 L -1.25 9.688 L -3.349 8.742 L -3.862 9.883 L 0 11.621 Z " fill="#ffffff"/>
<path transform="matrix(1,0,0,-1,61.3738,51.722398)" d="M 0 0 C -2.417 0 -4.384 -2.523 -4.384 -5.625 C -4.384 -8.727 -2.417 -11.25 0 -11.25 C 2.417 -11.25 4.384 -8.727 4.384 -5.625 C 4.384 -2.523 2.417 0 0 0 M 0 -12.5 C -3.106 -12.5 -5.634 -9.416 -5.634 -5.625 C -5.634 -1.834 -3.106 1.25 0 1.25 C 3.106 1.25 5.634 -1.834 5.634 -5.625 C 5.634 -9.416 3.106 -12.5 0 -12.5 " fill="#ffffff"/>
<path transform="matrix(1,0,0,-1,75.6697,51.722398)" d="M 0 0 C -2.417 0 -4.384 -2.523 -4.384 -5.625 C -4.384 -8.727 -2.417 -11.25 0 -11.25 C 2.417 -11.25 4.384 -8.727 4.384 -5.625 C 4.384 -2.523 2.417 0 0 0 M 0 -12.5 C -3.106 -12.5 -5.634 -9.416 -5.634 -5.625 C -5.634 -1.834 -3.106 1.25 0 1.25 C 3.106 1.25 5.634 -1.834 5.634 -5.625 C 5.634 -9.416 3.106 -12.5 0 -12.5 " fill="#ffffff"/>
<path transform="matrix(1,0,0,-1,57.6414,48.4597)" d="M 0 0 L -1.25 0 L -1.25 9.687 L -3.349 8.741 L -3.862 9.882 L 0 11.62 Z " fill="#ffffff"/>
<path transform="matrix(1,0,0,-1,63.489,48.4597)" d="M 0 0 L -1.25 0 L -1.25 9.687 L -3.349 8.741 L -3.862 9.882 L 0 11.62 Z " fill="#ffffff"/>
<path transform="matrix(1,0,0,-1,69.3367,48.4597)" d="M 0 0 L -1.25 0 L -1.25 9.687 L -3.35 8.741 L -3.863 9.882 L 0 11.62 Z " fill="#ffffff"/>
<path transform="matrix(1,0,0,-1,76.5867,36.8347)" d="M 0 0 C -2.417 0 -4.384 -2.523 -4.384 -5.625 C -4.384 -8.727 -2.417 -11.25 0 -11.25 C 2.417 -11.25 4.384 -8.727 4.384 -5.625 C 4.384 -2.523 2.417 0 0 0 M 0 -12.5 C -3.106 -12.5 -5.634 -9.416 -5.634 -5.625 C -5.634 -1.834 -3.106 1.25 0 1.25 C 3.106 1.25 5.634 -1.834 5.634 -5.625 C 5.634 -9.416 3.106 -12.5 0 -12.5 " fill="#ffffff"/>
<path transform="matrix(1,0,0,-1,89.4705,36.8347)" d="M 0 0 C -2.417 0 -4.384 -2.523 -4.384 -5.625 C -4.384 -8.727 -2.417 -11.25 0 -11.25 C 2.417 -11.25 4.384 -8.727 4.384 -5.625 C 4.384 -2.523 2.417 0 0 0 M 0 -12.5 C -3.106 -12.5 -5.634 -9.416 -5.634 -5.625 C -5.634 -1.834 -3.106 1.25 0 1.25 C 3.106 1.25 5.634 -1.834 5.634 -5.625 C 5.634 -9.416 3.106 -12.5 0 -12.5 " fill="#ffffff"/>
<path transform="matrix(1,0,0,-1,76.5867,78.2341)" d="M 0 0 L -1.25 0 L -1.25 9.687 L -3.349 8.741 L -3.862 9.882 L 0 11.62 Z " fill="#ffffff"/>
<path transform="matrix(1,0,0,-1,71.7107,78.2341)" d="M 0 0 L -1.25 0 L -1.25 9.687 L -3.35 8.741 L -3.863 9.882 L 0 11.62 Z " fill="#ffffff"/>
<path transform="matrix(1,0,0,-1,81.4627,78.2341)" d="M 0 0 L -1.25 0 L -1.25 9.687 L -3.349 8.741 L -3.862 9.882 L 0 11.62 Z " fill="#ffffff"/>
<path transform="matrix(1,0,0,-1,61.3738,66.6091)" d="M 0 0 C -2.417 0 -4.384 -2.523 -4.384 -5.625 C -4.384 -8.727 -2.417 -11.25 0 -11.25 C 2.417 -11.25 4.384 -8.727 4.384 -5.625 C 4.384 -2.523 2.417 0 0 0 M 0 -12.5 C -3.106 -12.5 -5.634 -9.416 -5.634 -5.625 C -5.634 -1.834 -3.106 1.25 0 1.25 C 3.106 1.25 5.634 -1.834 5.634 -5.625 C 5.634 -9.416 3.106 -12.5 0 -12.5 " fill="#ffffff"/>
<path transform="matrix(1,0,0,-1,89.4705,66.6091)" d="M 0 0 C -2.417 0 -4.384 -2.523 -4.384 -5.625 C -4.384 -8.727 -2.417 -11.25 0 -11.25 C 2.417 -11.25 4.384 -8.727 4.384 -5.625 C 4.384 -2.523 2.417 0 0 0 M 0 -12.5 C -3.106 -12.5 -5.634 -9.416 -5.634 -5.625 C -5.634 -1.834 -3.106 1.25 0 1.25 C 3.106 1.25 5.634 -1.834 5.634 -5.625 C 5.634 -9.416 3.106 -12.5 0 -12.5 " fill="#ffffff"/>
<path transform="matrix(1,0,0,-1,0,150)" d="M 47.977 106.36 L 41.977 106.36 L 41.977 107.61 L 47.977 107.61 Z " fill="#ffffff"/>
<path transform="matrix(1,0,0,-1,0,150)" d="M 47.977 121.802 L 41.977 121.802 L 41.977 123.052 L 47.977 123.052 Z " fill="#ffffff"/>
<path transform="matrix(1,0,0,-1,0,150)" d="M 47.977 92.028 L 41.977 92.028 L 41.977 93.278 L 47.977 93.278 Z " fill="#ffffff"/>
<path transform="matrix(1,0,0,-1,0,150)" d="M 47.977 77.141 L 41.977 77.141 L 41.977 78.391 L 47.977 78.391 Z " fill="#ffffff"/>
<path transform="matrix(1,0,0,-1,0,150)" d="M 51.512 126.824 L 50.262 126.824 L 50.262 128.074 L 51.512 128.074 Z M 51.512 124.324 L 50.262 124.324 L 50.262 125.574 L 51.512 125.574 Z M 51.512 121.824 L 50.262 121.824 L 50.262 123.074 L 51.512 123.074 Z M 51.512 119.324 L 50.262 119.324 L 50.262 120.574 L 51.512 120.574 Z M 51.512 116.824 L 50.262 116.824 L 50.262 118.074 L 51.512 118.074 Z M 51.512 114.324 L 50.262 114.324 L 50.262 115.574 L 51.512 115.574 Z M 51.512 111.824 L 50.262 111.824 L 50.262 113.074 L 51.512 113.074 Z M 51.512 109.324 L 50.262 109.324 L 50.262 110.574 L 51.512 110.574 Z M 51.512 106.824 L 50.262 106.824 L 50.262 108.074 L 51.512 108.074 Z M 51.512 104.324 L 50.262 104.324 L 50.262 105.574 L 51.512 105.574 Z M 51.512 101.824 L 50.262 101.824 L 50.262 103.074 L 51.512 103.074 Z M 51.512 99.324 L 50.262 99.324 L 50.262 100.574 L 51.512 100.574 Z M 51.512 96.824 L 50.262 96.824 L 50.262 98.074 L 51.512 98.074 Z M 51.512 94.324 L 50.262 94.324 L 50.262 95.574 L 51.512 95.574 Z M 51.512 91.824 L 50.262 91.824 L 50.262 93.074 L 51.512 93.074 Z M 51.512 89.324 L 50.262 89.324 L 50.262 90.574 L 51.512 90.574 Z M 51.512 86.824 L 50.262 86.824 L 50.262 88.074 L 51.512 88.074 Z M 51.512 84.324 L 50.262 84.324 L 50.262 85.574 L 51.512 85.574 Z M 51.512 81.824 L 50.262 81.824 L 50.262 83.074 L 51.512 83.074 Z M 51.512 79.324 L 50.262 79.324 L 50.262 80.574 L 51.512 80.574 Z M 51.512 76.824 L 50.262 76.824 L 50.262 78.074 L 51.512 78.074 Z M 51.512 74.324 L 50.262 74.324 L 50.262 75.574 L 51.512 75.574 Z M 51.512 72.074 L 50.262 72.074 L 50.262 73.074 L 51.512 73.074 Z " fill="#ffffff"/>
</g>
</g>
</g>
</svg>
