<?xml version="1.0" encoding="UTF-8" standalone="no"?>
<svg
   xmlns:dc="http://purl.org/dc/elements/1.1/"
   xmlns:cc="http://creativecommons.org/ns#"
   xmlns:rdf="http://www.w3.org/1999/02/22-rdf-syntax-ns#"
   xmlns:svg="http://www.w3.org/2000/svg"
   xmlns="http://www.w3.org/2000/svg"
   viewBox="0 0 200 200"
   height="200"
   width="200"
   xml:space="preserve"
   id="svg2"
   version="1.1"><metadata
     id="metadata8"><rdf:RDF><cc:Work
         rdf:about=""><dc:format>image/svg+xml</dc:format><dc:type
           rdf:resource="http://purl.org/dc/dcmitype/StillImage" /></cc:Work></rdf:RDF></metadata><defs
     id="defs6"><clipPath
       id="clipPath30"
       clipPathUnits="userSpaceOnUse"><path
         id="path28"
         d="M 0,150 H 150 V 0 H 0 Z" /></clipPath></defs><g
     transform="matrix(1.3333333,0,0,-1.3333333,0,200)"
     id="g10"><path
       id="path12"
       style="fill:#003366;fill-opacity:1;fill-rule:nonzero;stroke:none"
       d="M 0,50.073 H 149.95 V 150 H 0 Z" /><path
       id="path14"
       style="fill:#fcb613;fill-opacity:1;fill-rule:nonzero;stroke:none"
       d="M 0,0.074 H 149.95 V 50.073 H 0 Z" /><g
       transform="translate(18.9002,12.9408)"
       id="g16"><path
         id="path18"
         style="fill:#ffffff;fill-opacity:1;fill-rule:nonzero;stroke:none"
         d="m 0,0 h -4.017 v 18.797 l -3.897,-3.115 -1.815,3.185 6.07,4.726 H 0 Z" /></g><g
       transform="translate(30.0262,12.9408)"
       id="g20"><path
         id="path22"
         style="fill:#ffffff;fill-opacity:1;fill-rule:nonzero;stroke:none"
         d="m 0,0 h -4.017 v 18.797 l -3.897,-3.115 -1.815,3.185 6.07,4.726 H 0 Z" /></g><g
       id="g24"><g
         clip-path="url(#clipPath30)"
         id="g26"><g
           transform="translate(47.3006,35.2719)"
           id="g32"><path
             id="path34"
             style="fill:#ffffff;fill-opacity:1;fill-rule:nonzero;stroke:none"
             d="m 0,0 -0.922,-0.948 c -0.591,0.48 -1.072,0.715 -1.801,0.715 -1.21,0 -2.185,-0.88 -2.185,-3.603 0,-2.749 0.66,-3.601 1.938,-3.601 0.482,0 0.921,0.124 1.306,0.357 v 2.529 H -2.901 L -3.08,-3.23 h 3.135 v -4.634 c -0.853,-0.577 -1.911,-0.935 -2.997,-0.935 -2.502,0 -3.823,1.609 -3.823,4.963 0,3.327 1.802,4.949 3.988,4.949 C -1.581,1.113 -0.742,0.687 0,0" /></g><g
           transform="translate(53.1844,38.1732)"
           id="g36"><path
             id="path38"
             style="fill:#ffffff;fill-opacity:1;fill-rule:nonzero;stroke:none"
             d="m 0,0 -2.874,-1.142 -0.439,0.88 2.639,1.581 z M 0.659,-3.313 H -2.434 V -6.009 H 0.274 V -7.314 H -2.434 V -10.16 H 0.88 v -1.334 h -5.101 v 9.5 h 5.073 z" /></g><g
           transform="translate(57.9597,31.7797)"
           id="g40"><path
             id="path42"
             style="fill:#ffffff;fill-opacity:1;fill-rule:nonzero;stroke:none"
             d="m 0,0 c 1.127,0 1.649,0.495 1.649,1.608 0,1.032 -0.522,1.486 -1.759,1.486 h -0.702 l 0,-3.094 z m 0.165,-1.278 h -0.977 v -3.823 h -1.787 v 9.5 h 2.502 c 2.434,0 3.589,-0.961 3.589,-2.791 0,-1.195 -0.55,-2.088 -1.705,-2.556 L 4.001,-5.101 H 2.034 Z" /></g><g
           transform="translate(67.8728,34.8597)"
           id="g44"><path
             id="path46"
             style="fill:#ffffff;fill-opacity:1;fill-rule:nonzero;stroke:none"
             d="m 0,0 h -3.093 v -2.695 h 2.708 V -4.001 H -3.093 V -6.847 H 0.221 V -8.181 H -4.88 v 9.5 h 5.072 z" /></g><g
           transform="translate(71.989,31.7797)"
           id="g48"><path
             id="path50"
             style="fill:#ffffff;fill-opacity:1;fill-rule:nonzero;stroke:none"
             d="m 0,0 c 1.127,0 1.649,0.495 1.649,1.608 0,1.032 -0.522,1.486 -1.759,1.486 h -0.702 l 0,-3.094 z m 0.165,-1.278 h -0.977 v -3.823 h -1.787 v 9.5 h 2.502 c 2.434,0 3.589,-0.961 3.589,-2.791 0,-1.195 -0.55,-2.088 -1.705,-2.556 L 4.001,-5.101 H 2.034 Z" /></g><g
           transform="translate(42.7361,15.6371)"
           id="g52"><path
             id="path54"
             style="fill:#ffffff;fill-opacity:1;fill-rule:nonzero;stroke:none"
             d="M 0,0 H 3.382 L 3.189,-1.458 h -4.976 v 9.5 H 0 Z" /></g><g
           transform="translate(52.0633,22.3597)"
           id="g56"><path
             id="path58"
             style="fill:#ffffff;fill-opacity:1;fill-rule:nonzero;stroke:none"
             d="m 0,0 h -3.093 v -2.695 h 2.708 V -4.001 H -3.093 V -6.847 H 0.221 V -8.181 H -4.88 v 9.5 h 5.072 z" /></g><g
           transform="translate(59.323,22.7172)"
           id="g60"><path
             id="path62"
             style="fill:#ffffff;fill-opacity:1;fill-rule:nonzero;stroke:none"
             d="m 0,0 -0.853,-0.977 c -0.604,0.537 -1.181,0.785 -1.869,0.785 -0.784,0 -1.292,-0.427 -1.292,-1.142 0,-0.687 0.329,-1.031 1.732,-1.525 1.54,-0.565 2.53,-1.252 2.53,-2.97 0,-1.664 -1.237,-2.915 -3.3,-2.915 -1.416,0 -2.406,0.536 -3.148,1.292 l 0.907,1.004 c 0.647,-0.564 1.307,-0.921 2.173,-0.921 0.921,0 1.512,0.536 1.512,1.443 0,0.784 -0.344,1.183 -1.65,1.636 -1.814,0.646 -2.585,1.458 -2.585,2.832 0,1.54 1.265,2.626 2.997,2.626 C -1.608,1.168 -0.742,0.756 0,0" /></g><g
           transform="translate(63.9305,23.6791)"
           id="g64"><path
             id="path66"
             style="fill:#ffffff;fill-opacity:1;fill-rule:nonzero;stroke:none"
             d="M 0,0 H 4.949 L 4.757,-1.319 H 1.787 V -4.207 H 4.371 V -5.526 H 1.787 V -9.5 H 0 Z" /></g><g
           transform="translate(72.5496,19.2797)"
           id="g68"><path
             id="path70"
             style="fill:#ffffff;fill-opacity:1;fill-rule:nonzero;stroke:none"
             d="m 0,0 c 1.127,0 1.649,0.495 1.649,1.608 0,1.032 -0.522,1.486 -1.759,1.486 h -0.702 l 0,-3.094 z m 0.165,-1.278 h -0.977 v -3.823 h -1.787 v 9.5 h 2.502 c 2.434,0 3.589,-0.961 3.589,-2.791 0,-1.195 -0.55,-2.088 -1.705,-2.556 L 4.001,-5.101 H 2.034 Z" /></g><g
           transform="translate(78.9353,18.9222)"
           id="g72"><path
             id="path74"
             style="fill:#ffffff;fill-opacity:1;fill-rule:nonzero;stroke:none"
             d="m 0,0 c 0,-2.653 0.715,-3.588 1.911,-3.588 1.251,0 1.925,0.935 1.925,3.602 0,2.626 -0.674,3.589 -1.925,3.589 C 0.687,3.603 0,2.64 0,0 m 5.705,0.014 c 0,-3.244 -1.443,-4.963 -3.794,-4.963 -2.323,0 -3.781,1.664 -3.781,4.949 0,3.231 1.458,4.963 3.781,4.963 2.337,0 3.794,-1.65 3.794,-4.949" /></g><g
           transform="translate(92.5066,14.1791)"
           id="g76"><path
             id="path78"
             style="fill:#ffffff;fill-opacity:1;fill-rule:nonzero;stroke:none"
             d="M 0,0 H -2.282 L -5.06,7.74 C -4.977,6.888 -4.825,5.692 -4.825,3.946 V 0 H -6.42 v 9.5 h 2.254 L -1.361,1.76 C -1.443,2.296 -1.595,3.644 -1.595,4.991 V 9.5 H 0 Z" /></g><g
           transform="translate(99.7957,22.2767)"
           id="g80"><path
             id="path82"
             style="fill:#ffffff;fill-opacity:1;fill-rule:nonzero;stroke:none"
             d="M 0,0 H -2.186 V -8.098 H -3.959 V 0 h -2.282 v 1.402 h 6.434 z" /></g><path
           id="path84"
           style="fill:#ffffff;fill-opacity:1;fill-rule:nonzero;stroke:none"
           d="M 102.787,14.179 H 101 v 9.5 h 1.787 z" /><g
           transform="translate(108.7488,25.4115)"
           id="g86"><path
             id="path88"
             style="fill:#ffffff;fill-opacity:1;fill-rule:nonzero;stroke:none"
             d="m 0,0 -0.439,-0.88 -2.874,1.127 0.673,1.334 z m 0.729,-3.052 h -3.093 v -2.695 h 2.708 v -1.306 h -2.708 v -2.845 h 3.313 v -1.334 h -5.1 v 9.5 h 5.072 z" /></g><g
           transform="translate(113.5926,19.2797)"
           id="g90"><path
             id="path92"
             style="fill:#ffffff;fill-opacity:1;fill-rule:nonzero;stroke:none"
             d="m 0,0 c 1.128,0 1.65,0.495 1.65,1.608 0,1.032 -0.522,1.486 -1.759,1.486 h -0.702 l 0,-3.094 z m 0.165,-1.278 h -0.976 v -3.823 h -1.787 v 9.5 h 2.502 c 2.434,0 3.588,-0.961 3.588,-2.791 0,-1.195 -0.55,-2.088 -1.704,-2.556 L 4.001,-5.101 H 2.035 Z" /></g><g
           transform="translate(123.5066,22.3597)"
           id="g94"><path
             id="path96"
             style="fill:#ffffff;fill-opacity:1;fill-rule:nonzero;stroke:none"
             d="m 0,0 h -3.094 v -2.695 h 2.709 V -4.001 H -3.094 V -6.847 H 0.22 v -1.334 h -5.101 v 9.5 h 5.073 z" /></g><g
           transform="translate(130.7664,22.7172)"
           id="g98"><path
             id="path100"
             style="fill:#ffffff;fill-opacity:1;fill-rule:nonzero;stroke:none"
             d="m 0,0 -0.853,-0.977 c -0.604,0.537 -1.181,0.785 -1.869,0.785 -0.784,0 -1.292,-0.427 -1.292,-1.142 0,-0.687 0.329,-1.031 1.732,-1.525 1.54,-0.565 2.53,-1.252 2.53,-2.97 0,-1.664 -1.237,-2.915 -3.3,-2.915 -1.416,0 -2.406,0.536 -3.148,1.292 l 0.907,1.004 c 0.647,-0.564 1.307,-0.921 2.173,-0.921 0.921,0 1.512,0.536 1.512,1.443 0,0.784 -0.344,1.183 -1.65,1.636 -1.814,0.646 -2.585,1.458 -2.585,2.832 0,1.54 1.265,2.626 2.997,2.626 C -1.608,1.168 -0.742,0.756 0,0" /></g><g
           transform="translate(99.2019,77.5609)"
           id="g102"><path
             id="path104"
             style="fill:#ffffff;fill-opacity:1;fill-rule:nonzero;stroke:none"
             d="m 0,0 c -0.164,-0.889 -1.017,-1.479 -1.908,-1.315 l -42.734,7.824 c -0.43,0.078 -0.804,0.32 -1.053,0.68 -0.249,0.362 -0.342,0.797 -0.264,1.228 0.163,0.888 1.016,1.477 1.908,1.315 l 6.985,-1.278 V 8.453 L -8.3,3.187 V 3.188 L -1.317,1.909 C -0.429,1.746 0.163,0.89 0,0 m -36.85,24.488 c 0.445,2.411 2.763,4.01 5.19,3.571 l 7.686,-1.408 -0.919,-4.997 -3.346,0.613 c -1.567,0.292 -3.079,-0.756 -3.367,-2.324 l -1.305,-7.091 -3.237,0.592 -0.692,-3.761 -2.643,0.484 z m 15.719,8.771 c 0.333,-0.058 0.664,0.162 0.728,0.503 0.061,0.339 -0.163,0.665 -0.503,0.726 l -0.955,0.175 c -10e-4,0 -0.002,0.001 -0.003,0.001 h -0.003 l -0.83,0.152 -1.698,10.878 17.503,-3.205 -5.458,-9.567 -0.831,0.152 h -0.001 -10e-4 l -2.233,0.409 c -0.338,0.061 -0.665,-0.162 -0.728,-0.502 -0.061,-0.339 0.164,-0.666 0.503,-0.727 l 1.619,-0.297 -2.189,-11.893 -7.453,1.365 2.187,11.893 z m 1.036,17.939 11.438,-2.094 1.812,-5.352 -17.096,3.13 z m -2.899,-31.162 7.787,-1.426 3.343,-0.612 c 0.431,-0.079 0.807,-0.322 1.056,-0.684 0.25,-0.362 0.343,-0.798 0.264,-1.23 l -1.305,-7.089 -19.834,3.631 1.305,7.091 c 0.164,0.89 1.02,1.481 1.914,1.32 z m -12.617,-10.578 0.466,2.532 2.007,-0.368 22.293,-4.081 2.008,-0.367 -0.467,-2.532 z M -6.158,23.39 c 1.171,-0.215 2.188,-0.871 2.864,-1.849 0.676,-0.978 0.93,-2.158 0.715,-3.325 l -2.634,-14.323 -2.86,0.523 0.691,3.762 -3.237,0.592 1.304,7.087 c 0.14,0.76 -0.024,1.53 -0.463,2.166 -0.439,0.637 -1.1,1.065 -1.862,1.205 l -3.34,0.612 0.918,4.996 z M 0.765,1.937 C 0.326,2.572 -0.333,2.999 -1.093,3.139 l -2.891,0.529 2.633,14.321 c 0.276,1.496 -0.049,3.011 -0.915,4.263 -0.866,1.252 -2.169,2.093 -3.668,2.367 l -7.902,1.446 1.042,5.667 0.655,-0.12 c 0.037,-0.007 0.076,-0.009 0.113,-0.009 0.221,0 0.43,0.118 0.543,0.315 l 6.114,10.718 c 0.019,0.034 0.019,0.073 0.031,0.11 0.015,0.042 0.031,0.08 0.036,0.124 0.008,0.062 -0.001,0.119 -0.011,0.181 -0.006,0.032 0.003,0.064 -0.007,0.095 l -2.272,6.708 c -0.072,0.214 -0.256,0.373 -0.479,0.414 l -12.145,2.223 c -0.215,0.04 -0.433,-0.036 -0.579,-0.199 l -4.819,-5.409 c -0.021,-0.024 -0.024,-0.055 -0.04,-0.08 -0.038,-0.058 -0.073,-0.114 -0.09,-0.179 -0.011,-0.042 -0.008,-0.082 -0.01,-0.125 -0.002,-0.043 -0.017,-0.084 -0.011,-0.128 l 1.902,-12.185 c 0.041,-0.263 0.243,-0.471 0.505,-0.519 l 0.653,-0.12 -1.043,-5.667 -7.688,1.408 c -3.093,0.565 -6.075,-1.484 -6.642,-4.573 l -2.634,-14.323 -3.114,0.57 c -1.561,0.288 -3.073,-0.754 -3.362,-2.319 -0.139,-0.759 0.026,-1.528 0.464,-2.164 0.439,-0.634 1.098,-1.061 1.858,-1.2 l 42.733,-7.824 c 0.175,-0.032 0.349,-0.048 0.521,-0.048 1.366,0 2.585,0.977 2.841,2.367 0.139,0.759 -0.026,1.528 -0.464,2.163" /></g><g
           transform="translate(57.1668,79.5726)"
           id="g106"><path
             id="path108"
             style="fill:#ffffff;fill-opacity:1;fill-rule:nonzero;stroke:none"
             d="M 0,0 36.089,-6.608 36.313,-5.379 0.225,1.229 Z" /></g><g
           transform="translate(60.5515,71.9662)"
           id="g110"><path
             id="path112"
             style="fill:#ffffff;fill-opacity:1;fill-rule:nonzero;stroke:none"
             d="m 0,0 -9.403,-2.028 h 38.71 L 22.691,0 Z" /></g></g></g></g></svg>