<?xml version="1.0" encoding="UTF-8" standalone="no"?>
<svg
   xmlns:dc="http://purl.org/dc/elements/1.1/"
   xmlns:cc="http://creativecommons.org/ns#"
   xmlns:rdf="http://www.w3.org/1999/02/22-rdf-syntax-ns#"
   xmlns:svg="http://www.w3.org/2000/svg"
   xmlns="http://www.w3.org/2000/svg"
   viewBox="0 0 200 200"
   height="200"
   width="200"
   xml:space="preserve"
   id="svg2"
   version="1.1"><metadata
     id="metadata8"><rdf:RDF><cc:Work
         rdf:about=""><dc:format>image/svg+xml</dc:format><dc:type
           rdf:resource="http://purl.org/dc/dcmitype/StillImage" /></cc:Work></rdf:RDF></metadata><defs
     id="defs6"><clipPath
       id="clipPath22"
       clipPathUnits="userSpaceOnUse"><path
         id="path20"
         d="M 0,150 H 150 V 0 H 0 Z" /></clipPath></defs><g
     transform="matrix(1.3333333,0,0,-1.3333333,0,200)"
     id="g10"><path
       id="path12"
       style="fill:#003366;fill-opacity:1;fill-rule:nonzero;stroke:none"
       d="M 0,50.073 H 149.95 V 150 H 0 Z" /><path
       id="path14"
       style="fill:#007cbb;fill-opacity:1;fill-rule:nonzero;stroke:none"
       d="m 0,0.073 h 149.95 v 50 H 0 Z" /><g
       id="g16"><g
         clip-path="url(#clipPath22)"
         id="g18"><g
           transform="translate(20.3592,30.4425)"
           id="g24"><path
             id="path26"
             style="fill:#ffffff;fill-opacity:1;fill-rule:nonzero;stroke:none"
             d="m 0,0 c 0,-3.851 -1.547,-6.65 -7.23,-13.722 h 7.617 l -0.447,-3.78 h -11.693 v 3.535 c 6.1,8.051 7.498,10.362 7.498,13.582 0,2.031 -0.923,3.151 -2.35,3.151 -1.339,0 -2.203,-0.771 -3.303,-2.381 l -2.47,2.24 c 1.487,2.45 3.511,3.921 6.159,3.921 C -2.202,6.546 0,3.605 0,0" /></g><g
           transform="translate(30.949,12.9405)"
           id="g28"><path
             id="path30"
             style="fill:#ffffff;fill-opacity:1;fill-rule:nonzero;stroke:none"
             d="m 0,0 h -4.017 v 18.797 l -3.897,-3.115 -1.815,3.185 6.07,4.726 H 0 Z" /></g><g
           transform="translate(43.4881,39.0587)"
           id="g32"><path
             id="path34"
             style="fill:#ffffff;fill-opacity:1;fill-rule:nonzero;stroke:none"
             d="m 0,0 c 1.116,0 1.634,0.495 1.634,1.608 0,1.032 -0.518,1.485 -1.742,1.485 H -0.804 V 0 Z m 0.163,-1.279 h -0.967 v -3.822 h -1.769 v 9.5 h 2.478 c 2.408,0 3.552,-0.962 3.552,-2.791 0,-1.196 -0.544,-2.089 -1.688,-2.557 L 3.96,-5.101 H 2.015 Z" /></g><g
           transform="translate(52.9617,42.1378)"
           id="g36"><path
             id="path38"
             style="fill:#ffffff;fill-opacity:1;fill-rule:nonzero;stroke:none"
             d="m 0,0 h -3.063 v -2.694 h 2.682 V -4 H -3.063 V -6.847 H 0.218 V -8.18 h -5.05 v 9.5 H 0.19 Z" /></g><g
           transform="translate(59.8221,42.0557)"
           id="g40"><path
             id="path42"
             style="fill:#ffffff;fill-opacity:1;fill-rule:nonzero;stroke:none"
             d="M 0,0 H -2.164 V -8.098 H -3.92 V 0 H -6.179 V 1.402 H 0.19 Z" /></g><g
           transform="translate(61.8894,38.7012)"
           id="g44"><path
             id="path46"
             style="fill:#ffffff;fill-opacity:1;fill-rule:nonzero;stroke:none"
             d="m 0,0 c 0,-2.653 0.709,-3.589 1.893,-3.589 1.238,0 1.905,0.936 1.905,3.603 0,2.626 -0.667,3.588 -1.905,3.588 C 0.682,3.602 0,2.64 0,0 m 5.648,0.014 c 0,-3.245 -1.428,-4.963 -3.755,-4.963 -2.301,0 -3.744,1.663 -3.744,4.949 0,3.23 1.443,4.963 3.744,4.963 2.314,0 3.755,-1.65 3.755,-4.949" /></g><g
           transform="translate(74.9441,36.8175)"
           id="g48"><path
             id="path50"
             style="fill:#ffffff;fill-opacity:1;fill-rule:nonzero;stroke:none"
             d="m 0,0 c 0,-1.732 -1.09,-3.065 -3.213,-3.065 -2.15,0 -3.212,1.292 -3.212,3.065 v 6.641 h 1.769 V 0.097 c 0,-1.183 0.435,-1.775 1.443,-1.775 0.994,0 1.443,0.592 1.443,1.775 V 6.641 H 0 Z" /></g><g
           transform="translate(78.907,39.0587)"
           id="g52"><path
             id="path54"
             style="fill:#ffffff;fill-opacity:1;fill-rule:nonzero;stroke:none"
             d="m 0,0 c 1.115,0 1.633,0.495 1.633,1.608 0,1.032 -0.518,1.485 -1.742,1.485 h -0.695 l 0,-3.093 z m 0.162,-1.279 h -0.966 v -3.822 h -1.769 v 9.5 h 2.477 c 2.409,0 3.553,-0.962 3.553,-2.791 0,-1.196 -0.545,-2.089 -1.687,-2.557 L 3.96,-5.101 H 2.014 Z" /></g><g
           transform="translate(87.9861,42.1241)"
           id="g56"><path
             id="path58"
             style="fill:#ffffff;fill-opacity:1;fill-rule:nonzero;stroke:none"
             d="m 0,0 v -6.833 h 0.749 c 1.225,0 2.205,0.619 2.205,3.465 C 2.954,-0.467 1.919,0 0.708,0 Z m 4.777,-3.368 c 0,-3.877 -2.069,-4.798 -4.151,-4.798 H -1.77 v 9.5 h 2.206 c 2.232,0 4.341,-0.715 4.341,-4.702" /></g><path
           id="path60"
           style="fill:#ffffff;fill-opacity:1;fill-rule:nonzero;stroke:none"
           d="m 95.617,33.958 h -1.77 v 9.5 h 1.77 z" /><g
           transform="translate(103.4041,42.5509)"
           id="g62"><path
             id="path64"
             style="fill:#ffffff;fill-opacity:1;fill-rule:nonzero;stroke:none"
             d="m 0,0 -0.912,-0.949 c -0.585,0.481 -1.062,0.715 -1.783,0.715 -1.199,0 -2.164,-0.88 -2.164,-3.602 0,-2.75 0.653,-3.602 1.919,-3.602 0.476,0 0.912,0.124 1.293,0.357 v 2.53 h -1.225 l -0.177,1.32 h 3.103 v -4.633 c -0.844,-0.577 -1.891,-0.935 -2.967,-0.935 -2.477,0 -3.783,1.609 -3.783,4.963 0,3.327 1.783,4.949 3.947,4.949 C -1.565,1.113 -0.735,0.687 0,0" /></g><g
           transform="translate(111.0662,33.9581)"
           id="g66"><path
             id="path68"
             style="fill:#ffffff;fill-opacity:1;fill-rule:nonzero;stroke:none"
             d="m 0,0 h -2.259 l -2.75,7.74 C -4.927,6.888 -4.777,5.691 -4.777,3.945 V 0 h -1.579 v 9.5 h 2.232 L -1.348,1.76 C -1.429,2.296 -1.579,3.643 -1.579,4.99 V 9.5 H 0 Z" /></g><g
           transform="translate(117.368,42.1378)"
           id="g70"><path
             id="path72"
             style="fill:#ffffff;fill-opacity:1;fill-rule:nonzero;stroke:none"
             d="m 0,0 h -3.063 v -2.694 h 2.682 V -4 h -2.682 v -2.847 h 3.28 V -8.18 h -5.049 v 9.5 h 5.021 z" /></g><g
           transform="translate(45.7469,28.6378)"
           id="g74"><path
             id="path76"
             style="fill:#ffffff;fill-opacity:1;fill-rule:nonzero;stroke:none"
             d="m 0,0 h -3.063 v -2.694 h 2.682 V -4 H -3.063 V -6.847 H 0.219 V -8.18 h -5.051 v 9.5 h 5.023 z" /></g><g
           transform="translate(52.6082,28.5557)"
           id="g78"><path
             id="path80"
             style="fill:#ffffff;fill-opacity:1;fill-rule:nonzero;stroke:none"
             d="M 0,0 H -2.164 V -8.098 H -3.92 V 0 h -2.26 v 1.402 h 6.369 z" /></g><g
           transform="translate(58.6785,25.5587)"
           id="g82"><path
             id="path84"
             style="fill:#ffffff;fill-opacity:1;fill-rule:nonzero;stroke:none"
             d="m 0,0 c 1.117,0 1.634,0.495 1.634,1.608 0,1.032 -0.517,1.485 -1.742,1.485 H -0.803 V 0 Z m 0.164,-1.279 h -0.967 v -3.822 h -1.769 v 9.5 h 2.477 c 2.409,0 3.552,-0.962 3.552,-2.791 0,-1.196 -0.544,-2.089 -1.687,-2.557 L 3.961,-5.101 H 2.015 Z" /></g><g
           transform="translate(67.4988,31.9512)"
           id="g86"><path
             id="path88"
             style="fill:#ffffff;fill-opacity:1;fill-rule:nonzero;stroke:none"
             d="m 0,0 -2.844,-1.141 -0.435,0.88 2.613,1.581 z m 0.654,-3.313 h -3.062 v -2.695 h 2.681 v -1.305 h -2.681 v -2.847 h 3.279 v -1.333 h -5.049 v 9.5 h 5.022 z" /></g><path
           id="path90"
           style="fill:#ffffff;fill-opacity:1;fill-rule:nonzero;stroke:none"
           d="m 71.106,20.458 h -1.77 v 9.5 h 1.77 z" /><g
           transform="translate(78.9129,20.4581)"
           id="g92"><path
             id="path94"
             style="fill:#ffffff;fill-opacity:1;fill-rule:nonzero;stroke:none"
             d="M 0,0 H -2.26 L -5.009,7.74 C -4.928,6.888 -4.777,5.691 -4.777,3.945 V 0 h -1.579 v 9.5 h 2.232 l 2.776,-7.74 c -0.082,0.536 -0.23,1.883 -0.23,3.23 V 9.5 H 0 Z" /></g><g
           transform="translate(85.7937,28.5557)"
           id="g96"><path
             id="path98"
             style="fill:#ffffff;fill-opacity:1;fill-rule:nonzero;stroke:none"
             d="M 0,0 H -2.164 V -8.098 H -3.92 V 0 h -2.259 v 1.402 h 6.37 z" /></g><g
           transform="translate(90.825,31.9512)"
           id="g100"><path
             id="path102"
             style="fill:#ffffff;fill-opacity:1;fill-rule:nonzero;stroke:none"
             d="m 0,0 -2.846,-1.141 -0.435,0.88 2.613,1.581 z M 0.652,-3.313 H -2.41 V -6.008 H 0.271 V -7.313 H -2.41 v -2.847 h 3.281 v -1.333 H -4.18 v 9.5 h 5.024 z" /></g><g
           transform="translate(98.7781,29.0509)"
           id="g104"><path
             id="path106"
             style="fill:#ffffff;fill-opacity:1;fill-rule:nonzero;stroke:none"
             d="m 0,0 -0.912,-0.949 c -0.586,0.481 -1.062,0.715 -1.783,0.715 -1.198,0 -2.164,-0.88 -2.164,-3.602 0,-2.75 0.653,-3.602 1.92,-3.602 0.475,0 0.911,0.124 1.293,0.357 v 2.53 h -1.226 l -0.177,1.32 h 3.104 v -4.633 c -0.844,-0.577 -1.893,-0.935 -2.968,-0.935 -2.478,0 -3.784,1.609 -3.784,4.963 0,3.327 1.783,4.949 3.947,4.949 C -1.565,1.113 -0.735,0.687 0,0" /></g><g
           transform="translate(102.657,25.5587)"
           id="g108"><path
             id="path110"
             style="fill:#ffffff;fill-opacity:1;fill-rule:nonzero;stroke:none"
             d="m 0,0 c 1.115,0 1.633,0.495 1.633,1.608 0,1.032 -0.518,1.485 -1.742,1.485 h -0.695 l 0,-3.093 z m 0.162,-1.279 h -0.966 v -3.822 h -1.769 v 9.5 h 2.477 c 2.409,0 3.553,-0.962 3.553,-2.791 0,-1.196 -0.545,-2.089 -1.687,-2.557 L 3.96,-5.101 H 2.014 Z" /></g><g
           transform="translate(111.5398,24.0186)"
           id="g112"><path
             id="path114"
             style="fill:#ffffff;fill-opacity:1;fill-rule:nonzero;stroke:none"
             d="M 0,0 -1.062,4.578 -2.123,0 Z M 0.299,-1.348 H -2.424 L -2.94,-3.561 h -1.784 l 2.614,9.5 h 2.151 l 2.6,-9.5 H 0.816 Z" /></g><g
           transform="translate(119.4793,28.5557)"
           id="g116"><path
             id="path118"
             style="fill:#ffffff;fill-opacity:1;fill-rule:nonzero;stroke:none"
             d="M 0,0 H -2.164 V -8.098 H -3.92 V 0 h -2.26 v 1.402 h 6.37 z" /></g><path
           id="path120"
           style="fill:#ffffff;fill-opacity:1;fill-rule:nonzero;stroke:none"
           d="m 122.1,20.458 h -1.77 v 9.5 h 1.77 z" /><g
           transform="translate(125.0418,25.2012)"
           id="g122"><path
             id="path124"
             style="fill:#ffffff;fill-opacity:1;fill-rule:nonzero;stroke:none"
             d="m 0,0 c 0,-2.653 0.708,-3.589 1.893,-3.589 1.238,0 1.904,0.936 1.904,3.603 0,2.626 -0.666,3.588 -1.904,3.588 C 0.681,3.602 0,2.64 0,0 m 5.648,0.014 c 0,-3.245 -1.429,-4.963 -3.755,-4.963 -2.301,0 -3.745,1.663 -3.745,4.949 0,3.23 1.444,4.963 3.745,4.963 2.312,0 3.755,-1.65 3.755,-4.949" /></g><g
           transform="translate(138.1375,20.4581)"
           id="g126"><path
             id="path128"
             style="fill:#ffffff;fill-opacity:1;fill-rule:nonzero;stroke:none"
             d="M 0,0 H -2.26 L -5.009,7.74 C -4.928,6.888 -4.777,5.691 -4.777,3.945 V 0 h -1.579 v 9.5 h 2.232 l 2.776,-7.74 c -0.082,0.536 -0.23,1.883 -0.23,3.23 V 9.5 H 0 Z" /></g><g
           transform="translate(42.6844,15.1241)"
           id="g130"><path
             id="path132"
             style="fill:#ffffff;fill-opacity:1;fill-rule:nonzero;stroke:none"
             d="m 0,0 v -6.833 h 0.749 c 1.226,0 2.205,0.619 2.205,3.465 C 2.954,-0.467 1.92,0 0.709,0 Z m 4.777,-3.368 c 0,-3.877 -2.068,-4.798 -4.15,-4.798 H -1.77 v 9.5 h 2.206 c 2.232,0 4.341,-0.715 4.341,-4.702" /></g><g
           transform="translate(54.864,9.8175)"
           id="g134"><path
             id="path136"
             style="fill:#ffffff;fill-opacity:1;fill-rule:nonzero;stroke:none"
             d="m 0,0 c 0,-1.732 -1.09,-3.065 -3.213,-3.065 -2.15,0 -3.212,1.292 -3.212,3.065 v 6.641 h 1.769 V 0.097 c 0,-1.183 0.435,-1.775 1.443,-1.775 0.994,0 1.443,0.592 1.443,1.775 V 6.641 H 0 Z" /></g><g
           transform="translate(58.8269,12.0587)"
           id="g138"><path
             id="path140"
             style="fill:#ffffff;fill-opacity:1;fill-rule:nonzero;stroke:none"
             d="m 0,0 c 1.115,0 1.633,0.495 1.633,1.608 0,1.032 -0.518,1.485 -1.742,1.485 h -0.695 l 0,-3.093 z m 0.162,-1.279 h -0.966 v -3.822 h -1.769 v 9.5 h 2.477 c 2.409,0 3.553,-0.962 3.553,-2.791 0,-1.196 -0.545,-2.089 -1.687,-2.557 L 3.96,-5.101 H 2.014 Z" /></g><g
           transform="translate(67.7097,10.5186)"
           id="g142"><path
             id="path144"
             style="fill:#ffffff;fill-opacity:1;fill-rule:nonzero;stroke:none"
             d="M 0,0 -1.062,4.578 -2.123,0 Z M 0.299,-1.348 H -2.424 L -2.94,-3.561 h -1.784 l 2.614,9.5 h 2.151 l 2.6,-9.5 H 0.816 Z" /></g><g
           transform="translate(75.366,9.7628)"
           id="g146"><path
             id="path148"
             style="fill:#ffffff;fill-opacity:1;fill-rule:nonzero;stroke:none"
             d="M 0,0 C 0,1.1 -0.639,1.539 -1.701,1.539 H -2.627 V -1.472 H -1.81 C -0.721,-1.472 0,-1.155 0,0 M -2.627,5.389 V 2.776 h 0.804 c 0.979,0 1.497,0.468 1.497,1.348 0,0.921 -0.545,1.265 -1.66,1.265 z m 4.451,-5.458 c 0,-1.994 -1.511,-2.736 -3.647,-2.736 h -2.573 v 9.5 h 2.246 c 2.259,0 3.607,-0.757 3.607,-2.42 0,-1.155 -0.762,-1.814 -1.674,-2.048 1.074,-0.22 2.041,-0.77 2.041,-2.296" /></g><g
           transform="translate(79.9285,8.4151)"
           id="g150"><path
             id="path152"
             style="fill:#ffffff;fill-opacity:1;fill-rule:nonzero;stroke:none"
             d="M 0,0 H 3.349 L 3.158,-1.457 H -1.77 v 9.5 H 0 Z" /></g><g
           transform="translate(88.823,15.1378)"
           id="g154"><path
             id="path156"
             style="fill:#ffffff;fill-opacity:1;fill-rule:nonzero;stroke:none"
             d="m 0,0 h -3.063 v -2.694 h 2.682 V -4 H -3.063 V -6.847 H 0.218 V -8.18 h -5.05 v 9.5 H 0.19 Z" /></g><path
           id="path158"
           style="fill:#ffffff;fill-opacity:1;fill-rule:nonzero;stroke:none"
           d="M 46.04,71.125 H 74.375 V 83.271 H 46.04 Z m 29.585,-1.25 H 44.79 v 14.646 h 30.835 z" /><path
           id="path160"
           style="fill:#ffffff;fill-opacity:1;fill-rule:nonzero;stroke:none"
           d="M 75.625,71.125 H 103.96 V 83.271 H 75.625 Z m 29.585,-1.25 H 74.375 v 14.646 h 30.835 z" /><path
           id="path162"
           style="fill:#ffffff;fill-opacity:1;fill-rule:nonzero;stroke:none"
           d="m 93.484,84.835 h 7.323 v 2.105 h -7.323 z m 8.573,-1.25 h -9.823 v 4.605 h 9.823 z" /><path
           id="path164"
           style="fill:#ffffff;fill-opacity:1;fill-rule:nonzero;stroke:none"
           d="m 79.319,84.835 h 7.322 v 2.105 h -7.322 z m 8.572,-1.25 h -9.822 v 4.605 h 9.822 z" /><path
           id="path166"
           style="fill:#ffffff;fill-opacity:1;fill-rule:nonzero;stroke:none"
           d="m 63.358,84.835 h 7.322 v 2.105 h -7.322 z m 8.572,-1.25 h -9.822 v 4.605 h 9.822 z" /><path
           id="path168"
           style="fill:#ffffff;fill-opacity:1;fill-rule:nonzero;stroke:none"
           d="m 49.193,84.835 h 7.322 v 2.105 h -7.322 z m 8.572,-1.25 h -9.822 v 4.605 h 9.822 z" /><g
           transform="translate(59.4324,106.1436)"
           id="g170"><path
             id="path172"
             style="fill:#ffffff;fill-opacity:1;fill-rule:nonzero;stroke:none"
             d="M 0,0 5.152,-11.009 30.832,0.92 25.679,11.928 Z M 4.549,-12.667 -1.664,0.605 26.282,13.586 32.496,0.314 Z" /></g><g
           transform="translate(73.8416,113.8712)"
           id="g174"><path
             id="path176"
             style="fill:#ffffff;fill-opacity:1;fill-rule:nonzero;stroke:none"
             d="M 0,0 -1.689,3.608 7.213,7.744 8.901,4.138 7.769,3.608 6.609,6.086 -0.025,3.003 1.133,0.529 Z" /></g><g
           transform="translate(61.0027,107.9073)"
           id="g178"><path
             id="path180"
             style="fill:#ffffff;fill-opacity:1;fill-rule:nonzero;stroke:none"
             d="M 0,0 -1.689,3.609 7.214,7.744 8.902,4.139 7.77,3.609 6.61,6.086 -0.025,3.004 1.133,0.529 Z" /></g><g
           transform="translate(51.4803,93.5147)"
           id="g182"><path
             id="path184"
             style="fill:#ffffff;fill-opacity:1;fill-rule:nonzero;stroke:none"
             d="M 0,0 -6.368,3.501 -5.767,4.597 -0.49,1.695 2.422,6.949 3.516,6.344 Z" /></g><g
           transform="translate(73.5125,128.6915)"
           id="g186"><path
             id="path188"
             style="fill:#ffffff;fill-opacity:1;fill-rule:nonzero;stroke:none"
             d="M 0,0 -0.148,1.24 C 1.218,1.404 2.62,1.463 3.993,1.419 L 3.952,0.169 C 2.639,0.213 1.304,0.155 0,0 M 10.448,-0.88 C 9.184,-0.508 7.882,-0.229 6.581,-0.053 L 6.749,1.186 C 8.112,1.001 9.476,0.709 10.802,0.319 Z M -6.387,-1.596 -6.84,-0.43 c 0.407,0.158 0.82,0.307 1.24,0.447 0.892,0.297 1.809,0.552 2.726,0.757 l 0.273,-1.22 c -0.876,-0.196 -1.752,-0.439 -2.604,-0.723 -0.4,-0.134 -0.794,-0.275 -1.182,-0.427 m 22.865,-1.922 c -1.131,0.675 -2.323,1.269 -3.54,1.765 l 0.472,1.158 c 1.276,-0.52 2.523,-1.142 3.708,-1.848 z m -28.653,-1.207 -0.728,1.016 c 1.114,0.801 2.305,1.525 3.541,2.153 l 0.566,-1.113 c -1.179,-0.601 -2.315,-1.292 -3.379,-2.056 M 21.66,-7.572 c -0.927,0.935 -1.931,1.806 -2.988,2.591 l 0.746,1.003 c 1.105,-0.821 2.159,-1.735 3.131,-2.715 z m -38.645,-1.635 -0.961,0.799 c 0.88,1.059 1.85,2.06 2.884,2.976 l 0.829,-0.935 c -0.987,-0.874 -1.913,-1.829 -2.752,-2.84 m 42.635,-3.59 c -0.659,1.139 -1.411,2.235 -2.235,3.26 l 0.973,0.783 c 0.865,-1.073 1.654,-2.224 2.344,-3.418 z m -46.168,-1.96 -1.13,0.533 c 0.587,1.247 1.275,2.46 2.044,3.604 l 1.038,-0.697 c -0.735,-1.092 -1.391,-2.248 -1.952,-3.44 m 48.309,-2.78 c -0.271,0.809 -0.587,1.614 -0.937,2.391 l 1.14,0.514 c 0.366,-0.815 0.697,-1.659 0.983,-2.507 z m -50.339,-3.477 -1.228,0.231 c 0.255,1.352 0.617,2.699 1.076,4.003 l 1.179,-0.416 c -0.438,-1.243 -0.784,-2.529 -1.027,-3.818 m -1.63,-6.655 c -0.044,0.631 -0.066,1.261 -0.066,1.888 0,0.75 0.032,1.51 0.095,2.259 l 1.246,-0.106 c -0.061,-0.713 -0.091,-1.437 -0.091,-2.153 0,-0.598 0.02,-1.198 0.062,-1.8 z m 1.356,-6.762 c -0.441,1.312 -0.784,2.663 -1.021,4.017 l 1.231,0.215 c 0.226,-1.291 0.554,-2.581 0.975,-3.833 z" /></g></g></g></g></svg>