<?xml version="1.0" encoding="UTF-8" standalone="no"?>
<!DOCTYPE svg PUBLIC "-//W3C//DTD SVG 1.1//EN" "http://www.w3.org/Graphics/SVG/1.1/DTD/svg11.dtd">
<svg xmlns="http://www.w3.org/2000/svg" xmlns:xlink="http://www.w3.org/1999/xlink" version="1.1" width="150pt" height="150pt" viewBox="0 0 150 150">
<g enable-background="new">
<g id="Layer-1" data-name="03 Negative EN">
<path transform="matrix(1,0,0,-1,0,150)" d="M 0 50.073 L 149.95 50.073 L 149.95 150 L 0 150 Z " fill="#003366"/>
<path transform="matrix(1,0,0,-1,0,150)" d="M 0 .073 L 149.95 .073 L 149.95 50.073 L 0 50.073 Z " fill="#46bf68"/>
<path transform="matrix(1,0,0,-1,0,150)" d="M 42.713 33.381 L 40.926004 33.381 L 40.926004 42.881 L 42.713 42.881 Z " fill="#ffffff"/>
<clipPath id="cp0">
<path transform="matrix(1,0,0,-1,0,150)" d="M 0 150 L 150 150 L 150 0 L 0 0 Z "/>
</clipPath>
<g clip-path="url(#cp0)">
<path transform="matrix(1,0,0,-1,51.0808,116.619098)" d="M 0 0 L -2.283 0 L -5.061 7.74 C -4.978 6.888 -4.826 5.691 -4.826 3.945 L -4.826 0 L -6.421 0 L -6.421 9.5 L -4.166 9.5 L -1.361 1.76 C -1.444 2.296 -1.596 3.643 -1.596 4.99 L -1.596 9.5 L 0 9.5 Z " fill="#ffffff"/>
<path transform="matrix(1,0,0,-1,58.5105,108.5214)" d="M 0 0 L -2.186 0 L -2.186 -8.098 L -3.959 -8.098 L -3.959 0 L -6.241 0 L -6.241 1.402 L .193 1.402 Z " fill="#ffffff"/>
<path transform="matrix(1,0,0,-1,64.073,105.1259)" d="M 0 0 L -2.873 -1.141 L -3.313 -.261 L -.674 1.32 Z M .66 -3.313 L -2.434 -3.313 L -2.434 -6.008 L .275 -6.008 L .275 -7.314 L -2.434 -7.314 L -2.434 -10.16 L .881 -10.16 L .881 -11.493 L -4.221 -11.493 L -4.221 -1.993 L .853 -1.993 Z " fill="#ffffff"/>
<path transform="matrix(1,0,0,-1,72.5867,108.0263)" d="M 0 0 L -.922 -.949 C -1.512 -.468 -1.994 -.234 -2.723 -.234 C -3.932 -.234 -4.908 -1.114 -4.908 -3.836 C -4.908 -6.586 -4.248 -7.438 -2.97 -7.438 C -2.488 -7.438 -2.049 -7.314 -1.664 -7.081 L -1.664 -4.551 L -2.9 -4.551 L -3.08 -3.231 L .055 -3.231 L .055 -7.864 C -.797 -8.441 -1.855 -8.799 -2.941 -8.799 C -5.444 -8.799 -6.764 -7.19 -6.764 -3.836 C -6.764 -.509 -4.963 1.113 -2.777 1.113 C -1.581 1.113 -.742 .687 0 0 " fill="#ffffff"/>
<path transform="matrix(1,0,0,-1,76.9851,111.5185)" d="M 0 0 C 1.128 0 1.65 .495 1.65 1.608 C 1.65 2.64 1.128 3.093 -.109 3.093 L -.811 3.093 L -.811 0 Z M .166 -1.279 L -.811 -1.279 L -.811 -5.101 L -2.598 -5.101 L -2.598 4.399 L -.096 4.399 C 2.338 4.399 3.492 3.437 3.492 1.608 C 3.492 .412 2.943 -.481 1.788 -.949 L 4.002 -5.101 L 2.035 -5.101 Z " fill="#ffffff"/>
<path transform="matrix(1,0,0,-1,86.4402,113.0585)" d="M 0 0 L -1.072 4.578 L -2.145 0 Z M .303 -1.348 L -2.447 -1.348 L -2.969 -3.561 L -4.77 -3.561 L -2.131 5.939 L .041 5.939 L 2.668 -3.561 L .825 -3.561 Z " fill="#ffffff"/>
<path transform="matrix(1,0,0,-1,94.9412,108.5214)" d="M 0 0 L -2.187 0 L -2.187 -8.098 L -3.96 -8.098 L -3.96 0 L -6.241 0 L -6.241 1.402 L .192 1.402 Z " fill="#ffffff"/>
<path transform="matrix(1,0,0,-1,0,150)" d="M 98.07 33.381 L 96.283 33.381 L 96.283 42.881 L 98.07 42.881 Z " fill="#ffffff"/>
<path transform="matrix(1,0,0,-1,101.5222,111.8759)" d="M 0 0 C 0 -2.653 .715 -3.589 1.912 -3.589 C 3.162 -3.589 3.836 -2.653 3.836 .014 C 3.836 2.64 3.162 3.602 1.912 3.602 C .687 3.602 0 2.64 0 0 M 5.706 .014 C 5.706 -3.231 4.263 -4.949 1.912 -4.949 C -.412 -4.949 -1.869 -3.286 -1.869 0 C -1.869 3.23 -.412 4.963 1.912 4.963 C 4.249 4.963 5.706 3.313 5.706 .014 " fill="#ffffff"/>
<path transform="matrix(1,0,0,-1,115.2322,116.619098)" d="M 0 0 L -2.282 0 L -5.06 7.74 C -4.978 6.888 -4.825 5.691 -4.825 3.945 L -4.825 0 L -6.421 0 L -6.421 9.5 L -4.166 9.5 L -1.361 1.76 C -1.444 2.296 -1.595 3.643 -1.595 4.99 L -1.595 9.5 L 0 9.5 Z " fill="#ffffff"/>
<path transform="matrix(1,0,0,-1,45.8055,121.9394)" d="M 0 0 L -3.093 0 L -3.093 -2.694 L -.385 -2.694 L -.385 -4.001 L -3.093 -4.001 L -3.093 -6.847 L .221 -6.847 L .221 -8.18 L -4.88 -8.18 L -4.88 1.32 L .193 1.32 Z " fill="#ffffff"/>
<path transform="matrix(1,0,0,-1,53.2176,122.0214)" d="M 0 0 L -2.186 0 L -2.186 -8.098 L -3.96 -8.098 L -3.96 0 L -6.242 0 L -6.242 1.402 L .192 1.402 Z " fill="#ffffff"/>
<path transform="matrix(1,0,0,-1,63.6394,121.4032)" d="M 0 0 L -.88 -1.031 C -1.375 -.618 -1.869 -.385 -2.461 -.385 C -3.602 -.385 -4.469 -1.278 -4.469 -3.945 C -4.469 -6.53 -3.629 -7.492 -2.447 -7.492 C -1.719 -7.492 -1.224 -7.148 -.756 -6.764 L .096 -7.781 C -.467 -8.372 -1.348 -8.922 -2.529 -8.922 C -4.771 -8.922 -6.338 -7.272 -6.338 -3.945 C -6.338 -.659 -4.687 .99 -2.557 .99 C -1.457 .99 -.715 .619 0 0 " fill="#ffffff"/>
<path transform="matrix(1,0,0,-1,66.1482,125.3759)" d="M 0 0 C 0 -2.653 .715 -3.589 1.911 -3.589 C 3.162 -3.589 3.836 -2.653 3.836 .014 C 3.836 2.64 3.162 3.602 1.911 3.602 C .687 3.602 0 2.64 0 0 M 5.706 .014 C 5.706 -3.231 4.263 -4.949 1.911 -4.949 C -.412 -4.949 -1.87 -3.286 -1.87 0 C -1.87 3.23 -.412 4.963 1.911 4.963 C 4.249 4.963 5.706 3.313 5.706 .014 " fill="#ffffff"/>
<path transform="matrix(1,0,0,-1,78.0847,125.8573)" d="M 0 0 L -2.86 0 L -2.86 -4.262 L -4.647 -4.262 L -4.647 5.238 L -2.86 5.238 L -2.86 1.416 L 0 1.416 L 0 5.238 L 1.787 5.238 L 1.787 -4.262 L 0 -4.262 Z " fill="#ffffff"/>
<path transform="matrix(1,0,0,-1,86.0574,118.6259)" d="M 0 0 L -2.873 -1.141 L -3.313 -.261 L -.674 1.32 Z M .66 -3.313 L -2.434 -3.313 L -2.434 -6.008 L .275 -6.008 L .275 -7.314 L -2.434 -7.314 L -2.434 -10.16 L .881 -10.16 L .881 -11.493 L -4.221 -11.493 L -4.221 -1.993 L .853 -1.993 Z " fill="#ffffff"/>
<path transform="matrix(1,0,0,-1,94.115,121.582)" d="M 0 0 L -.853 -.976 C -1.457 -.439 -2.034 -.192 -2.722 -.192 C -3.506 -.192 -4.015 -.618 -4.015 -1.333 C -4.015 -2.021 -3.685 -2.364 -2.282 -2.859 C -.742 -3.423 .247 -4.11 .247 -5.829 C .247 -7.492 -.989 -8.743 -3.052 -8.743 C -4.468 -8.743 -5.458 -8.207 -6.2 -7.451 L -5.293 -6.447 C -4.647 -7.012 -3.987 -7.369 -3.12 -7.369 C -2.2 -7.369 -1.608 -6.833 -1.608 -5.925 C -1.608 -5.142 -1.952 -4.743 -3.259 -4.289 C -5.073 -3.643 -5.843 -2.832 -5.843 -1.457 C -5.843 .083 -4.578 1.169 -2.846 1.169 C -1.608 1.169 -.742 .757 0 0 " fill="#ffffff"/>
<path transform="matrix(1,0,0,-1,0,150)" d="M 97.545 19.881 L 95.757999 19.881 L 95.757999 29.381 L 97.545 29.381 Z " fill="#ffffff"/>
<path transform="matrix(1,0,0,-1,100.9969,125.3759)" d="M 0 0 C 0 -2.653 .715 -3.589 1.912 -3.589 C 3.162 -3.589 3.836 -2.653 3.836 .014 C 3.836 2.64 3.162 3.602 1.912 3.602 C .687 3.602 0 2.64 0 0 M 5.706 .014 C 5.706 -3.231 4.263 -4.949 1.912 -4.949 C -.412 -4.949 -1.869 -3.286 -1.869 0 C -1.869 3.23 -.412 4.963 1.912 4.963 C 4.249 4.963 5.706 3.313 5.706 .014 " fill="#ffffff"/>
<path transform="matrix(1,0,0,-1,114.7068,130.1191)" d="M 0 0 L -2.282 0 L -5.06 7.74 C -4.978 6.888 -4.825 5.691 -4.825 3.945 L -4.825 0 L -6.421 0 L -6.421 9.5 L -4.166 9.5 L -1.361 1.76 C -1.444 2.296 -1.595 3.643 -1.595 4.99 L -1.595 9.5 L 0 9.5 Z " fill="#ffffff"/>
<path transform="matrix(1,0,0,-1,46.3289,135.082)" d="M 0 0 L -.854 -.976 C -1.457 -.439 -2.035 -.192 -2.723 -.192 C -3.506 -.192 -4.015 -.618 -4.015 -1.333 C -4.015 -2.021 -3.686 -2.364 -2.283 -2.859 C -.742 -3.423 .247 -4.11 .247 -5.829 C .247 -7.492 -.99 -8.743 -3.053 -8.743 C -4.469 -8.743 -5.459 -8.207 -6.201 -7.451 L -5.293 -6.447 C -4.647 -7.012 -3.987 -7.369 -3.121 -7.369 C -2.2 -7.369 -1.609 -6.833 -1.609 -5.925 C -1.609 -5.142 -1.953 -4.743 -3.259 -4.289 C -5.073 -3.643 -5.844 -2.832 -5.844 -1.457 C -5.844 .083 -4.578 1.169 -2.846 1.169 C -1.609 1.169 -.742 .757 0 0 " fill="#ffffff"/>
<path transform="matrix(1,0,0,-1,49.4988,138.8759)" d="M 0 0 C 0 -2.653 .715 -3.589 1.91 -3.589 C 3.162 -3.589 3.836 -2.653 3.836 .014 C 3.836 2.64 3.162 3.602 1.91 3.602 C .687 3.602 0 2.64 0 0 M 5.705 .014 C 5.705 -3.231 4.262 -4.949 1.91 -4.949 C -.412 -4.949 -1.87 -3.286 -1.87 0 C -1.87 3.23 -.412 4.963 1.91 4.963 C 4.248 4.963 5.705 3.313 5.705 .014 " fill="#ffffff"/>
<path transform="matrix(1,0,0,-1,62.7303,134.9032)" d="M 0 0 L -.88 -1.031 C -1.374 -.618 -1.87 -.385 -2.461 -.385 C -3.603 -.385 -4.468 -1.278 -4.468 -3.945 C -4.468 -6.53 -3.63 -7.492 -2.447 -7.492 C -1.718 -7.492 -1.224 -7.148 -.756 -6.764 L .097 -7.781 C -.468 -8.372 -1.347 -8.922 -2.53 -8.922 C -4.771 -8.922 -6.338 -7.272 -6.338 -3.945 C -6.338 -.659 -4.688 .99 -2.558 .99 C -1.457 .99 -.715 .619 0 0 " fill="#ffffff"/>
<path transform="matrix(1,0,0,-1,0,150)" d="M 65.809 6.381 L 64.021999 6.381 L 64.021999 15.8810009 L 65.809 15.8810009 Z " fill="#ffffff"/>
<path transform="matrix(1,0,0,-1,71.6805,140.0585)" d="M 0 0 L -1.072 4.578 L -2.145 0 Z M .303 -1.348 L -2.447 -1.348 L -2.969 -3.561 L -4.77 -3.561 L -2.131 5.939 L .041 5.939 L 2.668 -3.561 L .825 -3.561 Z " fill="#ffffff"/>
<path transform="matrix(1,0,0,-1,77.243,142.162)" d="M 0 0 L 3.382 0 L 3.189 -1.457 L -1.787 -1.457 L -1.787 8.043 L 0 8.043 Z " fill="#ffffff"/>
<path transform="matrix(1,0,0,-1,86.7078,135.43939)" d="M 0 0 L -3.094 0 L -3.094 -2.694 L -.385 -2.694 L -.385 -4.001 L -3.094 -4.001 L -3.094 -6.847 L .221 -6.847 L .221 -8.18 L -4.881 -8.18 L -4.881 1.32 L .192 1.32 Z " fill="#ffffff"/>
<path transform="matrix(1,0,0,-1,17.4021,137.0595)" d="M 0 0 L -4.017 0 L -4.017 18.797 L -7.914 15.682 L -9.729 18.867 L -3.659 23.593 L 0 23.593 Z " fill="#ffffff"/>
<path transform="matrix(1,0,0,-1,26.7644,124.703)" d="M 0 0 C -1.042 0 -2.023 -.875 -2.827 -2.275 C -2.768 -7.456 -2.083 -9.346 -.238 -9.346 C 1.368 -9.346 2.143 -7.596 2.143 -4.376 C 2.172 -1.016 1.339 0 0 0 M 6.278 -4.306 C 6.278 -9.416 3.778 -12.917 -.238 -12.917 C -5.028 -12.917 -7.052 -8.506 -7.052 -1.505 C -7.052 6.546 -4.076 11.691 .773 11.691 C 2.47 11.691 3.809 11.096 4.85 10.186 L 3.362 7.245 C 2.589 7.806 1.814 8.155 .893 8.155 C -1.19 8.155 -2.56 5.74 -2.827 1.05 C -1.726 2.695 -.387 3.431 1.131 3.431 C 4.017 3.431 6.278 .7 6.278 -4.306 " fill="#ffffff"/>
<path transform="matrix(1,0,0,-1,96.7322,59.5468)" d="M 0 0 L -1.25 .008 L -1.132 19.369 L .118 19.361 Z " fill="#ffffff"/>
<path transform="matrix(1,0,0,-1,53.2908,59.665)" d="M 0 0 L -.141 19.479 L 1.109 19.488 L 1.25 .01 Z " fill="#ffffff"/>
<path transform="matrix(1,0,0,-1,0,150)" d="M 61.077 70.5 L 59.827 70.5 L 59.827 95.681 L 61.077 95.681 Z " fill="#ffffff"/>
<path transform="matrix(1,0,0,-1,0,150)" d="M 90.173 70.5 L 88.923 70.5 L 88.923 95.681 L 90.173 95.681 Z " fill="#ffffff"/>
<path transform="matrix(1,0,0,-1,0,150)" d="M 75.625 70.5 L 74.375 70.5 L 74.375 95.681 L 75.625 95.681 Z " fill="#ffffff"/>
<path transform="matrix(1,0,0,-1,0,150)" d="M 82.899 70.5 L 81.649 70.5 L 81.649 95.681 L 82.899 95.681 Z " fill="#ffffff"/>
<path transform="matrix(1,0,0,-1,0,150)" d="M 68.351 70.5 L 67.101 70.5 L 67.101 95.681 L 68.351 95.681 Z " fill="#ffffff"/>
<path transform="matrix(1,0,0,-1,0,150)" d="M 68.15 98.151 L 66.9 98.151 L 66.9 113.809 L 68.15 113.809 Z " fill="#ffffff"/>
<path transform="matrix(1,0,0,-1,0,150)" d="M 82.873 98.151 L 81.623 98.151 L 81.623 113.809 L 82.873 113.809 Z " fill="#ffffff"/>
<path transform="matrix(1,0,0,-1,57.6668,40.6659)" d="M 0 0 L 2.479 -4.275 L 4.958 0 Z M 2.479 -6.768 L -2.17 1.25 L 7.128 1.25 Z " fill="#ffffff"/>
<path transform="matrix(1,0,0,-1,74.8748,40.6659)" d="M 0 0 C -1.357 0 -2.462 -1.099 -2.462 -2.448 C -2.462 -3.798 -1.357 -4.896 0 -4.896 C 1.357 -4.896 2.461 -3.798 2.461 -2.448 C 2.461 -1.099 1.357 0 0 0 M 0 -6.146 C -2.047 -6.146 -3.712 -4.487 -3.712 -2.448 C -3.712 -.409 -2.047 1.25 0 1.25 C 2.046 1.25 3.711 -.409 3.711 -2.448 C 3.711 -4.487 2.046 -6.146 0 -6.146 " fill="#ffffff"/>
<path transform="matrix(1,0,0,-1,0,150)" d="M 86.754 104.438 L 91.676998 104.438 L 91.676998 109.334 L 86.754 109.334 Z M 92.927 103.188 L 85.504009 103.188 L 85.504009 110.584 L 92.927 110.584 Z " fill="#ffffff"/>
<path transform="matrix(1,0,0,-1,75.4685,21.124894)" d="M 0 0 C -2.281 0 -4.138 -1.847 -4.138 -4.117 C -4.138 -6.387 -2.281 -8.233 0 -8.233 C 2.281 -8.233 4.138 -6.387 4.138 -4.117 C 4.138 -1.847 2.281 0 0 0 M 0 -9.483 C -2.971 -9.483 -5.388 -7.076 -5.388 -4.117 C -5.388 -1.157 -2.971 1.25 0 1.25 C 2.971 1.25 5.388 -1.157 5.388 -4.117 C 5.388 -7.076 2.971 -9.483 0 -9.483 " fill="#ffffff"/>
<path transform="matrix(1,0,0,-1,61.5701,21.124894)" d="M 0 0 C -2.281 0 -4.138 -1.847 -4.138 -4.117 C -4.138 -6.387 -2.281 -8.233 0 -8.233 C 2.282 -8.233 4.139 -6.387 4.139 -4.117 C 4.139 -1.847 2.282 0 0 0 M 0 -9.483 C -2.971 -9.483 -5.388 -7.076 -5.388 -4.117 C -5.388 -1.157 -2.971 1.25 0 1.25 C 2.972 1.25 5.389 -1.157 5.389 -4.117 C 5.389 -7.076 2.972 -9.483 0 -9.483 " fill="#ffffff"/>
<path transform="matrix(1,0,0,-1,89.367,21.124894)" d="M 0 0 C -2.281 0 -4.138 -1.847 -4.138 -4.117 C -4.138 -6.387 -2.281 -8.233 0 -8.233 C 2.282 -8.233 4.139 -6.387 4.139 -4.117 C 4.139 -1.847 2.282 0 0 0 M 0 -9.483 C -2.971 -9.483 -5.388 -7.076 -5.388 -4.117 C -5.388 -1.157 -2.971 1.25 0 1.25 C 2.972 1.25 5.389 -1.157 5.389 -4.117 C 5.389 -7.076 2.972 -9.483 0 -9.483 " fill="#ffffff"/>
<path transform="matrix(1,0,0,-1,53.3367,32.3935)" d="M 0 0 C -.592 0 -1.138 -.208 -1.516 -.63 C -1.851 -1.004 -2.01 -1.496 -1.978 -2.054 C -1.934 -2.811 -1.54 -3.571 -.898 -4.141 C .261 -5.167 1.865 -5.258 2.684 -4.344 C 3.018 -3.97 3.178 -3.478 3.146 -2.92 C 3.102 -2.163 2.708 -1.403 2.066 -.834 L 2.065 -.834 C 1.443 -.281 .69 0 0 0 M 1.166 -6.218 C .177 -6.218 -.871 -5.836 -1.728 -5.076 C -2.616 -4.288 -3.162 -3.213 -3.226 -2.127 C -3.277 -1.242 -3.001 -.415 -2.447 .204 C -1.173 1.629 1.226 1.583 2.896 .102 C 3.784 -.687 4.33 -1.762 4.394 -2.848 C 4.444 -3.731 4.168 -4.559 3.615 -5.178 C 2.994 -5.872 2.106 -6.218 1.166 -6.218 " fill="#ffffff"/>
<path transform="matrix(1,0,0,-1,50.9344,36.719705)" d="M 0 0 C -.719 -.93 -1.107 -2.057 -1.107 -3.244 L -1.107 -17.687 C -1.107 -18.629 -.337 -19.396 .61 -19.396 C 2.193 -19.396 3.496 -20.63 3.575 -22.205 L 4.496 -40.533 C 4.541 -41.443 5.295 -42.155 6.212 -42.155 L 41.919 -42.155 C 42.836 -42.155 43.59 -41.442 43.636 -40.533 L 44.556 -22.205 C 44.635 -20.63 45.938 -19.396 47.521 -19.396 C 48.468 -19.396 49.238 -18.629 49.238 -17.687 L 49.238 -3.244 C 49.238 -2.059 48.852 -.935 48.136 -.006 C 47.941 -.277 47.717 -.526 47.466 -.749 C 45.794 -2.231 43.398 -2.278 42.123 -.851 C 41.418 -.063 41.184 1.018 41.444 2.114 L 6.695 2.114 C 6.956 1.019 6.722 -.063 6.018 -.851 C 4.743 -2.278 2.346 -2.232 .675 -.75 C .422 -.525 .196 -.274 0 0 M 41.919 -43.405 L 6.212 -43.405 C 4.628 -43.405 3.326 -42.171 3.248 -40.596 L 2.327 -22.268 C 2.281 -21.358 1.527 -20.646 .61 -20.646 C -1.026 -20.646 -2.357 -19.318 -2.357 -17.687 L -2.357 -3.244 C -2.357 -1.441 -1.635 .246 -.321 1.507 L .317 2.12 L .682 1.312 C .879 .874 1.155 .495 1.505 .186 C 2.662 -.841 4.268 -.932 5.086 -.018 C 5.637 .598 5.698 1.549 5.247 2.463 L 4.803 3.364 L 43.337 3.364 L 42.893 2.463 C 42.441 1.549 42.504 .598 43.055 -.018 C 43.869 -.932 45.479 -.841 46.636 .186 C 46.983 .494 47.26 .872 47.455 1.308 L 47.819 2.116 L 48.459 1.501 C 49.768 .241 50.488 -1.444 50.488 -3.244 L 50.488 -17.687 C 50.488 -19.318 49.157 -20.646 47.521 -20.646 C 46.604 -20.646 45.85 -21.358 45.804 -22.268 L 44.884 -40.596 C 44.805 -42.171 43.502 -43.405 41.919 -43.405 " fill="#ffffff"/>
<path transform="matrix(1,0,0,-1,96.6717,32.3935)" d="M 0 0 C -.69 0 -1.443 -.282 -2.065 -.834 C -2.708 -1.403 -3.102 -2.163 -3.146 -2.92 C -3.178 -3.478 -3.018 -3.97 -2.683 -4.344 C -1.868 -5.258 -.26 -5.167 .899 -4.141 C 1.541 -3.571 1.934 -2.811 1.978 -2.054 C 2.01 -1.496 1.851 -1.004 1.516 -.63 C 1.138 -.208 .592 0 0 0 M -1.165 -6.218 C -2.105 -6.218 -2.993 -5.872 -3.614 -5.177 C -4.168 -4.56 -4.444 -3.731 -4.393 -2.848 C -4.33 -1.762 -3.784 -.687 -2.895 .102 C -1.225 1.583 1.172 1.63 2.447 .204 C 3.001 -.415 3.277 -1.242 3.226 -2.126 C 3.163 -3.213 2.617 -4.288 1.729 -5.076 C .871 -5.836 -.177 -6.218 -1.165 -6.218 " fill="#ffffff"/>
</g>
</g>
</g>
</svg>
