<?xml version="1.0" encoding="UTF-8" standalone="no"?>
<svg
   xmlns:dc="http://purl.org/dc/elements/1.1/"
   xmlns:cc="http://creativecommons.org/ns#"
   xmlns:rdf="http://www.w3.org/1999/02/22-rdf-syntax-ns#"
   xmlns:svg="http://www.w3.org/2000/svg"
   xmlns="http://www.w3.org/2000/svg"
   viewBox="0 0 200 200"
   height="200"
   width="200"
   xml:space="preserve"
   id="svg2"
   version="1.1"><metadata
     id="metadata8"><rdf:RDF><cc:Work
         rdf:about=""><dc:format>image/svg+xml</dc:format><dc:type
           rdf:resource="http://purl.org/dc/dcmitype/StillImage" /></cc:Work></rdf:RDF></metadata><defs
     id="defs6"><clipPath
       id="clipPath26"
       clipPathUnits="userSpaceOnUse"><path
         id="path24"
         d="M 0,150 H 150 V 0 H 0 Z" /></clipPath></defs><g
     transform="matrix(1.3333333,0,0,-1.3333333,0,200)"
     id="g10"><path
       id="path12"
       style="fill:#003366;fill-opacity:1;fill-rule:nonzero;stroke:none"
       d="M 0,50.073 H 149.95 V 150 H 0 Z" /><path
       id="path14"
       style="fill:#0d92c8;fill-opacity:1;fill-rule:nonzero;stroke:none"
       d="M 0.117,0 H 150 V 49.999 H 0.117 Z" /><g
       transform="translate(46.3601,34.5484)"
       id="g16"><path
         id="path18"
         style="fill:#ffffff;fill-opacity:1;fill-rule:nonzero;stroke:none"
         d="M 0,0 H -3.375 V -2.94 H -0.42 V -4.365 H -3.375 V -7.47 H 0.239 V -8.925 H -5.325 V 1.439 H 0.21 Z" /></g><g
       id="g20"><g
         clip-path="url(#clipPath26)"
         id="g22"><g
           transform="translate(55.0115,25.6236)"
           id="g28"><path
             id="path30"
             style="fill:#ffffff;fill-opacity:1;fill-rule:nonzero;stroke:none"
             d="M 0,0 H -2.489 L -5.52,8.444 C -5.43,7.515 -5.265,6.21 -5.265,4.305 V 0 h -1.739 v 10.364 h 2.459 L -1.484,1.92 c -0.09,0.585 -0.255,2.055 -0.255,3.524 v 4.92 H 0 Z" /></g><g
           transform="translate(61.2137,25.6236)"
           id="g32"><path
             id="path34"
             style="fill:#ffffff;fill-opacity:1;fill-rule:nonzero;stroke:none"
             d="m 0,0 h -2.354 l -2.791,10.364 h 2.01 L -1.14,1.71 0.766,10.364 h 1.949 z" /></g><g
           transform="translate(66.3133,30.7984)"
           id="g36"><path
             id="path38"
             style="fill:#ffffff;fill-opacity:1;fill-rule:nonzero;stroke:none"
             d="m 0,0 c 0,-2.896 0.779,-3.915 2.085,-3.915 1.364,0 2.1,1.019 2.1,3.93 0,2.865 -0.736,3.915 -2.1,3.915 C 0.75,3.93 0,2.88 0,0 m 6.225,0.015 c 0,-3.54 -1.576,-5.415 -4.14,-5.415 -2.535,0 -4.125,1.815 -4.125,5.4 0,3.524 1.59,5.414 4.125,5.414 2.55,0 4.14,-1.8 4.14,-5.399" /></g><path
           id="path40"
           style="fill:#ffffff;fill-opacity:1;fill-rule:nonzero;stroke:none"
           d="M 76.05,25.624 H 74.1 v 10.364 h 1.95 z" /><g
           transform="translate(83.9539,34.938)"
           id="g42"><path
             id="path44"
             style="fill:#ffffff;fill-opacity:1;fill-rule:nonzero;stroke:none"
             d="m 0,0 -0.93,-1.065 c -0.66,0.585 -1.29,0.855 -2.04,0.855 -0.854,0 -1.41,-0.465 -1.41,-1.245 0,-0.75 0.36,-1.125 1.891,-1.665 1.679,-0.615 2.76,-1.365 2.76,-3.239 0,-1.816 -1.351,-3.181 -3.601,-3.181 -1.545,0 -2.624,0.585 -3.435,1.41 l 0.991,1.095 c 0.705,-0.614 1.424,-1.005 2.37,-1.005 1.005,0 1.649,0.585 1.649,1.575 0,0.856 -0.375,1.29 -1.8,1.785 -1.979,0.705 -2.819,1.59 -2.819,3.09 0,1.68 1.38,2.864 3.27,2.864 C -1.755,1.274 -0.81,0.825 0,0" /></g><g
           transform="translate(42.9851,22.0493)"
           id="g46"><path
             id="path48"
             style="fill:#ffffff;fill-opacity:1;fill-rule:nonzero;stroke:none"
             d="m 0,0 v -7.454 h 0.825 c 1.35,0 2.43,0.675 2.43,3.779 C 3.255,-0.51 2.114,0 0.779,0 Z m 5.265,-3.675 c 0,-4.229 -2.281,-5.234 -4.576,-5.234 H -1.95 V 1.455 h 2.429 c 2.46,0 4.786,-0.78 4.786,-5.13" /></g><g
           transform="translate(55.1199,22.065)"
           id="g50"><path
             id="path52"
             style="fill:#ffffff;fill-opacity:1;fill-rule:nonzero;stroke:none"
             d="M 0,0 H -3.375 V -2.94 H -0.42 V -4.365 H -3.375 V -7.47 H 0.239 V -8.925 H -5.325 V 1.439 H 0.21 Z" /></g><g
           transform="translate(60.2498,23.5044)"
           id="g54"><path
             id="path56"
             style="fill:#ffffff;fill-opacity:1;fill-rule:nonzero;stroke:none"
             d="M 0,0 H 5.399 L 5.189,-1.439 H 1.95 V -4.59 H 4.77 V -6.029 H 1.95 v -4.335 H 0 Z" /></g><g
           transform="translate(68.3035,18.315)"
           id="g58"><path
             id="path60"
             style="fill:#ffffff;fill-opacity:1;fill-rule:nonzero;stroke:none"
             d="m 0,0 c 0,-2.896 0.779,-3.915 2.085,-3.915 1.364,0 2.1,1.019 2.1,3.93 0,2.865 -0.736,3.915 -2.1,3.915 C 0.75,3.93 0,2.88 0,0 m 6.225,0.015 c 0,-3.54 -1.576,-5.415 -4.14,-5.415 -2.535,0 -4.125,1.815 -4.125,5.4 0,3.524 1.59,5.414 4.125,5.414 2.55,0 4.14,-1.8 4.14,-5.399" /></g><g
           transform="translate(83.1013,13.1402)"
           id="g62"><path
             id="path64"
             style="fill:#ffffff;fill-opacity:1;fill-rule:nonzero;stroke:none"
             d="M 0,0 H -2.489 L -5.52,8.444 C -5.43,7.515 -5.265,6.21 -5.265,4.305 V 0 h -1.739 v 10.364 h 2.459 L -1.484,1.92 c -0.09,0.585 -0.255,2.055 -0.255,3.524 v 4.92 H 0 Z" /></g><g
           transform="translate(87.0379,22.0493)"
           id="g66"><path
             id="path68"
             style="fill:#ffffff;fill-opacity:1;fill-rule:nonzero;stroke:none"
             d="m 0,0 v -7.454 h 0.825 c 1.35,0 2.43,0.675 2.43,3.779 C 3.255,-0.51 2.114,0 0.779,0 Z m 5.265,-3.675 c 0,-4.229 -2.281,-5.234 -4.576,-5.234 H -1.95 V 1.455 h 2.429 c 2.46,0 4.786,-0.78 4.786,-5.13" /></g><g
           transform="translate(99.7185,22.4546)"
           id="g70"><path
             id="path72"
             style="fill:#ffffff;fill-opacity:1;fill-rule:nonzero;stroke:none"
             d="m 0,0 -0.93,-1.065 c -0.66,0.585 -1.29,0.855 -2.04,0.855 -0.854,0 -1.41,-0.465 -1.41,-1.245 0,-0.75 0.36,-1.125 1.891,-1.665 1.679,-0.615 2.76,-1.365 2.76,-3.239 0,-1.816 -1.351,-3.181 -3.601,-3.181 -1.545,0 -2.624,0.585 -3.435,1.41 l 0.991,1.095 c 0.705,-0.614 1.424,-1.005 2.37,-1.005 1.005,0 1.649,0.585 1.649,1.575 0,0.856 -0.375,1.29 -1.8,1.785 -1.979,0.705 -2.819,1.59 -2.819,3.09 0,1.68 1.38,2.864 3.27,2.864 C -1.755,1.274 -0.81,0.825 0,0" /></g><g
           transform="translate(18.7498,30.4429)"
           id="g74"><path
             id="path76"
             style="fill:#ffffff;fill-opacity:1;fill-rule:nonzero;stroke:none"
             d="m 0,0 c 0,-3.851 -1.547,-6.65 -7.23,-13.722 h 7.617 l -0.447,-3.78 h -11.693 v 3.535 c 6.1,8.051 7.498,10.362 7.498,13.582 0,2.031 -0.923,3.151 -2.35,3.151 -1.339,0 -2.203,-0.771 -3.303,-2.381 l -2.47,2.24 c 1.487,2.45 3.511,3.921 6.159,3.921 C -2.202,6.546 0,3.605 0,0" /></g><g
           transform="translate(24.2879,24.7027)"
           id="g78"><path
             id="path80"
             style="fill:#ffffff;fill-opacity:1;fill-rule:nonzero;stroke:none"
             d="m 0,0 c 0,-6.756 0.773,-8.682 2.56,-8.682 1.785,0 2.528,1.856 2.528,8.682 0,6.825 -0.743,8.646 -2.528,8.646 C 0.773,8.646 0,6.721 0,0 m 9.343,0 c 0,-8.191 -2.38,-12.322 -6.783,-12.322 -4.434,0 -6.785,4.131 -6.785,12.322 0,8.19 2.351,12.286 6.785,12.286 C 6.963,12.286 9.343,8.12 9.343,0" /></g><g
           transform="translate(98.3924,107.9165)"
           id="g82"><path
             id="path84"
             style="fill:#ffffff;fill-opacity:1;fill-rule:nonzero;stroke:none"
             d="m 0,0 h -1.25 c 0,11.557 -9.438,20.958 -21.037,20.958 -11.6,0 -21.037,-9.401 -21.037,-20.958 h -1.25 c 0,12.245 9.998,22.208 22.287,22.208 C -9.998,22.208 0,12.245 0,0" /></g><g
           transform="translate(76.1053,116.7886)"
           id="g86"><path
             id="path88"
             style="fill:#ffffff;fill-opacity:1;fill-rule:nonzero;stroke:none"
             d="m 0,0 c -6.03,0 -11.672,1.387 -15.885,3.904 l 0.641,1.073 C -11.222,2.573 -5.808,1.25 0,1.25 c 5.882,0 11.344,1.353 15.379,3.809 L 16.029,3.99 C 11.8,1.417 6.107,0 0,0" /></g><g
           transform="translate(64.8367,107.9077)"
           id="g90"><path
             id="path92"
             style="fill:#ffffff;fill-opacity:1;fill-rule:nonzero;stroke:none"
             d="m 0,0 -1.25,0.041 c 0.353,10.917 5.058,19.66 11.188,20.788 l 0.226,-1.228 C 4.697,18.594 0.328,10.168 0,0" /></g><g
           transform="translate(87.3943,107.9077)"
           id="g94"><path
             id="path96"
             style="fill:#ffffff;fill-opacity:1;fill-rule:nonzero;stroke:none"
             d="m 0,0 c -0.327,10.168 -4.696,18.594 -10.163,19.601 l 0.226,1.228 C -3.807,19.701 0.898,10.958 1.25,0.041 Z" /></g><path
           id="path98"
           style="fill:#ffffff;fill-opacity:1;fill-rule:nonzero;stroke:none"
           d="m 76.73,118.413 h -1.25 v 10.045 h 1.25 z" /><path
           id="path100"
           style="fill:#ffffff;fill-opacity:1;fill-rule:nonzero;stroke:none"
           d="m 76.73,107.928 h -1.25 v 7.92 h 1.25 z" /><g
           transform="translate(77.9607,82.8394)"
           id="g102"><path
             id="path104"
             style="fill:#ffffff;fill-opacity:1;fill-rule:nonzero;stroke:none"
             d="m 0,0 h -10.993 l -0.121,0.469 c -0.523,2.023 -2.111,3.604 -4.142,4.127 l -0.47,0.121 v 16.641 h 1.25 V 5.668 c 2.092,-0.695 3.736,-2.334 4.434,-4.418 h 9.091 c 0.698,2.084 2.342,3.723 4.433,4.418 v 15.69 h 1.25 V 4.717 L 4.263,4.596 C 2.231,4.073 0.644,2.492 0.121,0.469 Z" /></g><g
           transform="translate(72.4646,96.6616)"
           id="g106"><path
             id="path108"
             style="fill:#ffffff;fill-opacity:1;fill-rule:nonzero;stroke:none"
             d="m 0,0 c -4.17,0 -7.562,3.381 -7.562,7.536 h 1.25 C -6.312,4.07 -3.48,1.25 0,1.25 c 3.479,0 6.311,2.82 6.311,6.286 h 1.25 C 7.561,3.381 4.169,0 0,0" /></g><g
           transform="translate(72.5926,92.4419)"
           id="g110"><path
             id="path112"
             style="fill:#ffffff;fill-opacity:1;fill-rule:nonzero;stroke:none"
             d="m 0,0 c -1.084,0 -1.966,-0.878 -1.966,-1.956 0,-1.078 0.882,-1.956 1.966,-1.956 1.084,0 1.966,0.878 1.966,1.956 C 1.966,-0.878 1.084,0 0,0 m 0,-5.162 c -1.773,0 -3.216,1.438 -3.216,3.206 0,1.768 1.443,3.206 3.216,3.206 1.773,0 3.216,-1.438 3.216,-3.206 0,-1.768 -1.443,-3.206 -3.216,-3.206" /></g><g
           transform="translate(100.5359,97.7886)"
           id="g114"><path
             id="path116"
             style="fill:#ffffff;fill-opacity:1;fill-rule:nonzero;stroke:none"
             d="M 0,0 H -1.25 V 7.814 H -49.822 V 0 h -1.25 V 9.064 H 0 Z" /></g><g
           transform="translate(86.2547,79.2915)"
           id="g118"><path
             id="path120"
             style="fill:#ffffff;fill-opacity:1;fill-rule:nonzero;stroke:none"
             d="m 0,0 h -27.581 v 24.906 h 1.25 V 1.25 H -1.25 V 24.906 H 0 Z" /></g><g
           transform="translate(91.3689,74.2378)"
           id="g122"><path
             id="path124"
             style="fill:#ffffff;fill-opacity:1;fill-rule:nonzero;stroke:none"
             d="M 0,0 H -29.328 V 1.25 H -1.25 V 29.96 H 0 Z" /></g><g
           transform="translate(95.7478,69.8745)"
           id="g126"><path
             id="path128"
             style="fill:#ffffff;fill-opacity:1;fill-rule:nonzero;stroke:none"
             d="M 0,0 H -29.328 V 1.25 H -1.25 V 34.323 H 0 Z" /></g></g></g></g></svg>