<?xml version="1.0" encoding="utf-8"?>
<!-- Generator: Adobe Illustrator 25.0.1, SVG Export Plug-In . SVG Version: 6.00 Build 0)  -->
<svg version="1.1" id="_x30_3_Negative_EN" xmlns="http://www.w3.org/2000/svg" xmlns:xlink="http://www.w3.org/1999/xlink" x="0px"
	 y="0px" viewBox="0 0 150 150" style="enable-background:new 0 0 150 150;" xml:space="preserve">
<style type="text/css">
	.st0{fill:#003366;}
	.st1{fill:#FD9D24;}
	.st2{fill:#FFFFFF;}
</style>
<g id="Elements_2_">
	<g id="Bckgd_14_">
		<rect id="Bckgd_15_" x="-0.1" y="-0.1" class="st0" width="150" height="100"/>
	</g>
	<g id="Color_6_">
		<rect id="GCM_x5F_Color_9_" x="-0.1" y="99.9" class="st1" width="150" height="50"/>
	</g>
	<g id="Number_6_">
		<g>
			<g>
				<path class="st2" d="M27.2,122.2c0,9.7-3.5,13.6-11.2,15.8l-0.8-3.5c4.6-1.5,7-3.5,7.6-8c-0.9,1.4-2.1,2.2-3.7,2.2
					c-2.8,0-5.2-2.9-5.2-7.7c0-5.1,2.9-8.1,6.7-8.1C24.9,113,27.2,116.6,27.2,122.2z M22.9,123.1c0.1-5-0.6-6.6-2.5-6.6
					c-1.5,0-2.5,1.3-2.5,4.4c0,3.2,1,4.4,2.3,4.4C21.3,125.3,22.2,124.5,22.9,123.1z"/>
			</g>
		</g>
	</g>
	<g>
		<g>
			<path class="st2" d="M46.8,108.4l-0.9,1c-0.5-0.4-1-0.6-1.6-0.6c-1.1,0-2,0.9-2,3.6c0,2.6,0.8,3.5,2,3.5c0.7,0,1.2-0.3,1.7-0.7
				l0.8,1c-0.6,0.6-1.4,1.1-2.6,1.1c-2.2,0-3.8-1.6-3.8-5c0-3.3,1.6-4.9,3.7-4.9C45.3,107.4,46.1,107.7,46.8,108.4z"/>
			<path class="st2" d="M54.4,112.3c0,3.2-1.4,5-3.8,5c-2.3,0-3.7-1.7-3.7-4.9c0-3.2,1.4-5,3.7-5C53,107.4,54.4,109,54.4,112.3z
				 M48.8,112.3c0,2.7,0.7,3.6,1.9,3.6c1.2,0,1.9-0.9,1.9-3.6c0-2.6-0.7-3.6-1.9-3.6C49.5,108.7,48.8,109.7,48.8,112.3z"/>
			<path class="st2" d="M63.7,117.1H62l-0.2-4c-0.1-1.4-0.1-2.9-0.1-3.9l-1.5,6.8h-1.6l-1.6-6.8c0,1.3,0,2.6,0,3.9l-0.2,3.9h-1.7
				l0.7-9.5H58l1.4,6.7l1.3-6.7h2.3L63.7,117.1z"/>
			<path class="st2" d="M71.1,114.3c0,2-1.5,2.7-3.6,2.7h-2.6v-9.5h2.2c2.3,0,3.6,0.8,3.6,2.4c0,1.2-0.8,1.8-1.7,2
				C70.1,112.3,71.1,112.8,71.1,114.3z M66.7,108.9v2.6h0.8c1,0,1.5-0.5,1.5-1.3c0-0.9-0.5-1.3-1.7-1.3H66.7z M69.3,114.3
				c0-1.1-0.6-1.5-1.7-1.5h-0.9v3h0.8C68.6,115.7,69.3,115.4,69.3,114.3z"/>
			<path class="st2" d="M76.2,114.9h-2.7l-0.5,2.2h-1.8l2.6-9.5h2.2l2.6,9.5h-1.8L76.2,114.9z M75.9,113.5l-1.1-4.6l-1.1,4.6H75.9z"
				/>
			<path class="st2" d="M83.8,109h-2.2v8.1h-1.8V109h-2.3v-1.4H84L83.8,109z"/>
			<path class="st2" d="M90.5,109h-2.2v8.1h-1.8V109h-2.3v-1.4h6.4L90.5,109z"/>
			<path class="st2" d="M94,113.2h-1v3.8h-1.8v-9.5h2.5c2.4,0,3.6,1,3.6,2.8c0,1.2-0.5,2.1-1.7,2.6l2.2,4.2h-1.9L94,113.2z
				 M93.9,112c1.1,0,1.6-0.5,1.6-1.6c0-1-0.5-1.5-1.7-1.5h-0.7v3.1H93.9z"/>
			<path class="st2" d="M103.4,108.9h-3.1v2.7h2.7v1.3h-2.7v2.8h3.3v1.3h-5v-9.5h5L103.4,108.9z"/>
			<path class="st2" d="M42.7,128.1H46l-0.2,1.5h-4.9v-9.5h1.8V128.1z"/>
			<path class="st2" d="M51.6,121.4h-3.1v2.7h2.7v1.3h-2.7v2.8h3.3v1.3h-5.1v-9.5h5L51.6,121.4z"/>
			<path class="st2" d="M60.9,121.5h-2.2v8.1H57v-8.1h-2.3v-1.4h6.4L60.9,121.5z"/>
			<path class="st2" d="M64.5,125.7h-1v3.8h-1.8v-9.5h2.5c2.4,0,3.6,1,3.6,2.8c0,1.2-0.5,2.1-1.7,2.6l2.2,4.2h-1.9L64.5,125.7z
				 M64.3,124.5c1.1,0,1.6-0.5,1.6-1.6c0-1-0.5-1.5-1.7-1.5h-0.7v3.1H64.3z"/>
			<path class="st2" d="M73.5,127.4h-2.7l-0.5,2.2h-1.8l2.6-9.5h2.2l2.6,9.5H74L73.5,127.4z M73.2,126l-1.1-4.6l-1.1,4.6H73.2z"/>
			<path class="st2" d="M76.5,120.1h4.9l-0.2,1.3h-2.9v2.9h2.6v1.3h-2.6v4h-1.8V120.1z"/>
			<path class="st2" d="M83.9,129.6h-1.8v-9.5h1.8V129.6z"/>
			<path class="st2" d="M91.2,120.9l-0.9,1c-0.5-0.4-1-0.6-1.6-0.6c-1.1,0-2,0.9-2,3.6c0,2.6,0.8,3.5,2,3.5c0.7,0,1.2-0.3,1.7-0.7
				l0.8,1c-0.6,0.6-1.4,1.1-2.6,1.1c-2.2,0-3.8-1.6-3.8-5c0-3.3,1.6-4.9,3.7-4.9C89.8,119.9,90.5,120.2,91.2,120.9z"/>
			<path class="st2" d="M47.5,137.3c0,3.9-2.1,4.8-4.2,4.8h-2.4v-9.5h2.2C45.4,132.6,47.5,133.3,47.5,137.3z M42.7,133.9v6.8h0.7
				c1.2,0,2.2-0.6,2.2-3.5c0-2.9-1-3.4-2.2-3.4H42.7z"/>
			<path class="st2" d="M53.4,133.9h-3.1v2.7H53v1.3h-2.7v2.8h3.3v1.3h-5.1v-9.5h5L53.4,133.9z"/>
			<path class="st2" d="M65.6,142.1h-1.7l-0.2-4c-0.1-1.4-0.1-2.9-0.1-3.9l-1.5,6.8h-1.6l-1.6-6.8c0,1.3,0,2.6,0,3.9l-0.2,3.9H57
				l0.7-9.5h2.2l1.4,6.7l1.3-6.7h2.3L65.6,142.1z"/>
			<path class="st2" d="M68.5,142.1h-1.8v-9.5h1.8V142.1z"/>
			<path class="st2" d="M76.3,133.5l-0.9,0.9c-0.6-0.5-1.1-0.7-1.8-0.7c-1.2,0-2.2,0.9-2.2,3.6c0,2.8,0.7,3.6,1.9,3.6
				c0.5,0,0.9-0.1,1.3-0.4V138h-1.2l-0.2-1.3h3.1v4.6c-0.8,0.6-1.9,0.9-3,0.9c-2.5,0-3.8-1.6-3.8-5c0-3.3,1.8-4.9,3.9-4.9
				C74.7,132.4,75.6,132.8,76.3,133.5z"/>
			<path class="st2" d="M80.3,138.2h-1v3.8h-1.8v-9.5h2.5c2.4,0,3.6,1,3.6,2.8c0,1.2-0.5,2.1-1.7,2.6l2.2,4.2h-1.9L80.3,138.2z
				 M80.2,137c1.1,0,1.6-0.5,1.6-1.6c0-1-0.5-1.5-1.7-1.5h-0.7v3.1H80.2z"/>
			<path class="st2" d="M89.4,139.9h-2.7l-0.5,2.2h-1.8l2.6-9.5h2.2l2.6,9.5h-1.8L89.4,139.9z M89.1,138.5l-1.1-4.6l-1.1,4.6H89.1z"
				/>
			<path class="st2" d="M98.7,142.1h-2.3l-2.7-7.7c0.1,0.9,0.2,2,0.2,3.8v3.9h-1.6v-9.5h2.2l2.8,7.7c-0.1-0.5-0.2-1.9-0.2-3.2v-4.5
				h1.6V142.1z"/>
			<path class="st2" d="M105.6,134h-2.2v8.1h-1.8V134h-2.3v-1.4h6.4L105.6,134z"/>
			<path class="st2" d="M111.8,133.5l-0.8,1c-0.6-0.5-1.2-0.8-1.9-0.8c-0.8,0-1.3,0.4-1.3,1.1c0,0.7,0.3,1,1.7,1.5
				c1.5,0.6,2.5,1.3,2.5,3c0,1.7-1.2,2.9-3.3,2.9c-1.4,0-2.4-0.5-3.1-1.3l0.9-1c0.6,0.6,1.3,0.9,2.2,0.9c0.9,0,1.5-0.5,1.5-1.4
				c0-0.8-0.3-1.2-1.6-1.6c-1.8-0.6-2.6-1.5-2.6-2.8c0-1.5,1.3-2.6,3-2.6C110.2,132.4,111.1,132.8,111.8,133.5z"/>
		</g>
	</g>
</g>
<g id="Icon_2_">
	<g>
		<path class="st2" d="M88.8,69.6H63.2c-0.3,0-0.6-0.3-0.6-0.6c-0.3-4.9-4.4-8.7-9.3-8.7c-4.9,0-9,3.8-9.3,8.7
			c0,0.3-0.3,0.6-0.6,0.6h-6.5c-0.3,0-0.6-0.3-0.6-0.6V20.5c0-0.3,0.3-0.6,0.6-0.6h51.9c0.3,0,0.6,0.3,0.6,0.6V69
			C89.5,69.4,89.2,69.6,88.8,69.6z M63.7,68.4h24.5V21.1H37.5v47.3h5.3c0.6-5.2,5.1-9.3,10.5-9.3S63.1,63.2,63.7,68.4z"/>
		<path class="st2" d="M113.1,69.6h-4.3c-0.3,0-0.6-0.3-0.6-0.6c-0.3-4.9-4.4-8.7-9.3-8.7c-4.7,0-8.7,3.5-9.2,8.2
			c0,0.3-0.3,0.6-0.7,0.6c-0.3,0-0.6-0.3-0.6-0.6V32.4c0-0.3,0.3-0.6,0.6-0.6h17.1c0.2,0,0.5,0.1,0.6,0.4l7,15.8
			c0,0.1,0.1,0.2,0.1,0.3V69C113.7,69.4,113.4,69.6,113.1,69.6z M109.4,68.4h3.1V48.3L105.7,33H89.6v31.6c1.8-3.3,5.3-5.4,9.2-5.4
			C104.3,59.1,108.7,63.2,109.4,68.4z"/>
		<path class="st2" d="M113.1,48.8H94.7c-0.3,0-0.6-0.3-0.6-0.6V32.5h1.2v15h17.8V48.8z"/>
		<rect x="36.9" y="47.5" class="st2" width="51.9" height="1.2"/>
		<path class="st2" d="M53.4,34.4c-2.7,0-4.9-2.2-4.9-4.9s2.2-4.9,4.9-4.9s4.9,2.2,4.9,4.9S56.1,34.4,53.4,34.4z M53.4,25.8
			c-2,0-3.6,1.6-3.6,3.7s1.6,3.7,3.6,3.7c2,0,3.6-1.6,3.6-3.7S55.4,25.8,53.4,25.8z"/>
		<path class="st2" d="M61.9,48.2h-1.2v-8.6c0-1-0.7-2.1-1.5-2.4c-3.7-1.2-7.6-1.2-11.2,0c-0.8,0.3-1.5,1.4-1.5,2.4v8.6H45v-8.6
			c0-1.5,1.1-3.1,2.4-3.5c3.9-1.3,8.1-1.3,12,0c1.3,0.4,2.4,2,2.4,3.5V48.2z"/>
		<rect x="48.6" y="42.7" class="st2" width="1.2" height="5.5"/>
		<rect x="57.1" y="42.7" class="st2" width="1.2" height="5.5"/>
		<path class="st2" d="M73.2,34.4c-2.7,0-4.9-2.2-4.9-4.9s2.2-4.9,4.9-4.9s4.9,2.2,4.9,4.9S75.9,34.4,73.2,34.4z M73.2,25.8
			c-2,0-3.6,1.6-3.6,3.7s1.6,3.7,3.6,3.7c2,0,3.6-1.6,3.6-3.7S75.2,25.8,73.2,25.8z"/>
		<path class="st2" d="M81.6,48.2h-1.2v-8.6c0-1-0.7-2.1-1.5-2.4c-3.7-1.2-7.6-1.2-11.2,0c-0.8,0.3-1.5,1.4-1.5,2.4v8.6h-1.2v-8.6
			c0-1.5,1.1-3.1,2.4-3.5c3.9-1.3,8.1-1.3,12,0c1.3,0.4,2.4,2,2.4,3.5V48.2z"/>
		<rect x="68.4" y="42.7" class="st2" width="1.2" height="5.5"/>
		<rect x="76.9" y="42.7" class="st2" width="1.2" height="5.5"/>
		<path class="st2" d="M98.9,80.1c-5.8,0-10.6-4.7-10.6-10.5s4.7-10.5,10.6-10.5s10.6,4.7,10.6,10.5S104.7,80.1,98.9,80.1z
			 M98.9,60.4c-5.1,0-9.3,4.1-9.3,9.2s4.2,9.2,9.3,9.2c5.1,0,9.3-4.1,9.3-9.2S104,60.4,98.9,60.4z"/>
		<path class="st2" d="M53.3,80.1c-5.8,0-10.6-4.7-10.6-10.5s4.7-10.5,10.6-10.5s10.6,4.7,10.6,10.5S59.1,80.1,53.3,80.1z
			 M53.3,60.4c-5.1,0-9.3,4.1-9.3,9.2s4.2,9.2,9.3,9.2c5.1,0,9.3-4.1,9.3-9.2S58.4,60.4,53.3,60.4z"/>
	</g>
</g>
</svg>
