<?xml version="1.0" encoding="UTF-8" standalone="no"?>
<svg
   xmlns:dc="http://purl.org/dc/elements/1.1/"
   xmlns:cc="http://creativecommons.org/ns#"
   xmlns:rdf="http://www.w3.org/1999/02/22-rdf-syntax-ns#"
   xmlns:svg="http://www.w3.org/2000/svg"
   xmlns="http://www.w3.org/2000/svg"
   viewBox="0 0 200 200"
   height="200"
   width="200"
   xml:space="preserve"
   id="svg2"
   version="1.1"><metadata
     id="metadata8"><rdf:RDF><cc:Work
         rdf:about=""><dc:format>image/svg+xml</dc:format><dc:type
           rdf:resource="http://purl.org/dc/dcmitype/StillImage" /></cc:Work></rdf:RDF></metadata><defs
     id="defs6"><clipPath
       id="clipPath22"
       clipPathUnits="userSpaceOnUse"><path
         id="path20"
         d="M 0,150 H 150 V 0 H 0 Z" /></clipPath></defs><g
     transform="matrix(1.3333333,0,0,-1.3333333,0,200)"
     id="g10"><path
       id="path12"
       style="fill:#1c3664;fill-opacity:1;fill-rule:nonzero;stroke:none"
       d="M 0,50.073 H 149.95 V 150 H 0 Z" /><path
       id="path14"
       style="fill:#f05c2b;fill-opacity:1;fill-rule:nonzero;stroke:none"
       d="m 0,0.073 h 149.95 v 50 H 0 Z" /><g
       id="g16"><g
         clip-path="url(#clipPath22)"
         id="g18"><g
           transform="translate(43.5467,31.7803)"
           id="g24"><path
             id="path26"
             style="fill:#ffffff;fill-opacity:1;fill-rule:nonzero;stroke:none"
             d="m 0,0 c 1.128,0 1.65,0.495 1.65,1.608 0,1.032 -0.522,1.485 -1.759,1.485 h -0.702 l 0,-3.093 z m 0.165,-1.279 h -0.976 v -3.822 h -1.787 v 9.5 h 2.502 c 2.434,0 3.588,-0.962 3.588,-2.791 0,-1.196 -0.55,-2.089 -1.704,-2.557 L 4.001,-5.101 H 2.035 Z" /></g><g
           transform="translate(52.8006,38.1729)"
           id="g28"><path
             id="path30"
             style="fill:#ffffff;fill-opacity:1;fill-rule:nonzero;stroke:none"
             d="m 0,0 -2.873,-1.141 -0.44,0.88 2.639,1.581 z M 0.66,-3.313 H -2.434 V -6.008 H 0.275 V -7.314 H -2.434 V -10.16 H 0.88 v -1.333 h -5.101 v 9.5 h 5.074 z" /></g><g
           transform="translate(56.7654,34.8457)"
           id="g32"><path
             id="path34"
             style="fill:#ffffff;fill-opacity:1;fill-rule:nonzero;stroke:none"
             d="m 0,0 v -6.833 h 0.756 c 1.237,0 2.227,0.619 2.227,3.465 C 2.983,-0.468 1.938,0 0.715,0 Z m 4.825,-3.368 c 0,-3.877 -2.09,-4.798 -4.193,-4.798 h -2.419 v 9.5 h 2.226 c 2.255,0 4.386,-0.715 4.386,-4.702" /></g><g
           transform="translate(69.4099,29.5391)"
           id="g36"><path
             id="path38"
             style="fill:#ffffff;fill-opacity:1;fill-rule:nonzero;stroke:none"
             d="m 0,0 c 0,-1.732 -1.1,-3.065 -3.244,-3.065 -2.173,0 -3.245,1.292 -3.245,3.065 v 6.641 h 1.788 V 0.097 c 0,-1.183 0.439,-1.775 1.457,-1.775 1.003,0 1.457,0.592 1.457,1.775 V 6.641 H 0 Z" /></g><path
           id="path40"
           style="fill:#ffffff;fill-opacity:1;fill-rule:nonzero;stroke:none"
           d="M 72.947,26.68 H 71.16 v 9.5 h 1.787 z" /><g
           transform="translate(77.3553,31.7803)"
           id="g42"><path
             id="path44"
             style="fill:#ffffff;fill-opacity:1;fill-rule:nonzero;stroke:none"
             d="m 0,0 c 1.127,0 1.649,0.495 1.649,1.608 0,1.032 -0.522,1.485 -1.759,1.485 h -0.702 l 0,-3.093 z m 0.165,-1.279 h -0.977 v -3.822 h -1.787 v 9.5 h 2.502 c 2.434,0 3.589,-0.962 3.589,-2.791 0,-1.196 -0.55,-2.089 -1.705,-2.557 L 4.001,-5.101 H 2.034 Z" /></g><g
           transform="translate(87.2683,34.8594)"
           id="g46"><path
             id="path48"
             style="fill:#ffffff;fill-opacity:1;fill-rule:nonzero;stroke:none"
             d="m 0,0 h -3.093 v -2.694 h 2.708 V -4.001 H -3.093 V -6.847 H 0.221 V -8.18 H -4.88 v 9.5 h 5.072 z" /></g><g
           transform="translate(93.7586,28.1368)"
           id="g50"><path
             id="path52"
             style="fill:#ffffff;fill-opacity:1;fill-rule:nonzero;stroke:none"
             d="M 0,0 H 3.383 L 3.189,-1.457 h -4.976 v 9.5 H 0 Z" /></g><g
           transform="translate(102.408,30.2403)"
           id="g54"><path
             id="path56"
             style="fill:#ffffff;fill-opacity:1;fill-rule:nonzero;stroke:none"
             d="M 0,0 -1.072,4.578 -2.146,0 Z M 0.302,-1.348 H -2.447 L -2.97,-3.561 h -1.801 l 2.64,9.5 h 2.172 l 2.626,-9.5 H 0.824 Z" /></g><g
           transform="translate(44.6746,12.6797)"
           id="g58"><path
             id="path60"
             style="fill:#ffffff;fill-opacity:1;fill-rule:nonzero;stroke:none"
             d="m 0,0 h -2.158 l -2.558,9.5 h 1.842 L -1.045,1.567 0.701,9.5 h 1.787 z" /></g><g
           transform="translate(54.5535,15.5391)"
           id="g62"><path
             id="path64"
             style="fill:#ffffff;fill-opacity:1;fill-rule:nonzero;stroke:none"
             d="m 0,0 c 0,-1.732 -1.1,-3.065 -3.244,-3.065 -2.173,0 -3.245,1.292 -3.245,3.065 v 6.641 h 1.788 V 0.097 c 0,-1.183 0.439,-1.775 1.457,-1.775 1.003,0 1.457,0.592 1.457,1.775 V 6.641 H 0 Z" /></g><g
           transform="translate(58.0887,14.1368)"
           id="g66"><path
             id="path68"
             style="fill:#ffffff;fill-opacity:1;fill-rule:nonzero;stroke:none"
             d="M 0,0 H 3.383 L 3.189,-1.457 h -4.976 v 9.5 H 0 Z" /></g><g
           transform="translate(68.9568,12.6797)"
           id="g70"><path
             id="path72"
             style="fill:#ffffff;fill-opacity:1;fill-rule:nonzero;stroke:none"
             d="M 0,0 H -2.282 L -5.06,7.74 C -4.978,6.888 -4.826,5.691 -4.826,3.945 V 0 h -1.595 v 9.5 h 2.255 L -1.361,1.76 C -1.444,2.296 -1.595,3.643 -1.595,4.99 V 9.5 H 0 Z" /></g><g
           transform="translate(75.0056,24.1729)"
           id="g74"><path
             id="path76"
             style="fill:#ffffff;fill-opacity:1;fill-rule:nonzero;stroke:none"
             d="m 0,0 -2.874,-1.141 -0.439,0.88 2.639,1.581 z M 0.659,-3.313 H -2.434 V -6.008 H 0.274 V -7.314 H -2.434 V -10.16 H 0.88 v -1.333 h -5.101 v 9.5 h 5.073 z" /></g><g
           transform="translate(79.781,17.7803)"
           id="g78"><path
             id="path80"
             style="fill:#ffffff;fill-opacity:1;fill-rule:nonzero;stroke:none"
             d="m 0,0 c 1.127,0 1.649,0.495 1.649,1.608 0,1.032 -0.522,1.485 -1.759,1.485 h -0.702 l 0,-3.093 z m 0.165,-1.279 h -0.977 v -3.822 h -1.787 v 9.5 h 2.502 c 2.434,0 3.589,-0.962 3.589,-2.791 0,-1.196 -0.55,-2.089 -1.705,-2.557 L 4.001,-5.101 H 2.034 Z" /></g><g
           transform="translate(89.0984,16.2403)"
           id="g82"><path
             id="path84"
             style="fill:#ffffff;fill-opacity:1;fill-rule:nonzero;stroke:none"
             d="M 0,0 -1.072,4.578 -2.146,0 Z M 0.302,-1.348 H -2.447 L -2.97,-3.561 h -1.801 l 2.64,9.5 h 2.172 l 2.626,-9.5 H 0.824 Z" /></g><g
           transform="translate(97.1756,15.4844)"
           id="g86"><path
             id="path88"
             style="fill:#ffffff;fill-opacity:1;fill-rule:nonzero;stroke:none"
             d="m 0,0 c 0,1.1 -0.646,1.539 -1.719,1.539 h -0.934 v -3.011 h 0.824 C -0.729,-1.472 0,-1.155 0,0 M -2.653,5.389 V 2.776 h 0.81 c 0.99,0 1.513,0.468 1.513,1.348 0,0.921 -0.55,1.265 -1.678,1.265 z m 4.495,-5.458 c 0,-1.994 -1.526,-2.736 -3.685,-2.736 H -4.44 v 9.5 h 2.268 c 2.281,0 3.643,-0.757 3.643,-2.42 0,-1.155 -0.77,-1.814 -1.691,-2.048 1.086,-0.22 2.062,-0.77 2.062,-2.296" /></g><path
           id="path90"
           style="fill:#ffffff;fill-opacity:1;fill-rule:nonzero;stroke:none"
           d="m 102.145,12.68 h -1.787 v 9.5 h 1.787 z" /><g
           transform="translate(105.742,14.1368)"
           id="g92"><path
             id="path94"
             style="fill:#ffffff;fill-opacity:1;fill-rule:nonzero;stroke:none"
             d="M 0,0 H 3.382 L 3.189,-1.457 h -4.976 v 9.5 H 0 Z" /></g><path
           id="path96"
           style="fill:#ffffff;fill-opacity:1;fill-rule:nonzero;stroke:none"
           d="m 111.976,12.68 h -1.787 v 9.5 h 1.787 z" /><g
           transform="translate(119.2547,20.7774)"
           id="g98"><path
             id="path100"
             style="fill:#ffffff;fill-opacity:1;fill-rule:nonzero;stroke:none"
             d="M 0,0 H -2.186 V -8.098 H -3.959 V 0 h -2.282 v 1.402 h 6.434 z" /></g><g
           transform="translate(124.6795,24.1729)"
           id="g102"><path
             id="path104"
             style="fill:#ffffff;fill-opacity:1;fill-rule:nonzero;stroke:none"
             d="m 0,0 -2.873,-1.141 -0.44,0.88 2.639,1.581 z M 0.66,-3.313 H -2.434 V -6.008 H 0.275 V -7.314 H -2.434 V -10.16 H 0.88 v -1.333 h -5.101 v 9.5 h 5.074 z" /></g><g
           transform="translate(26.3533,33.1729)"
           id="g106"><path
             id="path108"
             style="fill:#ffffff;fill-opacity:1;fill-rule:nonzero;stroke:none"
             d="m 0,0 -6.665,-20.758 -3.719,1.471 6.159,18.936 h -7.438 V 3.36 L 0,3.36 Z" /></g><g
           transform="translate(75.8123,110.8008)"
           id="g110"><path
             id="path112"
             style="fill:#ffffff;fill-opacity:1;fill-rule:nonzero;stroke:none"
             d="m 0,0 c -1.531,0 -2.81,-0.53 -3.695,-1.534 -0.794,-0.899 -1.232,-2.115 -1.232,-3.427 0,-2.393 1.542,-4.969 4.927,-4.969 2.752,0 4.991,2.228 4.991,4.965 C 4.991,-2.228 2.752,0 0,0 m 0,-11.18 c -4.055,0 -6.177,3.128 -6.177,6.219 0,1.616 0.549,3.127 1.544,4.254 C -3.502,0.573 -1.9,1.25 0,1.25 c 3.441,0 6.241,-2.788 6.241,-6.215 0,-3.427 -2.8,-6.215 -6.241,-6.215" /></g><g
           transform="translate(84.9842,84.8194)"
           id="g114"><path
             id="path116"
             style="fill:#ffffff;fill-opacity:1;fill-rule:nonzero;stroke:none"
             d="m 0,0 c -0.345,0 -0.625,0.28 -0.625,0.625 v 4.933 c 0,3.274 -2.678,5.937 -5.969,5.937 h -5.156 c -3.291,0 -5.969,-2.663 -5.969,-5.937 0,-0.345 -0.28,-0.625 -0.625,-0.625 -0.344,0 -0.625,0.28 -0.625,0.625 0,3.963 3.239,7.187 7.219,7.187 h 5.156 c 3.981,0 7.219,-3.224 7.219,-7.187 V 0.625 C 0.625,0.28 0.345,0 0,0" /></g><g
           transform="translate(62.8357,115.17)"
           id="g118"><path
             id="path120"
             style="fill:#ffffff;fill-opacity:1;fill-rule:nonzero;stroke:none"
             d="m 0,0 c -1.565,0 -2.799,0.604 -3.385,1.69 l 1.1,0.594 c 0.435,-0.806 1.554,-1.18 2.994,-0.985 0.764,0.1 1.582,0.4 2.433,0.889 L 11.089,6.581 11.694,5.487 3.756,1.1 C 2.772,0.533 1.8,0.182 0.873,0.06 0.572,0.02 0.281,0 0,0" /></g><g
           transform="translate(91.8953,116.0049)"
           id="g122"><path
             id="path124"
             style="fill:#ffffff;fill-opacity:1;fill-rule:nonzero;stroke:none"
             d="M 0,0 C -5.479,-0.001 -10.395,1.867 -10.711,1.99 L -20.93,5.507 c -1.636,0.406 -3.455,0.129 -4.939,-0.781 l -5.355,-3.281 c -1.219,-0.748 -2.551,-1.142 -3.853,-1.142 h -0.02 c -1.716,0.005 -3.196,0.616 -4.169,1.72 -0.376,0.429 -0.613,0.962 -0.686,1.543 l -0.041,0.322 c -0.113,0.894 0.305,1.765 1.067,2.22 l 12.423,7.425 c 1.35,0.807 2.888,1.234 4.446,1.234 h 0.012 L 4.71,14.511 C 5.094,14.519 14.757,14.543 24.599,8.872 24.897,8.699 25,8.317 24.827,8.018 24.655,7.721 24.274,7.613 23.974,7.789 14.461,13.271 4.874,13.259 4.71,13.261 l -26.762,0.256 h -0.01 c -1.328,0 -2.643,-0.366 -3.8,-1.056 L -38.285,5.035 c -0.335,-0.2 -0.519,-0.589 -0.468,-0.989 l 0.041,-0.322 c 0.041,-0.328 0.179,-0.639 0.386,-0.875 0.731,-0.832 1.88,-1.292 3.233,-1.296 h 0.016 c 1.071,0 2.177,0.331 3.201,0.959 l 5.355,3.28 c 1.767,1.084 3.934,1.417 5.946,0.912 l 10.293,-3.54 C -10.145,3.111 1.346,-1.25 8.354,3.449 8.643,3.641 9.029,3.563 9.222,3.277 9.413,2.991 9.337,2.603 9.05,2.41 6.334,0.59 3.078,0 0,0" /></g><g
           transform="translate(106.7732,114.5333)"
           id="g126"><path
             id="path128"
             style="fill:#ffffff;fill-opacity:1;fill-rule:nonzero;stroke:none"
             d="m 0,0 c -0.169,0 -0.338,0.068 -0.461,0.203 -3.867,4.231 -9.451,4.411 -9.507,4.412 -0.345,0.009 -0.618,0.294 -0.61,0.639 0.007,0.341 0.285,0.611 0.624,0.611 H -9.94 C -9.691,5.859 -3.776,5.682 0.461,1.047 0.694,0.792 0.677,0.396 0.422,0.164 0.302,0.054 0.15,0 0,0" /></g><g
           transform="translate(76.076,79.543)"
           id="g130"><path
             id="path132"
             style="fill:#ffffff;fill-opacity:1;fill-rule:nonzero;stroke:none"
             d="M 0,0 -0.605,1.094 7.332,5.48 c 0.982,0.566 1.956,0.918 2.884,1.041 1.972,0.264 3.565,-0.348 4.257,-1.63 l -1.1,-0.594 C 12.938,5.104 11.822,5.466 10.38,5.282 9.615,5.181 8.796,4.881 7.946,4.392 Z" /></g><g
           transform="translate(69.8748,80.9493)"
           id="g134"><path
             id="path136"
             style="fill:#ffffff;fill-opacity:1;fill-rule:nonzero;stroke:none"
             d="M 0,0 C -0.416,0 -0.839,0.047 -1.265,0.147 -1.601,0.228 -1.808,0.564 -1.729,0.9 -1.648,1.237 -1.306,1.438 -0.976,1.364 1.724,0.718 4.346,2.963 5.187,4.15 5.37,4.408 5.413,4.738 5.306,5.056 5.192,5.389 4.935,5.646 4.614,5.744 L -7.808,9.575 c -1.248,0.328 -2.602,0.171 -3.777,-0.446 l -5.579,-2.936 c -0.126,-0.066 -0.25,-0.136 -0.372,-0.211 l -4.276,-2.621 c -0.295,-0.18 -0.68,-0.086 -0.86,0.207 -0.18,0.294 -0.088,0.679 0.207,0.86 l 4.278,2.621 c 0.144,0.088 0.291,0.172 0.442,0.251 l 5.578,2.934 c 1.449,0.765 3.121,0.957 4.702,0.543 L 4.983,6.939 C 5.685,6.723 6.248,6.169 6.489,5.457 6.728,4.756 6.625,4.017 6.207,3.428 5.179,1.977 2.727,0 0,0" /></g><g
           transform="translate(80.1551,70.5215)"
           id="g138"><path
             id="path140"
             style="fill:#ffffff;fill-opacity:1;fill-rule:nonzero;stroke:none"
             d="M 0,0 H -0.005 L -26.76,0.257 c -0.396,0.001 -10.043,-0.037 -19.889,5.639 -0.299,0.171 -0.402,0.553 -0.229,0.853 0.171,0.298 0.552,0.405 0.854,0.229 9.545,-5.501 19.18,-5.499 19.264,-5.471 L 0.001,1.25 C 1.378,1.234 2.654,1.614 3.813,2.306 l 12.422,7.425 c 0.334,0.202 0.518,0.59 0.467,0.991 l -0.04,0.324 c -0.041,0.324 -0.179,0.635 -0.387,0.872 -0.73,0.832 -1.879,1.292 -3.232,1.296 h -0.016 c -1.07,0 -2.176,-0.331 -3.201,-0.959 L 4.472,8.976 C 2.703,7.892 0.533,7.561 -1.476,8.063 l -10.449,2.614 c -0.335,0.084 -0.539,0.423 -0.455,0.758 0.084,0.335 0.42,0.541 0.758,0.455 L -1.173,9.275 C 0.514,8.854 2.333,9.132 3.819,10.042 l 5.355,3.279 c 1.22,0.748 2.552,1.143 3.853,1.143 h 0.02 c 1.717,-0.005 3.196,-0.616 4.168,-1.722 0.377,-0.429 0.614,-0.962 0.687,-1.541 l 0.04,-0.323 C 18.056,9.986 17.638,9.115 16.877,8.659 L 4.453,1.233 C 3.104,0.427 1.563,0 0,0" /></g><g
           transform="translate(50.95,83.502)"
           id="g142"><path
             id="path144"
             style="fill:#ffffff;fill-opacity:1;fill-rule:nonzero;stroke:none"
             d="m 0,0 h -0.014 c -0.249,0.006 -6.164,0.184 -10.401,4.818 -0.233,0.255 -0.216,0.651 0.039,0.883 0.255,0.235 0.649,0.216 0.883,-0.039 C -5.626,1.432 -0.042,1.251 0.014,1.25 0.358,1.241 0.632,0.956 0.624,0.611 0.617,0.271 0.339,0 0,0" /></g><g
           transform="translate(89.2361,111.7657)"
           id="g146"><path
             id="path148"
             style="fill:#ffffff;fill-opacity:1;fill-rule:nonzero;stroke:none"
             d="m 0,0 c -0.552,0 -1.104,0.07 -1.646,0.213 l -12.448,3.838 c -0.701,0.217 -1.264,0.77 -1.507,1.482 -0.238,0.701 -0.135,1.441 0.283,2.029 0.263,0.372 0.62,0.769 1.03,1.151 0.254,0.234 0.649,0.22 0.884,-0.032 0.234,-0.253 0.22,-0.649 -0.033,-0.884 -0.349,-0.324 -0.648,-0.656 -0.862,-0.958 -0.182,-0.257 -0.225,-0.587 -0.118,-0.903 0.113,-0.333 0.372,-0.591 0.692,-0.69 L -1.303,1.415 C -0.053,1.085 1.299,1.241 2.475,1.86 2.478,1.864 6.551,4.393 8.881,6.562 9.132,6.799 9.528,6.785 9.764,6.531 9.999,6.279 9.985,5.884 9.732,5.648 7.312,3.394 3.266,0.882 3.095,0.776 2.115,0.26 1.059,0 0,0" /></g></g></g></g></svg>