<?xml version="1.0" encoding="UTF-8" standalone="no"?>
<!DOCTYPE svg PUBLIC "-//W3C//DTD SVG 1.1//EN" "http://www.w3.org/Graphics/SVG/1.1/DTD/svg11.dtd">
<svg xmlns="http://www.w3.org/2000/svg" xmlns:xlink="http://www.w3.org/1999/xlink" version="1.1" width="150pt" height="150pt" viewBox="0 0 150 150">
<g enable-background="new">
<g id="Layer-1" data-name="03 Negative EN">
<path transform="matrix(1,0,0,-1,0,150)" d="M 0 50.073 L 149.95 50.073 L 149.95 150 L 0 150 Z " fill="#003366"/>
<path transform="matrix(1,0,0,-1,0,150)" d="M 0 .074 L 149.95 .074 L 149.95 50.073 L 0 50.073 Z " fill="#56c02b"/>
<path transform="matrix(1,0,0,-1,17.8367,137.0591)" d="M 0 0 L -4.017 0 L -4.017 18.797 L -7.914 15.682 L -9.729 18.867 L -3.659 23.593 L 0 23.593 Z " fill="#ffffff"/>
<clipPath id="cp0">
<path transform="matrix(1,0,0,-1,0,150)" d="M 0 150 L 150 150 L 150 0 L 0 0 Z "/>
</clipPath>
<g clip-path="url(#cp0)">
<path transform="matrix(1,0,0,-1,31.1502,117.002399)" d="M 0 0 L -6.605 0 L -6.605 -5.565 C -5.683 -4.97 -4.82 -4.725 -3.868 -4.725 C -.893 -4.725 1.31 -7.42 1.31 -12.321 C 1.31 -17.256 -1.458 -20.617 -5.742 -20.617 C -8.479 -20.617 -10.324 -19.217 -11.753 -17.187 L -9.432 -14.701 C -8.45 -16.066 -7.379 -16.906 -5.921 -16.906 C -4.047 -16.906 -2.916 -15.366 -2.916 -12.321 C -2.916 -9.101 -3.987 -8.12 -5.504 -8.12 C -6.278 -8.12 -6.902 -8.365 -7.706 -8.926 L -10.533 -8.926 L -10.533 3.536 L .477 3.536 Z " fill="#ffffff"/>
<path transform="matrix(1,0,0,-1,44.7293,120.7603)" d="M 0 0 L -1.072 4.578 L -2.145 0 Z M .303 -1.348 L -2.447 -1.348 L -2.97 -3.561 L -4.771 -3.561 L -2.131 5.939 L .041 5.939 L 2.667 -3.561 L .825 -3.561 Z " fill="#ffffff"/>
<path transform="matrix(1,0,0,-1,53.9051,115.604999)" d="M 0 0 L -.88 -1.031 C -1.375 -.618 -1.869 -.385 -2.461 -.385 C -3.602 -.385 -4.468 -1.278 -4.468 -3.945 C -4.468 -6.53 -3.629 -7.492 -2.447 -7.492 C -1.718 -7.492 -1.224 -7.148 -.756 -6.764 L .097 -7.781 C -.467 -8.372 -1.347 -8.922 -2.529 -8.922 C -4.771 -8.922 -6.338 -7.272 -6.338 -3.945 C -6.338 -.659 -4.687 .99 -2.557 .99 C -1.457 .99 -.715 .619 0 0 " fill="#ffffff"/>
<path transform="matrix(1,0,0,-1,60.5867,115.604999)" d="M 0 0 L -.88 -1.031 C -1.375 -.618 -1.869 -.385 -2.461 -.385 C -3.602 -.385 -4.468 -1.278 -4.468 -3.945 C -4.468 -6.53 -3.629 -7.492 -2.447 -7.492 C -1.718 -7.492 -1.224 -7.148 -.756 -6.764 L .097 -7.781 C -.467 -8.372 -1.347 -8.922 -2.529 -8.922 C -4.771 -8.922 -6.338 -7.272 -6.338 -3.945 C -6.338 -.659 -4.687 .99 -2.557 .99 C -1.457 .99 -.715 .619 0 0 " fill="#ffffff"/>
<path transform="matrix(1,0,0,-1,65.7556,113.0884)" d="M 0 0 L -.439 -.88 L -3.313 .247 L -2.64 1.581 Z M .729 -3.053 L -2.364 -3.053 L -2.364 -5.747 L .344 -5.747 L .344 -7.054 L -2.364 -7.054 L -2.364 -9.899 L .949 -9.899 L .949 -11.232 L -4.151 -11.232 L -4.151 -1.732 L .921 -1.732 Z " fill="#ffffff"/>
<path transform="matrix(1,0,0,-1,73.6072,115.7837)" d="M 0 0 L -.853 -.976 C -1.457 -.439 -2.035 -.192 -2.723 -.192 C -3.506 -.192 -4.015 -.618 -4.015 -1.333 C -4.015 -2.021 -3.685 -2.364 -2.282 -2.859 C -.742 -3.423 .247 -4.11 .247 -5.829 C .247 -7.492 -.99 -8.743 -3.053 -8.743 C -4.469 -8.743 -5.458 -8.207 -6.2 -7.451 L -5.293 -6.447 C -4.647 -7.012 -3.987 -7.369 -3.121 -7.369 C -2.2 -7.369 -1.608 -6.833 -1.608 -5.925 C -1.608 -5.142 -1.952 -4.743 -3.259 -4.289 C -5.073 -3.643 -5.843 -2.832 -5.843 -1.457 C -5.843 .083 -4.578 1.169 -2.846 1.169 C -1.608 1.169 -.742 .757 0 0 " fill="#ffffff"/>
<path transform="matrix(1,0,0,-1,81.7195,120.7603)" d="M 0 0 L -1.072 4.578 L -2.146 0 Z M .302 -1.348 L -2.447 -1.348 L -2.97 -3.561 L -4.771 -3.561 L -2.131 5.939 L .041 5.939 L 2.667 -3.561 L .824 -3.561 Z " fill="#ffffff"/>
<path transform="matrix(1,0,0,-1,91.3562,121.461399)" d="M 0 0 C 0 -1.732 -1.101 -3.065 -3.245 -3.065 C -5.417 -3.065 -6.489 -1.773 -6.489 0 L -6.489 6.641 L -4.702 6.641 L -4.702 .097 C -4.702 -1.086 -4.262 -1.678 -3.245 -1.678 C -2.241 -1.678 -1.787 -1.086 -1.787 .097 L -1.787 6.641 L 0 6.641 Z " fill="#ffffff"/>
<path transform="matrix(1,0,0,-1,99.1043,124.3208)" d="M 0 0 L -1.911 0 L -3.574 3.932 L -5.225 0 L -7.08 0 L -4.634 5.059 L -6.874 9.5 L -4.963 9.5 L -3.547 6.173 L -2.076 9.5 L -.234 9.5 L -2.502 5.128 Z " fill="#ffffff"/>
<path transform="matrix(1,0,0,-1,46.3513,128.2837)" d="M 0 0 L -.853 -.976 C -1.457 -.439 -2.034 -.192 -2.722 -.192 C -3.506 -.192 -4.014 -.618 -4.014 -1.333 C -4.014 -2.021 -3.685 -2.364 -2.282 -2.859 C -.742 -3.423 .248 -4.11 .248 -5.829 C .248 -7.492 -.989 -8.743 -3.052 -8.743 C -4.468 -8.743 -5.458 -8.207 -6.2 -7.451 L -5.293 -6.447 C -4.646 -7.012 -3.986 -7.369 -3.12 -7.369 C -2.199 -7.369 -1.608 -6.833 -1.608 -5.925 C -1.608 -5.142 -1.952 -4.743 -3.258 -4.289 C -5.072 -3.643 -5.843 -2.832 -5.843 -1.457 C -5.843 .083 -4.578 1.169 -2.846 1.169 C -1.608 1.169 -.742 .757 0 0 " fill="#ffffff"/>
<path transform="matrix(1,0,0,-1,52.6062,128.6411)" d="M 0 0 L -3.093 0 L -3.093 -2.694 L -.385 -2.694 L -.385 -4.001 L -3.093 -4.001 L -3.093 -6.847 L .221 -6.847 L .221 -8.18 L -4.88 -8.18 L -4.88 1.32 L .192 1.32 Z " fill="#ffffff"/>
<path transform="matrix(1,0,0,-1,56.5847,131.7202)" d="M 0 0 C 1.127 0 1.649 .495 1.649 1.608 C 1.649 2.64 1.127 3.093 -.11 3.093 L -.812 3.093 L -.812 0 Z M .165 -1.279 L -.812 -1.279 L -.812 -5.101 L -2.599 -5.101 L -2.599 4.399 L -.097 4.399 C 2.337 4.399 3.492 3.437 3.492 1.608 C 3.492 .412 2.942 -.481 1.787 -.949 L 4.001 -5.101 L 2.034 -5.101 Z " fill="#ffffff"/>
<path transform="matrix(1,0,0,-1,65.1785,136.8208)" d="M 0 0 L -2.158 0 L -4.716 9.5 L -2.874 9.5 L -1.045 1.567 L .701 9.5 L 2.488 9.5 Z " fill="#ffffff"/>
<path transform="matrix(1,0,0,-1,0,150)" d="M 70.287 13.179 L 68.5 13.179 L 68.5 22.679 L 70.287 22.679 Z " fill="#ffffff"/>
<path transform="matrix(1,0,0,-1,77.9119,128.105)" d="M 0 0 L -.88 -1.031 C -1.375 -.618 -1.869 -.385 -2.461 -.385 C -3.602 -.385 -4.468 -1.278 -4.468 -3.945 C -4.468 -6.53 -3.629 -7.492 -2.447 -7.492 C -1.718 -7.492 -1.224 -7.148 -.756 -6.764 L .097 -7.781 C -.467 -8.372 -1.347 -8.922 -2.529 -8.922 C -4.771 -8.922 -6.338 -7.272 -6.338 -3.945 C -6.338 -.659 -4.687 .99 -2.557 .99 C -1.457 .99 -.715 .619 0 0 " fill="#ffffff"/>
<path transform="matrix(1,0,0,-1,83.8094,128.6411)" d="M 0 0 L -3.093 0 L -3.093 -2.694 L -.385 -2.694 L -.385 -4.001 L -3.093 -4.001 L -3.093 -6.847 L .221 -6.847 L .221 -8.18 L -4.88 -8.18 L -4.88 1.32 L .192 1.32 Z " fill="#ffffff"/>
<path transform="matrix(1,0,0,-1,90.9324,128.2837)" d="M 0 0 L -.853 -.976 C -1.457 -.439 -2.035 -.192 -2.723 -.192 C -3.506 -.192 -4.015 -.618 -4.015 -1.333 C -4.015 -2.021 -3.685 -2.364 -2.282 -2.859 C -.742 -3.423 .247 -4.11 .247 -5.829 C .247 -7.492 -.99 -8.743 -3.053 -8.743 C -4.469 -8.743 -5.458 -8.207 -6.2 -7.451 L -5.293 -6.447 C -4.647 -7.012 -3.987 -7.369 -3.121 -7.369 C -2.2 -7.369 -1.608 -6.833 -1.608 -5.925 C -1.608 -5.142 -1.952 -4.743 -3.259 -4.289 C -5.073 -3.643 -5.843 -2.832 -5.843 -1.457 C -5.843 .083 -4.578 1.169 -2.846 1.169 C -1.608 1.169 -.742 .757 0 0 " fill="#ffffff"/>
<path transform="matrix(1,0,0,-1,97.0506,128.6548)" d="M 0 0 L 0 -6.833 L .757 -6.833 C 1.994 -6.833 2.983 -6.214 2.983 -3.368 C 2.983 -.468 1.938 0 .715 0 Z M 4.826 -3.368 C 4.826 -7.245 2.736 -8.166 .633 -8.166 L -1.787 -8.166 L -1.787 1.334 L .44 1.334 C 2.695 1.334 4.826 .619 4.826 -3.368 " fill="#ffffff"/>
<path transform="matrix(1,0,0,-1,108.0418,128.6411)" d="M 0 0 L -3.093 0 L -3.093 -2.694 L -.385 -2.694 L -.385 -4.001 L -3.093 -4.001 L -3.093 -6.847 L .221 -6.847 L .221 -8.18 L -4.88 -8.18 L -4.88 1.32 L .192 1.32 Z " fill="#ffffff"/>
<path transform="matrix(1,0,0,-1,116.9109,134.0161)" d="M 0 0 C 0 1.1 -.646 1.539 -1.719 1.539 L -2.653 1.539 L -2.653 -1.472 L -1.829 -1.472 C -.729 -1.472 0 -1.155 0 0 M -2.653 5.389 L -2.653 2.776 L -1.843 2.776 C -.853 2.776 -.33 3.244 -.33 4.124 C -.33 5.045 -.88 5.389 -2.008 5.389 Z M 1.842 -.069 C 1.842 -2.063 .316 -2.805 -1.843 -2.805 L -4.44 -2.805 L -4.44 6.695 L -2.172 6.695 C .109 6.695 1.471 5.938 1.471 4.275 C 1.471 3.12 .701 2.461 -.22 2.227 C .866 2.007 1.842 1.457 1.842 -.069 " fill="#ffffff"/>
<path transform="matrix(1,0,0,-1,123.7976,133.2603)" d="M 0 0 L -1.072 4.578 L -2.145 0 Z M .303 -1.348 L -2.447 -1.348 L -2.97 -3.561 L -4.771 -3.561 L -2.131 5.939 L .041 5.939 L 2.667 -3.561 L .825 -3.561 Z " fill="#ffffff"/>
<path transform="matrix(1,0,0,-1,132.989,128.2837)" d="M 0 0 L -.853 -.976 C -1.457 -.439 -2.034 -.192 -2.722 -.192 C -3.506 -.192 -4.014 -.618 -4.014 -1.333 C -4.014 -2.021 -3.685 -2.364 -2.282 -2.859 C -.742 -3.423 .248 -4.11 .248 -5.829 C .248 -7.492 -.989 -8.743 -3.052 -8.743 C -4.468 -8.743 -5.458 -8.207 -6.2 -7.451 L -5.293 -6.447 C -4.646 -7.012 -3.986 -7.369 -3.12 -7.369 C -2.199 -7.369 -1.608 -6.833 -1.608 -5.925 C -1.608 -5.142 -1.952 -4.743 -3.258 -4.289 C -5.072 -3.643 -5.843 -2.832 -5.843 -1.457 C -5.843 .083 -4.578 1.169 -2.846 1.169 C -1.608 1.169 -.742 .757 0 0 " fill="#ffffff"/>
<path transform="matrix(1,0,0,-1,139.2439,128.6411)" d="M 0 0 L -3.093 0 L -3.093 -2.694 L -.385 -2.694 L -.385 -4.001 L -3.093 -4.001 L -3.093 -6.847 L .221 -6.847 L .221 -8.18 L -4.88 -8.18 L -4.88 1.32 L .192 1.32 Z " fill="#ffffff"/>
<path transform="matrix(1,0,0,-1,67.8103,72.9771)" d="M 0 0 L -8.656 0 L -8.656 6.099 L -14.868 6.099 L -14.868 14.274 L -13.618 14.274 L -13.618 7.349 L -7.406 7.349 L -7.406 1.25 L -1.25 1.25 L -1.25 7.349 L 4.961 7.349 L 4.961 14.274 L 6.211 14.274 L 6.211 6.099 L 0 6.099 Z " fill="#ffffff"/>
<path transform="matrix(1,0,0,-1,63.241,21.124497)" d="M 0 0 C -.058 0 -.168 -.016 -.255 -.118 C -3.815 -4.266 -21.577 -25.497 -21.577 -36.22 C -21.577 -48.092 -11.897 -57.75 0 -57.75 C 11.393 -57.75 20.798 -48.937 21.531 -37.634 C 20.116 -36.159 19.055 -34.44 18.371 -32.52 L 18.224 -32.105 L 10.78 -32.105 L 10.78 -38.203 L 3.319 -38.203 L 3.319 -32.105 L -2.837 -32.105 L -2.837 -38.203 L -10.299 -38.203 L -10.299 -23.371 L 17.034 -23.371 C 11.57 -13.57 2.859 -3.15 .255 -.118 C .168 -.016 .058 0 0 0 M 0 -59 C -12.587 -59 -22.827 -48.781 -22.827 -36.22 C -22.827 -25.337 -6.276 -5.213 -1.204 .696 C -.601 1.399 .601 1.399 1.204 .696 C 3.91 -2.455 13.165 -13.529 18.64 -23.7 L 19.135 -24.621 L -9.049 -24.621 L -9.049 -36.953 L -4.087 -36.953 L -4.087 -30.855 L 4.569 -30.855 L 4.569 -36.953 L 9.53 -36.953 L 9.53 -30.855 L 19.104 -30.855 L 19.549 -32.102 C 20.201 -33.935 21.232 -35.567 22.613 -36.953 L 22.81 -37.15 L 22.795 -37.427 C 22.161 -49.524 12.148 -59 0 -59 " fill="#ffffff"/>
<path transform="matrix(1,0,0,-1,95.1306,42.606904)" d="M 0 0 C -3.474 0 -6.299 -2.813 -6.299 -6.27 C -6.299 -9.727 -3.474 -12.539 0 -12.539 C 3.474 -12.539 6.299 -9.727 6.299 -6.27 C 6.299 -2.813 3.474 0 0 0 M 0 -13.789 C -4.162 -13.789 -7.549 -10.416 -7.549 -6.27 C -7.549 -2.123 -4.162 1.25 0 1.25 C 4.162 1.25 7.549 -2.123 7.549 -6.27 C 7.549 -10.416 4.162 -13.789 0 -13.789 M -22.359 -9.373 L -12.785 -9.373 L -12.341 -10.618 C -10.484 -15.842 -5.505 -19.352 .05 -19.352 C 7.304 -19.352 13.205 -13.477 13.205 -6.256 C 13.205 .966 7.304 6.841 .05 6.841 C -5.504 6.841 -10.484 3.331 -12.342 -1.892 L -12.784 -3.139 L -40.938 -3.139 L -40.938 -15.471 L -35.977 -15.471 L -35.977 -9.373 L -27.32 -9.373 L -27.32 -15.471 L -22.359 -15.471 Z M .05 -20.602 C -6.032 -20.602 -11.485 -16.758 -13.519 -11.037 L -13.666 -10.623 L -21.109 -10.623 L -21.109 -16.721 L -28.57 -16.721 L -28.57 -10.623 L -34.727 -10.623 L -34.727 -16.721 L -42.188 -16.721 L -42.188 -1.889 L -13.667 -1.889 L -13.52 -1.474 C -11.485 4.247 -6.032 8.091 .05 8.091 C 7.993 8.091 14.455 1.655 14.455 -6.256 C 14.455 -14.166 7.993 -20.602 .05 -20.602 " fill="#ffffff"/>
</g>
</g>
</g>
</svg>
