<?xml version="1.0" encoding="UTF-8" standalone="no"?>
<!DOCTYPE svg PUBLIC "-//W3C//DTD SVG 1.1//EN" "http://www.w3.org/Graphics/SVG/1.1/DTD/svg11.dtd">
<svg xmlns="http://www.w3.org/2000/svg" xmlns:xlink="http://www.w3.org/1999/xlink" version="1.1" width="150pt" height="150pt" viewBox="0 0 150 150">
<g enable-background="new">
<g id="Layer-1" data-name="03 Negative EN">
<path transform="matrix(1,0,0,-1,0,150)" d="M 0 50.073 L 149.95 50.073 L 149.95 150 L 0 150 Z " fill="#003366"/>
<path transform="matrix(1,0,0,-1,0,150)" d="M 0 .074 L 149.95 .074 L 149.95 50.073 L 0 50.073 Z " fill="#115a85"/>
<clipPath id="cp0">
<path transform="matrix(1,0,0,-1,0,150)" d="M 0 150 L 150 150 L 150 0 L 0 0 Z "/>
</clipPath>
<g clip-path="url(#cp0)">
<path transform="matrix(1,0,0,-1,19.3699,119.5573)" d="M 0 0 C 0 -3.851 -1.547 -6.65 -7.23 -13.722 L .387 -13.722 L -.06 -17.502 L -11.753 -17.502 L -11.753 -13.967 C -5.653 -5.916 -4.255 -3.605 -4.255 -.385 C -4.255 1.646 -5.178 2.766 -6.605 2.766 C -7.944 2.766 -8.808 1.995 -9.908 .385 L -12.378 2.625 C -10.891 5.075 -8.867 6.546 -6.219 6.546 C -2.202 6.546 0 3.605 0 0 " fill="#ffffff"/>
<path transform="matrix(1,0,0,-1,32.7127,118.997699)" d="M 0 0 C 0 -2.87 -1.339 -4.76 -3.838 -5.565 C -1.31 -5.915 .595 -7.7 .595 -11.341 C .595 -15.261 -1.875 -18.622 -6.278 -18.622 C -8.956 -18.622 -10.92 -17.361 -12.467 -15.156 L -10.176 -12.706 C -8.956 -14.176 -7.944 -14.876 -6.517 -14.876 C -4.85 -14.876 -3.63 -13.546 -3.63 -11.096 C -3.63 -8.4 -4.79 -7.421 -6.813 -7.421 L -8.242 -7.421 L -7.766 -4.06 L -6.813 -4.06 C -5.118 -4.06 -3.987 -2.87 -3.987 -.63 C -3.987 1.296 -4.969 2.346 -6.517 2.346 C -7.796 2.346 -8.927 1.681 -9.998 .386 L -12.051 2.905 C -10.354 4.936 -8.361 5.986 -6.011 5.986 C -2.202 5.986 0 3.256 0 0 " fill="#ffffff"/>
<path transform="matrix(1,0,0,-1,46.8738,114.6042)" d="M 0 0 L -.88 -1.031 C -1.375 -.619 -1.869 -.385 -2.461 -.385 C -3.602 -.385 -4.468 -1.278 -4.468 -3.945 C -4.468 -6.53 -3.629 -7.492 -2.447 -7.492 C -1.718 -7.492 -1.224 -7.148 -.756 -6.764 L .097 -7.781 C -.467 -8.373 -1.347 -8.922 -2.529 -8.922 C -4.771 -8.922 -6.338 -7.273 -6.338 -3.945 C -6.338 -.66 -4.687 .99 -2.557 .99 C -1.457 .99 -.715 .619 0 0 " fill="#ffffff"/>
<path transform="matrix(1,0,0,-1,49.2449,118.5768)" d="M 0 0 C 0 -2.654 .715 -3.589 1.911 -3.589 C 3.162 -3.589 3.836 -2.654 3.836 .014 C 3.836 2.639 3.162 3.602 1.911 3.602 C .687 3.602 0 2.639 0 0 M 5.706 .014 C 5.706 -3.231 4.263 -4.949 1.911 -4.949 C -.412 -4.949 -1.869 -3.286 -1.869 0 C -1.869 3.23 -.412 4.963 1.911 4.963 C 4.249 4.963 5.706 3.313 5.706 .014 " fill="#ffffff"/>
<path transform="matrix(1,0,0,-1,57.8719,118.5768)" d="M 0 0 C 0 -2.654 .715 -3.589 1.911 -3.589 C 3.162 -3.589 3.836 -2.654 3.836 .014 C 3.836 2.639 3.162 3.602 1.911 3.602 C .687 3.602 0 2.639 0 0 M 5.705 .014 C 5.705 -3.231 4.262 -4.949 1.911 -4.949 C -.412 -4.949 -1.87 -3.286 -1.87 0 C -1.87 3.23 -.412 4.963 1.911 4.963 C 4.248 4.963 5.705 3.313 5.705 .014 " fill="#ffffff"/>
<path transform="matrix(1,0,0,-1,69.2986,116.8444)" d="M 0 0 C 0 1.195 -.591 1.718 -1.801 1.718 L -2.488 1.718 L -2.488 -1.815 L -1.801 -1.815 C -.632 -1.815 0 -1.389 0 0 M 1.843 0 C 1.843 -2.159 .44 -3.148 -1.69 -3.148 L -2.488 -3.148 L -2.488 -6.477 L -4.275 -6.477 L -4.275 3.023 L -1.814 3.023 C .522 3.023 1.843 2.021 1.843 0 " fill="#ffffff"/>
<path transform="matrix(1,0,0,-1,76.489,111.8268)" d="M 0 0 L -2.874 -1.141 L -3.313 -.262 L -.674 1.32 Z M .659 -3.313 L -2.434 -3.313 L -2.434 -6.008 L .274 -6.008 L .274 -7.314 L -2.434 -7.314 L -2.434 -10.16 L .88 -10.16 L .88 -11.494 L -4.221 -11.494 L -4.221 -1.994 L .852 -1.994 Z " fill="#ffffff"/>
<path transform="matrix(1,0,0,-1,81.2635,118.2194)" d="M 0 0 C 1.128 0 1.65 .494 1.65 1.607 C 1.65 2.639 1.128 3.093 -.109 3.093 L -.811 3.093 L -.811 0 Z M .165 -1.279 L -.811 -1.279 L -.811 -5.102 L -2.598 -5.102 L -2.598 4.398 L -.096 4.398 C 2.338 4.398 3.492 3.437 3.492 1.607 C 3.492 .412 2.942 -.481 1.788 -.949 L 4.001 -5.102 L 2.035 -5.102 Z " fill="#ffffff"/>
<path transform="matrix(1,0,0,-1,90.5808,119.7604)" d="M 0 0 L -1.072 4.579 L -2.145 0 Z M .303 -1.347 L -2.447 -1.347 L -2.97 -3.561 L -4.771 -3.561 L -2.131 5.939 L .041 5.939 L 2.667 -3.561 L .825 -3.561 Z " fill="#ffffff"/>
<path transform="matrix(1,0,0,-1,98.9441,115.2233)" d="M 0 0 L -2.186 0 L -2.186 -8.098 L -3.959 -8.098 L -3.959 0 L -6.241 0 L -6.241 1.402 L .193 1.402 Z " fill="#ffffff"/>
<path transform="matrix(1,0,0,-1,0,150)" d="M 101.935 26.679 L 100.147998 26.679 L 100.147998 36.179 L 101.935 36.179 Z " fill="#ffffff"/>
<path transform="matrix(1,0,0,-1,105.2508,118.5768)" d="M 0 0 C 0 -2.654 .715 -3.589 1.911 -3.589 C 3.162 -3.589 3.836 -2.654 3.836 .014 C 3.836 2.639 3.162 3.602 1.911 3.602 C .687 3.602 0 2.639 0 0 M 5.706 .014 C 5.706 -3.231 4.263 -4.949 1.911 -4.949 C -.412 -4.949 -1.869 -3.286 -1.869 0 C -1.869 3.23 -.412 4.963 1.911 4.963 C 4.249 4.963 5.706 3.313 5.706 .014 " fill="#ffffff"/>
<path transform="matrix(1,0,0,-1,118.823,123.321)" d="M 0 0 L -2.282 0 L -5.06 7.74 C -4.978 6.889 -4.826 5.692 -4.826 3.946 L -4.826 0 L -6.421 0 L -6.421 9.5 L -4.166 9.5 L -1.361 1.76 C -1.444 2.297 -1.595 3.644 -1.595 4.991 L -1.595 9.5 L 0 9.5 Z " fill="#ffffff"/>
<path transform="matrix(1,0,0,-1,0,150)" d="M 42.736 14.179 L 40.949 14.179 L 40.949 23.679 L 42.736 23.679 Z " fill="#ffffff"/>
<path transform="matrix(1,0,0,-1,50.9666,135.821)" d="M 0 0 L -2.282 0 L -5.06 7.74 C -4.978 6.889 -4.826 5.692 -4.826 3.946 L -4.826 0 L -6.421 0 L -6.421 9.5 L -4.166 9.5 L -1.361 1.76 C -1.444 2.297 -1.595 3.644 -1.595 4.991 L -1.595 9.5 L 0 9.5 Z " fill="#ffffff"/>
<path transform="matrix(1,0,0,-1,58.2596,127.7233)" d="M 0 0 L -2.187 0 L -2.187 -8.098 L -3.96 -8.098 L -3.96 0 L -6.242 0 L -6.242 1.402 L .192 1.402 Z " fill="#ffffff"/>
<path transform="matrix(1,0,0,-1,64.3435,127.640308)" d="M 0 0 L -3.093 0 L -3.093 -2.694 L -.385 -2.694 L -.385 -4.001 L -3.093 -4.001 L -3.093 -6.847 L .221 -6.847 L .221 -8.181 L -4.88 -8.181 L -4.88 1.319 L .192 1.319 Z " fill="#ffffff"/>
<path transform="matrix(1,0,0,-1,68.4597,130.7194)" d="M 0 0 C 1.127 0 1.649 .494 1.649 1.607 C 1.649 2.639 1.127 3.093 -.11 3.093 L -.812 3.093 L -.812 0 Z M .165 -1.279 L -.812 -1.279 L -.812 -5.102 L -2.599 -5.102 L -2.599 4.398 L -.097 4.398 C 2.337 4.398 3.492 3.437 3.492 1.607 C 3.492 .412 2.942 -.481 1.787 -.949 L 4.001 -5.102 L 2.034 -5.102 Z " fill="#ffffff"/>
<path transform="matrix(1,0,0,-1,79.9129,135.821)" d="M 0 0 L -2.282 0 L -5.06 7.74 C -4.977 6.889 -4.825 5.692 -4.825 3.946 L -4.825 0 L -6.42 0 L -6.42 9.5 L -4.166 9.5 L -1.361 1.76 C -1.443 2.297 -1.595 3.644 -1.595 4.991 L -1.595 9.5 L 0 9.5 Z " fill="#ffffff"/>
<path transform="matrix(1,0,0,-1,85.6609,132.2604)" d="M 0 0 L -1.072 4.579 L -2.146 0 Z M .302 -1.347 L -2.447 -1.347 L -2.97 -3.561 L -4.771 -3.561 L -2.131 5.939 L .041 5.939 L 2.667 -3.561 L .824 -3.561 Z " fill="#ffffff"/>
<path transform="matrix(1,0,0,-1,94.0242,127.7233)" d="M 0 0 L -2.186 0 L -2.186 -8.098 L -3.959 -8.098 L -3.959 0 L -6.241 0 L -6.241 1.402 L .193 1.402 Z " fill="#ffffff"/>
<path transform="matrix(1,0,0,-1,0,150)" d="M 97.015 14.179 L 95.228 14.179 L 95.228 23.679 L 97.015 23.679 Z " fill="#ffffff"/>
<path transform="matrix(1,0,0,-1,100.3308,131.0768)" d="M 0 0 C 0 -2.654 .715 -3.589 1.911 -3.589 C 3.162 -3.589 3.836 -2.654 3.836 .014 C 3.836 2.639 3.162 3.602 1.911 3.602 C .687 3.602 0 2.639 0 0 M 5.705 .014 C 5.705 -3.231 4.262 -4.949 1.911 -4.949 C -.412 -4.949 -1.87 -3.286 -1.87 0 C -1.87 3.23 -.412 4.963 1.911 4.963 C 4.248 4.963 5.705 3.313 5.705 .014 " fill="#ffffff"/>
<path transform="matrix(1,0,0,-1,113.9031,135.821)" d="M 0 0 L -2.282 0 L -5.06 7.74 C -4.978 6.889 -4.826 5.692 -4.826 3.946 L -4.826 0 L -6.421 0 L -6.421 9.5 L -4.166 9.5 L -1.361 1.76 C -1.444 2.297 -1.595 3.644 -1.595 4.991 L -1.595 9.5 L 0 9.5 Z " fill="#ffffff"/>
<path transform="matrix(1,0,0,-1,119.6502,132.2604)" d="M 0 0 L -1.072 4.579 L -2.145 0 Z M .303 -1.347 L -2.447 -1.347 L -2.97 -3.561 L -4.771 -3.561 L -2.131 5.939 L .041 5.939 L 2.667 -3.561 L .825 -3.561 Z " fill="#ffffff"/>
<path transform="matrix(1,0,0,-1,125.075,134.3629)" d="M 0 0 L 3.382 0 L 3.189 -1.458 L -1.787 -1.458 L -1.787 8.042 L 0 8.042 Z " fill="#ffffff"/>
<path transform="matrix(1,0,0,-1,134.4021,127.640308)" d="M 0 0 L -3.093 0 L -3.093 -2.694 L -.385 -2.694 L -.385 -4.001 L -3.093 -4.001 L -3.093 -6.847 L .221 -6.847 L .221 -8.181 L -4.88 -8.181 L -4.88 1.319 L .192 1.319 Z " fill="#ffffff"/>
<path transform="matrix(1,0,0,-1,98.5974,50.3376)" stroke-width="1.25" stroke-linecap="butt" stroke-miterlimit="10" stroke-linejoin="miter" fill="none" stroke="#ffffff" d="M 0 0 C 0 -13.055 -10.618 -23.637 -23.717 -23.637 C -36.815 -23.637 -47.434 -13.055 -47.434 0 C -47.434 13.054 -36.815 23.637 -23.717 23.637 C -10.618 23.637 0 13.054 0 0 Z "/>
<path transform="matrix(1,0,0,-1,58.2537,66.9079)" stroke-width="1.25" stroke-linecap="butt" stroke-linejoin="round" fill="none" stroke="#ffffff" d="M 0 0 L -8.312 -8.283 L 7.067 7.044 C 7.915 7.047 9.063 6.751 10.344 5.555 C 11.182 4.771 11.373 2.168 12.245 1.298 C 13.598 -.05 15.791 -.049 17.143 1.299 C 17.155 1.312 17.163 1.328 17.176 1.341 C 17.188 1.354 17.205 1.361 17.218 1.374 C 18.569 2.721 18.571 4.906 17.219 6.255 C 16.346 7.124 13.734 7.315 12.947 8.15 C 11.747 9.425 11.45 10.57 11.453 11.415 L 16.627 16.571 L 21.801 11.415 C 22.647 11.411 23.797 11.708 25.076 12.903 C 25.914 13.687 26.105 16.291 26.978 17.161 C 28.329 18.508 30.523 18.507 31.875 17.159 C 31.888 17.146 31.896 17.131 31.909 17.118 C 31.922 17.105 31.937 17.098 31.95 17.084 C 33.302 15.737 33.304 13.551 31.951 12.203 C 31.079 11.334 28.466 11.143 27.68 10.309 C 26.48 9.033 26.183 7.889 26.187 7.044 L 41.251 -8.491 "/>
<path transform="matrix(1,0,0,-1,49.906,25.448899)" stroke-width="1.25" stroke-linecap="butt" stroke-linejoin="round" fill="none" stroke="#ffffff" d="M 0 0 L 15.415 -15.363 C 15.419 -16.207 15.121 -17.353 13.922 -18.627 C 13.136 -19.462 10.522 -19.652 9.65 -20.522 C 8.298 -21.869 8.3 -24.057 9.651 -25.403 C 9.664 -25.416 9.68 -25.424 9.692 -25.437 C 9.705 -25.449 9.714 -25.465 9.727 -25.479 C 11.078 -26.825 13.272 -26.827 14.624 -25.479 C 15.497 -24.609 15.688 -22.006 16.525 -21.223 C 17.805 -20.026 18.954 -19.729 19.801 -19.733 L 24.975 -24.89 L 30.148 -19.733 C 30.151 -18.889 29.854 -17.744 28.654 -16.469 C 27.867 -15.634 25.256 -15.442 24.383 -14.573 C 23.03 -13.226 23.032 -11.04 24.384 -9.693 C 24.396 -9.68 24.413 -9.672 24.426 -9.659 C 24.438 -9.646 24.446 -9.63 24.459 -9.617 C 25.811 -8.271 28.004 -8.269 29.356 -9.617 C 30.229 -10.486 30.42 -13.09 31.258 -13.874 C 32.538 -15.07 33.687 -15.366 34.534 -15.363 L 41.603 -8.319 L 49.795 -.153 "/>
<path transform="matrix(1,0,0,-1,61.5037,24.2809)" stroke-width="1.25" stroke-linecap="butt" stroke-miterlimit="10" stroke-linejoin="miter" fill="none" stroke="#ffffff" d="M 0 0 L -6.391 -6.369 L -8.347 -4.42 L -10.302 -2.471 L -3.912 3.898 L 0 0 Z "/>
<path transform="matrix(1,0,0,-1,87.1853,75.6422)" stroke-width="1.25" stroke-linecap="butt" stroke-miterlimit="10" stroke-linejoin="miter" fill="none" stroke="#ffffff" d="M 0 0 L 6.517 6.24 L 8.433 4.253 L 10.35 2.265 L 3.833 -3.976 L 0 0 Z "/>
<path transform="matrix(1,0,0,-1,49.2732,63.125604)" stroke-width="1.25" stroke-linecap="butt" stroke-miterlimit="10" stroke-linejoin="miter" fill="none" stroke="#ffffff" d="M 0 0 L 6.391 -6.368 L 4.435 -8.317 L 2.479 -10.267 L -3.911 -3.898 L 0 0 Z "/>
<path transform="matrix(1,0,0,-1,100.7263,37.3229)" stroke-width="1.25" stroke-linecap="butt" stroke-miterlimit="10" stroke-linejoin="miter" fill="none" stroke="#ffffff" d="M 0 0 L -6.391 6.369 L -4.435 8.318 L -2.479 10.268 L 3.912 3.899 L 0 0 Z "/>
</g>
</g>
</g>
</svg>
