<?xml version="1.0" encoding="UTF-8" standalone="no"?>
<!DOCTYPE svg PUBLIC "-//W3C//DTD SVG 1.1//EN" "http://www.w3.org/Graphics/SVG/1.1/DTD/svg11.dtd">
<svg xmlns="http://www.w3.org/2000/svg" xmlns:xlink="http://www.w3.org/1999/xlink" version="1.1" width="150pt" height="150pt" viewBox="0 0 150 150">
<g enable-background="new">
<g id="Layer-1" data-name="03 Negative EN">
<path transform="matrix(1,0,0,-1,0,150)" d="M 0 50.073 L 149.95 50.073 L 149.95 150 L 0 150 Z " fill="#1c3664"/>
<path transform="matrix(1,0,0,-1,0,150)" d="M 0 .073 L 149.95 .073 L 149.95 50.073 L 0 50.073 Z " fill="#9c2468"/>
<clipPath id="cp0">
<path transform="matrix(1,0,0,-1,0,150)" d="M 0 150 L 150 150 L 150 0 L 0 0 Z "/>
</clipPath>
<g clip-path="url(#cp0)">
<path transform="matrix(1,0,0,-1,43.5242,111.9691)" d="M 0 0 C 1.127 0 1.649 .495 1.649 1.608 C 1.649 2.64 1.127 3.093 -.11 3.093 L -.812 3.093 L -.812 0 Z M .164 -1.279 L -.812 -1.279 L -.812 -5.101 L -2.599 -5.101 L -2.599 4.399 L -.097 4.399 C 2.337 4.399 3.492 3.437 3.492 1.608 C 3.492 .412 2.941 -.481 1.787 -.949 L 4 -5.101 L 2.034 -5.101 Z " fill="#ffffff"/>
<path transform="matrix(1,0,0,-1,52.7781,105.5765)" d="M 0 0 L -2.874 -1.141 L -3.314 -.261 L -.674 1.32 Z M .659 -3.313 L -2.434 -3.313 L -2.434 -6.008 L .274 -6.008 L .274 -7.314 L -2.434 -7.314 L -2.434 -10.16 L .879 -10.16 L .879 -11.493 L -4.221 -11.493 L -4.221 -1.993 L .852 -1.993 Z " fill="#ffffff"/>
<path transform="matrix(1,0,0,-1,56.742,108.9037)" d="M 0 0 L 0 -6.833 L .757 -6.833 C 1.993 -6.833 2.983 -6.214 2.983 -3.368 C 2.983 -.468 1.938 0 .715 0 Z M 4.825 -3.368 C 4.825 -7.245 2.735 -8.166 .632 -8.166 L -1.787 -8.166 L -1.787 1.334 L .44 1.334 C 2.694 1.334 4.825 .619 4.825 -3.368 " fill="#ffffff"/>
<path transform="matrix(1,0,0,-1,69.3875,114.2103)" d="M 0 0 C 0 -1.732 -1.101 -3.065 -3.245 -3.065 C -5.418 -3.065 -6.49 -1.773 -6.49 0 L -6.49 6.641 L -4.702 6.641 L -4.702 .097 C -4.702 -1.086 -4.262 -1.678 -3.245 -1.678 C -2.242 -1.678 -1.787 -1.086 -1.787 .097 L -1.787 6.641 L 0 6.641 Z " fill="#ffffff"/>
<path transform="matrix(1,0,0,-1,0,150)" d="M 72.925 32.93 L 71.138 32.93 L 71.138 42.43 L 72.925 42.43 Z " fill="#ffffff"/>
<path transform="matrix(1,0,0,-1,77.3318,111.9691)" d="M 0 0 C 1.128 0 1.649 .495 1.649 1.608 C 1.649 2.64 1.128 3.093 -.11 3.093 L -.812 3.093 L -.812 0 Z M .165 -1.279 L -.812 -1.279 L -.812 -5.101 L -2.599 -5.101 L -2.599 4.399 L -.097 4.399 C 2.337 4.399 3.492 3.437 3.492 1.608 C 3.492 .412 2.942 -.481 1.788 -.949 L 4.001 -5.101 L 2.034 -5.101 Z " fill="#ffffff"/>
<path transform="matrix(1,0,0,-1,87.2449,108.89)" d="M 0 0 L -3.093 0 L -3.093 -2.694 L -.385 -2.694 L -.385 -4.001 L -3.093 -4.001 L -3.093 -6.847 L .221 -6.847 L .221 -8.18 L -4.88 -8.18 L -4.88 1.32 L .193 1.32 Z " fill="#ffffff"/>
<path transform="matrix(1,0,0,-1,42.7127,128.6126)" d="M 0 0 L 3.382 0 L 3.189 -1.457 L -1.787 -1.457 L -1.787 8.043 L 0 8.043 Z " fill="#ffffff"/>
<path transform="matrix(1,0,0,-1,52.0398,121.89)" d="M 0 0 L -3.093 0 L -3.093 -2.694 L -.385 -2.694 L -.385 -4.001 L -3.093 -4.001 L -3.093 -6.847 L .221 -6.847 L .221 -8.18 L -4.88 -8.18 L -4.88 1.32 L .193 1.32 Z " fill="#ffffff"/>
<path transform="matrix(1,0,0,-1,59.2996,121.5326)" d="M 0 0 L -.852 -.976 C -1.457 -.439 -2.034 -.192 -2.722 -.192 C -3.506 -.192 -4.014 -.618 -4.014 -1.333 C -4.014 -2.021 -3.684 -2.364 -2.281 -2.859 C -.742 -3.423 .248 -4.11 .248 -5.829 C .248 -7.492 -.989 -8.743 -3.051 -8.743 C -4.468 -8.743 -5.457 -8.207 -6.199 -7.451 L -5.293 -6.447 C -4.646 -7.012 -3.986 -7.369 -3.12 -7.369 C -2.199 -7.369 -1.607 -6.833 -1.607 -5.925 C -1.607 -5.142 -1.951 -4.743 -3.258 -4.289 C -5.072 -3.643 -5.842 -2.832 -5.842 -1.457 C -5.842 .083 -4.578 1.169 -2.846 1.169 C -1.607 1.169 -.742 .757 0 0 " fill="#ffffff"/>
<path transform="matrix(1,0,0,-1,63.907,120.5697)" d="M 0 0 L 4.949 0 L 4.757 -1.32 L 1.787 -1.32 L 1.787 -4.207 L 4.371 -4.207 L 4.371 -5.527 L 1.787 -5.527 L 1.787 -9.5 L 0 -9.5 Z " fill="#ffffff"/>
<path transform="matrix(1,0,0,-1,73.3777,126.5091)" d="M 0 0 L -1.072 4.578 L -2.146 0 Z M .302 -1.348 L -2.447 -1.348 L -2.971 -3.561 L -4.771 -3.561 L -2.131 5.939 L .041 5.939 L 2.666 -3.561 L .824 -3.561 Z " fill="#ffffff"/>
<path transform="matrix(1,0,0,-1,82.6902,121.3539)" d="M 0 0 L -.879 -1.031 C -1.375 -.618 -1.869 -.385 -2.461 -.385 C -3.602 -.385 -4.468 -1.278 -4.468 -3.945 C -4.468 -6.53 -3.629 -7.492 -2.447 -7.492 C -1.718 -7.492 -1.223 -7.148 -.756 -6.764 L .097 -7.781 C -.467 -8.372 -1.347 -8.922 -2.529 -8.922 C -4.77 -8.922 -6.338 -7.272 -6.338 -3.945 C -6.338 -.659 -4.687 .99 -2.557 .99 C -1.457 .99 -.715 .619 0 0 " fill="#ffffff"/>
<path transform="matrix(1,0,0,-1,89.6277,121.972)" d="M 0 0 L -2.186 0 L -2.186 -8.098 L -3.959 -8.098 L -3.959 0 L -6.242 0 L -6.242 1.402 L .193 1.402 Z " fill="#ffffff"/>
<path transform="matrix(1,0,0,-1,95.7117,121.89)" d="M 0 0 L -3.093 0 L -3.093 -2.694 L -.385 -2.694 L -.385 -4.001 L -3.093 -4.001 L -3.093 -6.847 L .221 -6.847 L .221 -8.18 L -4.88 -8.18 L -4.88 1.32 L .193 1.32 Z " fill="#ffffff"/>
<path transform="matrix(1,0,0,-1,103.576,127.2103)" d="M 0 0 C 0 -1.732 -1.101 -3.065 -3.245 -3.065 C -5.417 -3.065 -6.489 -1.773 -6.489 0 L -6.489 6.641 L -4.702 6.641 L -4.702 .097 C -4.702 -1.086 -4.262 -1.678 -3.245 -1.678 C -2.241 -1.678 -1.787 -1.086 -1.787 .097 L -1.787 6.641 L 0 6.641 Z " fill="#ffffff"/>
<path transform="matrix(1,0,0,-1,107.9226,124.9691)" d="M 0 0 C 1.127 0 1.649 .495 1.649 1.608 C 1.649 2.64 1.127 3.093 -.11 3.093 L -.812 3.093 L -.812 0 Z M .164 -1.279 L -.812 -1.279 L -.812 -5.101 L -2.599 -5.101 L -2.599 4.399 L -.097 4.399 C 2.337 4.399 3.492 3.437 3.492 1.608 C 3.492 .412 2.941 -.481 1.787 -.949 L 4 -5.101 L 2.034 -5.101 Z " fill="#ffffff"/>
<path transform="matrix(1,0,0,-1,118.5369,121.5326)" d="M 0 0 L -.853 -.976 C -1.457 -.439 -2.034 -.192 -2.722 -.192 C -3.506 -.192 -4.015 -.618 -4.015 -1.333 C -4.015 -2.021 -3.685 -2.364 -2.282 -2.859 C -.742 -3.423 .247 -4.11 .247 -5.829 C .247 -7.492 -.989 -8.743 -3.052 -8.743 C -4.468 -8.743 -5.458 -8.207 -6.2 -7.451 L -5.293 -6.447 C -4.647 -7.012 -3.987 -7.369 -3.12 -7.369 C -2.2 -7.369 -1.608 -6.833 -1.608 -5.925 C -1.608 -5.142 -1.952 -4.743 -3.259 -4.289 C -5.073 -3.643 -5.843 -2.832 -5.843 -1.457 C -5.843 .083 -4.578 1.169 -2.846 1.169 C -1.608 1.169 -.742 .757 0 0 " fill="#ffffff"/>
<path transform="matrix(1,0,0,-1,47.3465,143.0697)" d="M 0 0 L -2.283 0 L -5.061 7.74 C -4.978 6.888 -4.826 5.691 -4.826 3.945 L -4.826 0 L -6.421 0 L -6.421 9.5 L -4.166 9.5 L -1.361 1.76 C -1.444 2.296 -1.596 3.643 -1.596 4.99 L -1.596 9.5 L 0 9.5 Z " fill="#ffffff"/>
<path transform="matrix(1,0,0,-1,53.3953,131.5765)" d="M 0 0 L -2.874 -1.141 L -3.314 -.261 L -.674 1.32 Z M .659 -3.313 L -2.434 -3.313 L -2.434 -6.008 L .274 -6.008 L .274 -7.314 L -2.434 -7.314 L -2.434 -10.16 L .879 -10.16 L .879 -11.493 L -4.221 -11.493 L -4.221 -1.993 L .852 -1.993 Z " fill="#ffffff"/>
<path transform="matrix(1,0,0,-1,61.7703,134.4769)" d="M 0 0 L -.92 -.949 C -1.512 -.468 -1.993 -.234 -2.722 -.234 C -3.932 -.234 -4.908 -1.114 -4.908 -3.836 C -4.908 -6.586 -4.248 -7.438 -2.969 -7.438 C -2.488 -7.438 -2.048 -7.314 -1.663 -7.081 L -1.663 -4.551 L -2.9 -4.551 L -3.079 -3.231 L .056 -3.231 L .056 -7.864 C -.797 -8.441 -1.855 -8.799 -2.941 -8.799 C -5.443 -8.799 -6.764 -7.19 -6.764 -3.836 C -6.764 -.509 -4.963 1.113 -2.777 1.113 C -1.58 1.113 -.742 .687 0 0 " fill="#ffffff"/>
<path transform="matrix(1,0,0,-1,67.3406,139.5091)" d="M 0 0 L -1.072 4.578 L -2.146 0 Z M .302 -1.348 L -2.447 -1.348 L -2.971 -3.561 L -4.771 -3.561 L -2.131 5.939 L .041 5.939 L 2.666 -3.561 L .824 -3.561 Z " fill="#ffffff"/>
<path transform="matrix(1,0,0,-1,75.7039,134.972)" d="M 0 0 L -2.186 0 L -2.186 -8.098 L -3.96 -8.098 L -3.96 0 L -6.242 0 L -6.242 1.402 L .192 1.402 Z " fill="#ffffff"/>
<path transform="matrix(1,0,0,-1,0,150)" d="M 78.694 6.93 L 76.907 6.93 L 76.907 16.43 L 78.694 16.43 Z " fill="#ffffff"/>
<path transform="matrix(1,0,0,-1,80.5047,133.5697)" d="M 0 0 L 4.949 0 L 4.757 -1.32 L 1.787 -1.32 L 1.787 -4.207 L 4.371 -4.207 L 4.371 -5.527 L 1.787 -5.527 L 1.787 -9.5 L 0 -9.5 Z " fill="#ffffff"/>
<path transform="matrix(1,0,0,-1,91.9832,134.5326)" d="M 0 0 L -.852 -.976 C -1.457 -.439 -2.034 -.192 -2.722 -.192 C -3.506 -.192 -4.014 -.618 -4.014 -1.333 C -4.014 -2.021 -3.684 -2.364 -2.281 -2.859 C -.742 -3.423 .248 -4.11 .248 -5.829 C .248 -7.492 -.989 -8.743 -3.051 -8.743 C -4.468 -8.743 -5.457 -8.207 -6.199 -7.451 L -5.293 -6.447 C -4.646 -7.012 -3.986 -7.369 -3.12 -7.369 C -2.199 -7.369 -1.607 -6.833 -1.607 -5.925 C -1.607 -5.142 -1.951 -4.743 -3.258 -4.289 C -5.072 -3.643 -5.842 -2.832 -5.842 -1.457 C -5.842 .083 -4.578 1.169 -2.846 1.169 C -1.607 1.169 -.742 .757 0 0 " fill="#ffffff"/>
<path transform="matrix(1,0,0,-1,26.1902,119.558)" d="M 0 0 C 0 -3.851 -1.547 -6.65 -7.23 -13.722 L .387 -13.722 L -.06 -17.502 L -11.753 -17.502 L -11.753 -13.967 C -5.653 -5.916 -4.255 -3.605 -4.255 -.385 C -4.255 1.646 -5.178 2.766 -6.605 2.766 C -7.944 2.766 -8.808 1.995 -9.908 .385 L -12.378 2.625 C -10.891 5.075 -8.867 6.546 -6.219 6.546 C -2.202 6.546 0 3.605 0 0 " fill="#ffffff"/>
<path transform="matrix(1,0,0,-1,50.0711,79.5384)" d="M 0 0 C -.233 0 -.458 .132 -.565 .358 C -.713 .67 -.579 1.043 -.267 1.19 C 8.68 5.419 18.349 7.563 28.471 7.563 C 38.068 7.563 47.287 5.626 55.87 1.805 C 56.186 1.664 56.327 1.295 56.188 .979 C 56.047 .663 55.676 .525 55.362 .662 C 46.94 4.412 37.893 6.313 28.471 6.313 C 18.535 6.313 9.046 4.21 .267 .06 C .181 .02 .09 0 0 0 " fill="#ffffff"/>
<path transform="matrix(1,0,0,-1,75.7146,51.0326)" d="M 0 0 C -.104 0 -.209 .026 -.303 .078 L -3.971 2.112 C -10.351 6.53 -8.069 11.223 -8.046 11.271 C -8.028 11.304 -8.009 11.336 -7.985 11.366 C -4.849 15.483 -5.412 17.335 -5.532 17.621 L -11.368 23.503 L -10.481 24.384 L -4.579 18.436 C -4.552 18.408 -4.528 18.379 -4.507 18.348 C -4.342 18.107 -3.017 15.854 -6.95 10.662 C -7.146 10.219 -8.458 6.739 -3.312 3.173 L -.324 1.519 C .818 4.063 3.44 5.999 4.02 6.404 C 4.256 6.788 5.159 8.408 4.731 10.239 C 4.374 11.768 3.183 13.099 1.191 14.193 C .99 14.304 .866 14.516 .867 14.744 C .868 14.921 .921 19.128 3.74 23.837 C 3.799 23.939 5.272 26.611 2.776 29.376 L 3.704 30.214 C 6.826 26.756 4.837 23.236 4.816 23.201 C 2.634 19.555 2.215 16.174 2.136 15.095 C 4.254 13.85 5.537 12.308 5.952 10.507 C 6.561 7.868 5.051 5.69 4.986 5.6 C 4.942 5.537 4.887 5.483 4.823 5.44 C 4.79 5.418 1.47 3.17 .596 .435 C .538 .256 .404 .113 .23 .044 C .156 .015 .078 0 0 0 " fill="#ffffff"/>
<path transform="matrix(1,0,0,-1,79.0525,30.810898)" d="M 0 0 L -.98 .773 L 3.483 6.433 L 5.046 10.747 L 6.222 10.321 L 4.624 5.912 C 4.601 5.85 4.568 5.79 4.526 5.738 Z " fill="#ffffff"/>
<path transform="matrix(1,0,0,-1,81.281,40.690805)" d="M 0 0 L -.687 1.045 C -.637 1.077 4.278 4.351 4.826 8.103 C 5.407 12.09 7.322 13.148 10.22 14.752 C 10.529 14.923 10.853 15.102 11.19 15.293 C 14.234 17.018 14.054 20.364 14.044 20.506 L 15.291 20.592 C 15.304 20.419 15.55 16.325 11.806 14.205 C 11.465 14.012 11.138 13.831 10.825 13.658 C 7.982 12.085 6.555 11.296 6.062 7.923 C 5.434 3.612 .222 .146 0 0 " fill="#ffffff"/>
<path transform="matrix(1,0,0,-1,94.6385,30.934899)" d="M 0 0 C -.082 0 -.164 .017 -.241 .049 L -5.614 2.3 L -5.132 3.452 L -.019 1.311 L 4.152 3.332 L 4.697 2.207 L .272 .062 C .187 .021 .094 0 0 0 " fill="#ffffff"/>
<path transform="matrix(1,0,0,-1,61.0144,74.9632)" d="M 0 0 L -1.213 .307 L -.558 2.901 C -.507 3.099 -.363 3.26 -.173 3.332 L 7.01 6.056 L 8.568 8.433 C 8.902 9.369 12.632 20.129 8.954 23.894 C 6.71 26.189 4.554 27.115 2.057 28.187 C .089 29.032 -2.141 29.989 -4.723 31.771 C -10.768 35.94 -8.882 45.363 -8.799 45.763 L -7.574 45.508 C -7.593 45.418 -9.372 36.496 -4.014 32.8 C -1.533 31.089 .542 30.197 2.55 29.336 C 5.06 28.259 7.431 27.24 9.849 24.767 C 14.226 20.286 9.903 8.437 9.717 7.935 C 9.7 7.89 9.68 7.848 9.653 7.809 L 7.943 5.2 C 7.871 5.09 7.766 5.005 7.643 4.959 L .575 2.279 Z " fill="#ffffff"/>
<path transform="matrix(1,0,0,-1,44.4783,46.1556)" d="M 0 0 L -.737 1.01 C -.472 1.204 5.852 5.742 12.885 3.732 L 12.541 2.531 C 6.109 4.369 .061 .044 0 0 " fill="#ffffff"/>
<path transform="matrix(1,0,0,-1,53.3035,39.939798)" d="M 0 0 C -3.593 4.229 -8.249 3.153 -8.447 3.105 L -8.748 4.318 C -8.521 4.375 -3.155 5.645 .953 .809 Z " fill="#ffffff"/>
<path transform="matrix(1,0,0,-1,81.0428,40.832399)" d="M 0 0 C -.204 0 -.403 .099 -.523 .282 C -.713 .57 -.633 .958 -.344 1.147 C 4.604 4.398 9.931 6.316 10.155 6.396 C 10.48 6.513 10.838 6.343 10.954 6.018 C 11.07 5.692 10.9 5.335 10.575 5.219 C 10.521 5.2 5.162 3.269 .342 .103 C .236 .033 .117 0 0 0 " fill="#ffffff"/>
<path transform="matrix(1,0,0,-1,92.2556,74.3304)" d="M 0 0 C -.24 0 -.47 .14 -.572 .374 L -2.651 5.122 L -11.056 6.765 C -11.228 6.798 -11.378 6.903 -11.47 7.053 C -12.847 9.316 -13.281 11.403 -12.763 13.256 C -12.094 15.647 -10.071 16.721 -9.985 16.765 C -8.338 17.804 -6.475 18.996 -5.8 19.459 C -5.825 19.525 -5.855 19.602 -5.89 19.683 L -12.346 16.815 C -12.534 16.732 -12.75 16.747 -12.926 16.854 C -13.102 16.961 -13.213 17.147 -13.224 17.354 C -13.375 20.166 -13.359 22.431 -13.359 22.453 C -13.358 22.622 -13.288 22.783 -13.167 22.899 C -8.471 27.398 -9.617 35.117 -9.629 35.195 C -9.683 35.536 -9.449 35.855 -9.108 35.909 C -8.774 35.959 -8.448 35.73 -8.395 35.39 C -8.341 35.052 -7.159 27.155 -12.11 22.186 C -12.109 21.613 -12.099 20.145 -12.02 18.328 L -5.838 21.074 C -5.535 21.207 -5.179 21.083 -5.028 20.788 C -4.326 19.421 -4.436 19.075 -4.621 18.816 C -4.709 18.697 -4.825 18.537 -9.364 15.681 C -9.424 15.647 -11.049 14.77 -11.563 12.902 C -11.961 11.461 -11.617 9.792 -10.541 7.937 L -2.09 6.286 C -1.889 6.247 -1.72 6.111 -1.638 5.924 L .572 .876 C .711 .56 .566 .19 .251 .053 C .169 .017 .084 0 0 0 " fill="#ffffff"/>
<path transform="matrix(1,0,0,-1,67.2849,41.6205)" d="M 0 0 L -2.753 8.46 L -1.563 8.847 L 1.189 .387 Z " fill="#ffffff"/>
<path transform="matrix(1,0,0,-1,59.6326,38.6156)" d="M 0 0 L -.152 1.24 L 6.57 2.068 L 6.723 .828 Z " fill="#ffffff"/>
<path transform="matrix(1,0,0,-1,81.7537,49.4115)" d="M 0 0 L -.512 1.141 L 8.342 5.111 C 8.484 5.175 8.645 5.183 8.794 5.135 L 12.439 3.932 L 12.047 2.744 L 8.632 3.871 Z " fill="#ffffff"/>
<path transform="matrix(1,0,0,-1,87.9265,46.332399)" d="M 0 0 L -1.139 .518 L 1.595 6.533 L 2.733 6.016 Z " fill="#ffffff"/>
<path transform="matrix(1,0,0,-1,68.4461,31.515)" d="M 0 0 C -.02 .177 -.44 4.364 2.022 7.075 L 2.948 6.235 C .858 3.936 1.238 .172 1.242 .135 Z " fill="#ffffff"/>
<path transform="matrix(1,0,0,-1,86.1082,60.459299)" d="M 0 0 L -3.086 2.771 L -2.25 3.7 L .836 .93 Z " fill="#ffffff"/>
</g>
</g>
</g>
</svg>
