<?xml version="1.0" encoding="UTF-8" standalone="no"?>
<svg
   xmlns:dc="http://purl.org/dc/elements/1.1/"
   xmlns:cc="http://creativecommons.org/ns#"
   xmlns:rdf="http://www.w3.org/1999/02/22-rdf-syntax-ns#"
   xmlns:svg="http://www.w3.org/2000/svg"
   xmlns="http://www.w3.org/2000/svg"
   viewBox="0 0 200 200"
   height="200"
   width="200"
   xml:space="preserve"
   id="svg2"
   version="1.1"><metadata
     id="metadata8"><rdf:RDF><cc:Work
         rdf:about=""><dc:format>image/svg+xml</dc:format><dc:type
           rdf:resource="http://purl.org/dc/dcmitype/StillImage" /></cc:Work></rdf:RDF></metadata><defs
     id="defs6"><clipPath
       id="clipPath22"
       clipPathUnits="userSpaceOnUse"><path
         id="path20"
         d="M 0,150 H 150 V 0 H 0 Z" /></clipPath></defs><g
     transform="matrix(1.3333333,0,0,-1.3333333,0,200)"
     id="g10"><path
       id="path12"
       style="fill:#1c3664;fill-opacity:1;fill-rule:nonzero;stroke:none"
       d="M 0,50.073 H 149.95 V 150 H 0 Z" /><path
       id="path14"
       style="fill:#fe7c23;fill-opacity:1;fill-rule:nonzero;stroke:none"
       d="M 0.117,0 H 150 V 50 H 0.117 Z" /><g
       id="g16"><g
         clip-path="url(#clipPath22)"
         id="g18"><g
           transform="translate(46.9031,28.5218)"
           id="g24"><path
             id="path26"
             style="fill:#ffffff;fill-opacity:1;fill-rule:nonzero;stroke:none"
             d="m 0,0 -0.911,-1.064 c -0.647,0.585 -1.264,0.854 -1.999,0.854 -0.837,0 -1.381,-0.465 -1.381,-1.245 0,-0.75 0.353,-1.125 1.852,-1.665 1.645,-0.614 2.703,-1.364 2.703,-3.239 0,-1.816 -1.323,-3.18 -3.527,-3.18 -1.513,0 -2.571,0.585 -3.364,1.409 l 0.97,1.096 c 0.69,-0.615 1.395,-1.005 2.321,-1.005 0.984,0 1.616,0.585 1.616,1.574 0,0.856 -0.367,1.29 -1.762,1.785 -1.941,0.705 -2.763,1.59 -2.763,3.09 0,1.68 1.351,2.865 3.203,2.865 C -1.72,1.275 -0.794,0.825 0,0" /></g><g
           transform="translate(52.5437,23.0921)"
           id="g28"><path
             id="path30"
             style="fill:#ffffff;fill-opacity:1;fill-rule:nonzero;stroke:none"
             d="M 0,0 -1.146,4.995 -2.292,0 Z M 0.323,-1.47 H -2.615 L -3.174,-3.885 H -5.099 L -2.277,6.479 H 0.044 L 2.851,-3.885 H 0.882 Z" /></g><g
           transform="translate(62.8416,22.3274)"
           id="g32"><path
             id="path34"
             style="fill:#ffffff;fill-opacity:1;fill-rule:nonzero;stroke:none"
             d="m 0,0 c 0,-1.891 -1.176,-3.345 -3.468,-3.345 -2.322,0 -3.468,1.409 -3.468,3.345 v 7.244 h 1.911 v -7.14 c 0,-1.29 0.469,-1.934 1.557,-1.934 1.072,0 1.558,0.644 1.558,1.934 v 7.14 H 0 Z" /></g><g
           transform="translate(68.7078,19.2073)"
           id="g36"><path
             id="path38"
             style="fill:#ffffff;fill-opacity:1;fill-rule:nonzero;stroke:none"
             d="M 0,0 H -2.307 L -5.04,10.364 h 1.969 l 1.954,-8.654 1.866,8.654 h 1.91 z" /></g><g
           transform="translate(77.4715,28.1321)"
           id="g40"><path
             id="path42"
             style="fill:#ffffff;fill-opacity:1;fill-rule:nonzero;stroke:none"
             d="m 0,0 h -3.307 v -2.94 h 2.896 V -4.365 H -3.307 V -7.47 H 0.235 V -8.925 H -5.217 V 1.439 h 5.423 z" /></g><g
           transform="translate(81.7205,24.7718)"
           id="g44"><path
             id="path46"
             style="fill:#ffffff;fill-opacity:1;fill-rule:nonzero;stroke:none"
             d="m 0,0 c 1.205,0 1.764,0.54 1.764,1.755 0,1.125 -0.559,1.62 -1.881,1.62 h -0.75 V 0 Z m 0.177,-1.395 h -1.044 v -4.169 h -1.91 V 4.8 h 2.674 C 2.498,4.8 3.732,3.75 3.732,1.755 3.732,0.45 3.145,-0.524 1.91,-1.034 l 2.366,-4.53 H 2.175 Z" /></g><g
           transform="translate(91.9666,28.1165)"
           id="g48"><path
             id="path50"
             style="fill:#ffffff;fill-opacity:1;fill-rule:nonzero;stroke:none"
             d="m 0,0 v -7.454 h 0.809 c 1.322,0 2.379,0.675 2.379,3.779 C 3.188,-0.51 2.072,0 0.765,0 Z m 5.158,-3.675 c 0,-4.229 -2.233,-5.234 -4.482,-5.234 H -1.91 V 1.455 h 2.381 c 2.41,0 4.687,-0.779 4.687,-5.13" /></g><g
           transform="translate(103.7137,28.1321)"
           id="g52"><path
             id="path54"
             style="fill:#ffffff;fill-opacity:1;fill-rule:nonzero;stroke:none"
             d="m 0,0 h -3.307 v -2.94 h 2.896 V -4.365 H -3.307 V -7.47 H 0.235 V -8.925 H -5.217 V 1.439 h 5.423 z" /></g><g
           transform="translate(111.325,28.5218)"
           id="g56"><path
             id="path58"
             style="fill:#ffffff;fill-opacity:1;fill-rule:nonzero;stroke:none"
             d="m 0,0 -0.911,-1.064 c -0.647,0.585 -1.264,0.854 -1.999,0.854 -0.837,0 -1.381,-0.465 -1.381,-1.245 0,-0.75 0.353,-1.125 1.852,-1.665 1.645,-0.614 2.703,-1.364 2.703,-3.239 0,-1.816 -1.323,-3.18 -3.527,-3.18 -1.513,0 -2.571,0.585 -3.364,1.409 l 0.97,1.096 c 0.69,-0.615 1.395,-1.005 2.321,-1.005 0.984,0 1.616,0.585 1.616,1.574 0,0.856 -0.367,1.29 -1.762,1.785 -1.941,0.705 -2.763,1.59 -2.763,3.09 0,1.68 1.351,2.865 3.203,2.865 C -1.72,1.275 -0.794,0.825 0,0" /></g><g
           transform="translate(119.9402,19.2073)"
           id="g60"><path
             id="path62"
             style="fill:#ffffff;fill-opacity:1;fill-rule:nonzero;stroke:none"
             d="M 0,0 H -2.307 L -5.04,10.364 h 1.969 l 1.954,-8.654 1.866,8.654 h 1.91 z" /></g><path
           id="path64"
           style="fill:#ffffff;fill-opacity:1;fill-rule:nonzero;stroke:none"
           d="m 125.397,19.207 h -1.91 v 10.364 h 1.91 z" /><g
           transform="translate(132.3972,28.1321)"
           id="g66"><path
             id="path68"
             style="fill:#ffffff;fill-opacity:1;fill-rule:nonzero;stroke:none"
             d="m 0,0 h -3.307 v -2.94 h 2.896 V -4.365 H -3.307 V -7.47 H 0.235 V -8.925 H -5.217 V 1.439 h 5.423 z" /></g><g
           transform="translate(140.0086,28.5218)"
           id="g70"><path
             id="path72"
             style="fill:#ffffff;fill-opacity:1;fill-rule:nonzero;stroke:none"
             d="m 0,0 -0.911,-1.064 c -0.647,0.585 -1.264,0.854 -1.999,0.854 -0.837,0 -1.381,-0.465 -1.381,-1.245 0,-0.75 0.353,-1.125 1.852,-1.665 1.645,-0.614 2.703,-1.364 2.703,-3.239 0,-1.816 -1.323,-3.18 -3.527,-3.18 -1.513,0 -2.571,0.585 -3.364,1.409 l 0.97,1.096 c 0.69,-0.615 1.395,-1.005 2.321,-1.005 0.984,0 1.616,0.585 1.616,1.574 0,0.856 -0.367,1.29 -1.762,1.785 -1.941,0.705 -2.763,1.59 -2.763,3.09 0,1.68 1.351,2.865 3.203,2.865 C -1.72,1.275 -0.794,0.825 0,0" /></g><g
           transform="translate(18.3201,30.6526)"
           id="g74"><path
             id="path76"
             style="fill:#ffffff;fill-opacity:1;fill-rule:nonzero;stroke:none"
             d="M 0,0 C 0,-1.82 0.714,-2.73 2.32,-3.57 L 2.856,-3.851 C 4.165,-2.66 4.522,-1.505 4.522,0.035 4.522,2.03 3.749,3.011 2.261,3.011 0.893,3.011 0,2.17 0,0 m 5.117,-11.341 c 0,2.1 -0.773,3.045 -2.945,4.13 L 1.368,-6.826 C 0,-7.841 -0.596,-9.276 -0.596,-11.271 c 0,-2.345 1.102,-3.465 2.887,-3.465 1.845,0 2.826,1.224 2.826,3.395 m 4.077,0 c 0,-3.956 -2.559,-6.931 -7.022,-6.931 -4.344,0 -6.873,2.94 -6.873,6.826 0,2.835 1.279,4.725 3.54,5.95 -2.082,1.471 -2.797,3.36 -2.797,5.566 0,3.885 2.619,6.266 6.189,6.266 3.601,0 6.279,-2.136 6.279,-6.056 0,-2.1 -0.923,-3.921 -3.065,-5.321 2.588,-1.54 3.749,-3.57 3.749,-6.3" /></g><g
           transform="translate(77.1092,102.3206)"
           id="g78"><path
             id="path80"
             style="fill:#ffffff;fill-opacity:1;fill-rule:nonzero;stroke:none"
             d="m 0,0 c -0.654,0 -1.299,0.178 -1.879,0.585 l -0.825,0.582 c -0.015,0.011 -0.088,0.068 -0.102,0.08 -0.259,0.219 -0.317,0.622 -0.103,0.887 0.211,0.263 0.577,0.327 0.847,0.119 L -2.359,1.689 -1.98,2.187 -1.159,1.607 C -0.043,0.822 1.524,1.408 2.494,2.393 L 5.599,6.665 C 5.801,6.944 6.19,7.007 6.472,6.802 6.751,6.599 6.812,6.208 6.608,5.929 L 3.444,1.586 C 2.526,0.648 1.247,0 0,0" /></g><g
           transform="translate(69.3885,100.3226)"
           id="g82"><path
             id="path84"
             style="fill:#ffffff;fill-opacity:1;fill-rule:nonzero;stroke:none"
             d="m 0,0 c -0.772,0 -1.537,0.209 -2.223,0.69 l -1.002,0.707 c -0.048,0.035 -0.092,0.071 -0.137,0.108 -0.25,0.211 -0.322,0.6 -0.13,0.866 l 8.385,11.597 c 0.067,0.092 0.157,0.164 0.262,0.209 l 21.731,9.236 3.886,6.358 1.067,-0.652 -3.991,-6.529 C 27.779,22.479 27.679,22.392 27.559,22.341 L 5.804,13.095 -2.113,2.144 -1.503,1.713 C -0.101,0.726 1.851,1.432 3.069,2.646 l 4.556,6.447 c 0.093,0.132 0.232,0.221 0.39,0.253 l 4.256,0.84 4.273,0.722 c 0.101,0.03 0.202,0.056 0.305,0.076 l 7.404,1.233 c 0.322,0.054 0.642,-0.156 0.713,-0.484 0.071,-0.325 -0.125,-0.648 -0.446,-0.736 -0.021,-0.005 -0.098,-0.025 -0.118,-0.028 L 16.83,9.688 C 16.34,9.521 15.882,9.148 15.532,8.621 15.002,7.821 14.786,6.776 14.968,5.894 14.971,5.878 15.056,5.358 15.128,4.921 l 12.325,2.083 4.1,5.07 2.949,6.986 2.676,5.562 1.127,-0.541 -2.663,-5.535 -2.972,-7.039 c -0.024,-0.054 -0.054,-0.105 -0.09,-0.15 L 28.276,6.034 C 28.181,5.915 28.045,5.836 27.895,5.811 L 14.723,3.585 C 14.41,3.531 14.112,3.719 14.021,4.02 14.005,4.068 13.994,4.104 13.738,5.667 13.495,6.849 13.769,8.211 14.477,9.291 L 12.497,8.956 8.502,8.168 4.061,1.883 C 4.041,1.854 4.019,1.829 3.995,1.805 2.957,0.75 1.464,0 0,0" /></g><g
           transform="translate(78.906,69.9046)"
           id="g86"><path
             id="path88"
             style="fill:#ffffff;fill-opacity:1;fill-rule:nonzero;stroke:none"
             d="m 0,0 c -0.347,0 -0.698,0.053 -1.03,0.155 l -12.941,3.19 C -16.505,3.032 -27.707,1.759 -29.922,3.477 l -1.948,1.911 -4.23,-0.865 -0.25,1.225 4.881,0.997 2.368,-2.329 c 1.372,-1.056 9.992,-0.455 15.089,0.184 l 0.116,0.014 0.112,-0.028 13.087,-3.227 C 0.073,1.123 0.984,1.263 1.176,1.88 1.278,2.213 1.245,2.566 1.083,2.874 0.919,3.183 0.646,3.41 0.311,3.513 L -11.02,8.415 -10.758,9.613 5.728,9.262 c 0.312,0.012 0.636,0.161 0.874,0.417 0.238,0.256 0.361,0.589 0.347,0.937 -0.026,0.703 -0.608,1.256 -1.307,1.256 -0.018,0 -0.035,0 -0.051,-10e-4 l -16.946,1.55 -0.054,1.237 18.125,3.245 c 0.381,0.049 0.69,0.225 0.905,0.501 0.214,0.276 0.308,0.617 0.264,0.963 -0.09,0.716 -0.762,1.223 -1.463,1.134 l -18.246,-2.287 -0.373,1.171 14.94,7.984 c 0.311,0.165 0.537,0.44 0.639,0.774 0.101,0.333 0.067,0.686 -0.097,0.994 -0.341,0.635 -1.137,0.877 -1.774,0.539 l -14.01,-5.41 -6.951,-0.192 -0.035,1.25 6.843,0.189 13.633,5.298 C 2.172,31.438 3.724,30.968 4.388,29.726 4.71,29.122 4.777,28.431 4.577,27.777 4.378,27.124 3.936,26.587 3.331,26.267 L -8.63,19.874 6.266,21.741 C 7.668,21.92 8.949,20.923 9.125,19.523 9.211,18.847 9.027,18.177 8.608,17.638 8.188,17.098 7.583,16.753 6.904,16.668 L -6.637,14.243 5.623,13.118 c 1.37,0.08 2.522,-1.046 2.576,-2.453 C 8.225,9.981 7.983,9.33 7.519,8.828 7.053,8.328 6.421,8.038 5.737,8.012 L -7.599,8.296 0.743,4.684 C 1.333,4.506 1.868,4.062 2.188,3.458 2.507,2.854 2.571,2.162 2.369,1.51 2.05,0.479 1.046,0 0,0" /></g><g
           transform="translate(42.6765,84.9124)"
           id="g90"><path
             id="path92"
             style="fill:#ffffff;fill-opacity:1;fill-rule:nonzero;stroke:none"
             d="m 0,0 -0.365,1.195 4.492,1.372 0.987,6.414 4.618,5.933 10.321,10.208 0.211,0.026 c 0.88,0.111 1.696,-0.177 2.233,-0.791 0.544,-0.62 0.725,-1.476 0.496,-2.349 -1.097,-4.186 -4.946,-8.612 -5.796,-9.552 l -0.12,-3.632 c 0.01,-0.178 0.216,-5.556 -3.734,-6.486 l -0.287,1.217 c 2.951,0.694 2.774,5.215 2.772,5.26 l 0.135,4.148 0.161,0.172 c 0.045,0.049 4.532,4.885 5.66,9.189 0.121,0.465 0.039,0.906 -0.226,1.209 -0.226,0.258 -0.521,0.356 -0.942,0.389 L 10.665,14.086 6.3,8.47 5.242,1.601 Z" /></g></g></g></g></svg>