<?xml version="1.0" encoding="UTF-8" standalone="no"?>
<!DOCTYPE svg PUBLIC "-//W3C//DTD SVG 1.1//EN" "http://www.w3.org/Graphics/SVG/1.1/DTD/svg11.dtd">
<svg xmlns="http://www.w3.org/2000/svg" xmlns:xlink="http://www.w3.org/1999/xlink" version="1.1" width="150pt" height="150pt" viewBox="0 0 150 150">
<g enable-background="new">
<g id="Layer-1" data-name="03 Negative EN">
<path transform="matrix(1,0,0,-1,0,150)" d="M 0 50.073 L 149.95 50.073 L 149.95 150 L 0 150 Z " fill="#1c3664"/>
<path transform="matrix(1,0,0,-1,0,150)" d="M 0 .074 L 149.95 .074 L 149.95 50.073 L 0 50.073 Z " fill="#e82050"/>
<path transform="matrix(1,0,0,-1,0,150)" d="M 42.736 26.679 L 40.949 26.679 L 40.949 36.179 L 42.736 36.179 Z " fill="#ffffff"/>
<clipPath id="cp0">
<path transform="matrix(1,0,0,-1,0,150)" d="M 0 150 L 150 150 L 150 0 L 0 0 Z "/>
</clipPath>
<g clip-path="url(#cp0)">
<path transform="matrix(1,0,0,-1,46.3328,115.154)" d="M 0 0 L 0 -6.833 L .757 -6.833 C 1.994 -6.833 2.983 -6.215 2.983 -3.368 C 2.983 -.468 1.938 0 .715 0 Z M 4.826 -3.368 C 4.826 -7.246 2.736 -8.167 .633 -8.167 L -1.787 -8.167 L -1.787 1.333 L .44 1.333 C 2.695 1.333 4.826 .618 4.826 -3.368 " fill="#ffffff"/>
<path transform="matrix(1,0,0,-1,57.4617,115.140308)" d="M 0 0 L -3.094 0 L -3.094 -2.695 L -.385 -2.695 L -.385 -4.001 L -3.094 -4.001 L -3.094 -6.847 L .22 -6.847 L .22 -8.181 L -4.881 -8.181 L -4.881 1.319 L .192 1.319 Z " fill="#ffffff"/>
<path transform="matrix(1,0,0,-1,65.3992,123.321)" d="M 0 0 L -2.282 0 L -5.06 7.74 C -4.977 6.888 -4.825 5.692 -4.825 3.946 L -4.825 0 L -6.42 0 L -6.42 9.5 L -4.166 9.5 L -1.361 1.76 C -1.443 2.296 -1.595 3.644 -1.595 4.991 L -1.595 9.5 L 0 9.5 Z " fill="#ffffff"/>
<path transform="matrix(1,0,0,-1,72.6922,115.2233)" d="M 0 0 L -2.186 0 L -2.186 -8.098 L -3.959 -8.098 L -3.959 0 L -6.241 0 L -6.241 1.402 L .193 1.402 Z " fill="#ffffff"/>
<path transform="matrix(1,0,0,-1,0,150)" d="M 75.683 26.679 L 73.895999 26.679 L 73.895999 36.179 L 75.683 36.179 Z " fill="#ffffff"/>
<path transform="matrix(1,0,0,-1,82.9627,115.2233)" d="M 0 0 L -2.187 0 L -2.187 -8.098 L -3.96 -8.098 L -3.96 0 L -6.242 0 L -6.242 1.402 L .192 1.402 Z " fill="#ffffff"/>
<path transform="matrix(1,0,0,-1,88.3875,111.8268)" d="M 0 0 L -2.874 -1.142 L -3.313 -.262 L -.674 1.319 Z M .659 -3.313 L -2.434 -3.313 L -2.434 -6.009 L .274 -6.009 L .274 -7.314 L -2.434 -7.314 L -2.434 -10.16 L .88 -10.16 L .88 -11.494 L -4.221 -11.494 L -4.221 -1.994 L .852 -1.994 Z " fill="#ffffff"/>
<path transform="matrix(1,0,0,-1,95.5369,121.8629)" d="M 0 0 L 3.383 0 L 3.189 -1.458 L -1.787 -1.458 L -1.787 8.042 L 0 8.042 Z " fill="#ffffff"/>
<path transform="matrix(1,0,0,-1,104.2049,111.8268)" d="M 0 0 L -2.873 -1.142 L -3.313 -.262 L -.674 1.319 Z M .66 -3.313 L -2.434 -3.313 L -2.434 -6.009 L .275 -6.009 L .275 -7.314 L -2.434 -7.314 L -2.434 -10.16 L .88 -10.16 L .88 -11.494 L -4.221 -11.494 L -4.221 -1.994 L .853 -1.994 Z " fill="#ffffff"/>
<path transform="matrix(1,0,0,-1,112.5808,114.728199)" d="M 0 0 L -.921 -.948 C -1.512 -.468 -1.993 -.233 -2.722 -.233 C -3.932 -.233 -4.908 -1.113 -4.908 -3.836 C -4.908 -6.585 -4.248 -7.437 -2.97 -7.437 C -2.488 -7.437 -2.048 -7.313 -1.663 -7.08 L -1.663 -4.551 L -2.9 -4.551 L -3.079 -3.23 L .056 -3.23 L .056 -7.864 C -.797 -8.441 -1.855 -8.799 -2.941 -8.799 C -5.444 -8.799 -6.764 -7.19 -6.764 -3.836 C -6.764 -.509 -4.963 1.113 -2.777 1.113 C -1.581 1.113 -.742 .687 0 0 " fill="#ffffff"/>
<path transform="matrix(1,0,0,-1,118.1502,119.7604)" d="M 0 0 L -1.072 4.579 L -2.145 0 Z M .303 -1.347 L -2.447 -1.347 L -2.97 -3.561 L -4.771 -3.561 L -2.131 5.939 L .041 5.939 L 2.667 -3.561 L .825 -3.561 Z " fill="#ffffff"/>
<path transform="matrix(1,0,0,-1,123.574,121.8629)" d="M 0 0 L 3.383 0 L 3.189 -1.458 L -1.787 -1.458 L -1.787 8.042 L 0 8.042 Z " fill="#ffffff"/>
<path transform="matrix(1,0,0,-1,132.9021,115.140308)" d="M 0 0 L -3.094 0 L -3.094 -2.695 L -.385 -2.695 L -.385 -4.001 L -3.094 -4.001 L -3.094 -6.847 L .22 -6.847 L .22 -8.181 L -4.881 -8.181 L -4.881 1.319 L .192 1.319 Z " fill="#ffffff"/>
<path transform="matrix(1,0,0,-1,45.8289,127.640308)" d="M 0 0 L -3.093 0 L -3.093 -2.695 L -.385 -2.695 L -.385 -4.001 L -3.093 -4.001 L -3.093 -6.847 L .221 -6.847 L .221 -8.181 L -4.88 -8.181 L -4.88 1.319 L .192 1.319 Z " fill="#ffffff"/>
<path transform="matrix(1,0,0,-1,53.1023,127.7233)" d="M 0 0 L -2.186 0 L -2.186 -8.098 L -3.959 -8.098 L -3.959 0 L -6.241 0 L -6.241 1.402 L .193 1.402 Z " fill="#ffffff"/>
<path transform="matrix(1,0,0,-1,61.6004,129.3454)" d="M 0 0 C 0 1.196 -.591 1.719 -1.801 1.719 L -2.488 1.719 L -2.488 -1.814 L -1.801 -1.814 C -.633 -1.814 0 -1.389 0 0 M 1.842 0 C 1.842 -2.158 .439 -3.148 -1.691 -3.148 L -2.488 -3.148 L -2.488 -6.476 L -4.275 -6.476 L -4.275 3.024 L -1.814 3.024 C .522 3.024 1.842 2.021 1.842 0 " fill="#ffffff"/>
<path transform="matrix(1,0,0,-1,68.0603,132.2604)" d="M 0 0 L -1.072 4.579 L -2.146 0 Z M .302 -1.347 L -2.447 -1.347 L -2.97 -3.561 L -4.771 -3.561 L -2.131 5.939 L .041 5.939 L 2.667 -3.561 L .824 -3.561 Z " fill="#ffffff"/>
<path transform="matrix(1,0,0,-1,75.9724,129.3454)" d="M 0 0 C 0 1.196 -.591 1.719 -1.801 1.719 L -2.488 1.719 L -2.488 -1.814 L -1.801 -1.814 C -.632 -1.814 0 -1.389 0 0 M 1.843 0 C 1.843 -2.158 .44 -3.148 -1.69 -3.148 L -2.488 -3.148 L -2.488 -6.476 L -4.275 -6.476 L -4.275 3.024 L -1.814 3.024 C .522 3.024 1.843 2.021 1.843 0 " fill="#ffffff"/>
<path transform="matrix(1,0,0,-1,0,150)" d="M 80.729 14.179 L 78.94199 14.179 L 78.94199 23.679 L 80.729 23.679 Z " fill="#ffffff"/>
<path transform="matrix(1,0,0,-1,87.4197,127.640308)" d="M 0 0 L -3.094 0 L -3.094 -2.695 L -.385 -2.695 L -.385 -4.001 L -3.094 -4.001 L -3.094 -6.847 L .22 -6.847 L .22 -8.181 L -4.881 -8.181 L -4.881 1.319 L .192 1.319 Z " fill="#ffffff"/>
<path transform="matrix(1,0,0,-1,91.5349,130.7204)" d="M 0 0 C 1.127 0 1.649 .495 1.649 1.608 C 1.649 2.64 1.127 3.094 -.11 3.094 L -.812 3.094 L -.812 0 Z M .165 -1.278 L -.812 -1.278 L -.812 -5.101 L -2.599 -5.101 L -2.599 4.399 L -.097 4.399 C 2.337 4.399 3.492 3.438 3.492 1.608 C 3.492 .413 2.942 -.48 1.787 -.948 L 4.001 -5.101 L 2.034 -5.101 Z " fill="#ffffff"/>
<path transform="matrix(1,0,0,-1,102.1492,127.2829)" d="M 0 0 L -.853 -.977 C -1.457 -.44 -2.034 -.192 -2.722 -.192 C -3.506 -.192 -4.014 -.619 -4.014 -1.334 C -4.014 -2.021 -3.685 -2.365 -2.282 -2.859 C -.742 -3.424 .248 -4.111 .248 -5.829 C .248 -7.493 -.989 -8.744 -3.052 -8.744 C -4.468 -8.744 -5.458 -8.208 -6.2 -7.452 L -5.293 -6.448 C -4.646 -7.012 -3.986 -7.369 -3.12 -7.369 C -2.199 -7.369 -1.608 -6.833 -1.608 -5.926 C -1.608 -5.142 -1.952 -4.743 -3.258 -4.29 C -5.072 -3.644 -5.843 -2.832 -5.843 -1.458 C -5.843 .082 -4.578 1.168 -2.846 1.168 C -1.608 1.168 -.742 .756 0 0 " fill="#ffffff"/>
<path transform="matrix(1,0,0,-1,27.5594,131.7741)" d="M 0 0 L -2.054 0 L -2.054 -5.285 L -6.011 -5.285 L -6.04 0 L -13.776 0 L -13.776 3.291 L -8.6 18.832 L -5.118 17.362 L -9.552 3.711 L -6.011 3.711 L -5.534 9.521 L -2.054 9.521 L -2.054 3.711 L 0 3.711 Z " fill="#ffffff"/>
<path transform="matrix(1,0,0,-1,101.4842,74.071)" d="M 0 0 L -.148 1.242 C 1.188 1.4 2.275 2.508 2.275 3.71 L 2.275 50.694 C 2.275 51.197 2.074 51.653 1.708 51.979 C 1.278 52.359 .655 52.534 0 52.455 L -36.165 48.164 C -37.501 48.006 -38.589 46.898 -38.589 45.697 L -38.589 44.317 L -39.839 44.317 L -39.839 45.697 C -39.839 47.511 -38.257 49.175 -36.313 49.406 L -.147 53.697 C .861 53.814 1.842 53.531 2.538 52.913 C 3.175 52.348 3.525 51.56 3.525 50.694 L 3.525 3.71 C 3.525 1.896 1.943 .231 0 0 " fill="#ffffff"/>
<path transform="matrix(1,0,0,-1,98.2762,79.653)" d="M 0 0 L -33.269 0 C -35.122 0 -36.631 1.507 -36.631 3.359 L -36.631 7.006 L -35.381 7.006 L -35.381 3.359 C -35.381 2.196 -34.434 1.25 -33.269 1.25 L 0 1.25 C 1.165 1.25 2.112 2.196 2.112 3.359 L 2.112 50.345 C 2.112 51.508 1.165 52.454 0 52.454 L -33.269 52.454 C -34.434 52.454 -35.381 51.508 -35.381 50.345 L -35.381 47.611 L -36.631 47.611 L -36.631 50.345 C -36.631 52.197 -35.122 53.704 -33.269 53.704 L 0 53.704 C 1.854 53.704 3.362 52.197 3.362 50.345 L 3.362 3.359 C 3.362 1.507 1.854 0 0 0 " fill="#ffffff"/>
<path transform="matrix(1,0,0,-1,56.1355,41.061204)" d="M 0 0 C -2.811 0 -5.097 -2.284 -5.097 -5.093 C -5.097 -7.901 -2.811 -10.186 0 -10.186 C 2.81 -10.186 5.096 -7.901 5.096 -5.093 C 5.096 -2.284 2.81 0 0 0 M 0 -11.436 C -3.5 -11.436 -6.347 -8.59 -6.347 -5.093 C -6.347 -1.596 -3.5 1.25 0 1.25 C 3.499 1.25 6.346 -1.596 6.346 -5.093 C 6.346 -8.59 3.499 -11.436 0 -11.436 " fill="#ffffff"/>
<path transform="matrix(1,0,0,-1,66.9138,44.856103)" d="M 0 0 L -1.25 0 L -1.25 8.224 L -9.479 8.224 L -9.479 9.474 L 0 9.474 Z " fill="#ffffff"/>
<path transform="matrix(1,0,0,-1,66.9138,56.9254)" d="M 0 0 L -9.479 0 L -9.479 1.25 L -1.25 1.25 L -1.25 9.474 L 0 9.474 Z " fill="#ffffff"/>
<path transform="matrix(1,0,0,-1,54.8367,56.9254)" d="M 0 0 L -9.479 0 L -9.479 9.474 L -8.229 9.474 L -8.229 1.25 L 0 1.25 Z " fill="#ffffff"/>
<path transform="matrix(1,0,0,-1,46.6072,44.856103)" d="M 0 0 L -1.25 0 L -1.25 9.474 L 8.229 9.474 L 8.229 8.224 L 0 8.224 Z " fill="#ffffff"/>
<path transform="matrix(1,0,0,-1,0,150)" d="M 46.26 87.019 L 45.01 87.019 L 45.01 88.269 L 46.26 88.269 Z M 48.76 87.019 L 47.51 87.019 L 47.51 88.269 L 48.76 88.269 Z M 51.26 87.019 L 50.01 87.019 L 50.01 88.269 L 51.26 88.269 Z M 53.76 87.019 L 52.51 87.019 L 52.51 88.269 L 53.76 88.269 Z M 56.26 87.019 L 55.01 87.019 L 55.01 88.269 L 56.26 88.269 Z M 58.566 87.019 L 57.509004 87.019 L 57.509004 88.269 L 58.566 88.269 Z " fill="#ffffff"/>
<path transform="matrix(1,0,0,-1,0,150)" d="M 64.173 87.019 L 62.922998 87.019 L 62.922998 88.269 L 64.173 88.269 Z M 66.673 87.019 L 65.423 87.019 L 65.423 88.269 L 66.673 88.269 Z M 69.173 87.019 L 67.923 87.019 L 67.923 88.269 L 69.173 88.269 Z M 71.673 87.019 L 70.423 87.019 L 70.423 88.269 L 71.673 88.269 Z M 74.173 87.019 L 72.923 87.019 L 72.923 88.269 L 74.173 88.269 Z M 76.478 87.019 L 75.422 87.019 L 75.422 88.269 L 76.478 88.269 Z " fill="#ffffff"/>
<path transform="matrix(1,0,0,-1,0,150)" d="M 82.086 87.019 L 80.836 87.019 L 80.836 88.269 L 82.086 88.269 Z M 84.586 87.019 L 83.336 87.019 L 83.336 88.269 L 84.586 88.269 Z M 87.086 87.019 L 85.836 87.019 L 85.836 88.269 L 87.086 88.269 Z M 89.586 87.019 L 88.336 87.019 L 88.336 88.269 L 89.586 88.269 Z M 92.086 87.019 L 90.836 87.019 L 90.836 88.269 L 92.086 88.269 Z M 94.391 87.019 L 93.335 87.019 L 93.335 88.269 L 94.391 88.269 Z " fill="#ffffff"/>
<path transform="matrix(1,0,0,-1,0,150)" d="M 46.26 81.105 L 45.01 81.105 L 45.01 82.355 L 46.26 82.355 Z M 48.76 81.105 L 47.51 81.105 L 47.51 82.355 L 48.76 82.355 Z M 51.26 81.105 L 50.01 81.105 L 50.01 82.355 L 51.26 82.355 Z M 53.76 81.105 L 52.51 81.105 L 52.51 82.355 L 53.76 82.355 Z M 56.26 81.105 L 55.01 81.105 L 55.01 82.355 L 56.26 82.355 Z M 58.76 81.105 L 57.51 81.105 L 57.51 82.355 L 58.76 82.355 Z M 61.26 81.105 L 60.01 81.105 L 60.01 82.355 L 61.26 82.355 Z M 63.76 81.105 L 62.51 81.105 L 62.51 82.355 L 63.76 82.355 Z M 66.26 81.105 L 65.01 81.105 L 65.01 82.355 L 66.26 82.355 Z M 68.76 81.105 L 67.51 81.105 L 67.51 82.355 L 68.76 82.355 Z M 71.26 81.105 L 70.01 81.105 L 70.01 82.355 L 71.26 82.355 Z M 73.76 81.105 L 72.51 81.105 L 72.51 82.355 L 73.76 82.355 Z M 76.26 81.105 L 75.01 81.105 L 75.01 82.355 L 76.26 82.355 Z M 78.76 81.105 L 77.51 81.105 L 77.51 82.355 L 78.76 82.355 Z M 81.26 81.105 L 80.01 81.105 L 80.01 82.355 L 81.26 82.355 Z M 83.76 81.105 L 82.51 81.105 L 82.51 82.355 L 83.76 82.355 Z M 86.26 81.105 L 85.01 81.105 L 85.01 82.355 L 86.26 82.355 Z M 88.76 81.105 L 87.51 81.105 L 87.51 82.355 L 88.76 82.355 Z M 91.26 81.105 L 90.01 81.105 L 90.01 82.355 L 91.26 82.355 Z M 93.76 81.105 L 92.51 81.105 L 92.51 82.355 L 93.76 82.355 Z " fill="#ffffff"/>
<path transform="matrix(1,0,0,-1,0,150)" d="M 74.807 111.202 L 76.904 111.202 L 76.904 97.422008 L 74.807 97.422008 Z " fill="#ffffff"/>
<path transform="matrix(1,0,0,-1,82.9978,50.4655)" d="M 0 0 C 2.475 0 4.523 1.365 4.523 4.823 C 4.523 7.682 2.736 9.557 .246 9.557 L -1.459 9.557 L -1.459 0 Z M -3.557 -2.112 L -3.557 11.668 L .033 11.668 C 3.736 11.668 6.752 9.283 6.752 4.769 C 6.752 .4 3.949 -2.112 -.278 -2.112 Z " fill="#ffffff"/>
</g>
</g>
</g>
</svg>
