<?xml version="1.0" encoding="UTF-8" standalone="no"?>
<!DOCTYPE svg PUBLIC "-//W3C//DTD SVG 1.1//EN" "http://www.w3.org/Graphics/SVG/1.1/DTD/svg11.dtd">
<svg xmlns="http://www.w3.org/2000/svg" xmlns:xlink="http://www.w3.org/1999/xlink" version="1.1" width="150pt" height="150pt" viewBox="0 0 150 150">
<g enable-background="new">
<g id="Layer-1" data-name="03 Negative EN">
<path transform="matrix(1,0,0,-1,0,150)" d="M 0 50.073 L 149.95 50.073 L 149.95 150 L 0 150 Z " fill="#1c3664"/>
<path transform="matrix(1,0,0,-1,0,150)" d="M 0 .074 L 149.95 .074 L 149.95 50.073 L 0 50.073 Z " fill="#dc1768"/>
<clipPath id="cp0">
<path transform="matrix(1,0,0,-1,0,150)" d="M 0 150 L 150 150 L 150 0 L 0 0 Z "/>
</clipPath>
<g clip-path="url(#cp0)">
<path transform="matrix(1,0,0,-1,26.0115,118.997608)" d="M 0 0 C 0 -2.87 -1.339 -4.76 -3.838 -5.565 C -1.31 -5.915 .595 -7.7 .595 -11.341 C .595 -15.261 -1.875 -18.622 -6.278 -18.622 C -8.956 -18.622 -10.92 -17.361 -12.467 -15.156 L -10.176 -12.706 C -8.956 -14.176 -7.944 -14.876 -6.517 -14.876 C -4.85 -14.876 -3.63 -13.546 -3.63 -11.096 C -3.63 -8.4 -4.79 -7.421 -6.813 -7.421 L -8.242 -7.421 L -7.766 -4.06 L -6.813 -4.06 C -5.118 -4.06 -3.987 -2.87 -3.987 -.63 C -3.987 1.296 -4.969 2.346 -6.517 2.346 C -7.796 2.346 -8.927 1.681 -9.998 .386 L -12.051 2.905 C -10.354 4.936 -8.361 5.986 -6.011 5.986 C -2.202 5.986 0 3.256 0 0 " fill="#ffffff"/>
<path transform="matrix(1,0,0,-1,40.949,113.8209)" d="M 0 0 L 4.949 0 L 4.757 -1.319 L 1.787 -1.319 L 1.787 -4.207 L 4.371 -4.207 L 4.371 -5.526 L 1.787 -5.526 L 1.787 -9.5 L 0 -9.5 Z " fill="#ffffff"/>
<path transform="matrix(1,0,0,-1,48.3377,118.5767)" d="M 0 0 C 0 -2.654 .715 -3.589 1.911 -3.589 C 3.162 -3.589 3.836 -2.654 3.836 .014 C 3.836 2.639 3.162 3.602 1.911 3.602 C .687 3.602 0 2.639 0 0 M 5.705 .014 C 5.705 -3.231 4.262 -4.949 1.911 -4.949 C -.412 -4.949 -1.87 -3.286 -1.87 0 C -1.87 3.23 -.412 4.963 1.911 4.963 C 4.248 4.963 5.705 3.313 5.705 .014 " fill="#ffffff"/>
<path transform="matrix(1,0,0,-1,61.867,120.4605)" d="M 0 0 C 0 -1.732 -1.101 -3.065 -3.245 -3.065 C -5.417 -3.065 -6.489 -1.774 -6.489 0 L -6.489 6.64 L -4.702 6.64 L -4.702 .097 C -4.702 -1.087 -4.262 -1.678 -3.245 -1.678 C -2.241 -1.678 -1.787 -1.087 -1.787 .097 L -1.787 6.64 L 0 6.64 Z " fill="#ffffff"/>
<path transform="matrix(1,0,0,-1,66.2127,118.2193)" d="M 0 0 C 1.128 0 1.65 .494 1.65 1.607 C 1.65 2.639 1.128 3.093 -.109 3.093 L -.811 3.093 L -.811 0 Z M .165 -1.279 L -.811 -1.279 L -.811 -5.102 L -2.598 -5.102 L -2.598 4.398 L -.096 4.398 C 2.338 4.398 3.492 3.437 3.492 1.607 C 3.492 .412 2.942 -.481 1.788 -.949 L 4.001 -5.102 L 2.035 -5.102 Z " fill="#ffffff"/>
<path transform="matrix(1,0,0,-1,77.6668,123.3209)" d="M 0 0 L -2.282 0 L -5.06 7.74 C -4.978 6.889 -4.826 5.692 -4.826 3.946 L -4.826 0 L -6.421 0 L -6.421 9.5 L -4.166 9.5 L -1.361 1.76 C -1.444 2.297 -1.595 3.644 -1.595 4.991 L -1.595 9.5 L 0 9.5 Z " fill="#ffffff"/>
<path transform="matrix(1,0,0,-1,0,150)" d="M 81.278 26.679 L 79.491 26.679 L 79.491 36.179 L 81.278 36.179 Z " fill="#ffffff"/>
<path transform="matrix(1,0,0,-1,88.5564,115.223209)" d="M 0 0 L -2.186 0 L -2.186 -8.098 L -3.959 -8.098 L -3.959 0 L -6.241 0 L -6.241 1.402 L .193 1.402 Z " fill="#ffffff"/>
<path transform="matrix(1,0,0,-1,96.1814,120.4605)" d="M 0 0 C 0 -1.732 -1.101 -3.065 -3.245 -3.065 C -5.417 -3.065 -6.489 -1.774 -6.489 0 L -6.489 6.64 L -4.702 6.64 L -4.702 .097 C -4.702 -1.087 -4.262 -1.678 -3.245 -1.678 C -2.241 -1.678 -1.787 -1.087 -1.787 .097 L -1.787 6.64 L 0 6.64 Z " fill="#ffffff"/>
<path transform="matrix(1,0,0,-1,100.5281,118.2193)" d="M 0 0 C 1.127 0 1.649 .494 1.649 1.607 C 1.649 2.639 1.127 3.093 -.11 3.093 L -.812 3.093 L -.812 0 Z M .165 -1.279 L -.812 -1.279 L -.812 -5.102 L -2.599 -5.102 L -2.599 4.398 L -.097 4.398 C 2.337 4.398 3.492 3.437 3.492 1.607 C 3.492 .412 2.942 -.481 1.787 -.949 L 4.001 -5.102 L 2.034 -5.102 Z " fill="#ffffff"/>
<path transform="matrix(1,0,0,-1,110.4412,115.1402)" d="M 0 0 L -3.093 0 L -3.093 -2.694 L -.385 -2.694 L -.385 -4.001 L -3.093 -4.001 L -3.093 -6.847 L .221 -6.847 L .221 -8.181 L -4.88 -8.181 L -4.88 1.319 L .192 1.319 Z " fill="#ffffff"/>
<path transform="matrix(1,0,0,-1,42.7361,127.6539)" d="M 0 0 L 0 -6.833 L .756 -6.833 C 1.993 -6.833 2.983 -6.214 2.983 -3.368 C 2.983 -.468 1.938 0 .715 0 Z M 4.825 -3.368 C 4.825 -7.245 2.735 -8.167 .632 -8.167 L -1.787 -8.167 L -1.787 1.333 L .439 1.333 C 2.694 1.333 4.825 .618 4.825 -3.368 " fill="#ffffff"/>
<path transform="matrix(1,0,0,-1,50.5515,126.3482)" d="M 0 0 C 0 -.303 -.097 -.577 -.303 -1.072 L -1.113 -2.928 L -2.021 -2.928 L -1.513 -.824 C -1.773 -.633 -1.938 -.371 -1.938 -.014 C -1.938 .537 -1.526 .963 -.963 .963 C -.385 .963 0 .537 0 0 " fill="#ffffff"/>
<path transform="matrix(1,0,0,-1,0,150)" d="M 53.77 14.179 L 51.983 14.179 L 51.983 23.679 L 53.77 23.679 Z " fill="#ffffff"/>
<path transform="matrix(1,0,0,-1,61.9998,135.82089)" d="M 0 0 L -2.282 0 L -5.06 7.74 C -4.977 6.889 -4.825 5.692 -4.825 3.946 L -4.825 0 L -6.42 0 L -6.42 9.5 L -4.166 9.5 L -1.361 1.76 C -1.443 2.297 -1.595 3.644 -1.595 4.991 L -1.595 9.5 L 0 9.5 Z " fill="#ffffff"/>
<path transform="matrix(1,0,0,-1,63.8289,126.3209)" d="M 0 0 L 4.949 0 L 4.757 -1.319 L 1.787 -1.319 L 1.787 -4.207 L 4.371 -4.207 L 4.371 -5.526 L 1.787 -5.526 L 1.787 -9.5 L 0 -9.5 Z " fill="#ffffff"/>
<path transform="matrix(1,0,0,-1,71.2166,131.0767)" d="M 0 0 C 0 -2.654 .715 -3.589 1.911 -3.589 C 3.162 -3.589 3.836 -2.654 3.836 .014 C 3.836 2.639 3.162 3.602 1.911 3.602 C .687 3.602 0 2.639 0 0 M 5.706 .014 C 5.706 -3.231 4.263 -4.949 1.911 -4.949 C -.412 -4.949 -1.869 -3.286 -1.869 0 C -1.869 3.23 -.412 4.963 1.911 4.963 C 4.249 4.963 5.706 3.313 5.706 .014 " fill="#ffffff"/>
<path transform="matrix(1,0,0,-1,80.9666,130.7193)" d="M 0 0 C 1.128 0 1.65 .494 1.65 1.607 C 1.65 2.639 1.128 3.093 -.109 3.093 L -.811 3.093 L -.811 0 Z M .165 -1.279 L -.811 -1.279 L -.811 -5.102 L -2.598 -5.102 L -2.598 4.398 L -.096 4.398 C 2.338 4.398 3.492 3.437 3.492 1.607 C 3.492 .412 2.942 -.481 1.788 -.949 L 4.001 -5.102 L 2.035 -5.102 Z " fill="#ffffff"/>
<path transform="matrix(1,0,0,-1,94.4959,135.82089)" d="M 0 0 L -1.704 0 L -1.91 4.001 C -1.979 5.403 -2.034 6.861 -2.007 7.864 L -3.506 1.031 L -5.169 1.031 L -6.75 7.879 C -6.709 6.613 -6.736 5.307 -6.791 3.946 L -6.983 0 L -8.675 0 L -8.015 9.5 L -5.746 9.5 L -4.303 2.818 L -2.955 9.5 L -.659 9.5 Z " fill="#ffffff"/>
<path transform="matrix(1,0,0,-1,100.073,132.2603)" d="M 0 0 L -1.072 4.579 L -2.146 0 Z M .302 -1.347 L -2.447 -1.347 L -2.97 -3.561 L -4.771 -3.561 L -2.131 5.939 L .041 5.939 L 2.667 -3.561 L .824 -3.561 Z " fill="#ffffff"/>
<path transform="matrix(1,0,0,-1,108.4363,127.7232)" d="M 0 0 L -2.187 0 L -2.187 -8.098 L -3.96 -8.098 L -3.96 0 L -6.242 0 L -6.242 1.402 L .192 1.402 Z " fill="#ffffff"/>
<path transform="matrix(1,0,0,-1,0,150)" d="M 111.428 14.179 L 109.641 14.179 L 109.641 23.679 L 111.428 23.679 Z " fill="#ffffff"/>
<path transform="matrix(1,0,0,-1,114.743,131.0767)" d="M 0 0 C 0 -2.654 .715 -3.589 1.911 -3.589 C 3.162 -3.589 3.836 -2.654 3.836 .014 C 3.836 2.639 3.162 3.602 1.911 3.602 C .687 3.602 0 2.639 0 0 M 5.705 .014 C 5.705 -3.231 4.262 -4.949 1.911 -4.949 C -.412 -4.949 -1.87 -3.286 -1.87 0 C -1.87 3.23 -.412 4.963 1.911 4.963 C 4.248 4.963 5.705 3.313 5.705 .014 " fill="#ffffff"/>
<path transform="matrix(1,0,0,-1,128.3142,135.82089)" d="M 0 0 L -2.282 0 L -5.06 7.74 C -4.977 6.889 -4.825 5.692 -4.825 3.946 L -4.825 0 L -6.42 0 L -6.42 9.5 L -4.166 9.5 L -1.361 1.76 C -1.443 2.297 -1.595 3.644 -1.595 4.991 L -1.595 9.5 L 0 9.5 Z " fill="#ffffff"/>
<path transform="matrix(1,0,0,-1,135.5799,127.2828)" d="M 0 0 L -.853 -.976 C -1.457 -.44 -2.034 -.192 -2.722 -.192 C -3.506 -.192 -4.014 -.618 -4.014 -1.333 C -4.014 -2.021 -3.685 -2.364 -2.282 -2.859 C -.742 -3.423 .248 -4.11 .248 -5.829 C .248 -7.493 -.989 -8.743 -3.052 -8.743 C -4.468 -8.743 -5.458 -8.208 -6.2 -7.452 L -5.293 -6.448 C -4.646 -7.012 -3.986 -7.369 -3.12 -7.369 C -2.199 -7.369 -1.608 -6.833 -1.608 -5.925 C -1.608 -5.142 -1.952 -4.743 -3.258 -4.29 C -5.072 -3.644 -5.843 -2.832 -5.843 -1.458 C -5.843 .083 -4.578 1.169 -2.846 1.169 C -1.608 1.169 -.742 .757 0 0 " fill="#ffffff"/>
<path transform="matrix(1,0,0,-1,0,150)" d="M 70.968 71.125 L 79.033008 71.125 L 79.033008 99.043 L 70.968 99.043 Z M 80.283 69.875 L 69.717998 69.875 L 69.717998 100.293 L 80.283 100.293 Z " fill="#ffffff"/>
<path transform="matrix(1,0,0,-1,0,150)" d="M 70.343 69.875 L 64.812007 69.875 L 64.812007 71.125 L 70.343 71.125 Z " fill="#ffffff"/>
<path transform="matrix(1,0,0,-1,0,150)" d="M 85.095 69.875 L 79.564 69.875 L 79.564 71.125 L 85.095 71.125 Z " fill="#ffffff"/>
<path transform="matrix(1,0,0,-1,74.9998,33.794504)" d="M 0 0 C -2.914 0 -5.285 -2.366 -5.285 -5.275 C -5.285 -8.185 -2.914 -10.551 0 -10.551 C 2.915 -10.551 5.286 -8.185 5.286 -5.275 C 5.286 -2.366 2.915 0 0 0 M 0 -11.801 C -3.604 -11.801 -6.535 -8.873 -6.535 -5.275 C -6.535 -1.678 -3.604 1.25 0 1.25 C 3.604 1.25 6.536 -1.678 6.536 -5.275 C 6.536 -8.873 3.604 -11.801 0 -11.801 " fill="#ffffff"/>
<path transform="matrix(1,0,0,-1,0,150)" d="M 70.343 99.043 L 64.812007 99.043 L 64.812007 100.293 L 70.343 100.293 Z " fill="#ffffff"/>
<path transform="matrix(1,0,0,-1,100.8572,33.774003)" d="M 0 0 C -2.914 0 -5.285 -2.366 -5.285 -5.275 C -5.285 -8.184 -2.914 -10.55 0 -10.55 C 2.915 -10.55 5.286 -8.184 5.286 -5.275 C 5.286 -2.366 2.915 0 0 0 M 0 -11.8 C -3.604 -11.8 -6.535 -8.873 -6.535 -5.275 C -6.535 -1.678 -3.604 1.25 0 1.25 C 3.604 1.25 6.536 -1.678 6.536 -5.275 C 6.536 -8.873 3.604 -11.8 0 -11.8 " fill="#ffffff"/>
<path transform="matrix(1,0,0,-1,49.1424,33.774003)" d="M 0 0 C -2.914 0 -5.285 -2.366 -5.285 -5.275 C -5.285 -8.184 -2.914 -10.55 0 -10.55 C 2.915 -10.55 5.286 -8.184 5.286 -5.275 C 5.286 -2.366 2.915 0 0 0 M 0 -11.8 C -3.604 -11.8 -6.535 -8.873 -6.535 -5.275 C -6.535 -1.678 -3.604 1.25 0 1.25 C 3.604 1.25 6.536 -1.678 6.536 -5.275 C 6.536 -8.873 3.604 -11.8 0 -11.8 " fill="#ffffff"/>
<path transform="matrix(1,0,0,-1,70.3426,74.7203)" d="M 0 0 L -.166 .01 C -13.41 2.334 -23.022 13.774 -23.022 27.214 C -23.022 28.107 -22.978 29.022 -22.888 29.934 L -22.821 30.609 L -22.152 30.486 C -21.826 30.427 -21.506 30.396 -21.2 30.396 C -18.285 30.396 -15.914 32.763 -15.914 35.671 C -15.914 37.703 -17.056 39.52 -18.894 40.411 L -19.506 40.708 L -19.158 41.293 C -14.188 49.652 -5.062 54.846 4.657 54.846 C 14.378 54.846 23.504 49.652 28.474 41.293 L 28.821 40.708 L 28.209 40.411 C 26.371 39.52 25.229 37.703 25.229 35.671 C 25.229 32.763 27.601 30.396 30.515 30.396 C 30.824 30.396 31.137 30.426 31.469 30.487 L 32.138 30.609 L 32.203 29.933 C 32.292 29.019 32.337 28.104 32.337 27.214 C 32.337 13.786 22.734 2.347 9.503 .014 L 9.395 .004 L 9.286 1.244 L 9.315 1.25 L 9.34 1.254 C 21.944 3.503 31.087 14.411 31.087 27.214 C 31.087 27.854 31.062 28.509 31.014 29.167 C 30.845 29.153 30.679 29.146 30.515 29.146 C 26.911 29.146 23.979 32.073 23.979 35.671 C 23.979 37.956 25.145 40.021 27.062 41.205 C 22.248 48.865 13.724 53.596 4.657 53.596 C -4.409 53.596 -12.933 48.865 -17.747 41.205 C -15.829 40.021 -14.664 37.956 -14.664 35.671 C -14.664 32.073 -17.596 29.146 -21.2 29.146 C -21.364 29.146 -21.53 29.153 -21.699 29.167 C -21.748 28.511 -21.772 27.856 -21.772 27.214 C -21.772 14.383 -12.595 3.46 .051 1.24 L -.035 .755 Z " fill="#ffffff"/>
<path transform="matrix(1,0,0,-1,0,150)" d="M 84.845 110.362 L 83.074 110.362 L 83.074 111.612 L 84.845 111.612 Z M 88.387 110.362 L 86.616 110.362 L 86.616 111.612 L 88.387 111.612 Z M 91.931 110.362 L 90.159 110.362 L 90.159 111.612 L 91.931 111.612 Z " fill="#ffffff"/>
<path transform="matrix(1,0,0,-1,0,150)" d="M 59.563 110.362 L 57.792 110.362 L 57.792 111.612 L 59.563 111.612 Z M 63.106 110.362 L 61.335 110.362 L 61.335 111.612 L 63.106 111.612 Z M 66.65 110.362 L 64.878 110.362 L 64.878 111.612 L 66.65 111.612 Z " fill="#ffffff"/>
</g>
</g>
</g>
</svg>
