<?xml version="1.0" encoding="UTF-8" standalone="no"?>
<svg
   xmlns:dc="http://purl.org/dc/elements/1.1/"
   xmlns:cc="http://creativecommons.org/ns#"
   xmlns:rdf="http://www.w3.org/1999/02/22-rdf-syntax-ns#"
   xmlns:svg="http://www.w3.org/2000/svg"
   xmlns="http://www.w3.org/2000/svg"
   viewBox="0 0 200 200"
   height="200"
   width="200"
   xml:space="preserve"
   id="svg2"
   version="1.1"><metadata
     id="metadata8"><rdf:RDF><cc:Work
         rdf:about=""><dc:format>image/svg+xml</dc:format><dc:type
           rdf:resource="http://purl.org/dc/dcmitype/StillImage" /></cc:Work></rdf:RDF></metadata><defs
     id="defs6"><clipPath
       id="clipPath26"
       clipPathUnits="userSpaceOnUse"><path
         id="path24"
         d="M 0,150 H 150 V 0 H 0 Z" /></clipPath></defs><g
     transform="matrix(1.3333333,0,0,-1.3333333,0,200)"
     id="g10"><path
       id="path12"
       style="fill:#003366;fill-opacity:1;fill-rule:nonzero;stroke:none"
       d="M 0,50.073 H 149.95 V 150 H 0 Z" /><path
       id="path14"
       style="fill:#ffc30b;fill-opacity:1;fill-rule:nonzero;stroke:none"
       d="m 0,0.073 h 149.95 v 50 H 0 Z" /><g
       transform="translate(18.1775,12.9403)"
       id="g16"><path
         id="path18"
         style="fill:#ffffff;fill-opacity:1;fill-rule:nonzero;stroke:none"
         d="m 0,0 h -4.017 v 18.797 l -3.897,-3.115 -1.815,3.185 6.07,4.726 H 0 Z" /></g><g
       id="g20"><g
         clip-path="url(#clipPath26)"
         id="g22"><g
           transform="translate(31.8211,30.4422)"
           id="g28"><path
             id="path30"
             style="fill:#ffffff;fill-opacity:1;fill-rule:nonzero;stroke:none"
             d="m 0,0 c 0,-3.851 -1.547,-6.65 -7.23,-13.722 h 7.617 l -0.447,-3.78 h -11.693 v 3.535 c 6.1,8.051 7.498,10.362 7.498,13.582 0,2.031 -0.923,3.151 -2.35,3.151 -1.339,0 -2.203,-0.771 -3.303,-2.381 l -2.47,2.24 c 1.487,2.45 3.511,3.921 6.159,3.921 C -2.202,6.546 0,3.605 0,0" /></g><g
           transform="translate(46.8504,41.6463)"
           id="g32"><path
             id="path34"
             style="fill:#ffffff;fill-opacity:1;fill-rule:nonzero;stroke:none"
             d="m 0,0 -0.879,-1.031 c -0.496,0.413 -0.99,0.646 -1.582,0.646 -1.141,0 -2.007,-0.893 -2.007,-3.56 0,-2.585 0.839,-3.547 2.021,-3.547 0.729,0 1.224,0.344 1.691,0.728 l 0.853,-1.017 c -0.564,-0.591 -1.444,-1.141 -2.626,-1.141 -2.241,0 -3.809,1.65 -3.809,4.977 0,3.286 1.651,4.935 3.781,4.935 1.1,0 1.842,-0.371 2.557,-0.99" /></g><g
           transform="translate(49.2215,37.6737)"
           id="g36"><path
             id="path38"
             style="fill:#ffffff;fill-opacity:1;fill-rule:nonzero;stroke:none"
             d="m 0,0 c 0,-2.653 0.715,-3.589 1.912,-3.589 1.25,0 1.924,0.936 1.924,3.603 0,2.626 -0.674,3.588 -1.924,3.588 C 0.687,3.602 0,2.64 0,0 m 5.706,0.014 c 0,-3.245 -1.443,-4.963 -3.794,-4.963 -2.324,0 -3.781,1.663 -3.781,4.949 0,3.23 1.457,4.963 3.781,4.963 2.337,0 3.794,-1.65 3.794,-4.949" /></g><g
           transform="translate(62.7937,32.9305)"
           id="g40"><path
             id="path42"
             style="fill:#ffffff;fill-opacity:1;fill-rule:nonzero;stroke:none"
             d="M 0,0 H -2.281 L -5.059,7.74 C -4.977,6.888 -4.825,5.691 -4.825,3.945 V 0 H -6.42 v 9.5 h 2.254 L -1.361,1.76 C -1.443,2.296 -1.594,3.643 -1.594,4.99 V 9.5 H 0 Z" /></g><g
           transform="translate(70.0828,41.0282)"
           id="g44"><path
             id="path46"
             style="fill:#ffffff;fill-opacity:1;fill-rule:nonzero;stroke:none"
             d="M 0,0 H -2.186 V -8.098 H -3.959 V 0 h -2.283 v 1.402 h 6.435 z" /></g><g
           transform="translate(73.8855,38.0311)"
           id="g48"><path
             id="path50"
             style="fill:#ffffff;fill-opacity:1;fill-rule:nonzero;stroke:none"
             d="m 0,0 c 1.127,0 1.649,0.495 1.649,1.608 0,1.032 -0.522,1.485 -1.759,1.485 h -0.702 l 0,-3.093 z m 0.164,-1.279 h -0.976 v -3.822 h -1.787 v 9.5 h 2.502 c 2.434,0 3.589,-0.962 3.589,-2.791 0,-1.196 -0.551,-2.089 -1.705,-2.557 L 4,-5.101 H 2.034 Z" /></g><g
           transform="translate(80.2703,37.6737)"
           id="g52"><path
             id="path54"
             style="fill:#ffffff;fill-opacity:1;fill-rule:nonzero;stroke:none"
             d="m 0,0 c 0,-2.653 0.715,-3.589 1.912,-3.589 1.25,0 1.924,0.936 1.924,3.603 0,2.626 -0.674,3.588 -1.924,3.588 C 0.687,3.602 0,2.64 0,0 M -0.357,6.393 1.375,8.056 H 2.434 L 4.166,6.393 3.52,5.691 1.898,6.818 0.275,5.691 Z M 5.706,0.014 c 0,-3.245 -1.443,-4.963 -3.794,-4.963 -2.324,0 -3.781,1.663 -3.781,4.949 0,3.23 1.457,4.963 3.781,4.963 2.337,0 3.794,-1.65 3.794,-4.949" /></g><g
           transform="translate(89.2097,34.3876)"
           id="g56"><path
             id="path58"
             style="fill:#ffffff;fill-opacity:1;fill-rule:nonzero;stroke:none"
             d="M 0,0 H 3.383 L 3.189,-1.457 h -4.976 v 9.5 H 0 Z" /></g><g
           transform="translate(98.5379,41.1102)"
           id="g60"><path
             id="path62"
             style="fill:#ffffff;fill-opacity:1;fill-rule:nonzero;stroke:none"
             d="m 0,0 h -3.094 v -2.694 h 2.709 V -4.001 H -3.094 V -6.847 H 0.22 V -8.18 h -5.101 v 9.5 h 5.072 z" /></g><g
           transform="translate(102.0574,33.8241)"
           id="g64"><path
             id="path66"
             style="fill:#ffffff;fill-opacity:1;fill-rule:nonzero;stroke:none"
             d="m 0,0 c 0,-0.33 -0.109,-0.646 -0.344,-1.224 l -0.81,-2.021 h -1.004 l 0.536,2.338 c -0.302,0.206 -0.482,0.536 -0.482,0.907 0,0.618 0.44,1.086 1.059,1.086 C -0.439,1.086 0,0.618 0,0" /></g><g
           transform="translate(45.1463,31.4237)"
           id="g68"><path
             id="path70"
             style="fill:#ffffff;fill-opacity:1;fill-rule:nonzero;stroke:none"
             d="m 0,0 -2.874,-1.141 -0.439,0.88 2.639,1.581 z M 0.659,-3.313 H -2.434 V -6.008 H 0.274 V -7.314 H -2.434 V -10.16 H 0.88 v -1.333 h -5.101 v 9.5 h 5.074 z" /></g><g
           transform="translate(51.4773,19.9305)"
           id="g72"><path
             id="path74"
             style="fill:#ffffff;fill-opacity:1;fill-rule:nonzero;stroke:none"
             d="m 0,0 h -2.158 l -2.557,9.5 h 1.842 L -1.045,1.567 0.701,9.5 h 1.787 z" /></g><g
           transform="translate(58.3103,23.4911)"
           id="g76"><path
             id="path78"
             style="fill:#ffffff;fill-opacity:1;fill-rule:nonzero;stroke:none"
             d="M 0,0 -1.072,4.578 -2.146,0 Z M 0.302,-1.348 H -2.447 L -2.97,-3.561 h -1.801 l 2.64,9.5 h 2.172 l 2.626,-9.5 H 0.825 Z" /></g><g
           transform="translate(63.7351,21.3876)"
           id="g80"><path
             id="path82"
             style="fill:#ffffff;fill-opacity:1;fill-rule:nonzero;stroke:none"
             d="M 0,0 H 3.382 L 3.189,-1.457 h -4.976 v 9.5 H 0 Z" /></g><g
           transform="translate(74.5008,22.7899)"
           id="g84"><path
             id="path86"
             style="fill:#ffffff;fill-opacity:1;fill-rule:nonzero;stroke:none"
             d="m 0,0 c 0,-1.732 -1.101,-3.065 -3.245,-3.065 -2.173,0 -3.245,1.292 -3.245,3.065 v 6.641 h 1.788 V 0.097 c 0,-1.183 0.44,-1.775 1.457,-1.775 1.003,0 1.458,0.592 1.458,1.775 V 6.641 H 0 Z" /></g><g
           transform="translate(79.8826,23.4911)"
           id="g88"><path
             id="path90"
             style="fill:#ffffff;fill-opacity:1;fill-rule:nonzero;stroke:none"
             d="M 0,0 -1.072,4.578 -2.146,0 Z M 0.302,-1.348 H -2.447 L -2.97,-3.561 h -1.801 l 2.64,9.5 h 2.172 l 2.626,-9.5 H 0.825 Z" /></g><g
           transform="translate(88.2459,28.0282)"
           id="g92"><path
             id="path94"
             style="fill:#ffffff;fill-opacity:1;fill-rule:nonzero;stroke:none"
             d="M 0,0 H -2.187 V -8.098 H -3.96 V 0 h -2.281 v 1.402 h 6.433 z" /></g><path
           id="path96"
           style="fill:#ffffff;fill-opacity:1;fill-rule:nonzero;stroke:none"
           d="M 91.237,19.931 H 89.45 v 9.5 h 1.787 z" /><g
           transform="translate(94.5515,24.6737)"
           id="g98"><path
             id="path100"
             style="fill:#ffffff;fill-opacity:1;fill-rule:nonzero;stroke:none"
             d="m 0,0 c 0,-2.653 0.715,-3.589 1.912,-3.589 1.25,0 1.924,0.936 1.924,3.603 0,2.626 -0.674,3.588 -1.924,3.588 C 0.687,3.602 0,2.64 0,0 m 5.706,0.014 c 0,-3.245 -1.443,-4.963 -3.794,-4.963 -2.324,0 -3.781,1.663 -3.781,4.949 0,3.23 1.457,4.963 3.781,4.963 2.337,0 3.794,-1.65 3.794,-4.949" /></g><g
           transform="translate(108.1238,19.9305)"
           id="g102"><path
             id="path104"
             style="fill:#ffffff;fill-opacity:1;fill-rule:nonzero;stroke:none"
             d="M 0,0 H -2.281 L -5.059,7.74 C -4.977,6.888 -4.825,5.691 -4.825,3.945 V 0 H -6.42 v 9.5 h 2.254 L -1.361,1.76 C -1.443,2.296 -1.594,3.643 -1.594,4.99 V 9.5 H 0 Z" /></g><g
           transform="translate(45.8055,15.1102)"
           id="g106"><path
             id="path108"
             style="fill:#ffffff;fill-opacity:1;fill-rule:nonzero;stroke:none"
             d="m 0,0 h -3.093 v -2.694 h 2.708 V -4.001 H -3.093 V -6.847 H 0.221 V -8.18 H -4.88 v 9.5 h 5.073 z" /></g><g
           transform="translate(53.0789,15.0282)"
           id="g110"><path
             id="path112"
             style="fill:#ffffff;fill-opacity:1;fill-rule:nonzero;stroke:none"
             d="M 0,0 H -2.186 V -8.098 H -3.959 V 0 h -2.282 v 1.402 h 6.434 z" /></g><g
           transform="translate(58.7586,11.6737)"
           id="g114"><path
             id="path116"
             style="fill:#ffffff;fill-opacity:1;fill-rule:nonzero;stroke:none"
             d="m 0,0 c 0,-2.653 0.715,-3.589 1.911,-3.589 1.251,0 1.925,0.936 1.925,3.603 0,2.626 -0.674,3.588 -1.925,3.588 C 0.687,3.602 0,2.64 0,0 m 5.705,0.014 c 0,-3.245 -1.443,-4.963 -3.794,-4.963 -2.323,0 -3.78,1.663 -3.78,4.949 0,3.23 1.457,4.963 3.78,4.963 2.337,0 3.794,-1.65 3.794,-4.949" /></g><g
           transform="translate(68.5086,12.0311)"
           id="g118"><path
             id="path120"
             style="fill:#ffffff;fill-opacity:1;fill-rule:nonzero;stroke:none"
             d="m 0,0 c 1.127,0 1.65,0.495 1.65,1.608 0,1.032 -0.523,1.485 -1.759,1.485 h -0.702 l 0,-3.093 z m 0.165,-1.279 h -0.976 v -3.822 h -1.787 v 9.5 h 2.502 c 2.434,0 3.588,-0.962 3.588,-2.791 0,-1.196 -0.55,-2.089 -1.705,-2.557 L 4.001,-5.101 H 2.035 Z" /></g><path
           id="path122"
           style="fill:#ffffff;fill-opacity:1;fill-rule:nonzero;stroke:none"
           d="m 75.329,6.931 h -1.787 v 9.5 h 1.787 z" /><g
           transform="translate(82.0193,15.1102)"
           id="g124"><path
             id="path126"
             style="fill:#ffffff;fill-opacity:1;fill-rule:nonzero;stroke:none"
             d="m 0,0 h -3.093 v -2.694 h 2.708 V -4.001 H -3.093 V -6.847 H 0.22 V -8.18 h -5.1 v 9.5 h 5.072 z" /></g><g
           transform="translate(89.9568,6.9305)"
           id="g128"><path
             id="path130"
             style="fill:#ffffff;fill-opacity:1;fill-rule:nonzero;stroke:none"
             d="M 0,0 H -2.282 L -5.06,7.74 C -4.978,6.888 -4.825,5.691 -4.825,3.945 V 0 h -1.596 v 9.5 h 2.255 L -1.361,1.76 C -1.444,2.296 -1.595,3.643 -1.595,4.99 V 9.5 H 0 Z" /></g><g
           transform="translate(97.2498,15.0282)"
           id="g132"><path
             id="path134"
             style="fill:#ffffff;fill-opacity:1;fill-rule:nonzero;stroke:none"
             d="M 0,0 H -2.187 V -8.098 H -3.96 V 0 h -2.281 v 1.402 h 6.433 z" /></g><g
           transform="translate(101.5379,10.4911)"
           id="g136"><path
             id="path138"
             style="fill:#ffffff;fill-opacity:1;fill-rule:nonzero;stroke:none"
             d="M 0,0 -1.072,4.578 -2.145,0 Z m 0.303,-1.348 h -2.75 L -2.97,-3.561 h -1.801 l 2.64,9.5 h 2.172 l 2.626,-9.5 H 0.824 Z" /></g><g
           transform="translate(109.9012,15.0282)"
           id="g140"><path
             id="path142"
             style="fill:#ffffff;fill-opacity:1;fill-rule:nonzero;stroke:none"
             d="M 0,0 H -2.186 V -8.098 H -3.959 V 0 h -2.283 v 1.402 h 6.435 z" /></g><path
           id="path144"
           style="fill:#ffffff;fill-opacity:1;fill-rule:nonzero;stroke:none"
           d="m 112.892,6.931 h -1.787 v 9.5 h 1.787 z" /><g
           transform="translate(116.2078,11.6737)"
           id="g146"><path
             id="path148"
             style="fill:#ffffff;fill-opacity:1;fill-rule:nonzero;stroke:none"
             d="m 0,0 c 0,-2.653 0.715,-3.589 1.91,-3.589 1.252,0 1.926,0.936 1.926,3.603 C 3.836,2.64 3.162,3.602 1.91,3.602 0.687,3.602 0,2.64 0,0 m 5.705,0.014 c 0,-3.245 -1.443,-4.963 -3.795,-4.963 -2.322,0 -3.78,1.663 -3.78,4.949 0,3.23 1.458,4.963 3.78,4.963 2.338,0 3.795,-1.65 3.795,-4.949" /></g><g
           transform="translate(129.7801,6.9305)"
           id="g150"><path
             id="path152"
             style="fill:#ffffff;fill-opacity:1;fill-rule:nonzero;stroke:none"
             d="M 0,0 H -2.283 L -5.061,7.74 C -4.978,6.888 -4.826,5.691 -4.826,3.945 V 0 h -1.595 v 9.5 h 2.255 L -1.361,1.76 C -1.444,2.296 -1.596,3.643 -1.596,4.99 V 9.5 H 0 Z" /></g><g
           transform="translate(67.9041,79.3573)"
           id="g154"><path
             id="path156"
             style="fill:#ffffff;fill-opacity:1;fill-rule:nonzero;stroke:none"
             d="m 0,0 c 0.139,0 0.278,-0.021 0.415,-0.064 0.828,-0.263 1.695,-0.477 2.58,-0.637 0.551,-0.1 0.983,-0.513 1.1,-1.054 l 0.358,-1.663 c 0.012,-0.055 0.062,-0.095 0.118,-0.095 h 5.59 c 0.057,0 0.107,0.039 0.118,0.094 l 0.406,1.882 c 0.11,0.509 0.512,0.917 1.025,1.039 0.804,0.191 1.618,0.439 2.42,0.737 0.531,0.196 1.119,0.056 1.495,-0.361 l 1.26,-1.389 c 0.039,-0.043 0.104,-0.051 0.153,-0.023 l 4.841,2.786 c 0.049,0.027 0.071,0.085 0.054,0.137 l -0.701,2.158 c -0.16,0.494 -0.026,1.028 0.351,1.394 0.543,0.532 1.054,1.083 1.517,1.642 0.363,0.434 0.939,0.606 1.472,0.433 l 2.121,-0.685 c 0.055,-0.019 0.117,0.005 0.144,0.055 l 2.797,4.825 c 0.028,0.049 0.018,0.108 -0.024,0.146 l -1.993,1.792 c -0.38,0.343 -0.534,0.866 -0.402,1.364 0.154,0.582 0.288,1.202 0.397,1.841 0.095,0.557 0.511,0.993 1.061,1.11 l 2.578,0.55 c 0.057,0.011 0.096,0.059 0.096,0.115 l 10e-4,5.569 c 0,0.057 -0.04,0.105 -0.098,0.116 l -3.016,0.643 c -0.502,0.107 -0.898,0.484 -1.034,0.984 -0.135,0.503 -0.288,0.996 -0.459,1.482 -0.185,0.522 -0.04,1.099 0.371,1.47 l 2.226,2.003 c 0.042,0.038 0.052,0.098 0.023,0.146 l -2.797,4.824 c -0.027,0.05 -0.086,0.07 -0.142,0.054 l -3.187,-1.026 c -0.495,-0.158 -1.031,-0.026 -1.397,0.346 -0.316,0.318 -0.638,0.629 -0.973,0.928 -0.405,0.362 -0.56,0.928 -0.394,1.439 l 0.99,3.058 c 0.018,0.053 -0.005,0.108 -0.053,0.137 l -4.841,2.785 c -0.051,0.032 -0.114,0.018 -0.153,-0.024 l -2.277,-2.508 c -0.351,-0.387 -0.885,-0.54 -1.389,-0.392 -0.426,0.123 -0.855,0.233 -1.29,0.331 -0.52,0.118 -0.928,0.527 -1.038,1.041 L 9.738,44.703 C 9.727,44.758 9.677,44.798 9.62,44.798 H 4.03 c -0.056,0 -0.106,-0.04 -0.119,-0.095 L 3.229,41.536 C 3.119,41.021 2.71,40.611 2.188,40.493 1.716,40.386 1.25,40.263 0.79,40.124 0.282,39.973 -0.272,40.125 -0.624,40.513 l -2.068,2.281 c -0.037,0.043 -0.103,0.053 -0.152,0.024 l -4.843,-2.785 c -0.049,-0.028 -0.072,-0.085 -0.054,-0.137 l 0.909,-2.797 c 0.167,-0.512 0.012,-1.078 -0.394,-1.443 -0.212,-0.188 -0.416,-0.38 -0.616,-0.575 -0.205,-0.201 -0.407,-0.405 -0.606,-0.614 -0.362,-0.382 -0.916,-0.524 -1.417,-0.363 l -2.637,0.848 c -0.059,0.017 -0.115,-0.007 -0.143,-0.055 l -2.795,-4.823 c -0.029,-0.049 -0.019,-0.107 0.022,-0.144 l 1.896,-1.705 c 0.409,-0.369 0.556,-0.945 0.374,-1.467 -0.244,-0.696 -0.436,-1.342 -0.588,-1.975 -0.125,-0.52 -0.526,-0.912 -1.043,-1.023 l -2.282,-0.487 c -0.054,-0.011 -0.094,-0.06 -0.094,-0.115 v -5.571 c 0,-0.056 0.039,-0.104 0.095,-0.115 l 2.115,-0.451 c 0.536,-0.114 0.95,-0.538 1.056,-1.081 0.155,-0.792 0.351,-1.568 0.585,-2.309 0.162,-0.512 0.011,-1.072 -0.384,-1.428 l -1.458,-1.311 c -0.041,-0.038 -0.05,-0.098 -0.023,-0.145 l 2.796,-4.824 c 0.027,-0.049 0.087,-0.071 0.144,-0.055 l 1.787,0.573 C -9.931,6.606 -9.362,6.451 -9,6.043 -8.421,5.392 -7.797,4.771 -7.145,4.197 -6.731,3.835 -6.573,3.268 -6.741,2.751 L -7.269,1.122 c -0.017,-0.053 0.006,-0.11 0.055,-0.139 l 4.838,-2.786 c 0.053,-0.031 0.114,-0.018 0.153,0.024 l 1.209,1.334 C -0.752,-0.157 -0.381,0 0,0 m 10.161,-4.763 h -5.59 c -0.64,0 -1.205,0.454 -1.341,1.081 l -0.358,1.663 c -0.009,0.045 -0.047,0.079 -0.099,0.087 -0.938,0.17 -1.858,0.398 -2.735,0.676 -0.046,0.013 -0.096,0.004 -0.127,-0.03 L -1.297,-2.619 C -1.728,-3.095 -2.443,-3.207 -3,-2.886 L -7.839,-0.1 c -0.557,0.324 -0.817,0.998 -0.619,1.608 l 0.527,1.629 c 0.014,0.043 0,0.088 -0.038,0.121 -0.691,0.607 -1.352,1.265 -1.966,1.955 -0.032,0.037 -0.081,0.05 -0.126,0.039 l -1.788,-0.573 c -0.61,-0.198 -1.286,0.064 -1.606,0.617 l -2.796,4.824 c -0.321,0.557 -0.208,1.272 0.27,1.701 l 1.457,1.311 c 0.033,0.029 0.044,0.075 0.029,0.122 -0.249,0.786 -0.458,1.609 -0.62,2.447 -0.01,0.05 -0.045,0.088 -0.091,0.098 l -2.113,0.45 c -0.629,0.134 -1.086,0.696 -1.086,1.338 v 5.571 c 0,0.642 0.456,1.204 1.085,1.338 l 2.28,0.486 c 0.043,0.009 0.077,0.045 0.089,0.094 0.162,0.674 0.366,1.359 0.623,2.093 0.016,0.047 0.005,0.095 -0.03,0.126 L -16.254,29 c -0.478,0.431 -0.591,1.146 -0.267,1.702 l 2.794,4.822 c 0.322,0.554 0.998,0.814 1.608,0.618 l 2.638,-0.849 c 0.043,-0.015 0.092,-0.002 0.127,0.035 0.21,0.221 0.422,0.437 0.639,0.648 0.214,0.209 0.433,0.414 0.656,0.613 0.028,0.024 0.055,0.071 0.038,0.122 l -0.91,2.798 c -0.198,0.61 0.063,1.286 0.619,1.607 l 4.844,2.785 c 0.554,0.319 1.27,0.207 1.7,-0.266 l 2.071,-2.283 c 0.03,-0.034 0.082,-0.045 0.128,-0.031 0.487,0.147 0.98,0.278 1.48,0.391 0.05,0.012 0.087,0.045 0.096,0.087 l 0.682,3.169 c 0.137,0.626 0.701,1.08 1.341,1.08 h 5.59 c 0.641,0 1.205,-0.454 1.341,-1.081 l 0.682,-3.169 c 0.008,-0.042 0.043,-0.074 0.091,-0.085 0.457,-0.103 0.912,-0.22 1.36,-0.349 0.042,-0.012 0.088,-0.002 0.117,0.031 l 2.278,2.509 c 0.432,0.475 1.15,0.588 1.702,0.266 l 4.839,-2.784 c 0.558,-0.321 0.819,-0.996 0.62,-1.607 l -0.99,-3.056 c -0.014,-0.042 0.001,-0.089 0.038,-0.123 0.354,-0.317 0.696,-0.644 1.03,-0.981 0.034,-0.037 0.083,-0.05 0.126,-0.035 l 3.184,1.025 c 0.611,0.201 1.287,-0.062 1.608,-0.616 l 2.797,-4.824 c 0.323,-0.557 0.208,-1.273 -0.269,-1.702 l -2.226,-2.004 c -0.034,-0.03 -0.045,-0.078 -0.028,-0.124 0.182,-0.517 0.345,-1.039 0.487,-1.571 0.013,-0.045 0.046,-0.08 0.088,-0.088 l 3.017,-0.643 c 0.63,-0.136 1.086,-0.698 1.086,-1.339 l -10e-4,-5.569 c 0,-0.642 -0.457,-1.204 -1.086,-1.338 l -2.578,-0.55 c -0.045,-0.01 -0.079,-0.048 -0.088,-0.096 -0.116,-0.678 -0.258,-1.334 -0.421,-1.952 -0.006,-0.022 -0.015,-0.075 0.029,-0.115 l 1.994,-1.792 c 0.479,-0.432 0.591,-1.148 0.268,-1.703 L 27.919,5.759 C 27.599,5.205 26.922,4.945 26.312,5.142 L 24.188,5.826 C 24.134,5.846 24.088,5.815 24.062,5.783 23.571,5.193 23.031,4.608 22.455,4.046 22.421,4.013 22.409,3.972 22.421,3.934 L 23.122,1.775 C 23.32,1.164 23.06,0.488 22.501,0.168 L 17.66,-2.618 c -0.556,-0.319 -1.271,-0.205 -1.7,0.266 l -1.261,1.391 c -0.032,0.037 -0.085,0.047 -0.135,0.028 -0.847,-0.315 -1.71,-0.578 -2.565,-0.782 -0.048,-0.011 -0.083,-0.044 -0.092,-0.086 l -0.405,-1.881 c -0.134,-0.626 -0.698,-1.081 -1.341,-1.081" /></g><g
           transform="translate(93.7342,95.0253)"
           id="g158"><path
             id="path160"
             style="fill:#ffffff;fill-opacity:1;fill-rule:nonzero;stroke:none"
             d="m 0,0 h -11.139 v 11.101 h 7.576 V 9.851 H -9.889 V 1.25 H -1.25 V 4.625 H 0 Z" /></g><g
           transform="translate(88.3094,97.994)"
           id="g162"><path
             id="path164"
             style="fill:#ffffff;fill-opacity:1;fill-rule:nonzero;stroke:none"
             d="m 0,0 -3.231,3.579 0.927,0.838 2.265,-2.509 3.881,4.67 0.961,-0.799 z" /></g><g
           transform="translate(79.3211,86.8075)"
           id="g166"><path
             id="path168"
             style="fill:#ffffff;fill-opacity:1;fill-rule:nonzero;stroke:none"
             d="m 0,0 -0.082,0.823 c -0.218,2.2 -2.046,3.86 -4.252,3.86 -2.205,0 -4.034,-1.659 -4.253,-3.858 L -8.669,0.001 -9.438,0.306 c -3.784,1.495 -6.711,4.548 -8.031,8.38 l -0.285,0.828 h 3.264 l 2.477,4.276 -2.477,4.275 h -2.872 l 0.41,0.887 c 1.509,3.267 4.185,5.79 7.535,7.107 l 0.736,0.289 0.112,-0.784 c 0.297,-2.099 2.118,-3.682 4.235,-3.682 2.118,0 3.939,1.585 4.235,3.685 l 0.111,0.784 0.736,-0.289 C 4.083,24.756 6.845,22.143 8.325,18.893 L 7.188,18.375 C 5.942,21.108 3.7,23.348 0.97,24.609 0.288,22.294 -1.867,20.632 -4.334,20.632 c -2.466,0 -4.621,1.661 -5.304,3.974 -2.43,-1.12 -4.423,-2.962 -5.727,-5.291 h 1.595 l 3.203,-5.525 -3.203,-5.526 h -2.199 c 1.218,-2.861 3.451,-5.17 6.282,-6.492 0.613,2.422 2.786,4.161 5.353,4.161 2.568,0 4.74,-1.74 5.353,-4.163 3.098,1.441 5.483,4.062 6.602,7.293 L 8.803,8.652 C 7.479,4.836 4.552,1.793 0.77,0.304 Z" /></g><g
           transform="translate(75.0164,69.8827)"
           id="g170"><path
             id="path172"
             style="fill:#ffffff;fill-opacity:1;fill-rule:nonzero;stroke:none"
             d="m 0,0 c -7.766,0 -15.518,2.957 -21.398,8.815 -11.53,11.486 -11.748,30.376 -0.485,42.111 l 0.903,-0.865 C -31.774,38.813 -31.566,20.708 -20.516,9.7 -9.69,-1.083 7.756,-1.614 19.197,8.495 L 20.025,7.558 C 14.305,2.505 7.146,0 0,0" /></g><g
           transform="translate(50.3191,120.5419)"
           id="g174"><path
             id="path176"
             style="fill:#ffffff;fill-opacity:1;fill-rule:nonzero;stroke:none"
             d="M 0,0 0.053,-0.623 3.123,-0.361 3.16,-3.443 3.786,-3.436 3.74,0.318 Z" /></g><g
           transform="translate(96.867,79.1913)"
           id="g178"><path
             id="path180"
             style="fill:#ffffff;fill-opacity:1;fill-rule:nonzero;stroke:none"
             d="M 0,0 -0.902,0.865 C 9.892,12.112 9.683,30.218 -1.368,41.226 -12.044,51.86 -29.354,52.509 -40.774,42.698 l -0.815,0.949 C -29.677,53.878 -11.621,53.205 -0.485,42.11 11.044,30.626 11.262,11.735 0,0" /></g><g
           transform="translate(99.6805,79.4579)"
           id="g182"><path
             id="path184"
             style="fill:#ffffff;fill-opacity:1;fill-rule:nonzero;stroke:none"
             d="M 0,0 -0.052,0.624 -3.123,0.361 -3.16,3.443 -3.785,3.436 -3.739,-0.318 Z" /></g><g
           transform="translate(59.8699,96.3212)"
           id="g186"><path
             id="path188"
             style="fill:#ffffff;fill-opacity:1;fill-rule:nonzero;stroke:none"
             d="M 0,0 H 4.961 L 7.438,4.276 4.961,8.552 H 0 L -2.478,4.276 Z m 5.682,-1.25 h -6.403 l -3.202,5.526 3.202,5.526 H 5.682 L 8.884,4.276 Z" /></g><g
           transform="translate(74.9871,117.2479)"
           id="g190"><path
             id="path192"
             style="fill:#ffffff;fill-opacity:1;fill-rule:nonzero;stroke:none"
             d="m 0,0 c -2.37,0 -4.299,-1.92 -4.299,-4.279 0,-2.36 1.929,-4.28 4.299,-4.28 2.37,0 4.298,1.92 4.298,4.28 C 4.298,-1.92 2.37,0 0,0 m 0,-9.809 c -3.06,0 -5.549,2.481 -5.549,5.53 0,3.049 2.489,5.529 5.549,5.529 3.06,0 5.548,-2.48 5.548,-5.529 0,-3.049 -2.488,-5.53 -5.548,-5.53" /></g><g
           transform="translate(74.9871,91.4901)"
           id="g194"><path
             id="path196"
             style="fill:#ffffff;fill-opacity:1;fill-rule:nonzero;stroke:none"
             d="m 0,0 c -2.37,0 -4.299,-1.92 -4.299,-4.279 0,-2.36 1.929,-4.28 4.299,-4.28 2.37,0 4.298,1.92 4.298,4.28 C 4.298,-1.92 2.37,0 0,0 m 0,-9.809 c -3.06,0 -5.549,2.481 -5.549,5.53 0,3.049 2.489,5.529 5.549,5.529 3.06,0 5.548,-2.48 5.548,-5.529 0,-3.049 -2.488,-5.53 -5.548,-5.53" /></g></g></g></g></svg>