<?xml version="1.0" encoding="utf-8"?>
<!-- Generator: Adobe Illustrator 25.0.1, SVG Export Plug-In . SVG Version: 6.00 Build 0)  -->
<svg version="1.1" id="_x30_3_Negative_EN" xmlns="http://www.w3.org/2000/svg" xmlns:xlink="http://www.w3.org/1999/xlink" x="0px"
	 y="0px" viewBox="0 0 150 150" style="enable-background:new 0 0 150 150;" xml:space="preserve">
<style type="text/css">
	.st0{fill:#003366;}
	.st1{fill:#FDAA1C;}
	.st2{fill:#FFFFFF;}
</style>
<g id="Elements_2_">
	<g id="Bckgd_14_">
		<rect id="Bckgd_15_" x="-0.1" y="-0.1" class="st0" width="150" height="100"/>
	</g>
	<g id="Color_6_">
		<rect id="GCM_x5F_Color_9_" x="-0.1" y="99.9" class="st1" width="150" height="50"/>
	</g>
	<g>
		<g>
			<path class="st2" d="M45.7,108.9h-3.1v2.7h2.7v1.3h-2.7v2.8H46v1.3h-5v-9.5h5L45.7,108.9z"/>
			<path class="st2" d="M49.6,113.2h-1v3.8h-1.8v-9.5h2.5c2.4,0,3.6,1,3.6,2.8c0,1.2-0.5,2.1-1.7,2.6l2.2,4.2h-1.9L49.6,113.2z
				 M49.5,112c1.1,0,1.6-0.5,1.6-1.6c0-1-0.5-1.5-1.7-1.5h-0.7v3.1H49.5z"/>
			<path class="st2" d="M58.7,114.9h-2.7l-0.5,2.2h-1.8l2.6-9.5h2.2l2.6,9.5h-1.8L58.7,114.9z M58.4,113.5l-1.1-4.6l-1.1,4.6H58.4z"
				/>
			<path class="st2" d="M68.2,112.3c0,3.9-2.1,4.8-4.2,4.8h-2.4v-9.5h2.2C66.1,107.6,68.2,108.3,68.2,112.3z M63.4,108.9v6.8h0.7
				c1.2,0,2.2-0.6,2.2-3.5c0-2.9-1-3.4-2.2-3.4H63.4z"/>
			<path class="st2" d="M71,117.1h-1.8v-9.5H71V117.1z"/>
			<path class="st2" d="M80.1,117.4l-1.1,1.4c-0.8-1-1.7-1.6-3.2-1.6c-2.2,0-3.6-1.7-3.6-4.9c0-3.2,1.4-5,3.7-5
				c2.3,0,3.8,1.7,3.8,4.9c0,2.4-0.9,3.5-2,4.2C78.7,116.5,79.4,116.9,80.1,117.4z M75.9,115.9c1.2,0,1.9-0.9,1.9-3.6
				c0-2.6-0.7-3.6-1.9-3.6c-1.2,0-1.9,0.9-1.9,3.6S74.7,115.9,75.9,115.9z"/>
			<path class="st2" d="M87,114.2c0,1.7-1.1,3.1-3.2,3.1c-2.2,0-3.2-1.3-3.2-3.1v-6.6h1.8v6.5c0,1.2,0.4,1.8,1.4,1.8
				c1,0,1.4-0.6,1.4-1.8v-6.5H87V114.2z"/>
			<path class="st2" d="M93.2,108.9h-3.1v2.7h2.7v1.3h-2.7v2.8h3.3v1.3h-5v-9.5h5L93.2,108.9z"/>
			<path class="st2" d="M97.1,113.2h-1v3.8h-1.8v-9.5h2.5c2.4,0,3.6,1,3.6,2.8c0,1.2-0.5,2.1-1.7,2.6l2.2,4.2H99L97.1,113.2z
				 M96.9,112c1.1,0,1.6-0.5,1.6-1.6c0-1-0.5-1.5-1.7-1.5h-0.7v3.1H96.9z"/>
			<path class="st2" d="M42.7,128.1H46l-0.2,1.5h-4.9v-9.5h1.8V128.1z"/>
			<path class="st2" d="M51.2,127.4h-2.7l-0.5,2.2h-1.8l2.6-9.5h2.2l2.6,9.5h-1.8L51.2,127.4z M50.9,126l-1.1-4.6l-1.1,4.6H50.9z"/>
			<path class="st2" d="M62.1,121.5H60v8.1h-1.8v-8.1H56v-1.4h6.4L62.1,121.5z"/>
			<path class="st2" d="M65.7,125.7h-1v3.8H63v-9.5h2.5c2.4,0,3.6,1,3.6,2.8c0,1.2-0.5,2.1-1.7,2.6l2.2,4.2h-1.9L65.7,125.7z
				 M65.6,124.5c1.1,0,1.6-0.5,1.6-1.6c0-1-0.5-1.5-1.7-1.5h-0.7v3.1H65.6z"/>
			<path class="st2" d="M74.7,127.4H72l-0.5,2.2h-1.8l2.6-9.5h2.2l2.6,9.5h-1.8L74.7,127.4z M74.4,126l-1.1-4.6l-1.1,4.6H74.4z"/>
			<path class="st2" d="M79.5,129.6h-1.8v-9.5h1.8V129.6z"/>
			<path class="st2" d="M86.3,121.5h-2.2v8.1h-1.8v-8.1h-2.3v-1.4h6.4L86.3,121.5z"/>
			<path class="st2" d="M92,121.4H89v2.7h2.7v1.3H89v2.8h3.3v1.3h-5v-9.5h5L92,121.4z"/>
			<path class="st2" d="M47.5,137.3c0,3.9-2.1,4.8-4.2,4.8h-2.4v-9.5h2.2C45.4,132.6,47.5,133.3,47.5,137.3z M42.7,133.9v6.8h0.7
				c1.2,0,2.2-0.6,2.2-3.5c0-2.9-1-3.4-2.2-3.4H42.7z"/>
			<path class="st2" d="M53.4,133.9h-3.1v2.7H53v1.3h-2.7v2.8h3.3v1.3h-5.1v-9.5h5L53.4,133.9z"/>
			<path class="st2" d="M63.4,135.6c0,2.2-1.4,3.1-3.5,3.1h-0.8v3.3h-1.8v-9.5h2.4C62.1,132.6,63.4,133.6,63.4,135.6z M61.6,135.6
				c0-1.2-0.6-1.7-1.8-1.7h-0.7v3.5h0.7C60.9,137.4,61.6,137,61.6,135.6z"/>
			<path class="st2" d="M69,133.9h-3.1v2.7h2.7v1.3h-2.7v2.8h3.3v1.3h-5v-9.5h5L69,133.9z"/>
			<path class="st2" d="M72.9,138.2h-1v3.8h-1.8v-9.5h2.5c2.4,0,3.6,1,3.6,2.8c0,1.2-0.5,2.1-1.7,2.6l2.2,4.2h-1.9L72.9,138.2z
				 M72.7,137c1.1,0,1.6-0.5,1.6-1.6c0-1-0.5-1.5-1.7-1.5h-0.7v3.1H72.7z"/>
			<path class="st2" d="M82.9,133.5l-0.8,1c-0.6-0.5-1.2-0.8-1.9-0.8c-0.8,0-1.3,0.4-1.3,1.1c0,0.7,0.3,1,1.7,1.5
				c1.5,0.6,2.5,1.3,2.5,3c0,1.7-1.2,2.9-3.3,2.9c-1.4,0-2.4-0.5-3.1-1.3l0.9-1c0.6,0.6,1.3,0.9,2.2,0.9c0.9,0,1.5-0.5,1.5-1.4
				c0-0.8-0.3-1.2-1.6-1.6c-1.8-0.6-2.6-1.5-2.6-2.8c0-1.5,1.3-2.6,3-2.6C81.3,132.4,82.2,132.8,82.9,133.5z"/>
			<path class="st2" d="M91.2,137.3c0,3.2-1.4,5-3.8,5c-2.3,0-3.7-1.7-3.7-4.9c0-3.2,1.4-5,3.7-5C89.8,132.4,91.2,134,91.2,137.3z
				 M85.6,137.3c0,2.7,0.7,3.6,1.9,3.6c1.2,0,1.9-0.9,1.9-3.6c0-2.6-0.7-3.6-1.9-3.6C86.2,133.7,85.6,134.7,85.6,137.3z"/>
			<path class="st2" d="M98.7,142.1h-2.3l-2.7-7.7c0.1,0.9,0.2,2,0.2,3.8v3.9h-1.6v-9.5h2.2l2.8,7.7c-0.1-0.5-0.2-1.9-0.2-3.2v-4.5
				h1.6V142.1z"/>
			<path class="st2" d="M106.5,142.1h-2.3l-2.8-7.7c0.1,0.9,0.2,2,0.2,3.8v3.9h-1.6v-9.5h2.2l2.8,7.7c-0.1-0.5-0.2-1.9-0.2-3.2v-4.5
				h1.6V142.1z"/>
			<path class="st2" d="M112.8,133.9h-3.1v2.7h2.7v1.3h-2.7v2.8h3.3v1.3h-5v-9.5h5L112.8,133.9z"/>
			<path class="st2" d="M119.6,133.5l-0.8,1c-0.6-0.5-1.2-0.8-1.9-0.8c-0.8,0-1.3,0.4-1.3,1.1c0,0.7,0.3,1,1.7,1.5
				c1.5,0.6,2.5,1.3,2.5,3c0,1.7-1.2,2.9-3.3,2.9c-1.4,0-2.4-0.5-3.1-1.3l0.9-1c0.6,0.6,1.3,0.9,2.2,0.9c0.9,0,1.5-0.5,1.5-1.4
				c0-0.8-0.3-1.2-1.6-1.6c-1.8-0.6-2.6-1.5-2.6-2.8c0-1.5,1.3-2.6,3-2.6C118,132.4,118.9,132.8,119.6,133.5z"/>
		</g>
	</g>
	<g id="Number_6_">
		<g>
			<g>
				<path class="st2" d="M17,137.1h-4v-18.8l-3.9,3.1l-1.8-3.2l6.1-4.7H17V137.1z"/>
				<path class="st2" d="M33,125.3c0,8.2-2.4,12.3-6.8,12.3c-4.4,0-6.8-4.1-6.8-12.3c0-8.2,2.4-12.3,6.8-12.3
					C30.6,113,33,117.2,33,125.3z M23.6,125.3c0,6.8,0.8,8.7,2.6,8.7c1.8,0,2.5-1.9,2.5-8.7c0-6.8-0.7-8.6-2.5-8.6
					C24.4,116.7,23.6,118.6,23.6,125.3z"/>
			</g>
		</g>
	</g>
</g>
<g id="Icon_2_">
	<g>
		<g>
			<path class="st2" d="M69.4,42c-5,0-9.1-4.2-9.1-9.3c0-5.1,4.1-9.3,9.1-9.3c5,0,9.1,4.2,9.1,9.3C78.6,37.8,74.5,42,69.4,42z
				 M69.4,24.7c-4.4,0-7.9,3.6-7.9,8c0,4.4,3.5,8,7.9,8c4.4,0,7.9-3.6,7.9-8C77.3,28.3,73.8,24.7,69.4,24.7z"/>
			<path class="st2" d="M69.4,80.1c-5.6,0-11.1-1.6-15.9-4.5c-0.2-0.1-0.3-0.3-0.3-0.5V53c0-2.8,2-5.7,4.4-6.5
				c7.7-2.5,15.9-2.5,23.7,0c0,0,0,0,0,0c2.4,0.8,4.4,3.8,4.4,6.5v22c0,0.2-0.1,0.4-0.3,0.5C80.6,78.6,75.1,80.1,69.4,80.1z
				 M54.5,74.7c4.5,2.7,9.7,4.1,15,4.1s10.4-1.4,15-4.1V53c0-2.2-1.6-4.7-3.5-5.3c-7.5-2.4-15.4-2.4-22.9,0
				c-1.9,0.6-3.5,3.1-3.5,5.3V74.7z"/>
			<g>
				<rect x="59.8" y="59.2" class="st2" width="1.2" height="19"/>
				<rect x="77.9" y="59.2" class="st2" width="1.2" height="19"/>
			</g>
		</g>
		<path class="st2" d="M69.4,80.1c-16.7,0-30.2-13.5-30.2-30.1s13.6-30.1,30.2-30.1S99.7,33.4,99.7,50c0,1.8-0.2,3.7-0.5,5.5
			c-0.1,0.3-0.3,0.5-0.6,0.5c0,0-0.1,0-0.1,0l-7.2,0.2c-0.1,0-0.3,0.1-0.3,0.2c-0.1,0.1-0.1,0.2-0.1,0.3L91,64
			c0,0.3,0.1,0.5,0.3,0.7l0,0l2.4,2.4c0.2,0.2,0.2,0.6,0.1,0.8C88,75.6,79,80.1,69.4,80.1z M69.4,21.1c-16,0-29,13-29,28.9
			s13,28.9,29,28.9c8.9,0,17.5-4.2,22.9-11.2l-2-2c-0.4-0.4-0.7-1-0.7-1.6l-0.2-7.3c0-0.5,0.2-0.9,0.5-1.2c0.3-0.3,0.7-0.5,1.2-0.5
			l6.8-0.2c0.3-1.6,0.4-3.2,0.4-4.8C98.4,34.1,85.4,21.1,69.4,21.1z"/>
		<path class="st2" d="M93.6,59.8c-0.2,0-0.3-0.1-0.4-0.2l-10-10c-0.2-0.2-0.2-0.6,0-0.9c0.2-0.2,0.6-0.2,0.9,0l10,10
			c0.2,0.2,0.2,0.6,0,0.9C94,59.7,93.8,59.8,93.6,59.8z"/>
		
			<rect x="68.8" y="20.7" transform="matrix(0.7061 -0.7081 0.7081 0.7061 -15.1233 63.9264)" class="st2" width="1.2" height="59"/>
		<path class="st2" d="M101.7,76.2c-0.5,0-0.9-0.2-1.2-0.5L90.4,65.6c-0.4-0.4-0.7-1-0.7-1.6l-0.2-7.3c0-0.5,0.2-0.9,0.5-1.2
			c0.3-0.3,0.7-0.5,1.2-0.5l7.3-0.2c0.6,0,1.2,0.2,1.7,0.6l10.1,10.1c0.3,0.3,0.5,0.7,0.5,1.2s-0.1,0.9-0.5,1.2l-7.3,7.8
			C102.6,76,102.2,76.2,101.7,76.2C101.7,76.2,101.7,76.2,101.7,76.2z M98.5,56C98.5,56,98.5,56,98.5,56l-7.3,0.2
			c-0.1,0-0.3,0.1-0.3,0.2c-0.1,0.1-0.1,0.2-0.1,0.3L91,64c0,0.3,0.1,0.5,0.3,0.7l0,0l10.1,10.1c0.1,0.1,0.2,0.1,0.3,0.1
			c0.1,0,0.2-0.1,0.3-0.1l7.3-7.8c0.1-0.1,0.1-0.2,0.1-0.3s-0.1-0.2-0.1-0.3L99.2,56.3C99.1,56.1,98.8,56,98.5,56z"/>
	</g>
</g>
</svg>
