<svg width="52" height="52" viewBox="0 0 52 52" fill="none" xmlns="http://www.w3.org/2000/svg">
<path d="M51.6718 29.4174H45.7603V23.5121H49.756V24.1682H46.4171V28.7613H51.015V26.9569H51.6718V29.4174Z" fill="white"/>
<path d="M48.7706 27.8864L47.0737 25.9727L47.5664 25.4805L48.7706 26.7928L50.8506 24.3323L51.3432 24.7697L48.7706 27.8864Z" fill="white"/>
<path d="M6.24019 29.4174H0.328613V23.5121H4.37914V24.1682H0.985455V28.7613H5.58335V26.9569H6.24019V29.4174Z" fill="white"/>
<path d="M3.39367 27.8864L1.64209 25.9727L2.13472 25.4805L3.33893 26.7928L5.41893 24.3323L5.91156 24.7697L3.39367 27.8864Z" fill="white"/>
<path d="M29.1201 15.0368H23.1538V9.07675H27.2043V9.7329H23.8654V14.326H28.4085V12.5215H29.1201V15.0368Z" fill="white"/>
<path d="M26.2189 13.4511L24.4673 11.5373L25.0147 11.0452L26.1641 12.4122L28.2441 9.89694L28.7915 10.3344L26.2189 13.4511Z" fill="white"/>
<path d="M26.1097 42.9779C24.1391 42.9779 22.5518 41.3922 22.5518 39.4238C22.5518 37.4553 24.1391 35.8696 26.1097 35.8696C28.0802 35.8696 29.6676 37.4553 29.6676 39.4238C29.6676 41.3922 28.0802 42.9779 26.1097 42.9779ZM26.1097 36.5804C24.5223 36.5804 23.2633 37.8381 23.2633 39.4238C23.2633 41.0095 24.5223 42.2671 26.1097 42.2671C27.697 42.2671 28.956 41.0095 28.956 39.4238C29.0107 37.8927 27.697 36.5804 26.1097 36.5804Z" fill="white"/>
<path d="M31.4191 36.6351H30.7622C30.7622 35.8696 30.8717 35.1041 31.0906 34.3933C31.9664 31.4953 34.4296 29.2534 37.3854 28.7066C37.4949 28.7066 37.6043 28.7066 37.6591 28.7613C37.7138 28.816 37.7685 28.9253 37.7685 29.0347V31.0578L43.8991 26.7928L37.7685 22.5279V24.7697C37.7685 24.9337 37.6591 25.0978 37.4401 25.0978C34.3749 25.4805 31.5833 27.0116 29.6675 29.4174C29.3938 29.7455 28.9559 29.9096 28.5728 29.7455C28.1896 29.5815 27.9159 29.2534 27.9159 28.816V23.2387C27.9159 23.0747 28.0801 22.9106 28.2443 22.9106H30.4338L26.1643 16.7865L21.8949 22.9106H24.0843C24.2485 22.9106 24.4128 23.0747 24.4128 23.2387V28.816C24.4128 29.2534 24.1391 29.6362 23.7559 29.7455C23.3728 29.9096 22.9349 29.7455 22.6612 29.4174C20.7454 26.9569 17.9538 25.4259 14.8885 25.0978C14.7243 25.0978 14.5601 24.9337 14.5601 24.7697V22.5279L8.4296 26.7928L14.5054 31.0031V28.98C14.5054 28.8707 14.5601 28.7613 14.6149 28.7066C14.6696 28.6519 14.7791 28.5973 14.8885 28.6519C17.8443 29.1987 20.3075 31.3859 21.1833 34.2839C21.4022 35.0494 21.5117 35.8149 21.5117 36.5804H20.8549C20.8549 35.8696 20.7454 35.1588 20.5264 34.4479C19.7601 31.9327 17.6801 30.0189 15.1622 29.3628V31.6046C15.1622 31.714 15.1075 31.8233 14.998 31.9327C14.8885 31.9874 14.7243 31.9874 14.6696 31.9327L7.60855 27.0116C7.49907 26.9569 7.44434 26.8475 7.44434 26.7382C7.44434 26.6288 7.49907 26.5194 7.60855 26.4648L14.6696 21.5436C14.7791 21.489 14.8885 21.4343 14.998 21.5436C15.1075 21.5983 15.1622 21.7077 15.1622 21.8717V24.4963C18.2822 24.9337 21.1285 26.5741 23.0991 29.0347C23.2085 29.1987 23.3728 29.1441 23.4275 29.1441C23.4822 29.1441 23.6464 29.0347 23.6464 28.8707V23.6761H21.1833C21.0738 23.6761 20.9643 23.6214 20.8549 23.5121C20.8001 23.4027 20.8001 23.2387 20.8549 23.184L25.7812 16.1304C25.8906 15.9663 26.2191 15.9663 26.3285 16.1304L31.2549 23.184C31.3096 23.2934 31.3643 23.4027 31.2549 23.5121C31.2001 23.6214 31.0906 23.6761 30.9264 23.6761H28.4633V28.8707C28.4633 29.0894 28.6275 29.1441 28.6822 29.1441C28.737 29.1441 28.9012 29.1987 29.0106 29.0347C30.9812 26.5194 33.8275 24.9337 36.9475 24.4963V21.8717C36.9475 21.7623 37.0022 21.653 37.1117 21.5436C37.2212 21.489 37.3854 21.489 37.4401 21.5436L44.5012 26.4648C44.6106 26.5194 44.6654 26.6288 44.6654 26.7382C44.6654 26.8475 44.6106 26.9569 44.5012 27.0116L37.4401 31.9327C37.3307 31.9874 37.2212 31.9874 37.1117 31.9327C37.0022 31.878 36.9475 31.7687 36.9475 31.6046V29.3628C34.3749 29.9642 32.2949 31.9327 31.5833 34.5026C31.5285 35.2134 31.4191 35.9243 31.4191 36.6351Z" fill="white"/>
</svg>
