<svg width="52" height="52" viewBox="0 0 52 52" fill="none" xmlns="http://www.w3.org/2000/svg">
<path d="M26.11 27.0947C23.8658 27.0947 22.7163 25.3979 22.7163 23.701C22.7163 22.8253 22.99 22.0042 23.5374 21.3474C24.1395 20.6358 25.0153 20.2526 26.0553 20.2526C27.9163 20.2526 29.4489 21.7853 29.4489 23.6463C29.4489 25.5074 28.0258 27.0947 26.11 27.0947ZM26.11 20.9642C25.2889 20.9642 24.5774 21.2379 24.0847 21.7853C23.6468 22.2779 23.4279 22.9347 23.4279 23.6463C23.4279 24.96 24.2489 26.3831 26.11 26.3831C27.6426 26.3831 28.8468 25.1789 28.8468 23.6463C28.8468 22.1684 27.6426 20.9642 26.11 20.9642Z" fill="white"/>
<path d="M31.1456 35.1958C30.9814 35.1958 30.8172 35.0316 30.8172 34.8673V32.1852C30.8172 30.3789 29.3393 28.9558 27.533 28.9558H24.6867C22.8803 28.9558 21.4024 30.4337 21.4024 32.1852C21.4024 32.3495 21.2382 32.5137 21.074 32.5137C20.9098 32.5137 20.7456 32.3495 20.7456 32.1305C20.7456 29.941 22.4972 28.1895 24.6867 28.1895H27.533C29.7224 28.1895 31.474 29.941 31.474 32.1305V34.8126C31.474 35.0316 31.3098 35.1958 31.1456 35.1958Z" fill="white"/>
<path d="M18.9939 18.5558C18.1181 18.5558 17.4612 18.2274 17.1328 17.6253L17.7349 17.2968C17.9539 17.7347 18.6107 17.9537 19.377 17.8442C19.8149 17.7895 20.2528 17.6253 20.6907 17.3516L25.0149 14.9431L25.3433 15.5453L21.0191 17.9537C20.4718 18.2821 19.9244 18.4463 19.4318 18.501C19.3223 18.5558 19.1581 18.5558 18.9939 18.5558Z" fill="white"/>
<path d="M34.9225 18.1179C31.912 18.1179 29.2299 17.0779 29.0657 17.0232L23.4825 15.1074C22.6067 14.8884 21.5667 15.0526 20.8004 15.5453L17.8446 17.3516C17.1878 17.7895 16.4762 18.0084 15.7099 17.9537C14.7794 17.9537 13.9583 17.6253 13.411 17.0232C13.192 16.8042 13.0825 16.4758 13.0278 16.2021V16.0379C12.9731 15.5453 13.192 15.0526 13.6299 14.8337L20.4173 10.7832C21.1288 10.3453 22.0046 10.1263 22.8257 10.1263L37.4952 10.2905C37.7141 10.2905 43.0236 10.2905 48.3878 13.3558C48.552 13.4653 48.6067 13.6842 48.4973 13.8484C48.3878 14.0126 48.1688 14.0674 48.0046 13.9579C42.8046 10.9474 37.4952 10.9474 37.4404 10.9474L22.771 10.7832C22.0594 10.7832 21.3478 11.0021 20.691 11.3853L13.9583 15.381C13.7941 15.4905 13.6846 15.7095 13.6846 15.9284V16.0926C13.6846 16.2568 13.7941 16.421 13.9036 16.5853C14.2867 17.0232 14.9436 17.2968 15.6552 17.2968C16.2573 17.2968 16.8594 17.1326 17.4067 16.7495L20.3625 14.9432C21.3478 14.341 22.4973 14.1768 23.592 14.4505L29.2299 16.3663C29.2846 16.421 35.5794 18.7747 39.411 16.2021C39.5752 16.0926 39.7941 16.1474 39.9036 16.3116C40.0131 16.4758 39.9583 16.6947 39.7941 16.8042C38.371 17.7895 36.6194 18.1179 34.9225 18.1179Z" fill="white"/>
<path d="M43.078 18.939C42.9685 18.939 42.9138 18.8842 42.8043 18.8295C40.6696 16.5305 37.6043 16.4211 37.6043 16.4211C37.4401 16.4211 37.2759 16.2569 37.2759 16.0926C37.2759 15.9284 37.4401 15.7642 37.6043 15.7642C37.7138 15.7642 40.998 15.8737 43.2969 18.3916C43.4064 18.5558 43.4064 18.7747 43.2969 18.8842C43.2422 18.8842 43.1327 18.939 43.078 18.939Z" fill="white"/>
<path d="M26.2737 38.0968L25.9453 37.4947L30.2695 35.0863C30.8169 34.7579 31.3643 34.5937 31.8569 34.5389C32.9516 34.3747 33.8274 34.7032 34.2106 35.4147L33.6085 35.7432C33.3895 35.3053 32.7327 35.0863 31.9664 35.1958C31.5285 35.2505 31.0906 35.4147 30.6527 35.6884L26.2737 38.0968Z" fill="white"/>
<path d="M22.8802 37.3305C22.6613 37.3305 22.4423 37.3305 22.1686 37.2758C22.0044 37.221 21.895 37.0568 21.895 36.8379C21.9497 36.6737 22.1139 36.5642 22.3328 36.5642C23.8107 36.8926 25.2339 35.6884 25.7265 35.0316C25.836 34.8674 25.836 34.7032 25.7813 34.5389C25.7265 34.3747 25.5623 34.2105 25.3981 34.1558L18.6107 32.0758C17.9539 31.9116 17.1876 31.9663 16.5307 32.2947L13.4655 33.8821C13.4107 33.9368 13.356 33.9368 13.2465 33.9916L10.8928 35.4147C10.7286 35.5242 10.5097 35.4695 10.4002 35.3053C10.2907 35.141 10.3455 34.9221 10.5097 34.8126L12.8634 33.3895C12.9181 33.3347 13.0276 33.28 13.0823 33.2253L16.1476 31.6379C16.9686 31.2 17.8444 31.0905 18.7202 31.3642L25.5076 33.4442C25.8907 33.5537 26.2192 33.8821 26.3286 34.2653C26.4381 34.6484 26.3834 35.0316 26.1644 35.36C25.7265 36.2358 24.3581 37.3305 22.8802 37.3305Z" fill="white"/>
<path d="M28.5181 43.0231L13.8486 42.8589C13.6297 42.8589 8.37493 42.8589 2.95598 39.7937C2.79177 39.6842 2.73703 39.4653 2.84651 39.301C2.95598 39.1368 3.17493 39.0821 3.33914 39.1916C8.53914 42.2021 13.7939 42.2021 13.8486 42.2021L28.5181 42.3663C29.2297 42.3663 29.996 42.1474 30.5981 41.7642L37.3855 37.7137C37.5497 37.6042 37.6591 37.3853 37.6591 37.1663V37.0021C37.6591 36.8379 37.5497 36.6737 37.4402 36.5095C37.057 36.0716 36.4002 35.7979 35.6886 35.7979C35.0865 35.7979 34.4844 35.9621 33.937 36.3453L30.9812 38.1516C29.996 38.7537 28.8465 38.9179 27.7518 38.6442L22.0591 37.221C21.8949 37.1663 21.7855 37.0021 21.7855 36.7831C21.8402 36.6189 22.0044 36.5095 22.2233 36.5095L27.8612 37.9326C28.7918 38.1516 29.777 37.9874 30.5981 37.4947L33.5539 35.6884C34.2107 35.2505 34.977 35.0863 35.6886 35.0863C36.6191 35.0863 37.4402 35.4147 37.9876 36.0168C38.2065 36.2358 38.316 36.5642 38.3707 36.8379V37.0021C38.4255 37.4947 38.2065 37.9874 37.7686 38.2063L30.9812 42.2568C30.2149 42.8042 29.3391 43.0231 28.5181 43.0231Z" fill="white"/>
<path d="M12.4803 35.9074C12.3161 35.9074 9.08662 35.7979 6.78767 33.28C6.6782 33.1158 6.6782 32.8968 6.78767 32.7874C6.95188 32.6779 7.11609 32.6779 7.2803 32.7874C9.41504 35.0863 12.4803 35.1958 12.4803 35.1958C12.6445 35.1958 12.8087 35.36 12.8087 35.5242C12.8635 35.7432 12.6992 35.9074 12.4803 35.9074Z" fill="white"/>
<path d="M33.4442 20.4168C33.1158 20.4168 32.8421 20.3621 32.5684 20.3074L25.7811 18.2274C25.3979 18.1179 25.0695 17.7895 24.96 17.4063C24.8505 17.0232 24.9053 16.64 25.1242 16.3116C25.2884 16.0926 25.4526 15.8737 25.6716 15.6547C25.8358 15.5453 26 15.5453 26.1642 15.6547C26.2737 15.8189 26.2737 15.9832 26.1642 16.1474C26 16.3116 25.8358 16.5305 25.6716 16.6947C25.5621 16.8589 25.5621 17.0232 25.6169 17.1874C25.6716 17.3516 25.8358 17.5158 26 17.5705L32.7874 19.6505C33.4442 19.8147 34.2105 19.76 34.8674 19.4316C34.8674 19.4316 37.1116 18.0632 38.3705 16.8589C38.5347 16.7495 38.699 16.7495 38.8632 16.8589C38.9726 17.0232 38.9726 17.1874 38.8632 17.3516C37.5495 18.6105 35.3053 19.9789 35.2505 20.0337C34.6484 20.3074 34.0463 20.4168 33.4442 20.4168Z" fill="white"/>
</svg>
