<svg width="52" height="52" viewBox="0 0 52 52" fill="none" xmlns="http://www.w3.org/2000/svg">
<path d="M25.8355 18.0632C23.7008 18.0632 21.9492 16.3116 21.9492 14.1768C21.9492 12.0421 23.7008 10.2905 25.8355 10.2905C27.9703 10.2905 29.7218 12.0421 29.7218 14.1768C29.7218 16.3116 27.9703 18.0632 25.8355 18.0632ZM25.8355 11.0021C24.084 11.0021 22.6061 12.4253 22.6061 14.2316C22.6061 16.0379 24.0292 17.4611 25.8355 17.4611C27.6419 17.4611 29.065 16.0379 29.065 14.2316C29.065 12.4253 27.5871 11.0021 25.8355 11.0021Z" fill="white"/>
<path d="M27.2042 43.2421H24.3579C23.1537 43.2421 22.1685 42.2568 22.1685 41.0526V28.2442C22.1685 28.08 22.3327 27.9158 22.4969 27.9158C22.6611 27.9158 22.8253 28.08 22.8253 28.2442V41.0526C22.8253 41.8737 23.4821 42.5305 24.3032 42.5305H27.1495C27.9706 42.5305 28.6274 41.8737 28.6274 41.0526V28.2442C28.6274 28.08 28.7916 27.9158 28.9558 27.9158C29.12 27.9158 29.2842 28.08 29.2842 28.2442V41.0526C29.3937 42.2568 28.4085 43.2421 27.2042 43.2421Z" fill="white"/>
<path d="M25.7811 43.2421C25.6168 43.2421 25.4526 43.0779 25.4526 42.9137V30.7074C25.4526 30.5431 25.6168 30.3789 25.7811 30.3789C25.9453 30.3789 26.1095 30.5431 26.1095 30.7074V42.9137C26.1095 43.0779 25.9453 43.2421 25.7811 43.2421Z" fill="white"/>
<path d="M13.6842 29.9958C11.3852 29.9958 9.25048 28.8463 7.9368 26.9305C7.66311 26.5474 7.66311 26.0547 7.88206 25.6168C8.10101 25.179 8.5389 24.96 9.03153 24.96H12.1515L13.2463 23.099L12.1515 21.2379H9.03153C8.5389 21.2379 8.10101 20.9642 7.88206 20.5811C7.66311 20.1432 7.66311 19.6505 7.9368 19.2674C9.25048 17.2968 11.3852 16.1474 13.7389 16.1474C16.5852 16.1474 19.1031 17.8442 20.1431 20.4168C20.1979 20.5811 20.1431 20.8 19.9789 20.8547C19.8147 20.9095 19.5957 20.8547 19.541 20.6905C18.5557 18.3368 16.3115 16.8042 13.7389 16.8042C11.6042 16.8042 9.68838 17.8442 8.48417 19.5958C8.37469 19.76 8.37469 20.0337 8.42943 20.1979C8.5389 20.4168 8.75785 20.5263 8.9768 20.5263H12.5347L14.0126 23.0442L12.48 25.6716H8.9768C8.75785 25.6716 8.5389 25.7811 8.42943 26C8.31996 26.219 8.31996 26.4379 8.48417 26.6021C9.63364 28.299 11.6042 29.339 13.6842 29.339C16.2021 29.339 18.4463 27.8611 19.4315 25.5621C19.4863 25.3979 19.7052 25.2884 19.8694 25.3979C20.0336 25.4526 20.1431 25.6716 20.0336 25.8358C18.9936 28.3537 16.4757 29.9958 13.6842 29.9958Z" fill="white"/>
<path d="M38.316 29.9958C35.5244 29.9958 33.0065 28.3537 31.9117 25.7811C31.857 25.6169 31.9117 25.3979 32.076 25.3432C32.2402 25.2884 32.4591 25.3432 32.5138 25.5074C33.4991 27.8063 35.7433 29.2842 38.2612 29.2842C40.3412 29.2842 42.257 28.2442 43.4612 26.5474C43.5707 26.3832 43.6254 26.1095 43.516 25.9453C43.4065 25.7263 43.1875 25.6169 42.9686 25.6169H39.4654L38.0423 23.099L39.5202 20.5811H43.0781C43.297 20.5811 43.516 20.4716 43.6254 20.2526C43.7349 20.0337 43.7349 19.8148 43.5707 19.6505C42.4212 17.899 40.4507 16.859 38.316 16.859C35.7981 16.859 33.4991 18.3916 32.5138 20.7453C32.4591 20.9095 32.2402 21.019 32.076 20.9095C31.9117 20.8548 31.8023 20.6358 31.9117 20.4716C33.0065 17.8442 35.5244 16.2021 38.316 16.2021C40.6696 16.2021 42.8044 17.3516 44.1181 19.3221C44.3917 19.7053 44.3917 20.1979 44.1728 20.6358C43.9538 21.0737 43.516 21.2926 43.0233 21.2926H39.9033L38.8086 23.1537L39.9033 25.0148H43.0233C43.516 25.0148 43.9538 25.2884 44.1728 25.6716C44.3917 26.1095 44.3917 26.6021 44.1181 26.9853C42.7496 28.8463 40.6149 29.9958 38.316 29.9958Z" fill="white"/>
<path d="M22.0044 22.3326V20.9095H29.8865V22.3326H22.0044ZM22.0044 25.2884V23.8653H29.8865V25.2884H22.0044Z" fill="white"/>
</svg>
