<svg width="52" height="52" viewBox="0 0 52 52" fill="none" xmlns="http://www.w3.org/2000/svg">
<path d="M25.8357 39.6295C18.501 39.6295 12.5347 33.6631 12.5347 26.3284C12.5347 18.9937 18.501 13.0274 25.8357 13.0274C33.1705 13.0274 39.1368 19.0484 39.1368 26.3284C39.1368 33.6631 33.1705 39.6295 25.8357 39.6295ZM25.8357 13.7389C18.8841 13.7389 13.1915 19.3768 13.1915 26.3284C13.1915 33.28 18.8841 38.9179 25.8357 38.9179C32.7873 38.9179 38.4799 33.28 38.4799 26.3284C38.4799 19.3768 32.7873 13.7389 25.8357 13.7389Z" fill="white"/>
<path d="M39.0822 40.2863L30.8169 31.8021C30.7622 31.7474 30.7074 31.6379 30.7074 31.5831C30.7074 30.8716 31.0358 30.2147 31.638 29.5579C31.9116 29.2842 32.4043 29.12 32.9516 28.9558C33.3348 28.8463 33.8274 28.6821 33.9916 28.5179C34.2653 28.2442 34.4295 27.861 34.4295 27.4231C34.4295 26.9853 34.2653 26.6021 33.9916 26.3284L33.9369 26.2737C33.3348 25.6716 32.3495 25.6716 31.7474 26.2737C31.5832 26.4379 31.419 26.9305 31.3095 27.3137C31.1453 27.861 30.9811 28.3537 30.7074 28.6274C30.0506 29.2295 29.3937 29.5579 28.6822 29.5579C28.5727 29.5579 28.518 29.5031 28.4085 29.4484L25.8358 26.8758L23.3727 29.3389C23.4274 29.8316 23.6464 30.2695 24.0843 30.7621C24.2485 30.9263 24.6864 31.0358 25.0695 31.2C25.5622 31.3642 26.1095 31.5284 26.3832 31.8021C26.8211 32.24 27.0401 32.7874 27.0401 33.3895C27.0401 33.9916 26.8211 34.5389 26.3832 34.9768C25.5074 35.8526 24.0843 35.8526 23.2085 34.9768C22.9348 34.7031 22.7706 34.1558 22.6064 33.6631C22.4969 33.28 22.3327 32.8421 22.1685 32.6779C21.6758 32.24 21.238 32.021 20.7453 31.9663L12.4253 40.1768C12.3158 40.2863 12.0969 40.2863 11.9327 40.1768C11.8232 40.0674 11.8232 39.8484 11.9327 39.6842L20.3622 31.3095C20.4169 31.2547 20.5264 31.2 20.6358 31.2C21.3474 31.2 22.0043 31.5284 22.6611 32.1305C22.9348 32.4042 23.099 32.8968 23.2632 33.4442C23.3727 33.8274 23.5369 34.32 23.7011 34.4842C24.3032 35.0863 25.2885 35.0863 25.8906 34.4842L25.9453 34.4295C26.219 34.1558 26.3832 33.7726 26.3832 33.3895C26.3832 32.9516 26.219 32.5684 25.9453 32.2947C25.7811 32.1305 25.2885 31.9663 24.9053 31.8568C24.358 31.6926 23.8653 31.5284 23.5916 31.2547C22.9895 30.5979 22.6611 29.941 22.6611 29.2295C22.6611 29.12 22.7158 29.0653 22.7706 29.0105L25.6169 26.1642C25.7264 26.0547 25.9453 26.0547 26.1095 26.1642L28.8464 28.901C29.339 28.8463 29.7769 28.6274 30.2695 28.1895C30.4337 28.0253 30.5432 27.5874 30.7074 27.2042C30.8716 26.7116 31.0358 26.1642 31.3095 25.8905C32.1853 25.0147 33.6085 25.0147 34.4843 25.8905C34.9222 26.3284 35.1411 26.8758 35.1411 27.4779C35.1411 28.08 34.9222 28.6274 34.4843 29.0653C34.2106 29.3389 33.6632 29.5031 33.1706 29.6674C32.7874 29.7768 32.3495 29.941 32.1853 30.1053C31.7474 30.5979 31.5285 31.0358 31.4737 31.5284L39.5748 39.8484L39.0822 40.2863Z" fill="white"/>
<path d="M18.8295 27.5874C18.2821 27.5874 17.68 27.3684 17.2421 26.9305C16.8042 26.4926 16.5852 25.9453 16.5852 25.3432C16.5852 24.741 16.8042 24.1937 17.2421 23.7558C17.5158 23.4821 18.0631 23.3179 18.5558 23.1537C18.9389 23.0442 19.3768 22.88 19.541 22.7158C19.9789 22.2232 20.1979 21.7853 20.2526 21.2926L11.9326 12.9726L12.4252 12.48L20.8547 20.9095C20.9095 20.9642 20.9642 21.0737 20.9642 21.1284C20.9642 21.84 20.6358 22.4968 20.0337 23.1537C19.76 23.4274 19.2674 23.5916 18.72 23.7558C18.3368 23.8653 17.8442 24.0295 17.68 24.1937C17.4063 24.4674 17.2421 24.8505 17.2421 25.2884C17.2421 25.7263 17.4063 26.1095 17.68 26.3832L17.7347 26.4379C18.3368 27.04 19.3221 27.04 19.9242 26.4379C20.0884 26.2737 20.2526 25.7811 20.3621 25.3979C20.5263 24.8505 20.6905 24.3579 20.9642 24.0842C21.621 23.4821 22.2779 23.1537 22.9895 23.1537C23.0989 23.1537 23.1537 23.2084 23.2631 23.2632L25.8358 25.8358L28.2989 23.3726C28.2442 22.88 28.0252 22.4421 27.5874 21.9495C27.4231 21.7853 26.9852 21.6758 26.6021 21.5116C26.1095 21.3474 25.5621 21.1832 25.2884 20.9095C24.8505 20.4716 24.6316 19.9242 24.6316 19.3221C24.6316 18.72 24.8505 18.1726 25.2884 17.7347C26.1642 16.8589 27.5874 16.8589 28.4631 17.7347C28.7368 18.0084 28.901 18.5558 29.0652 19.0484C29.1747 19.4316 29.3389 19.8695 29.5031 20.0337C29.9958 20.4716 30.4337 20.6905 30.9263 20.7453L39.1916 12.5347L39.6842 13.0274L31.3095 21.4021C31.2547 21.4568 31.1452 21.5116 31.0358 21.5116C30.3242 21.5116 29.6674 21.1832 29.0105 20.581C28.7368 20.3074 28.5726 19.8147 28.4084 19.2674C28.2989 18.8842 28.1347 18.3916 27.9705 18.2274C27.3684 17.6253 26.3831 17.6253 25.781 18.2274L25.7263 18.2821C25.4526 18.5558 25.2884 18.9389 25.2884 19.3221C25.2884 19.76 25.4526 20.1432 25.7263 20.4168C25.8905 20.581 26.3831 20.7453 26.7663 20.8547C27.3137 21.0189 27.8063 21.1832 28.08 21.4568C28.6821 22.1137 29.0105 22.7705 29.0105 23.4821C29.0105 23.5916 28.9558 23.6463 28.901 23.701L26.0547 26.5474C25.9452 26.6568 25.7263 26.6568 25.5621 26.5474L22.8252 23.8105C22.3326 23.8653 21.8947 24.0842 21.4021 24.5221C21.2379 24.6863 21.1284 25.1242 20.9642 25.5074C20.8 26 20.6358 26.5474 20.3621 26.821C19.9789 27.3684 19.3768 27.5874 18.8295 27.5874Z" fill="white"/>
<path d="M14.998 16.0379L12.3706 13.4105L16.3664 9.41473L18.9938 12.0421L14.998 16.0379ZM13.3559 13.4653L14.998 15.1074L18.0085 12.0968L16.3664 10.4547L13.3559 13.4653Z" fill="white"/>
<path d="M34.6483 42.859L32.0757 40.1768L36.1262 36.2905L38.6988 38.9726L34.6483 42.859ZM33.0609 40.2316L34.7031 41.9284L37.7683 38.9726L36.1262 37.2758L33.0609 40.2316Z" fill="white"/>
<path d="M13.1916 39.4653L9.1958 35.4695L11.8232 32.8421L15.819 36.8379L13.1916 39.4653ZM10.1263 35.4695L13.1369 38.48L14.779 36.8379L11.8232 33.8274L10.1263 35.4695Z" fill="white"/>
<path d="M39.9577 19.7053L35.9619 15.7642L38.5893 13.1368L42.5851 17.1326L39.9577 19.7053ZM36.9472 15.7642L39.9577 18.7747L41.5998 17.1326L38.5893 14.1221L36.9472 15.7642Z" fill="white"/>
</svg>
