<svg width="52" height="52" viewBox="0 0 52 52" fill="none" xmlns="http://www.w3.org/2000/svg">
<path d="M40.5055 39.1916L40.4507 38.5348C41.1623 38.4253 41.7644 37.8232 41.7644 37.1663V11.44C41.7644 11.1663 41.6549 10.8926 41.436 10.7284C41.2171 10.5095 40.8886 10.4 40.5055 10.4548L20.6907 12.8084C19.9792 12.9179 19.3771 13.52 19.3771 14.1769V14.9432H18.7202V14.1769C18.7202 13.1916 19.596 12.2611 20.636 12.1516L40.4507 9.79791C40.9981 9.74317 41.5455 9.90738 41.9286 10.2358C42.2571 10.5642 42.476 11.0021 42.476 11.44V37.1663C42.4213 38.1516 41.5455 39.0274 40.5055 39.1916Z" fill="white"/>
<path d="M38.754 42.2569H20.5266C19.4866 42.2569 18.6655 41.4358 18.6655 40.3958V38.4253H19.3224V40.3958C19.3224 41.0526 19.815 41.5453 20.4718 41.5453H38.6992C39.3561 41.5453 39.8487 41.0526 39.8487 40.3958V14.6695C39.8487 14.0127 39.3561 13.52 38.6992 13.52H20.5266C19.8697 13.52 19.3771 14.0127 19.3771 14.6695V16.1474H18.7203V14.6695C18.7203 13.6295 19.5413 12.8084 20.5813 12.8084H38.8087C39.8487 12.8084 40.6697 13.6295 40.6697 14.6695V40.3958C40.5603 41.3811 39.7392 42.2569 38.754 42.2569Z" fill="white"/>
<path d="M15.6545 27.3684C13.7387 27.3684 12.2061 25.8358 12.2061 23.92C12.2061 22.0042 13.7387 20.4716 15.6545 20.4716C17.5703 20.4716 19.1029 22.0042 19.1029 23.92C19.1576 25.8358 17.5703 27.3684 15.6545 27.3684ZM15.6545 21.1284C14.1218 21.1284 12.8629 22.3874 12.8629 23.92C12.8629 25.4526 14.1218 26.7116 15.6545 26.7116C17.1871 26.7116 18.4461 25.4526 18.4461 23.92C18.4461 22.3874 17.1871 21.1284 15.6545 21.1284Z" fill="white"/>
<path d="M21.5662 23.2084H20.9094V18.6653H16.3662V18.0084H21.5662V23.2084Z" fill="white"/>
<path d="M21.5662 29.7769H16.3662V29.12H20.9094V24.6316H21.5662V29.7769Z" fill="white"/>
<path d="M14.9431 29.7769H9.79785V24.6316H10.4547V29.12H14.9431V29.7769Z" fill="white"/>
<path d="M10.4547 23.2084H9.79785V18.0084H14.9431V18.6653H10.4547V23.2084Z" fill="white"/>
<path d="M17.0233 33.1158H16.4212V32.459H17.0233V33.1158ZM15.7644 33.1158H15.0528V32.459H15.7096L15.7644 33.1158ZM14.3959 33.1158H13.7391V32.459H14.3959V33.1158ZM13.0275 33.1158H12.3159V32.459H12.9728L13.0275 33.1158ZM11.6591 33.1158H11.0023V32.459H11.6591V33.1158ZM10.2907 33.1158H9.5791V32.459H10.2359L10.2907 33.1158Z" fill="white"/>
<path d="M26.8211 33.1158H26.219V32.459H26.8211V33.1158ZM25.5622 33.1158H24.9053V32.459H25.5622V33.1158ZM24.1937 33.1158H23.5369V32.459H24.1937V33.1158ZM22.8253 33.1158H22.1685V32.459H22.8253V33.1158ZM21.4569 33.1158H20.8001V32.459H21.4569V33.1158ZM20.0885 33.1158H19.4316V32.459H20.0885V33.1158Z" fill="white"/>
<path d="M36.619 33.1158H36.0169V32.459H36.619V33.1158ZM35.36 33.1158H34.7032V32.459H35.36V33.1158ZM33.9916 33.1158H33.3348V32.459H33.9916V33.1158ZM32.6232 33.1158H31.9663V32.459H32.6232V33.1158ZM31.2548 33.1158H30.5979V32.459H31.2548V33.1158ZM29.8863 33.1158H29.2295V32.459H29.8863V33.1158Z" fill="white"/>
<path d="M36.2907 36.3453H35.6338V35.6884H36.2907V36.3453ZM34.9223 36.3453H34.2107V35.6884H34.8675L34.9223 36.3453ZM33.5538 36.3453H32.897V35.6884H33.5538V36.3453ZM32.1854 36.3453H31.4738V35.6884H32.1307L32.1854 36.3453ZM30.817 36.3453H30.1602V35.6884H30.817V36.3453ZM29.4486 36.3453H28.737V35.6884H29.3938L29.4486 36.3453ZM28.0802 36.3453H27.4233V35.6884H28.0802V36.3453ZM26.7117 36.3453H26.0002V35.6884H26.657L26.7117 36.3453ZM25.3433 36.3453H24.6865V35.6884H25.3433V36.3453ZM23.9749 36.3453H23.2633V35.6884H23.9202L23.9749 36.3453ZM22.6065 36.3453H21.9496V35.6884H22.6065V36.3453ZM21.238 36.3453H20.5265V35.6884H21.1833L21.238 36.3453ZM19.8696 36.3453H19.2128V35.6884H19.8696V36.3453ZM18.5012 36.3453H17.7896V35.6884H18.4465L18.5012 36.3453ZM17.1328 36.3453H16.4759V35.6884H17.1328V36.3453ZM15.7644 36.3453H15.0528V35.6884H15.7096L15.7644 36.3453ZM14.3959 36.3453H13.7391V35.6884H14.3959V36.3453ZM13.0275 36.3453H12.3159V35.6884H12.9728L13.0275 36.3453ZM11.6591 36.3453H11.0023V35.6884H11.6591V36.3453ZM10.2907 36.3453H9.5791V35.6884H10.2359L10.2907 36.3453Z" fill="white"/>
<path d="M25.8906 27.4232V19.8695H27.0401V27.4232H25.8906Z" fill="white"/>
<path d="M28.4087 27.4232V19.8695H30.3792C32.4045 19.8695 34.0466 21.1832 34.0466 23.6463C34.0466 26.0547 32.514 27.4232 30.215 27.4232H28.4087ZM30.3792 26.2737C31.7476 26.2737 32.8424 25.5074 32.8424 23.6463C32.8424 22.0589 31.8571 21.0737 30.4887 21.0737H29.5582V26.3284L30.3792 26.2737Z" fill="white"/>
</svg>
