<svg width="52" height="52" viewBox="0 0 52 52" fill="none" xmlns="http://www.w3.org/2000/svg">
<path d="M25.8907 42.4211C24.9602 42.4211 24.1938 41.6547 24.1938 40.7242H24.8507C24.8507 41.2716 25.2886 41.7642 25.8907 41.7642C26.4928 41.7642 26.9307 41.3263 26.9307 40.7242H27.6423C27.6423 41.6547 26.8212 42.4211 25.8907 42.4211Z" fill="white"/>
<path d="M26.2739 37.4947C23.8108 37.4947 21.4571 36.8379 19.3223 35.6884C19.1581 35.5789 19.1034 35.36 19.2129 35.1958C19.3223 35.0316 19.5413 34.9768 19.7055 35.0863C21.7308 36.2358 23.975 36.8379 26.3286 36.8379C33.6634 36.7832 39.6844 30.8168 39.6844 23.4821C39.6844 16.1474 33.6634 10.1811 26.2739 10.1811C18.8844 10.1811 12.9181 16.1474 12.9181 23.5368C12.9181 27.1495 14.3413 30.5432 16.9686 33.1158C17.0781 33.2253 17.1329 33.4442 16.9686 33.6084C16.8592 33.7179 16.6402 33.7726 16.476 33.6084C13.7392 30.9263 12.2065 27.3684 12.2065 23.5916C12.2065 15.8737 18.5013 9.57895 26.2739 9.57895C34.0465 9.57895 40.3413 15.8737 40.3413 23.5916C40.3413 31.3095 34.0465 37.4947 26.2739 37.4947Z" fill="white"/>
<path d="M17.1329 33.7179H11.9876C11.8234 33.7179 11.6592 33.5537 11.6592 33.3895C11.6592 33.2253 11.8234 33.0611 11.9876 33.0611H16.4213V28.6821C16.4213 28.5179 16.5855 28.3537 16.7497 28.3537C16.9139 28.3537 17.0781 28.5179 17.0781 28.6821L17.1329 33.7179Z" fill="white"/>
<path d="M26.055 35.4695C25.6718 35.4695 25.2887 35.4695 24.9603 35.4147C24.796 35.4147 24.6318 35.2505 24.6318 35.0316C24.6318 34.8674 24.796 34.7032 25.015 34.7032C27.095 34.8674 29.2297 34.539 31.0908 33.6632C31.255 33.6084 31.4739 33.6632 31.5287 33.8274C31.5834 33.9916 31.5287 34.2105 31.3645 34.2653C29.7224 35.0316 27.916 35.4695 26.055 35.4695Z" fill="white"/>
<path d="M27.2593 39.739H24.5772C23.373 39.739 22.3877 38.7537 22.3877 37.5495V32.7326C22.3877 32.5684 22.5519 32.4042 22.7161 32.4042H29.1203C29.2845 32.4042 29.4487 32.5684 29.4487 32.7326V37.5495C29.4487 38.7537 28.4635 39.739 27.2593 39.739ZM23.0445 33.1158V37.6042C23.0445 38.4253 23.7014 39.1369 24.5772 39.1369H27.2593C28.0803 39.1369 28.7919 38.48 28.7919 37.6042V33.1158H23.0445Z" fill="white"/>
<path d="M26.274 33.1158H23.7014C22.9351 33.1158 22.6614 32.5684 22.4425 31.9663L21.6761 29.5031C21.5119 28.9558 21.2382 28.4084 20.8004 27.8063C20.034 26.7116 19.6509 25.3979 19.6509 24.0842H20.3077C20.3077 25.2884 20.6361 26.4379 21.3477 27.4231C21.7856 28.08 22.114 28.6821 22.2782 29.2842L23.0446 31.6926C23.2635 32.2947 23.373 32.3495 23.6467 32.3495H26.2193V33.1158H26.274Z" fill="white"/>
<path d="M28.135 33.1158H25.5624V32.4589H28.135C28.4634 32.4589 28.5181 32.4589 28.7371 31.8021L29.5034 29.3937C29.6676 28.7916 29.996 28.1895 30.4339 27.5326C31.0908 26.5474 31.4739 25.3979 31.4739 24.1937C31.4739 21.1832 29.0108 18.72 25.9455 18.72C22.8803 18.72 20.4171 21.1832 20.4171 24.1937H19.7603C19.7603 20.8 22.5518 18.0084 25.9455 18.0084C29.3392 18.0084 32.1308 20.7453 32.1308 24.1937C32.1308 25.5074 31.7476 26.7663 30.9813 27.8611C30.5981 28.4632 30.3245 29.0105 30.1055 29.5579L29.3392 31.9663C29.1203 32.7874 28.9013 33.1158 28.135 33.1158Z" fill="white"/>
<path d="M21.3959 13.4304L20.8149 13.7369L21.7599 15.5282L22.3409 15.2217L21.3959 13.4304Z" fill="white"/>
<path d="M33.3664 29.3542L32.8887 29.8817L34.3898 31.2412L34.8675 30.7138L33.3664 29.3542Z" fill="white"/>
<path d="M18.2769 15.6072L17.7993 16.1347L19.3006 17.4941L19.7783 16.9666L18.2769 15.6072Z" fill="white"/>
<path d="M34.93 26.5104L34.6611 27.1692L36.5363 27.9344L36.8052 27.2755L34.93 26.5104Z" fill="white"/>
<path d="M16.0798 18.8804L15.811 19.5392L17.6862 20.3042L17.955 19.6453L16.0798 18.8804Z" fill="white"/>
<path d="M35.4964 23.4445L35.4702 24.1008L37.4939 24.1814L37.52 23.5251L35.4964 23.4445Z" fill="white"/>
<path d="M15.1115 22.6963L15.0854 23.3526L17.1091 23.433L17.1352 22.7767L15.1115 22.6963Z" fill="white"/>
<path d="M36.8964 19.693L34.9663 20.3068L35.182 20.985L37.1121 20.3711L36.8964 19.693Z" fill="white"/>
<path d="M34.9905 16.3106L33.3853 17.5454L33.7857 18.0661L35.391 16.8313L34.9905 16.3106Z" fill="white"/>
<path d="M32.0078 13.8143L30.9219 15.5238L31.4763 15.876L32.5623 14.1665L32.0078 13.8143Z" fill="white"/>
<path d="M28.3902 12.4351L27.9565 14.4134L28.5981 14.554L29.0318 12.5757L28.3902 12.4351Z" fill="white"/>
<path d="M25.146 12.2812L24.4951 12.3697L24.7681 14.3766L25.419 14.288L25.146 12.2812Z" fill="white"/>
</svg>
