<svg width="52" height="52" viewBox="0 0 52 52" fill="none" xmlns="http://www.w3.org/2000/svg">
<path d="M24.8502 21.6211C22.1134 21.6211 19.8691 19.3221 19.8691 16.5305C19.8691 13.739 22.1134 11.44 24.8502 11.44C27.587 11.44 29.8312 13.739 29.8312 16.5305C29.8312 19.3221 27.6418 21.6211 24.8502 21.6211ZM24.8502 12.1516C22.4418 12.1516 20.526 14.1221 20.526 16.5305C20.526 18.939 22.4418 20.9095 24.8502 20.9095C27.2586 20.9095 29.1744 18.939 29.1744 16.5305C29.1744 14.1221 27.2586 12.1516 24.8502 12.1516Z" fill="white"/>
<path d="M24.8503 42.4758C21.785 42.4758 18.7745 41.6 16.1471 40.0126C16.0376 39.9579 15.9829 39.8484 15.9829 39.7389V27.6421C15.9829 26.1095 17.0776 24.5221 18.3913 24.0842C22.6061 22.7158 27.0945 22.7158 31.364 24.0842C32.6776 24.5221 33.7724 26.1642 33.7724 27.6421V39.6842C33.7724 39.7937 33.7176 39.9032 33.6082 39.9579C30.9808 41.6547 27.9703 42.4758 24.8503 42.4758ZM16.6945 39.52C19.1576 40.9979 22.004 41.7642 24.905 41.7642C27.8061 41.7642 30.6524 40.9979 33.1155 39.52V27.6421C33.1155 26.4379 32.2398 25.0695 31.1998 24.7411C27.0945 23.4274 22.7703 23.4274 18.665 24.7411C17.625 25.0695 16.7492 26.4379 16.7492 27.6421L16.6945 39.52Z" fill="white"/>
<path d="M20.2525 31.0358H19.5957V41.4358H20.2525V31.0358Z" fill="white"/>
<path d="M30.1598 31.0358H29.5029V41.4358H30.1598V31.0358Z" fill="white"/>
<path d="M24.8504 42.4758C15.7093 42.4758 8.31982 35.0863 8.31982 26C8.31982 16.9137 15.764 9.5242 24.8504 9.5242C33.9367 9.5242 41.4356 16.9137 41.4356 26C41.4356 26.9853 41.3261 28.0253 41.1619 29.0105C41.1072 29.1747 40.9977 29.2842 40.8335 29.2842H40.7788L36.8377 29.3937C36.6735 29.3937 36.564 29.5031 36.564 29.6674L36.6735 33.6631C36.6735 33.8274 36.7282 33.9368 36.8377 34.0463L38.1514 35.36C38.2609 35.4695 38.2609 35.6884 38.2061 35.7979C35.0314 40.0126 30.1051 42.4758 24.8504 42.4758ZM24.8504 10.181C16.0925 10.181 8.97667 17.2968 8.97667 26C8.97667 34.7031 16.0925 41.8189 24.8504 41.8189C29.7219 41.8189 34.4293 39.52 37.3851 35.6884L36.2904 34.5937C36.0714 34.3747 35.9072 34.0463 35.9072 33.7179L35.7977 29.7221C35.7977 29.1747 36.1809 28.7368 36.7282 28.7368L40.4504 28.6274C40.6146 27.7516 40.6693 26.8758 40.6693 26C40.724 17.2968 33.6082 10.181 24.8504 10.181Z" fill="white"/>
<path d="M38.0965 31.3642C37.987 31.3642 37.9323 31.3095 37.8776 31.2547L32.4039 25.781C32.2944 25.6716 32.2944 25.4526 32.4039 25.2884C32.5134 25.1789 32.7323 25.1789 32.8965 25.2884L38.3702 30.7621C38.4797 30.8716 38.4797 31.0905 38.3702 31.2547C38.3155 31.3095 38.206 31.3642 38.0965 31.3642Z" fill="white"/>
<path d="M13.6406 14.4904L13.1768 14.9555L36.0447 37.7588L36.5085 37.2937L13.6406 14.4904Z" fill="white"/>
<path d="M42.5304 40.341C42.2567 40.341 42.0378 40.2316 41.8736 40.0674L36.3452 34.5389C36.1262 34.32 35.962 33.9916 35.962 33.6632L35.8525 29.6674C35.8525 29.12 36.2357 28.6821 36.7831 28.6821L40.7789 28.5726C41.1073 28.5726 41.4357 28.6821 41.7094 28.9011L47.2378 34.4295C47.402 34.5937 47.5115 34.8126 47.5115 35.0863C47.5115 35.36 47.4568 35.5789 47.2378 35.7432L43.242 40.0126C43.0231 40.2316 42.8041 40.341 42.5304 40.341ZM36.8378 34.101L42.3662 39.6295C42.421 39.6842 42.4757 39.6842 42.5304 39.6842C42.5852 39.6842 42.6399 39.6295 42.6946 39.6295L46.6904 35.36C46.7452 35.3053 46.7452 35.2505 46.7452 35.1958C46.7452 35.1411 46.6904 35.0863 46.6904 35.0316L41.162 29.4484C41.0525 29.3389 40.9431 29.2842 40.7789 29.2842L36.7831 29.3937C36.6189 29.3937 36.5094 29.5032 36.5094 29.6674L36.6736 33.6632C36.6736 33.8274 36.7283 33.9916 36.8378 34.101Z" fill="white"/>
</svg>
