<svg width="52" height="52" viewBox="0 0 52 52" fill="none" xmlns="http://www.w3.org/2000/svg">
<path d="M29.3938 26.4379H28.1896V25.7811H29.3938V26.4379ZM26.9854 26.4379H25.7811V25.7811H26.9854V26.4379ZM24.5769 26.4379H23.3727V25.7811H24.5769V26.4379ZM22.2233 26.4379H21.019V25.7811H22.2233V26.4379Z" fill="white"/>
<path d="M25.2335 9.30527H24.5767V16.5853H25.2335V9.30527Z" fill="white"/>
<path d="M31.8019 14.6148H24.5767V10.0716H31.8019L30.8167 12.3705L31.8019 14.6148ZM25.2882 13.9032H30.7619L30.0503 12.3158L30.7619 10.7284H25.2882V13.9032Z" fill="white"/>
<path d="M34.2653 39.3011H16.8042V39.9579H34.2653V39.3011Z" fill="white"/>
<path d="M32.6232 39.52H31.9116V22.9348H19.1032V39.52H18.3916V22.2232H32.6232V39.52Z" fill="white"/>
<path d="M34.1557 22.9348H16.8589V17.7895H34.101L34.1557 22.9348ZM17.5705 22.2232H33.4441V18.4463H17.5705V22.2232Z" fill="white"/>
<path d="M29.3937 39.3558H28.6821V29.3937H22.2779V39.3558H21.6211V28.7369H29.3937V39.3558Z" fill="white"/>
<path d="M35.2504 41.5453H15.8188V42.2021H35.2504V41.5453Z" fill="white"/>
<path d="M10.6188 41.7095H9.90723V25.7263H17.3514V26.4379H10.6188V41.7095Z" fill="white"/>
<path d="M40.9979 41.7095H40.2863V26.4379H33.5537V25.7263H40.9979V41.7095Z" fill="white"/>
</svg>
