<svg width="52" height="52" viewBox="0 0 52 52" fill="none" xmlns="http://www.w3.org/2000/svg">
<path d="M26.0001 42.4758H9.14111V34.4842H26.0001V42.4758ZM9.79795 41.819H25.2885V35.1411H9.79795V41.819Z" fill="white"/>
<path d="M42.2022 42.4758H25.3433V34.4842H42.2022V42.4758ZM26.0001 41.819H41.5454V35.1411H26.0001V41.819Z" fill="white"/>
<path d="M40.5053 34.9769H35.1411V32.459H40.5053V34.9769ZM35.798 34.32H39.7937V33.1705H35.798V34.32Z" fill="white"/>
<path d="M32.7329 34.9769H27.3687V32.459H32.7329V34.9769ZM28.0255 34.32H32.0213V33.1705H28.0255V34.32Z" fill="white"/>
<path d="M23.9746 34.9769H18.6104V32.459H23.9746V34.9769ZM19.3219 34.32H23.3177V33.1705H19.3219V34.32Z" fill="white"/>
<path d="M16.2568 34.9769H10.8926V32.459H16.2568V34.9769ZM11.5494 34.32H15.5452V33.1705H11.5494V34.32Z" fill="white"/>
<path d="M19.6505 29.5579L16.2568 22.2779L31.5284 15.1621L34.9221 22.4421L19.6505 29.5579ZM17.1326 22.6611L19.9789 28.6821L34.0463 22.1684L31.2 16.1474L17.1326 22.6611Z" fill="white"/>
<path d="M25.015 18.3916L24.1392 16.4211L29.0107 14.1768L29.8865 16.1474L29.2844 16.4211L28.6823 15.0526L25.015 16.7495L25.6718 18.1179L25.015 18.3916Z" fill="white"/>
<path d="M18.0087 21.6758L17.0781 19.7053L21.9497 17.4063L22.8802 19.4316L22.2781 19.7053L21.6213 18.3369L18.0087 20.0337L18.6108 21.4021L18.0087 21.6758Z" fill="white"/>
<path d="M12.8083 29.5579L9.30518 27.6421L9.6336 27.04L12.5346 28.6274L14.122 25.7263L14.7241 26.0547L12.8083 29.5579Z" fill="white"/>
<path d="M12.3704 29.12C12.1514 28.4084 11.9325 27.6421 11.823 26.9305L12.4798 26.8211C12.5893 27.5326 12.8083 28.2442 13.0272 28.9011L12.3704 29.12ZM11.6041 25.4526C11.6041 25.1242 11.5493 24.7411 11.5493 24.4126C11.5493 23.9747 11.5493 23.5916 11.6041 23.1537L12.2609 23.2084C12.2062 23.5916 12.2062 23.9747 12.2062 24.4126C12.2062 24.7411 12.2062 25.0695 12.2609 25.3979L11.6041 25.4526ZM12.5346 21.7853L11.8777 21.6758C12.0419 20.9095 12.2062 20.1979 12.4798 19.4863L13.1367 19.7053C12.863 20.3621 12.6441 21.0737 12.5346 21.7853ZM40.0672 19.8695C39.903 19.4316 39.7388 18.9937 39.5746 18.5558L40.1767 18.2821C40.3956 18.72 40.5598 19.2126 40.7241 19.6505L40.0672 19.8695ZM13.6293 18.3916L13.0272 18.1179C13.3556 17.4611 13.7388 16.7495 14.1219 16.1474L14.6693 16.5305C14.2862 17.0779 13.9577 17.7347 13.6293 18.3916ZM38.9177 17.2968C38.5346 16.6947 38.1514 16.0926 37.7135 15.4905L38.2609 15.0526C38.7535 15.6547 39.1914 16.2568 39.5198 16.9137L38.9177 17.2968ZM15.5451 15.3263L14.9977 14.8884C15.4904 14.2863 16.0377 13.739 16.5851 13.2463L17.023 13.739C16.5304 14.2316 16.0377 14.779 15.5451 15.3263ZM36.7283 14.4505C36.2356 13.9579 35.6883 13.4653 35.0862 13.0274L35.4693 12.48C36.0714 12.9179 36.6735 13.4105 37.1662 13.9579L36.7283 14.4505ZM18.1725 12.8632L17.7893 12.3158C18.3914 11.8779 19.0483 11.4947 19.7051 11.1116L20.0335 11.7137C19.3767 12.0968 18.7746 12.48 18.1725 12.8632ZM33.882 12.2063C33.2798 11.8232 32.623 11.4947 31.9662 11.2211L32.2398 10.5642C32.9514 10.8379 33.6083 11.1663 34.2651 11.5495L33.882 12.2063ZM21.3472 11.1663L21.0735 10.5095C21.2925 10.4 21.5114 10.3453 21.7304 10.2905C22.223 10.1263 22.7156 9.96211 23.2083 9.85264L23.3725 10.5095C22.8798 10.619 22.4419 10.7284 21.9493 10.8926C21.7851 11.0021 21.5662 11.1116 21.3472 11.1663ZM30.5977 10.7832C29.8862 10.5642 29.1746 10.4 28.463 10.3453L28.5725 9.68843C29.3388 9.7979 30.0504 9.96211 30.8167 10.1811L30.5977 10.7832ZM24.8504 10.2905L24.7956 9.63369C25.3977 9.57895 25.9451 9.52422 26.5472 9.52422C26.7114 9.52422 26.8756 9.52422 27.0398 9.52422V10.1811C26.8756 10.1811 26.7662 10.1811 26.5472 10.1811C25.9998 10.1811 25.3977 10.2358 24.8504 10.2905Z" fill="white"/>
</svg>
