<svg width="52" height="52" viewBox="0 0 52 52" fill="none" xmlns="http://www.w3.org/2000/svg">
<path d="M33.5537 36.4547H19.5958C19.4316 36.4547 19.2674 36.2905 19.2674 36.1263C19.1032 33.4442 16.859 31.3642 14.1768 31.3642C11.4947 31.3642 9.25053 33.4442 9.08632 36.1263C9.08632 36.2905 8.92211 36.4547 8.7579 36.4547H5.2C5.03579 36.4547 4.87158 36.2905 4.87158 36.1263V9.57894C4.87158 9.41473 5.03579 9.25052 5.2 9.25052H33.6084C33.7726 9.25052 33.9368 9.41473 33.9368 9.57894V36.1263C33.9368 36.3453 33.7726 36.4547 33.5537 36.4547ZM19.8147 35.7979H33.2253V9.90736H5.47369V35.7979H8.37474C8.70316 32.9516 11.1663 30.7074 14.1221 30.7074C17.0779 30.7074 19.4863 32.9516 19.8147 35.7979Z" fill="white"/>
<path d="M46.855 36.4547H44.5013C44.3371 36.4547 44.1729 36.2905 44.1729 36.1263C44.0086 33.4442 41.7644 31.3642 39.0823 31.3642C36.5097 31.3642 34.3202 33.28 34.0465 35.8526C34.0465 36.0168 33.8823 36.181 33.6634 36.181C33.4992 36.181 33.335 36.0168 33.335 35.8526V16.0926C33.335 15.9284 33.4992 15.7642 33.6634 15.7642H43.0234C43.1329 15.7642 43.2971 15.8189 43.3518 15.9831L47.1834 24.6316C47.1834 24.6863 47.2381 24.741 47.2381 24.7958V36.1263C47.1834 36.3452 47.0192 36.4547 46.855 36.4547ZM44.8297 35.7979H46.5265V24.7958L42.8044 16.421H33.9918V33.7179C34.9771 31.9116 36.8929 30.7621 39.0276 30.7621C42.0381 30.7073 44.4465 32.9516 44.8297 35.7979Z" fill="white"/>
<path d="M46.8546 25.0695H36.783C36.6188 25.0695 36.4546 24.9053 36.4546 24.7411V16.1474H37.1114V24.3579H46.8546V25.0695Z" fill="white"/>
<path d="M33.5539 24.3579H5.14551V25.0147H33.5539V24.3579Z" fill="white"/>
<path d="M14.1767 17.1874C12.6988 17.1874 11.4946 15.9831 11.4946 14.5053C11.4946 13.0274 12.6988 11.8232 14.1767 11.8232C15.6546 11.8232 16.8588 13.0274 16.8588 14.5053C16.8588 15.9831 15.6546 17.1874 14.1767 17.1874ZM14.1767 12.48C13.082 12.48 12.2062 13.3558 12.2062 14.5053C12.2062 15.6547 13.082 16.5305 14.1767 16.5305C15.2715 16.5305 16.1473 15.6547 16.1473 14.5053C16.1473 13.3558 15.2715 12.48 14.1767 12.48Z" fill="white"/>
<path d="M18.8296 24.741H18.1728V20.0337C18.1728 19.4863 17.7896 18.8842 17.3517 18.72C15.3265 18.0631 13.1917 18.0631 11.2212 18.72C10.7833 18.8842 10.4002 19.4863 10.4002 20.0337V24.741H9.5791V20.0337C9.5791 19.2126 10.1812 18.3368 10.8928 18.1179C13.0275 17.4063 15.3265 17.4063 17.4612 18.1179C18.1728 18.3368 18.7749 19.2126 18.7749 20.0337L18.8296 24.741Z" fill="white"/>
<path d="M12.2062 21.7305H11.5493V24.7411H12.2062V21.7305Z" fill="white"/>
<path d="M16.859 21.7305H16.2021V24.7411H16.859V21.7305Z" fill="white"/>
<path d="M25.0146 17.1874C23.5367 17.1874 22.3325 15.9831 22.3325 14.5053C22.3325 13.0274 23.5367 11.8232 25.0146 11.8232C26.4925 11.8232 27.6967 13.0274 27.6967 14.5053C27.6967 15.9831 26.4925 17.1874 25.0146 17.1874ZM25.0146 12.48C23.9199 12.48 23.0441 13.3558 23.0441 14.5053C23.0441 15.6547 23.9199 16.5305 25.0146 16.5305C26.1094 16.5305 26.9852 15.6547 26.9852 14.5053C26.9852 13.3558 26.1094 12.48 25.0146 12.48Z" fill="white"/>
<path d="M29.6127 24.741H28.9558V20.0337C28.9558 19.4863 28.5727 18.8842 28.1348 18.72C26.1095 18.0631 23.9748 18.0631 22.0043 18.72C21.5664 18.8842 21.1832 19.4863 21.1832 20.0337V24.741H20.5264V20.0337C20.5264 19.2126 21.1285 18.3368 21.8401 18.1179C23.9748 17.4063 26.2737 17.4063 28.4085 18.1179C29.1201 18.3368 29.7222 19.2126 29.7222 20.0337V24.741H29.6127Z" fill="white"/>
<path d="M23.0441 21.7305H22.3872V24.7411H23.0441V21.7305Z" fill="white"/>
<path d="M27.6969 21.7305H27.04V24.7411H27.6969V21.7305Z" fill="white"/>
<path d="M39.0819 42.2021C35.9072 42.2021 33.2798 39.6295 33.2798 36.4547C33.2798 33.28 35.8524 30.7074 39.0819 30.7074C42.3114 30.7074 44.884 33.28 44.884 36.4547C44.884 39.6295 42.2566 42.2021 39.0819 42.2021ZM39.0819 31.4189C36.2903 31.4189 33.9914 33.6632 33.9914 36.4547C33.9914 39.2463 36.2903 41.4905 39.0819 41.4905C41.8735 41.4905 44.1724 39.2463 44.1724 36.4547C44.1724 33.6632 41.8735 31.4189 39.0819 31.4189Z" fill="white"/>
<path d="M14.1219 42.2021C10.9472 42.2021 8.31982 39.6295 8.31982 36.4547C8.31982 33.28 10.8925 30.7074 14.1219 30.7074C17.3514 30.7074 19.924 33.28 19.924 36.4547C19.924 39.6295 17.2967 42.2021 14.1219 42.2021ZM14.1219 31.4189C11.3303 31.4189 9.0314 33.6632 9.0314 36.4547C9.0314 39.2463 11.3303 41.4905 14.1219 41.4905C16.9135 41.4905 19.2125 39.2463 19.2125 36.4547C19.2125 33.6632 16.9135 31.4189 14.1219 31.4189Z" fill="white"/>
</svg>
