<svg width="52" height="52" viewBox="0 0 52 52" fill="none" xmlns="http://www.w3.org/2000/svg">
<path d="M15.5998 23.0442H14.8882V22.3326H15.545L15.5998 23.0442ZM15.5998 21.621H14.8882V20.9095H15.545L15.5998 21.621Z" fill="white"/>
<path d="M19.5406 23.0442H18.8838V22.3326H19.5406V23.0442ZM19.5406 21.621H18.8838V20.9095H19.5406V21.621Z" fill="white"/>
<path d="M27.0949 36.8379H23.4822V33.1158C22.5517 32.5137 22.0591 31.4737 22.0591 30.3789C22.1138 28.6274 23.5917 27.2042 25.3433 27.2589C26.2191 27.2589 26.9854 27.6421 27.5875 28.2442C28.1896 28.8463 28.518 29.6674 28.4633 30.5432C28.4633 31.5832 27.9159 32.5684 27.0401 33.1158L27.0949 36.8379ZM24.1391 36.181H26.3833V32.7326L26.5475 32.6232C27.3138 32.1853 27.8065 31.3642 27.8065 30.4884C27.8065 29.8316 27.5875 29.1747 27.0949 28.6821C26.6022 28.1895 26.0001 27.9158 25.2886 27.9158C23.8654 27.9158 22.7159 29.0105 22.6612 30.3789C22.6612 31.3095 23.0991 32.1305 23.9201 32.6232L24.0843 32.7326L24.1391 36.181Z" fill="white"/>
<path d="M25.2336 42.4758C25.1242 42.4758 25.0147 42.4758 24.9052 42.4758C21.2926 42.421 17.8989 40.9431 15.4905 38.4253C13.3558 36.181 12.2063 33.3347 12.3158 30.3242L12.48 24.2484H38.261L38.0968 30.9263C37.9326 37.3305 32.1852 42.4758 25.2336 42.4758ZM13.1368 24.96L12.9726 30.3789C12.9179 33.1705 13.9579 35.8526 15.9831 37.9874C18.2273 40.341 21.5115 41.7642 24.9052 41.8189C31.6379 41.9832 37.2758 37.0568 37.3852 30.9263L37.5494 25.0147H13.1368V24.96Z" fill="white"/>
<path d="M25.3434 10.181H25.2339L25.2886 9.5242H25.3434V10.181Z" fill="white"/>
<path d="M35.5243 24.96H31.0906V19.76C31.0906 16.5853 28.4633 13.9579 25.2885 13.9579C22.1685 13.9579 19.6506 16.4211 19.4864 19.4863V19.8147H15.0527V19.4863C15.2169 13.9579 19.7054 9.57895 25.2885 9.57895C30.9264 9.57895 35.5791 14.1768 35.5791 19.8147V24.96H35.5243ZM31.8022 24.2484H34.8675V19.76C34.8675 14.5053 30.5433 10.2358 25.2885 10.1811C20.198 10.1811 16.0927 14.0674 15.7643 19.1032H18.8296C19.158 15.8189 21.9496 13.2463 25.2885 13.2463C28.9012 13.2463 31.8022 16.2021 31.8022 19.76V24.2484Z" fill="white"/>
</svg>
