<svg width="52" height="52" viewBox="0 0 52 52" fill="none" xmlns="http://www.w3.org/2000/svg">
<path d="M37.2436 20.9786L37.1772 31.5975L37.8888 31.602L37.9552 20.983L37.2436 20.9786Z" fill="white"/>
<path d="M14.7409 21.0718L14.0293 21.077L14.1064 31.7506L14.8179 31.7455L14.7409 21.0718Z" fill="white"/>
<path d="M18.3365 28.7368H17.6797V42.5305H18.3365V28.7368Z" fill="white"/>
<path d="M34.2648 28.7368H33.6079V42.5305H34.2648V28.7368Z" fill="white"/>
<path d="M26.3282 28.7368H25.6714V42.5305H26.3282V28.7368Z" fill="white"/>
<path d="M30.2691 28.7368H29.6123V42.5305H30.2691V28.7368Z" fill="white"/>
<path d="M22.3321 28.7368H21.6753V42.5305H22.3321V28.7368Z" fill="white"/>
<path d="M22.2228 18.8295H21.5659V27.4231H22.2228V18.8295Z" fill="white"/>
<path d="M30.2691 18.8295H29.6123V27.4231H30.2691V18.8295Z" fill="white"/>
<path d="M17.8441 24.96L15.3262 20.5811H20.4167L17.8441 24.96ZM16.5304 21.2926L17.8988 23.6463L19.2672 21.2926H16.5304Z" fill="white"/>
<path d="M25.9452 24.6316C24.8504 24.6316 23.9199 23.7011 23.9199 22.6063C23.9199 21.5116 24.8504 20.5811 25.9452 20.5811C27.0399 20.5811 27.9704 21.5116 27.9704 22.6063C27.9704 23.7011 27.0399 24.6316 25.9452 24.6316ZM25.9452 21.2926C25.1789 21.2926 24.5768 21.8947 24.5768 22.6063C24.5768 23.3179 25.1789 23.92 25.9452 23.92C26.7115 23.92 27.3136 23.3179 27.3136 22.6063C27.2589 21.8947 26.6568 21.2926 25.9452 21.2926Z" fill="white"/>
<path d="M35.7976 24.6316H31.7471V20.5811H35.7976V24.6316ZM32.4586 23.9747H35.1408V21.2926H32.4586V23.9747Z" fill="white"/>
<path d="M26.2737 15.7642C24.6316 15.7642 23.3179 14.4505 23.3179 12.8084C23.3179 11.1663 24.6316 9.85263 26.2737 9.85263C27.9158 9.85263 29.2295 11.1663 29.2295 12.8084C29.2295 14.4505 27.861 15.7642 26.2737 15.7642ZM26.2737 10.5642C25.0147 10.5642 24.0295 11.5495 24.0295 12.8084C24.0295 14.0674 25.0695 15.0526 26.2737 15.0526C27.4779 15.0526 28.5179 14.0674 28.5179 12.8084C28.5179 11.5495 27.4779 10.5642 26.2737 10.5642Z" fill="white"/>
<path d="M18.6653 15.7642C17.0232 15.7642 15.7095 14.4505 15.7095 12.8084C15.7095 11.1663 17.0232 9.85263 18.6653 9.85263C20.3074 9.85263 21.6211 11.1663 21.6211 12.8084C21.6211 14.4505 20.2526 15.7642 18.6653 15.7642ZM18.6653 10.5642C17.4063 10.5642 16.4211 11.5495 16.4211 12.8084C16.4211 14.0674 17.4611 15.0526 18.6653 15.0526C19.9242 15.0526 20.9095 14.0674 20.9095 12.8084C20.9095 11.5495 19.9242 10.5642 18.6653 10.5642Z" fill="white"/>
<path d="M33.8821 15.7642C32.24 15.7642 30.9263 14.4505 30.9263 12.8084C30.9263 11.1663 32.24 9.85263 33.8821 9.85263C35.5242 9.85263 36.8379 11.1663 36.8379 12.8084C36.8379 14.4505 35.4694 15.7642 33.8821 15.7642ZM33.8821 10.5642C32.6231 10.5642 31.6378 11.5495 31.6378 12.8084C31.6378 14.0674 32.6779 15.0526 33.8821 15.0526C35.141 15.0526 36.1263 14.0674 36.1263 12.8084C36.1263 11.5495 35.0863 10.5642 33.8821 10.5642Z" fill="white"/>
<path d="M14.7787 20.1432C14.2313 20.1432 13.6839 19.9242 13.1913 19.5411C12.6987 19.1032 12.425 18.5011 12.3702 17.8989C12.3155 17.4063 12.4797 16.9684 12.8081 16.64C13.5197 15.8737 14.8334 15.8737 15.7092 16.6947C16.2018 17.1326 16.4755 17.7347 16.5302 18.2821C16.585 18.7747 16.4208 19.2126 16.0923 19.5411C15.7639 19.9789 15.2713 20.1432 14.7787 20.1432ZM14.1218 16.7495C13.7934 16.7495 13.5197 16.8589 13.3008 17.0779C13.0818 17.3516 13.0271 17.6253 13.0271 17.8442C13.0271 18.2821 13.246 18.6653 13.6292 18.9937C14.286 19.5411 15.1618 19.5958 15.5997 19.1032C15.7639 18.8842 15.8734 18.6105 15.8734 18.3368C15.8734 17.8989 15.6544 17.5158 15.2713 17.1874C14.9429 16.9137 14.505 16.7495 14.1218 16.7495Z" fill="white"/>
<path d="M35.7977 42.8589H16.2019C15.3262 42.8589 14.6146 42.2021 14.5598 41.3263L14.1219 31.3095C14.1219 30.8168 13.6841 30.4337 13.1914 30.4337C12.3156 30.4337 11.5493 29.7221 11.5493 28.7916V20.9095C11.5493 19.9242 11.9325 18.9937 12.6441 18.2821L12.9725 17.9537L13.1914 18.3916C13.3009 18.6105 13.4651 18.8295 13.6293 18.9937C14.2862 19.541 15.1619 19.5958 15.5998 19.1031C15.8735 18.7747 15.9283 18.2274 15.7093 17.7347L15.4904 17.2421H36.564L36.3451 17.7347C36.0714 18.2274 36.1262 18.7747 36.4546 19.1031C36.8925 19.5958 37.7683 19.541 38.4251 18.9937C38.5893 18.8295 38.7535 18.6105 38.863 18.3916L39.0819 17.9537L39.4104 18.2821C40.1219 18.9937 40.5051 19.8695 40.5051 20.8547V28.7368C40.5051 29.6126 39.7935 30.3789 38.863 30.3789C38.3704 30.3789 37.9325 30.7621 37.9325 31.2547L37.4398 41.2716C37.3304 42.2021 36.6188 42.8589 35.7977 42.8589ZM12.8083 19.1031C12.4251 19.5958 12.2062 20.2526 12.2062 20.8547V28.7368C12.2062 29.2295 12.6441 29.6674 13.1367 29.6674C14.0125 29.6674 14.7241 30.3242 14.7788 31.2L15.2714 41.2168C15.2714 41.7095 15.7093 42.0926 16.2019 42.0926H35.743C36.2356 42.0926 36.6735 41.7095 36.6735 41.2168L37.1662 31.2C37.2209 30.3242 37.9325 29.6674 38.8083 29.6674C39.3009 29.6674 39.7388 29.2295 39.7388 28.7368V20.9095C39.7388 20.2526 39.5198 19.6505 39.1367 19.1579C39.0272 19.3221 38.9177 19.4316 38.7535 19.541C37.823 20.3621 36.5093 20.3621 35.8525 19.5958C35.4693 19.1579 35.3598 18.5558 35.4693 17.9537H16.4756C16.6398 18.5558 16.4756 19.1579 16.0925 19.5958C15.3809 20.3621 14.0672 20.3621 13.1914 19.541C13.0819 19.3768 12.9177 19.2674 12.8083 19.1031Z" fill="white"/>
<path d="M37.2208 20.1432C36.7282 20.1432 36.2356 19.979 35.9071 19.5958C35.5787 19.2674 35.4692 18.8295 35.4692 18.3369C35.524 17.7348 35.7977 17.1326 36.2903 16.7495C37.2208 15.9284 38.5345 15.9284 39.1913 16.6948C39.5198 17.0232 39.6292 17.4611 39.6292 17.9537C39.5745 18.5558 39.3008 19.1579 38.8082 19.5958C38.3156 19.9242 37.7682 20.1432 37.2208 20.1432ZM37.8777 16.7495C37.4945 16.7495 37.1113 16.9137 36.7282 17.1874C36.3998 17.5158 36.1808 17.899 36.1261 18.3369C36.1261 18.6653 36.1808 18.8842 36.3998 19.1032C36.8377 19.5958 37.7134 19.5411 38.3703 18.9937C38.6987 18.6653 38.9177 18.2821 38.9724 17.8442C38.9724 17.6253 38.9724 17.2969 38.6987 17.0779C38.4798 16.859 38.2061 16.7495 37.8777 16.7495Z" fill="white"/>
</svg>
