<svg width="52" height="52" viewBox="0 0 52 52" fill="none" xmlns="http://www.w3.org/2000/svg">
<path d="M16.7494 32.6232L15.2168 30.7621L15.7094 30.3242L16.8589 31.6926L19.9789 29.0105L20.4168 29.5032L16.7494 32.6232Z" fill="white"/>
<path d="M19.6506 37.7684C19.3222 37.7684 18.9937 37.659 18.6653 37.6042C18.3369 37.5495 18.0632 37.44 17.7895 37.44C17.5158 37.44 17.2422 37.4947 16.9137 37.6042C16.4211 37.7137 15.9285 37.8779 15.4358 37.7137C14.9432 37.5495 14.56 37.1116 14.2316 36.7284C14.0127 36.5095 13.8485 36.2905 13.6295 36.1263C13.4106 35.9621 13.1369 35.8526 12.8632 35.7432C12.3706 35.579 11.8779 35.36 11.6043 34.9221C11.3306 34.539 11.3306 34.0463 11.2758 33.5537C11.2758 33.2253 11.2211 32.9516 11.1664 32.7326C11.1116 32.5137 10.9474 32.2947 10.7832 32.0211C10.5095 31.5832 10.2358 31.1453 10.2358 30.5979C10.2358 30.0505 10.5095 29.5579 10.7832 29.1747C10.9474 28.9011 11.1116 28.6821 11.1664 28.4632C11.2211 28.2442 11.2758 27.9158 11.2758 27.6421C11.3306 27.1495 11.3306 26.6021 11.659 26.1642C11.9874 25.7263 12.4801 25.5621 12.9179 25.3432C13.1916 25.2337 13.4653 25.1242 13.6843 24.96C13.9032 24.7958 14.0674 24.5769 14.2864 24.3579C14.6148 23.9747 14.9432 23.5369 15.4906 23.3726C15.9832 23.2084 16.4758 23.3179 16.9685 23.4821C17.2969 23.5369 17.5706 23.6463 17.8443 23.6463C18.1179 23.6463 18.3916 23.5916 18.7201 23.4821C19.2127 23.3726 19.7053 23.2084 20.1979 23.3726C20.6906 23.5369 21.0737 23.9747 21.4022 24.3579C21.6211 24.5769 21.7853 24.7958 22.0043 24.96C22.2232 25.1242 22.4969 25.2337 22.7706 25.3432C23.2632 25.5074 23.7558 25.7263 24.0295 26.1642C24.3579 26.6021 24.3579 27.0947 24.4127 27.6421C24.4127 27.9705 24.4674 28.2442 24.5222 28.4632C24.5769 28.6821 24.7411 28.9011 24.9053 29.1747C25.179 29.6126 25.4527 30.0505 25.4527 30.5979C25.4527 31.1453 25.179 31.6379 24.9053 32.0211C24.7411 32.2947 24.5769 32.5137 24.5222 32.7326C24.4674 32.9516 24.4127 33.28 24.4127 33.5537C24.3579 34.0463 24.3579 34.5937 24.0295 35.0316C23.7011 35.4695 23.2085 35.6337 22.7706 35.8526C22.4969 35.9621 22.2232 36.0716 22.0043 36.2358C21.7853 36.4 21.6211 36.619 21.4022 36.8379C21.0737 37.2211 20.7453 37.659 20.1979 37.8232C19.979 37.7684 19.8148 37.7684 19.6506 37.7684ZM15.9285 23.9747C15.819 23.9747 15.7095 23.9747 15.6548 24.0295C15.3264 24.139 15.0527 24.4674 14.779 24.7958C14.56 25.0695 14.3411 25.2884 14.0674 25.5074C13.7937 25.7263 13.4653 25.8358 13.1369 25.9453C12.7537 26.1095 12.3706 26.2737 12.1516 26.4926C11.9327 26.7663 11.9327 27.1495 11.8779 27.5874C11.8779 27.9158 11.8232 28.2442 11.7137 28.5726C11.6043 28.9011 11.4401 29.1747 11.2758 29.4484C11.0569 29.8316 10.8379 30.16 10.8379 30.4884C10.8379 30.8169 11.0569 31.2 11.2758 31.5284C11.4401 31.8021 11.659 32.0758 11.7137 32.4042C11.8232 32.7326 11.8232 33.0611 11.8779 33.3895C11.9327 33.8274 11.9327 34.2105 12.1516 34.4842C12.3706 34.7579 12.7537 34.9221 13.1369 35.0316C13.4653 35.1411 13.7937 35.3053 14.0674 35.4695C14.3411 35.6884 14.56 35.9074 14.779 36.1811C15.0527 36.5095 15.3264 36.8379 15.6548 36.9474C15.9832 37.0569 16.3664 36.9474 16.7495 36.8379C17.0779 36.7284 17.4064 36.6737 17.7895 36.6737C18.1727 36.6737 18.5011 36.7832 18.8295 36.8379C19.2674 36.9474 19.6506 37.0569 19.9243 36.9474C20.2527 36.8379 20.5264 36.5095 20.8 36.1811C21.019 35.9074 21.2379 35.6884 21.5116 35.4695C21.7853 35.2505 22.1137 35.1411 22.4422 35.0316C22.8253 34.8674 23.2085 34.7032 23.4274 34.4842C23.6464 34.2105 23.6464 33.8274 23.7011 33.3895C23.7011 33.0611 23.7558 32.7326 23.8653 32.4042C23.9748 32.0758 24.139 31.8021 24.3032 31.5284C24.5222 31.1453 24.7411 30.8169 24.7411 30.4884C24.7411 30.16 24.5222 29.7769 24.3032 29.4484C24.139 29.1747 23.92 28.9011 23.8653 28.5726C23.7558 28.2442 23.7558 27.9158 23.7011 27.5874C23.6464 27.1495 23.6464 26.7663 23.4274 26.4926C23.2085 26.219 22.8253 26.0547 22.4422 25.9453C22.1137 25.8358 21.7853 25.6716 21.5116 25.5074C21.2379 25.2884 21.019 25.0695 20.8 24.7958C20.5264 24.4674 20.2527 24.139 19.9243 24.0295C19.5958 23.92 19.2127 24.0295 18.8295 24.139C18.5011 24.2484 18.1727 24.3032 17.7895 24.3032C17.4064 24.3032 17.0779 24.1937 16.7495 24.139C16.4758 24.0295 16.2022 23.9747 15.9285 23.9747Z" fill="white"/>
<path d="M40.5054 42.859H16.9686C16.8043 42.859 16.6401 42.6948 16.6401 42.5305V37.2758H17.3517V42.2021H40.177V18.2274L32.4591 10.5642H17.3517V23.4821H16.6949V10.2358C16.6949 10.0716 16.8591 9.90738 17.0233 9.90738H32.6233C32.7328 9.90738 32.7875 9.96212 32.8422 10.0169L40.7791 17.899C40.8338 17.9537 40.8886 18.0632 40.8886 18.1179V42.5305C40.8338 42.6948 40.7243 42.859 40.5054 42.859Z" fill="white"/>
<path d="M40.5054 18.4463H32.6233C32.4591 18.4463 32.2949 18.2821 32.2949 18.1179V10.2358C32.2949 10.0716 32.4044 9.96211 32.5139 9.90738C32.6233 9.85264 32.7876 9.90738 32.897 9.96211L40.8339 17.8442C40.9433 17.9537 40.9433 18.0632 40.8886 18.2274C40.7791 18.3369 40.6697 18.4463 40.5054 18.4463ZM32.9518 17.7347H39.6844L32.9518 11.0569V17.7347Z" fill="white"/>
<path d="M17.7895 34.8674C15.4358 34.8674 13.52 32.9516 13.52 30.5979C13.52 28.2442 15.4358 26.3284 17.7895 26.3284C20.1432 26.3284 22.059 28.2442 22.059 30.5979C22.059 32.9516 20.1432 34.8674 17.7895 34.8674ZM17.7895 27.04C15.819 27.04 14.2316 28.6274 14.2316 30.5979C14.2316 32.5684 15.819 34.1558 17.7895 34.1558C19.76 34.1558 21.3474 32.5684 21.3474 30.5979C21.3474 28.6274 19.76 27.04 17.7895 27.04Z" fill="white"/>
<path d="M28.7368 37.2758C28.6273 37.2758 28.5178 37.2211 28.4631 37.1663C28.0799 36.8927 28.3536 36.2905 28.7368 35.4695C28.7915 35.3053 28.901 35.0863 29.0105 34.8674C28.6273 35.1411 27.9157 35.6884 26.6568 36.8927C26.5473 37.0021 26.3283 37.0021 26.1641 36.8927C26.0547 36.7832 26.0547 36.5642 26.1641 36.4C28.8462 33.8274 29.2841 33.8274 29.6126 34.1011C29.941 34.3748 29.722 34.9221 29.3389 35.7432C29.2294 35.9074 29.1199 36.1811 29.0652 36.4C29.2841 36.2358 29.5031 36.0716 29.722 35.9074C30.6526 35.1958 31.6378 34.4295 32.2947 34.8126C32.5136 34.9769 32.5683 35.1411 32.6231 35.3053C32.6778 35.4148 32.6778 35.5242 32.7873 35.6337C33.061 35.9074 33.4989 36.0169 34.1557 36.0169C34.3199 36.0169 34.4841 36.1263 34.5389 36.3453C34.5389 36.5095 34.4294 36.6737 34.2104 36.7284C33.3347 36.7832 32.6778 36.5642 32.2947 36.1263C32.0757 35.9074 32.021 35.6884 31.9662 35.5242C31.9662 35.4695 31.9115 35.4148 31.9115 35.4148C31.6926 35.2505 30.5431 36.1263 30.1599 36.4548C29.5031 36.9474 29.0652 37.2758 28.7368 37.2758Z" fill="white"/>
<path d="M36.9473 26.8211H23.8652V27.4779H36.9473V26.8211Z" fill="white"/>
<path d="M36.9474 22.1684H20.5264V22.8253H36.9474V22.1684Z" fill="white"/>
</svg>
