<svg width="52" height="52" viewBox="0 0 52 52" fill="none" xmlns="http://www.w3.org/2000/svg">
<path d="M28.3534 42.7495H22.5513V26.1095H28.3534V42.7495ZM23.2628 42.0926H27.6418V26.821H23.2628V42.0926Z" fill="white"/>
<path d="M22.8797 42.0927H19.8691V42.7495H22.8797V42.0927Z" fill="white"/>
<path d="M30.9807 42.0927H27.9702V42.7495H30.9807V42.0927Z" fill="white"/>
<path d="M25.4524 23.8653C23.4819 23.8653 21.8945 22.2779 21.8945 20.3074C21.8945 18.3368 23.4819 16.7495 25.4524 16.7495C27.423 16.7495 29.0103 18.3368 29.0103 20.3074C29.0103 22.2779 27.423 23.8653 25.4524 23.8653ZM25.4524 17.4063C23.8651 17.4063 22.5514 18.72 22.5514 20.3074C22.5514 21.8947 23.8651 23.2084 25.4524 23.2084C27.0398 23.2084 28.3535 21.8947 28.3535 20.3074C28.3535 18.72 27.0398 17.4063 25.4524 17.4063Z" fill="white"/>
<path d="M22.8797 26.1095H19.8691V26.7663H22.8797V26.1095Z" fill="white"/>
<path d="M39.6292 23.8653C37.6587 23.8653 36.0713 22.2779 36.0713 20.3074C36.0713 18.3368 37.6587 16.7495 39.6292 16.7495C41.5997 16.7495 43.1871 18.3368 43.1871 20.3074C43.1871 22.2232 41.5997 23.8653 39.6292 23.8653ZM39.6292 17.4063C38.0418 17.4063 36.7281 18.72 36.7281 20.3074C36.7281 21.8947 38.0418 23.2084 39.6292 23.2084C41.2166 23.2084 42.5302 21.8947 42.5302 20.3074C42.5302 18.72 41.2166 17.4063 39.6292 17.4063Z" fill="white"/>
<path d="M11.2757 23.8653C9.30514 23.8653 7.71777 22.2779 7.71777 20.3074C7.71777 18.3368 9.30514 16.7495 11.2757 16.7495C13.2462 16.7495 14.8336 18.3368 14.8336 20.3074C14.8883 22.2232 13.2462 23.8653 11.2757 23.8653ZM11.2757 17.4063C9.6883 17.4063 8.37462 18.72 8.37462 20.3074C8.37462 21.8947 9.6883 23.2084 11.2757 23.2084C12.863 23.2084 14.1767 21.8947 14.1767 20.3074C14.1767 18.72 12.9178 17.4063 11.2757 17.4063Z" fill="white"/>
<path d="M22.88 39.7937H22.7706C15.5453 38.5347 10.2358 32.24 10.2358 24.9053C10.2358 24.4126 10.2358 23.92 10.2906 23.4274L10.3453 23.0442L10.7285 23.099C10.8927 23.1537 11.0569 23.1537 11.2758 23.1537C12.8632 23.1537 14.1769 21.84 14.1769 20.2526C14.1769 19.1579 13.5748 18.1726 12.5348 17.68L12.2064 17.5158L12.3706 17.1874C15.1074 12.5895 20.0885 9.74316 25.3979 9.74316C30.7074 9.74316 35.6885 12.5895 38.4253 17.1874L38.5895 17.5158L38.2611 17.68C37.2758 18.1726 36.619 19.1579 36.619 20.2526C36.619 21.84 37.9327 23.1537 39.52 23.1537C39.6843 23.1537 39.8485 23.1537 40.0674 23.099L40.4506 23.0442L40.5053 23.4274C40.56 23.92 40.56 24.4126 40.56 24.9053C40.56 32.24 35.3053 38.5347 28.08 39.7937H28.0253L27.9706 39.1368C34.8674 37.9326 39.8485 31.9116 39.8485 24.9053C39.8485 24.5768 39.8485 24.1937 39.7937 23.8105C37.7137 23.9747 35.9622 22.3326 35.9622 20.2526C35.9622 18.9937 36.619 17.899 37.659 17.2421C35.0864 13.0821 30.4337 10.4547 25.4527 10.4547C20.4716 10.4547 15.819 13.0274 13.1916 17.2421C14.2316 17.899 14.8885 18.9937 14.8885 20.2526C14.8885 22.3326 13.1369 23.9747 11.0569 23.8105C11.0569 24.1937 11.0022 24.5221 11.0022 24.9053C11.0022 31.9116 16.0379 37.9326 22.9348 39.1368L22.88 39.4105V39.7937Z" fill="white"/>
<path d="M34.7026 20.5811H33.7174V19.9242H34.7026V20.5811ZM32.7868 20.5811H31.8016V19.9242H32.7868V20.5811ZM30.8163 20.5811H29.8311V19.9242H30.8163V20.5811Z" fill="white"/>
<path d="M20.9092 20.5811H19.9239V19.9242H20.9092V20.5811ZM18.9386 20.5811H17.9534V19.9242H18.9386V20.5811ZM17.0229 20.5811H16.0376V19.9242H17.0229V20.5811Z" fill="white"/>
</svg>
