<svg width="52" height="52" viewBox="0 0 52 52" fill="none" xmlns="http://www.w3.org/2000/svg">
<path d="M38.9179 22.0042H38.2611C38.2611 15.6547 33.1158 10.5095 26.7663 10.5095C20.4169 10.5095 15.2716 15.6547 15.2716 22.0042H14.6147C14.6695 15.3263 20.0884 9.85263 26.8211 9.85263C33.5537 9.85263 38.9179 15.2716 38.9179 22.0042Z" fill="white"/>
<path d="M26.7115 17.1326C23.4272 17.1326 20.3072 16.3663 18.0083 14.9979L18.3367 14.3958C20.5262 15.7095 23.482 16.421 26.6567 16.421C29.8862 16.421 32.842 15.6547 35.0862 14.341L35.4694 14.9432C33.1704 16.3663 30.0504 17.1326 26.7115 17.1326Z" fill="white"/>
<path d="M20.5265 22.0042H19.8696C20.0886 16.0379 22.6612 11.221 26.0002 10.6189L26.1096 11.2758C23.0991 11.8232 20.7454 16.421 20.5265 22.0042Z" fill="white"/>
<path d="M32.8971 22.0042C32.7329 16.421 30.3792 11.8232 27.3687 11.2758L27.4781 10.6189C30.8171 11.221 33.3897 16.0379 33.6087 22.0042H32.8971Z" fill="white"/>
<path d="M27.0401 10.7284H26.3833V16.2021H27.0401V10.7284Z" fill="white"/>
<path d="M27.0401 17.68H26.3833V22.0042H27.0401V17.68Z" fill="white"/>
<path d="M27.7514 35.7432H21.7303L21.6756 35.4695C21.4019 34.3747 20.5261 33.4989 19.4314 33.2253L19.1577 33.1705V24.0295H19.8146V32.6231C20.964 33.0063 21.8398 33.8821 22.223 35.0316H27.204C27.5872 33.8821 28.463 33.0063 29.6124 32.6231V24.0295H30.2693V33.1158L29.9956 33.1705C28.9009 33.4442 28.0251 34.32 27.7514 35.4147V35.7432Z" fill="white"/>
<path d="M24.7411 28.1347C22.4421 28.1347 20.5811 26.2737 20.5811 24.0295H21.2379C21.2379 25.9453 22.7705 27.4779 24.6863 27.4779C26.6021 27.4779 28.1347 25.9453 28.1347 24.0295H28.8463C28.8463 26.3284 26.9853 28.1347 24.7411 28.1347Z" fill="white"/>
<path d="M24.7955 33.28C23.8103 33.28 23.0439 32.5137 23.0439 31.5284C23.0439 30.5432 23.8103 29.7768 24.7955 29.7768C25.7808 29.7768 26.5471 30.5432 26.5471 31.5284C26.5471 32.5137 25.7808 33.28 24.7955 33.28ZM24.7955 30.4884C24.1934 30.4884 23.7008 30.981 23.7008 31.5832C23.7008 32.1853 24.1934 32.6779 24.7955 32.6779C25.3976 32.6779 25.8903 32.1853 25.8903 31.5832C25.8903 30.981 25.3976 30.4884 24.7955 30.4884Z" fill="white"/>
<path d="M40.0672 27.5326H39.4651V23.2632H12.8082V27.5326H12.1514V22.5516H40.0672V27.5326Z" fill="white"/>
<path d="M32.2944 37.6589H17.187V24.0295H17.8439V37.0021H31.5828V24.0295H32.2944V37.6589Z" fill="white"/>
<path d="M35.0863 40.4505H18.9937V39.7389H34.3747V24.0295H35.0863V40.4505Z" fill="white"/>
<path d="M37.4398 42.8042H21.4019V42.1474H36.7829V24.0295H37.4398V42.8042Z" fill="white"/>
</svg>
