<svg width="52" height="52" viewBox="0 0 52 52" fill="none" xmlns="http://www.w3.org/2000/svg">
<path d="M27.2042 24.1937C26.821 24.1937 26.4926 24.0842 26.1642 23.8652L25.7263 23.5368L25.6716 23.4821C25.5074 23.3726 25.5073 23.1537 25.6168 22.9895C25.7263 22.8252 25.9452 22.8252 26.0547 22.9347L26.1095 22.9895L26.5473 23.3179C27.1495 23.7558 28.0252 23.4273 28.5726 22.88L30.2695 20.5263C30.3789 20.3621 30.5979 20.3621 30.7621 20.4716C30.9263 20.581 30.9263 20.8 30.8168 20.9642L29.0652 23.3179C28.5726 23.8105 27.9158 24.1937 27.2042 24.1937Z" fill="white"/>
<path d="M22.9896 25.2884C22.5517 25.2884 22.1685 25.1789 21.7854 24.9053L21.238 24.5221L21.1833 24.4674C21.0738 24.3579 21.019 24.1389 21.1285 23.9747L25.7264 17.6253C25.7812 17.5705 25.8359 17.5158 25.8906 17.5158L37.7685 12.48L39.9033 8.97684L40.5054 9.36L38.3159 12.9179C38.2612 12.9726 38.2064 13.0274 38.1517 13.0274L26.219 18.0632L21.8948 24.0842L22.2233 24.3032C22.9896 24.8505 24.0843 24.4674 24.7412 23.8105L27.259 20.3074C27.3138 20.2526 27.3685 20.1979 27.478 20.1432L29.8317 19.7053L32.1854 19.3221C32.2401 19.3221 32.2948 19.2674 32.3496 19.2674L36.4001 18.6105C36.5643 18.5558 36.7285 18.72 36.7833 18.8842C36.838 19.0484 36.7285 19.2126 36.5643 19.2674H36.5096L32.1854 19.9789C31.9117 20.0884 31.6927 20.2526 31.4738 20.581C31.2001 21.0189 31.0906 21.5663 31.1454 22.0589C31.1454 22.0589 31.2001 22.3326 31.2548 22.6063L37.9875 21.4568L40.2317 18.6653L41.819 14.8337L43.2969 11.7684L43.899 12.0421L42.4212 15.0526L40.779 18.8842C40.779 18.9389 40.7243 18.9389 40.7243 18.9389L38.3706 21.84C38.3159 21.8947 38.2612 21.9495 38.1517 21.9495L30.9264 23.1537C30.7622 23.2084 30.598 23.0989 30.5433 22.9347C30.5433 22.9347 30.5433 22.88 30.379 22.0589C30.2696 21.4021 30.379 20.6905 30.7622 20.0884L29.6675 20.2526L27.478 20.6905L25.0696 24.1389C25.0696 24.1389 25.0696 24.1937 25.0148 24.1937C24.5769 24.8505 23.8106 25.2884 22.9896 25.2884Z" fill="white"/>
<path d="M28.1893 41.9284C28.0251 41.9284 27.8061 41.8737 27.6419 41.8189L20.5809 40.0674C19.2125 40.2316 13.0819 40.9431 11.823 40.0126L10.7282 38.9726L8.4293 39.4653L8.31982 38.8084L11.0019 38.261L12.3156 39.52C13.0819 40.1221 17.7893 39.7937 20.5809 39.4105H20.6356L27.8609 41.2168C28.2988 41.3263 28.7914 41.2716 28.9009 40.9431C28.9556 40.7789 28.9556 40.56 28.8461 40.3958C28.7367 40.2316 28.6272 40.1221 28.4082 40.0674L22.223 37.3853L22.3872 36.7284L31.4188 36.9474C31.583 36.9474 31.7472 36.8379 31.9114 36.7284C32.0209 36.5642 32.1304 36.4 32.0756 36.2358C32.0756 35.8526 31.7472 35.5242 31.364 35.5242C31.364 35.5242 31.364 35.5242 31.3093 35.5242L22.0588 34.7031L22.004 34.0463L31.9114 32.2947C32.1304 32.2947 32.2946 32.1853 32.404 32.021C32.5135 31.8568 32.5682 31.6926 32.5682 31.4737C32.5682 31.3095 32.4588 31.0905 32.2946 30.981C32.1304 30.8716 31.9661 30.8168 31.7472 30.8168L21.7851 32.0758L21.5661 31.4189L29.7219 27.04C29.8861 26.9305 29.9956 26.821 30.0504 26.6021C30.1051 26.4379 30.1051 26.2189 29.9956 26.0547C29.8314 25.7263 29.3935 25.5621 29.0104 25.781L21.3472 28.7368L17.5156 28.8463V28.1895L21.2377 28.08L28.6819 25.1789C29.3388 24.8505 30.1598 25.0695 30.543 25.781C30.7072 26.1095 30.7619 26.4926 30.6525 26.821C30.543 27.2042 30.324 27.4779 29.9956 27.6421L23.4272 31.1453L31.583 30.1053C31.9661 30.0505 32.2946 30.16 32.623 30.3789C32.8967 30.5979 33.1156 30.9263 33.1704 31.3095C33.2251 31.6926 33.1156 32.021 32.8967 32.3495C32.6777 32.6231 32.3493 32.8421 31.9661 32.8968L24.5767 34.2105L31.2546 34.7579C32.0209 34.7579 32.623 35.3053 32.6777 36.1263C32.6777 36.5095 32.5682 36.8379 32.2946 37.1116C32.0209 37.3853 31.6925 37.5495 31.3093 37.5495L24.0293 37.3853L28.5725 39.3558C28.9009 39.4653 29.1746 39.6842 29.3388 40.0126C29.503 40.341 29.5577 40.7242 29.4482 41.0526C29.3388 41.6547 28.7914 41.9284 28.1893 41.9284Z" fill="white"/>
<path d="M8.37471 33.7179L8.15576 33.061L10.6189 32.2947L11.1663 28.7916L13.6842 25.5621L19.3221 19.9789H19.4316C19.9242 19.9242 20.3621 20.0884 20.6358 20.4168C20.9094 20.7453 21.0189 21.2379 20.9094 21.7305C20.3073 24.0295 18.2273 26.4379 17.7347 26.9853L17.68 28.9558C17.68 29.0653 17.7894 32.021 15.6547 32.5137L15.4905 31.8568C17.1326 31.4737 17.0231 29.0105 17.0231 28.9558L17.0779 26.7116L17.1873 26.6021C17.1873 26.6021 19.6505 23.92 20.3073 21.5663C20.3621 21.2926 20.3073 21.0737 20.1979 20.9095C20.0884 20.7453 19.8694 20.6905 19.7052 20.6905L14.2316 26.0547L11.8231 29.0653L11.221 32.8421L8.37471 33.7179Z" fill="white"/>
</svg>
