<svg width="52" height="52" viewBox="0 0 52 52" fill="none" xmlns="http://www.w3.org/2000/svg">
<path d="M20.9095 18.1179C19.2127 18.1179 17.8442 16.4211 17.8442 14.3411C17.8442 12.2611 19.2127 10.5642 20.9095 10.5642C22.6063 10.5642 23.9748 12.2611 23.9748 14.3411C23.9748 16.4211 22.6063 18.1179 20.9095 18.1179ZM20.9095 11.2758C19.5958 11.2758 18.5011 12.6442 18.5011 14.3411C18.5011 16.0379 19.5958 17.4063 20.9095 17.4063C22.2232 17.4063 23.3179 16.0379 23.3179 14.3411C23.3179 12.6442 22.2232 11.2758 20.9095 11.2758Z" fill="white"/>
<path d="M34.0462 18.1179C32.3494 18.1179 30.981 16.4211 30.981 14.3411C30.981 12.2611 32.3494 10.5642 34.0462 10.5642C35.7431 10.5642 37.1115 12.2611 37.1115 14.3411C37.1115 16.4211 35.7431 18.1179 34.0462 18.1179ZM34.0462 11.2758C32.7325 11.2758 31.6378 12.6442 31.6378 14.3411C31.6378 16.0379 32.7325 17.4063 34.0462 17.4063C35.3599 17.4063 36.4546 16.0379 36.4546 14.3411C36.4546 12.6442 35.3599 11.2758 34.0462 11.2758Z" fill="white"/>
<path d="M41.1073 18.1179C39.4104 18.1179 38.042 16.4211 38.042 14.3411C38.042 12.2611 39.4104 10.5642 41.1073 10.5642C42.8041 10.5642 44.1725 12.2611 44.1725 14.3411C44.1725 16.4211 42.8041 18.1179 41.1073 18.1179ZM41.1073 11.2758C39.7936 11.2758 38.6988 12.6442 38.6988 14.3411C38.6988 16.0379 39.7936 17.4063 41.1073 17.4063C42.4209 17.4063 43.5157 16.0379 43.5157 14.3411C43.5157 12.6442 42.4209 11.2758 41.1073 11.2758Z" fill="white"/>
<path d="M16.5854 17.68H15.9285V12.3705L14.7791 12.8632L14.5054 12.2611L16.5854 11.3305V17.68Z" fill="white"/>
<path d="M26.602 17.68H25.9452V12.3705L24.7957 12.8632L24.4673 12.2611L26.602 11.3305V17.68Z" fill="white"/>
<path d="M30.0507 17.68H29.3939V12.3705L28.2444 12.8632L27.9707 12.2611L30.0507 11.3305V17.68Z" fill="white"/>
<path d="M32.6782 33.9368H31.9666V28.6821L30.8171 29.1747L30.5435 28.5726L32.6782 27.5874V33.9368Z" fill="white"/>
<path d="M35.9624 33.9368H35.2508V28.6821L34.1013 29.1747L33.8276 28.5726L35.9624 27.5874V33.9368Z" fill="white"/>
<path d="M18.6654 34.4295C16.9685 34.4295 15.6001 32.7326 15.6001 30.6526C15.6001 28.5726 16.9685 26.8758 18.6654 26.8758C20.3622 26.8758 21.7306 28.5726 21.7306 30.6526C21.7306 32.7326 20.3622 34.4295 18.6654 34.4295ZM18.6654 27.5874C17.3517 27.5874 16.2569 28.9558 16.2569 30.6526C16.2569 32.3495 17.3517 33.7179 18.6654 33.7179C19.979 33.7179 21.0738 32.3495 21.0738 30.6526C21.0738 28.9558 19.979 27.5874 18.6654 27.5874Z" fill="white"/>
<path d="M26.4925 34.4295C24.7957 34.4295 23.4272 32.7326 23.4272 30.6526C23.4272 28.5726 24.7957 26.8758 26.4925 26.8758C28.1894 26.8758 29.5578 28.5726 29.5578 30.6526C29.5578 32.7326 28.1894 34.4295 26.4925 34.4295ZM26.4925 27.5874C25.1788 27.5874 24.0841 28.9558 24.0841 30.6526C24.0841 32.3495 25.1788 33.7179 26.4925 33.7179C27.8062 33.7179 28.9009 32.3495 28.9009 30.6526C28.9009 28.9558 27.8062 27.5874 26.4925 27.5874Z" fill="white"/>
<path d="M16.5854 25.8358H15.9285V20.5263L14.7791 21.0189L14.5054 20.4168L16.5854 19.4316V25.8358Z" fill="white"/>
<path d="M19.8149 25.8358H19.1033V20.5263L17.9539 21.0189L17.6802 20.4168L19.8149 19.4316V25.8358Z" fill="white"/>
<path d="M22.9897 25.8358H22.3328V20.5263L21.1834 21.0189L20.9097 20.4168L22.9897 19.4316V25.8358Z" fill="white"/>
<path d="M26.9852 26.2737C25.2883 26.2737 23.9199 24.5768 23.9199 22.4968C23.9199 20.4168 25.2883 18.72 26.9852 18.72C28.682 18.72 30.0504 20.4168 30.0504 22.4968C30.0504 24.5768 28.682 26.2737 26.9852 26.2737ZM26.9852 19.4316C25.6715 19.4316 24.5768 20.8 24.5768 22.4968C24.5768 24.1937 25.6715 25.5621 26.9852 25.5621C28.2989 25.5621 29.3936 24.1937 29.3936 22.4968C29.3936 20.8 28.2989 19.4316 26.9852 19.4316Z" fill="white"/>
<path d="M34.0462 26.2737C32.3494 26.2737 30.981 24.5768 30.981 22.4968C30.981 20.4168 32.3494 18.72 34.0462 18.72C35.7431 18.72 37.1115 20.4168 37.1115 22.4968C37.1115 24.5768 35.7431 26.2737 34.0462 26.2737ZM34.0462 19.4316C32.7325 19.4316 31.6378 20.8 31.6378 22.4968C31.6378 24.1937 32.7325 25.5621 34.0462 25.5621C35.3599 25.5621 36.4546 24.1937 36.4546 22.4968C36.4546 20.8 35.3599 19.4316 34.0462 19.4316Z" fill="white"/>
<path d="M26.9853 42.0926H26.2737V36.7832L25.1243 37.3305L24.8506 36.7284L26.9853 35.7432V42.0926Z" fill="white"/>
<path d="M24.3032 42.0926H23.6464V36.7832L22.4969 37.3305L22.1685 36.7284L24.3032 35.7432V42.0926Z" fill="white"/>
<path d="M29.6675 42.0926H28.9559V36.7832L27.8064 37.3305L27.5327 36.7284L29.6675 35.7432V42.0926Z" fill="white"/>
<path d="M18.6654 42.5853C16.9685 42.5853 15.6001 40.8884 15.6001 38.8084C15.6001 36.7284 16.9685 35.0316 18.6654 35.0316C20.3622 35.0316 21.7306 36.7284 21.7306 38.8084C21.7306 40.8884 20.3622 42.5853 18.6654 42.5853ZM18.6654 35.7432C17.3517 35.7432 16.2569 37.1116 16.2569 38.8084C16.2569 40.5053 17.3517 41.8737 18.6654 41.8737C19.979 41.8737 21.0738 40.5053 21.0738 38.8084C21.0738 37.1116 19.979 35.7432 18.6654 35.7432Z" fill="white"/>
<path d="M34.0462 42.5853C32.3494 42.5853 30.981 40.8884 30.981 38.8084C30.981 36.7284 32.3494 35.0316 34.0462 35.0316C35.7431 35.0316 37.1115 36.7284 37.1115 38.8084C37.1115 40.8884 35.7431 42.5853 34.0462 42.5853ZM34.0462 35.7432C32.7325 35.7432 31.6378 37.1116 31.6378 38.8084C31.6378 40.5053 32.7325 41.8737 34.0462 41.8737C35.3599 41.8737 36.4546 40.5053 36.4546 38.8084C36.4546 37.1116 35.3599 35.7432 34.0462 35.7432Z" fill="white"/>
<path d="M11.3306 22.4969H8.04639V23.1537H11.3306V22.4969Z" fill="white"/>
<path d="M11.3306 14.0126H8.04639V14.6695H11.3306V14.0126Z" fill="white"/>
<path d="M11.3306 30.3242H8.04639V30.9811H11.3306V30.3242Z" fill="white"/>
<path d="M11.3306 38.48H8.04639V39.1369H11.3306V38.48Z" fill="white"/>
<path d="M13.2462 41.9284H12.5894V41.3811H13.2462V41.9284ZM13.2462 40.7242H12.5894V40.0674H13.2462V40.7242ZM13.2462 39.3558H12.5894V38.699H13.2462V39.3558ZM13.2462 37.9874H12.5894V37.3305H13.2462V37.9874ZM13.2462 36.619H12.5894V35.9621H13.2462V36.619ZM13.2462 35.2505H12.5894V34.5937H13.2462V35.2505ZM13.2462 33.8821H12.5894V33.2253H13.2462V33.8821ZM13.2462 32.5137H12.5894V31.8569H13.2462V32.5137ZM13.2462 31.1453H12.5894V30.4884H13.2462V31.1453ZM13.2462 29.7769H12.5894V29.12H13.2462V29.7769ZM13.2462 28.4084H12.5894V27.7516H13.2462V28.4084ZM13.2462 27.04H12.5894V26.3832H13.2462V27.04ZM13.2462 25.6716H12.5894V25.0147H13.2462V25.6716ZM13.2462 24.3032H12.5894V23.6463H13.2462V24.3032ZM13.2462 22.9347H12.5894V22.2779H13.2462V22.9347ZM13.2462 21.5663H12.5894V20.9095H13.2462V21.5663ZM13.2462 20.1979H12.5894V19.5411H13.2462V20.1979ZM13.2462 18.8295H12.5894V18.1726H13.2462V18.8295ZM13.2462 17.4611H12.5894V16.8042H13.2462V17.4611ZM13.2462 16.0926H12.5894V15.4358H13.2462V16.0926ZM13.2462 14.7242H12.5894V14.0674H13.2462V14.7242ZM13.2462 13.3558H12.5894V12.699H13.2462V13.3558ZM13.2462 11.9874H12.5894V11.3305H13.2462V11.9874Z" fill="white"/>
</svg>
