<svg width="52" height="52" viewBox="0 0 52 52" fill="none" xmlns="http://www.w3.org/2000/svg">
<path d="M20.6908 29.3937L18.6108 27.3137C17.6255 26.3284 16.8592 25.1242 16.4213 23.8653C16.4213 23.8105 15.9834 21.621 14.6698 20.3074L11.0571 16.7495L11.5498 16.2568L15.1624 19.8147C16.6403 21.2926 17.0782 23.5916 17.0782 23.701C17.4613 24.8505 18.1729 25.9453 19.1034 26.821L21.1834 28.901L20.6908 29.3937Z" fill="white"/>
<path d="M17.2711 10.6415L16.8071 11.1065L22.8131 17.0989L23.277 16.6339L17.2711 10.6415Z" fill="white"/>
<path d="M10.6191 37.6589L10.1265 37.1663L13.2465 34.101C13.8486 33.4989 14.177 32.6779 14.2865 31.8021C14.3959 30.2695 14.8886 28.7916 15.6549 27.4231L17.1875 24.9052L17.7896 25.2337L16.257 27.7516C15.4907 29.0105 15.0528 30.4337 14.9433 31.8568C14.8886 32.8968 14.4507 33.8821 13.7391 34.5937L10.6191 37.6589Z" fill="white"/>
<path d="M15.7094 42.7495L15.2168 42.2568L17.2421 40.2316C18.72 38.7537 21.0189 38.3158 21.1284 38.3158C22.2778 37.9326 23.3726 37.221 24.3031 36.2905L26.7115 33.9368L27.2042 34.4295L24.7957 36.8379C23.8105 37.8231 22.6063 38.5895 21.3473 39.0274C21.2926 39.0274 19.1031 39.4652 17.7894 40.7789L15.7094 42.7495Z" fill="white"/>
<path d="M36.0719 26.3831L35.7435 26C35.634 25.8905 35.5246 25.7263 35.3604 25.6168L35.853 25.1242L35.9077 25.1789L36.0172 24.96C36.7288 23.701 37.1667 22.2779 37.2214 20.8547C37.2761 19.8147 37.714 18.7747 38.4804 18.0084L41.6551 14.5052L42.1477 14.9431L38.973 18.4463C38.3161 19.1579 37.933 19.9789 37.933 20.9095C37.8782 22.4421 37.4404 23.92 36.674 25.2884L36.0719 26.3831Z" fill="white"/>
<path d="M27.3686 17.1326L26.876 16.64L27.3139 16.2021C28.2991 15.1621 29.4486 14.3958 30.7076 13.9579C30.7623 13.9579 32.9518 13.4653 34.2654 12.0968L36.5644 9.79788L37.057 10.2905L34.7033 12.5895C33.2802 14.0674 30.9812 14.56 30.8718 14.6147C29.777 15.0526 28.6823 15.7642 27.7518 16.6947L27.3686 17.1326Z" fill="white"/>
<path d="M36.7283 40.2316L32.1852 35.6884C30.2694 35.8526 28.2989 35.36 26.5473 34.32L21.2926 31.2C20.4715 30.7074 20.3073 29.7768 20.581 29.12C20.7999 28.4631 21.5115 27.861 22.442 28.0252C22.8252 28.08 23.2083 28.2442 23.482 28.4084L24.0294 28.7368L18.9936 23.701C18.6652 23.3726 18.501 22.9895 18.501 22.5516C18.501 22.1137 18.6652 21.7305 18.9936 21.4021C19.2673 21.1284 19.541 21.0189 19.8694 20.9642L19.3768 20.4716C19.0483 20.1431 18.8841 19.76 18.8841 19.3221C18.8841 18.8842 19.0483 18.501 19.3768 18.1726C19.9241 17.6252 20.6905 17.5705 21.3473 17.8989C21.402 17.5705 21.5662 17.1874 21.7852 16.9684C22.3873 16.3663 23.3178 16.3116 23.9747 16.8589C24.0294 16.5305 24.1936 16.2021 24.4126 15.9831C25.0694 15.3263 26.0547 15.3263 26.7115 15.9831L35.8526 25.0695C36.8378 26.0547 37.6041 27.2589 38.042 28.5179C38.042 28.5726 38.4799 30.7621 39.7936 32.0758L41.8189 34.101L41.3262 34.5937L39.301 32.6779C37.8231 31.2 37.3852 28.901 37.3852 28.7916C37.002 27.6421 36.2904 26.5474 35.3599 25.6716L26.2736 16.5305C25.8905 16.1474 25.3431 16.1474 24.9599 16.5305C24.7957 16.6947 24.6862 16.9684 24.6862 17.1874C24.6862 17.461 24.7957 17.68 24.9599 17.8442L30.6526 23.4821L30.1599 23.9747L23.6462 17.5158C23.2631 17.1326 22.7157 17.1326 22.3326 17.5158C22.1683 17.68 22.0589 17.9537 22.0589 18.1726C22.0589 18.4463 22.1683 18.6652 22.3326 18.8295L27.861 24.3031L27.3683 24.7958L21.2378 18.72C20.8547 18.3368 20.3073 18.3368 19.9241 18.72C19.7052 18.8842 19.5957 19.1579 19.5957 19.3768C19.5957 19.6505 19.7052 19.8695 19.8694 20.0337L25.9999 26.1095L25.5073 26.6021L20.7999 21.8947C20.4168 21.5116 19.8694 21.5116 19.4862 21.8947C19.322 22.0589 19.2126 22.3326 19.2126 22.5516C19.2126 22.8252 19.322 23.0442 19.4862 23.2084L26.1641 29.941L25.8905 30.6526L23.1536 29.0105C22.9347 28.8463 22.661 28.7916 22.3326 28.7368C21.7305 28.6274 21.3473 29.0105 21.1831 29.3937C21.0189 29.7768 21.0736 30.3242 21.621 30.6526L26.821 33.7179C28.5178 34.7031 30.4336 35.141 32.2399 34.9768H32.4041L37.1662 39.7389L36.7283 40.2316Z" fill="white"/>
</svg>
