<svg width="52" height="52" viewBox="0 0 52 52" fill="none" xmlns="http://www.w3.org/2000/svg">
<path d="M25.7809 24.96C23.5915 24.96 21.7852 23.1537 21.7852 20.9642C21.7852 18.7747 23.5915 16.9684 25.7809 16.9684C27.9704 16.9684 29.7767 18.7747 29.7767 20.9642C29.7767 23.1537 28.0252 24.96 25.7809 24.96ZM25.7809 17.68C23.9199 17.68 22.442 19.1579 22.442 21.019C22.442 22.8253 23.9199 24.3579 25.7809 24.3579C27.642 24.3579 29.1199 22.88 29.1199 21.019C29.1199 19.1579 27.642 17.68 25.7809 17.68Z" fill="white"/>
<path d="M32.1301 31.0905H31.4733C31.4733 28.9011 29.6669 27.1495 27.4775 27.1495H24.0838C21.8943 27.1495 20.088 28.9011 20.088 31.0905H19.4312C19.4312 28.5179 21.5112 26.4379 24.0838 26.4379H27.4775C30.0501 26.4379 32.1301 28.5179 32.1301 31.0905Z" fill="white"/>
<path d="M14.505 28.9558L13.8481 28.7368L15.8734 22.2779C16.0376 21.7305 15.8187 21.1832 15.326 20.8547L14.6145 20.4716L14.7239 19.76L15.7092 20.2526C16.4755 20.7453 16.8039 21.6211 16.5302 22.4421L14.505 28.9558Z" fill="white"/>
<path d="M18.9935 42.7495C18.884 42.7495 18.8293 42.6947 18.7746 42.64C14.5598 38.3158 13.7935 36.0168 13.7935 35.9074L10.6188 26.8758C10.4546 26.4379 10.4546 25.8905 10.6188 25.4526L13.0272 18.4463C13.0819 18.2821 13.3009 18.1726 13.4651 18.2274L14.0124 18.3916C14.5051 18.5558 14.8882 18.939 15.1619 19.3768C15.3809 19.8695 15.4356 20.3621 15.2714 20.8547L13.7388 25.3432C13.684 25.5621 13.684 25.7811 13.7388 25.9453L15.0524 29.6126C15.2714 30.2147 15.983 30.5432 16.5851 30.3242L16.7493 30.2695L15.983 28.1347C15.7093 27.3684 15.8735 26.4379 16.3661 25.7263C16.6398 25.3432 17.0777 25.179 17.5703 25.2337C18.0082 25.2884 18.3914 25.6168 18.5556 26.0547L20.3619 31.0905C20.3619 31.0905 21.6209 34.2105 18.5556 35.8526C18.3914 35.9621 18.1724 35.8526 18.1177 35.6884C18.0082 35.5242 18.1177 35.3053 18.2819 35.2505C20.8546 33.8821 19.8146 31.419 19.8146 31.3642L18.0082 26.3284C17.9535 26.1095 17.7893 26 17.5703 25.9453C17.3514 25.8905 17.1872 26 17.023 26.1642C16.6398 26.7116 16.5303 27.3684 16.7493 27.9158L17.6251 30.379C17.6798 30.4884 17.6251 30.5432 17.6251 30.6526C17.5703 30.7074 17.5156 30.8168 17.4061 30.8168L16.9135 30.9811C15.9282 31.3095 14.8335 30.8168 14.5051 29.8316L13.0272 26.2737C12.9177 25.9453 12.9177 25.5621 13.0272 25.179L14.5598 20.6905C14.6693 20.3621 14.6693 20.0337 14.5051 19.7053C14.3409 19.3768 14.0672 19.1579 13.7388 19.0484L13.5198 18.9937L11.2209 25.7263C11.1114 26.0547 11.1114 26.3832 11.2209 26.7116L14.3956 35.7432C14.3956 35.7979 15.1619 37.9874 19.2124 42.2021C19.3219 42.3116 19.3219 42.5305 19.2124 42.6947C19.1577 42.6947 19.103 42.7495 18.9935 42.7495Z" fill="white"/>
<path d="M22.1136 39.6842C22.0041 39.6842 21.9494 39.6295 21.8946 39.5747C20.0883 37.7684 19.1578 36.2358 18.6652 35.3053C18.5557 35.1411 18.6652 34.9221 18.8294 34.8674C18.9936 34.8126 19.2125 34.8674 19.2673 35.0316C19.7052 35.9074 20.5809 37.3853 22.3325 39.1369C22.442 39.2463 22.442 39.4653 22.3325 39.6295C22.2778 39.6295 22.2231 39.6842 22.1136 39.6842Z" fill="white"/>
<path d="M37.1118 28.9558L35.0865 22.4968C34.8129 21.6758 35.1413 20.7453 35.9076 20.3074L36.8929 19.76L37.2213 20.3621L36.236 20.9095C35.7981 21.1832 35.5792 21.7853 35.7434 22.2779L37.7686 28.7368L37.1118 28.9558Z" fill="white"/>
<path d="M32.4043 42.6947C32.2948 42.6947 32.2401 42.64 32.1854 42.5853C32.0759 42.4758 32.0759 42.2568 32.1854 42.0926C36.2906 37.9874 37.1117 35.7979 37.1117 35.7432L40.4506 26.7663C40.5601 26.4379 40.5601 26.1095 40.4506 25.7811L38.3159 19.0484L38.0969 19.1579C37.7685 19.2674 37.4948 19.4863 37.3306 19.8147C37.1664 20.1432 37.1664 20.4716 37.2759 20.8L38.699 25.2884C38.8085 25.6168 38.8085 26 38.699 26.3832L37.3306 30.0505C36.9475 31.0358 35.9075 31.5284 34.9222 31.1453L34.4296 30.9811C34.3201 30.9263 34.2654 30.8716 34.2106 30.8168C34.1559 30.7074 34.1559 30.6526 34.2106 30.5432L35.1411 28.08C35.3601 27.5326 35.2506 26.8211 34.8675 26.2737C34.758 26.1095 34.539 26 34.3201 26.0547C34.1012 26.0547 33.9369 26.2189 33.8822 26.4379L32.0212 31.4189C31.9664 31.5284 30.9264 33.9916 33.4443 35.36C33.6085 35.4695 33.6633 35.6337 33.5538 35.7979C33.4443 35.9621 33.2801 36.0168 33.1159 35.9074C30.0506 34.2105 31.3643 31.1453 31.3643 31.0905L33.2254 26.1095C33.3896 25.6716 33.7727 25.3432 34.2654 25.2884C34.7033 25.2337 35.1959 25.4526 35.4148 25.7811C35.9075 26.4926 36.0717 27.4232 35.7433 28.1895L34.9222 30.3242L35.0864 30.3789C35.6885 30.5979 36.4001 30.2695 36.619 29.6674L37.9875 26C38.0422 25.7811 38.0422 25.5621 37.9875 25.3979L36.5643 20.9095C36.4001 20.4168 36.4548 19.8695 36.6738 19.4316C36.8927 18.9389 37.3306 18.6105 37.8233 18.4463L38.3706 18.2821C38.5348 18.2274 38.7538 18.3368 38.8085 18.5011L41.0527 25.5621C41.2169 26 41.1622 26.5474 40.998 26.9853L37.659 35.9621C37.6043 36.0716 36.838 38.3158 32.5685 42.5853C32.5685 42.64 32.459 42.6947 32.4043 42.6947Z" fill="white"/>
<path d="M29.5032 39.6842C29.3937 39.6842 29.339 39.6295 29.2843 39.5747C29.1748 39.4653 29.1748 39.2463 29.2843 39.0821C31.0358 37.3305 31.9116 35.9074 32.3495 34.9769C32.4043 34.8126 32.6232 34.7579 32.7874 34.8126C32.9516 34.9221 33.0064 35.0863 32.9516 35.2505C32.5137 36.1811 31.5832 37.7137 29.7221 39.52C29.6674 39.6295 29.5579 39.6842 29.5032 39.6842Z" fill="white"/>
<path d="M25.7809 9.7979H25.124V12.4253H25.7809V9.7979Z" fill="white"/>
<path d="M18.0646 12.724L17.5625 13.2282L19.4243 15.0821L19.9263 14.5779L18.0646 12.724Z" fill="white"/>
<path d="M32.924 12.7661L31.063 14.6208L31.5653 15.1248L33.4263 13.2701L32.924 12.7661Z" fill="white"/>
<path d="M21.697 10.534L21.04 10.8073L22.0492 13.2331L22.7062 12.9598L21.697 10.534Z" fill="white"/>
<path d="M35.4063 16.1622L32.9775 17.164L33.228 17.7712L35.6567 16.7694L35.4063 16.1622Z" fill="white"/>
<path d="M15.5531 16.2163L15.3027 16.8235L17.7317 17.8251L17.9821 17.2178L15.5531 16.2163Z" fill="white"/>
<path d="M29.33 10.5594L28.3203 12.985L28.9772 13.2584L29.9869 10.8329L29.33 10.5594Z" fill="white"/>
<path d="M23.6509 9.98007L23.0073 10.1114L23.5325 12.6857L24.1761 12.5544L23.6509 9.98007Z" fill="white"/>
<path d="M16.5887 14.4025L16.2271 14.9508L18.4204 16.3974L18.782 15.8491L16.5887 14.4025Z" fill="white"/>
<path d="M31.2075 11.4505L29.7524 13.6383L30.345 14.0324L31.8 11.8446L31.2075 11.4505Z" fill="white"/>
<path d="M19.7338 11.4689L19.1445 11.8679L20.6174 14.0436L21.2067 13.6447L19.7338 11.4689Z" fill="white"/>
<path d="M34.3284 14.312L32.1475 15.777L32.5442 16.3677L34.7252 14.9026L34.3284 14.312Z" fill="white"/>
<path d="M27.2511 9.93873L26.7461 12.5172L27.3907 12.6435L27.8957 10.065L27.2511 9.93873Z" fill="white"/>
</svg>
