<svg width="52" height="52" viewBox="0 0 52 52" fill="none" xmlns="http://www.w3.org/2000/svg">
<path d="M38.9729 37.7684C38.754 37.44 38.3708 37.1663 37.9329 37.1116L36.3456 36.8379L37.7687 29.0105C37.9329 28.1895 37.7687 27.3684 37.2761 26.6569C36.7835 25.9453 36.0719 25.5074 35.2508 25.3432L30.9266 24.5769L31.474 21.4569L31.8571 21.5116H31.9119C32.0214 21.5116 32.1308 21.4569 32.1856 21.3474L35.5245 15.4905V15.4358V15.3811C35.5245 15.3263 35.5245 15.3263 35.5245 15.2716V15.2169L34.2656 11.5495C34.2108 11.44 34.1014 11.3305 33.9919 11.3305L27.4782 10.0716C27.3687 10.0716 27.2592 10.0716 27.1498 10.1811L24.5224 13.1369V13.1916C24.5224 13.2463 24.4677 13.2463 24.4677 13.3011V13.3558V13.4105L25.5077 20.0884C25.5077 20.2526 25.6171 20.3621 25.7814 20.3621L26.1645 20.4169L25.6171 23.5369L21.4024 22.7705C19.7056 22.4421 18.0635 23.5916 17.7898 25.2884L16.2571 33.1158L14.5603 32.7874C13.6845 32.6232 12.8635 33.2253 12.6992 34.0463C12.6445 34.4842 12.6992 34.8674 12.9729 35.2505C13.1919 35.579 13.575 35.8526 14.0129 35.9074L37.3856 40.2316C37.495 40.2316 37.5498 40.2316 37.6592 40.2316C38.4256 40.2316 39.0824 39.6842 39.1919 38.9179C39.3013 38.5347 39.1919 38.0969 38.9729 37.7684ZM35.1413 26C35.7982 26.1095 36.3456 26.4926 36.7287 26.9853C37.1119 27.5326 37.2214 28.1895 37.1119 28.7916L35.6887 36.6737L34.1014 36.4L34.4845 34.32L32.7329 33.9916L33.4445 30.1053C33.4992 29.6674 33.4445 29.2842 33.1708 28.9011C32.9519 28.5726 32.5687 28.299 32.1308 28.2442L30.3245 27.9158L30.8171 25.179L35.1413 26ZM19.0487 33.6632L19.3224 32.2947L20.4171 32.5137L32.6235 34.7579L33.7182 34.9769L33.4445 36.3453L19.0487 33.6632ZM25.9456 27.8611L30.215 28.6274L32.0214 28.9558C32.2403 29.0105 32.4592 29.12 32.6235 29.339C32.7329 29.5579 32.7877 29.7769 32.7877 29.9958L32.0761 33.8821L21.2382 31.9116L21.9498 28.0253C22.0592 27.5326 22.4971 27.2042 22.9898 27.3137L25.9456 27.8611ZM27.5329 10.7832L33.7729 11.9326L34.7582 14.8884L25.3982 13.1916L27.5329 10.7832ZM26.9856 20.6358C27.1498 20.6905 27.3687 20.5263 27.3687 20.3621C27.4235 20.1979 27.2592 19.979 27.095 19.979L26.5477 19.8695L26.1098 19.76L25.1792 13.7937L34.7582 15.5453L31.7477 20.8L31.3098 20.7453L30.1056 20.5263C29.9414 20.4716 29.7224 20.6358 29.7224 20.8C29.6677 20.9642 29.8319 21.1832 29.9961 21.1832L30.8719 21.3474L29.6677 27.8611L25.5624 27.0947L26.7666 20.5811L26.9856 20.6358ZM18.3919 25.4526C18.6108 24.139 19.9245 23.2632 21.2382 23.4821L25.4529 24.2484L24.9603 26.9853L23.0992 26.6569C22.2235 26.4926 21.4024 27.0947 21.2382 27.9158L20.5266 31.8021L18.775 31.4737L18.3919 33.5537L16.9687 33.28L18.3919 25.4526ZM38.535 38.8084C38.4256 39.3011 37.9877 39.6295 37.495 39.52L14.1224 35.2505C13.9035 35.1958 13.6845 35.0863 13.5203 34.8674C13.4108 34.6484 13.3561 34.4295 13.3561 34.2105C13.4656 33.7179 13.9035 33.3895 14.3961 33.499L18.2277 34.2105L33.9919 37.1116L37.8235 37.8232C38.3161 37.8779 38.6445 38.3158 38.535 38.8084Z" fill="white"/>
<path d="M15.6745 37.0662L15.5464 37.7661L35.3054 41.3841L35.4335 40.6841L15.6745 37.0662Z" fill="white"/>
<path d="M17.4065 41.8737L12.2065 43.0232H33.4444L29.7771 41.8737H17.4065Z" fill="white"/>
</svg>
