<svg width="52" height="52" viewBox="0 0 52 52" fill="none" xmlns="http://www.w3.org/2000/svg">
<path d="M27.5873 40.3958H24.522C24.1936 40.3958 23.8652 40.1221 23.8105 39.7937L23.5915 38.8631C23.5915 38.8631 23.5915 38.8084 23.5368 38.8084C23.0441 38.6989 22.4968 38.5895 22.0589 38.4253C22.0041 38.4253 22.0041 38.4253 22.0041 38.4253L21.3473 39.1368C21.1284 39.4105 20.7452 39.4653 20.4168 39.301L17.7894 37.7684C17.461 37.6042 17.3515 37.221 17.461 36.8926L17.7347 36.0168V35.9621C17.3515 35.6337 16.9684 35.2505 16.6399 34.8674C16.6399 34.8674 16.5852 34.8126 16.5852 34.8674L15.5452 35.2505C15.2168 35.36 14.8336 35.1958 14.6694 34.9221L13.1368 32.2947C12.9726 31.9663 13.0273 31.5832 13.301 31.3642L14.122 30.6526V30.5979C14.0126 30.16 13.8484 29.7221 13.7936 29.2842C13.7936 29.2842 13.7936 29.2295 13.7389 29.2295L12.5894 29.0105C12.261 28.9558 11.9873 28.6274 11.9873 28.2989V25.2337C11.9873 24.9053 12.261 24.5768 12.5894 24.5221L13.8484 24.2484C13.8484 24.2484 13.9031 24.2484 13.9031 24.1937C14.0126 23.8105 14.122 23.4274 14.2315 23.0442V22.9895L13.1915 22.0589C12.9178 21.84 12.8631 21.4568 13.0273 21.1284L14.5599 18.501C14.7241 18.1726 15.1073 18.0632 15.4357 18.1726L16.8589 18.6105H16.9136C17.0231 18.501 17.1326 18.3916 17.242 18.2821C17.3515 18.1726 17.461 18.0631 17.6252 17.9537C17.6252 17.9537 17.6799 17.8989 17.6252 17.8989L17.1326 16.1474C17.0231 15.8189 17.1873 15.4358 17.461 15.2716L20.0884 13.7389C20.4168 13.5747 20.7999 13.6295 21.0189 13.9032L22.1684 15.1621H22.2231C22.4968 15.1074 22.7705 14.9979 23.0441 14.9431C23.0989 14.9431 23.0989 14.9432 23.0989 14.8884L23.482 13.1368C23.5368 12.8084 23.8652 12.5347 24.1936 12.5347H27.2589C27.5873 12.5347 27.9157 12.8084 27.9705 13.1368L28.3536 14.8884C28.3536 14.8884 28.3536 14.9431 28.4084 14.9431C28.682 14.9979 28.901 15.0526 29.1747 15.1074H29.2294L30.4884 13.7389C30.7073 13.4653 31.0905 13.4105 31.4189 13.5747L34.0463 15.1074C34.3747 15.2716 34.4841 15.6547 34.3747 15.9832L33.8273 17.68V17.7347C34.0463 17.8989 34.2105 18.0632 34.3747 18.2821H34.4294L36.181 17.7347C36.5094 17.6253 36.8926 17.7895 37.0568 18.0631L38.5894 20.6905C38.7536 21.0189 38.6989 21.4021 38.4252 21.621L37.221 22.7158V22.7705C37.3305 23.0442 37.3852 23.3179 37.4947 23.6463C37.4947 23.6463 37.4947 23.701 37.5494 23.701L39.1915 24.0295C39.5199 24.0842 39.7936 24.4126 39.7936 24.741V27.8063C39.7936 28.1347 39.5199 28.4631 39.1915 28.5179L37.7684 28.7916C37.7684 28.7916 37.7136 28.7916 37.7136 28.8463C37.6589 29.2295 37.5494 29.5579 37.4947 29.941V29.9958L38.5894 30.981C38.8631 31.2 38.9178 31.5832 38.7536 31.9116L37.221 34.5389C37.0568 34.8674 36.6736 34.9768 36.3452 34.8674L35.1957 34.4842H35.141C34.8673 34.8126 34.5936 35.141 34.2652 35.4147V35.4695L34.6484 36.6737C34.7578 37.0021 34.5936 37.3853 34.3199 37.5495L31.6926 39.0821C31.3641 39.2463 30.981 39.1916 30.762 38.9179L30.0505 38.1516H29.9957C29.5031 38.3158 29.0652 38.48 28.5726 38.5895C28.5726 38.5895 28.5178 38.5895 28.5178 38.6442L28.2989 39.6842C28.2441 40.1768 27.9157 40.3958 27.5873 40.3958ZM22.0041 37.7684C22.0589 37.7684 22.1684 37.7684 22.2231 37.8231C22.661 37.9874 23.1536 38.0968 23.6463 38.1516C23.9747 38.2063 24.1936 38.4253 24.2484 38.7537L24.4673 39.6842C24.4673 39.7389 24.522 39.7389 24.522 39.7389H27.5873C27.642 39.7389 27.642 39.7389 27.642 39.6842L27.861 38.6442C27.9157 38.3705 28.1347 38.1516 28.4084 38.0968C28.8463 37.9874 29.2841 37.8779 29.722 37.7137C29.9957 37.6042 30.3242 37.6589 30.5431 37.9326L31.2547 38.6989C31.2547 38.6989 31.3094 38.7537 31.3641 38.6989L33.9915 37.1663L34.0463 37.1116L33.6631 35.9074C33.5536 35.6337 33.6631 35.36 33.882 35.141C34.1557 34.8674 34.4841 34.5389 34.7031 34.2653C34.922 34.0463 35.1957 33.9368 35.5241 34.0463L36.6736 34.4295C36.7284 34.4295 36.7284 34.4295 36.7284 34.3747L38.261 31.7474V31.6926L37.1663 30.7074C36.9473 30.5431 36.8926 30.2147 36.9473 29.941C37.0568 29.6126 37.1115 29.2842 37.1663 28.9558C37.221 28.6274 37.4399 28.4084 37.7684 28.3537L39.1915 28.08C39.2463 28.08 39.2463 28.0253 39.2463 28.0253V24.96C39.2463 24.9053 39.2463 24.9053 39.1915 24.9053L37.5494 24.5768C37.2757 24.5221 37.0568 24.3032 37.002 24.0295C36.9473 23.7558 36.8378 23.4821 36.7284 23.2084C36.6189 22.9347 36.7284 22.6063 36.9473 22.3874L38.1515 21.2926C38.1515 21.2926 38.2063 21.2379 38.1515 21.2379L36.6189 18.6105L36.5641 18.5558L34.8126 19.1032C34.5389 19.2126 34.2652 19.1031 34.0463 18.9389C33.882 18.7747 33.7178 18.6105 33.4989 18.4463C33.2799 18.2274 33.1705 17.9537 33.2799 17.68L33.8273 15.9832C33.8273 15.9284 33.8273 15.9284 33.7726 15.9284L31.1452 14.3958C31.0905 14.3958 31.0905 14.3958 31.0357 14.3958L29.722 15.6C29.5031 15.8189 29.2294 15.8737 28.9557 15.8189C28.7368 15.7642 28.4631 15.7095 28.2441 15.6547C27.9705 15.6 27.7515 15.381 27.6968 15.1074L27.3136 13.3558C27.3136 13.301 27.2589 13.301 27.2589 13.301H24.1936C24.1389 13.301 24.1389 13.301 24.1389 13.3558L23.7557 15.1074C23.701 15.381 23.482 15.6 23.2084 15.6547C22.9347 15.7095 22.7157 15.7642 22.442 15.8737C22.1684 15.9832 21.8399 15.8737 21.6757 15.6547L20.5263 14.3958C20.5263 14.3958 20.4715 14.341 20.4168 14.3958L17.7894 15.9284L17.7347 15.9832L18.2273 17.5158C18.3368 17.7895 18.2273 18.1179 18.0084 18.2821C17.8989 18.3916 17.7894 18.501 17.6799 18.6105C17.5705 18.72 17.461 18.8295 17.3515 18.9389C17.1326 19.1579 16.8589 19.2126 16.5852 19.1579L15.162 18.72C15.1073 18.72 15.1073 18.72 15.1073 18.7747L13.5747 21.4021V21.4568L14.6147 22.3874C14.8336 22.6063 14.9431 22.88 14.8336 23.2084C14.7241 23.5916 14.6147 23.92 14.5052 24.3032C14.4505 24.5768 14.2315 24.7958 13.9578 24.8505L12.6989 25.1242C12.6441 25.1242 12.6441 25.1789 12.6441 25.1789V28.2442C12.6441 28.2989 12.6441 28.2989 12.6989 28.2989L13.8484 28.5179C14.122 28.5726 14.3957 28.7916 14.4505 29.12C14.5599 29.5579 14.6694 29.9958 14.7789 30.3789C14.8884 30.6526 14.7789 30.981 14.5599 31.1453L13.7389 31.8568C13.7389 31.8568 13.6841 31.9116 13.7389 31.9116L15.2715 34.5389L15.3263 34.5937L16.3115 34.2653C16.5852 34.1558 16.9136 34.2653 17.0778 34.4842C17.4063 34.8674 17.7347 35.1958 18.1178 35.4695C18.3368 35.6884 18.4463 35.9621 18.3368 36.2358L18.0631 37.1116C18.0631 37.1663 18.0631 37.1663 18.1178 37.1663L20.7452 38.6989C20.7999 38.6989 20.7999 38.6989 20.8547 38.6989L21.5115 37.9874C21.621 37.8779 21.7852 37.7684 22.0041 37.7684Z" fill="white"/>
<path d="M36.1261 29.2295H30.0503V23.1537H34.2103V23.8105H30.7071V28.5179H35.4692V26.7116H36.1261V29.2295Z" fill="white"/>
<path d="M33.1705 27.5874L31.4189 25.6168L31.9116 25.1789L33.1705 26.5474L35.3053 23.9747L35.7979 24.4126L33.1705 27.5874Z" fill="white"/>
<path d="M28.2442 33.7179L28.1894 33.28C28.08 32.0758 27.0947 31.1453 25.8358 31.1453C24.6316 31.1453 23.6463 32.0758 23.4821 33.28L23.4273 33.7179L22.9894 33.5537C20.9094 32.7326 19.3221 31.0905 18.6105 28.9558L18.4463 28.5179H20.2526L21.621 26.1642L20.2526 23.8105H18.7747L18.9937 23.3179C19.8147 21.5116 21.2926 20.1432 23.0989 19.4316L23.4821 19.2674L23.5368 19.7053C23.701 20.8547 24.6863 21.7305 25.8358 21.7305C26.9852 21.7305 27.9705 20.8547 28.1347 19.7053L28.1894 19.2674L28.5726 19.4316C30.3789 20.1432 31.9115 21.5663 32.7326 23.3726L32.1305 23.6463C31.4737 22.1684 30.2147 20.9095 28.7368 20.2526C28.3537 21.5116 27.2042 22.4421 25.8358 22.4421C24.4673 22.4421 23.3179 21.5116 22.9347 20.2526C21.621 20.8547 20.5263 21.8947 19.8147 23.1537H20.6905L22.4421 26.1642L20.6905 29.1747H19.4863C20.1431 30.7621 21.4021 32.0211 22.9347 32.7326C23.2631 31.4189 24.4673 30.4337 25.8905 30.4337C27.3137 30.4337 28.4631 31.3642 28.8463 32.7326C30.5431 31.9663 31.8568 30.4884 32.4589 28.7368L33.1158 28.9558C32.4042 31.0358 30.7621 32.7326 28.7368 33.4989L28.2442 33.7179Z" fill="white"/>
<path d="M25.8905 42.9684C21.621 42.9684 17.4063 41.3263 14.1768 38.1516C7.88208 31.8568 7.77261 21.5116 13.9031 15.1074L14.3958 15.6C8.48419 21.7305 8.59366 31.6926 14.6694 37.7137C20.581 43.6253 30.16 43.8989 36.4 38.3705L36.8379 38.8631C33.7179 41.6 29.8316 42.9684 25.8905 42.9684Z" fill="white"/>
<path d="M12.3706 15.2716L12.4253 15.6L14.0674 15.4358L14.1222 17.1326H14.4506V15.0526L12.3706 15.2716Z" fill="white"/>
<path d="M37.8779 37.8779L37.3853 37.3853C43.2969 31.2547 43.1874 21.2926 37.1116 15.2716C31.2548 9.46947 21.7853 9.08631 15.5453 14.4505L15.1074 13.9579C21.6211 8.37473 31.5285 8.70315 37.6043 14.7789C43.899 21.1284 44.0085 31.4737 37.8779 37.8779Z" fill="white"/>
<path d="M39.4106 37.7137L39.3558 37.3853L37.7137 37.5495L37.659 35.8526H37.3306V37.9326L39.4106 37.7137Z" fill="white"/>
<path d="M20.7455 29.1747H17.2423L15.4907 26.1642L17.2423 23.1537H20.7455L22.497 26.1642L20.7455 29.1747ZM17.6255 28.5179H20.3623L21.7307 26.1642L20.3623 23.8105H17.6255L16.257 26.1642L17.6255 28.5179Z" fill="white"/>
<path d="M25.8904 22.4421C24.1936 22.4421 22.8799 21.0737 22.8799 19.4316C22.8799 17.7895 24.2483 16.4211 25.8904 16.4211C27.5325 16.4211 28.9009 17.7895 28.9009 19.4316C28.9009 21.0737 27.5325 22.4421 25.8904 22.4421ZM25.8904 17.0779C24.5767 17.0779 23.5367 18.1179 23.5367 19.4316C23.5367 20.7453 24.5767 21.7853 25.8904 21.7853C27.2041 21.7853 28.2441 20.7453 28.2441 19.4316C28.2441 18.1179 27.2041 17.0779 25.8904 17.0779Z" fill="white"/>
<path d="M25.8904 36.5095C24.1936 36.5095 22.8799 35.1411 22.8799 33.4989C22.8799 31.8568 24.2483 30.4884 25.8904 30.4884C27.5325 30.4884 28.9009 31.8568 28.9009 33.4989C28.9009 35.1411 27.5325 36.5095 25.8904 36.5095ZM25.8904 31.1453C24.5767 31.1453 23.5367 32.1853 23.5367 33.4989C23.5367 34.8126 24.5767 35.8526 25.8904 35.8526C27.2041 35.8526 28.2441 34.8126 28.2441 33.4989C28.2441 32.1853 27.2041 31.1453 25.8904 31.1453Z" fill="white"/>
</svg>
