<svg width="52" height="52" viewBox="0 0 52 52" fill="none" xmlns="http://www.w3.org/2000/svg">
<path d="M12.3704 42.1474C12.261 42.1474 12.0967 42.0926 12.042 41.9284C11.9873 41.7642 12.042 41.5453 12.2062 41.4905C17.0778 39.1916 22.3873 37.9874 27.9157 37.9874C33.1704 37.9874 38.2062 39.0274 42.9136 41.1621C43.0778 41.2168 43.1873 41.4358 43.0778 41.6C43.0231 41.7642 42.8041 41.8737 42.6399 41.7642C38.042 39.7389 33.1157 38.6989 27.9157 38.6989C22.4967 38.6989 17.2967 39.8484 12.4799 42.1474C12.4799 42.1474 12.4252 42.1474 12.3704 42.1474Z" fill="white"/>
<path d="M26.383 26.5474C26.3283 26.5474 26.2735 26.5474 26.2188 26.4926L24.1935 25.3979C20.6904 22.9895 21.9493 20.4168 21.9493 20.3621C21.9493 20.3621 21.9493 20.3074 22.0041 20.3074C23.7009 18.0631 23.4272 17.0231 23.3725 16.8589L20.1978 13.6295L20.6904 13.1368L23.9199 16.3663L23.9746 16.421C24.0841 16.5305 24.7956 17.7895 22.6609 20.6358C22.5514 20.8547 21.8399 22.7705 24.6314 24.741L26.2735 25.6716C26.8756 24.3032 28.3535 23.2084 28.6272 22.9895C28.7367 22.7705 29.2293 21.8947 29.0104 20.9095C28.7914 20.0884 28.1893 19.3221 27.0946 18.72C26.9851 18.6653 26.9304 18.5558 26.9304 18.3916C26.9304 18.2821 26.9851 15.9831 28.5178 13.4105C28.5725 13.3558 29.3388 11.8779 27.9704 10.4L28.463 9.9621C30.1599 11.8779 29.0651 13.7937 29.0651 13.7937C27.8609 15.8189 27.642 17.6253 27.5872 18.2274C28.7367 18.8842 29.4483 19.76 29.6672 20.7453C29.9956 22.1684 29.1746 23.3726 29.1199 23.4274C29.1199 23.4821 29.0651 23.4821 29.0104 23.5368C29.0104 23.5368 27.1493 24.7958 26.7114 26.2737C26.6567 26.3831 26.602 26.4379 26.4925 26.4926C26.4925 26.5474 26.4378 26.5474 26.383 26.5474Z" fill="white"/>
<path d="M28.2441 15.4905L27.6968 15.0526L30.1599 11.9326L31.0357 9.57895L31.6926 9.7979L30.8168 12.2063C30.8168 12.2611 30.762 12.2611 30.762 12.3158L28.2441 15.4905Z" fill="white"/>
<path d="M29.4481 20.9095L29.0649 20.3621C29.0649 20.3621 31.8018 18.5558 32.0755 16.4758C32.4039 14.2863 33.4439 13.7389 35.0313 12.8632C35.1955 12.7537 35.3597 12.6442 35.5786 12.5895C37.2207 11.6589 37.166 9.79789 37.166 9.74315L37.8228 9.68842C37.8228 9.79789 37.987 12.0421 35.907 13.1916C35.7428 13.301 35.5239 13.4105 35.3597 13.4653C33.827 14.341 33.006 14.7789 32.7323 16.5853C32.4039 18.9389 29.5576 20.8 29.4481 20.9095Z" fill="white"/>
<path d="M36.7283 15.5453C36.6736 15.5453 36.6189 15.5453 36.6189 15.5453L33.6631 14.2863L33.9368 13.6295L36.7283 14.779L39.0273 13.6842L39.301 14.2863L36.8926 15.4358C36.8378 15.5453 36.7831 15.5453 36.7283 15.5453Z" fill="white"/>
<path d="M18.3364 39.6842L17.6796 39.52L18.0627 38.0968C18.1175 37.9874 18.1722 37.8779 18.2817 37.8779L22.2227 36.4L23.0985 35.0863C23.2627 34.5937 25.3427 28.6821 23.3175 26.6021C22.1132 25.3432 20.909 24.8505 19.5406 24.2484C18.4459 23.8105 17.2417 23.2632 15.8185 22.2779C12.5343 19.979 13.5196 14.8337 13.5743 14.6147L14.2311 14.779C14.2311 14.8337 13.2459 19.7053 16.2017 21.7305C17.5701 22.6611 18.7196 23.1537 19.8143 23.6463C21.1827 24.2484 22.4964 24.7958 23.8101 26.1642C26.2185 28.6274 23.8648 35.0863 23.7554 35.36C23.7554 35.36 23.7554 35.4147 23.7006 35.4147L22.7154 36.8379C22.6606 36.8926 22.6059 36.9474 22.5511 36.9474L18.6648 38.4253L18.3364 39.6842Z" fill="white"/>
<path d="M9.30503 23.92L8.92188 23.3726C9.08609 23.2632 12.5345 20.8 16.3661 21.8947L16.1471 22.4968C12.644 21.5116 9.30503 23.8653 9.30503 23.92Z" fill="white"/>
<path d="M14.122 20.4716C12.1514 18.1726 9.57881 18.72 9.52407 18.7747L9.35986 18.1179C9.46934 18.0632 12.4251 17.4063 14.6693 20.0337L14.122 20.4716Z" fill="white"/>
<path d="M29.2838 20.9642C29.1743 20.9642 29.0648 20.9095 29.0101 20.8C28.9006 20.6358 28.9553 20.4168 29.1196 20.3074C31.8017 18.501 34.7574 17.461 34.8669 17.461C35.0311 17.4063 35.2501 17.5158 35.3048 17.68C35.3596 17.8442 35.2501 18.0632 35.0859 18.1179C35.0311 18.1179 32.1301 19.2126 29.5027 20.9095C29.448 20.9642 29.3932 20.9642 29.2838 20.9642Z" fill="white"/>
<path d="M35.469 39.301C35.3596 39.301 35.1953 39.2463 35.1406 39.0821L33.9911 36.5095L29.3932 35.6337C29.2838 35.6337 29.229 35.5789 29.1743 35.4695C28.408 34.2105 28.189 33.061 28.4627 32.0758C28.8459 30.7621 29.9406 30.16 29.9953 30.16C30.8711 29.6126 31.9111 28.9558 32.2943 28.6821C32.2943 28.6274 32.2396 28.6274 32.2396 28.5726L28.6817 30.16C28.5722 30.2147 28.4627 30.2147 28.3532 30.16C28.2438 30.1053 28.189 29.941 28.189 29.8316C28.0796 28.2989 28.1343 27.04 28.1343 27.04C28.1343 26.9305 28.189 26.8758 28.2438 26.821C30.8164 24.3579 30.1596 20.1432 30.1596 20.0884C30.1048 19.9242 30.269 19.7053 30.4332 19.7053C30.5974 19.6505 30.8164 19.8147 30.8164 19.9789C30.8711 20.1432 31.4732 24.4674 28.7911 27.2042C28.7911 27.5326 28.7911 28.2989 28.8459 29.3389L32.2396 27.861C32.4038 27.8063 32.6227 27.861 32.6774 28.0253C33.0606 28.7916 33.0059 28.9558 32.8964 29.12C32.8417 29.1747 32.7869 29.2842 30.3238 30.8168C30.269 30.8168 29.3932 31.3095 29.1196 32.3495C28.9006 33.1158 29.0648 34.0463 29.6669 35.0863L34.3196 36.0168C34.429 36.0168 34.5385 36.1263 34.5932 36.2358L35.7974 38.9726C35.8522 39.1368 35.7974 39.3558 35.6332 39.4105C35.5238 39.301 35.469 39.301 35.469 39.301Z" fill="white"/>
<path d="M20.9017 16.5409L20.2251 16.761L21.7324 21.3934L22.409 21.1733L20.9017 16.5409Z" fill="white"/>
<path d="M21.183 18.659L17.4888 19.1127L17.5688 19.7646L21.263 19.3109L21.183 18.659Z" fill="white"/>
<path d="M29.7219 25.6716L29.4482 25.0695L34.3198 22.88C34.3746 22.8253 34.484 22.8253 34.5935 22.88L36.564 23.5369L36.3451 24.1937L34.484 23.5916L29.7219 25.6716Z" fill="white"/>
<path d="M33.9192 20.3736L32.4243 23.6626L33.0721 23.957L34.567 20.6681L33.9192 20.3736Z" fill="white"/>
<path d="M22.3872 15.8737C22.3872 15.7642 22.1683 13.4653 23.482 11.9874L23.9746 12.4253C22.8251 13.6842 23.0441 15.7642 23.0441 15.7642L22.3872 15.8737Z" fill="white"/>
<path d="M30.8601 29.6733L30.3848 30.2028L32.0549 31.702L32.5302 31.1724L30.8601 29.6733Z" fill="white"/>
</svg>
