<svg width="52" height="52" viewBox="0 0 52 52" fill="none" xmlns="http://www.w3.org/2000/svg">
<path d="M21.9497 38.2063H17.2424V34.8674H13.7939V30.379H14.5055V34.1558H17.8992V37.4947H21.2929V34.1558H24.6866V30.379H25.3434V34.8674H21.9497V38.2063Z" fill="white"/>
<path d="M19.4317 42.0926C12.5348 42.0926 6.95166 36.5095 6.95166 29.6126C6.95166 23.6463 16.038 12.6442 18.7748 9.41475C19.1032 9.03159 19.7601 9.03159 20.0885 9.41475C21.5664 11.1663 26.6569 17.1874 29.6127 22.7705L29.8864 23.2632H14.5053V29.9958H17.2422V26.7116H22.0043V30.0505H24.7411V26.7116H29.9959L30.2148 27.3684C30.598 28.3537 31.1453 29.2842 31.9117 30.0505L32.0211 30.16V30.3242C31.5832 36.8926 26.1096 42.0926 19.4317 42.0926ZM19.4317 9.79791C19.3769 9.79791 19.3222 9.79791 19.2674 9.85264C17.2969 12.0969 7.6085 23.7558 7.6085 29.6126C7.6085 36.1263 12.918 41.3811 19.4317 41.3811C25.6717 41.3811 30.8169 36.5642 31.2001 30.379C30.4338 29.5579 29.8317 28.6274 29.4485 27.5874L29.3938 27.3684H25.3432V30.7074H21.238V27.3684H17.8443V30.7074H13.739V22.6063H28.6822C25.6717 17.2421 20.9096 11.5495 19.4864 9.85264C19.5411 9.79791 19.4864 9.79791 19.4317 9.79791Z" fill="white"/>
<path d="M36.9477 32.8421C33.6087 32.8421 30.6529 30.7621 29.5035 27.5874L29.4487 27.3684H25.3435V30.7074H21.2382V27.3684H17.8445V30.7074H13.7393V22.6063H29.3393L29.394 22.3874C30.4887 19.2674 33.4993 17.1326 36.8382 17.1326C41.1624 17.1326 44.7203 20.6358 44.7203 24.96C44.7203 29.2842 41.2719 32.8421 36.9477 32.8421ZM24.6866 26.7116H29.9414L30.1603 27.3684C31.2003 30.2147 33.8824 32.1305 36.9477 32.1305C40.9435 32.1305 44.1729 28.9011 44.1729 24.96C44.1729 21.0189 40.9435 17.7895 36.9477 17.7895C33.8824 17.7895 31.2003 19.7053 30.1603 22.5516L29.9414 23.2084H14.5056V29.9411H17.2424V26.7116H22.0045V30.0505H24.7414L24.6866 26.7116ZM36.8929 29.12C34.594 29.12 32.7877 27.2589 32.7877 25.0147C32.7877 22.7705 34.6487 20.9095 36.8929 20.9095C39.1371 20.9095 40.9982 22.7705 40.9982 25.0147C40.9982 27.2589 39.1919 29.12 36.8929 29.12ZM36.8929 21.5663C34.9772 21.5663 33.4445 23.0989 33.4445 25.0147C33.4445 26.9305 34.9772 28.4632 36.8929 28.4632C38.8087 28.4632 40.3414 26.9305 40.3414 25.0147C40.3414 23.0989 38.8087 21.5663 36.8929 21.5663Z" fill="white"/>
</svg>
