<svg width="176" height="176" viewBox="0 0 176 176" fill="none" xmlns="http://www.w3.org/2000/svg">
<rect width="176" height="176" fill="#173364"/>
<path d="M52.8203 62.832H53.1719V65.1406H52.9727C51.9648 65.1406 51.0938 65.2969 50.3594 65.6094C49.6328 65.9219 49.0352 66.3516 48.5664 66.8984C48.0977 67.4453 47.7461 68.0859 47.5117 68.8203C47.2852 69.5469 47.1719 70.3203 47.1719 71.1406V73.8242C47.1719 74.5039 47.2461 75.1055 47.3945 75.6289C47.543 76.1445 47.75 76.5781 48.0156 76.9297C48.2891 77.2734 48.6016 77.5352 48.9531 77.7148C49.3047 77.8945 49.6836 77.9844 50.0898 77.9844C50.5117 77.9844 50.8945 77.8984 51.2383 77.7266C51.582 77.5469 51.875 77.3008 52.1172 76.9883C52.3594 76.6758 52.543 76.3047 52.668 75.875C52.793 75.4453 52.8555 74.9766 52.8555 74.4688C52.8555 73.9844 52.793 73.5312 52.668 73.1094C52.5508 72.6797 52.375 72.3047 52.1406 71.9844C51.9062 71.6562 51.6133 71.4023 51.2617 71.2227C50.918 71.0352 50.5195 70.9414 50.0664 70.9414C49.5039 70.9414 48.9922 71.0742 48.5312 71.3398C48.0781 71.6055 47.7109 71.9531 47.4297 72.3828C47.1562 72.8047 47.0078 73.2539 46.9844 73.7305L45.9062 73.3789C45.9688 72.6523 46.1289 72 46.3867 71.4219C46.6523 70.8438 47 70.3516 47.4297 69.9453C47.8594 69.5391 48.3555 69.2305 48.918 69.0195C49.4883 68.8008 50.1133 68.6914 50.793 68.6914C51.6211 68.6914 52.3398 68.8477 52.9492 69.1602C53.5586 69.4727 54.0625 69.8984 54.4609 70.4375C54.8672 70.9688 55.168 71.5781 55.3633 72.2656C55.5664 72.9453 55.668 73.6562 55.668 74.3984C55.668 75.2188 55.543 75.9844 55.293 76.6953C55.043 77.3984 54.6758 78.0156 54.1914 78.5469C53.7148 79.0781 53.1328 79.4922 52.4453 79.7891C51.7656 80.0859 50.9922 80.2344 50.125 80.2344C49.2109 80.2344 48.3945 80.0586 47.6758 79.707C46.9648 79.3555 46.3594 78.8711 45.8594 78.2539C45.3672 77.6367 44.9922 76.9258 44.7344 76.1211C44.4766 75.3164 44.3477 74.4648 44.3477 73.5664V72.3945C44.3477 71.0977 44.5117 69.875 44.8398 68.7266C45.168 67.5703 45.6719 66.5508 46.3516 65.668C47.0391 64.7852 47.918 64.0938 48.9883 63.5938C50.0586 63.0859 51.3359 62.832 52.8203 62.832ZM63.7773 71.5859V73.8359H57.5781V71.5859H63.7773ZM75.5078 75.6055C75.5078 75.2539 75.4531 74.9414 75.3438 74.668C75.2422 74.3945 75.0586 74.1445 74.793 73.918C74.5273 73.6914 74.1523 73.4727 73.668 73.2617C73.1914 73.043 72.582 72.8203 71.8398 72.5938C71.0273 72.3438 70.2773 72.0664 69.5898 71.7617C68.9102 71.4492 68.3164 71.0898 67.8086 70.6836C67.3008 70.2695 66.9062 69.7969 66.625 69.2656C66.3438 68.7266 66.2031 68.1055 66.2031 67.4023C66.2031 66.707 66.3477 66.0742 66.6367 65.5039C66.9336 64.9336 67.3516 64.4414 67.8906 64.0273C68.4375 63.6055 69.082 63.2812 69.8242 63.0547C70.5664 62.8203 71.3867 62.7031 72.2852 62.7031C73.5508 62.7031 74.6406 62.9375 75.5547 63.4062C76.4766 63.875 77.1836 64.5039 77.6758 65.293C78.1758 66.082 78.4258 66.9531 78.4258 67.9062H75.5078C75.5078 67.3438 75.3867 66.8477 75.1445 66.418C74.9102 65.9805 74.5508 65.6367 74.0664 65.3867C73.5898 65.1367 72.9844 65.0117 72.25 65.0117C71.5547 65.0117 70.9766 65.1172 70.5156 65.3281C70.0547 65.5391 69.7109 65.8242 69.4844 66.1836C69.2578 66.543 69.1445 66.9492 69.1445 67.4023C69.1445 67.7227 69.2188 68.0156 69.3672 68.2812C69.5156 68.5391 69.7422 68.7812 70.0469 69.0078C70.3516 69.2266 70.7344 69.4336 71.1953 69.6289C71.6562 69.8242 72.1992 70.0117 72.8242 70.1914C73.7695 70.4727 74.5938 70.7852 75.2969 71.1289C76 71.4648 76.5859 71.8477 77.0547 72.2773C77.5234 72.707 77.875 73.1953 78.1094 73.7422C78.3438 74.2812 78.4609 74.8945 78.4609 75.582C78.4609 76.3008 78.3164 76.9492 78.0273 77.5273C77.7383 78.0977 77.3242 78.5859 76.7852 78.9922C76.2539 79.3906 75.6133 79.6992 74.8633 79.918C74.1211 80.1289 73.293 80.2344 72.3789 80.2344C71.5586 80.2344 70.75 80.125 69.9531 79.9062C69.1641 79.6875 68.4453 79.3555 67.7969 78.9102C67.1484 78.457 66.6328 77.8945 66.25 77.2227C65.8672 76.543 65.6758 75.75 65.6758 74.8438H68.6172C68.6172 75.3984 68.7109 75.8711 68.8984 76.2617C69.0938 76.6523 69.3633 76.9727 69.707 77.2227C70.0508 77.4648 70.4492 77.6445 70.9023 77.7617C71.3633 77.8789 71.8555 77.9375 72.3789 77.9375C73.0664 77.9375 73.6406 77.8398 74.1016 77.6445C74.5703 77.4492 74.9219 77.1758 75.1562 76.8242C75.3906 76.4727 75.5078 76.0664 75.5078 75.6055ZM88.082 62.9375V80H85.1641V62.9375H88.082ZM93.4375 62.9375V65.2812H79.8555V62.9375H93.4375ZM106.855 77.668V80H97.7969V77.668H106.855ZM98.6289 62.9375V80H95.6875V62.9375H98.6289ZM105.672 70.0625V72.3594H97.7969V70.0625H105.672ZM106.797 62.9375V65.2812H97.7969V62.9375H106.797ZM115.738 73.6367H111.297V71.3047H115.738C116.512 71.3047 117.137 71.1797 117.613 70.9297C118.09 70.6797 118.438 70.3359 118.656 69.8984C118.883 69.4531 118.996 68.9453 118.996 68.375C118.996 67.8359 118.883 67.332 118.656 66.8633C118.438 66.3867 118.09 66.0039 117.613 65.7148C117.137 65.4258 116.512 65.2812 115.738 65.2812H112.199V80H109.258V62.9375H115.738C117.059 62.9375 118.18 63.1719 119.102 63.6406C120.031 64.1016 120.738 64.7422 121.223 65.5625C121.707 66.375 121.949 67.3047 121.949 68.3516C121.949 69.4531 121.707 70.3984 121.223 71.1875C120.738 71.9766 120.031 72.582 119.102 73.0039C118.18 73.4258 117.059 73.6367 115.738 73.6367ZM133.562 75.6055C133.562 75.2539 133.508 74.9414 133.398 74.668C133.297 74.3945 133.113 74.1445 132.848 73.918C132.582 73.6914 132.207 73.4727 131.723 73.2617C131.246 73.043 130.637 72.8203 129.895 72.5938C129.082 72.3438 128.332 72.0664 127.645 71.7617C126.965 71.4492 126.371 71.0898 125.863 70.6836C125.355 70.2695 124.961 69.7969 124.68 69.2656C124.398 68.7266 124.258 68.1055 124.258 67.4023C124.258 66.707 124.402 66.0742 124.691 65.5039C124.988 64.9336 125.406 64.4414 125.945 64.0273C126.492 63.6055 127.137 63.2812 127.879 63.0547C128.621 62.8203 129.441 62.7031 130.34 62.7031C131.605 62.7031 132.695 62.9375 133.609 63.4062C134.531 63.875 135.238 64.5039 135.73 65.293C136.23 66.082 136.48 66.9531 136.48 67.9062H133.562C133.562 67.3438 133.441 66.8477 133.199 66.418C132.965 65.9805 132.605 65.6367 132.121 65.3867C131.645 65.1367 131.039 65.0117 130.305 65.0117C129.609 65.0117 129.031 65.1172 128.57 65.3281C128.109 65.5391 127.766 65.8242 127.539 66.1836C127.312 66.543 127.199 66.9492 127.199 67.4023C127.199 67.7227 127.273 68.0156 127.422 68.2812C127.57 68.5391 127.797 68.7812 128.102 69.0078C128.406 69.2266 128.789 69.4336 129.25 69.6289C129.711 69.8242 130.254 70.0117 130.879 70.1914C131.824 70.4727 132.648 70.7852 133.352 71.1289C134.055 71.4648 134.641 71.8477 135.109 72.2773C135.578 72.707 135.93 73.1953 136.164 73.7422C136.398 74.2812 136.516 74.8945 136.516 75.582C136.516 76.3008 136.371 76.9492 136.082 77.5273C135.793 78.0977 135.379 78.5859 134.84 78.9922C134.309 79.3906 133.668 79.6992 132.918 79.918C132.176 80.1289 131.348 80.2344 130.434 80.2344C129.613 80.2344 128.805 80.125 128.008 79.9062C127.219 79.6875 126.5 79.3555 125.852 78.9102C125.203 78.457 124.688 77.8945 124.305 77.2227C123.922 76.543 123.73 75.75 123.73 74.8438H126.672C126.672 75.3984 126.766 75.8711 126.953 76.2617C127.148 76.6523 127.418 76.9727 127.762 77.2227C128.105 77.4648 128.504 77.6445 128.957 77.7617C129.418 77.8789 129.91 77.9375 130.434 77.9375C131.121 77.9375 131.695 77.8398 132.156 77.6445C132.625 77.4492 132.977 77.1758 133.211 76.8242C133.445 76.4727 133.562 76.0664 133.562 75.6055Z" fill="white"/>
<path d="M41.2148 105.637H36.7734V103.305H41.2148C41.9883 103.305 42.6133 103.18 43.0898 102.93C43.5664 102.68 43.9141 102.336 44.1328 101.898C44.3594 101.453 44.4727 100.945 44.4727 100.375C44.4727 99.8359 44.3594 99.332 44.1328 98.8633C43.9141 98.3867 43.5664 98.0039 43.0898 97.7148C42.6133 97.4258 41.9883 97.2812 41.2148 97.2812H37.6758V112H34.7344V94.9375H41.2148C42.5352 94.9375 43.6562 95.1719 44.5781 95.6406C45.5078 96.1016 46.2148 96.7422 46.6992 97.5625C47.1836 98.375 47.4258 99.3047 47.4258 100.352C47.4258 101.453 47.1836 102.398 46.6992 103.188C46.2148 103.977 45.5078 104.582 44.5781 105.004C43.6562 105.426 42.5352 105.637 41.2148 105.637ZM50.0625 94.9375H56.0977C57.3945 94.9375 58.5 95.1328 59.4141 95.5234C60.3281 95.9141 61.0273 96.4922 61.5117 97.2578C62.0039 98.0156 62.25 98.9531 62.25 100.07C62.25 100.922 62.0938 101.672 61.7812 102.32C61.4688 102.969 61.0273 103.516 60.457 103.961C59.8867 104.398 59.207 104.738 58.418 104.98L57.5273 105.414H52.1016L52.0781 103.082H56.1445C56.8477 103.082 57.4336 102.957 57.9023 102.707C58.3711 102.457 58.7227 102.117 58.957 101.688C59.1992 101.25 59.3203 100.758 59.3203 100.211C59.3203 99.6172 59.2031 99.1016 58.9688 98.6641C58.7422 98.2188 58.3906 97.8789 57.9141 97.6445C57.4375 97.4023 56.832 97.2812 56.0977 97.2812H53.0039V112H50.0625V94.9375ZM59.8008 112L55.793 104.336L58.875 104.324L62.9414 111.848V112H59.8008ZM78.7852 103V103.938C78.7852 105.227 78.6172 106.383 78.2812 107.406C77.9453 108.43 77.4648 109.301 76.8398 110.02C76.2227 110.738 75.4805 111.289 74.6133 111.672C73.7461 112.047 72.7852 112.234 71.7305 112.234C70.6836 112.234 69.7266 112.047 68.8594 111.672C68 111.289 67.2539 110.738 66.6211 110.02C65.9883 109.301 65.4961 108.43 65.1445 107.406C64.8008 106.383 64.6289 105.227 64.6289 103.938V103C64.6289 101.711 64.8008 100.559 65.1445 99.543C65.4883 98.5195 65.9727 97.6484 66.5977 96.9297C67.2305 96.2031 67.9766 95.6523 68.8359 95.2773C69.7031 94.8945 70.6602 94.7031 71.707 94.7031C72.7617 94.7031 73.7227 94.8945 74.5898 95.2773C75.457 95.6523 76.2031 96.2031 76.8281 96.9297C77.4531 97.6484 77.9336 98.5195 78.2695 99.543C78.6133 100.559 78.7852 101.711 78.7852 103ZM75.8438 103.938V102.977C75.8438 102.023 75.75 101.184 75.5625 100.457C75.3828 99.7227 75.1133 99.1094 74.7539 98.6172C74.4023 98.1172 73.9688 97.7422 73.4531 97.4922C72.9375 97.2344 72.3555 97.1055 71.707 97.1055C71.0586 97.1055 70.4805 97.2344 69.9727 97.4922C69.4648 97.7422 69.0312 98.1172 68.6719 98.6172C68.3203 99.1094 68.0508 99.7227 67.8633 100.457C67.6758 101.184 67.582 102.023 67.582 102.977V103.938C67.582 104.891 67.6758 105.734 67.8633 106.469C68.0508 107.203 68.3242 107.824 68.6836 108.332C69.0508 108.832 69.4883 109.211 69.9961 109.469C70.5039 109.719 71.082 109.844 71.7305 109.844C72.3867 109.844 72.9688 109.719 73.4766 109.469C73.9844 109.211 74.4141 108.832 74.7656 108.332C75.1172 107.824 75.3828 107.203 75.5625 106.469C75.75 105.734 75.8438 104.891 75.8438 103.938ZM91.8047 106.445H94.7344C94.6406 107.562 94.3281 108.559 93.7969 109.434C93.2656 110.301 92.5195 110.984 91.5586 111.484C90.5977 111.984 89.4297 112.234 88.0547 112.234C87 112.234 86.0508 112.047 85.207 111.672C84.3633 111.289 83.6406 110.75 83.0391 110.055C82.4375 109.352 81.9766 108.504 81.6562 107.512C81.3438 106.52 81.1875 105.41 81.1875 104.184V102.766C81.1875 101.539 81.3477 100.43 81.668 99.4375C81.9961 98.4453 82.4648 97.5977 83.0742 96.8945C83.6836 96.1836 84.4141 95.6406 85.2656 95.2656C86.125 94.8906 87.0898 94.7031 88.1602 94.7031C89.5195 94.7031 90.668 94.9531 91.6055 95.4531C92.543 95.9531 93.2695 96.6445 93.7852 97.5273C94.3086 98.4102 94.6289 99.4219 94.7461 100.562H91.8164C91.7383 99.8281 91.5664 99.1992 91.3008 98.6758C91.043 98.1523 90.6602 97.7539 90.1523 97.4805C89.6445 97.1992 88.9805 97.0586 88.1602 97.0586C87.4883 97.0586 86.9023 97.1836 86.4023 97.4336C85.9023 97.6836 85.4844 98.0508 85.1484 98.5352C84.8125 99.0195 84.5586 99.6172 84.3867 100.328C84.2227 101.031 84.1406 101.836 84.1406 102.742V104.184C84.1406 105.043 84.2148 105.824 84.3633 106.527C84.5195 107.223 84.7539 107.82 85.0664 108.32C85.3867 108.82 85.793 109.207 86.2852 109.48C86.7773 109.754 87.3672 109.891 88.0547 109.891C88.8906 109.891 89.5664 109.758 90.082 109.492C90.6055 109.227 91 108.84 91.2656 108.332C91.5391 107.816 91.7188 107.188 91.8047 106.445ZM108.574 109.668V112H99.5156V109.668H108.574ZM100.348 94.9375V112H97.4062V94.9375H100.348ZM107.391 102.062V104.359H99.5156V102.062H107.391ZM108.516 94.9375V97.2812H99.5156V94.9375H108.516ZM119.953 107.605C119.953 107.254 119.898 106.941 119.789 106.668C119.688 106.395 119.504 106.145 119.238 105.918C118.973 105.691 118.598 105.473 118.113 105.262C117.637 105.043 117.027 104.82 116.285 104.594C115.473 104.344 114.723 104.066 114.035 103.762C113.355 103.449 112.762 103.09 112.254 102.684C111.746 102.27 111.352 101.797 111.07 101.266C110.789 100.727 110.648 100.105 110.648 99.4023C110.648 98.707 110.793 98.0742 111.082 97.5039C111.379 96.9336 111.797 96.4414 112.336 96.0273C112.883 95.6055 113.527 95.2812 114.27 95.0547C115.012 94.8203 115.832 94.7031 116.73 94.7031C117.996 94.7031 119.086 94.9375 120 95.4062C120.922 95.875 121.629 96.5039 122.121 97.293C122.621 98.082 122.871 98.9531 122.871 99.9062H119.953C119.953 99.3438 119.832 98.8477 119.59 98.418C119.355 97.9805 118.996 97.6367 118.512 97.3867C118.035 97.1367 117.43 97.0117 116.695 97.0117C116 97.0117 115.422 97.1172 114.961 97.3281C114.5 97.5391 114.156 97.8242 113.93 98.1836C113.703 98.543 113.59 98.9492 113.59 99.4023C113.59 99.7227 113.664 100.016 113.812 100.281C113.961 100.539 114.188 100.781 114.492 101.008C114.797 101.227 115.18 101.434 115.641 101.629C116.102 101.824 116.645 102.012 117.27 102.191C118.215 102.473 119.039 102.785 119.742 103.129C120.445 103.465 121.031 103.848 121.5 104.277C121.969 104.707 122.32 105.195 122.555 105.742C122.789 106.281 122.906 106.895 122.906 107.582C122.906 108.301 122.762 108.949 122.473 109.527C122.184 110.098 121.77 110.586 121.23 110.992C120.699 111.391 120.059 111.699 119.309 111.918C118.566 112.129 117.738 112.234 116.824 112.234C116.004 112.234 115.195 112.125 114.398 111.906C113.609 111.688 112.891 111.355 112.242 110.91C111.594 110.457 111.078 109.895 110.695 109.223C110.312 108.543 110.121 107.75 110.121 106.844H113.062C113.062 107.398 113.156 107.871 113.344 108.262C113.539 108.652 113.809 108.973 114.152 109.223C114.496 109.465 114.895 109.645 115.348 109.762C115.809 109.879 116.301 109.938 116.824 109.938C117.512 109.938 118.086 109.84 118.547 109.645C119.016 109.449 119.367 109.176 119.602 108.824C119.836 108.473 119.953 108.066 119.953 107.605ZM134.484 107.605C134.484 107.254 134.43 106.941 134.32 106.668C134.219 106.395 134.035 106.145 133.77 105.918C133.504 105.691 133.129 105.473 132.645 105.262C132.168 105.043 131.559 104.82 130.816 104.594C130.004 104.344 129.254 104.066 128.566 103.762C127.887 103.449 127.293 103.09 126.785 102.684C126.277 102.27 125.883 101.797 125.602 101.266C125.32 100.727 125.18 100.105 125.18 99.4023C125.18 98.707 125.324 98.0742 125.613 97.5039C125.91 96.9336 126.328 96.4414 126.867 96.0273C127.414 95.6055 128.059 95.2812 128.801 95.0547C129.543 94.8203 130.363 94.7031 131.262 94.7031C132.527 94.7031 133.617 94.9375 134.531 95.4062C135.453 95.875 136.16 96.5039 136.652 97.293C137.152 98.082 137.402 98.9531 137.402 99.9062H134.484C134.484 99.3438 134.363 98.8477 134.121 98.418C133.887 97.9805 133.527 97.6367 133.043 97.3867C132.566 97.1367 131.961 97.0117 131.227 97.0117C130.531 97.0117 129.953 97.1172 129.492 97.3281C129.031 97.5391 128.688 97.8242 128.461 98.1836C128.234 98.543 128.121 98.9492 128.121 99.4023C128.121 99.7227 128.195 100.016 128.344 100.281C128.492 100.539 128.719 100.781 129.023 101.008C129.328 101.227 129.711 101.434 130.172 101.629C130.633 101.824 131.176 102.012 131.801 102.191C132.746 102.473 133.57 102.785 134.273 103.129C134.977 103.465 135.562 103.848 136.031 104.277C136.5 104.707 136.852 105.195 137.086 105.742C137.32 106.281 137.438 106.895 137.438 107.582C137.438 108.301 137.293 108.949 137.004 109.527C136.715 110.098 136.301 110.586 135.762 110.992C135.23 111.391 134.59 111.699 133.84 111.918C133.098 112.129 132.27 112.234 131.355 112.234C130.535 112.234 129.727 112.125 128.93 111.906C128.141 111.688 127.422 111.355 126.773 110.91C126.125 110.457 125.609 109.895 125.227 109.223C124.844 108.543 124.652 107.75 124.652 106.844H127.594C127.594 107.398 127.688 107.871 127.875 108.262C128.07 108.652 128.34 108.973 128.684 109.223C129.027 109.465 129.426 109.645 129.879 109.762C130.34 109.879 130.832 109.938 131.355 109.938C132.043 109.938 132.617 109.84 133.078 109.645C133.547 109.449 133.898 109.176 134.133 108.824C134.367 108.473 134.484 108.066 134.484 107.605Z" fill="white"/>
</svg>
