<svg width="377" height="242" viewBox="0 0 377 242" fill="none" xmlns="http://www.w3.org/2000/svg">
<rect width="377" height="242" fill="#173364"/>
<path d="M136.845 86.0669C134.795 88.3429 126.694 97.7813 126.694 104.308C126.694 108.492 130.324 112.341 135.366 112.341C140.274 112.341 144.005 108.525 144.005 104.308C144.005 100.024 140.542 96.1413 136.072 96.1413C134.828 96.1413 133.518 96.4425 132.173 97.1119C134.123 93.6645 137.484 89.5812 138.963 88.0082L136.845 86.0669ZM140.879 104.308C140.879 107.119 138.593 109.629 135.366 109.629C132.341 109.629 129.854 107.253 129.854 104.308C129.854 101.095 132.072 98.618 135.299 98.618C138.66 98.618 140.879 101.262 140.879 104.308Z" fill="white"/>
<path d="M156.45 104.877L156.786 102.4H148.114L147.778 104.877H156.45Z" fill="white"/>
<path d="M160.09 108.96C161.233 110.366 164.56 112.374 168.123 112.374C173.535 112.374 176.661 108.893 176.661 105.312C176.661 96.3421 164.964 97.8147 164.964 92.3592C164.964 89.9829 166.98 88.8784 169.165 88.8784C171.216 88.8784 172.963 89.849 174.14 90.987L175.82 88.6441C175.115 87.9078 172.594 86 169.132 86C165.199 86 161.602 88.2759 161.602 92.5935C161.602 100.325 173.199 98.7184 173.199 105.345C173.199 107.856 171.249 109.462 168.392 109.462C165.132 109.462 162.947 107.822 161.838 106.617L160.09 108.96Z" fill="white"/>
<path d="M189.413 111.872V89.4139H196.841V86.569H178.758V89.4139H186.186V111.872H189.413Z" fill="white"/>
<path d="M215.57 111.838V108.994L203.84 109.027V99.7894H212.411V96.9111H203.84V89.4139H214.495V86.569H200.613V111.838H215.57Z" fill="white"/>
<path d="M223.206 111.872V102.266H225.29C231.979 102.266 235.071 98.8858 235.071 94.0327C235.071 88.3094 230.433 86.5355 225.256 86.5355H219.979V111.872H223.206ZM223.206 99.4213V89.4139H226.097C229.357 89.4139 231.71 90.9535 231.71 94.0662C231.71 97.3462 229.323 99.4213 225.223 99.4213H223.206Z" fill="white"/>
<path d="M237.26 108.96C238.403 110.366 241.731 112.374 245.294 112.374C250.705 112.374 253.831 108.893 253.831 105.312C253.831 96.3421 242.134 97.8147 242.134 92.3592C242.134 89.9829 244.151 88.8784 246.335 88.8784C248.386 88.8784 250.134 89.849 251.31 90.987L252.991 88.6441C252.285 87.9078 249.764 86 246.302 86C242.369 86 238.773 88.2759 238.773 92.5935C238.773 100.325 250.369 98.7184 250.369 105.345C250.369 107.856 248.419 109.462 245.562 109.462C242.302 109.462 240.117 107.822 239.008 106.617L237.26 108.96Z" fill="white"/>
<path d="M117.227 156.498V146.892H119.311C126 146.892 129.092 143.512 129.092 138.659C129.092 132.935 124.453 131.162 119.277 131.162H114V156.498H117.227ZM117.227 144.047V134.04H120.117C123.378 134.04 125.731 135.58 125.731 138.692C125.731 141.972 123.344 144.047 119.244 144.047H117.227Z" fill="white"/>
<path d="M152.255 156.498L141.197 146.357C145.633 145.754 148.524 142.742 148.524 138.659C148.524 132.467 142.877 131.162 138.508 131.162H133.432V156.498H136.659V146.524H137.634L147.717 156.498H152.255ZM136.659 143.679V134.04H139.146C142.911 134.04 145.163 135.513 145.163 138.692C145.163 141.571 142.844 143.679 138.474 143.679H136.659Z" fill="white"/>
<path d="M180.021 143.947C180.021 136.282 173.971 130.659 166.442 130.659C158.778 130.659 152.761 136.55 152.761 143.846C152.761 151.109 158.778 157 166.442 157C173.803 157 180.021 151.176 180.021 143.947ZM176.593 143.913C176.593 149.67 172.055 154.122 166.206 154.122C160.627 154.122 156.156 149.202 156.156 143.713C156.156 137.922 160.728 133.571 166.442 133.571C171.954 133.571 176.593 137.922 176.593 143.913Z" fill="white"/>
<path d="M204.231 151.645C202.887 152.883 200.433 154.122 196.971 154.122C191.324 154.122 186.618 149.704 186.618 144.014C186.618 137.889 190.82 133.571 196.433 133.571C199.895 133.571 202.214 134.709 203.828 136.316L205.609 134.073C204.164 132.634 201.105 130.659 196.702 130.659C188.837 130.659 183.19 136.617 183.19 143.846C183.19 151.042 189.038 157 196.937 157C200.466 157 203.391 155.862 205.71 153.753L204.231 151.645Z" fill="white"/>
<path d="M225.1 156.464V153.62L213.37 153.653V144.415H221.941V141.537H213.37V134.04H224.025V131.195H210.143V156.464H225.1Z" fill="white"/>
<path d="M227.358 153.586C228.501 154.992 231.829 157 235.391 157C240.803 157 243.929 153.519 243.929 149.938C243.929 140.968 232.232 142.441 232.232 136.985C232.232 134.609 234.249 133.504 236.433 133.504C238.484 133.504 240.232 134.475 241.408 135.613L243.089 133.27C242.383 132.534 239.862 130.626 236.4 130.626C232.467 130.626 228.871 132.902 228.871 137.22C228.871 144.951 240.467 143.344 240.467 149.971C240.467 152.482 238.517 154.088 235.66 154.088C232.4 154.088 230.215 152.448 229.106 151.243L227.358 153.586Z" fill="white"/>
<path d="M246.429 153.586C247.572 154.992 250.9 157 254.462 157C259.874 157 263 153.519 263 149.938C263 140.968 251.303 142.441 251.303 136.985C251.303 134.609 253.32 133.504 255.504 133.504C257.555 133.504 259.303 134.475 260.479 135.613L262.16 133.27C261.454 132.534 258.933 130.626 255.471 130.626C251.538 130.626 247.942 132.902 247.942 137.22C247.942 144.951 259.538 143.344 259.538 149.971C259.538 152.482 257.588 154.088 254.731 154.088C251.471 154.088 249.286 152.448 248.177 151.243L246.429 153.586Z" fill="white"/>
<rect y="234" width="94.25" height="8" fill="#52B6DA"/>
<rect x="94.25" y="234" width="94.25" height="8" fill="#35BDA5"/>
<rect x="188.5" y="234" width="94.25" height="8" fill="#46BE67"/>
<rect x="282.75" y="234" width="94.25" height="8" fill="#65B157"/>
</svg>
