<svg width="377" height="242" viewBox="0 0 377 242" fill="none" xmlns="http://www.w3.org/2000/svg">
<rect width="377" height="242" fill="#173364"/>
<path d="M129.41 156.493C123.979 156.493 119.679 152.194 119.679 147.215C119.679 142.01 123.979 137.936 129.41 137.936C134.842 137.936 139.141 142.01 139.141 147.215C139.141 152.42 134.615 156.493 129.41 156.493ZM129.41 140.652C125.789 140.652 122.847 143.367 122.847 147.215C122.847 150.609 125.789 154.004 129.184 154.004C132.805 154.004 135.747 151.062 135.747 147.441C135.973 143.367 133.031 140.652 129.41 140.652Z" fill="white"/>
<path d="M141.857 156.041V138.162H146.157C149.778 138.162 152.72 139.294 152.72 142.462C152.72 144.725 151.136 145.857 150.004 146.309C151.815 146.762 154.078 147.893 154.078 150.835C154.078 153.778 151.815 155.814 146.836 155.814H141.857V156.041ZM146.383 145.404C148.42 145.404 149.551 144.725 149.551 143.141C149.551 141.557 148.42 140.878 146.609 140.878H144.799V145.178L146.383 145.404ZM147.515 153.325C149.778 153.325 150.909 152.193 150.909 150.609C150.909 149.025 149.551 147.893 147.515 147.893H145.025V153.325H147.515Z" fill="white"/>
<path d="M153.172 159.662C156.114 158.757 157.02 157.625 157.02 153.778V138.389H159.962V154.004C159.962 158.983 158.604 160.567 154.304 162.378L153.172 159.662Z" fill="white"/>
<path d="M163.809 156.041V138.389H173.993V141.104H166.751V145.178H172.635V147.894H166.751V153.325H174.898V156.041H163.809Z" fill="white"/>
<path d="M192.098 154.004C190.514 155.588 188.251 156.267 185.761 156.267C180.104 156.267 175.804 151.967 175.804 146.988C175.804 142.009 179.651 137.709 185.309 137.709C188.93 137.709 191.193 139.52 191.872 140.199L190.288 142.236C188.93 141.104 187.119 140.425 185.309 140.425C181.235 140.425 178.972 143.594 178.972 146.988C178.972 150.609 181.688 153.778 185.761 153.778C188.024 153.778 189.835 152.872 190.514 152.193L192.098 154.004Z" fill="white"/>
<path d="M198.887 156.041V140.878H193.682V138.389H207.261V141.104H202.056V156.267L198.887 156.041Z" fill="white"/>
<path d="M209.298 156.041V138.162H212.24V156.041H209.298Z" fill="white"/>
<path d="M213.824 138.162H217.218L222.424 150.157C222.424 150.383 222.65 150.609 222.65 151.062C222.65 150.609 222.65 150.383 222.876 150.157L227.855 138.162H231.25L222.65 156.946L213.824 138.162Z" fill="white"/>
<path d="M232.834 156.041V138.389H243.244V141.104H236.002V145.178H241.886V147.894H236.002V153.325H244.149V156.041H232.834Z" fill="white"/>
<path d="M247.091 151.741C247.996 152.646 249.581 153.778 251.617 153.778C253.428 153.778 254.559 152.873 254.559 151.515C254.559 149.478 252.975 148.799 251.165 147.894C248.902 146.762 246.639 145.404 246.639 142.689C246.639 139.52 249.581 137.936 252.296 137.936C255.012 137.936 256.823 139.52 257.049 139.973L255.691 142.236C254.786 141.331 253.654 140.652 252.296 140.652C250.939 140.652 249.581 141.331 249.581 142.689C249.581 146.083 257.502 145.178 257.502 151.515C257.502 154.23 255.238 156.72 251.165 156.72C248.675 156.72 246.186 155.136 245.281 154.23L247.091 151.741Z" fill="white"/>
<path d="M144.347 107.384V101.273H162.678C162.452 117.794 152.268 124.583 141.857 124.583C128.958 124.583 119 114.852 119 102.631C119 90.1842 128.958 80.2266 141.857 80.2266C152.041 80.2266 157.925 85.658 158.152 85.8843L154.531 91.3158C154.304 90.8632 149.778 86.7896 141.857 86.7896C132.579 86.7896 126.468 93.8052 126.468 102.631C126.468 110.1 132.352 118.02 141.857 118.02C149.099 118.02 154.531 113.494 155.21 107.384H144.347Z" fill="white"/>
<path d="M203.188 118.926C199.34 122.547 194.361 124.583 188.251 124.583C174.446 124.583 164.715 114.399 164.715 102.405C164.715 90.4105 173.994 80.2266 187.572 80.2266C196.172 80.2266 201.603 84.5265 202.961 86.3369L198.888 91.3158C195.946 88.3737 191.646 86.7896 187.12 86.7896C177.615 86.7896 171.957 94.0315 171.957 102.179C171.957 111.005 178.746 118.247 188.251 118.247C193.683 118.247 197.982 115.984 199.567 114.399L203.188 118.926Z" fill="white"/>
<path d="M247.092 123.678L245.055 102.631C245.055 101.726 244.829 101.047 245.055 100.368C244.829 101.047 244.376 101.726 243.923 102.631L230.119 125.488L216.314 102.631C215.861 101.726 215.408 101.047 215.182 100.368C215.408 101.047 215.182 101.726 215.182 102.631L213.145 123.678H205.451L211.108 80L229.666 110.778C230.119 111.457 230.345 111.91 230.345 112.362C230.345 111.91 230.571 111.457 231.024 110.778L249.581 80L255.239 123.678H247.092Z" fill="white"/>
<rect y="234" width="94.25" height="8" fill="#FE7C24"/>
<rect x="94.25" y="234" width="94.25" height="8" fill="#FD9D24"/>
<rect x="188.5" y="234" width="94.25" height="8" fill="#F5B54E"/>
<rect x="282.75" y="234" width="94.25" height="8" fill="#FFC30B"/>
</svg>
