<svg width="171" height="43" viewBox="0 0 171 43" fill="none" xmlns="http://www.w3.org/2000/svg">
<path d="M35.789 2.1167H10.4888V27.6626H35.789V2.1167Z" fill="white"/>
<path d="M0 8.00179V22.214C0 24.2276 0.792189 26.1587 2.2023 27.5825C3.6124 29.0063 5.52492 29.8062 7.51911 29.8062H15.8877L27.3774 42.5441C27.5645 42.7519 27.8095 42.8977 28.0802 42.9622C28.3508 43.0267 28.6345 43.0069 28.8939 42.9055C29.1532 42.804 29.376 42.6257 29.5331 42.3939C29.6901 42.1621 29.7739 41.8877 29.7735 41.6069V29.8062H38.5479C40.542 29.8062 42.4546 29.0063 43.8647 27.5825C45.2748 26.1587 46.067 24.2276 46.067 22.214V8.00179C46.067 7.00478 45.8725 6.01753 45.4946 5.09641C45.1167 4.17529 44.5629 3.33834 43.8647 2.63335C43.1665 1.92836 42.3376 1.36912 41.4253 0.987584C40.513 0.606044 39.5353 0.409668 38.5479 0.409668H7.51911C5.52492 0.409668 3.6124 1.20955 2.2023 2.63335C0.792189 4.05715 0 5.98823 0 8.00179H0ZM15.9096 15.4862L22.0439 3.62762L28.6662 3.6324L22.5397 15.4862L29.3819 26.5921H22.754L15.9096 15.4862Z" fill="#0065AC"/>
<path d="M59.4406 33.5945L59.4755 42.4802H57.1255L57.144 28.0459L67.4684 37.6567L67.4323 28.4378H69.7836L69.7651 42.9998L59.4406 33.5945Z" fill="#0065AC"/>
<path d="M81.0392 41.5155C79.9071 42.3563 78.5304 42.7935 77.1254 42.7582C74.0576 42.7582 72.0002 40.8281 72.0002 37.8608C71.9633 37.2028 72.0626 36.5442 72.2918 35.927C72.521 35.3099 72.8751 34.7478 73.3314 34.2765C73.7878 33.8052 74.3364 33.4351 74.9423 33.1898C75.5482 32.9445 76.198 32.8294 76.8504 32.8519C79.8627 32.8519 81.3688 35.1156 81.3688 37.7127V38.6217H74.2448C74.3739 39.827 75.4579 40.9398 77.4937 40.9398C78.5327 40.9517 79.5444 40.6041 80.3606 39.9547L81.0392 41.5155ZM79.1101 36.8597C79.1146 36.5556 79.0581 36.2538 78.9438 35.9723C78.8295 35.6909 78.6599 35.4358 78.4453 35.2225C78.2306 35.0091 77.9753 34.842 77.6948 34.7311C77.4143 34.6202 77.1145 34.5679 76.8134 34.5773C76.1794 34.5546 75.5609 34.7788 75.0861 35.2037C74.6113 35.6285 74.3164 36.2215 74.2624 36.8597H79.1101Z" fill="#0065AC"/>
<path d="M84.1449 42.4803V34.9126H82.3999V33.1311H84.1449V29.9214H86.3133V33.1306H88.5914V34.9121H86.3137V42.4795L84.1449 42.4803Z" fill="#0065AC"/>
<path d="M98.3274 42.907L95.9391 37.5457L93.5318 42.907H92.6871L88.8662 33.1133H91.162L93.1282 38.197C93.2148 38.4276 93.2885 38.6629 93.3489 38.9018C93.4207 38.6496 93.5069 38.4018 93.6071 38.1596L95.7588 33.4105H96.1301L98.2977 38.1974C98.3937 38.4196 98.4734 38.6486 98.5361 38.8826C98.5943 38.6408 98.6745 38.4048 98.7758 38.1779L100.725 33.1163H103.003L99.1816 42.9101L98.3274 42.907Z" fill="#0065AC"/>
<path d="M108.65 42.7588C107.519 42.7322 106.433 42.3113 105.574 41.5676C104.716 40.8239 104.139 39.8032 103.941 38.6788C103.743 37.5544 103.937 36.3955 104.489 35.3989C105.042 34.4023 105.919 33.6294 106.971 33.2114C108.024 32.7934 109.187 32.756 110.264 33.1057C111.341 33.4553 112.264 34.1704 112.878 35.1295C113.492 36.0886 113.758 37.2327 113.632 38.3676C113.505 39.5024 112.994 40.5581 112.184 41.3553C111.717 41.8146 111.164 42.1753 110.557 42.4163C109.95 42.6573 109.302 42.7737 108.65 42.7588ZM111.368 37.8241C111.404 37.4387 111.363 37.05 111.246 36.6812C111.13 36.3124 110.941 35.9712 110.69 35.6783C110.439 35.3853 110.133 35.1466 109.788 34.9765C109.444 34.8065 109.069 34.7086 108.686 34.6887C107.088 34.6887 105.894 35.9488 105.894 37.8802C105.873 38.2629 105.928 38.6459 106.054 39.0073C106.181 39.3686 106.377 39.7011 106.632 39.9856C106.886 40.27 107.194 40.5008 107.537 40.6647C107.88 40.8286 108.252 40.9223 108.631 40.9404C110.285 40.9404 111.368 39.7351 111.368 37.8237L111.368 37.8241Z" fill="#0065AC"/>
<path d="M115.519 42.48V33.113H117.686V34.5603C117.888 34.1141 118.624 32.8527 119.709 32.8527C120.292 32.8468 120.866 33.0094 121.361 33.3215L120.572 35.3611C120.22 35.0826 119.788 34.9268 119.341 34.917C118.294 34.917 117.687 36.1037 117.687 37.2716V42.4857L115.519 42.48Z" fill="#0065AC"/>
<path d="M128.288 42.4803L124.816 38.2699V42.4803H122.649V27.2695H124.816V36.8234L127.811 33.1136H130.513L126.707 37.4152L131.245 42.4803H128.288Z" fill="#0065AC"/>
<path d="M146.102 42.4794V36.3963H139.521V42.4794H137.169V28.437H139.521V34.242H146.097V28.437H148.449V42.4794H146.102Z" fill="#0065AC"/>
<path d="M157.251 33.1133H159.419V41.4597C158.255 42.3945 156.788 42.8577 155.304 42.7589C152.86 42.7589 151.133 41.5536 151.133 39.1229V33.1133H153.302V38.585C153.302 40.4399 154.349 40.9405 155.524 40.9405C156.137 40.9622 156.742 40.787 157.25 40.4399L157.251 33.1133Z" fill="#0065AC"/>
<path d="M161.733 27.2695H163.9V33.6881C164.726 33.1458 165.689 32.8559 166.674 32.8529C169.468 32.8529 170.919 35.2279 170.919 37.7316C170.919 41.0121 168.438 42.7592 165.702 42.7592C164.296 42.7605 162.918 42.3549 161.733 41.5904L161.733 27.2695ZM163.9 40.4968C164.438 40.8025 165.048 40.9559 165.665 40.9408C166.073 40.96 166.48 40.8901 166.858 40.7361C167.237 40.582 167.578 40.3474 167.859 40.0481C168.14 39.7489 168.353 39.3921 168.485 39.002C168.617 38.6119 168.664 38.1977 168.622 37.7876C168.622 36.1547 167.778 34.6887 166.198 34.6887C165.351 34.7136 164.539 35.035 163.901 35.5977L163.9 40.4968Z" fill="#0065AC"/>
<path d="M76.4099 19.9269L75.4456 10.2596C75.3813 9.90344 75.3813 9.53853 75.4456 9.18241C75.2887 9.54769 75.1025 9.89937 74.8887 10.2339L68.6133 20.6703L62.34 10.2344C62.1261 9.89984 61.9399 9.54816 61.7831 9.18285C61.8469 9.53901 61.8469 9.90383 61.7831 10.26L60.8166 19.9269H57.3374L59.8514 0L68.2819 14.0519C68.4349 14.2752 68.5388 14.529 68.5866 14.7962H68.6124C68.66 14.5244 68.7735 14.2687 68.9429 14.0519L77.3751 0L79.8891 19.9269H76.4099Z" fill="#0CADD9"/>
<path d="M82.4834 2.79803C82.4834 2.41518 82.5958 2.04093 82.8065 1.7226C83.0171 1.40427 83.3166 1.15616 83.6669 1.00965C84.0172 0.863143 84.4026 0.82481 84.7745 0.8995C85.1464 0.97419 85.488 1.15855 85.7561 1.42927C86.0242 1.69998 86.2068 2.04489 86.2808 2.42039C86.3548 2.79588 86.3168 3.18509 86.1717 3.5388C86.0266 3.89251 85.7809 4.19482 85.4656 4.40752C85.1503 4.62022 84.7797 4.73375 84.4005 4.73375C83.8921 4.73375 83.4044 4.52981 83.0449 4.16679C82.6854 3.80377 82.4834 3.31141 82.4834 2.79803ZM82.8896 19.9284V6.98015H85.8869V19.9284H82.8896Z" fill="#0CADD9"/>
<path d="M98.0796 18.773C97.1553 19.7131 95.9115 20.2633 94.6004 20.312C91.5528 20.312 88.5806 17.7224 88.5806 13.4698C88.5806 9.00747 91.9337 6.62291 95.6409 6.62291C97.5388 6.56267 99.4173 7.0237 101.076 7.95684V20.5423C101.076 25.4396 97.8761 26.8757 94.9047 26.8757C92.8684 26.9061 90.8641 26.3628 89.1168 25.3067L90.3608 22.9999C91.6836 23.8926 93.2404 24.3659 94.8315 24.359C96.558 24.359 98.0805 23.5378 98.0805 20.9481L98.0796 18.773ZM98.0796 9.64446C97.3468 9.30115 96.5507 9.11714 95.7429 9.10437C93.6597 9.10437 91.7301 10.3614 91.7301 13.4646C91.7301 15.3113 92.7715 17.7762 95.1581 17.7762C95.737 17.79 96.3096 17.6533 96.8212 17.3794C97.3328 17.1055 97.7661 16.7035 98.0796 16.212V9.64446Z" fill="#0CADD9"/>
<path d="M104.353 19.9268V6.97722H107.349V8.97594C107.628 8.36112 108.649 6.61658 110.143 6.61658C110.95 6.60591 111.743 6.82827 112.429 7.25747L111.337 10.0787C110.851 9.69305 110.254 9.47701 109.636 9.46303C108.188 9.46303 107.349 11.1042 107.349 12.7218V19.9268H104.353Z" fill="#0CADD9"/>
<path d="M124.848 18.5682C123.207 19.7723 121.213 20.3863 119.186 20.3123C114.995 20.3123 113.218 17.9016 113.218 15.7196C113.218 13.4636 115.097 11.4888 118.246 11.4888C119.586 11.4253 120.905 11.8335 121.98 12.6437V11.1325C121.98 9.90066 121.319 9.13115 119.161 9.13115C117.93 9.13741 116.713 9.3904 115.579 9.87545L114.666 7.67034C116.175 6.9541 117.826 6.59449 119.493 6.61883C123.733 6.6184 124.852 8.64406 124.852 11.7738L124.848 18.5682ZM121.976 14.9531C121.115 14.244 120.04 13.8546 118.929 13.8499C117.227 13.8499 116.338 14.8492 116.338 15.8512C116.338 16.8532 117.227 17.9021 119.207 17.9021C120.173 17.9123 121.126 17.6739 121.976 17.2095V14.9531Z" fill="#0CADD9"/>
<path d="M129.217 19.9271V9.46679H126.803V7.00271H129.217V2.56641H132.213V7.00271H135.362V9.46679H132.215V19.9271H129.217Z" fill="#0CADD9"/>
<path d="M137.094 2.79803C137.094 2.41518 137.206 2.04093 137.417 1.7226C137.627 1.40427 137.927 1.15616 138.277 1.00965C138.628 0.863143 139.013 0.82481 139.385 0.8995C139.757 0.97419 140.098 1.15855 140.366 1.42927C140.635 1.69998 140.817 2.04489 140.891 2.42039C140.965 2.79588 140.927 3.18509 140.782 3.5388C140.637 3.89251 140.391 4.19482 140.076 4.40752C139.761 4.62022 139.39 4.73375 139.011 4.73375C138.759 4.73375 138.51 4.68368 138.277 4.5864C138.045 4.48912 137.833 4.34654 137.655 4.16679C137.477 3.98704 137.336 3.77365 137.24 3.5388C137.143 3.30395 137.094 3.05223 137.094 2.79803ZM137.5 19.9271V6.97884H140.497V19.9284L137.5 19.9271Z" fill="#0CADD9"/>
<path d="M150.072 20.3119C148.508 20.2756 147.004 19.6937 145.816 18.6651C144.629 17.6365 143.83 16.2245 143.556 14.6689C143.282 13.1133 143.55 11.5099 144.314 10.131C145.078 8.75214 146.291 7.68272 147.747 7.10433C149.204 6.52594 150.813 6.47423 152.303 6.95798C153.792 7.44173 155.07 8.43113 155.92 9.75818C156.769 11.0852 157.137 12.6682 156.962 14.2382C156.786 15.8082 156.078 17.2686 154.958 18.3714C154.312 19.0065 153.547 19.5052 152.708 19.8383C151.87 20.1715 150.973 20.3325 150.072 20.3119ZM153.83 13.4902C153.83 10.9005 152.154 9.15598 150.122 9.15598C147.913 9.15598 146.263 10.9001 146.263 13.5671C146.234 14.0963 146.309 14.6259 146.484 15.1256C146.659 15.6252 146.93 16.085 147.282 16.4783C147.634 16.8717 148.059 17.191 148.534 17.4176C149.008 17.6443 149.522 17.774 150.046 17.7992C152.331 17.7992 153.83 16.1328 153.83 13.4906V13.4902Z" fill="#0CADD9"/>
<path d="M168.003 19.9264V12.8753C168.003 10.6184 167.597 9.28538 165.515 9.28538C164.378 9.37213 163.32 9.90585 162.568 10.7718V19.9264H159.572V6.97685H162.568V8.31078C163.687 7.25443 165.152 6.65118 166.683 6.61621C169.477 6.61621 171 8.02705 171 11.2841V19.9264H168.003Z" fill="#0CADD9"/>
</svg>
