<svg width="417" height="417" viewBox="0 0 417 417" fill="none" xmlns="http://www.w3.org/2000/svg">
<mask id="mask0_42_19" style="mask-type:alpha" maskUnits="userSpaceOnUse" x="0" y="0" width="417" height="417">
<path d="M208.5 417C323.651 417 417 323.651 417 208.5C417 93.3486 323.651 0 208.5 0C93.3486 0 0 93.3486 0 208.5C0 323.651 93.3486 417 208.5 417Z" fill="#D9D9D9"/>
</mask>
<g mask="url(#mask0_42_19)">
<path d="M104.221 27.0056C72.1208 45.6558 45.5092 72.4454 27.0735 104.67C8.63778 136.894 -0.969366 173.412 -0.777956 210.536L138.48 209.818C138.415 197.196 141.682 184.78 147.95 173.824C154.218 162.867 163.266 153.759 174.18 147.418L147.95 82.4462L104.221 27.0056Z" fill="url(#paint0_linear_42_19)"/>
<path d="M-1.00024 208.501C-1.00024 245.626 8.79507 282.094 27.3967 314.223C45.9983 346.352 72.7476 373.004 104.944 391.488L174.281 270.717C163.334 264.432 154.239 255.37 147.915 244.447C141.59 233.523 138.26 221.124 138.26 208.501L67.9995 200L-1.00024 208.501Z" fill="url(#paint1_linear_42_19)"/>
<path d="M103.181 391.097C135.332 409.66 171.812 419.411 208.937 419.366C246.062 419.321 282.518 409.481 314.624 390.84L244.701 270.407C233.785 276.745 221.39 280.09 208.768 280.106C196.145 280.121 183.742 276.806 172.811 270.495L129.18 324.863L103.181 391.097Z" fill="url(#paint2_linear_42_19)"/>
<path d="M313.519 391.291C345.67 372.729 372.355 346.012 390.878 313.838C409.402 281.664 419.109 245.173 419.019 208.047L279.759 208.386C279.79 221.008 276.489 233.415 270.191 244.355C263.893 255.294 254.821 264.377 243.889 270.689L270.191 339.059L313.519 391.291Z" fill="url(#paint3_linear_42_19)"/>
<path d="M418.281 208.987C418.281 171.862 408.486 135.394 389.884 103.265C371.282 71.1365 344.533 44.4844 312.337 26L243 146.771C253.947 153.056 263.042 162.118 269.366 173.042C275.691 183.965 279.021 196.365 279.021 208.987L348.781 221.986L418.281 208.987Z" fill="url(#paint4_linear_42_19)"/>
<path d="M314.112 27.4935C281.961 8.93091 245.481 -0.820078 208.356 -0.774991C171.231 -0.729903 134.775 9.10967 102.668 27.7503L146.112 83.2236L172.591 148.184C183.507 141.846 195.902 138.5 208.525 138.485C221.147 138.47 233.551 141.785 244.482 148.096L293.112 99.2236L314.112 27.4935Z" fill="#ED5235"/>
</g>
<defs>
<linearGradient id="paint0_linear_42_19" x1="73.2191" y1="197.946" x2="156.86" y2="97.7817" gradientUnits="userSpaceOnUse">
<stop stop-color="#DC478D"/>
<stop offset="1" stop-color="#DE046A"/>
</linearGradient>
<linearGradient id="paint1_linear_42_19" x1="129" y1="331.5" x2="47.9995" y2="200.5" gradientUnits="userSpaceOnUse">
<stop stop-color="#F89F0F"/>
<stop offset="1" stop-color="#F5B54E"/>
</linearGradient>
<linearGradient id="paint2_linear_42_19" x1="305.472" y1="406.692" x2="137.82" y2="309.898" gradientUnits="userSpaceOnUse">
<stop stop-color="#19A5D8"/>
<stop offset="1" stop-color="#52B6DA"/>
</linearGradient>
<linearGradient id="paint3_linear_42_19" x1="266.339" y1="260" x2="392.339" y2="303.5" gradientUnits="userSpaceOnUse">
<stop stop-color="#F39E4A"/>
<stop offset="1" stop-color="#F07F0F"/>
</linearGradient>
<linearGradient id="paint4_linear_42_19" x1="298.281" y1="36.9863" x2="414.281" y2="212.986" gradientUnits="userSpaceOnUse">
<stop stop-color="#65B157"/>
<stop offset="1" stop-color="#4D8842"/>
</linearGradient>
</defs>
</svg>
