<?xml version="1.0" encoding="UTF-8" standalone="no"?>
<!DOCTYPE svg PUBLIC "-//W3C//DTD SVG 1.1//EN" "http://www.w3.org/Graphics/SVG/1.1/DTD/svg11.dtd">
<svg xmlns="http://www.w3.org/2000/svg" xmlns:xlink="http://www.w3.org/1999/xlink" version="1.1" width="150pt" height="150pt" viewBox="0 0 150 150">
<g enable-background="new">
<g id="Layer-1" data-name="12">
<path transform="matrix(1,0,0,-1,0,150)" d="M 0 50.073 L 149.95 50.073 L 149.95 150 L 0 150 Z " fill="#003366"/>
<path transform="matrix(1,0,0,-1,0,150)" d="M 0 .073 L 149.95 .073 L 149.95 50.073 L 0 50.073 Z " fill="#ffc30b"/>
<path transform="matrix(1,0,0,-1,18.1775,137.0596)" d="M 0 0 L -4.017 0 L -4.017 18.797 L -7.914 15.682 L -9.729 18.867 L -3.659 23.593 L 0 23.593 Z " fill="#ffffff"/>
<clipPath id="cp0">
<path transform="matrix(1,0,0,-1,0,150)" d="M 0 150 L 150 150 L 150 0 L 0 0 Z "/>
</clipPath>
<g clip-path="url(#cp0)">
<path transform="matrix(1,0,0,-1,31.8211,119.5576)" d="M 0 0 C 0 -3.851 -1.547 -6.65 -7.23 -13.722 L .387 -13.722 L -.06 -17.502 L -11.753 -17.502 L -11.753 -13.967 C -5.653 -5.916 -4.255 -3.605 -4.255 -.385 C -4.255 1.646 -5.178 2.766 -6.605 2.766 C -7.944 2.766 -8.808 1.995 -9.908 .385 L -12.378 2.625 C -10.891 5.075 -8.867 6.546 -6.219 6.546 C -2.202 6.546 0 3.605 0 0 " fill="#ffffff"/>
<path transform="matrix(1,0,0,-1,46.3513,114.7832)" d="M 0 0 L -.853 -.976 C -1.457 -.439 -2.034 -.192 -2.722 -.192 C -3.506 -.192 -4.014 -.618 -4.014 -1.333 C -4.014 -2.021 -3.685 -2.364 -2.282 -2.859 C -.742 -3.423 .248 -4.11 .248 -5.829 C .248 -7.492 -.989 -8.743 -3.052 -8.743 C -4.468 -8.743 -5.458 -8.207 -6.2 -7.451 L -5.293 -6.447 C -4.646 -7.012 -3.986 -7.369 -3.12 -7.369 C -2.199 -7.369 -1.608 -6.833 -1.608 -5.925 C -1.608 -5.142 -1.952 -4.743 -3.258 -4.289 C -5.072 -3.643 -5.843 -2.832 -5.843 -1.457 C -5.843 .083 -4.578 1.169 -2.846 1.169 C -1.608 1.169 -.742 .757 0 0 " fill="#ffffff"/>
<path transform="matrix(1,0,0,-1,53.8455,114.6045)" d="M 0 0 L -.88 -1.031 C -1.375 -.618 -1.87 -.385 -2.461 -.385 C -3.603 -.385 -4.469 -1.278 -4.469 -3.945 C -4.469 -6.53 -3.63 -7.492 -2.447 -7.492 C -1.719 -7.492 -1.224 -7.148 -.756 -6.764 L .096 -7.781 C -.468 -8.372 -1.348 -8.922 -2.53 -8.922 C -4.771 -8.922 -6.338 -7.272 -6.338 -3.945 C -6.338 -.659 -4.688 .99 -2.558 .99 C -1.457 .99 -.715 .619 0 0 " fill="#ffffff"/>
<path transform="matrix(1,0,0,-1,57.5984,118.219699)" d="M 0 0 C 1.127 0 1.649 .495 1.649 1.608 C 1.649 2.64 1.127 3.093 -.11 3.093 L -.812 3.093 L -.812 0 Z M .165 -1.279 L -.812 -1.279 L -.812 -5.101 L -2.599 -5.101 L -2.599 4.399 L -.097 4.399 C 2.337 4.399 3.492 3.437 3.492 1.608 C 3.492 .412 2.942 -.481 1.787 -.949 L 4.001 -5.101 L 2.034 -5.101 Z " fill="#ffffff"/>
<path transform="matrix(1,0,0,-1,67.5115,115.140598)" d="M 0 0 L -3.093 0 L -3.093 -2.694 L -.385 -2.694 L -.385 -4.001 L -3.093 -4.001 L -3.093 -6.847 L .221 -6.847 L .221 -8.18 L -4.88 -8.18 L -4.88 1.32 L .192 1.32 Z " fill="#ffffff"/>
<path transform="matrix(1,0,0,-1,73.9099,115.140598)" d="M 0 0 L -3.094 0 L -3.094 -2.694 L -.385 -2.694 L -.385 -4.001 L -3.094 -4.001 L -3.094 -6.847 L .22 -6.847 L .22 -8.18 L -4.881 -8.18 L -4.881 1.32 L .192 1.32 Z " fill="#ffffff"/>
<path transform="matrix(1,0,0,-1,81.8474,123.3203)" d="M 0 0 L -2.282 0 L -5.06 7.74 C -4.978 6.888 -4.826 5.691 -4.826 3.945 L -4.826 0 L -6.421 0 L -6.421 9.5 L -4.166 9.5 L -1.361 1.76 C -1.444 2.296 -1.595 3.643 -1.595 4.99 L -1.595 9.5 L 0 9.5 Z " fill="#ffffff"/>
<path transform="matrix(1,0,0,-1,0,150)" d="M 85.459 26.68 L 83.672 26.68 L 83.672 36.18 L 85.459 36.18 Z " fill="#ffffff"/>
<path transform="matrix(1,0,0,-1,93.6892,123.3203)" d="M 0 0 L -2.282 0 L -5.06 7.74 C -4.978 6.888 -4.826 5.691 -4.826 3.945 L -4.826 0 L -6.421 0 L -6.421 9.5 L -4.166 9.5 L -1.361 1.76 C -1.444 2.296 -1.595 3.643 -1.595 4.99 L -1.595 9.5 L 0 9.5 Z " fill="#ffffff"/>
<path transform="matrix(1,0,0,-1,101.8992,114.7275)" d="M 0 0 L -.922 -.949 C -1.513 -.468 -1.994 -.234 -2.723 -.234 C -3.933 -.234 -4.908 -1.114 -4.908 -3.836 C -4.908 -6.586 -4.248 -7.438 -2.97 -7.438 C -2.488 -7.438 -2.049 -7.314 -1.664 -7.081 L -1.664 -4.551 L -2.901 -4.551 L -3.08 -3.231 L .055 -3.231 L .055 -7.864 C -.798 -8.441 -1.856 -8.799 -2.942 -8.799 C -5.444 -8.799 -6.765 -7.19 -6.765 -3.836 C -6.765 -.509 -4.963 1.113 -2.777 1.113 C -1.581 1.113 -.742 .687 0 0 " fill="#ffffff"/>
<path transform="matrix(1,0,0,-1,44.7293,132.2598)" d="M 0 0 L -1.072 4.578 L -2.145 0 Z M .303 -1.348 L -2.447 -1.348 L -2.97 -3.561 L -4.771 -3.561 L -2.131 5.939 L .041 5.939 L 2.667 -3.561 L .825 -3.561 Z " fill="#ffffff"/>
<path transform="matrix(1,0,0,-1,54.7869,135.8203)" d="M 0 0 L -2.282 0 L -5.06 7.74 C -4.977 6.888 -4.825 5.691 -4.825 3.945 L -4.825 0 L -6.42 0 L -6.42 9.5 L -4.166 9.5 L -1.361 1.76 C -1.443 2.296 -1.595 3.643 -1.595 4.99 L -1.595 9.5 L 0 9.5 Z " fill="#ffffff"/>
<path transform="matrix(1,0,0,-1,58.4021,127.6543)" d="M 0 0 L 0 -6.833 L .757 -6.833 C 1.994 -6.833 2.983 -6.214 2.983 -3.368 C 2.983 -.468 1.938 0 .715 0 Z M 4.826 -3.368 C 4.826 -7.245 2.736 -8.166 .633 -8.166 L -1.787 -8.166 L -1.787 1.334 L .44 1.334 C 2.695 1.334 4.826 .619 4.826 -3.368 " fill="#ffffff"/>
<path transform="matrix(1,0,0,-1,70.3504,130.7197)" d="M 0 0 C 1.128 0 1.65 .495 1.65 1.608 C 1.65 2.64 1.128 3.093 -.109 3.093 L -.811 3.093 L -.811 0 Z M .165 -1.279 L -.811 -1.279 L -.811 -5.101 L -2.598 -5.101 L -2.598 4.399 L -.096 4.399 C 2.338 4.399 3.492 3.437 3.492 1.608 C 3.492 .412 2.942 -.481 1.788 -.949 L 4.001 -5.101 L 2.035 -5.101 Z " fill="#ffffff"/>
<path transform="matrix(1,0,0,-1,80.2644,127.6406)" d="M 0 0 L -3.094 0 L -3.094 -2.694 L -.385 -2.694 L -.385 -4.001 L -3.094 -4.001 L -3.094 -6.847 L .22 -6.847 L .22 -8.18 L -4.881 -8.18 L -4.881 1.32 L .192 1.32 Z " fill="#ffffff"/>
<path transform="matrix(1,0,0,-1,81.782,126.3203)" d="M 0 0 L 4.949 0 L 4.757 -1.32 L 1.787 -1.32 L 1.787 -4.207 L 4.371 -4.207 L 4.371 -5.527 L 1.787 -5.527 L 1.787 -9.5 L 0 -9.5 Z " fill="#ffffff"/>
<path transform="matrix(1,0,0,-1,92.6824,127.6406)" d="M 0 0 L -3.093 0 L -3.093 -2.694 L -.385 -2.694 L -.385 -4.001 L -3.093 -4.001 L -3.093 -6.847 L .221 -6.847 L .221 -8.18 L -4.88 -8.18 L -4.88 1.32 L .192 1.32 Z " fill="#ffffff"/>
<path transform="matrix(1,0,0,-1,96.7986,130.7197)" d="M 0 0 C 1.127 0 1.649 .495 1.649 1.608 C 1.649 2.64 1.127 3.093 -.11 3.093 L -.812 3.093 L -.812 0 Z M .165 -1.279 L -.812 -1.279 L -.812 -5.101 L -2.599 -5.101 L -2.599 4.399 L -.097 4.399 C 2.337 4.399 3.492 3.437 3.492 1.608 C 3.492 .412 2.942 -.481 1.787 -.949 L 4.001 -5.101 L 2.034 -5.101 Z " fill="#ffffff"/>
<path transform="matrix(1,0,0,-1,104.4295,130.7197)" d="M 0 0 C 1.128 0 1.65 .495 1.65 1.608 C 1.65 2.64 1.128 3.093 -.109 3.093 L -.811 3.093 L -.811 0 Z M .165 -1.279 L -.811 -1.279 L -.811 -5.101 L -2.598 -5.101 L -2.598 4.399 L -.096 4.399 C 2.338 4.399 3.492 3.437 3.492 1.608 C 3.492 .412 2.942 -.481 1.788 -.949 L 4.001 -5.101 L 2.035 -5.101 Z " fill="#ffffff"/>
<path transform="matrix(1,0,0,-1,113.7469,132.2598)" d="M 0 0 L -1.072 4.578 L -2.145 0 Z M .303 -1.348 L -2.447 -1.348 L -2.97 -3.561 L -4.771 -3.561 L -2.131 5.939 L .041 5.939 L 2.667 -3.561 L .825 -3.561 Z " fill="#ffffff"/>
<path transform="matrix(1,0,0,-1,119.1717,134.3633)" d="M 0 0 L 3.382 0 L 3.189 -1.457 L -1.787 -1.457 L -1.787 8.043 L 0 8.043 Z " fill="#ffffff"/>
<path transform="matrix(1,0,0,-1,67.9031,70.6431)" d="M 0 0 C .14 0 .28 -.021 .417 -.064 C 1.249 -.328 2.116 -.542 2.995 -.7 C 3.547 -.799 3.979 -1.213 4.096 -1.755 L 4.454 -3.418 C 4.466 -3.472 4.516 -3.512 4.572 -3.512 L 10.162 -3.512 C 10.219 -3.512 10.269 -3.473 10.28 -3.419 L 10.686 -1.537 C 10.796 -1.028 11.197 -.62 11.71 -.498 C 12.513 -.307 13.327 -.059 14.131 .239 C 14.666 .436 15.25 .295 15.626 -.121 L 16.886 -1.51 C 16.925 -1.552 16.988 -1.561 17.038 -1.534 L 21.88 1.252 C 21.929 1.28 21.951 1.337 21.934 1.389 L 21.233 3.547 C 21.073 4.042 21.207 4.576 21.584 4.942 C 22.127 5.472 22.638 6.024 23.101 6.583 C 23.463 7.018 24.04 7.187 24.572 7.017 L 26.694 6.332 C 26.752 6.314 26.811 6.336 26.838 6.386 L 29.635 11.212 C 29.663 11.26 29.653 11.32 29.612 11.357 L 27.618 13.15 C 27.238 13.492 27.084 14.014 27.216 14.513 C 27.369 15.094 27.503 15.714 27.613 16.355 C 27.708 16.91 28.123 17.346 28.673 17.464 L 31.252 18.014 C 31.308 18.025 31.348 18.074 31.348 18.129 L 31.349 23.699 C 31.349 23.754 31.309 23.803 31.253 23.814 L 28.235 24.458 C 27.732 24.565 27.337 24.942 27.201 25.442 C 27.066 25.945 26.913 26.438 26.742 26.923 C 26.557 27.445 26.702 28.022 27.112 28.393 L 29.339 30.397 C 29.381 30.435 29.391 30.494 29.362 30.542 L 26.565 35.366 C 26.537 35.416 26.476 35.439 26.422 35.421 L 23.236 34.395 C 22.742 34.234 22.207 34.367 21.839 34.74 C 21.523 35.059 21.201 35.369 20.866 35.668 C 20.461 36.03 20.306 36.595 20.472 37.108 L 21.462 40.165 C 21.479 40.218 21.457 40.275 21.408 40.303 L 16.568 43.088 C 16.518 43.116 16.454 43.106 16.415 43.064 L 14.138 40.555 C 13.785 40.168 13.254 40.019 12.748 40.164 C 12.324 40.286 11.894 40.396 11.459 40.494 C 10.939 40.612 10.532 41.02 10.421 41.535 L 9.739 44.704 C 9.728 44.758 9.678 44.798 9.621 44.798 L 4.031 44.798 C 3.975 44.798 3.925 44.758 3.913 44.704 L 3.23 41.537 C 3.12 41.021 2.711 40.611 2.188 40.493 C 1.717 40.386 1.251 40.263 .791 40.125 C .283 39.973 -.271 40.125 -.623 40.514 L -2.691 42.794 C -2.73 42.837 -2.795 42.845 -2.844 42.818 L -7.687 40.034 C -7.735 40.006 -7.758 39.949 -7.74 39.896 L -6.831 37.1 C -6.664 36.587 -6.819 36.021 -7.226 35.656 C -7.437 35.468 -7.641 35.277 -7.841 35.082 C -8.047 34.881 -8.248 34.676 -8.447 34.467 C -8.809 34.086 -9.365 33.943 -9.863 34.104 L -12.501 34.952 C -12.56 34.972 -12.616 34.945 -12.644 34.898 L -15.439 30.075 C -15.468 30.027 -15.458 29.966 -15.417 29.929 L -13.521 28.225 C -13.112 27.857 -12.965 27.281 -13.147 26.757 C -13.391 26.061 -13.583 25.415 -13.735 24.784 C -13.858 24.271 -14.269 23.869 -14.779 23.76 L -17.06 23.274 C -17.114 23.262 -17.154 23.213 -17.154 23.158 L -17.154 17.587 C -17.154 17.531 -17.115 17.484 -17.059 17.472 L -14.944 17.022 C -14.408 16.908 -13.994 16.484 -13.888 15.942 C -13.734 15.15 -13.537 14.373 -13.303 13.631 C -13.141 13.12 -13.292 12.559 -13.688 12.203 L -15.145 10.892 C -15.187 10.855 -15.196 10.795 -15.168 10.747 L -12.372 5.923 C -12.345 5.873 -12.285 5.852 -12.229 5.869 L -10.442 6.442 C -9.926 6.607 -9.361 6.45 -8.999 6.044 C -8.42 5.392 -7.796 4.771 -7.144 4.198 C -6.73 3.835 -6.572 3.268 -6.74 2.751 L -7.268 1.123 C -7.285 1.07 -7.262 1.012 -7.214 .984 L -2.375 -1.803 C -2.322 -1.832 -2.259 -1.821 -2.222 -1.779 L -1.013 -.445 C -.751 -.157 -.38 0 0 0 M 10.162 -4.762 L 4.572 -4.762 C 3.931 -4.762 3.367 -4.308 3.231 -3.682 L 2.873 -2.019 C 2.863 -1.974 2.826 -1.94 2.774 -1.931 C 1.843 -1.763 .923 -1.536 .04 -1.256 C -.011 -1.24 -.057 -1.252 -.087 -1.285 L -1.296 -2.619 C -1.728 -3.094 -2.443 -3.206 -2.998 -2.886 L -7.838 -.099 C -8.396 .223 -8.655 .898 -8.457 1.508 L -7.93 3.137 C -7.916 3.18 -7.93 3.225 -7.968 3.258 C -8.659 3.866 -9.32 4.523 -9.934 5.213 C -9.967 5.252 -10.016 5.266 -10.061 5.252 L -11.847 4.678 C -12.456 4.484 -13.133 4.743 -13.454 5.296 L -16.25 10.12 C -16.571 10.676 -16.458 11.391 -15.98 11.821 L -14.523 13.132 C -14.49 13.162 -14.479 13.208 -14.494 13.255 C -14.743 14.042 -14.952 14.865 -15.114 15.702 C -15.124 15.751 -15.159 15.79 -15.205 15.799 L -17.318 16.249 C -17.947 16.383 -18.404 16.946 -18.404 17.587 L -18.404 23.158 C -18.404 23.8 -17.948 24.363 -17.319 24.497 L -15.039 24.983 C -14.996 24.992 -14.962 25.028 -14.95 25.077 C -14.788 25.749 -14.584 26.434 -14.327 27.169 C -14.312 27.216 -14.322 27.264 -14.356 27.295 L -16.253 29 C -16.731 29.432 -16.844 30.147 -16.521 30.703 L -13.726 35.525 C -13.404 36.079 -12.728 36.339 -12.118 36.142 L -9.48 35.294 C -9.435 35.277 -9.386 35.292 -9.353 35.329 C -9.143 35.55 -8.93 35.766 -8.714 35.977 C -8.5 36.185 -8.282 36.389 -8.058 36.588 C -8.021 36.622 -8.006 36.669 -8.021 36.712 L -8.93 39.509 C -9.128 40.121 -8.867 40.797 -8.31 41.117 L -3.467 43.902 C -2.911 44.221 -2.196 44.108 -1.766 43.634 L .304 41.353 C .335 41.319 .377 41.305 .432 41.322 C .919 41.468 1.412 41.599 1.912 41.712 C 1.963 41.724 1.999 41.757 2.008 41.799 L 2.69 44.968 C 2.826 45.594 3.39 46.048 4.031 46.048 L 9.621 46.048 C 10.262 46.048 10.826 45.594 10.962 44.968 L 11.644 41.797 C 11.652 41.756 11.687 41.724 11.734 41.714 C 12.192 41.61 12.646 41.494 13.094 41.365 C 13.14 41.353 13.184 41.363 13.212 41.395 L 15.49 43.904 C 15.921 44.378 16.636 44.491 17.191 44.171 L 22.031 41.386 C 22.589 41.066 22.85 40.39 22.651 39.779 L 21.661 36.723 C 21.647 36.68 21.661 36.634 21.699 36.601 C 22.053 36.284 22.395 35.956 22.729 35.618 C 22.763 35.583 22.811 35.571 22.854 35.584 L 26.039 36.61 C 26.65 36.808 27.326 36.547 27.647 35.993 L 30.444 31.169 C 30.767 30.613 30.653 29.897 30.174 29.467 L 27.949 27.464 C 27.915 27.433 27.904 27.387 27.921 27.339 C 28.103 26.823 28.266 26.299 28.408 25.768 C 28.421 25.723 28.454 25.689 28.496 25.68 L 31.513 25.037 C 32.142 24.903 32.599 24.34 32.599 23.699 L 32.598 18.129 C 32.598 17.487 32.141 16.925 31.512 16.791 L 28.934 16.242 C 28.889 16.232 28.854 16.194 28.846 16.145 C 28.729 15.467 28.588 14.811 28.425 14.193 C 28.419 14.172 28.41 14.119 28.454 14.08 L 30.448 12.287 C 30.927 11.855 31.039 11.139 30.716 10.583 L 27.92 5.759 C 27.6 5.205 26.923 4.944 26.312 5.142 L 24.189 5.827 C 24.144 5.843 24.096 5.824 24.062 5.784 C 23.572 5.193 23.031 4.608 22.456 4.046 C 22.422 4.014 22.41 3.972 22.423 3.933 L 23.123 1.775 C 23.321 1.165 23.061 .489 22.503 .169 L 17.661 -2.617 C 17.105 -2.937 16.392 -2.823 15.96 -2.35 L 14.7 -.96 C 14.668 -.925 14.617 -.913 14.565 -.933 C 13.715 -1.249 12.852 -1.511 12 -1.713 C 11.952 -1.725 11.917 -1.758 11.908 -1.8 L 11.503 -3.682 C 11.369 -4.307 10.805 -4.762 10.162 -4.762 " fill="#ffffff"/>
<path transform="matrix(1,0,0,-1,93.7342,54.9746)" d="M 0 0 L -11.139 0 L -11.139 11.101 L -3.563 11.101 L -3.563 9.851 L -9.889 9.851 L -9.889 1.25 L -1.25 1.25 L -1.25 4.625 L 0 4.625 Z " fill="#ffffff"/>
<path transform="matrix(1,0,0,-1,88.3094,52.0063)" d="M 0 0 L -3.231 3.58 L -2.304 4.417 L -.039 1.909 L 3.842 6.579 L 4.803 5.78 Z " fill="#ffffff"/>
<path transform="matrix(1,0,0,-1,79.3211,63.192399)" d="M 0 0 L -.082 .823 C -.301 3.023 -2.128 4.683 -4.334 4.683 C -6.539 4.683 -8.368 3.024 -8.587 .825 L -8.669 .002 L -9.438 .306 C -13.222 1.8 -16.148 4.854 -17.469 8.685 L -17.754 9.514 L -14.49 9.514 L -12.013 13.79 L -14.49 18.065 L -17.362 18.065 L -16.952 18.953 C -15.443 22.218 -12.768 24.742 -9.417 26.059 L -8.681 26.348 L -8.569 25.564 C -8.272 23.465 -6.452 21.881 -4.334 21.881 C -2.216 21.881 -.395 23.466 -.099 25.567 L .012 26.351 L .748 26.062 C 4.083 24.755 6.845 22.142 8.325 18.893 L 7.188 18.374 C 5.942 21.108 3.7 23.347 .97 24.609 C .288 22.294 -1.867 20.631 -4.334 20.631 C -6.8 20.631 -8.955 22.292 -9.638 24.606 C -12.068 23.486 -14.061 21.644 -15.365 19.315 L -13.77 19.315 L -10.567 13.79 L -13.77 8.264 L -15.969 8.264 C -14.751 5.402 -12.518 3.093 -9.687 1.773 C -9.074 4.194 -6.901 5.933 -4.334 5.933 C -1.766 5.933 .406 4.193 1.019 1.77 C 4.117 3.211 6.502 5.832 7.621 9.062 L 8.803 8.652 C 7.479 4.836 4.552 1.793 .77 .303 Z " fill="#ffffff"/>
<path transform="matrix(1,0,0,-1,75.0164,80.1172)" d="M 0 0 C -7.766 0 -15.518 2.957 -21.398 8.814 C -32.928 20.3 -33.146 39.191 -21.883 50.926 L -20.98 50.061 C -31.774 38.814 -31.566 20.708 -20.516 9.7 C -9.69 -1.085 7.756 -1.613 19.197 8.494 L 20.025 7.558 C 14.305 2.505 7.146 0 0 0 " fill="#ffffff"/>
<path transform="matrix(1,0,0,-1,50.3191,29.458504)" d="M 0 0 L .053 -.623 L 3.123 -.361 L 3.16 -3.443 L 3.786 -3.435 L 3.74 .318 Z " fill="#ffffff"/>
<path transform="matrix(1,0,0,-1,96.867,70.8086)" d="M 0 0 L -.902 .865 C 9.892 12.113 9.683 30.218 -1.368 41.226 C -12.043 51.859 -29.353 52.507 -40.774 42.699 L -41.589 43.647 C -29.677 53.878 -11.621 53.205 -.485 42.111 C 11.044 30.626 11.262 11.735 0 0 " fill="#ffffff"/>
<path transform="matrix(1,0,0,-1,99.6805,70.5415)" d="M 0 0 L -.052 .623 L -3.123 .361 L -3.16 3.443 L -3.785 3.435 L -3.739 -.318 Z " fill="#ffffff"/>
<path transform="matrix(1,0,0,-1,59.8699,53.678705)" d="M 0 0 L 4.961 0 L 7.438 4.276 L 4.961 8.552 L 0 8.552 L -2.478 4.276 Z M 5.682 -1.25 L -.721 -1.25 L -3.923 4.276 L -.721 9.802 L 5.682 9.802 L 8.884 4.276 Z " fill="#ffffff"/>
<path transform="matrix(1,0,0,-1,74.9871,32.752)" d="M 0 0 C -2.37 0 -4.299 -1.92 -4.299 -4.279 C -4.299 -6.639 -2.37 -8.559 0 -8.559 C 2.37 -8.559 4.298 -6.639 4.298 -4.279 C 4.298 -1.92 2.37 0 0 0 M 0 -9.809 C -3.06 -9.809 -5.549 -7.329 -5.549 -4.279 C -5.549 -1.23 -3.06 1.25 0 1.25 C 3.06 1.25 5.548 -1.23 5.548 -4.279 C 5.548 -7.329 3.06 -9.809 0 -9.809 " fill="#ffffff"/>
<path transform="matrix(1,0,0,-1,74.9871,58.509805)" d="M 0 0 C -2.37 0 -4.299 -1.92 -4.299 -4.279 C -4.299 -6.639 -2.37 -8.559 0 -8.559 C 2.37 -8.559 4.298 -6.639 4.298 -4.279 C 4.298 -1.92 2.37 0 0 0 M 0 -9.809 C -3.06 -9.809 -5.549 -7.329 -5.549 -4.279 C -5.549 -1.23 -3.06 1.25 0 1.25 C 3.06 1.25 5.548 -1.23 5.548 -4.279 C 5.548 -7.329 3.06 -9.809 0 -9.809 " fill="#ffffff"/>
</g>
</g>
</g>
</svg>
