<?xml version="1.0" encoding="UTF-8" standalone="no"?>
<!DOCTYPE svg PUBLIC "-//W3C//DTD SVG 1.1//EN" "http://www.w3.org/Graphics/SVG/1.1/DTD/svg11.dtd">
<svg xmlns="http://www.w3.org/2000/svg" xmlns:xlink="http://www.w3.org/1999/xlink" version="1.1" width="150pt" height="150pt" viewBox="0 0 150 150">
<g enable-background="new">
<g id="Layer-1" data-name="10">
<path transform="matrix(1,0,0,-1,0,150)" d="M 0 50.073 L 149.95 50.073 L 149.95 150 L 0 150 Z " fill="#003366"/>
<path transform="matrix(1,0,0,-1,0,150)" d="M 0 .073 L 149.95 .073 L 149.95 50.073 L 0 50.073 Z " fill="#fdaa1c"/>
<path transform="matrix(1,0,0,-1,17.0379,137.0596)" d="M 0 0 L -4.017 0 L -4.017 18.797 L -7.914 15.682 L -9.729 18.867 L -3.659 23.593 L 0 23.593 Z " fill="#ffffff"/>
<clipPath id="cp0">
<path transform="matrix(1,0,0,-1,0,150)" d="M 0 150 L 150 150 L 150 0 L 0 0 Z "/>
</clipPath>
<g clip-path="url(#cp0)">
<path transform="matrix(1,0,0,-1,23.618,125.2979)" d="M 0 0 C 0 -6.756 .773 -8.682 2.56 -8.682 C 4.345 -8.682 5.088 -6.826 5.088 0 C 5.088 6.825 4.345 8.646 2.56 8.646 C .773 8.646 0 6.721 0 0 M 9.343 0 C 9.343 -8.191 6.963 -12.322 2.56 -12.322 C -1.874 -12.322 -4.225 -8.191 -4.225 0 C -4.225 8.19 -1.874 12.286 2.56 12.286 C 6.963 12.286 9.343 8.12 9.343 0 " fill="#ffffff"/>
<path transform="matrix(1,0,0,-1,45.8289,115.140598)" d="M 0 0 L -3.093 0 L -3.093 -2.694 L -.385 -2.694 L -.385 -4.001 L -3.093 -4.001 L -3.093 -6.847 L .221 -6.847 L .221 -8.18 L -4.88 -8.18 L -4.88 1.32 L .192 1.32 Z " fill="#ffffff"/>
<path transform="matrix(1,0,0,-1,49.9451,118.219699)" d="M 0 0 C 1.127 0 1.649 .495 1.649 1.608 C 1.649 2.64 1.127 3.093 -.11 3.093 L -.812 3.093 L -.812 0 Z M .165 -1.279 L -.812 -1.279 L -.812 -5.101 L -2.599 -5.101 L -2.599 4.399 L -.097 4.399 C 2.337 4.399 3.492 3.437 3.492 1.608 C 3.492 .412 2.942 -.481 1.787 -.949 L 4.001 -5.101 L 2.034 -5.101 Z " fill="#ffffff"/>
<path transform="matrix(1,0,0,-1,59.2615,119.759799)" d="M 0 0 L -1.072 4.578 L -2.145 0 Z M .303 -1.348 L -2.447 -1.348 L -2.97 -3.561 L -4.771 -3.561 L -2.131 5.939 L .041 5.939 L 2.667 -3.561 L .825 -3.561 Z " fill="#ffffff"/>
<path transform="matrix(1,0,0,-1,64.6863,115.1543)" d="M 0 0 L 0 -6.833 L .756 -6.833 C 1.993 -6.833 2.983 -6.214 2.983 -3.368 C 2.983 -.468 1.938 0 .715 0 Z M 4.825 -3.368 C 4.825 -7.245 2.735 -8.166 .632 -8.166 L -1.787 -8.166 L -1.787 1.334 L .439 1.334 C 2.694 1.334 4.825 .619 4.825 -3.368 " fill="#ffffff"/>
<path transform="matrix(1,0,0,-1,0,150)" d="M 72.738 26.68 L 70.951 26.68 L 70.951 36.18 L 72.738 36.18 Z " fill="#ffffff"/>
<path transform="matrix(1,0,0,-1,80.5008,114.6045)" d="M 0 0 L -.88 -1.031 C -1.375 -.618 -1.87 -.385 -2.461 -.385 C -3.603 -.385 -4.469 -1.278 -4.469 -3.945 C -4.469 -6.53 -3.63 -7.492 -2.447 -7.492 C -1.719 -7.492 -1.224 -7.148 -.756 -6.764 L .096 -7.781 C -.468 -8.372 -1.348 -8.922 -2.53 -8.922 C -4.771 -8.922 -6.338 -7.272 -6.338 -3.945 C -6.338 -.659 -4.688 .99 -2.558 .99 C -1.457 .99 -.715 .619 0 0 " fill="#ffffff"/>
<path transform="matrix(1,0,0,-1,85.8435,119.759799)" d="M 0 0 L -1.072 4.578 L -2.146 0 Z M .302 -1.348 L -2.447 -1.348 L -2.97 -3.561 L -4.771 -3.561 L -2.131 5.939 L .041 5.939 L 2.667 -3.561 L .824 -3.561 Z " fill="#ffffff"/>
<path transform="matrix(1,0,0,-1,94.2068,115.2227)" d="M 0 0 L -2.187 0 L -2.187 -8.098 L -3.96 -8.098 L -3.96 0 L -6.242 0 L -6.242 1.402 L .192 1.402 Z " fill="#ffffff"/>
<path transform="matrix(1,0,0,-1,100.2908,115.140598)" d="M 0 0 L -3.093 0 L -3.093 -2.694 L -.385 -2.694 L -.385 -4.001 L -3.093 -4.001 L -3.093 -6.847 L .221 -6.847 L .221 -8.18 L -4.88 -8.18 L -4.88 1.32 L .192 1.32 Z " fill="#ffffff"/>
<path transform="matrix(1,0,0,-1,46.365,127.7227)" d="M 0 0 L -2.186 0 L -2.186 -8.098 L -3.959 -8.098 L -3.959 0 L -6.241 0 L -6.241 1.402 L .193 1.402 Z " fill="#ffffff"/>
<path transform="matrix(1,0,0,-1,50.1678,130.7197)" d="M 0 0 C 1.127 0 1.649 .495 1.649 1.608 C 1.649 2.64 1.127 3.093 -.11 3.093 L -.812 3.093 L -.812 0 Z M .165 -1.279 L -.812 -1.279 L -.812 -5.101 L -2.599 -5.101 L -2.599 4.399 L -.097 4.399 C 2.337 4.399 3.492 3.437 3.492 1.608 C 3.492 .412 2.942 -.481 1.787 -.949 L 4.001 -5.101 L 2.034 -5.101 Z " fill="#ffffff"/>
<path transform="matrix(1,0,0,-1,59.4851,132.2598)" d="M 0 0 L -1.072 4.578 L -2.146 0 Z M .302 -1.348 L -2.447 -1.348 L -2.97 -3.561 L -4.771 -3.561 L -2.131 5.939 L .041 5.939 L 2.667 -3.561 L .824 -3.561 Z " fill="#ffffff"/>
<path transform="matrix(1,0,0,-1,63.1219,126.3203)" d="M 0 0 L 4.949 0 L 4.757 -1.32 L 1.787 -1.32 L 1.787 -4.207 L 4.372 -4.207 L 4.372 -5.527 L 1.787 -5.527 L 1.787 -9.5 L 0 -9.5 Z " fill="#ffffff"/>
<path transform="matrix(1,0,0,-1,69.1424,126.3203)" d="M 0 0 L 4.949 0 L 4.757 -1.32 L 1.787 -1.32 L 1.787 -4.207 L 4.372 -4.207 L 4.372 -5.527 L 1.787 -5.527 L 1.787 -9.5 L 0 -9.5 Z " fill="#ffffff"/>
<path transform="matrix(1,0,0,-1,0,150)" d="M 76.951 14.18 L 75.163997 14.18 L 75.163997 23.68 L 76.951 23.68 Z " fill="#ffffff"/>
<path transform="matrix(1,0,0,-1,84.7137,127.1045)" d="M 0 0 L -.88 -1.031 C -1.375 -.618 -1.87 -.385 -2.461 -.385 C -3.603 -.385 -4.469 -1.278 -4.469 -3.945 C -4.469 -6.53 -3.63 -7.492 -2.447 -7.492 C -1.719 -7.492 -1.224 -7.148 -.756 -6.764 L .096 -7.781 C -.468 -8.372 -1.348 -8.922 -2.53 -8.922 C -4.771 -8.922 -6.338 -7.272 -6.338 -3.945 C -6.338 -.659 -4.688 .99 -2.558 .99 C -1.457 .99 -.715 .619 0 0 " fill="#ffffff"/>
<path transform="matrix(1,0,0,-1,89.5935,130.624)" d="M 0 0 L 3.121 -5.196 L 1.101 -5.196 L -1.883 -.123 L 1.031 4.304 L 2.901 4.304 Z M -1.938 -5.196 L -3.725 -5.196 L -3.725 4.304 L -1.938 4.304 Z " fill="#ffffff"/>
<path transform="matrix(1,0,0,-1,0,150)" d="M 95.458 14.18 L 93.671 14.18 L 93.671 23.68 L 95.458 23.68 Z " fill="#ffffff"/>
<path transform="matrix(1,0,0,-1,103.6883,135.8203)" d="M 0 0 L -2.282 0 L -5.06 7.74 C -4.977 6.888 -4.825 5.691 -4.825 3.945 L -4.825 0 L -6.42 0 L -6.42 9.5 L -4.166 9.5 L -1.361 1.76 C -1.443 2.296 -1.595 3.643 -1.595 4.99 L -1.595 9.5 L 0 9.5 Z " fill="#ffffff"/>
<path transform="matrix(1,0,0,-1,111.8982,127.2275)" d="M 0 0 L -.921 -.949 C -1.512 -.468 -1.993 -.234 -2.722 -.234 C -3.932 -.234 -4.908 -1.114 -4.908 -3.836 C -4.908 -6.586 -4.248 -7.438 -2.97 -7.438 C -2.488 -7.438 -2.048 -7.314 -1.663 -7.081 L -1.663 -4.551 L -2.9 -4.551 L -3.079 -3.231 L .056 -3.231 L .056 -7.864 C -.797 -8.441 -1.855 -8.799 -2.941 -8.799 C -5.444 -8.799 -6.764 -7.19 -6.764 -3.836 C -6.764 -.509 -4.963 1.113 -2.777 1.113 C -1.581 1.113 -.742 .687 0 0 " fill="#ffffff"/>
<path transform="matrix(1,0,0,-1,69.4461,24.723603)" d="M 0 0 C -4.354 0 -7.896 -3.592 -7.896 -8.008 C -7.896 -12.424 -4.354 -16.017 0 -16.017 C 4.355 -16.017 7.898 -12.424 7.898 -8.008 C 7.898 -3.592 4.355 0 0 0 M 0 -17.267 C -5.043 -17.267 -9.146 -13.113 -9.146 -8.008 C -9.146 -2.903 -5.043 1.25 0 1.25 C 5.045 1.25 9.148 -2.903 9.148 -8.008 C 9.148 -13.113 5.045 -17.267 0 -17.267 " fill="#ffffff"/>
<path transform="matrix(1,0,0,-1,54.492,74.7251)" d="M 0 0 C 4.506 -2.716 9.669 -4.15 14.955 -4.15 C 20.241 -4.15 25.405 -2.716 29.911 0 L 29.911 21.678 C 29.909 23.9 28.27 26.396 26.401 27.02 C 18.912 29.456 10.996 29.456 3.509 27.019 C 1.645 26.398 .003 23.901 0 21.677 Z M 14.955 -5.4 C 9.32 -5.4 3.819 -3.837 -.954 -.882 C -1.138 -.768 -1.25 -.567 -1.25 -.351 L -1.25 21.678 C -1.247 24.478 .713 27.405 3.118 28.206 C 10.861 30.726 19.047 30.727 26.79 28.208 C 26.791 28.207 26.793 28.207 26.794 28.206 C 29.159 27.418 31.159 24.429 31.161 21.679 L 31.161 -.351 C 31.161 -.567 31.049 -.768 30.865 -.882 C 26.092 -3.837 20.591 -5.4 14.955 -5.4 " fill="#ffffff"/>
<path transform="matrix(1,0,0,-1,0,150)" d="M 61.003 71.732 L 59.753 71.732 L 59.753 90.776 L 61.003 90.776 Z " fill="#ffffff"/>
<path transform="matrix(1,0,0,-1,0,150)" d="M 79.14 71.732 L 77.89 71.732 L 77.89 90.776 L 79.14 90.776 Z " fill="#ffffff"/>
<path transform="matrix(1,0,0,-1,69.448,21.125)" d="M 0 0 C -15.969 0 -28.961 -12.953 -28.961 -28.875 C -28.961 -44.797 -15.969 -57.75 0 -57.75 C 8.937 -57.75 17.467 -53.558 22.931 -46.51 L 20.937 -44.519 C 20.52 -44.101 20.279 -43.546 20.262 -42.956 L 20.046 -35.654 C 20.016 -34.699 20.771 -33.895 21.729 -33.864 L 28.558 -33.643 C 28.825 -32.051 28.96 -30.45 28.96 -28.875 C 28.96 -12.953 15.969 0 0 0 M 0 -59 C -16.658 -59 -30.211 -45.486 -30.211 -28.875 C -30.211 -12.264 -16.658 1.25 0 1.25 C 16.658 1.25 30.21 -12.264 30.21 -28.875 C 30.21 -30.693 30.037 -32.545 29.697 -34.378 C 29.643 -34.674 29.384 -34.889 29.083 -34.889 C 29.054 -34.889 29.016 -34.885 28.978 -34.88 L 21.77 -35.113 C 21.5 -35.122 21.287 -35.347 21.296 -35.616 L 21.512 -42.918 C 21.52 -43.189 21.629 -43.443 21.82 -43.635 L 24.2 -46.011 C 24.42 -46.23 24.445 -46.578 24.26 -46.827 C 18.578 -54.449 9.51 -59 0 -59 " fill="#ffffff"/>
<path transform="matrix(1,0,0,-1,93.6316,59.752)" d="M 0 0 C -.159 0 -.319 .061 -.441 .183 L -10.461 10.173 C -10.705 10.417 -10.706 10.813 -10.462 11.057 C -10.218 11.301 -9.822 11.303 -9.578 11.058 L .441 1.067 C .686 .824 .687 .428 .442 .184 C .32 .061 .16 0 0 0 " fill="#ffffff"/>
<path transform="matrix(1,0,0,-1,89.8982,71.4561)" d="M 0 0 L -41.784 41.664 L -40.901 42.549 L .883 .885 Z " fill="#ffffff"/>
<path transform="matrix(1,0,0,-1,91.2683,64.7593)" d="M 0 0 L 10.114 -10.102 C 10.205 -10.193 10.307 -10.24 10.452 -10.239 C 10.579 -10.237 10.697 -10.185 10.785 -10.092 L 18.119 -2.29 C 18.203 -2.2 18.248 -2.083 18.244 -1.959 C 18.24 -1.836 18.188 -1.722 18.098 -1.638 L 7.965 8.484 C 7.776 8.661 7.525 8.765 7.217 8.756 L -.051 8.521 C -.32 8.513 -.533 8.287 -.524 8.019 L -.309 .716 C -.301 .445 -.191 .191 0 0 Z M 10.444 -11.489 C 9.985 -11.489 9.555 -11.311 9.23 -10.985 L -.883 -.885 C -.883 -.884 -.883 -.884 -.884 -.884 C -1.301 -.467 -1.541 .088 -1.559 .679 L -1.774 7.98 C -1.805 8.936 -1.05 9.739 -.092 9.771 L 7.177 10.005 C 7.784 10.028 8.39 9.798 8.833 9.383 L 18.966 -.739 C 19.286 -1.037 19.479 -1.461 19.493 -1.919 C 19.508 -2.376 19.344 -2.813 19.029 -3.146 L 11.695 -10.949 C 11.374 -11.291 10.939 -11.482 10.47 -11.489 Z " fill="#ffffff"/>
</g>
</g>
</g>
</svg>
