<?xml version="1.0" encoding="UTF-8"?>
<svg xmlns="http://www.w3.org/2000/svg" xmlns:xlink="http://www.w3.org/1999/xlink" width="150pt" height="150pt" viewBox="0 0 150 150" version="1.1">
<g id="surface1">
<path style=" stroke:none;fill-rule:nonzero;fill:rgb(0%,19.999695%,39.99939%);fill-opacity:1;" d="M 0 99.925781 L 149.949219 99.925781 L 149.949219 0 L 0 0 Z M 0 99.925781 "/>
<path style=" stroke:none;fill-rule:nonzero;fill:rgb(21.199036%,74.499512%,64.698792%);fill-opacity:1;" d="M 0 149.925781 L 149.949219 149.925781 L 149.949219 99.925781 L 0 99.925781 Z M 0 149.925781 "/>
<path style=" stroke:none;fill-rule:nonzero;fill:rgb(100%,100%,100%);fill-opacity:1;" d="M 18.832031 137.058594 L 14.816406 137.058594 L 14.816406 118.261719 L 10.917969 121.378906 L 9.105469 118.191406 L 15.175781 113.464844 L 18.832031 113.464844 Z M 18.832031 137.058594 "/>
<path style=" stroke:none;fill-rule:nonzero;fill:rgb(100%,100%,100%);fill-opacity:1;" d="M 31.910156 116.828125 L 25.242188 137.585938 L 21.523438 136.113281 L 27.683594 117.179688 L 20.246094 117.179688 L 20.246094 113.46875 L 31.910156 113.46875 Z M 31.910156 116.828125 "/>
<path style=" stroke:none;fill-rule:nonzero;fill:rgb(100%,100%,100%);fill-opacity:1;" d="M 45.828125 115.140625 L 42.734375 115.140625 L 42.734375 117.835938 L 45.445312 117.835938 L 45.445312 119.140625 L 42.734375 119.140625 L 42.734375 121.988281 L 46.050781 121.988281 L 46.050781 123.320312 L 40.949219 123.320312 L 40.949219 113.820312 L 46.019531 113.820312 Z M 45.828125 115.140625 "/>
<path style=" stroke:none;fill-rule:nonzero;fill:rgb(100%,100%,100%);fill-opacity:1;" d="M 49.132812 121.863281 L 52.515625 121.863281 L 52.324219 123.320312 L 47.347656 123.320312 L 47.347656 113.820312 L 49.132812 113.820312 Z M 49.132812 121.863281 "/>
<path style=" stroke:none;fill-rule:nonzero;fill:rgb(100%,100%,100%);fill-opacity:1;" d="M 55.367188 123.320312 L 53.582031 123.320312 L 53.582031 113.820312 L 55.367188 113.820312 Z M 55.367188 123.320312 "/>
<path style=" stroke:none;fill-rule:nonzero;fill:rgb(100%,100%,100%);fill-opacity:1;" d="M 65.554688 123.320312 L 63.851562 123.320312 L 63.644531 119.320312 C 63.578125 117.917969 63.523438 116.460938 63.546875 115.457031 L 62.050781 122.289062 L 60.386719 122.289062 L 58.804688 115.441406 C 58.847656 116.707031 58.820312 118.011719 58.765625 119.375 L 58.574219 123.320312 L 56.878906 123.320312 L 57.539062 113.820312 L 59.808594 113.820312 L 61.253906 120.503906 L 62.601562 113.820312 L 64.898438 113.820312 Z M 65.554688 123.320312 "/>
<path style=" stroke:none;fill-rule:nonzero;fill:rgb(100%,100%,100%);fill-opacity:1;" d="M 68.878906 123.320312 L 67.089844 123.320312 L 67.089844 113.820312 L 68.878906 113.820312 Z M 68.878906 123.320312 "/>
<path style=" stroke:none;fill-rule:nonzero;fill:rgb(100%,100%,100%);fill-opacity:1;" d="M 77.109375 123.320312 L 74.828125 123.320312 L 72.046875 115.582031 C 72.128906 116.433594 72.28125 117.628906 72.28125 119.375 L 72.28125 123.320312 L 70.6875 123.320312 L 70.6875 113.820312 L 72.941406 113.820312 L 75.746094 121.558594 C 75.664062 121.023438 75.511719 119.675781 75.511719 118.332031 L 75.511719 113.820312 L 77.109375 113.820312 Z M 77.109375 123.320312 "/>
<path style=" stroke:none;fill-rule:nonzero;fill:rgb(100%,100%,100%);fill-opacity:1;" d="M 82.855469 119.761719 L 81.785156 115.183594 L 80.710938 119.761719 Z M 83.15625 121.109375 L 80.410156 121.109375 L 79.886719 123.320312 L 78.085938 123.320312 L 80.726562 113.820312 L 82.898438 113.820312 L 85.523438 123.320312 L 83.679688 123.320312 Z M 83.15625 121.109375 "/>
<path style=" stroke:none;fill-rule:nonzero;fill:rgb(100%,100%,100%);fill-opacity:1;" d="M 91.21875 115.222656 L 89.03125 115.222656 L 89.03125 123.320312 L 87.257812 123.320312 L 87.257812 115.222656 L 84.976562 115.222656 L 84.976562 113.820312 L 91.410156 113.820312 Z M 91.21875 115.222656 "/>
<path style=" stroke:none;fill-rule:nonzero;fill:rgb(100%,100%,100%);fill-opacity:1;" d="M 97.304688 115.140625 L 94.210938 115.140625 L 94.210938 117.835938 L 96.917969 117.835938 L 96.917969 119.140625 L 94.210938 119.140625 L 94.210938 121.988281 L 97.523438 121.988281 L 97.523438 123.320312 L 92.421875 123.320312 L 92.421875 113.820312 L 97.496094 113.820312 Z M 97.304688 115.140625 "/>
<path style=" stroke:none;fill-rule:nonzero;fill:rgb(100%,100%,100%);fill-opacity:1;" d="M 42.734375 127.65625 L 42.734375 134.488281 L 43.492188 134.488281 C 44.730469 134.488281 45.71875 133.867188 45.71875 131.023438 C 45.71875 128.121094 44.675781 127.65625 43.449219 127.65625 Z M 47.5625 131.023438 C 47.5625 134.898438 45.472656 135.820312 43.367188 135.820312 L 40.949219 135.820312 L 40.949219 126.320312 L 43.175781 126.320312 C 45.429688 126.320312 47.5625 127.035156 47.5625 131.023438 "/>
<path style=" stroke:none;fill-rule:nonzero;fill:rgb(100%,100%,100%);fill-opacity:1;" d="M 50.789062 135.820312 L 49 135.820312 L 49 126.320312 L 50.789062 126.320312 Z M 50.789062 135.820312 "/>
<path style=" stroke:none;fill-rule:nonzero;fill:rgb(100%,100%,100%);fill-opacity:1;" d="M 58.042969 127.28125 L 57.1875 128.257812 C 56.585938 127.722656 56.007812 127.476562 55.320312 127.476562 C 54.535156 127.476562 54.027344 127.902344 54.027344 128.617188 C 54.027344 129.304688 54.355469 129.648438 55.761719 130.140625 C 57.300781 130.707031 58.289062 131.394531 58.289062 133.113281 C 58.289062 134.773438 57.054688 136.027344 54.988281 136.027344 C 53.574219 136.027344 52.582031 135.488281 51.84375 134.734375 L 52.75 133.730469 C 53.394531 134.296875 54.054688 134.652344 54.921875 134.652344 C 55.84375 134.652344 56.433594 134.117188 56.433594 133.207031 C 56.433594 132.425781 56.089844 132.027344 54.785156 131.570312 C 52.96875 130.925781 52.199219 130.113281 52.199219 128.738281 C 52.199219 127.199219 53.464844 126.113281 55.195312 126.113281 C 56.433594 126.113281 57.300781 126.527344 58.042969 127.28125 "/>
<path style=" stroke:none;fill-rule:nonzero;fill:rgb(100%,100%,100%);fill-opacity:1;" d="M 65.535156 127.105469 L 64.65625 128.136719 C 64.160156 127.722656 63.664062 127.488281 63.074219 127.488281 C 61.933594 127.488281 61.066406 128.382812 61.066406 131.050781 C 61.066406 133.632812 61.90625 134.597656 63.089844 134.597656 C 63.816406 134.597656 64.3125 134.253906 64.78125 133.867188 L 65.632812 134.886719 C 65.066406 135.476562 64.1875 136.027344 63.007812 136.027344 C 60.765625 136.027344 59.199219 134.375 59.199219 131.050781 C 59.199219 127.761719 60.847656 126.113281 62.976562 126.113281 C 64.078125 126.113281 64.820312 126.484375 65.535156 127.105469 "/>
<path style=" stroke:none;fill-rule:nonzero;fill:rgb(100%,100%,100%);fill-opacity:1;" d="M 69.289062 130.71875 C 70.414062 130.71875 70.9375 130.226562 70.9375 129.113281 C 70.9375 128.078125 70.414062 127.625 69.179688 127.625 L 68.476562 127.625 L 68.476562 130.71875 Z M 69.453125 132 L 68.476562 132 L 68.476562 135.820312 L 66.691406 135.820312 L 66.691406 126.320312 L 69.191406 126.320312 C 71.625 126.320312 72.78125 127.28125 72.78125 129.113281 C 72.78125 130.308594 72.230469 131.199219 71.074219 131.667969 L 73.289062 135.820312 L 71.324219 135.820312 Z M 69.453125 132 "/>
<path style=" stroke:none;fill-rule:nonzero;fill:rgb(100%,100%,100%);fill-opacity:1;" d="M 76.109375 135.820312 L 74.320312 135.820312 L 74.320312 126.320312 L 76.109375 126.320312 Z M 76.109375 135.820312 "/>
<path style=" stroke:none;fill-rule:nonzero;fill:rgb(100%,100%,100%);fill-opacity:1;" d="M 86.296875 135.820312 L 84.589844 135.820312 L 84.386719 131.820312 C 84.316406 130.417969 84.261719 128.960938 84.289062 127.957031 L 82.789062 134.789062 L 81.128906 134.789062 L 79.546875 127.941406 C 79.585938 129.207031 79.5625 130.511719 79.503906 131.875 L 79.3125 135.820312 L 77.621094 135.820312 L 78.28125 126.320312 L 80.550781 126.320312 L 81.992188 133.003906 L 83.339844 126.320312 L 85.636719 126.320312 Z M 86.296875 135.820312 "/>
<path style=" stroke:none;fill-rule:nonzero;fill:rgb(100%,100%,100%);fill-opacity:1;" d="M 89.617188 135.820312 L 87.832031 135.820312 L 87.832031 126.320312 L 89.617188 126.320312 Z M 89.617188 135.820312 "/>
<path style=" stroke:none;fill-rule:nonzero;fill:rgb(100%,100%,100%);fill-opacity:1;" d="M 97.847656 135.820312 L 95.566406 135.820312 L 92.789062 128.082031 C 92.871094 128.933594 93.023438 130.128906 93.023438 131.875 L 93.023438 135.820312 L 91.429688 135.820312 L 91.429688 126.320312 L 93.683594 126.320312 L 96.488281 134.058594 C 96.40625 133.523438 96.253906 132.175781 96.253906 130.832031 L 96.253906 126.320312 L 97.847656 126.320312 Z M 97.847656 135.820312 "/>
<path style=" stroke:none;fill-rule:nonzero;fill:rgb(100%,100%,100%);fill-opacity:1;" d="M 103.597656 132.261719 L 102.523438 127.683594 L 101.453125 132.261719 Z M 103.898438 133.609375 L 101.148438 133.609375 L 100.625 135.820312 L 98.824219 135.820312 L 101.464844 126.320312 L 103.636719 126.320312 L 106.261719 135.820312 L 104.421875 135.820312 Z M 103.898438 133.609375 "/>
<path style=" stroke:none;fill-rule:nonzero;fill:rgb(100%,100%,100%);fill-opacity:1;" d="M 111.960938 127.722656 L 109.773438 127.722656 L 109.773438 135.820312 L 108 135.820312 L 108 127.722656 L 105.71875 127.722656 L 105.71875 126.320312 L 112.152344 126.320312 Z M 111.960938 127.722656 "/>
<path style=" stroke:none;fill-rule:nonzero;fill:rgb(100%,100%,100%);fill-opacity:1;" d="M 114.949219 135.820312 L 113.164062 135.820312 L 113.164062 126.320312 L 114.949219 126.320312 Z M 114.949219 135.820312 "/>
<path style=" stroke:none;fill-rule:nonzero;fill:rgb(100%,100%,100%);fill-opacity:1;" d="M 118.265625 131.078125 C 118.265625 133.730469 118.980469 134.667969 120.175781 134.667969 C 121.429688 134.667969 122.101562 133.730469 122.101562 131.0625 C 122.101562 128.4375 121.429688 127.476562 120.175781 127.476562 C 118.953125 127.476562 118.265625 128.4375 118.265625 131.078125 M 123.972656 131.0625 C 123.972656 134.308594 122.527344 136.027344 120.175781 136.027344 C 117.855469 136.027344 116.394531 134.363281 116.394531 131.078125 C 116.394531 127.847656 117.855469 126.113281 120.175781 126.113281 C 122.515625 126.113281 123.972656 127.765625 123.972656 131.0625 "/>
<path style=" stroke:none;fill-rule:nonzero;fill:rgb(100%,100%,100%);fill-opacity:1;" d="M 131.839844 135.820312 L 129.558594 135.820312 L 126.777344 128.082031 C 126.859375 128.933594 127.011719 130.128906 127.011719 131.875 L 127.011719 135.820312 L 125.417969 135.820312 L 125.417969 126.320312 L 127.671875 126.320312 L 130.476562 134.058594 C 130.394531 133.523438 130.242188 132.175781 130.242188 130.832031 L 130.242188 126.320312 L 131.839844 126.320312 Z M 131.839844 135.820312 "/>
<path style=" stroke:none;fill-rule:nonzero;fill:rgb(100%,100%,100%);fill-opacity:1;" d="M 65.042969 55.738281 L 61.222656 51.925781 C 59.410156 50.117188 58.03125 47.933594 57.238281 45.609375 C 57.207031 45.480469 56.441406 41.46875 54.042969 39.078125 L 47.488281 32.535156 L 48.371094 31.652344 L 54.925781 38.191406 C 57.605469 40.863281 58.410156 45.113281 58.441406 45.292969 C 59.152344 47.351562 60.425781 49.367188 62.105469 51.042969 L 65.925781 54.855469 Z M 65.042969 55.738281 "/>
<path style=" stroke:none;fill-rule:nonzero;fill:rgb(100%,100%,100%);fill-opacity:1;" d="M 68.71875 33.179688 L 57.78125 22.269531 L 58.664062 21.382812 L 69.601562 32.296875 Z M 68.71875 33.179688 "/>
<path style=" stroke:none;fill-rule:nonzero;fill:rgb(100%,100%,100%);fill-opacity:1;" d="M 46.59375 70.804688 L 45.710938 69.917969 L 51.371094 64.269531 C 52.457031 63.1875 53.117188 61.710938 53.226562 60.117188 C 53.414062 57.359375 54.292969 54.589844 55.773438 52.101562 L 58.535156 47.46875 L 59.613281 48.109375 L 56.847656 52.742188 C 55.46875 55.0625 54.648438 57.640625 54.472656 60.199219 C 54.34375 62.097656 53.554688 63.855469 52.253906 65.15625 Z M 46.59375 70.804688 "/>
<path style=" stroke:none;fill-rule:nonzero;fill:rgb(100%,100%,100%);fill-opacity:1;" d="M 55.898438 80.089844 L 55.015625 79.203125 L 58.753906 75.472656 C 61.433594 72.804688 65.691406 72 65.871094 71.96875 C 67.933594 71.257812 69.957031 69.984375 71.632812 68.3125 L 75.996094 63.960938 L 76.878906 64.847656 L 72.515625 69.199219 C 70.707031 71.007812 68.515625 72.378906 66.183594 73.171875 C 66.054688 73.203125 62.035156 73.96875 59.636719 76.359375 Z M 55.898438 80.089844 "/>
<path style=" stroke:none;fill-rule:nonzero;fill:rgb(100%,100%,100%);fill-opacity:1;" d="M 93.117188 50.203125 L 92.535156 49.546875 C 92.316406 49.304688 92.09375 49.066406 91.859375 48.832031 L 92.742188 47.945312 C 92.789062 47.992188 92.832031 48.035156 92.875 48.082031 L 93.113281 47.660156 C 94.429688 45.320312 95.183594 42.734375 95.296875 40.179688 C 95.382812 38.253906 96.191406 36.390625 97.574219 34.933594 L 103.363281 28.515625 L 104.289062 29.351562 L 98.492188 35.78125 C 97.304688 37.03125 96.617188 38.609375 96.546875 40.234375 C 96.421875 42.984375 95.613281 45.765625 94.203125 48.269531 Z M 93.117188 50.203125 "/>
<path style=" stroke:none;fill-rule:nonzero;fill:rgb(100%,100%,100%);fill-opacity:1;" d="M 77.167969 33.273438 L 76.265625 32.410156 L 77.03125 31.605469 C 78.796875 29.753906 80.953125 28.324219 83.261719 27.472656 C 83.390625 27.4375 87.390625 26.574219 89.726562 24.121094 L 93.945312 19.910156 L 94.828125 20.796875 L 90.617188 24.992188 C 88.023438 27.722656 83.785156 28.632812 83.605469 28.667969 C 81.5625 29.429688 79.570312 30.753906 77.9375 32.46875 Z M 77.167969 33.273438 "/>
<path style=" stroke:none;fill-rule:nonzero;fill:rgb(100%,100%,100%);fill-opacity:1;" d="M 94.273438 75.5 L 85.949219 67.191406 C 82.464844 67.449219 78.808594 66.550781 75.613281 64.65625 L 66.089844 59.007812 C 64.554688 58.09375 64.328125 56.453125 64.777344 55.226562 C 65.222656 54.03125 66.445312 52.953125 68.167969 53.253906 C 68.90625 53.394531 69.53125 53.628906 70.101562 53.964844 L 71.113281 54.566406 L 61.929688 45.402344 C 61.375 44.847656 61.066406 44.109375 61.066406 43.324219 C 61.066406 42.53125 61.378906 41.785156 61.9375 41.222656 C 62.390625 40.773438 62.953125 40.5 63.539062 40.398438 L 62.648438 39.511719 C 62.089844 38.957031 61.785156 38.21875 61.785156 37.433594 C 61.785156 36.640625 62.09375 35.894531 62.65625 35.332031 C 63.621094 34.371094 65.089844 34.207031 66.21875 34.847656 C 66.300781 34.195312 66.59375 33.59375 67.066406 33.125 C 68.15625 32.035156 69.882812 31.96875 71.042969 32.921875 C 71.140625 32.316406 71.429688 31.757812 71.875 31.3125 C 73.03125 30.160156 74.910156 30.152344 76.058594 31.300781 L 92.742188 47.945312 C 94.554688 49.753906 95.933594 51.9375 96.726562 54.265625 C 96.757812 54.394531 97.523438 58.40625 99.921875 60.796875 L 103.640625 64.507812 L 102.757812 65.390625 L 99.039062 61.679688 C 96.359375 59.007812 95.554688 54.757812 95.523438 54.578125 C 94.8125 52.523438 93.539062 50.503906 91.859375 48.832031 L 75.175781 32.1875 C 74.511719 31.523438 73.429688 31.527344 72.757812 32.199219 C 72.433594 32.523438 72.253906 32.953125 72.253906 33.410156 C 72.253906 33.863281 72.429688 34.289062 72.75 34.605469 L 83.113281 44.949219 L 82.230469 45.832031 L 70.367188 33.996094 C 69.707031 33.335938 68.621094 33.339844 67.949219 34.007812 C 67.625 34.332031 67.445312 34.765625 67.445312 35.222656 C 67.445312 35.675781 67.621094 36.097656 67.9375 36.417969 L 78.011719 46.464844 L 77.128906 47.351562 L 65.960938 36.207031 C 65.296875 35.546875 64.210938 35.546875 63.539062 36.21875 C 63.214844 36.542969 63.035156 36.972656 63.035156 37.429688 C 63.035156 37.882812 63.210938 38.308594 63.53125 38.625 L 74.699219 49.769531 L 73.816406 50.65625 L 65.242188 42.097656 C 64.578125 41.4375 63.492188 41.441406 62.820312 42.109375 C 62.496094 42.433594 62.316406 42.867188 62.316406 43.324219 C 62.316406 43.777344 62.492188 44.199219 62.8125 44.519531 L 75.003906 56.679688 L 74.503906 58.03125 L 69.464844 55.042969 C 69.019531 54.777344 68.53125 54.59375 68.007812 54.496094 C 66.863281 54.296875 66.195312 55 65.953125 55.664062 C 65.699219 56.347656 65.75 57.351562 66.730469 57.929688 L 76.25 63.578125 C 79.3125 65.394531 82.820312 66.226562 86.128906 65.921875 L 86.421875 65.894531 L 95.15625 74.613281 Z M 94.273438 75.5 "/>
</g>
</svg>
