<?xml version="1.0" encoding="UTF-8" standalone="no"?>
<!DOCTYPE svg PUBLIC "-//W3C//DTD SVG 1.1//EN" "http://www.w3.org/Graphics/SVG/1.1/DTD/svg11.dtd">
<svg xmlns="http://www.w3.org/2000/svg" xmlns:xlink="http://www.w3.org/1999/xlink" version="1.1" width="150pt" height="150pt" viewBox="0 0 150 150">
<g enable-background="new">
<g id="Layer-1" data-name="03 Negative EN">
<path transform="matrix(1,0,0,-1,0,150)" d="M 0 50.073 L 149.95 50.073 L 149.95 150 L 0 150 Z " fill="#003366"/>
<path transform="matrix(1,0,0,-1,0,150)" d="M 0 .073 L 149.95 .073 L 149.95 50.073 L 0 50.073 Z " fill="#086ba0"/>
<clipPath id="cp0">
<path transform="matrix(1,0,0,-1,0,150)" d="M 0 150 L 150 150 L 150 0 L 0 0 Z "/>
</clipPath>
<g clip-path="url(#cp0)">
<path transform="matrix(1,0,0,-1,19.6805,119.5576)" d="M 0 0 C 0 -3.851 -1.547 -6.65 -7.23 -13.722 L .387 -13.722 L -.06 -17.502 L -11.753 -17.502 L -11.753 -13.967 C -5.653 -5.916 -4.255 -3.605 -4.255 -.385 C -4.255 1.646 -5.178 2.766 -6.605 2.766 C -7.944 2.766 -8.808 1.995 -9.908 .385 L -12.378 2.625 C -10.891 5.075 -8.867 6.546 -6.219 6.546 C -2.202 6.546 0 3.605 0 0 " fill="#ffffff"/>
<path transform="matrix(1,0,0,-1,32.699,119.5576)" d="M 0 0 C 0 -3.851 -1.547 -6.65 -7.23 -13.722 L .387 -13.722 L -.06 -17.502 L -11.753 -17.502 L -11.753 -13.967 C -5.653 -5.916 -4.255 -3.605 -4.255 -.385 C -4.255 1.646 -5.178 2.766 -6.605 2.766 C -7.944 2.766 -8.808 1.995 -9.908 .385 L -12.378 2.625 C -10.891 5.075 -8.867 6.546 -6.219 6.546 C -2.202 6.546 0 3.605 0 0 " fill="#ffffff"/>
<path transform="matrix(1,0,0,-1,46.3513,114.7832)" d="M 0 0 L -.853 -.976 C -1.457 -.439 -2.034 -.191 -2.722 -.191 C -3.506 -.191 -4.014 -.618 -4.014 -1.333 C -4.014 -2.021 -3.685 -2.364 -2.282 -2.859 C -.742 -3.423 .248 -4.11 .248 -5.828 C .248 -7.492 -.989 -8.743 -3.052 -8.743 C -4.468 -8.743 -5.458 -8.207 -6.2 -7.451 L -5.293 -6.447 C -4.646 -7.012 -3.986 -7.369 -3.12 -7.369 C -2.199 -7.369 -1.608 -6.832 -1.608 -5.925 C -1.608 -5.141 -1.952 -4.742 -3.258 -4.289 C -5.072 -3.643 -5.843 -2.832 -5.843 -1.457 C -5.843 .083 -4.578 1.169 -2.846 1.169 C -1.608 1.169 -.742 .757 0 0 " fill="#ffffff"/>
<path transform="matrix(1,0,0,-1,49.3836,118.5771)" d="M 0 0 C 0 -2.653 .715 -3.589 1.911 -3.589 C 3.162 -3.589 3.836 -2.653 3.836 .014 C 3.836 2.64 3.162 3.603 1.911 3.603 C .687 3.603 0 2.64 0 0 M 5.706 .014 C 5.706 -3.231 4.263 -4.949 1.911 -4.949 C -.412 -4.949 -1.869 -3.286 -1.869 0 C -1.869 3.231 -.412 4.963 1.911 4.963 C 4.249 4.963 5.706 3.313 5.706 .014 " fill="#ffffff"/>
<path transform="matrix(1,0,0,-1,62.4783,114.6035)" d="M 0 0 L -.88 -1.031 C -1.375 -.619 -1.869 -.385 -2.461 -.385 C -3.602 -.385 -4.468 -1.279 -4.468 -3.946 C -4.468 -6.531 -3.629 -7.493 -2.447 -7.493 C -1.718 -7.493 -1.224 -7.149 -.756 -6.765 L .097 -7.781 C -.467 -8.373 -1.347 -8.923 -2.529 -8.923 C -4.771 -8.923 -6.338 -7.273 -6.338 -3.946 C -6.338 -.66 -4.687 .989 -2.557 .989 C -1.457 .989 -.715 .618 0 0 " fill="#ffffff"/>
<path transform="matrix(1,0,0,-1,0,150)" d="M 65.421 26.68 L 63.634 26.68 L 63.634 36.18 L 65.421 36.18 Z " fill="#ffffff"/>
<path transform="matrix(1,0,0,-1,71.1541,119.759799)" d="M 0 0 L -1.072 4.578 L -2.145 0 Z M .303 -1.348 L -2.447 -1.348 L -2.97 -3.561 L -4.771 -3.561 L -2.131 5.939 L .041 5.939 L 2.667 -3.561 L .825 -3.561 Z " fill="#ffffff"/>
<path transform="matrix(1,0,0,-1,76.5779,121.8633)" d="M 0 0 L 3.383 0 L 3.189 -1.457 L -1.787 -1.457 L -1.787 8.043 L 0 8.043 Z " fill="#ffffff"/>
<path transform="matrix(1,0,0,-1,45.2244,129.3447)" d="M 0 0 C 0 1.196 -.591 1.718 -1.801 1.718 L -2.488 1.718 L -2.488 -1.815 L -1.801 -1.815 C -.633 -1.815 0 -1.389 0 0 M 1.842 0 C 1.842 -2.159 .439 -3.148 -1.691 -3.148 L -2.488 -3.148 L -2.488 -6.476 L -4.275 -6.476 L -4.275 3.024 L -1.814 3.024 C .522 3.024 1.842 2.021 1.842 0 " fill="#ffffff"/>
<path transform="matrix(1,0,0,-1,50.7918,130.7197)" d="M 0 0 C 1.127 0 1.649 .495 1.649 1.608 C 1.649 2.64 1.127 3.093 -.11 3.093 L -.812 3.093 L -.812 0 Z M .165 -1.278 L -.812 -1.278 L -.812 -5.101 L -2.599 -5.101 L -2.599 4.399 L -.097 4.399 C 2.337 4.399 3.492 3.437 3.492 1.608 C 3.492 .413 2.942 -.481 1.787 -.948 L 4.001 -5.101 L 2.034 -5.101 Z " fill="#ffffff"/>
<path transform="matrix(1,0,0,-1,57.1775,131.0771)" d="M 0 0 C 0 -2.653 .715 -3.589 1.911 -3.589 C 3.162 -3.589 3.836 -2.653 3.836 .014 C 3.836 2.64 3.162 3.603 1.911 3.603 C .687 3.603 0 2.64 0 0 M 5.705 .014 C 5.705 -3.231 4.262 -4.949 1.911 -4.949 C -.412 -4.949 -1.87 -3.286 -1.87 0 C -1.87 3.231 -.412 4.963 1.911 4.963 C 4.248 4.963 5.705 3.313 5.705 .014 " fill="#ffffff"/>
<path transform="matrix(1,0,0,-1,69.6326,127.7227)" d="M 0 0 L -2.186 0 L -2.186 -8.098 L -3.959 -8.098 L -3.959 0 L -6.241 0 L -6.241 1.402 L .193 1.402 Z " fill="#ffffff"/>
<path transform="matrix(1,0,0,-1,75.7176,127.6406)" d="M 0 0 L -3.094 0 L -3.094 -2.694 L -.385 -2.694 L -.385 -4 L -3.094 -4 L -3.094 -6.846 L .22 -6.846 L .22 -8.18 L -4.881 -8.18 L -4.881 1.32 L .192 1.32 Z " fill="#ffffff"/>
<path transform="matrix(1,0,0,-1,83.0076,127.1035)" d="M 0 0 L -.88 -1.031 C -1.375 -.619 -1.87 -.385 -2.461 -.385 C -3.603 -.385 -4.469 -1.279 -4.469 -3.946 C -4.469 -6.531 -3.63 -7.493 -2.447 -7.493 C -1.719 -7.493 -1.224 -7.149 -.756 -6.765 L .096 -7.781 C -.468 -8.373 -1.348 -8.923 -2.53 -8.923 C -4.771 -8.923 -6.338 -7.273 -6.338 -3.946 C -6.338 -.66 -4.688 .989 -2.558 .989 C -1.457 .989 -.715 .618 0 0 " fill="#ffffff"/>
<path transform="matrix(1,0,0,-1,89.9441,127.7227)" d="M 0 0 L -2.186 0 L -2.186 -8.098 L -3.959 -8.098 L -3.959 0 L -6.241 0 L -6.241 1.402 L .193 1.402 Z " fill="#ffffff"/>
<path transform="matrix(1,0,0,-1,0,150)" d="M 92.935 14.18 L 91.147998 14.18 L 91.147998 23.68 L 92.935 23.68 Z " fill="#ffffff"/>
<path transform="matrix(1,0,0,-1,96.2508,131.0771)" d="M 0 0 C 0 -2.653 .715 -3.589 1.911 -3.589 C 3.162 -3.589 3.836 -2.653 3.836 .014 C 3.836 2.64 3.162 3.603 1.911 3.603 C .687 3.603 0 2.64 0 0 M 5.706 .014 C 5.706 -3.231 4.263 -4.949 1.911 -4.949 C -.412 -4.949 -1.869 -3.286 -1.869 0 C -1.869 3.231 -.412 4.963 1.911 4.963 C 4.249 4.963 5.706 3.313 5.706 .014 " fill="#ffffff"/>
<path transform="matrix(1,0,0,-1,109.823,135.8203)" d="M 0 0 L -2.282 0 L -5.06 7.74 C -4.978 6.888 -4.826 5.691 -4.826 3.945 L -4.826 0 L -6.421 0 L -6.421 9.5 L -4.166 9.5 L -1.361 1.76 C -1.444 2.296 -1.595 3.643 -1.595 4.99 L -1.595 9.5 L 0 9.5 Z " fill="#ffffff"/>
<path transform="matrix(1,0,0,-1,74.9305,34.2651)" d="M 0 0 C -3.354 0 -6.083 -2.716 -6.083 -6.054 C -6.083 -9.392 -3.354 -12.108 0 -12.108 C 3.354 -12.108 6.084 -9.392 6.084 -6.054 C 6.084 -2.716 3.354 0 0 0 M 0 -13.358 C -4.043 -13.358 -7.333 -10.082 -7.333 -6.054 C -7.333 -2.027 -4.043 1.25 0 1.25 C 4.044 1.25 7.334 -2.027 7.334 -6.054 C 7.334 -10.082 4.044 -13.358 0 -13.358 " fill="#ffffff"/>
<path transform="matrix(1,0,0,-1,86.5125,58.791)" d="M 0 0 L -1.25 0 C -1.25 3.979 -4.503 7.217 -8.502 7.217 L -14.661 7.217 C -18.66 7.217 -21.913 3.979 -21.913 0 L -23.163 0 C -23.163 4.669 -19.35 8.467 -14.661 8.467 L -8.502 8.467 C -3.813 8.467 0 4.669 0 0 " fill="#ffffff"/>
<path transform="matrix(1,0,0,-1,54.3055,54.8667)" d="M 0 0 L -1.191 .376 L 2.531 12.166 C 2.844 13.143 2.449 14.197 1.57 14.732 L .243 15.432 L .403 16.76 L 2.188 15.819 C 3.594 14.963 4.211 13.313 3.722 11.787 Z " fill="#ffffff"/>
<path transform="matrix(1,0,0,-1,62.5144,80.0625)" d="M 0 0 C -.163 0 -.326 .063 -.448 .189 C -8.121 8.093 -9.493 12.246 -9.548 12.419 L -15.367 28.893 C -15.663 29.725 -15.669 30.644 -15.385 31.481 L -11.022 44.305 C -10.911 44.631 -10.554 44.808 -10.231 44.696 L -9.258 44.368 C -8.346 44.06 -7.609 43.417 -7.185 42.556 C -6.761 41.699 -6.697 40.728 -7.005 39.823 L -9.794 31.625 C -9.918 31.257 -9.916 30.854 -9.786 30.489 L -7.396 23.753 C -6.994 22.621 -5.742 22.024 -4.604 22.427 L -4.307 22.532 L -5.707 26.477 C -6.217 27.913 -5.953 29.555 -5.003 30.871 C -4.51 31.552 -3.679 31.899 -2.845 31.781 C -2 31.66 -1.3 31.088 -1.016 30.289 L 2.249 21.087 C 2.26 21.066 4.587 15.406 -1.089 12.384 C -1.396 12.221 -1.773 12.338 -1.935 12.642 C -2.097 12.946 -1.981 13.325 -1.677 13.487 C 3 15.978 1.165 20.445 1.085 20.634 L -2.193 29.871 C -2.323 30.236 -2.633 30.488 -3.022 30.544 C -3.396 30.597 -3.767 30.447 -3.989 30.138 C -4.699 29.156 -4.901 27.943 -4.529 26.895 L -2.919 22.359 C -2.863 22.203 -2.872 22.03 -2.944 21.88 C -3.016 21.73 -3.144 21.615 -3.301 21.56 L -4.189 21.248 C -5.974 20.622 -7.943 21.556 -8.574 23.335 L -10.964 30.071 C -11.188 30.698 -11.192 31.393 -10.978 32.026 L -8.188 40.226 C -7.988 40.814 -8.029 41.445 -8.305 42.003 C -8.582 42.563 -9.063 42.982 -9.656 43.183 L -10.04 43.312 L -14.201 31.079 C -14.396 30.507 -14.392 29.879 -14.189 29.31 L -8.363 12.815 C -8.344 12.758 -6.969 8.7 .448 1.061 C .688 .812 .683 .417 .436 .177 C .313 .059 .157 0 0 0 " fill="#ffffff"/>
<path transform="matrix(1,0,0,-1,68.201,74.4771)" d="M 0 0 C -.159 0 -.319 .061 -.44 .182 C -3.783 3.507 -5.48 6.268 -6.316 7.998 C -6.467 8.309 -6.337 8.683 -6.025 8.833 C -5.718 8.98 -5.341 8.853 -5.191 8.542 C -4.397 6.899 -2.776 4.269 .44 1.068 C .686 .825 .687 .429 .443 .184 C .321 .062 .16 0 0 0 " fill="#ffffff"/>
<path transform="matrix(1,0,0,-1,95.5564,54.8667)" d="M 0 0 L -3.723 11.79 C -4.211 13.313 -3.594 14.963 -2.221 15.8 L -.403 16.76 L .181 15.655 L -1.604 14.713 C -2.449 14.197 -2.844 13.143 -2.532 12.168 L 1.191 .376 Z " fill="#ffffff"/>
<path transform="matrix(1,0,0,-1,86.9724,79.9629)" d="M 0 0 C -.16 0 -.321 .062 -.443 .185 C -.687 .429 -.686 .824 -.44 1.068 C 7.108 8.579 8.554 12.612 8.567 12.652 L 14.686 29.06 C 14.898 29.625 14.913 30.253 14.729 30.83 L 10.781 43.132 L 10.396 43.01 C 9.798 42.82 9.311 42.408 9.023 41.852 C 8.738 41.299 8.687 40.669 8.876 40.078 L 11.521 31.833 C 11.727 31.196 11.71 30.501 11.475 29.876 L 8.968 23.184 C 8.306 21.417 6.325 20.511 4.547 21.172 L 3.664 21.5 C 3.509 21.559 3.382 21.676 3.313 21.827 C 3.244 21.978 3.238 22.15 3.297 22.306 L 4.985 26.813 C 5.376 27.855 5.195 29.07 4.503 30.065 C 4.285 30.377 3.925 30.534 3.543 30.488 C 3.153 30.438 2.839 30.192 2.702 29.829 L -.723 20.685 C -.819 20.463 -2.71 16.014 1.899 13.457 C 2.202 13.289 2.311 12.909 2.144 12.607 C 1.976 12.305 1.595 12.196 1.294 12.364 C -4.33 15.483 -1.903 21.103 -1.878 21.159 L 1.532 30.267 C 1.83 31.062 2.541 31.622 3.388 31.728 C 4.223 31.83 5.047 31.471 5.528 30.779 C 6.456 29.447 6.69 27.801 6.155 26.375 L 4.687 22.454 L 4.982 22.344 C 6.112 21.924 7.376 22.497 7.798 23.623 L 10.305 30.315 C 10.44 30.678 10.45 31.081 10.332 31.451 L 7.687 39.696 C 7.394 40.605 7.475 41.575 7.912 42.424 C 8.353 43.278 9.1 43.909 10.018 44.202 L 10.996 44.513 C 11.328 44.62 11.675 44.436 11.78 44.108 L 15.919 31.211 C 16.189 30.368 16.167 29.448 15.856 28.622 L 9.745 12.233 C 9.694 12.081 8.25 7.951 .44 .182 C .319 .061 .159 0 0 0 " fill="#ffffff"/>
<path transform="matrix(1,0,0,-1,81.6609,74.4771)" d="M 0 0 C -.16 0 -.321 .062 -.443 .184 C -.687 .429 -.686 .825 -.44 1.068 C 2.776 4.269 4.397 6.899 5.191 8.542 C 5.341 8.854 5.719 8.981 6.025 8.833 C 6.337 8.683 6.467 8.309 6.316 7.998 C 5.48 6.268 3.783 3.507 .44 .182 C .319 .061 .159 0 0 0 " fill="#ffffff"/>
<path transform="matrix(1,0,0,-1,0,150)" d="M 74.999 125.246 L 73.749 125.246 L 73.749 130.063 L 74.999 130.063 Z " fill="#ffffff"/>
<path transform="matrix(1,0,0,-1,63.3113,29.577599)" d="M 0 0 L -3.421 3.406 L -2.538 4.292 L .883 .886 Z " fill="#ffffff"/>
<path transform="matrix(1,0,0,-1,85.4363,29.577599)" d="M 0 0 L -.883 .886 L 2.538 4.292 L 3.421 3.406 Z " fill="#ffffff"/>
<path transform="matrix(1,0,0,-1,68.0486,26.1333)" d="M 0 0 L -1.852 4.451 L -.697 4.931 L 1.154 .48 Z " fill="#ffffff"/>
<path transform="matrix(1,0,0,-1,88.489,34.564004)" d="M 0 0 L -.477 1.155 L 3.993 2.999 L 4.47 1.843 Z " fill="#ffffff"/>
<path transform="matrix(1,0,0,-1,60.2586,34.564004)" d="M 0 0 L -4.47 1.843 L -3.993 2.999 L .477 1.155 Z " fill="#ffffff"/>
<path transform="matrix(1,0,0,-1,80.699,26.1333)" d="M 0 0 L -1.154 .48 L .697 4.931 L 1.852 4.451 Z " fill="#ffffff"/>
<path transform="matrix(1,0,0,-1,70.7722,25.178704)" d="M 0 0 L -.963 4.721 L .262 4.971 L 1.225 .25 Z " fill="#ffffff"/>
<path transform="matrix(1,0,0,-1,61.5076,31.972702)" d="M 0 0 L -4.033 2.66 L -3.346 3.704 L .687 1.044 Z " fill="#ffffff"/>
<path transform="matrix(1,0,0,-1,83.1892,27.587899)" d="M 0 0 L -1.041 .692 L 1.631 4.708 L 2.672 4.016 Z " fill="#ffffff"/>
<path transform="matrix(1,0,0,-1,65.4617,27.658699)" d="M 0 0 L -2.704 3.995 L -1.669 4.696 L 1.035 .701 Z " fill="#ffffff"/>
<path transform="matrix(1,0,0,-1,87.1785,31.870598)" d="M 0 0 L -.697 1.038 L 3.314 3.73 L 4.012 2.692 Z " fill="#ffffff"/>
<path transform="matrix(1,0,0,-1,77.8582,25.150399)" d="M 0 0 L -1.227 .24 L -.301 4.968 L .926 4.728 Z " fill="#ffffff"/>
</g>
</g>
</g>
</svg>
