<?xml version="1.0" encoding="UTF-8"?>
<svg xmlns="http://www.w3.org/2000/svg" xmlns:xlink="http://www.w3.org/1999/xlink" width="150pt" height="150pt" viewBox="0 0 150 150" version="1.1">
<g id="surface1">
<path style=" stroke:none;fill-rule:nonzero;fill:rgb(10.998535%,21.199036%,39.199829%);fill-opacity:1;" d="M 0 99.925781 L 149.949219 99.925781 L 149.949219 0 L 0 0 Z M 0 99.925781 "/>
<path style=" stroke:none;fill-rule:nonzero;fill:rgb(93.299866%,24.699402%,16.899109%);fill-opacity:1;" d="M 0 149.925781 L 149.949219 149.925781 L 149.949219 99.925781 L 0 99.925781 Z M 0 149.925781 "/>
<path style=" stroke:none;fill-rule:nonzero;fill:rgb(100%,100%,100%);fill-opacity:1;" d="M 21.207031 124.703125 C 20.164062 124.703125 19.183594 125.578125 18.378906 126.976562 C 18.4375 132.160156 19.121094 134.050781 20.96875 134.050781 C 22.574219 134.050781 23.347656 132.300781 23.347656 129.078125 C 23.378906 125.71875 22.542969 124.703125 21.207031 124.703125 M 27.484375 129.007812 C 27.484375 134.117188 24.984375 137.621094 20.96875 137.621094 C 16.179688 137.621094 14.152344 133.210938 14.152344 126.207031 C 14.152344 118.15625 17.128906 113.011719 21.980469 113.011719 C 23.675781 113.011719 25.015625 113.605469 26.054688 114.515625 L 24.566406 117.457031 C 23.792969 116.898438 23.019531 116.546875 22.097656 116.546875 C 20.015625 116.546875 18.644531 118.964844 18.378906 123.652344 C 19.480469 122.007812 20.820312 121.273438 22.335938 121.273438 C 25.222656 121.273438 27.484375 124.003906 27.484375 129.007812 "/>
<path style=" stroke:none;fill-rule:nonzero;fill:rgb(100%,100%,100%);fill-opacity:1;" d="M 43.480469 118.21875 C 44.59375 118.21875 45.113281 117.726562 45.113281 116.613281 C 45.113281 115.582031 44.59375 115.125 43.371094 115.125 L 42.675781 115.125 L 42.675781 118.21875 Z M 43.640625 119.5 L 42.675781 119.5 L 42.675781 123.320312 L 40.90625 123.320312 L 40.90625 113.820312 L 43.382812 113.820312 C 45.792969 113.820312 46.9375 114.78125 46.9375 116.613281 C 46.9375 117.808594 46.390625 118.699219 45.25 119.167969 L 47.4375 123.320312 L 45.492188 123.320312 Z M 43.640625 119.5 "/>
<path style=" stroke:none;fill-rule:nonzero;fill:rgb(100%,100%,100%);fill-opacity:1;" d="M 53.019531 115.140625 L 49.957031 115.140625 L 49.957031 117.835938 L 52.640625 117.835938 L 52.640625 119.140625 L 49.957031 119.140625 L 49.957031 121.988281 L 53.238281 121.988281 L 53.238281 123.320312 L 48.1875 123.320312 L 48.1875 113.820312 L 53.210938 113.820312 Z M 53.019531 115.140625 "/>
<path style=" stroke:none;fill-rule:nonzero;fill:rgb(100%,100%,100%);fill-opacity:1;" d="M 59.96875 114.605469 L 59.097656 115.636719 C 58.605469 115.222656 58.117188 114.988281 57.53125 114.988281 C 56.402344 114.988281 55.542969 115.882812 55.542969 118.550781 C 55.542969 121.132812 56.375 122.097656 57.542969 122.097656 C 58.265625 122.097656 58.753906 121.753906 59.21875 121.371094 L 60.0625 122.386719 C 59.503906 122.976562 58.632812 123.527344 57.460938 123.527344 C 55.242188 123.527344 53.691406 121.878906 53.691406 118.550781 C 53.691406 115.265625 55.324219 113.617188 57.4375 113.617188 C 58.523438 113.617188 59.257812 113.988281 59.96875 114.605469 "/>
<path style=" stroke:none;fill-rule:nonzero;fill:rgb(100%,100%,100%);fill-opacity:1;" d="M 63.410156 118.21875 C 64.527344 118.21875 65.042969 117.726562 65.042969 116.613281 C 65.042969 115.582031 64.527344 115.125 63.304688 115.125 L 62.609375 115.125 L 62.609375 118.21875 Z M 63.574219 119.5 L 62.609375 119.5 L 62.609375 123.320312 L 60.839844 123.320312 L 60.839844 113.820312 L 63.316406 113.820312 C 65.726562 113.820312 66.867188 114.78125 66.867188 116.613281 C 66.867188 117.808594 66.324219 118.699219 65.183594 119.167969 L 67.371094 123.320312 L 65.425781 123.320312 Z M 63.574219 119.5 "/>
<path style=" stroke:none;fill-rule:nonzero;fill:rgb(100%,100%,100%);fill-opacity:1;" d="M 74.339844 120.460938 C 74.339844 122.191406 73.25 123.527344 71.128906 123.527344 C 68.976562 123.527344 67.914062 122.234375 67.914062 120.460938 L 67.914062 113.820312 L 69.6875 113.820312 L 69.6875 120.363281 C 69.6875 121.546875 70.121094 122.140625 71.128906 122.140625 C 72.121094 122.140625 72.570312 121.546875 72.570312 120.363281 L 72.570312 113.820312 L 74.339844 113.820312 Z M 74.339844 120.460938 "/>
<path style=" stroke:none;fill-rule:nonzero;fill:rgb(100%,100%,100%);fill-opacity:1;" d="M 77.570312 123.320312 L 75.800781 123.320312 L 75.800781 113.820312 L 77.570312 113.820312 Z M 77.570312 123.320312 "/>
<path style=" stroke:none;fill-rule:nonzero;fill:rgb(100%,100%,100%);fill-opacity:1;" d="M 84.503906 115.222656 L 82.339844 115.222656 L 82.339844 123.320312 L 80.582031 123.320312 L 80.582031 115.222656 L 78.324219 115.222656 L 78.324219 113.820312 L 84.691406 113.820312 Z M 84.503906 115.222656 "/>
<path style=" stroke:none;fill-rule:nonzero;fill:rgb(100%,100%,100%);fill-opacity:1;" d="M 93.511719 123.320312 L 91.824219 123.320312 L 91.621094 119.320312 C 91.554688 117.917969 91.5 116.460938 91.527344 115.457031 L 90.042969 122.289062 L 88.394531 122.289062 L 86.828125 115.441406 C 86.871094 116.707031 86.84375 118.015625 86.789062 119.375 L 86.597656 123.320312 L 84.925781 123.320312 L 85.578125 113.820312 L 87.824219 113.820312 L 89.253906 120.503906 L 90.585938 113.820312 L 92.859375 113.820312 Z M 93.511719 123.320312 "/>
<path style=" stroke:none;fill-rule:nonzero;fill:rgb(100%,100%,100%);fill-opacity:1;" d="M 99.578125 115.140625 L 96.515625 115.140625 L 96.515625 117.835938 L 99.199219 117.835938 L 99.199219 119.140625 L 96.515625 119.140625 L 96.515625 121.988281 L 99.796875 121.988281 L 99.796875 123.320312 L 94.746094 123.320312 L 94.746094 113.820312 L 99.769531 113.820312 Z M 99.578125 115.140625 "/>
<path style=" stroke:none;fill-rule:nonzero;fill:rgb(100%,100%,100%);fill-opacity:1;" d="M 107.164062 123.320312 L 104.90625 123.320312 L 102.15625 115.582031 C 102.238281 116.433594 102.386719 117.628906 102.386719 119.375 L 102.386719 123.320312 L 100.808594 123.320312 L 100.808594 113.820312 L 103.039062 113.820312 L 105.816406 121.5625 C 105.734375 121.023438 105.585938 119.675781 105.585938 118.332031 L 105.585938 113.820312 L 107.164062 113.820312 Z M 107.164062 123.320312 "/>
<path style=" stroke:none;fill-rule:nonzero;fill:rgb(100%,100%,100%);fill-opacity:1;" d="M 114.113281 115.222656 L 111.949219 115.222656 L 111.949219 123.320312 L 110.195312 123.320312 L 110.195312 115.222656 L 107.933594 115.222656 L 107.933594 113.820312 L 114.304688 113.820312 Z M 114.113281 115.222656 "/>
<path style=" stroke:none;fill-rule:nonzero;fill:rgb(100%,100%,100%);fill-opacity:1;" d="M 44.648438 132.261719 L 43.585938 127.683594 L 42.527344 132.261719 Z M 44.949219 133.609375 L 42.226562 133.609375 L 41.710938 135.820312 L 39.925781 135.820312 L 42.539062 126.320312 L 44.691406 126.320312 L 47.289062 135.820312 L 45.464844 135.820312 Z M 44.949219 133.609375 "/>
<path style=" stroke:none;fill-rule:nonzero;fill:rgb(100%,100%,100%);fill-opacity:1;" d="M 54.335938 135.820312 L 52.074219 135.820312 L 49.324219 128.082031 C 49.40625 128.933594 49.558594 130.128906 49.558594 131.875 L 49.558594 135.820312 L 47.980469 135.820312 L 47.980469 126.320312 L 50.210938 126.320312 L 52.988281 134.0625 C 52.90625 133.523438 52.753906 132.175781 52.753906 130.832031 L 52.753906 126.320312 L 54.335938 126.320312 Z M 54.335938 135.820312 "/>
<path style=" stroke:none;fill-rule:nonzero;fill:rgb(100%,100%,100%);fill-opacity:1;" d="M 57.640625 127.65625 L 57.640625 134.488281 L 58.390625 134.488281 C 59.617188 134.488281 60.59375 133.871094 60.59375 131.023438 C 60.59375 128.121094 59.558594 127.65625 58.347656 127.65625 Z M 62.417969 131.023438 C 62.417969 134.898438 60.347656 135.820312 58.265625 135.820312 L 55.871094 135.820312 L 55.871094 126.320312 L 58.078125 126.320312 C 60.308594 126.320312 62.417969 127.035156 62.417969 131.023438 "/>
<path style=" stroke:none;fill-rule:nonzero;fill:rgb(100%,100%,100%);fill-opacity:1;" d="M 68.121094 127.65625 L 68.121094 134.488281 L 68.871094 134.488281 C 70.097656 134.488281 71.074219 133.871094 71.074219 131.023438 C 71.074219 128.121094 70.042969 127.65625 68.832031 127.65625 Z M 72.898438 131.023438 C 72.898438 134.898438 70.832031 135.820312 68.75 135.820312 L 66.351562 135.820312 L 66.351562 126.320312 L 68.558594 126.320312 C 70.789062 126.320312 72.898438 127.035156 72.898438 131.023438 "/>
<path style=" stroke:none;fill-rule:nonzero;fill:rgb(100%,100%,100%);fill-opacity:1;" d="M 78.867188 127.640625 L 75.804688 127.640625 L 75.804688 130.335938 L 78.488281 130.335938 L 78.488281 131.640625 L 75.804688 131.640625 L 75.804688 134.488281 L 79.085938 134.488281 L 79.085938 135.820312 L 74.035156 135.820312 L 74.035156 126.320312 L 79.058594 126.320312 Z M 78.867188 127.640625 "/>
<path style=" stroke:none;fill-rule:nonzero;fill:rgb(100%,100%,100%);fill-opacity:1;" d="M 85.8125 127.105469 L 84.941406 128.136719 C 84.453125 127.722656 83.964844 127.488281 83.378906 127.488281 C 82.25 127.488281 81.390625 128.382812 81.390625 131.050781 C 81.390625 133.632812 82.222656 134.597656 83.390625 134.597656 C 84.113281 134.597656 84.601562 134.253906 85.066406 133.871094 L 85.910156 134.886719 C 85.351562 135.476562 84.480469 136.027344 83.308594 136.027344 C 81.089844 136.027344 79.539062 134.378906 79.539062 131.050781 C 79.539062 127.765625 81.171875 126.117188 83.28125 126.117188 C 84.371094 126.117188 85.105469 126.488281 85.8125 127.105469 "/>
<path style=" stroke:none;fill-rule:nonzero;fill:rgb(100%,100%,100%);fill-opacity:1;" d="M 91.515625 127.640625 L 88.453125 127.640625 L 88.453125 130.335938 L 91.136719 130.335938 L 91.136719 131.640625 L 88.453125 131.640625 L 88.453125 134.488281 L 91.734375 134.488281 L 91.734375 135.820312 L 86.683594 135.820312 L 86.683594 126.320312 L 91.707031 126.320312 Z M 91.515625 127.640625 "/>
<path style=" stroke:none;fill-rule:nonzero;fill:rgb(100%,100%,100%);fill-opacity:1;" d="M 99.105469 135.820312 L 96.84375 135.820312 L 94.09375 128.082031 C 94.175781 128.933594 94.328125 130.128906 94.328125 131.875 L 94.328125 135.820312 L 92.75 135.820312 L 92.75 126.320312 L 94.980469 126.320312 L 97.757812 134.0625 C 97.675781 133.523438 97.523438 132.175781 97.523438 130.832031 L 97.523438 126.320312 L 99.105469 126.320312 Z M 99.105469 135.820312 "/>
<path style=" stroke:none;fill-rule:nonzero;fill:rgb(100%,100%,100%);fill-opacity:1;" d="M 106.050781 127.722656 L 103.886719 127.722656 L 103.886719 135.820312 L 102.132812 135.820312 L 102.132812 127.722656 L 99.875 127.722656 L 99.875 126.320312 L 106.242188 126.320312 Z M 106.050781 127.722656 "/>
<path style=" stroke:none;fill-rule:nonzero;fill:rgb(100%,100%,100%);fill-opacity:1;" d="M 117.40625 135.820312 L 115.117188 135.820312 L 113.921875 128.203125 L 112.683594 135.820312 L 110.4375 135.820312 L 108.953125 126.320312 L 110.679688 126.320312 L 111.703125 134.40625 L 113.007812 126.320312 L 114.875 126.320312 L 116.152344 134.40625 L 117.269531 126.320312 L 118.917969 126.320312 Z M 117.40625 135.820312 "/>
<path style=" stroke:none;fill-rule:nonzero;fill:rgb(100%,100%,100%);fill-opacity:1;" d="M 121.171875 131.078125 C 121.171875 133.730469 121.882812 134.667969 123.066406 134.667969 C 124.304688 134.667969 124.96875 133.730469 124.96875 131.0625 C 124.96875 128.4375 124.304688 127.476562 123.066406 127.476562 C 121.855469 127.476562 121.171875 128.4375 121.171875 131.078125 M 126.820312 131.0625 C 126.820312 134.308594 125.394531 136.027344 123.066406 136.027344 C 120.765625 136.027344 119.320312 134.363281 119.320312 131.078125 C 119.320312 127.847656 120.765625 126.113281 123.066406 126.113281 C 125.378906 126.113281 126.820312 127.765625 126.820312 131.0625 "/>
<path style=" stroke:none;fill-rule:nonzero;fill:rgb(100%,100%,100%);fill-opacity:1;" d="M 130.554688 130.71875 C 131.667969 130.71875 132.1875 130.226562 132.1875 129.113281 C 132.1875 128.082031 131.667969 127.625 130.445312 127.625 L 129.75 127.625 L 129.75 130.71875 Z M 130.714844 132 L 129.75 132 L 129.75 135.820312 L 127.980469 135.820312 L 127.980469 126.320312 L 130.457031 126.320312 C 132.867188 126.320312 134.011719 127.28125 134.011719 129.113281 C 134.011719 130.308594 133.464844 131.199219 132.324219 131.667969 L 134.515625 135.820312 L 132.570312 135.820312 Z M 130.714844 132 "/>
<path style=" stroke:none;fill-rule:nonzero;fill:rgb(100%,100%,100%);fill-opacity:1;" d="M 138.953125 130.625 L 142.042969 135.820312 L 140.039062 135.820312 L 137.089844 130.746094 L 139.972656 126.320312 L 141.824219 126.320312 Z M 137.03125 135.820312 L 135.261719 135.820312 L 135.261719 126.320312 L 137.03125 126.320312 Z M 137.03125 135.820312 "/>
<path style=" stroke:none;fill-rule:nonzero;fill:rgb(100%,100%,100%);fill-opacity:1;" d="M 58.933594 61.421875 L 56.089844 57.992188 L 57.050781 57.195312 L 59.089844 59.652344 L 64.808594 54.78125 L 65.621094 55.734375 Z M 58.933594 61.421875 "/>
<path style=" stroke:none;fill-rule:nonzero;fill:rgb(100%,100%,100%);fill-opacity:1;" d="M 57.433594 45.605469 C 57.25 45.605469 57.078125 45.625 56.917969 45.679688 C 56.328125 45.867188 55.847656 46.445312 55.339844 47.054688 C 54.953125 47.519531 54.550781 48 54.058594 48.355469 C 53.558594 48.71875 52.96875 48.949219 52.398438 49.171875 C 51.664062 49.460938 50.972656 49.734375 50.613281 50.222656 C 50.257812 50.703125 50.207031 51.445312 50.152344 52.230469 C 50.109375 52.839844 50.066406 53.472656 49.871094 54.066406 C 49.6875 54.628906 49.355469 55.148438 49.035156 55.652344 C 48.601562 56.328125 48.195312 56.964844 48.195312 57.601562 C 48.195312 58.238281 48.601562 58.875 49.035156 59.550781 C 49.355469 60.054688 49.6875 60.574219 49.871094 61.136719 C 50.066406 61.730469 50.109375 62.363281 50.152344 62.972656 C 50.207031 63.757812 50.257812 64.5 50.613281 64.980469 C 50.972656 65.472656 51.664062 65.742188 52.398438 66.03125 C 52.96875 66.253906 53.558594 66.488281 54.058594 66.847656 C 54.550781 67.203125 54.953125 67.683594 55.339844 68.152344 C 55.847656 68.757812 56.328125 69.335938 56.917969 69.527344 C 57.472656 69.703125 58.179688 69.523438 58.929688 69.332031 C 59.539062 69.175781 60.164062 69.019531 60.804688 69.019531 C 61.445312 69.019531 62.070312 69.175781 62.675781 69.332031 C 63.429688 69.523438 64.136719 69.703125 64.691406 69.527344 C 65.28125 69.335938 65.761719 68.757812 66.269531 68.148438 C 66.65625 67.683594 67.058594 67.203125 67.550781 66.847656 C 68.050781 66.488281 68.640625 66.253906 69.210938 66.03125 C 69.941406 65.742188 70.636719 65.46875 70.996094 64.984375 C 71.347656 64.5 71.402344 63.757812 71.457031 62.972656 C 71.496094 62.363281 71.542969 61.730469 71.738281 61.140625 C 71.921875 60.574219 72.253906 60.054688 72.574219 59.550781 C 73.003906 58.875 73.414062 58.238281 73.414062 57.601562 C 73.414062 56.964844 73.003906 56.328125 72.574219 55.652344 C 72.253906 55.148438 71.921875 54.628906 71.738281 54.066406 C 71.542969 53.472656 71.5 52.839844 71.457031 52.230469 C 71.402344 51.445312 71.347656 50.707031 70.996094 50.222656 C 70.636719 49.734375 69.941406 49.460938 69.207031 49.171875 C 68.636719 48.949219 68.050781 48.71875 67.550781 48.355469 C 67.054688 48 66.65625 47.519531 66.265625 47.054688 C 65.761719 46.445312 65.28125 45.867188 64.691406 45.679688 C 64.136719 45.5 63.425781 45.679688 62.675781 45.871094 C 62.070312 46.027344 61.445312 46.183594 60.804688 46.183594 C 60.164062 46.183594 59.539062 46.027344 58.929688 45.871094 C 58.398438 45.734375 57.882812 45.605469 57.433594 45.605469 M 64.175781 70.847656 C 63.570312 70.847656 62.960938 70.695312 62.371094 70.542969 C 61.8125 70.402344 61.289062 70.269531 60.804688 70.269531 C 60.320312 70.269531 59.796875 70.402344 59.238281 70.542969 C 58.351562 70.769531 57.429688 71.003906 56.535156 70.714844 C 55.597656 70.414062 54.953125 69.636719 54.378906 68.949219 C 54.027344 68.523438 53.691406 68.125 53.328125 67.859375 C 52.953125 67.59375 52.464844 67.398438 51.941406 67.195312 C 51.078125 66.855469 50.179688 66.503906 49.605469 65.722656 C 49.039062 64.949219 48.96875 63.988281 48.90625 63.0625 C 48.867188 62.5 48.828125 61.972656 48.683594 61.527344 C 48.546875 61.113281 48.273438 60.679688 47.980469 60.222656 C 47.496094 59.464844 46.945312 58.605469 46.945312 57.601562 C 46.945312 56.597656 47.496094 55.738281 47.980469 54.980469 C 48.273438 54.523438 48.546875 54.089844 48.683594 53.675781 C 48.828125 53.234375 48.867188 52.703125 48.90625 52.140625 C 48.96875 51.214844 49.039062 50.257812 49.605469 49.480469 C 50.179688 48.703125 51.074219 48.351562 51.941406 48.007812 C 52.460938 47.804688 52.953125 47.613281 53.328125 47.34375 C 53.691406 47.082031 54.027344 46.679688 54.378906 46.253906 C 54.953125 45.566406 55.597656 44.789062 56.535156 44.488281 C 57.429688 44.203125 58.351562 44.433594 59.238281 44.660156 C 59.796875 44.800781 60.320312 44.933594 60.804688 44.933594 C 61.289062 44.933594 61.8125 44.800781 62.367188 44.660156 C 63.257812 44.433594 64.175781 44.199219 65.074219 44.488281 C 66.007812 44.789062 66.65625 45.566406 67.226562 46.253906 C 67.582031 46.679688 67.914062 47.082031 68.28125 47.34375 C 68.652344 47.613281 69.144531 47.804688 69.664062 48.007812 C 70.535156 48.347656 71.429688 48.703125 72 49.484375 C 72.570312 50.257812 72.636719 51.214844 72.703125 52.144531 C 72.742188 52.703125 72.78125 53.234375 72.921875 53.675781 C 73.058594 54.089844 73.335938 54.523438 73.628906 54.980469 C 74.113281 55.738281 74.664062 56.597656 74.664062 57.601562 C 74.664062 58.605469 74.113281 59.464844 73.628906 60.222656 C 73.335938 60.679688 73.058594 61.113281 72.921875 61.527344 C 72.78125 61.972656 72.742188 62.5 72.703125 63.0625 C 72.636719 63.988281 72.570312 64.949219 72 65.722656 C 71.429688 66.503906 70.535156 66.855469 69.667969 67.195312 C 69.144531 67.398438 68.652344 67.59375 68.28125 67.863281 C 67.914062 68.125 67.582031 68.523438 67.226562 68.949219 C 66.65625 69.636719 66.007812 70.414062 65.074219 70.714844 C 64.777344 70.8125 64.476562 70.847656 64.175781 70.847656 "/>
<path style=" stroke:none;fill-rule:nonzero;fill:rgb(100%,100%,100%);fill-opacity:1;" d="M 102.324219 80.125 L 59.335938 80.125 C 58.992188 80.125 58.710938 79.84375 58.710938 79.5 L 58.710938 69.894531 L 59.960938 69.894531 L 59.960938 78.875 L 101.699219 78.875 L 101.699219 35.128906 L 87.609375 21.125 L 59.960938 21.125 L 59.960938 44.730469 L 58.710938 44.730469 L 58.710938 20.5 C 58.710938 20.15625 58.992188 19.875 59.335938 19.875 L 87.867188 19.875 C 88.03125 19.875 88.191406 19.941406 88.308594 20.058594 L 102.765625 34.425781 C 102.882812 34.542969 102.949219 34.703125 102.949219 34.867188 L 102.949219 79.5 C 102.949219 79.84375 102.667969 80.125 102.324219 80.125 "/>
<path style=" stroke:none;fill-rule:nonzero;fill:rgb(100%,100%,100%);fill-opacity:1;" d="M 88.492188 34.242188 L 100.808594 34.242188 L 88.492188 22.003906 Z M 102.324219 35.492188 L 87.867188 35.492188 C 87.523438 35.492188 87.242188 35.214844 87.242188 34.867188 L 87.242188 20.5 C 87.242188 20.246094 87.394531 20.019531 87.628906 19.921875 C 87.859375 19.824219 88.128906 19.878906 88.308594 20.058594 L 102.765625 34.425781 C 102.945312 34.605469 102.996094 34.871094 102.902344 35.105469 C 102.804688 35.339844 102.578125 35.492188 102.324219 35.492188 "/>
<path style=" stroke:none;fill-rule:nonzero;fill:rgb(100%,100%,100%);fill-opacity:1;" d="M 60.804688 51.203125 C 57.195312 51.203125 54.253906 54.121094 54.253906 57.710938 C 54.253906 61.296875 57.195312 64.214844 60.804688 64.214844 C 64.414062 64.214844 67.351562 61.296875 67.351562 57.710938 C 67.351562 54.121094 64.414062 51.203125 60.804688 51.203125 M 60.804688 65.464844 C 56.503906 65.464844 53.003906 61.988281 53.003906 57.710938 C 53.003906 53.433594 56.503906 49.953125 60.804688 49.953125 C 65.105469 49.953125 68.601562 53.433594 68.601562 57.710938 C 68.601562 61.988281 65.105469 65.464844 60.804688 65.464844 "/>
<path style=" stroke:none;fill-rule:nonzero;fill:rgb(100%,100%,100%);fill-opacity:1;" d="M 80.757812 69.902344 C 80.574219 69.902344 80.402344 69.847656 80.242188 69.726562 C 79.542969 69.1875 80.046875 68.109375 80.742188 66.621094 C 80.882812 66.320312 81.074219 65.910156 81.222656 65.554688 C 80.574219 65.996094 79.332031 66.992188 76.976562 69.230469 C 76.726562 69.46875 76.332031 69.460938 76.09375 69.210938 C 75.855469 68.960938 75.867188 68.5625 76.117188 68.328125 C 81 63.671875 81.792969 63.667969 82.382812 64.15625 C 83.027344 64.683594 82.570312 65.664062 81.875 67.148438 C 81.722656 67.476562 81.515625 67.921875 81.363281 68.300781 C 81.722656 68.050781 82.164062 67.707031 82.53125 67.425781 C 84.25 66.089844 86.03125 64.703125 87.214844 65.460938 C 87.613281 65.710938 87.730469 66.085938 87.820312 66.359375 C 87.894531 66.589844 87.953125 66.785156 88.15625 67.007812 C 88.625 67.527344 89.464844 67.757812 90.65625 67.703125 C 90.964844 67.671875 91.292969 67.953125 91.308594 68.296875 C 91.324219 68.644531 91.0625 68.9375 90.714844 68.953125 C 89.125 69.03125 87.960938 68.65625 87.230469 67.847656 C 86.847656 67.421875 86.714844 67.015625 86.628906 66.746094 C 86.601562 66.660156 86.566406 66.539062 86.542969 66.511719 C 86.097656 66.234375 84.066406 67.816406 83.296875 68.414062 C 82.160156 69.292969 81.375 69.902344 80.757812 69.902344 "/>
<path style=" stroke:none;fill-rule:nonzero;fill:rgb(100%,100%,100%);fill-opacity:1;" d="M 95.824219 52.078125 L 71.886719 52.078125 L 71.886719 50.828125 L 95.824219 50.828125 Z M 95.824219 52.078125 "/>
<path style=" stroke:none;fill-rule:nonzero;fill:rgb(100%,100%,100%);fill-opacity:1;" d="M 95.824219 43.566406 L 65.835938 43.566406 L 65.835938 42.316406 L 95.824219 42.316406 Z M 95.824219 43.566406 "/>
</g>
</svg>
