<?xml version="1.0" encoding="UTF-8" standalone="no"?>
<svg
   xmlns:dc="http://purl.org/dc/elements/1.1/"
   xmlns:cc="http://creativecommons.org/ns#"
   xmlns:rdf="http://www.w3.org/1999/02/22-rdf-syntax-ns#"
   xmlns:svg="http://www.w3.org/2000/svg"
   xmlns="http://www.w3.org/2000/svg"
   viewBox="0 0 200 200"
   height="200"
   width="200"
   xml:space="preserve"
   id="svg2"
   version="1.1"><metadata
     id="metadata8"><rdf:RDF><cc:Work
         rdf:about=""><dc:format>image/svg+xml</dc:format><dc:type
           rdf:resource="http://purl.org/dc/dcmitype/StillImage" /></cc:Work></rdf:RDF></metadata><defs
     id="defs6"><clipPath
       id="clipPath30"
       clipPathUnits="userSpaceOnUse"><path
         id="path28"
         d="M 0,150 H 150 V 0 H 0 Z" /></clipPath></defs><g
     transform="matrix(1.3333333,0,0,-1.3333333,0,200)"
     id="g10"><path
       id="path12"
       style="fill:#003366;fill-opacity:1;fill-rule:nonzero;stroke:none"
       d="M 0,50.073 H 149.95 V 150 H 0 Z" /><path
       id="path14"
       style="fill:#8dc120;fill-opacity:1;fill-rule:nonzero;stroke:none"
       d="m 0,0.073 h 149.95 v 50 H 0 Z" /><g
       transform="translate(17.6394,12.9404)"
       id="g16"><path
         id="path18"
         style="fill:#ffffff;fill-opacity:1;fill-rule:nonzero;stroke:none"
         d="m 0,0 h -4.017 v 18.797 l -3.897,-3.115 -1.815,3.185 6.07,4.726 H 0 Z" /></g><g
       transform="translate(33.0154,18.2256)"
       id="g20"><path
         id="path22"
         style="fill:#ffffff;fill-opacity:1;fill-rule:nonzero;stroke:none"
         d="M 0,0 H -2.054 V -5.285 H -6.011 L -6.04,0 h -7.736 V 3.291 L -8.6,18.832 -5.118,17.362 -9.552,3.711 h 3.541 l 0.477,5.81 h 3.48 v -5.81 l 2.054,0 z" /></g><g
       id="g24"><g
         clip-path="url(#clipPath30)"
         id="g26"><g
           transform="translate(46.8738,35.3955)"
           id="g32"><path
             id="path34"
             style="fill:#ffffff;fill-opacity:1;fill-rule:nonzero;stroke:none"
             d="m 0,0 -0.88,-1.031 c -0.495,0.413 -0.989,0.646 -1.581,0.646 -1.141,0 -2.007,-0.893 -2.007,-3.56 0,-2.585 0.839,-3.547 2.021,-3.547 0.729,0 1.223,0.344 1.691,0.728 l 0.853,-1.017 c -0.564,-0.591 -1.444,-1.141 -2.626,-1.141 -2.242,0 -3.809,1.65 -3.809,4.977 0,3.286 1.651,4.935 3.781,4.935 1.1,0 1.842,-0.371 2.557,-0.99" /></g><g
           transform="translate(49.2449,31.4229)"
           id="g36"><path
             id="path38"
             style="fill:#ffffff;fill-opacity:1;fill-rule:nonzero;stroke:none"
             d="m 0,0 c 0,-2.653 0.715,-3.589 1.911,-3.589 1.251,0 1.925,0.936 1.925,3.603 0,2.626 -0.674,3.588 -1.925,3.588 C 0.687,3.602 0,2.64 0,0 m 5.706,0.014 c 0,-3.245 -1.443,-4.963 -3.795,-4.963 -2.323,0 -3.78,1.663 -3.78,4.949 0,3.23 1.457,4.963 3.78,4.963 2.338,0 3.795,-1.65 3.795,-4.949" /></g><g
           transform="translate(62.8172,26.6797)"
           id="g40"><path
             id="path42"
             style="fill:#ffffff;fill-opacity:1;fill-rule:nonzero;stroke:none"
             d="M 0,0 H -2.282 L -5.06,7.74 C -4.977,6.888 -4.825,5.691 -4.825,3.945 V 0 H -6.42 v 9.5 h 2.254 L -1.361,1.76 C -1.443,2.296 -1.595,3.643 -1.595,4.99 V 9.5 H 0 Z" /></g><g
           transform="translate(70.0828,35.2168)"
           id="g44"><path
             id="path46"
             style="fill:#ffffff;fill-opacity:1;fill-rule:nonzero;stroke:none"
             d="m 0,0 -0.853,-0.976 c -0.604,0.537 -1.182,0.784 -1.87,0.784 -0.783,0 -1.292,-0.426 -1.292,-1.141 0,-0.688 0.33,-1.031 1.733,-1.526 1.54,-0.564 2.529,-1.251 2.529,-2.97 0,-1.663 -1.237,-2.914 -3.3,-2.914 -1.416,0 -2.405,0.536 -3.147,1.292 l 0.907,1.004 c 0.646,-0.565 1.306,-0.922 2.172,-0.922 0.921,0 1.513,0.536 1.513,1.444 0,0.783 -0.344,1.182 -1.651,1.636 -1.814,0.646 -2.584,1.457 -2.584,2.832 0,1.54 1.265,2.626 2.997,2.626 C -1.608,1.169 -0.742,0.757 0,0" /></g><g
           transform="translate(77.9568,29.5391)"
           id="g48"><path
             id="path50"
             style="fill:#ffffff;fill-opacity:1;fill-rule:nonzero;stroke:none"
             d="m 0,0 c 0,-1.732 -1.1,-3.065 -3.244,-3.065 -2.173,0 -3.245,1.292 -3.245,3.065 v 6.641 h 1.788 V 0.097 c 0,-1.183 0.439,-1.775 1.457,-1.775 1.003,0 1.457,0.592 1.457,1.775 V 6.641 H 0 Z" /></g><g
           transform="translate(81.493,28.1367)"
           id="g52"><path
             id="path54"
             style="fill:#ffffff;fill-opacity:1;fill-rule:nonzero;stroke:none"
             d="M 0,0 H 3.382 L 3.189,-1.457 h -4.976 v 9.5 H 0 Z" /></g><g
           transform="translate(90.1414,30.2402)"
           id="g56"><path
             id="path58"
             style="fill:#ffffff;fill-opacity:1;fill-rule:nonzero;stroke:none"
             d="M 0,0 -1.072,4.578 -2.145,0 Z m 0.303,-1.348 h -2.75 L -2.97,-3.561 h -1.801 l 2.64,9.5 h 2.172 l 2.626,-9.5 H 0.825 Z" /></g><g
           transform="translate(96.3767,31.7803)"
           id="g60"><path
             id="path62"
             style="fill:#ffffff;fill-opacity:1;fill-rule:nonzero;stroke:none"
             d="m 0,0 c 1.127,0 1.649,0.495 1.649,1.608 0,1.032 -0.522,1.485 -1.759,1.485 h -0.702 l 0,-3.093 z m 0.165,-1.279 h -0.977 v -3.822 h -1.787 v 9.5 h 2.502 c 2.434,0 3.589,-0.962 3.589,-2.791 0,-1.196 -0.55,-2.089 -1.705,-2.557 L 4.001,-5.101 H 2.034 Z" /></g><g
           transform="translate(45.2244,20.6553)"
           id="g64"><path
             id="path66"
             style="fill:#ffffff;fill-opacity:1;fill-rule:nonzero;stroke:none"
             d="m 0,0 c 0,1.195 -0.591,1.718 -1.801,1.718 h -0.687 v -3.533 h 0.687 C -0.633,-1.815 0,-1.389 0,0 m 1.842,0 c 0,-2.159 -1.403,-3.148 -3.533,-3.148 h -0.797 v -3.328 h -1.787 v 9.5 h 2.461 C 0.522,3.024 1.842,2.021 1.842,0" /></g><g
           transform="translate(50.7918,19.2803)"
           id="g68"><path
             id="path70"
             style="fill:#ffffff;fill-opacity:1;fill-rule:nonzero;stroke:none"
             d="m 0,0 c 1.127,0 1.649,0.495 1.649,1.608 0,1.032 -0.522,1.485 -1.759,1.485 h -0.702 l 0,-3.093 z m 0.165,-1.279 h -0.977 v -3.822 h -1.787 v 9.5 h 2.502 c 2.434,0 3.589,-0.962 3.589,-2.791 0,-1.196 -0.55,-2.089 -1.705,-2.557 L 4.001,-5.101 H 2.034 Z" /></g><g
           transform="translate(57.1775,18.9229)"
           id="g72"><path
             id="path74"
             style="fill:#ffffff;fill-opacity:1;fill-rule:nonzero;stroke:none"
             d="m 0,0 c 0,-2.653 0.715,-3.589 1.911,-3.589 1.251,0 1.925,0.936 1.925,3.603 0,2.626 -0.674,3.588 -1.925,3.588 C 0.687,3.602 0,2.64 0,0 m 5.705,0.014 c 0,-3.245 -1.443,-4.963 -3.794,-4.963 -2.323,0 -3.781,1.663 -3.781,4.949 0,3.23 1.458,4.963 3.781,4.963 2.337,0 3.794,-1.65 3.794,-4.949" /></g><g
           transform="translate(69.6326,22.2773)"
           id="g76"><path
             id="path78"
             style="fill:#ffffff;fill-opacity:1;fill-rule:nonzero;stroke:none"
             d="M 0,0 H -2.186 V -8.098 H -3.959 V 0 h -2.282 v 1.402 h 6.434 z" /></g><g
           transform="translate(75.7176,22.3594)"
           id="g80"><path
             id="path82"
             style="fill:#ffffff;fill-opacity:1;fill-rule:nonzero;stroke:none"
             d="m 0,0 h -3.094 v -2.694 h 2.709 V -4.001 H -3.094 V -6.847 H 0.22 V -8.18 h -5.101 v 9.5 h 5.073 z" /></g><g
           transform="translate(83.0076,22.8955)"
           id="g84"><path
             id="path86"
             style="fill:#ffffff;fill-opacity:1;fill-rule:nonzero;stroke:none"
             d="m 0,0 -0.88,-1.031 c -0.495,0.413 -0.99,0.646 -1.581,0.646 -1.142,0 -2.008,-0.893 -2.008,-3.56 0,-2.585 0.839,-3.547 2.022,-3.547 0.728,0 1.223,0.344 1.691,0.728 l 0.852,-1.017 c -0.564,-0.591 -1.444,-1.141 -2.626,-1.141 -2.241,0 -3.808,1.65 -3.808,4.977 0,3.286 1.65,4.935 3.78,4.935 C -1.457,0.99 -0.715,0.619 0,0" /></g><g
           transform="translate(89.9441,22.2773)"
           id="g88"><path
             id="path90"
             style="fill:#ffffff;fill-opacity:1;fill-rule:nonzero;stroke:none"
             d="M 0,0 H -2.186 V -8.098 H -3.959 V 0 h -2.282 v 1.402 h 6.434 z" /></g><path
           id="path92"
           style="fill:#ffffff;fill-opacity:1;fill-rule:nonzero;stroke:none"
           d="m 92.935,14.18 h -1.787 v 9.5 h 1.787 z" /><g
           transform="translate(96.2508,18.9229)"
           id="g94"><path
             id="path96"
             style="fill:#ffffff;fill-opacity:1;fill-rule:nonzero;stroke:none"
             d="m 0,0 c 0,-2.653 0.715,-3.589 1.911,-3.589 1.251,0 1.925,0.936 1.925,3.603 0,2.626 -0.674,3.588 -1.925,3.588 C 0.687,3.602 0,2.64 0,0 m 5.706,0.014 c 0,-3.245 -1.443,-4.963 -3.795,-4.963 -2.323,0 -3.78,1.663 -3.78,4.949 0,3.23 1.457,4.963 3.78,4.963 2.338,0 3.795,-1.65 3.795,-4.949" /></g><g
           transform="translate(109.823,14.1797)"
           id="g98"><path
             id="path100"
             style="fill:#ffffff;fill-opacity:1;fill-rule:nonzero;stroke:none"
             d="M 0,0 H -2.282 L -5.06,7.74 C -4.978,6.888 -4.826,5.691 -4.826,3.945 V 0 h -1.595 v 9.5 h 2.255 L -1.361,1.76 C -1.444,2.296 -1.595,3.643 -1.595,4.99 V 9.5 H 0 Z" /></g><path
           id="path102"
           style="fill:#ffffff;fill-opacity:1;fill-rule:nonzero;stroke:none"
           d="m 69.062,98.841 h -2.189 v 1.25 h 2.189 z m 4.379,0 h -2.189 v 1.25 h 2.189 z m 4.38,0 h -2.189 v 1.25 h 2.189 z m 4.379,0 h -2.189 v 1.25 H 82.2 Z" /><path
           id="path104"
           style="fill:#ffffff;fill-opacity:1;fill-rule:nonzero;stroke:none"
           d="m 74.674,116.722 h -1.25 v 13.341 h 1.25 z" /><g
           transform="translate(74.6736,121.6528)"
           id="g106"><path
             id="path108"
             style="fill:#ffffff;fill-opacity:1;fill-rule:nonzero;stroke:none"
             d="M 0,0 H 10.022 L 8.733,2.912 10.022,5.825 H 0 Z M 11.942,-1.25 H -1.25 V 7.075 H 11.942 L 10.101,2.912 Z" /></g><path
           id="path110"
           style="fill:#ffffff;fill-opacity:1;fill-rule:nonzero;stroke:none"
           d="M 91.023,74.037 H 59.164 v 1.25 h 31.859 z" /><g
           transform="translate(88.076,74.9355)"
           id="g112"><path
             id="path114"
             style="fill:#ffffff;fill-opacity:1;fill-rule:nonzero;stroke:none"
             d="M 0,0 H -1.25 V 30.314 H -24.715 V 0 h -1.25 V 31.564 H 0 Z" /></g><path
           id="path116"
           style="fill:#ffffff;fill-opacity:1;fill-rule:nonzero;stroke:none"
           d="m 60.585,106.5 h 29.017 v 6.884 H 60.585 Z m 30.266,-1.25 H 59.334 v 9.384 h 31.517 z" /><g
           transform="translate(82.1922,75.249)"
           id="g118"><path
             id="path120"
             style="fill:#ffffff;fill-opacity:1;fill-rule:nonzero;stroke:none"
             d="M 0,0 H -1.25 V 18.108 H -12.947 V 0 h -1.25 V 19.358 H 0 Z" /></g><path
           id="path122"
           style="fill:#ffffff;fill-opacity:1;fill-rule:nonzero;stroke:none"
           d="M 92.835,69.938 H 57.353 v 1.25 h 35.482 z" /><g
           transform="translate(47.8748,70.876)"
           id="g124"><path
             id="path126"
             style="fill:#ffffff;fill-opacity:1;fill-rule:nonzero;stroke:none"
             d="m 0,0 h -1.25 v 29.215 h 13.557 v -1.25 H 0 Z" /></g><g
           transform="translate(103.3758,70.876)"
           id="g128"><path
             id="path130"
             style="fill:#ffffff;fill-opacity:1;fill-rule:nonzero;stroke:none"
             d="m 0,0 h -1.25 v 27.965 h -12.308 v 1.25 H 0 Z" /></g></g></g></g></svg>