<?xml version="1.0" encoding="UTF-8" standalone="no"?>
<!DOCTYPE svg PUBLIC "-//W3C//DTD SVG 1.1//EN" "http://www.w3.org/Graphics/SVG/1.1/DTD/svg11.dtd">
<svg xmlns="http://www.w3.org/2000/svg" xmlns:xlink="http://www.w3.org/1999/xlink" version="1.1" width="150pt" height="150pt" viewBox="0 0 150 150">
<g enable-background="new">
<g id="Layer-1" data-name="18">
<path transform="matrix(1,0,0,-1,0,150)" d="M 0 50.073 L 149.95 50.073 L 149.95 150 L 0 150 Z " fill="#003366"/>
<path transform="matrix(1,0,0,-1,0,150)" d="M 0 .073 L 149.95 .073 L 149.95 50.073 L 0 50.073 Z " fill="#26bde2"/>
<path transform="matrix(1,0,0,-1,17.2459,137.0596)" d="M 0 0 L -4.017 0 L -4.017 18.797 L -7.914 15.682 L -9.729 18.867 L -3.659 23.593 L 0 23.593 Z " fill="#ffffff"/>
<clipPath id="cp0">
<path transform="matrix(1,0,0,-1,0,150)" d="M 0 150 L 150 150 L 150 0 L 0 0 Z "/>
</clipPath>
<g clip-path="url(#cp0)">
<path transform="matrix(1,0,0,-1,23.9451,119.3477)" d="M 0 0 C 0 -1.82 .714 -2.73 2.32 -3.57 L 2.856 -3.851 C 4.165 -2.66 4.522 -1.505 4.522 .035 C 4.522 2.03 3.749 3.011 2.261 3.011 C .893 3.011 0 2.17 0 0 M 5.117 -11.341 C 5.117 -9.241 4.344 -8.296 2.172 -7.211 L 1.368 -6.826 C 0 -7.841 -.596 -9.276 -.596 -11.271 C -.596 -13.616 .506 -14.736 2.291 -14.736 C 4.136 -14.736 5.117 -13.512 5.117 -11.341 M 9.194 -11.341 C 9.194 -15.297 6.635 -18.272 2.172 -18.272 C -2.172 -18.272 -4.701 -15.332 -4.701 -11.446 C -4.701 -8.611 -3.422 -6.721 -1.161 -5.496 C -3.243 -4.025 -3.958 -2.136 -3.958 .07 C -3.958 3.955 -1.339 6.336 2.231 6.336 C 5.832 6.336 8.51 4.2 8.51 .28 C 8.51 -1.82 7.587 -3.641 5.445 -5.041 C 8.033 -6.581 9.194 -8.611 9.194 -11.341 " fill="#ffffff"/>
<path transform="matrix(1,0,0,-1,46.2644,108.532199)" d="M 0 0 L -.844 -.977 C -1.442 -.44 -2.014 -.192 -2.694 -.192 C -3.471 -.192 -3.974 -.619 -3.974 -1.334 C -3.974 -2.021 -3.647 -2.365 -2.259 -2.859 C -.734 -3.424 .245 -4.111 .245 -5.829 C .245 -7.493 -.979 -8.744 -3.021 -8.744 C -4.423 -8.744 -5.403 -8.208 -6.138 -7.452 L -5.24 -6.448 C -4.601 -7.012 -3.947 -7.369 -3.089 -7.369 C -2.178 -7.369 -1.592 -6.833 -1.592 -5.926 C -1.592 -5.142 -1.933 -4.743 -3.226 -4.29 C -5.022 -3.644 -5.784 -2.832 -5.784 -1.458 C -5.784 .082 -4.532 1.168 -2.817 1.168 C -1.592 1.168 -.734 .756 0 0 " fill="#ffffff"/>
<path transform="matrix(1,0,0,-1,51.1092,111.873)" d="M 0 0 L 3.09 -5.197 L 1.089 -5.197 L -1.864 -.124 L 1.021 4.303 L 2.872 4.303 Z M -1.919 -5.197 L -3.6890002 -5.197 L -3.6890002 4.303 L -1.919 4.303 Z " fill="#ffffff"/>
<path transform="matrix(1,0,0,-1,0,150)" d="M 56.575 32.93 L 54.805 32.93 L 54.805 42.43 L 56.575 42.43 Z " fill="#ffffff"/>
<path transform="matrix(1,0,0,-1,59.7957,115.612308)" d="M 0 0 L 3.348 0 L 3.157 -1.458 L -1.77 -1.458 L -1.77 8.042 L 0 8.042 Z " fill="#ffffff"/>
<path transform="matrix(1,0,0,-1,65.6267,115.612308)" d="M 0 0 L 3.348 0 L 3.157 -1.458 L -1.77 -1.458 L -1.77 8.042 L 0 8.042 Z " fill="#ffffff"/>
<path transform="matrix(1,0,0,-1,75.4265,108.532199)" d="M 0 0 L -.844 -.977 C -1.442 -.44 -2.014 -.192 -2.694 -.192 C -3.471 -.192 -3.974 -.619 -3.974 -1.334 C -3.974 -2.021 -3.647 -2.365 -2.259 -2.859 C -.734 -3.424 .245 -4.111 .245 -5.829 C .245 -7.493 -.979 -8.744 -3.021 -8.744 C -4.423 -8.744 -5.403 -8.208 -6.138 -7.452 L -5.24 -6.448 C -4.601 -7.012 -3.947 -7.369 -3.089 -7.369 C -2.178 -7.369 -1.592 -6.833 -1.592 -5.926 C -1.592 -5.142 -1.933 -4.743 -3.226 -4.29 C -5.022 -3.644 -5.784 -2.832 -5.784 -1.458 C -5.784 .082 -4.532 1.168 -2.817 1.168 C -1.592 1.168 -.734 .756 0 0 " fill="#ffffff"/>
<path transform="matrix(1,0,0,-1,42.6853,121.4033)" d="M 0 0 L 0 -6.833 L .748 -6.833 C 1.974 -6.833 2.953 -6.215 2.953 -3.368 C 2.953 -.468 1.919 0 .708 0 Z M 4.777 -3.368 C 4.777 -7.246 2.708 -8.167 .626 -8.167 L -1.77 -8.167 L -1.77 1.333 L .436 1.333 C 2.668 1.333 4.777 .618 4.777 -3.368 " fill="#ffffff"/>
<path transform="matrix(1,0,0,-1,53.3621,121.3896)" d="M 0 0 L -3.063 0 L -3.063 -2.695 L -.381 -2.695 L -.381 -4.001 L -3.063 -4.001 L -3.063 -6.847 L .218 -6.847 L .218 -8.181 L -4.832 -8.181 L -4.832 1.319 L .19 1.319 Z " fill="#ffffff"/>
<path transform="matrix(1,0,0,-1,58.6365,129.5703)" d="M 0 0 L -2.137 0 L -4.668 9.5 L -2.844 9.5 L -1.034 1.567 L .694 9.5 L 2.464 9.5 Z " fill="#ffffff"/>
<path transform="matrix(1,0,0,-1,66.5525,121.3896)" d="M 0 0 L -3.063 0 L -3.063 -2.695 L -.381 -2.695 L -.381 -4.001 L -3.063 -4.001 L -3.063 -6.847 L .218 -6.847 L .218 -8.181 L -4.832 -8.181 L -4.832 1.319 L .19 1.319 Z " fill="#ffffff"/>
<path transform="matrix(1,0,0,-1,69.4842,128.1123)" d="M 0 0 L 3.348 0 L 3.157 -1.458 L -1.77 -1.458 L -1.77 8.042 L 0 8.042 Z " fill="#ffffff"/>
<path transform="matrix(1,0,0,-1,74.8777,124.8271)" d="M 0 0 C 0 -2.653 .708 -3.588 1.893 -3.588 C 3.131 -3.588 3.798 -2.653 3.798 .014 C 3.798 2.64 3.131 3.603 1.893 3.603 C .681 3.603 0 2.64 0 0 M 5.648 .014 C 5.648 -3.23 4.22 -4.949 1.893 -4.949 C -.408 -4.949 -1.851 -3.285 -1.851 0 C -1.851 3.231 -.408 4.963 1.893 4.963 C 4.206 4.963 5.648 3.313 5.648 .014 " fill="#ffffff"/>
<path transform="matrix(1,0,0,-1,85.8504,123.094699)" d="M 0 0 C 0 1.196 -.585 1.719 -1.783 1.719 L -2.464 1.719 L -2.464 -1.814 L -1.783 -1.814 C -.626 -1.814 0 -1.389 0 0 M 1.824 0 C 1.824 -2.158 .436 -3.148 -1.674 -3.148 L -2.464 -3.148 L -2.464 -6.476 L -4.233 -6.476 L -4.233 3.024 L -1.797 3.024 C .518 3.024 1.824 2.021 1.824 0 " fill="#ffffff"/>
<path transform="matrix(1,0,0,-1,96.658,129.5703)" d="M 0 0 L -1.687 0 L -1.892 4.001 C -1.96 5.403 -2.015 6.86 -1.987 7.864 L -3.471 1.031 L -5.117 1.031 L -6.683 7.878 C -6.642 6.613 -6.669 5.307 -6.724 3.946 L -6.914 0 L -8.588 0 L -7.935 9.5 L -5.689 9.5 L -4.26 2.818 L -2.926 9.5 L -.653 9.5 Z " fill="#ffffff"/>
<path transform="matrix(1,0,0,-1,102.656,121.3896)" d="M 0 0 L -3.063 0 L -3.063 -2.695 L -.381 -2.695 L -.381 -4.001 L -3.063 -4.001 L -3.063 -6.847 L .218 -6.847 L .218 -8.181 L -4.832 -8.181 L -4.832 1.319 L .19 1.319 Z " fill="#ffffff"/>
<path transform="matrix(1,0,0,-1,110.1746,129.5703)" d="M 0 0 L -2.26 0 L -5.009 7.74 C -4.928 6.888 -4.777 5.692 -4.777 3.946 L -4.777 0 L -6.356 0 L -6.356 9.5 L -4.124 9.5 L -1.348 1.76 C -1.43 2.296 -1.579 3.644 -1.579 4.991 L -1.579 9.5 L 0 9.5 Z " fill="#ffffff"/>
<path transform="matrix(1,0,0,-1,117.0555,121.4727)" d="M 0 0 L -2.164 0 L -2.164 -8.098 L -3.92 -8.098 L -3.92 0 L -6.18 0 L -6.18 1.402 L .19 1.402 Z " fill="#ffffff"/>
<path transform="matrix(1,0,0,-1,44.659,138.5098)" d="M 0 0 L -1.062 4.579 L -2.124 0 Z M .299 -1.347 L -2.423 -1.347 L -2.94 -3.561 L -4.724 -3.561 L -2.11 5.939 L .041 5.939 L 2.641 -3.561 L .816 -3.561 Z " fill="#ffffff"/>
<path transform="matrix(1,0,0,-1,54.2752,142.0703)" d="M 0 0 L -2.259 0 L -5.009 7.74 C -4.927 6.888 -4.777 5.692 -4.777 3.946 L -4.777 0 L -6.356 0 L -6.356 9.5 L -4.124 9.5 L -1.348 1.76 C -1.429 2.296 -1.579 3.644 -1.579 4.991 L -1.579 9.5 L 0 9.5 Z " fill="#ffffff"/>
<path transform="matrix(1,0,0,-1,57.5144,133.9033)" d="M 0 0 L 0 -6.833 L .748 -6.833 C 1.974 -6.833 2.953 -6.215 2.953 -3.368 C 2.953 -.468 1.919 0 .708 0 Z M 4.777 -3.368 C 4.777 -7.246 2.708 -8.167 .626 -8.167 L -1.77 -8.167 L -1.77 1.333 L .436 1.333 C 2.668 1.333 4.777 .618 4.777 -3.368 " fill="#ffffff"/>
<path transform="matrix(1,0,0,-1,68.6629,136.9697)" d="M 0 0 C 1.115 0 1.633 .495 1.633 1.608 C 1.633 2.64 1.115 3.094 -.109 3.094 L -.804 3.094 L -.804 0 Z M .163 -1.278 L -.804 -1.278 L -.804 -5.101 L -2.573 -5.101 L -2.573 4.399 L -.096 4.399 C 2.313 4.399 3.457 3.438 3.457 1.608 C 3.457 .413 2.912 -.48 1.769 -.948 L 3.96 -5.101 L 2.014 -5.101 Z " fill="#ffffff"/>
<path transform="matrix(1,0,0,-1,78.1365,133.8896)" d="M 0 0 L -3.063 0 L -3.063 -2.695 L -.382 -2.695 L -.382 -4.001 L -3.063 -4.001 L -3.063 -6.847 L .218 -6.847 L .218 -8.181 L -4.832 -8.181 L -4.832 1.319 L .19 1.319 Z " fill="#ffffff"/>
<path transform="matrix(1,0,0,-1,85.0144,133.3535)" d="M 0 0 L -.871 -1.031 C -1.36 -.619 -1.851 -.385 -2.436 -.385 C -3.565 -.385 -4.423 -1.278 -4.423 -3.946 C -4.423 -6.53 -3.593 -7.493 -2.422 -7.493 C -1.701 -7.493 -1.211 -7.149 -.748 -6.765 L .096 -7.781 C -.462 -8.373 -1.333 -8.923 -2.504 -8.923 C -4.723 -8.923 -6.274 -7.273 -6.274 -3.946 C -6.274 -.66 -4.641 .989 -2.531 .989 C -1.442 .989 -.707 .618 0 0 " fill="#ffffff"/>
<path transform="matrix(1,0,0,-1,87.0213,137.3271)" d="M 0 0 C 0 -2.653 .708 -3.588 1.893 -3.588 C 3.131 -3.588 3.798 -2.653 3.798 .014 C 3.798 2.64 3.131 3.603 1.893 3.603 C .681 3.603 0 2.64 0 0 M 5.648 .014 C 5.648 -3.23 4.22 -4.949 1.893 -4.949 C -.408 -4.949 -1.851 -3.285 -1.851 0 C -1.851 3.231 -.408 4.963 1.893 4.963 C 4.206 4.963 5.648 3.313 5.648 .014 " fill="#ffffff"/>
<path transform="matrix(1,0,0,-1,100.0681,133.47751)" d="M 0 0 L -.912 -.948 C -1.497 -.468 -1.974 -.233 -2.695 -.233 C -3.893 -.233 -4.859 -1.113 -4.859 -3.836 C -4.859 -6.585 -4.206 -7.437 -2.939 -7.437 C -2.464 -7.437 -2.028 -7.313 -1.646 -7.08 L -1.646 -4.551 L -2.872 -4.551 L -3.049 -3.23 L .055 -3.23 L .055 -7.864 C -.789 -8.441 -1.838 -8.799 -2.913 -8.799 C -5.39 -8.799 -6.696 -7.19 -6.696 -3.836 C -6.696 -.509 -4.913 1.113 -2.749 1.113 C -1.565 1.113 -.735 .687 0 0 " fill="#ffffff"/>
<path transform="matrix(1,0,0,-1,107.7303,142.0703)" d="M 0 0 L -2.259 0 L -5.009 7.74 C -4.927 6.888 -4.777 5.692 -4.777 3.946 L -4.777 0 L -6.356 0 L -6.356 9.5 L -4.124 9.5 L -1.348 1.76 C -1.429 2.296 -1.579 3.644 -1.579 4.991 L -1.579 9.5 L 0 9.5 Z " fill="#ffffff"/>
<path transform="matrix(1,0,0,-1,0,150)" d="M 110.966 7.93 L 109.19601 7.93 L 109.19601 17.43 L 110.966 17.43 Z " fill="#ffffff"/>
<path transform="matrix(1,0,0,-1,117.8308,133.9727)" d="M 0 0 L -2.164 0 L -2.164 -8.098 L -3.92 -8.098 L -3.92 0 L -6.18 0 L -6.18 1.402 L .19 1.402 Z " fill="#ffffff"/>
<path transform="matrix(1,0,0,-1,0,150)" d="M 120.452 7.93 L 118.68201 7.93 L 118.68201 17.43 L 120.452 17.43 Z " fill="#ffffff"/>
<path transform="matrix(1,0,0,-1,123.3933,137.3271)" d="M 0 0 C 0 -2.653 .708 -3.588 1.893 -3.588 C 3.131 -3.588 3.798 -2.653 3.798 .014 C 3.798 2.64 3.131 3.603 1.893 3.603 C .681 3.603 0 2.64 0 0 M 5.648 .014 C 5.648 -3.23 4.22 -4.949 1.893 -4.949 C -.408 -4.949 -1.851 -3.285 -1.851 0 C -1.851 3.231 -.408 4.963 1.893 4.963 C 4.206 4.963 5.648 3.313 5.648 .014 " fill="#ffffff"/>
<path transform="matrix(1,0,0,-1,136.489,142.0703)" d="M 0 0 L -2.259 0 L -5.009 7.74 C -4.927 6.888 -4.777 5.692 -4.777 3.946 L -4.777 0 L -6.356 0 L -6.356 9.5 L -4.124 9.5 L -1.348 1.76 C -1.429 2.296 -1.579 3.644 -1.579 4.991 L -1.579 9.5 L 0 9.5 Z " fill="#ffffff"/>
<path transform="matrix(1,0,0,-1,74.6834,21.166504)" d="M 0 0 C -3.236 0 -5.87 -2.625 -5.87 -5.851 C -5.87 -9.077 -3.236 -11.701 0 -11.701 C 3.236 -11.701 5.87 -9.077 5.87 -5.851 C 5.87 -2.625 3.236 0 0 0 M 0 -12.951 C -3.926 -12.951 -7.12 -9.766 -7.12 -5.851 C -7.12 -1.936 -3.926 1.25 0 1.25 C 3.926 1.25 7.12 -1.936 7.12 -5.851 C 7.12 -9.766 3.926 -12.951 0 -12.951 " fill="#ffffff"/>
<path transform="matrix(1,0,0,-1,77.2088,80.083)" d="M 0 0 L -5.25 0 C -7.438 0 -9.22 1.776 -9.22 3.959 L -9.22 27.361 C -9.22 27.706 -8.939 27.986 -8.595 27.986 C -8.25 27.986 -7.97 27.706 -7.97 27.361 L -7.97 3.959 C -7.97 2.465 -6.75 1.25 -5.25 1.25 L 0 1.25 C 1.5 1.25 2.72 2.465 2.72 3.959 L 2.72 27.361 C 2.72 27.706 3 27.986 3.345 27.986 C 3.689 27.986 3.97 27.706 3.97 27.361 L 3.97 3.959 C 3.97 1.776 2.188 0 0 0 " fill="#ffffff"/>
<path transform="matrix(1,0,0,-1,74.5838,80.083)" d="M 0 0 C -.345 0 -.625 .28 -.625 .625 L -.625 22.908 C -.625 23.253 -.345 23.533 0 23.533 C .345 23.533 .625 23.253 .625 22.908 L .625 .625 C .625 .28 .345 0 0 0 " fill="#ffffff"/>
<path transform="matrix(1,0,0,-1,52.5359,55.915498)" d="M 0 0 C -4.214 0 -8.144 2.079 -10.512 5.562 C -11 6.279 -11.052 7.202 -10.646 7.97 C -10.238 8.741 -9.441 9.22 -8.568 9.22 L -2.91 9.21 L -.947 12.601 L -2.911 15.992 L -8.641 15.993 C -9.521 15.993 -10.293 16.454 -10.708 17.228 C -11.117 17.99 -11.074 18.912 -10.595 19.634 C -8.234 23.194 -4.273 25.319 0 25.319 C 5.156 25.319 9.763 22.249 11.734 17.498 C 11.867 17.179 11.716 16.813 11.396 16.681 C 11.079 16.548 10.712 16.7 10.58 17.018 C 8.803 21.301 4.649 24.069 0 24.069 C -3.854 24.069 -7.425 22.153 -9.554 18.943 C -9.78 18.6 -9.801 18.18 -9.606 17.819 C -9.413 17.458 -9.052 17.243 -8.641 17.243 L -2.19 17.242 L .498 12.601 L -2.191 7.958 L -8.568 7.97 C -8.983 7.97 -9.348 7.751 -9.541 7.385 C -9.732 7.022 -9.709 6.604 -9.479 6.265 C -7.343 3.125 -3.8 1.25 0 1.25 C 4.602 1.25 8.737 3.978 10.537 8.2 C 10.673 8.518 11.04 8.666 11.357 8.529 C 11.675 8.394 11.822 8.027 11.688 7.709 C 9.69 3.026 5.103 0 0 0 " fill="#ffffff"/>
<path transform="matrix(1,0,0,-1,97.4637,55.915498)" d="M 0 0 C -5.102 0 -9.689 3.026 -11.688 7.709 C -11.822 8.027 -11.675 8.394 -11.357 8.529 C -11.041 8.665 -10.673 8.518 -10.537 8.2 C -8.736 3.978 -4.601 1.25 0 1.25 C 3.8 1.25 7.343 3.125 9.479 6.265 C 9.71 6.604 9.733 7.023 9.541 7.386 C 9.348 7.751 8.984 7.97 8.569 7.97 L 2.191 7.958 L -.497 12.601 L 2.19 17.242 L 8.641 17.243 C 9.053 17.243 9.414 17.458 9.607 17.819 C 9.802 18.18 9.781 18.601 9.555 18.943 C 7.426 22.153 3.854 24.069 0 24.069 C -4.648 24.069 -8.802 21.301 -10.579 17.018 C -10.712 16.7 -11.078 16.548 -11.396 16.681 C -11.715 16.813 -11.866 17.179 -11.733 17.498 C -9.762 22.249 -5.156 25.319 0 25.319 C 4.273 25.319 8.235 23.194 10.596 19.634 C 11.075 18.912 11.118 17.99 10.709 17.228 C 10.294 16.455 9.521 15.993 8.641 15.993 L 2.911 15.992 L .948 12.601 L 2.91 9.21 L 8.569 9.22 C 9.442 9.22 10.238 8.741 10.646 7.97 C 11.052 7.203 11.001 6.28 10.513 5.562 C 8.144 2.079 4.214 0 0 0 " fill="#ffffff"/>
<path transform="matrix(1,0,0,-1,0,150)" d="M 67.671 105.349 L 82.115 105.349 L 82.115 102.727 L 67.671 102.727 Z M 67.671 110.719 L 82.115 110.719 L 82.115 108.098 L 67.671 108.098 Z " fill="#ffffff"/>
</g>
</g>
</g>
</svg>
