<?xml version="1.0" encoding="UTF-8" standalone="no"?>
<!DOCTYPE svg PUBLIC "-//W3C//DTD SVG 1.1//EN" "http://www.w3.org/Graphics/SVG/1.1/DTD/svg11.dtd">
<svg xmlns="http://www.w3.org/2000/svg" xmlns:xlink="http://www.w3.org/1999/xlink" version="1.1" width="150pt" height="150pt" viewBox="0 0 150 150">
<g enable-background="new">
<g id="Layer-1" data-name="21">
<path transform="matrix(1,0,0,-1,0,150)" d="M 0 50.073 L 149.95 50.073 L 149.95 150 L 0 150 Z " fill="#003366"/>
<path transform="matrix(1,0,0,-1,0,150)" d="M 0 .073 L 149.95 .073 L 149.95 50.073 L 0 50.073 Z " fill="#007cbb"/>
<clipPath id="cp0">
<path transform="matrix(1,0,0,-1,0,150)" d="M 0 150 L 150 150 L 150 0 L 0 0 Z "/>
</clipPath>
<g clip-path="url(#cp0)">
<path transform="matrix(1,0,0,-1,20.3592,119.5576)" d="M 0 0 C 0 -3.851 -1.547 -6.65 -7.23 -13.722 L .387 -13.722 L -.06 -17.502 L -11.753 -17.502 L -11.753 -13.967 C -5.653 -5.916 -4.255 -3.605 -4.255 -.385 C -4.255 1.646 -5.178 2.766 -6.605 2.766 C -7.944 2.766 -8.808 1.995 -9.908 .385 L -12.378 2.625 C -10.891 5.075 -8.867 6.546 -6.219 6.546 C -2.202 6.546 0 3.605 0 0 " fill="#ffffff"/>
<path transform="matrix(1,0,0,-1,30.949,137.0596)" d="M 0 0 L -4.017 0 L -4.017 18.797 L -7.914 15.682 L -9.729 18.867 L -3.659 23.593 L 0 23.593 Z " fill="#ffffff"/>
<path transform="matrix(1,0,0,-1,42.6853,108.903308)" d="M 0 0 L 0 -6.833 L .748 -6.833 C 1.974 -6.833 2.953 -6.215 2.953 -3.368 C 2.953 -.468 1.919 0 .708 0 Z M 4.777 -3.368 C 4.777 -7.246 2.708 -8.167 .626 -8.167 L -1.77 -8.167 L -1.77 1.333 L .436 1.333 C 2.668 1.333 4.777 .618 4.777 -3.368 " fill="#ffffff"/>
<path transform="matrix(1,0,0,-1,0,150)" d="M 50.316 32.93 L 48.546 32.93 L 48.546 42.43 L 50.316 42.43 Z " fill="#ffffff"/>
<path transform="matrix(1,0,0,-1,58.1033,108.4775)" d="M 0 0 L -.912 -.948 C -1.498 -.468 -1.974 -.233 -2.695 -.233 C -3.894 -.233 -4.859 -1.113 -4.859 -3.836 C -4.859 -6.585 -4.206 -7.437 -2.94 -7.437 C -2.464 -7.437 -2.028 -7.313 -1.647 -7.08 L -1.647 -4.551 L -2.872 -4.551 L -3.049 -3.23 L .054 -3.23 L .054 -7.864 C -.79 -8.441 -1.838 -8.799 -2.913 -8.799 C -5.391 -8.799 -6.697 -7.19 -6.697 -3.836 C -6.697 -.509 -4.914 1.113 -2.75 1.113 C -1.565 1.113 -.735 .687 0 0 " fill="#ffffff"/>
<path transform="matrix(1,0,0,-1,65.7654,117.0703)" d="M 0 0 L -2.259 0 L -5.009 7.74 C -4.927 6.888 -4.777 5.692 -4.777 3.946 L -4.777 0 L -6.356 0 L -6.356 9.5 L -4.124 9.5 L -1.348 1.76 C -1.429 2.296 -1.579 3.644 -1.579 4.991 L -1.579 9.5 L 0 9.5 Z " fill="#ffffff"/>
<path transform="matrix(1,0,0,-1,0,150)" d="M 69 32.93 L 67.23 32.93 L 67.23 42.43 L 69 42.43 Z " fill="#ffffff"/>
<path transform="matrix(1,0,0,-1,70.451,107.5703)" d="M 0 0 L 4.9 0 L 4.71 -1.319 L 1.77 -1.319 L 1.77 -4.207 L 4.329 -4.207 L 4.329 -5.526 L 1.77 -5.526 L 1.77 -9.5 L 0 -9.5 Z " fill="#ffffff"/>
<path transform="matrix(1,0,0,-1,0,150)" d="M 77.841 32.93 L 76.07101 32.93 L 76.07101 42.43 L 77.841 42.43 Z " fill="#ffffff"/>
<path transform="matrix(1,0,0,-1,84.1238,108.8896)" d="M 0 0 L -3.063 0 L -3.063 -2.695 L -.381 -2.695 L -.381 -4.001 L -3.063 -4.001 L -3.063 -6.847 L .218 -6.847 L .218 -8.181 L -4.832 -8.181 L -4.832 1.319 L .19 1.319 Z " fill="#ffffff"/>
<path transform="matrix(1,0,0,-1,87.0555,108.903308)" d="M 0 0 L 0 -6.833 L .748 -6.833 C 1.974 -6.833 2.953 -6.215 2.953 -3.368 C 2.953 -.468 1.919 0 .708 0 Z M 4.777 -3.368 C 4.777 -7.246 2.708 -8.167 .626 -8.167 L -1.77 -8.167 L -1.77 1.333 L .436 1.333 C 2.668 1.333 4.777 .618 4.777 -3.368 " fill="#ffffff"/>
<path transform="matrix(1,0,0,-1,43.4881,124.469699)" d="M 0 0 C 1.116 0 1.634 .495 1.634 1.608 C 1.634 2.64 1.116 3.094 -.108 3.094 L -.803 3.094 L -.803 0 Z M .163 -1.278 L -.803 -1.278 L -.803 -5.101 L -2.572 -5.101 L -2.572 4.399 L -.095 4.399 C 2.313 4.399 3.457 3.438 3.457 1.608 C 3.457 .413 2.913 -.48 1.77 -.948 L 3.961 -5.101 L 2.015 -5.101 Z " fill="#ffffff"/>
<path transform="matrix(1,0,0,-1,52.9617,121.3896)" d="M 0 0 L -3.063 0 L -3.063 -2.695 L -.381 -2.695 L -.381 -4.001 L -3.063 -4.001 L -3.063 -6.847 L .218 -6.847 L .218 -8.181 L -4.832 -8.181 L -4.832 1.319 L .19 1.319 Z " fill="#ffffff"/>
<path transform="matrix(1,0,0,-1,59.8221,121.4727)" d="M 0 0 L -2.164 0 L -2.164 -8.098 L -3.92 -8.098 L -3.92 0 L -6.179 0 L -6.179 1.402 L .19 1.402 Z " fill="#ffffff"/>
<path transform="matrix(1,0,0,-1,67.031,126.71)" d="M 0 0 C 0 -1.732 -1.089 -3.066 -3.213 -3.066 C -5.363 -3.066 -6.425 -1.774 -6.425 0 L -6.425 6.64 L -4.655 6.64 L -4.655 .096 C -4.655 -1.087 -4.22 -1.678 -3.213 -1.678 C -2.219 -1.678 -1.77 -1.087 -1.77 .096 L -1.77 6.64 L 0 6.64 Z " fill="#ffffff"/>
<path transform="matrix(1,0,0,-1,70.9939,124.469699)" d="M 0 0 C 1.115 0 1.633 .495 1.633 1.608 C 1.633 2.64 1.115 3.094 -.109 3.094 L -.804 3.094 L -.804 0 Z M .163 -1.278 L -.804 -1.278 L -.804 -5.101 L -2.573 -5.101 L -2.573 4.399 L -.096 4.399 C 2.313 4.399 3.457 3.438 3.457 1.608 C 3.457 .413 2.912 -.48 1.769 -.948 L 3.96 -5.101 L 2.014 -5.101 Z " fill="#ffffff"/>
<path transform="matrix(1,0,0,-1,81.992,129.5703)" d="M 0 0 L -2.26 0 L -5.009 7.74 C -4.928 6.888 -4.777 5.692 -4.777 3.946 L -4.777 0 L -6.356 0 L -6.356 9.5 L -4.124 9.5 L -1.348 1.76 C -1.43 2.296 -1.579 3.644 -1.579 4.991 L -1.579 9.5 L 0 9.5 Z " fill="#ffffff"/>
<path transform="matrix(1,0,0,-1,89.9412,126.009799)" d="M 0 0 L -1.062 4.579 L -2.123 0 Z M .3 -1.347 L -2.423 -1.347 L -2.939 -3.561 L -4.723 -3.561 L -2.109 5.939 L .041 5.939 L 2.641 -3.561 L .816 -3.561 Z " fill="#ffffff"/>
<path transform="matrix(1,0,0,-1,99.5584,129.5703)" d="M 0 0 L -2.26 0 L -5.009 7.74 C -4.928 6.888 -4.777 5.692 -4.777 3.946 L -4.777 0 L -6.356 0 L -6.356 9.5 L -4.124 9.5 L -1.348 1.76 C -1.43 2.296 -1.579 3.644 -1.579 4.991 L -1.579 9.5 L 0 9.5 Z " fill="#ffffff"/>
<path transform="matrix(1,0,0,-1,102.7967,121.4033)" d="M 0 0 L 0 -6.833 L .749 -6.833 C 1.974 -6.833 2.954 -6.215 2.954 -3.368 C 2.954 -.468 1.919 0 .708 0 Z M 4.777 -3.368 C 4.777 -7.246 2.709 -8.167 .626 -8.167 L -1.77 -8.167 L -1.77 1.333 L .436 1.333 C 2.668 1.333 4.777 .618 4.777 -3.368 " fill="#ffffff"/>
<path transform="matrix(1,0,0,-1,43.4881,136.9697)" d="M 0 0 C 1.116 0 1.634 .495 1.634 1.608 C 1.634 2.64 1.116 3.094 -.108 3.094 L -.803 3.094 L -.803 0 Z M .163 -1.278 L -.803 -1.278 L -.803 -5.101 L -2.572 -5.101 L -2.572 4.399 L -.095 4.399 C 2.313 4.399 3.457 3.438 3.457 1.608 C 3.457 .413 2.913 -.48 1.77 -.948 L 3.961 -5.101 L 2.015 -5.101 Z " fill="#ffffff"/>
<path transform="matrix(1,0,0,-1,52.9617,133.8896)" d="M 0 0 L -3.063 0 L -3.063 -2.695 L -.381 -2.695 L -.381 -4.001 L -3.063 -4.001 L -3.063 -6.847 L .218 -6.847 L .218 -8.181 L -4.832 -8.181 L -4.832 1.319 L .19 1.319 Z " fill="#ffffff"/>
<path transform="matrix(1,0,0,-1,0,150)" d="M 55.915 7.93 L 54.145 7.93 L 54.145 17.43 L 55.915 17.43 Z " fill="#ffffff"/>
<path transform="matrix(1,0,0,-1,63.7224,142.0703)" d="M 0 0 L -2.26 0 L -5.009 7.74 C -4.928 6.888 -4.777 5.692 -4.777 3.946 L -4.777 0 L -6.356 0 L -6.356 9.5 L -4.124 9.5 L -1.348 1.76 C -1.43 2.296 -1.579 3.644 -1.579 4.991 L -1.579 9.5 L 0 9.5 Z " fill="#ffffff"/>
<path transform="matrix(1,0,0,-1,70.6033,133.9727)" d="M 0 0 L -2.164 0 L -2.164 -8.098 L -3.92 -8.098 L -3.92 0 L -6.18 0 L -6.18 1.402 L .19 1.402 Z " fill="#ffffff"/>
<path transform="matrix(1,0,0,-1,76.2859,133.8896)" d="M 0 0 L -3.063 0 L -3.063 -2.695 L -.381 -2.695 L -.381 -4.001 L -3.063 -4.001 L -3.063 -6.847 L .218 -6.847 L .218 -8.181 L -4.832 -8.181 L -4.832 1.319 L .19 1.319 Z " fill="#ffffff"/>
<path transform="matrix(1,0,0,-1,83.5867,133.47751)" d="M 0 0 L -.912 -.948 C -1.498 -.468 -1.974 -.233 -2.695 -.233 C -3.894 -.233 -4.859 -1.113 -4.859 -3.836 C -4.859 -6.585 -4.206 -7.437 -2.94 -7.437 C -2.464 -7.437 -2.028 -7.313 -1.647 -7.08 L -1.647 -4.551 L -2.872 -4.551 L -3.049 -3.23 L .054 -3.23 L .054 -7.864 C -.79 -8.441 -1.838 -8.799 -2.913 -8.799 C -5.391 -8.799 -6.697 -7.19 -6.697 -3.836 C -6.697 -.509 -4.914 1.113 -2.75 1.113 C -1.565 1.113 -.735 .687 0 0 " fill="#ffffff"/>
<path transform="matrix(1,0,0,-1,87.4646,136.9697)" d="M 0 0 C 1.116 0 1.634 .495 1.634 1.608 C 1.634 2.64 1.116 3.094 -.108 3.094 L -.803 3.094 L -.803 0 Z M .163 -1.278 L -.803 -1.278 L -.803 -5.101 L -2.572 -5.101 L -2.572 4.399 L -.095 4.399 C 2.313 4.399 3.457 3.438 3.457 1.608 C 3.457 .413 2.913 -.48 1.77 -.948 L 3.961 -5.101 L 2.015 -5.101 Z " fill="#ffffff"/>
<path transform="matrix(1,0,0,-1,96.3484,138.5098)" d="M 0 0 L -1.062 4.579 L -2.124 0 Z M .299 -1.347 L -2.423 -1.347 L -2.94 -3.561 L -4.724 -3.561 L -2.11 5.939 L .041 5.939 L 2.641 -3.561 L .816 -3.561 Z " fill="#ffffff"/>
<path transform="matrix(1,0,0,-1,104.2879,133.9727)" d="M 0 0 L -2.164 0 L -2.164 -8.098 L -3.92 -8.098 L -3.92 0 L -6.179 0 L -6.179 1.402 L .19 1.402 Z " fill="#ffffff"/>
<path transform="matrix(1,0,0,-1,0,150)" d="M 106.909 7.93 L 105.139 7.93 L 105.139 17.43 L 106.909 17.43 Z " fill="#ffffff"/>
<path transform="matrix(1,0,0,-1,109.8504,137.3271)" d="M 0 0 C 0 -2.653 .708 -3.588 1.893 -3.588 C 3.131 -3.588 3.798 -2.653 3.798 .014 C 3.798 2.64 3.131 3.603 1.893 3.603 C .681 3.603 0 2.64 0 0 M 5.648 .014 C 5.648 -3.23 4.22 -4.949 1.893 -4.949 C -.408 -4.949 -1.851 -3.285 -1.851 0 C -1.851 3.231 -.408 4.963 1.893 4.963 C 4.206 4.963 5.648 3.313 5.648 .014 " fill="#ffffff"/>
<path transform="matrix(1,0,0,-1,122.9461,142.0703)" d="M 0 0 L -2.259 0 L -5.009 7.74 C -4.927 6.888 -4.777 5.692 -4.777 3.946 L -4.777 0 L -6.356 0 L -6.356 9.5 L -4.124 9.5 L -1.348 1.76 C -1.429 2.296 -1.579 3.644 -1.579 4.991 L -1.579 9.5 L 0 9.5 Z " fill="#ffffff"/>
<path transform="matrix(1,0,0,-1,0,150)" d="M 46.04 71.125 L 74.375 71.125 L 74.375 83.270999 L 46.04 83.270999 Z M 75.625 69.875 L 44.79 69.875 L 44.79 84.520999 L 75.625 84.520999 Z " fill="#ffffff"/>
<path transform="matrix(1,0,0,-1,0,150)" d="M 75.625 71.125 L 103.96 71.125 L 103.96 83.270999 L 75.625 83.270999 Z M 105.21 69.875 L 74.375 69.875 L 74.375 84.520999 L 105.21 84.520999 Z " fill="#ffffff"/>
<path transform="matrix(1,0,0,-1,0,150)" d="M 93.484 84.835 L 100.807 84.835 L 100.807 86.941 L 93.484 86.941 Z M 102.057 83.585 L 92.234 83.585 L 92.234 88.191 L 102.057 88.191 Z " fill="#ffffff"/>
<path transform="matrix(1,0,0,-1,0,150)" d="M 79.319 84.835 L 86.641 84.835 L 86.641 86.941 L 79.319 86.941 Z M 87.891 83.585 L 78.069 83.585 L 78.069 88.191 L 87.891 88.191 Z " fill="#ffffff"/>
<path transform="matrix(1,0,0,-1,0,150)" d="M 63.358 84.835 L 70.68 84.835 L 70.68 86.941 L 63.358 86.941 Z M 71.93 83.585 L 62.108 83.585 L 62.108 88.191 L 71.93 88.191 Z " fill="#ffffff"/>
<path transform="matrix(1,0,0,-1,0,150)" d="M 49.193 84.835 L 56.515 84.835 L 56.515 86.941 L 49.193 86.941 Z M 57.765 83.585 L 47.943 83.585 L 47.943 88.191 L 57.765 88.191 Z " fill="#ffffff"/>
<path transform="matrix(1,0,0,-1,59.4324,43.8564)" d="M 0 0 L 5.152 -11.008 L 30.832 .919 L 25.679 11.928 Z M 4.549 -12.667 L -1.664 .605 L 26.282 13.587 L 32.496 .314 Z " fill="#ffffff"/>
<path transform="matrix(1,0,0,-1,73.8416,36.129404)" d="M 0 0 L -1.689 3.609 L 7.213 7.745 L 8.901 4.139 L 7.769 3.609 L 6.609 6.085 L -.025 3.003 L 1.133 .53 Z " fill="#ffffff"/>
<path transform="matrix(1,0,0,-1,61.0027,42.092798)" d="M 0 0 L -1.689 3.609 L 7.214 7.745 L 8.902 4.139 L 7.77 3.609 L 6.61 6.086 L -.025 3.004 L 1.133 .53 Z " fill="#ffffff"/>
<path transform="matrix(1,0,0,-1,51.4803,56.485399)" d="M 0 0 L -6.368 3.501 L -5.767 4.597 L -.49 1.695 L 2.422 6.95 L 3.516 6.344 Z " fill="#ffffff"/>
<path transform="matrix(1,0,0,-1,73.5115,21.308106)" d="M 0 0 L -.148 1.241 C .919 1.369 2.001 1.433 3.069 1.433 C 3.353 1.427 3.688 1.428 3.995 1.417 L 3.952 .168 C 3.659 .178 3.411 .187 3.069 .183 C 2.051 .183 1.018 .122 0 0 M 10.449 -.882 C 9.187 -.509 7.885 -.231 6.582 -.054 L 6.75 1.185 C 8.115 1 9.479 .708 10.803 .317 Z M -6.387 -1.596 L -6.838 -.43 C -6.432 -.272 -6.019 -.124 -5.599 .016 C -4.705 .315 -3.788 .57 -2.874 .774 L -2.601 -.446 C -3.474 -.641 -4.35 -.884 -5.203 -1.169 C -5.604 -1.303 -5.998 -1.445 -6.387 -1.596 M 16.479 -3.519 C 15.351 -2.845 14.159 -2.251 12.938 -1.754 L 13.411 -.597 C 14.689 -1.118 15.938 -1.74 17.119 -2.446 Z M -12.174 -4.724 L -12.902 -3.708 C -11.784 -2.905 -10.592 -2.181 -9.361 -1.556 L -8.795 -2.67 C -9.97 -3.267 -11.106 -3.958 -12.174 -4.724 M 21.661 -7.573 C 20.736 -6.639 19.73 -5.767 18.673 -4.982 L 19.419 -3.978 C 20.526 -4.801 21.58 -5.714 22.55 -6.693 Z M -16.984 -9.207 L -17.945 -8.408 C -17.064 -7.348 -16.094 -6.347 -15.061 -5.432 L -14.232 -6.368 C -15.218 -7.241 -16.144 -8.196 -16.984 -9.207 M 25.651 -12.798 C 24.991 -11.658 24.239 -10.562 23.415 -9.538 L 24.39 -8.754 C 25.253 -9.827 26.042 -10.977 26.733 -12.172 Z M -20.517 -14.756 L -21.647 -14.224 C -21.06 -12.977 -20.372 -11.764 -19.603 -10.62 L -18.565 -11.317 C -19.3 -12.409 -19.956 -13.566 -20.517 -14.756 M 27.792 -17.539 C 27.52 -16.729 27.204 -15.923 26.854 -15.145 L 27.994 -14.632 C 28.36 -15.448 28.691 -16.291 28.978 -17.139 Z M -22.547 -21.014 L -23.775 -20.783 C -23.521 -19.43 -23.158 -18.083 -22.699 -16.78 L -21.52 -17.196 C -21.958 -18.439 -22.304 -19.724 -22.547 -21.014 M -24.177 -27.669 C -24.221 -27.038 -24.243 -26.409 -24.243 -25.782 C -24.243 -25.032 -24.211 -24.272 -24.148 -23.523 L -22.902 -23.628 C -22.963 -24.342 -22.993 -25.067 -22.993 -25.782 C -22.993 -26.38 -22.973 -26.98 -22.931 -27.582 Z M -22.821 -34.431 C -23.262 -33.119 -23.605 -31.767 -23.842 -30.414 L -22.611 -30.199 C -22.385 -31.49 -22.057 -32.78 -21.636 -34.033 Z " fill="#ffffff"/>
</g>
</g>
</g>
</svg>
