<?xml version="1.0" encoding="UTF-8" standalone="no"?>
<!DOCTYPE svg PUBLIC "-//W3C//DTD SVG 1.1//EN" "http://www.w3.org/Graphics/SVG/1.1/DTD/svg11.dtd">
<svg xmlns="http://www.w3.org/2000/svg" xmlns:xlink="http://www.w3.org/1999/xlink" version="1.1" width="150pt" height="150pt" viewBox="0 0 150 150">
<g enable-background="new">
<g id="Layer-1" data-name="20">
<path transform="matrix(1,0,0,-1,0,150)" d="M 0 50.073 L 149.95 50.073 L 149.95 150 L 0 150 Z " fill="#003366"/>
<path transform="matrix(1,0,0,-1,0,150)" d="M .117 0 L 150 0 L 150 50 L .117 50 Z " fill="#0d92c8"/>
<clipPath id="cp0">
<path transform="matrix(1,0,0,-1,0,150)" d="M 0 150 L 150 150 L 150 0 L 0 0 Z "/>
</clipPath>
<g clip-path="url(#cp0)">
<path transform="matrix(1,0,0,-1,18.7498,119.5576)" d="M 0 0 C 0 -3.851 -1.547 -6.65 -7.23 -13.722 L .387 -13.722 L -.06 -17.502 L -11.753 -17.502 L -11.753 -13.967 C -5.653 -5.916 -4.255 -3.605 -4.255 -.385 C -4.255 1.646 -5.178 2.766 -6.605 2.766 C -7.944 2.766 -8.808 1.995 -9.908 .385 L -12.378 2.625 C -10.891 5.075 -8.867 6.546 -6.219 6.546 C -2.202 6.546 0 3.605 0 0 " fill="#ffffff"/>
<path transform="matrix(1,0,0,-1,24.2879,125.2979)" d="M 0 0 C 0 -6.756 .773 -8.682 2.56 -8.682 C 4.345 -8.682 5.088 -6.826 5.088 0 C 5.088 6.825 4.345 8.646 2.56 8.646 C .773 8.646 0 6.721 0 0 M 9.343 0 C 9.343 -8.191 6.963 -12.322 2.56 -12.322 C -1.874 -12.322 -4.225 -8.191 -4.225 0 C -4.225 8.19 -1.874 12.286 2.56 12.286 C 6.963 12.286 9.343 8.12 9.343 0 " fill="#ffffff"/>
<path transform="matrix(1,0,0,-1,43.9344,125.1719)" d="M 0 0 C 1.229 0 1.8 .54 1.8 1.755 C 1.8 2.88 1.229 3.375 -.12 3.375 L -.885 3.375 L -.885 0 Z M .18 -1.395 L -.885 -1.395 L -.885 -5.564 L -2.835 -5.564 L -2.835 4.8 L -.105 4.8 C 2.55 4.8 3.81 3.75 3.81 1.755 C 3.81 .45 3.21 -.524 1.949 -1.034 L 4.364 -5.564 L 2.22 -5.564 Z " fill="#ffffff"/>
<path transform="matrix(1,0,0,-1,54.741,121.8115)" d="M 0 0 L -3.374 0 L -3.374 -2.94 L -.42 -2.94 L -.42 -4.365 L -3.374 -4.365 L -3.374 -7.47 L .24 -7.47 L .24 -8.925 L -5.324 -8.925 L -5.324 1.439 L .21 1.439 Z " fill="#ffffff"/>
<path transform="matrix(1,0,0,-1,65.5935,130.7363)" d="M 0 0 L -1.859 0 L -2.085 4.365 C -2.16 5.895 -2.22 7.484 -2.189 8.58 L -3.824 1.125 L -5.64 1.125 L -7.364 8.595 C -7.319 7.215 -7.35 5.79 -7.409 4.305 L -7.619 0 L -9.465 0 L -8.744 10.364 L -6.27 10.364 L -4.694 3.075 L -3.225 10.364 L -.72 10.364 Z " fill="#ffffff"/>
<path transform="matrix(1,0,0,-1,0,150)" d="M 69.21 19.264 L 67.26 19.264 L 67.26 29.628 L 69.21 29.628 Z " fill="#ffffff"/>
<path transform="matrix(1,0,0,-1,77.1424,121.9014)" d="M 0 0 L -2.385 0 L -2.385 -8.835 L -4.319 -8.835 L -4.319 0 L -6.81 0 L -6.81 1.529 L .21 1.529 Z " fill="#ffffff"/>
<path transform="matrix(1,0,0,-1,84.8094,121.9014)" d="M 0 0 L -2.385 0 L -2.385 -8.835 L -4.319 -8.835 L -4.319 0 L -6.81 0 L -6.81 1.529 L .21 1.529 Z " fill="#ffffff"/>
<path transform="matrix(1,0,0,-1,89.4803,126.8516)" d="M 0 0 L -1.17 4.995 L -2.34 0 Z M .33 -1.47 L -2.67 -1.47 L -3.24 -3.885 L -5.205 -3.885 L -2.325 6.479 L .045 6.479 L 2.909 -3.885 L .899 -3.885 Z " fill="#ffffff"/>
<path transform="matrix(1,0,0,-1,100.4441,130.7363)" d="M 0 0 L -2.49 0 L -5.521 8.444 C -5.43 7.515 -5.266 6.21 -5.266 4.305 L -5.266 0 L -7.005 0 L -7.005 10.364 L -4.545 10.364 L -1.485 1.92 C -1.575 2.505 -1.74 3.975 -1.74 5.444 L -1.74 10.364 L 0 10.364 Z " fill="#ffffff"/>
<path transform="matrix(1,0,0,-1,108.9285,121.2266)" d="M 0 0 L -.96 -1.125 C -1.5 -.675 -2.04 -.42 -2.686 -.42 C -3.93 -.42 -4.875 -1.396 -4.875 -4.305 C -4.875 -7.125 -3.96 -8.175 -2.67 -8.175 C -1.875 -8.175 -1.335 -7.8 -.825 -7.38 L .104 -8.49 C -.511 -9.135 -1.471 -9.734 -2.76 -9.734 C -5.205 -9.734 -6.915 -7.935 -6.915 -4.305 C -6.915 -.72 -5.115 1.08 -2.79 1.08 C -1.59 1.08 -.78 .675 0 0 " fill="#ffffff"/>
<path transform="matrix(1,0,0,-1,115.5056,121.8115)" d="M 0 0 L -3.374 0 L -3.374 -2.94 L -.42 -2.94 L -.42 -4.365 L -3.374 -4.365 L -3.374 -7.47 L .24 -7.47 L .24 -8.925 L -5.324 -8.925 L -5.324 1.439 L .21 1.439 Z " fill="#ffffff"/>
<path transform="matrix(1,0,0,-1,123.4178,121.4219)" d="M 0 0 L -.93 -1.064 C -1.59 -.479 -2.22 -.21 -2.97 -.21 C -3.825 -.21 -4.38 -.675 -4.38 -1.455 C -4.38 -2.205 -4.02 -2.58 -2.49 -3.12 C -.81 -3.734 .27 -4.484 .27 -6.359 C .27 -8.175 -1.08 -9.539 -3.33 -9.539 C -4.875 -9.539 -5.955 -8.954 -6.765 -8.13 L -5.774 -7.034 C -5.069 -7.649 -4.35 -8.039 -3.405 -8.039 C -2.399 -8.039 -1.755 -7.454 -1.755 -6.465 C -1.755 -5.609 -2.13 -5.175 -3.555 -4.68 C -5.535 -3.975 -6.375 -3.09 -6.375 -1.59 C -6.375 .09 -4.995 1.275 -3.104 1.275 C -1.755 1.275 -.81 .825 0 0 " fill="#ffffff"/>
<path transform="matrix(1,0,0,-1,98.3924,42.083505)" d="M 0 0 L -1.25 0 C -1.25 11.557 -10.688 20.958 -22.287 20.958 C -33.887 20.958 -43.324 11.557 -43.324 0 L -44.574 0 C -44.574 12.246 -34.576 22.208 -22.287 22.208 C -9.998 22.208 0 12.246 0 0 " fill="#ffffff"/>
<path transform="matrix(1,0,0,-1,76.1053,33.2119)" d="M 0 0 C -6.028 0 -11.67 1.387 -15.885 3.904 L -15.244 4.978 C -11.22 2.574 -5.807 1.25 0 1.25 C 5.881 1.25 11.343 2.603 15.379 5.059 L 16.029 3.99 C 11.799 1.417 6.106 0 0 0 " fill="#ffffff"/>
<path transform="matrix(1,0,0,-1,64.8367,42.091798)" d="M 0 0 L -1.25 .04 C -.897 10.958 3.808 19.701 9.938 20.829 L 10.164 19.6 C 4.697 18.594 .328 10.168 0 0 " fill="#ffffff"/>
<path transform="matrix(1,0,0,-1,87.3943,42.091798)" d="M 0 0 C -.327 10.167 -4.696 18.594 -10.163 19.6 L -9.937 20.829 C -3.807 19.701 .898 10.958 1.25 .04 Z " fill="#ffffff"/>
<path transform="matrix(1,0,0,-1,0,150)" d="M 76.73 118.413 L 75.48 118.413 L 75.48 128.45801 L 76.73 128.45801 Z " fill="#ffffff"/>
<path transform="matrix(1,0,0,-1,0,150)" d="M 76.73 107.928 L 75.48 107.928 L 75.48 115.847 L 76.73 115.847 Z " fill="#ffffff"/>
<path transform="matrix(1,0,0,-1,77.9607,67.1602)" d="M 0 0 L -10.993 0 L -11.114 .469 C -11.638 2.492 -13.225 4.073 -15.256 4.595 L -15.726 4.715 L -15.726 21.358 L -14.476 21.358 L -14.476 5.667 C -12.384 4.973 -10.74 3.334 -10.043 1.25 L -.95 1.25 C -.253 3.334 1.391 4.973 3.482 5.667 L 3.482 21.358 L 4.732 21.358 L 4.732 4.715 L 4.263 4.595 C 2.231 4.073 .645 2.492 .121 .469 Z " fill="#ffffff"/>
<path transform="matrix(1,0,0,-1,72.4646,53.3384)" d="M 0 0 C -4.17 0 -7.562 3.381 -7.562 7.536 L -6.312 7.536 C -6.312 4.07 -3.48 1.25 0 1.25 C 3.479 1.25 6.311 4.07 6.311 7.536 L 7.561 7.536 C 7.561 3.381 4.169 0 0 0 " fill="#ffffff"/>
<path transform="matrix(1,0,0,-1,72.5926,57.557603)" d="M 0 0 C -1.084 0 -1.966 -.878 -1.966 -1.957 C -1.966 -3.035 -1.084 -3.913 0 -3.913 C 1.084 -3.913 1.966 -3.035 1.966 -1.957 C 1.966 -.878 1.084 0 0 0 M 0 -5.163 C -1.773 -5.163 -3.216 -3.725 -3.216 -1.957 C -3.216 -.188 -1.773 1.25 0 1.25 C 1.773 1.25 3.216 -.188 3.216 -1.957 C 3.216 -3.725 1.773 -5.163 0 -5.163 " fill="#ffffff"/>
<path transform="matrix(1,0,0,-1,100.5359,52.211404)" d="M 0 0 L -1.25 0 L -1.25 7.814 L -49.822 7.814 L -49.822 0 L -51.072 0 L -51.072 9.064 L 0 9.064 Z " fill="#ffffff"/>
<path transform="matrix(1,0,0,-1,86.2547,70.709)" d="M 0 0 L -27.581 0 L -27.581 24.907 L -26.331 24.907 L -26.331 1.25 L -1.25 1.25 L -1.25 24.907 L 0 24.907 Z " fill="#ffffff"/>
<path transform="matrix(1,0,0,-1,91.3689,75.7617)" d="M 0 0 L -29.328 0 L -29.328 1.25 L -1.25 1.25 L -1.25 29.959 L 0 29.959 Z " fill="#ffffff"/>
<path transform="matrix(1,0,0,-1,95.7478,80.125)" d="M 0 0 L -29.328 0 L -29.328 1.25 L -1.25 1.25 L -1.25 34.323 L 0 34.323 Z " fill="#ffffff"/>
</g>
</g>
</g>
</svg>
