<?xml version="1.0" encoding="UTF-8" standalone="no"?>
<!DOCTYPE svg PUBLIC "-//W3C//DTD SVG 1.1//EN" "http://www.w3.org/Graphics/SVG/1.1/DTD/svg11.dtd">
<svg xmlns="http://www.w3.org/2000/svg" xmlns:xlink="http://www.w3.org/1999/xlink" version="1.1" width="150pt" height="150pt" viewBox="0 0 150 150">
<g enable-background="new">
<g id="Layer-1" data-name="08">
<path transform="matrix(1,0,0,-1,0,150)" d="M 0 50.073 L 149.95 50.073 L 149.95 150 L 0 150 Z " fill="#003366"/>
<path transform="matrix(1,0,0,-1,0,150)" d="M .117 0 L 150 0 L 150 50 L .117 50 Z " fill="#fe7c23"/>
<clipPath id="cp0">
<path transform="matrix(1,0,0,-1,0,150)" d="M 0 150 L 150 150 L 150 0 L 0 0 Z "/>
</clipPath>
<g clip-path="url(#cp0)">
<path transform="matrix(1,0,0,-1,18.3201,119.3477)" d="M 0 0 C 0 -1.82 .714 -2.73 2.32 -3.57 L 2.856 -3.851 C 4.165 -2.66 4.522 -1.505 4.522 .035 C 4.522 2.03 3.749 3.011 2.261 3.011 C .893 3.011 0 2.17 0 0 M 5.117 -11.341 C 5.117 -9.241 4.344 -8.296 2.172 -7.211 L 1.368 -6.826 C 0 -7.841 -.596 -9.276 -.596 -11.271 C -.596 -13.616 .506 -14.736 2.291 -14.736 C 4.136 -14.736 5.117 -13.512 5.117 -11.341 M 9.194 -11.341 C 9.194 -15.297 6.635 -18.272 2.172 -18.272 C -2.172 -18.272 -4.701 -15.332 -4.701 -11.446 C -4.701 -8.611 -3.422 -6.721 -1.161 -5.496 C -3.243 -4.025 -3.958 -2.136 -3.958 .07 C -3.958 3.955 -1.339 6.336 2.231 6.336 C 5.832 6.336 8.51 4.2 8.51 .28 C 8.51 -1.82 7.587 -3.641 5.445 -5.041 C 8.033 -6.581 9.194 -8.611 9.194 -11.341 " fill="#ffffff"/>
<path transform="matrix(1,0,0,-1,46.9939,121.4043)" d="M 0 0 L -.93 -1.064 C -1.59 -.479 -2.22 -.21 -2.97 -.21 C -3.825 -.21 -4.38 -.675 -4.38 -1.455 C -4.38 -2.205 -4.02 -2.58 -2.49 -3.12 C -.81 -3.734 .27 -4.484 .27 -6.359 C .27 -8.175 -1.08 -9.539 -3.33 -9.539 C -4.875 -9.539 -5.955 -8.954 -6.765 -8.13 L -5.774 -7.034 C -5.069 -7.649 -4.35 -8.039 -3.405 -8.039 C -2.399 -8.039 -1.755 -7.454 -1.755 -6.465 C -1.755 -5.609 -2.13 -5.175 -3.555 -4.68 C -5.535 -3.975 -6.375 -3.09 -6.375 -1.59 C -6.375 .09 -4.995 1.275 -3.104 1.275 C -1.755 1.275 -.81 .825 0 0 " fill="#ffffff"/>
<path transform="matrix(1,0,0,-1,52.8963,126.834)" d="M 0 0 L -1.17 4.995 L -2.34 0 Z M .33 -1.47 L -2.67 -1.47 L -3.24 -3.885 L -5.205 -3.885 L -2.325 6.479 L .045 6.479 L 2.909 -3.885 L .899 -3.885 Z " fill="#ffffff"/>
<path transform="matrix(1,0,0,-1,60.4744,130.7187)" d="M 0 0 L -2.354 0 L -5.145 10.364 L -3.135 10.364 L -1.14 1.71 L .766 10.364 L 2.715 10.364 Z " fill="#ffffff"/>
<path transform="matrix(1,0,0,-1,69.5642,121.7939)" d="M 0 0 L -3.374 0 L -3.374 -2.94 L -.42 -2.94 L -.42 -4.365 L -3.374 -4.365 L -3.374 -7.47 L .24 -7.47 L .24 -8.925 L -5.324 -8.925 L -5.324 1.439 L .21 1.439 Z " fill="#ffffff"/>
<path transform="matrix(1,0,0,-1,76.6443,129.1289)" d="M 0 0 L 3.689 0 L 3.479 -1.59 L -1.95 -1.59 L -1.95 8.774 L 0 8.774 Z " fill="#ffffff"/>
<path transform="matrix(1,0,0,-1,0,150)" d="M 83.439 19.281 L 81.489009 19.281 L 81.489009 29.645 L 83.439 29.645 Z " fill="#ffffff"/>
<path transform="matrix(1,0,0,-1,89.6248,130.7187)" d="M 0 0 L -2.354 0 L -5.145 10.364 L -3.135 10.364 L -1.14 1.71 L .766 10.364 L 2.715 10.364 Z " fill="#ffffff"/>
<path transform="matrix(1,0,0,-1,98.7146,121.7939)" d="M 0 0 L -3.374 0 L -3.374 -2.94 L -.42 -2.94 L -.42 -4.365 L -3.374 -4.365 L -3.374 -7.47 L .24 -7.47 L .24 -8.925 L -5.324 -8.925 L -5.324 1.439 L .21 1.439 Z " fill="#ffffff"/>
<path transform="matrix(1,0,0,-1,106.6267,121.4043)" d="M 0 0 L -.93 -1.064 C -1.59 -.479 -2.22 -.21 -2.97 -.21 C -3.825 -.21 -4.38 -.675 -4.38 -1.455 C -4.38 -2.205 -4.02 -2.58 -2.49 -3.12 C -.81 -3.734 .27 -4.484 .27 -6.359 C .27 -8.175 -1.08 -9.539 -3.33 -9.539 C -4.875 -9.539 -5.955 -8.954 -6.765 -8.13 L -5.774 -7.034 C -5.069 -7.649 -4.35 -8.039 -3.405 -8.039 C -2.399 -8.039 -1.755 -7.454 -1.755 -6.465 C -1.755 -5.609 -2.13 -5.175 -3.555 -4.68 C -5.535 -3.975 -6.375 -3.09 -6.375 -1.59 C -6.375 .09 -4.995 1.275 -3.104 1.275 C -1.755 1.275 -.81 .825 0 0 " fill="#ffffff"/>
<path transform="matrix(1,0,0,-1,77.1092,47.679704)" d="M 0 0 C -.654 0 -1.299 .178 -1.879 .586 L -2.704 1.167 C -2.719 1.178 -2.791 1.235 -2.805 1.246 C -3.063 1.464 -3.122 1.866 -2.911 2.131 C -2.698 2.396 -2.332 2.459 -2.066 2.256 C -2.064 2.254 -1.984 2.189 -1.982 2.188 L -1.159 1.608 C -.042 .823 1.523 1.409 2.494 2.393 L 5.599 6.665 C 5.801 6.943 6.19 7.007 6.472 6.802 C 6.751 6.599 6.812 6.208 6.608 5.929 L 3.444 1.586 C 2.526 .648 1.247 0 0 0 " fill="#ffffff"/>
<path transform="matrix(1,0,0,-1,69.3885,49.6772)" d="M 0 0 C -.772 0 -1.537 .208 -2.223 .691 L -3.225 1.397 C -3.271 1.429 -3.315 1.466 -3.361 1.505 C -3.611 1.716 -3.684 2.106 -3.492 2.371 L 4.893 13.968 C 4.96 14.06 5.05 14.132 5.155 14.177 L 26.886 23.413 L 30.772 29.771 L 31.839 29.119 L 27.848 22.589 C 27.779 22.479 27.679 22.391 27.559 22.34 L 5.804 13.094 L -2.113 2.144 L -1.503 1.713 C -.102 .726 1.85 1.432 3.069 2.646 L 7.625 9.093 C 7.718 9.224 7.857 9.314 8.015 9.346 L 12.271 10.185 L 16.542 10.907 C 16.643 10.938 16.745 10.963 16.849 10.984 L 24.253 12.218 C 24.575 12.27 24.894 12.062 24.966 11.737 C 25.038 11.413 24.844 11.088 24.523 10.999 C 24.503 10.993 24.424 10.972 24.402 10.969 L 16.828 9.688 C 16.339 9.52 15.882 9.147 15.532 8.621 C 15.002 7.822 14.786 6.776 14.968 5.893 C 14.971 5.877 15.056 5.358 15.128 4.921 L 27.453 7.003 L 31.553 12.074 L 34.502 19.059 L 37.178 24.623 L 38.305 24.081 L 35.642 18.545 L 32.67 11.507 C 32.646 11.453 32.616 11.402 32.58 11.357 L 28.276 6.034 C 28.181 5.916 28.045 5.836 27.895 5.811 L 14.723 3.584 C 14.41 3.53 14.111 3.719 14.02 4.021 C 14.005 4.069 13.994 4.105 13.738 5.666 C 13.495 6.849 13.769 8.211 14.477 9.29 L 12.497 8.956 L 8.502 8.167 L 4.061 1.882 C 4.041 1.854 4.019 1.828 3.995 1.804 C 2.957 .75 1.464 0 0 0 " fill="#ffffff"/>
<path transform="matrix(1,0,0,-1,78.908,80.0947)" d="M 0 0 C -.348 0 -.699 .053 -1.033 .156 L -13.973 3.345 C -16.506 3.032 -27.708 1.76 -29.924 3.476 L -31.872 5.387 L -36.102 4.523 L -36.352 5.748 L -31.471 6.744 L -29.103 4.416 C -27.731 3.356 -19.112 3.96 -14.014 4.6 L -13.898 4.614 L -.699 1.359 C .07 1.125 .981 1.261 1.174 1.879 C 1.276 2.212 1.243 2.565 1.081 2.873 C .917 3.183 .644 3.409 .309 3.513 L -11.021 8.414 L -10.76 9.613 L 5.726 9.261 C 6.038 9.273 6.362 9.422 6.6 9.678 C 6.838 9.935 6.961 10.267 6.947 10.616 C 6.921 11.318 6.339 11.872 5.64 11.872 C 5.622 11.872 5.605 11.872 5.589 11.871 L -11.357 13.42 L -11.411 14.658 L 6.714 17.903 C 7.095 17.951 7.404 18.127 7.619 18.404 C 7.833 18.679 7.927 19.021 7.883 19.367 C 7.84 19.713 7.663 20.021 7.388 20.235 C 7.111 20.45 6.771 20.544 6.42 20.5 L -11.826 18.213 L -12.199 19.385 L 2.741 27.369 C 3.052 27.534 3.278 27.808 3.38 28.142 C 3.481 28.475 3.447 28.828 3.283 29.136 C 2.943 29.771 2.151 30.014 1.509 29.675 L -12.501 24.265 L -19.452 24.073 L -19.487 25.323 L -12.644 25.512 L .989 30.81 C 2.17 31.441 3.723 30.967 4.387 29.724 C 4.708 29.121 4.774 28.43 4.575 27.777 C 4.376 27.124 3.934 26.586 3.329 26.266 L -8.632 19.874 L 6.264 21.74 C 6.949 21.825 7.613 21.642 8.153 21.223 C 8.693 20.804 9.038 20.2 9.123 19.522 C 9.209 18.846 9.025 18.177 8.606 17.637 C 8.187 17.097 7.581 16.752 6.902 16.667 L -6.639 14.243 L 5.621 13.118 C 6.991 13.154 8.143 12.072 8.197 10.664 C 8.223 9.981 7.981 9.329 7.517 8.828 C 7.052 8.327 6.419 8.037 5.735 8.011 L -7.601 8.295 L .741 4.684 C 1.331 4.505 1.866 4.062 2.186 3.458 C 2.505 2.854 2.569 2.161 2.367 1.509 C 2.048 .479 1.045 0 0 0 " fill="#ffffff"/>
<path transform="matrix(1,0,0,-1,42.6765,65.0874)" d="M 0 0 L -.365 1.195 L 4.127 2.567 L 5.114 8.981 L 9.732 14.914 L 20.053 25.122 L 20.263 25.148 C 21.144 25.258 21.959 24.971 22.497 24.357 C 23.041 23.737 23.222 22.88 22.993 22.007 C 21.896 17.822 18.047 13.396 17.197 12.456 L 17.077 8.824 C 17.087 8.645 17.293 3.267 13.343 2.337 L 13.056 3.554 C 16.007 4.249 15.83 8.77 15.828 8.815 L 15.963 12.963 L 16.124 13.134 C 16.169 13.183 20.656 18.019 21.784 22.324 C 21.906 22.789 21.823 23.23 21.558 23.533 C 21.331 23.791 20.973 23.92 20.616 23.921 L 10.665 14.086 L 6.3 8.47 L 5.242 1.601 Z " fill="#ffffff"/>
</g>
</g>
</g>
</svg>
