<?xml version="1.0" encoding="UTF-8" standalone="no"?>
<!DOCTYPE svg PUBLIC "-//W3C//DTD SVG 1.1//EN" "http://www.w3.org/Graphics/SVG/1.1/DTD/svg11.dtd">
<svg xmlns="http://www.w3.org/2000/svg" xmlns:xlink="http://www.w3.org/1999/xlink" version="1.1" width="150pt" height="150pt" viewBox="0 0 150 150">
<g enable-background="new">
<g id="Layer-1" data-name="19">
<path transform="matrix(1,0,0,-1,0,150)" d="M 0 50.073 L 149.95 50.073 L 149.95 150 L 0 150 Z " fill="#003366"/>
<path transform="matrix(1,0,0,-1,0,150)" d="M 0 .073 L 149.95 .073 L 149.95 50.073 L 0 50.073 Z " fill="#19a8d5"/>
<path transform="matrix(1,0,0,-1,17.533,137.0596)" d="M 0 0 L -4.017 0 L -4.017 18.797 L -7.914 15.682 L -9.729 18.867 L -3.659 23.593 L 0 23.593 Z " fill="#ffffff"/>
<clipPath id="cp0">
<path transform="matrix(1,0,0,-1,0,150)" d="M 0 150 L 150 150 L 150 0 L 0 0 Z "/>
</clipPath>
<g clip-path="url(#cp0)">
<path transform="matrix(1,0,0,-1,28.4773,123.092807)" d="M 0 0 C .06 4.97 -.625 6.58 -2.47 6.58 C -4.017 6.58 -4.999 5.25 -4.999 2.17 C -4.999 -1.051 -4.017 -2.205 -2.708 -2.205 C -1.637 -2.205 -.714 -1.436 0 0 M 4.226 .91 C 4.226 -8.751 .714 -12.707 -6.963 -14.912 L -7.796 -11.446 C -3.243 -9.941 -.833 -7.911 -.179 -3.431 C -1.101 -4.796 -2.291 -5.671 -3.928 -5.671 C -6.725 -5.671 -9.135 -2.766 -9.135 2.03 C -9.135 7.141 -6.219 10.081 -2.47 10.081 C 1.964 10.081 4.226 6.511 4.226 .91 " fill="#ffffff"/>
<path transform="matrix(1,0,0,-1,49.1502,117.0703)" d="M 0 0 L -1.687 0 L -1.892 4.001 C -1.96 5.403 -2.015 6.86 -1.987 7.864 L -3.471 1.031 L -5.117 1.031 L -6.683 7.878 C -6.642 6.613 -6.669 5.307 -6.724 3.946 L -6.914 0 L -8.588 0 L -7.935 9.5 L -5.689 9.5 L -4.26 2.818 L -2.926 9.5 L -.653 9.5 Z " fill="#ffffff"/>
<path transform="matrix(1,0,0,-1,0,150)" d="M 52.096 32.93 L 50.326 32.93 L 50.326 42.43 L 52.096 42.43 Z " fill="#ffffff"/>
<path transform="matrix(1,0,0,-1,59.8846,108.4775)" d="M 0 0 L -.912 -.948 C -1.498 -.468 -1.974 -.233 -2.695 -.233 C -3.894 -.233 -4.859 -1.113 -4.859 -3.836 C -4.859 -6.585 -4.206 -7.437 -2.94 -7.437 C -2.464 -7.437 -2.028 -7.313 -1.647 -7.08 L -1.647 -4.551 L -2.872 -4.551 L -3.049 -3.23 L .054 -3.23 L .054 -7.864 C -.79 -8.441 -1.838 -8.799 -2.913 -8.799 C -5.391 -8.799 -6.697 -7.19 -6.697 -3.836 C -6.697 -.509 -4.914 1.113 -2.75 1.113 C -1.565 1.113 -.735 .687 0 0 " fill="#ffffff"/>
<path transform="matrix(1,0,0,-1,63.7625,111.969699)" d="M 0 0 C 1.116 0 1.634 .495 1.634 1.608 C 1.634 2.64 1.116 3.094 -.108 3.094 L -.803 3.094 L -.803 0 Z M .163 -1.278 L -.803 -1.278 L -.803 -5.101 L -2.572 -5.101 L -2.572 4.399 L -.095 4.399 C 2.313 4.399 3.457 3.438 3.457 1.608 C 3.457 .413 2.913 -.48 1.77 -.948 L 3.961 -5.101 L 2.015 -5.101 Z " fill="#ffffff"/>
<path transform="matrix(1,0,0,-1,72.6453,113.509799)" d="M 0 0 L -1.062 4.579 L -2.123 0 Z M .3 -1.347 L -2.423 -1.347 L -2.939 -3.561 L -4.723 -3.561 L -2.109 5.939 L .041 5.939 L 2.641 -3.561 L .816 -3.561 Z " fill="#ffffff"/>
<path transform="matrix(1,0,0,-1,82.2625,117.0703)" d="M 0 0 L -2.259 0 L -5.009 7.74 C -4.927 6.888 -4.777 5.692 -4.777 3.946 L -4.777 0 L -6.356 0 L -6.356 9.5 L -4.124 9.5 L -1.348 1.76 C -1.429 2.296 -1.579 3.644 -1.579 4.991 L -1.579 9.5 L 0 9.5 Z " fill="#ffffff"/>
<path transform="matrix(1,0,0,-1,89.1433,108.9727)" d="M 0 0 L -2.164 0 L -2.164 -8.098 L -3.92 -8.098 L -3.92 0 L -6.179 0 L -6.179 1.402 L .19 1.402 Z " fill="#ffffff"/>
<path transform="matrix(1,0,0,-1,44.659,126.009799)" d="M 0 0 L -1.062 4.579 L -2.124 0 Z M .299 -1.347 L -2.423 -1.347 L -2.94 -3.561 L -4.724 -3.561 L -2.11 5.939 L .041 5.939 L 2.641 -3.561 L .816 -3.561 Z " fill="#ffffff"/>
<path transform="matrix(1,0,0,-1,54.2752,129.5703)" d="M 0 0 L -2.259 0 L -5.009 7.74 C -4.927 6.888 -4.777 5.692 -4.777 3.946 L -4.777 0 L -6.356 0 L -6.356 9.5 L -4.124 9.5 L -1.348 1.76 C -1.429 2.296 -1.579 3.644 -1.579 4.991 L -1.579 9.5 L 0 9.5 Z " fill="#ffffff"/>
<path transform="matrix(1,0,0,-1,57.5144,121.4033)" d="M 0 0 L 0 -6.833 L .748 -6.833 C 1.974 -6.833 2.953 -6.215 2.953 -3.368 C 2.953 -.468 1.919 0 .708 0 Z M 4.777 -3.368 C 4.777 -7.246 2.708 -8.167 .626 -8.167 L -1.77 -8.167 L -1.77 1.333 L .436 1.333 C 2.668 1.333 4.777 .618 4.777 -3.368 " fill="#ffffff"/>
<path transform="matrix(1,0,0,-1,67.8592,121.4033)" d="M 0 0 L 0 -6.833 L .749 -6.833 C 1.974 -6.833 2.954 -6.215 2.954 -3.368 C 2.954 -.468 1.919 0 .708 0 Z M 4.777 -3.368 C 4.777 -7.246 2.709 -8.167 .626 -8.167 L -1.77 -8.167 L -1.77 1.333 L .436 1.333 C 2.668 1.333 4.777 .618 4.777 -3.368 " fill="#ffffff"/>
<path transform="matrix(1,0,0,-1,0,150)" d="M 75.491 20.43 L 73.721 20.43 L 73.721 29.93 L 75.491 29.93 Z " fill="#ffffff"/>
<path transform="matrix(1,0,0,-1,80.826,126.009799)" d="M 0 0 L -1.062 4.579 L -2.123 0 Z M .3 -1.347 L -2.423 -1.347 L -2.939 -3.561 L -4.723 -3.561 L -2.109 5.939 L .041 5.939 L 2.641 -3.561 L .816 -3.561 Z " fill="#ffffff"/>
<path transform="matrix(1,0,0,-1,89.7215,121.032199)" d="M 0 0 L -.844 -.977 C -1.442 -.44 -2.014 -.192 -2.694 -.192 C -3.471 -.192 -3.974 -.619 -3.974 -1.334 C -3.974 -2.021 -3.647 -2.365 -2.259 -2.859 C -.734 -3.424 .245 -4.111 .245 -5.829 C .245 -7.493 -.979 -8.744 -3.021 -8.744 C -4.423 -8.744 -5.403 -8.208 -6.138 -7.452 L -5.24 -6.448 C -4.601 -7.012 -3.947 -7.369 -3.089 -7.369 C -2.178 -7.369 -1.592 -6.833 -1.592 -5.926 C -1.592 -5.142 -1.933 -4.743 -3.226 -4.29 C -5.022 -3.644 -5.784 -2.832 -5.784 -1.458 C -5.784 .082 -4.532 1.168 -2.817 1.168 C -1.592 1.168 -.734 .756 0 0 " fill="#ffffff"/>
<path transform="matrix(1,0,0,-1,95.1111,123.094699)" d="M 0 0 C 0 1.196 -.585 1.719 -1.783 1.719 L -2.464 1.719 L -2.464 -1.814 L -1.783 -1.814 C -.626 -1.814 0 -1.389 0 0 M 1.824 0 C 1.824 -2.158 .436 -3.148 -1.674 -3.148 L -2.464 -3.148 L -2.464 -6.476 L -4.233 -6.476 L -4.233 3.024 L -1.797 3.024 C .518 3.024 1.824 2.021 1.824 0 " fill="#ffffff"/>
<path transform="matrix(1,0,0,-1,99.324,124.8271)" d="M 0 0 C 0 -2.653 .708 -3.588 1.893 -3.588 C 3.131 -3.588 3.798 -2.653 3.798 .014 C 3.798 2.64 3.131 3.603 1.893 3.603 C .681 3.603 0 2.64 0 0 M 5.648 .014 C 5.648 -3.23 4.22 -4.949 1.893 -4.949 C -.408 -4.949 -1.851 -3.285 -1.851 0 C -1.851 3.231 -.408 4.963 1.893 4.963 C 4.206 4.963 5.648 3.313 5.648 .014 " fill="#ffffff"/>
<path transform="matrix(1,0,0,-1,108.6365,124.469699)" d="M 0 0 C 1.115 0 1.633 .495 1.633 1.608 C 1.633 2.64 1.115 3.094 -.109 3.094 L -.804 3.094 L -.804 0 Z M .163 -1.278 L -.804 -1.278 L -.804 -5.101 L -2.573 -5.101 L -2.573 4.399 L -.096 4.399 C 2.313 4.399 3.457 3.438 3.457 1.608 C 3.457 .413 2.912 -.48 1.769 -.948 L 3.96 -5.101 L 2.014 -5.101 Z " fill="#ffffff"/>
<path transform="matrix(1,0,0,-1,117.5193,126.009799)" d="M 0 0 L -1.062 4.579 L -2.123 0 Z M .3 -1.347 L -2.423 -1.347 L -2.939 -3.561 L -4.723 -3.561 L -2.109 5.939 L .041 5.939 L 2.641 -3.561 L .816 -3.561 Z " fill="#ffffff"/>
<path transform="matrix(1,0,0,-1,46.782,133.3535)" d="M 0 0 L -.871 -1.031 C -1.361 -.619 -1.852 -.385 -2.437 -.385 C -3.566 -.385 -4.424 -1.278 -4.424 -3.946 C -4.424 -6.53 -3.594 -7.493 -2.423 -7.493 C -1.701 -7.493 -1.211 -7.149 -.749 -6.765 L .096 -7.781 C -.463 -8.373 -1.334 -8.923 -2.505 -8.923 C -4.723 -8.923 -6.274 -7.273 -6.274 -3.946 C -6.274 -.66 -4.642 .989 -2.531 .989 C -1.442 .989 -.708 .618 0 0 " fill="#ffffff"/>
<path transform="matrix(1,0,0,-1,48.7888,137.3271)" d="M 0 0 C 0 -2.653 .708 -3.588 1.893 -3.588 C 3.131 -3.588 3.798 -2.653 3.798 .014 C 3.798 2.64 3.131 3.603 1.893 3.603 C .681 3.603 0 2.64 0 0 M 5.648 .014 C 5.648 -3.23 4.22 -4.949 1.893 -4.949 C -.408 -4.949 -1.851 -3.285 -1.851 0 C -1.851 3.231 -.408 4.963 1.893 4.963 C 4.206 4.963 5.648 3.313 5.648 .014 " fill="#ffffff"/>
<path transform="matrix(1,0,0,-1,61.8846,142.0703)" d="M 0 0 L -2.259 0 L -5.009 7.74 C -4.927 6.888 -4.777 5.692 -4.777 3.946 L -4.777 0 L -6.356 0 L -6.356 9.5 L -4.124 9.5 L -1.348 1.76 C -1.429 2.296 -1.579 3.644 -1.579 4.991 L -1.579 9.5 L 0 9.5 Z " fill="#ffffff"/>
<path transform="matrix(1,0,0,-1,68.7654,133.9727)" d="M 0 0 L -2.164 0 L -2.164 -8.098 L -3.92 -8.098 L -3.92 0 L -6.179 0 L -6.179 1.402 L .19 1.402 Z " fill="#ffffff"/>
<path transform="matrix(1,0,0,-1,72.1902,136.9697)" d="M 0 0 C 1.115 0 1.633 .495 1.633 1.608 C 1.633 2.64 1.115 3.094 -.109 3.094 L -.804 3.094 L -.804 0 Z M .163 -1.278 L -.804 -1.278 L -.804 -5.101 L -2.573 -5.101 L -2.573 4.399 L -.096 4.399 C 2.313 4.399 3.457 3.438 3.457 1.608 C 3.457 .413 2.912 -.48 1.769 -.948 L 3.96 -5.101 L 2.014 -5.101 Z " fill="#ffffff"/>
<path transform="matrix(1,0,0,-1,0,150)" d="M 78.601 7.93 L 76.831 7.93 L 76.831 17.43 L 78.601 17.43 Z " fill="#ffffff"/>
<path transform="matrix(1,0,0,-1,84.448,139.2656)" d="M 0 0 C 0 1.1 -.64 1.54 -1.701 1.54 L -2.627 1.54 L -2.627 -1.471 L -1.81 -1.471 C -.721 -1.471 0 -1.154 0 0 M -2.627 5.39 L -2.627 2.777 L -1.823 2.777 C -.844 2.777 -.326 3.245 -.326 4.125 C -.326 5.046 -.871 5.39 -1.987 5.39 Z M 1.824 -.068 C 1.824 -2.063 .313 -2.805 -1.823 -2.805 L -4.396 -2.805 L -4.396 6.695 L -2.15 6.695 C .109 6.695 1.457 5.939 1.457 4.275 C 1.457 3.121 .694 2.461 -.218 2.228 C .857 2.008 1.824 1.457 1.824 -.068 " fill="#ffffff"/>
<path transform="matrix(1,0,0,-1,93.5467,139.21)" d="M 0 0 C 0 -1.732 -1.089 -3.066 -3.212 -3.066 C -5.362 -3.066 -6.424 -1.774 -6.424 0 L -6.424 6.64 L -4.655 6.64 L -4.655 .096 C -4.655 -1.087 -4.22 -1.678 -3.212 -1.678 C -2.219 -1.678 -1.77 -1.087 -1.77 .096 L -1.77 6.64 L 0 6.64 Z " fill="#ffffff"/>
<path transform="matrix(1,0,0,-1,100.3592,133.9727)" d="M 0 0 L -2.164 0 L -2.164 -8.098 L -3.92 -8.098 L -3.92 0 L -6.179 0 L -6.179 1.402 L .19 1.402 Z " fill="#ffffff"/>
<path transform="matrix(1,0,0,-1,0,150)" d="M 102.98 7.93 L 101.21001 7.93 L 101.21001 17.43 L 102.98 17.43 Z " fill="#ffffff"/>
<path transform="matrix(1,0,0,-1,105.9217,137.3271)" d="M 0 0 C 0 -2.653 .708 -3.588 1.892 -3.588 C 3.13 -3.588 3.797 -2.653 3.797 .014 C 3.797 2.64 3.13 3.603 1.892 3.603 C .681 3.603 0 2.64 0 0 M 5.648 .014 C 5.648 -3.23 4.219 -4.949 1.892 -4.949 C -.408 -4.949 -1.852 -3.285 -1.852 0 C -1.852 3.231 -.408 4.963 1.892 4.963 C 4.205 4.963 5.648 3.313 5.648 .014 " fill="#ffffff"/>
<path transform="matrix(1,0,0,-1,119.0174,142.0703)" d="M 0 0 L -2.26 0 L -5.009 7.74 C -4.928 6.888 -4.777 5.692 -4.777 3.946 L -4.777 0 L -6.356 0 L -6.356 9.5 L -4.124 9.5 L -1.348 1.76 C -1.43 2.296 -1.579 3.644 -1.579 4.991 L -1.579 9.5 L 0 9.5 Z " fill="#ffffff"/>
<path transform="matrix(1,0,0,-1,125.8699,133.5322)" d="M 0 0 L -.844 -.977 C -1.443 -.44 -2.015 -.192 -2.695 -.192 C -3.471 -.192 -3.975 -.619 -3.975 -1.334 C -3.975 -2.021 -3.647 -2.365 -2.26 -2.859 C -.735 -3.424 .245 -4.111 .245 -5.829 C .245 -7.493 -.98 -8.744 -3.021 -8.744 C -4.424 -8.744 -5.403 -8.208 -6.139 -7.452 L -5.24 -6.448 C -4.601 -7.012 -3.947 -7.369 -3.09 -7.369 C -2.178 -7.369 -1.593 -6.833 -1.593 -5.926 C -1.593 -5.142 -1.933 -4.743 -3.226 -4.29 C -5.022 -3.644 -5.785 -2.832 -5.785 -1.458 C -5.785 .082 -4.532 1.168 -2.817 1.168 C -1.593 1.168 -.735 .756 0 0 " fill="#ffffff"/>
<path transform="matrix(1,0,0,-1,74.826,80.125)" d="M 0 0 C -1.724 0 -3.126 1.397 -3.126 3.114 L -1.876 3.114 C -1.876 2.086 -1.034 1.25 0 1.25 C 1.034 1.25 1.875 2.086 1.875 3.114 L 3.125 3.114 C 3.125 1.397 1.723 0 0 0 " fill="#ffffff"/>
<path transform="matrix(1,0,0,-1,75.5017,71.0527)" d="M 0 0 C -4.452 0 -8.839 1.152 -12.687 3.331 C -12.987 3.501 -13.093 3.882 -12.923 4.183 C -12.753 4.482 -12.372 4.591 -12.071 4.418 C -8.411 2.346 -4.236 1.25 0 1.25 C 13.482 1.25 24.451 12.168 24.451 25.589 C 24.451 39.009 13.482 49.928 0 49.928 C -13.481 49.928 -24.45 39.009 -24.45 25.589 C -24.45 18.959 -21.82 12.761 -17.044 8.138 C -16.796 7.898 -16.789 7.502 -17.029 7.254 C -17.27 7.006 -17.665 7 -17.913 7.24 C -22.935 12.101 -25.7 18.617 -25.7 25.589 C -25.7 39.699 -14.171 51.178 0 51.178 C 14.172 51.178 25.701 39.699 25.701 25.589 C 25.701 11.479 14.172 0 0 0 " fill="#ffffff"/>
<path transform="matrix(1,0,0,-1,58.7869,64.2114)" d="M 0 0 L -9.365 0 C -9.71 0 -9.99 .28 -9.99 .625 C -9.99 .97 -9.71 1.25 -9.365 1.25 L -1.25 1.25 L -1.254 9.26 C -1.254 9.605 -.975 9.886 -.629 9.886 C -.284 9.886 -.004 9.606 -.004 9.261 Z " fill="#ffffff"/>
<path transform="matrix(1,0,0,-1,75.1277,67.3633)" d="M 0 0 C -.676 0 -1.353 .029 -2.029 .089 C -2.373 .119 -2.627 .422 -2.598 .766 C -2.566 1.11 -2.261 1.36 -1.92 1.334 C 1.894 .998 5.74 1.67 9.19 3.275 C 9.5 3.421 9.875 3.286 10.021 2.972 C 10.166 2.659 10.03 2.288 9.718 2.142 C 6.68 .729 3.355 0 0 0 " fill="#ffffff"/>
<path transform="matrix(1,0,0,-1,69.616,62.992204)" d="M 0 0 L 0 -8.157 C 0 -9.675 1.242 -10.91 2.769 -10.91 L 7.651 -10.91 C 9.178 -10.91 10.419 -9.675 10.419 -8.157 L 10.419 0 Z M 7.651 -12.16 L 2.769 -12.16 C .553 -12.16 -1.25 -10.364 -1.25 -8.157 L -1.25 .625 C -1.25 .97 -.97 1.25 -.625 1.25 L 11.044 1.25 C 11.389 1.25 11.669 .97 11.669 .625 L 11.669 -8.157 C 11.669 -10.364 9.866 -12.16 7.651 -12.16 " fill="#ffffff"/>
<path transform="matrix(1,0,0,-1,75.5125,62.992204)" d="M 0 0 L -4.734 0 C -6.125 0 -6.595 .98 -6.989 2.072 L -8.403 6.537 C -8.71 7.506 -9.218 8.511 -9.956 9.609 C -11.312 11.624 -12.027 13.969 -12.027 16.391 L -10.777 16.391 C -10.777 14.218 -10.135 12.115 -8.919 10.307 C -8.113 9.108 -7.555 7.999 -7.212 6.914 L -5.806 2.473 C -5.403 1.363 -5.181 1.25 -4.734 1.25 L 0 1.25 Z " fill="#ffffff"/>
<path transform="matrix(1,0,0,-1,78.8728,62.992204)" d="M 0 0 L -4.734 0 L -4.734 1.25 L 0 1.25 C .602 1.25 .694 1.25 1.069 2.469 L 2.478 6.914 C 2.82 7.999 3.379 9.108 4.185 10.307 C 5.397 12.11 6.04 14.208 6.043 16.374 C 6.034 21.904 1.512 26.4 -4.047 26.4 C -9.611 26.4 -14.138 21.895 -14.138 16.357 L -15.388 16.357 C -15.388 22.584 -10.3 27.65 -4.047 27.65 C 2.195 27.65 7.275 22.602 7.293 16.391 L 7.293 16.374 L 7.293 16.357 C 7.286 13.948 6.57 11.615 5.222 9.609 C 4.483 8.511 3.976 7.506 3.669 6.537 L 2.263 2.096 C 1.808 .619 1.393 0 0 0 " fill="#ffffff"/>
<path transform="matrix(1,0,0,-1,67.2361,30.861802)" d="M 0 0 L -1.732 3.284 L -.627 3.867 L 1.105 .583 Z " fill="#ffffff"/>
<path transform="matrix(1,0,0,-1,90.3269,59.539598)" d="M 0 0 L -2.756 2.496 L -1.916 3.423 L .84 .927 Z " fill="#ffffff"/>
<path transform="matrix(1,0,0,-1,62.7625,34.5801)" d="M 0 0 L -2.757 2.496 L -1.917 3.423 L .84 .927 Z " fill="#ffffff"/>
<path transform="matrix(1,0,0,-1,94.3123,53.664598)" d="M 0 0 L -3.447 1.407 L -2.975 2.564 L .473 1.157 Z " fill="#ffffff"/>
<path transform="matrix(1,0,0,-1,59.8357,39.595705)" d="M 0 0 L -3.448 1.407 L -2.976 2.564 L .473 1.157 Z " fill="#ffffff"/>
<path transform="matrix(1,0,0,-1,96.0398,46.787599)" d="M 0 0 L -3.724 .148 L -3.675 1.397 L .049 1.249 Z " fill="#ffffff"/>
<path transform="matrix(1,0,0,-1,58.8074,45.3062)" d="M 0 0 L -3.723 .148 L -3.674 1.397 L .049 1.249 Z " fill="#ffffff"/>
<path transform="matrix(1,0,0,-1,91.7488,40.8657)" d="M 0 0 L -.379 1.191 L 3.171 2.32 L 3.55 1.128 Z " fill="#ffffff"/>
<path transform="matrix(1,0,0,-1,89.2322,35.632799)" d="M 0 0 L -.762 .99 L 2.186 3.259 L 2.947 2.269 Z " fill="#ffffff"/>
<path transform="matrix(1,0,0,-1,85.0711,31.5718)" d="M 0 0 L -1.055 .67 L .936 3.806 L 1.99 3.136 Z " fill="#ffffff"/>
<path transform="matrix(1,0,0,-1,79.7654,29.171898)" d="M 0 0 L -1.221 .268 L -.428 3.892 L .793 3.625 Z " fill="#ffffff"/>
<path transform="matrix(1,0,0,-1,72.7176,28.891098)" d="M 0 0 L -.5 3.676 L .738 3.845 L 1.238 .169 Z " fill="#ffffff"/>
</g>
</g>
</g>
</svg>
