<?xml version="1.0" encoding="UTF-8"?>
<svg xmlns="http://www.w3.org/2000/svg" xmlns:xlink="http://www.w3.org/1999/xlink" width="150pt" height="150pt" viewBox="0 0 150 150" version="1.1">
<g id="surface1">
<path style=" stroke:none;fill-rule:nonzero;fill:rgb(10.998535%,21.199036%,39.199829%);fill-opacity:1;" d="M 0 99.925781 L 149.949219 99.925781 L 149.949219 0 L 0 0 Z M 0 99.925781 "/>
<path style=" stroke:none;fill-rule:nonzero;fill:rgb(94.099426%,36.099243%,16.899109%);fill-opacity:1;" d="M 0 149.925781 L 149.949219 149.925781 L 149.949219 99.925781 L 0 99.925781 Z M 0 149.925781 "/>
<path style=" stroke:none;fill-rule:nonzero;fill:rgb(100%,100%,100%);fill-opacity:1;" d="M 26.351562 116.828125 L 19.6875 137.585938 L 15.96875 136.113281 L 22.128906 117.179688 L 14.691406 117.179688 L 14.691406 113.46875 L 26.351562 113.46875 Z M 26.351562 116.828125 "/>
<path style=" stroke:none;fill-rule:nonzero;fill:rgb(100%,100%,100%);fill-opacity:1;" d="M 43.546875 118.21875 C 44.675781 118.21875 45.195312 117.726562 45.195312 116.613281 C 45.195312 115.578125 44.675781 115.125 43.4375 115.125 L 42.734375 115.125 L 42.734375 118.21875 Z M 43.710938 119.5 L 42.734375 119.5 L 42.734375 123.320312 L 40.949219 123.320312 L 40.949219 113.820312 L 43.449219 113.820312 C 45.882812 113.820312 47.039062 114.78125 47.039062 116.613281 C 47.039062 117.808594 46.488281 118.699219 45.335938 119.167969 L 47.546875 123.320312 L 45.582031 123.320312 Z M 43.710938 119.5 "/>
<path style=" stroke:none;fill-rule:nonzero;fill:rgb(100%,100%,100%);fill-opacity:1;" d="M 53.460938 115.140625 L 50.367188 115.140625 L 50.367188 117.835938 L 53.074219 117.835938 L 53.074219 119.140625 L 50.367188 119.140625 L 50.367188 121.988281 L 53.679688 121.988281 L 53.679688 123.320312 L 48.578125 123.320312 L 48.578125 113.820312 L 53.652344 113.820312 Z M 53.460938 115.140625 "/>
<path style=" stroke:none;fill-rule:nonzero;fill:rgb(100%,100%,100%);fill-opacity:1;" d="M 56.765625 115.15625 L 56.765625 121.988281 L 57.519531 121.988281 C 58.757812 121.988281 59.75 121.367188 59.75 118.523438 C 59.75 115.621094 58.703125 115.15625 57.480469 115.15625 Z M 61.589844 118.523438 C 61.589844 122.398438 59.5 123.320312 57.398438 123.320312 L 54.976562 123.320312 L 54.976562 113.820312 L 57.203125 113.820312 C 59.460938 113.820312 61.589844 114.535156 61.589844 118.523438 "/>
<path style=" stroke:none;fill-rule:nonzero;fill:rgb(100%,100%,100%);fill-opacity:1;" d="M 69.410156 120.460938 C 69.410156 122.191406 68.308594 123.527344 66.164062 123.527344 C 63.992188 123.527344 62.921875 122.234375 62.921875 120.460938 L 62.921875 113.820312 L 64.707031 113.820312 L 64.707031 120.363281 C 64.707031 121.546875 65.148438 122.140625 66.164062 122.140625 C 67.167969 122.140625 67.621094 121.546875 67.621094 120.363281 L 67.621094 113.820312 L 69.410156 113.820312 Z M 69.410156 120.460938 "/>
<path style=" stroke:none;fill-rule:nonzero;fill:rgb(100%,100%,100%);fill-opacity:1;" d="M 77.078125 114.605469 L 76.199219 115.636719 C 75.703125 115.222656 75.207031 114.988281 74.617188 114.988281 C 73.476562 114.988281 72.609375 115.882812 72.609375 118.550781 C 72.609375 121.132812 73.449219 122.097656 74.632812 122.097656 C 75.359375 122.097656 75.855469 121.753906 76.320312 121.367188 L 77.175781 122.386719 C 76.609375 122.976562 75.730469 123.527344 74.550781 123.527344 C 72.308594 123.527344 70.738281 121.875 70.738281 118.550781 C 70.738281 115.261719 72.390625 113.613281 74.519531 113.613281 C 75.621094 113.613281 76.363281 113.984375 77.078125 114.605469 "/>
<path style=" stroke:none;fill-rule:nonzero;fill:rgb(100%,100%,100%);fill-opacity:1;" d="M 83.113281 115.140625 L 80.019531 115.140625 L 80.019531 117.835938 L 82.726562 117.835938 L 82.726562 119.140625 L 80.019531 119.140625 L 80.019531 121.988281 L 83.335938 121.988281 L 83.335938 123.320312 L 78.234375 123.320312 L 78.234375 113.820312 L 83.304688 113.820312 Z M 83.113281 115.140625 "/>
<path style=" stroke:none;fill-rule:nonzero;fill:rgb(100%,100%,100%);fill-opacity:1;" d="M 44.675781 135.820312 L 42.515625 135.820312 L 39.957031 126.320312 L 41.800781 126.320312 L 43.628906 134.253906 L 45.375 126.320312 L 47.164062 126.320312 Z M 44.675781 135.820312 "/>
<path style=" stroke:none;fill-rule:nonzero;fill:rgb(100%,100%,100%);fill-opacity:1;" d="M 54.554688 132.960938 C 54.554688 134.691406 53.453125 136.027344 51.308594 136.027344 C 49.136719 136.027344 48.066406 134.734375 48.066406 132.960938 L 48.066406 126.320312 L 49.851562 126.320312 L 49.851562 132.863281 C 49.851562 134.046875 50.292969 134.640625 51.308594 134.640625 C 52.3125 134.640625 52.765625 134.046875 52.765625 132.863281 L 52.765625 126.320312 L 54.554688 126.320312 Z M 54.554688 132.960938 "/>
<path style=" stroke:none;fill-rule:nonzero;fill:rgb(100%,100%,100%);fill-opacity:1;" d="M 58.089844 134.363281 L 61.472656 134.363281 L 61.277344 135.820312 L 56.300781 135.820312 L 56.300781 126.320312 L 58.089844 126.320312 Z M 58.089844 134.363281 "/>
<path style=" stroke:none;fill-rule:nonzero;fill:rgb(100%,100%,100%);fill-opacity:1;" d="M 68.957031 135.820312 L 66.675781 135.820312 L 63.898438 128.082031 C 63.980469 128.933594 64.128906 130.128906 64.128906 131.875 L 64.128906 135.820312 L 62.535156 135.820312 L 62.535156 126.320312 L 64.789062 126.320312 L 67.597656 134.058594 C 67.511719 133.523438 67.363281 132.175781 67.363281 130.832031 L 67.363281 126.320312 L 68.957031 126.320312 Z M 68.957031 135.820312 "/>
<path style=" stroke:none;fill-rule:nonzero;fill:rgb(100%,100%,100%);fill-opacity:1;" d="M 75.664062 127.640625 L 72.570312 127.640625 L 72.570312 130.335938 L 75.28125 130.335938 L 75.28125 131.640625 L 72.570312 131.640625 L 72.570312 134.488281 L 75.886719 134.488281 L 75.886719 135.820312 L 70.785156 135.820312 L 70.785156 126.320312 L 75.855469 126.320312 Z M 75.664062 127.640625 "/>
<path style=" stroke:none;fill-rule:nonzero;fill:rgb(100%,100%,100%);fill-opacity:1;" d="M 79.78125 130.71875 C 80.90625 130.71875 81.429688 130.226562 81.429688 129.113281 C 81.429688 128.078125 80.90625 127.625 79.671875 127.625 L 78.96875 127.625 L 78.96875 130.71875 Z M 79.945312 132 L 78.96875 132 L 78.96875 135.820312 L 77.183594 135.820312 L 77.183594 126.320312 L 79.683594 126.320312 C 82.117188 126.320312 83.273438 127.28125 83.273438 129.113281 C 83.273438 130.308594 82.722656 131.199219 81.566406 131.667969 L 83.78125 135.820312 L 81.816406 135.820312 Z M 79.945312 132 "/>
<path style=" stroke:none;fill-rule:nonzero;fill:rgb(100%,100%,100%);fill-opacity:1;" d="M 89.097656 132.261719 L 88.027344 127.683594 L 86.953125 132.261719 Z M 89.402344 133.609375 L 86.652344 133.609375 L 86.128906 135.820312 L 84.328125 135.820312 L 86.96875 126.320312 L 89.140625 126.320312 L 91.765625 135.820312 L 89.921875 135.820312 Z M 89.402344 133.609375 "/>
<path style=" stroke:none;fill-rule:nonzero;fill:rgb(100%,100%,100%);fill-opacity:1;" d="M 97.175781 133.015625 C 97.175781 131.914062 96.53125 131.476562 95.457031 131.476562 L 94.523438 131.476562 L 94.523438 134.488281 L 95.347656 134.488281 C 96.445312 134.488281 97.175781 134.171875 97.175781 133.015625 M 94.523438 127.625 L 94.523438 130.238281 L 95.332031 130.238281 C 96.324219 130.238281 96.84375 129.773438 96.84375 128.890625 C 96.84375 127.96875 96.296875 127.625 95.167969 127.625 Z M 99.019531 133.085938 C 99.019531 135.078125 97.492188 135.820312 95.332031 135.820312 L 92.734375 135.820312 L 92.734375 126.320312 L 95.003906 126.320312 C 97.285156 126.320312 98.648438 127.078125 98.648438 128.742188 C 98.648438 129.894531 97.875 130.554688 96.957031 130.789062 C 98.042969 131.007812 99.019531 131.558594 99.019531 133.085938 "/>
<path style=" stroke:none;fill-rule:nonzero;fill:rgb(100%,100%,100%);fill-opacity:1;" d="M 102.144531 135.820312 L 100.359375 135.820312 L 100.359375 126.320312 L 102.144531 126.320312 Z M 102.144531 135.820312 "/>
<path style=" stroke:none;fill-rule:nonzero;fill:rgb(100%,100%,100%);fill-opacity:1;" d="M 105.742188 134.363281 L 109.125 134.363281 L 108.929688 135.820312 L 103.953125 135.820312 L 103.953125 126.320312 L 105.742188 126.320312 Z M 105.742188 134.363281 "/>
<path style=" stroke:none;fill-rule:nonzero;fill:rgb(100%,100%,100%);fill-opacity:1;" d="M 111.976562 135.820312 L 110.1875 135.820312 L 110.1875 126.320312 L 111.976562 126.320312 Z M 111.976562 135.820312 "/>
<path style=" stroke:none;fill-rule:nonzero;fill:rgb(100%,100%,100%);fill-opacity:1;" d="M 119.253906 127.722656 L 117.070312 127.722656 L 117.070312 135.820312 L 115.296875 135.820312 L 115.296875 127.722656 L 113.015625 127.722656 L 113.015625 126.320312 L 119.449219 126.320312 Z M 119.253906 127.722656 "/>
<path style=" stroke:none;fill-rule:nonzero;fill:rgb(100%,100%,100%);fill-opacity:1;" d="M 122.246094 135.820312 L 120.460938 135.820312 L 120.460938 126.320312 L 122.246094 126.320312 Z M 122.246094 135.820312 "/>
<path style=" stroke:none;fill-rule:nonzero;fill:rgb(100%,100%,100%);fill-opacity:1;" d="M 128.9375 127.640625 L 125.84375 127.640625 L 125.84375 130.335938 L 128.550781 130.335938 L 128.550781 131.640625 L 125.84375 131.640625 L 125.84375 134.488281 L 129.15625 134.488281 L 129.15625 135.820312 L 124.054688 135.820312 L 124.054688 126.320312 L 129.128906 126.320312 Z M 128.9375 127.640625 "/>
<path style=" stroke:none;fill-rule:nonzero;fill:rgb(100%,100%,100%);fill-opacity:1;" d="M 136.195312 127.28125 L 135.34375 128.257812 C 134.738281 127.722656 134.160156 127.476562 133.472656 127.476562 C 132.691406 127.476562 132.183594 127.902344 132.183594 128.617188 C 132.183594 129.304688 132.511719 129.648438 133.914062 130.140625 C 135.453125 130.707031 136.445312 131.394531 136.445312 133.113281 C 136.445312 134.773438 135.207031 136.027344 133.144531 136.027344 C 131.726562 136.027344 130.738281 135.488281 129.996094 134.734375 L 130.902344 133.730469 C 131.550781 134.296875 132.210938 134.652344 133.074219 134.652344 C 133.996094 134.652344 134.589844 134.117188 134.589844 133.207031 C 134.589844 132.425781 134.242188 132.027344 132.9375 131.570312 C 131.125 130.925781 130.351562 130.113281 130.351562 128.738281 C 130.351562 127.199219 131.617188 126.113281 133.351562 126.113281 C 134.589844 126.113281 135.453125 126.527344 136.195312 127.28125 "/>
<path style=" stroke:none;fill-rule:nonzero;fill:rgb(100%,100%,100%);fill-opacity:1;" d="M 75.8125 39.199219 C 74.28125 39.199219 73.003906 39.730469 72.117188 40.734375 C 71.324219 41.632812 70.886719 42.851562 70.886719 44.160156 C 70.886719 46.554688 72.425781 49.128906 75.8125 49.128906 C 78.5625 49.128906 80.804688 46.902344 80.804688 44.164062 C 80.804688 41.425781 78.5625 39.199219 75.8125 39.199219 M 75.8125 50.378906 C 71.757812 50.378906 69.636719 47.25 69.636719 44.160156 C 69.636719 42.542969 70.183594 41.035156 71.179688 39.90625 C 72.308594 38.625 73.914062 37.949219 75.8125 37.949219 C 79.253906 37.949219 82.054688 40.738281 82.054688 44.164062 C 82.054688 47.589844 79.253906 50.378906 75.8125 50.378906 "/>
<path style=" stroke:none;fill-rule:nonzero;fill:rgb(100%,100%,100%);fill-opacity:1;" d="M 84.984375 65.179688 C 84.640625 65.179688 84.359375 64.902344 84.359375 64.554688 L 84.359375 59.621094 C 84.359375 56.347656 81.679688 53.683594 78.390625 53.683594 L 73.234375 53.683594 C 69.941406 53.683594 67.265625 56.347656 67.265625 59.621094 C 67.265625 59.96875 66.984375 60.246094 66.640625 60.246094 C 66.296875 60.246094 66.015625 59.96875 66.015625 59.621094 C 66.015625 55.660156 69.253906 52.433594 73.234375 52.433594 L 78.390625 52.433594 C 82.371094 52.433594 85.609375 55.660156 85.609375 59.621094 L 85.609375 64.554688 C 85.609375 64.902344 85.328125 65.179688 84.984375 65.179688 "/>
<path style=" stroke:none;fill-rule:nonzero;fill:rgb(100%,100%,100%);fill-opacity:1;" d="M 62.835938 34.828125 C 61.269531 34.828125 60.035156 34.226562 59.449219 33.140625 L 60.550781 32.546875 C 60.984375 33.351562 62.109375 33.71875 63.542969 33.53125 C 64.308594 33.429688 65.125 33.132812 65.976562 32.640625 L 73.925781 28.25 L 74.53125 29.34375 L 66.589844 33.730469 C 65.605469 34.296875 64.632812 34.648438 63.707031 34.769531 C 63.40625 34.808594 63.117188 34.828125 62.835938 34.828125 "/>
<path style=" stroke:none;fill-rule:nonzero;fill:rgb(100%,100%,100%);fill-opacity:1;" d="M 91.894531 33.996094 C 86.414062 33.996094 81.5 32.128906 81.183594 32.003906 L 70.964844 28.488281 C 69.328125 28.082031 67.511719 28.359375 66.027344 29.269531 L 60.671875 32.550781 C 59.445312 33.300781 58.136719 33.722656 56.796875 33.691406 C 55.082031 33.6875 53.601562 33.078125 52.628906 31.972656 C 52.253906 31.542969 52.015625 31.011719 51.941406 30.429688 L 51.902344 30.105469 C 51.789062 29.214844 52.207031 28.34375 52.96875 27.886719 L 65.390625 20.460938 C 66.742188 19.65625 68.28125 19.226562 69.839844 19.226562 L 69.851562 19.226562 L 96.605469 19.484375 C 97.019531 19.5 106.65625 19.453125 116.496094 25.125 C 116.792969 25.296875 116.894531 25.679688 116.722656 25.976562 C 116.550781 26.273438 116.167969 26.378906 115.871094 26.207031 C 106.320312 20.703125 96.671875 20.722656 96.605469 20.734375 L 69.84375 20.476562 L 69.835938 20.476562 C 68.507812 20.476562 67.1875 20.84375 66.035156 21.535156 L 53.609375 28.960938 C 53.273438 29.160156 53.089844 29.550781 53.140625 29.949219 L 53.183594 30.273438 C 53.222656 30.597656 53.363281 30.910156 53.570312 31.144531 C 54.300781 31.976562 55.449219 32.4375 56.800781 32.441406 L 56.816406 32.441406 C 57.886719 32.441406 58.996094 32.109375 60.019531 31.484375 L 65.375 28.203125 C 67.140625 27.121094 69.3125 26.785156 71.320312 27.289062 L 81.613281 30.832031 C 81.75 30.882812 93.242188 35.242188 100.25 30.546875 C 100.539062 30.351562 100.925781 30.433594 101.117188 30.71875 C 101.308594 31.003906 101.230469 31.390625 100.945312 31.585938 C 98.230469 33.40625 94.972656 33.996094 91.894531 33.996094 "/>
<path style=" stroke:none;fill-rule:nonzero;fill:rgb(100%,100%,100%);fill-opacity:1;" d="M 106.773438 35.46875 C 106.605469 35.46875 106.433594 35.398438 106.3125 35.265625 C 102.445312 31.035156 96.859375 30.851562 96.804688 30.851562 C 96.460938 30.84375 96.1875 30.554688 96.195312 30.210938 C 96.203125 29.871094 96.480469 29.601562 96.820312 29.601562 L 96.832031 29.601562 C 97.082031 29.605469 102.996094 29.785156 107.234375 34.421875 C 107.46875 34.675781 107.449219 35.070312 107.195312 35.304688 C 107.074219 35.414062 106.921875 35.46875 106.773438 35.46875 "/>
<path style=" stroke:none;fill-rule:nonzero;fill:rgb(100%,100%,100%);fill-opacity:1;" d="M 76.074219 70.457031 L 75.472656 69.363281 L 83.40625 64.976562 C 84.390625 64.410156 85.367188 64.058594 86.292969 63.9375 C 88.265625 63.675781 89.855469 64.285156 90.550781 65.566406 L 89.449219 66.160156 C 89.015625 65.355469 87.894531 64.984375 86.457031 65.175781 C 85.691406 65.277344 84.875 65.574219 84.023438 66.066406 Z M 76.074219 70.457031 "/>
<path style=" stroke:none;fill-rule:nonzero;fill:rgb(100%,100%,100%);fill-opacity:1;" d="M 69.875 69.050781 C 69.457031 69.050781 69.035156 69.003906 68.609375 68.902344 C 68.273438 68.824219 68.066406 68.484375 68.144531 68.148438 C 68.226562 67.8125 68.570312 67.605469 68.898438 67.6875 C 71.605469 68.328125 74.222656 66.085938 75.0625 64.898438 C 75.246094 64.640625 75.289062 64.3125 75.179688 63.996094 C 75.066406 63.664062 74.808594 63.40625 74.488281 63.304688 L 62.066406 59.476562 C 60.820312 59.148438 59.464844 59.304688 58.289062 59.921875 L 52.710938 62.859375 C 52.585938 62.925781 52.460938 62.992188 52.339844 63.066406 L 48.0625 65.6875 C 47.769531 65.867188 47.382812 65.777344 47.203125 65.480469 C 47.023438 65.1875 47.113281 64.804688 47.410156 64.621094 L 51.6875 62.003906 C 51.832031 61.914062 51.980469 61.832031 52.128906 61.753906 L 57.707031 58.816406 C 59.160156 58.050781 60.828125 57.859375 62.410156 58.273438 L 74.859375 62.113281 C 75.558594 62.328125 76.121094 62.882812 76.363281 63.59375 C 76.601562 64.296875 76.5 65.035156 76.082031 65.625 C 75.054688 67.074219 72.601562 69.050781 69.875 69.050781 "/>
<path style=" stroke:none;fill-rule:nonzero;fill:rgb(100%,100%,100%);fill-opacity:1;" d="M 80.15625 79.476562 L 80.148438 79.476562 L 53.394531 79.222656 C 53 79.214844 43.351562 79.257812 33.507812 73.582031 C 33.207031 73.410156 33.105469 73.027344 33.277344 72.730469 C 33.449219 72.429688 33.828125 72.328125 34.132812 72.5 C 43.675781 78 53.3125 77.988281 53.394531 77.972656 L 80.15625 78.226562 L 80.160156 78.226562 C 81.492188 78.226562 82.8125 77.863281 83.96875 77.171875 L 96.390625 69.746094 C 96.722656 69.546875 96.90625 69.15625 96.855469 68.757812 L 96.816406 68.433594 C 96.777344 68.109375 96.636719 67.796875 96.429688 67.558594 C 95.699219 66.726562 94.550781 66.269531 93.199219 66.265625 L 93.183594 66.265625 C 92.113281 66.265625 91.007812 66.59375 89.980469 67.222656 L 84.628906 70.503906 C 82.859375 71.585938 80.691406 71.921875 78.679688 71.414062 L 68.230469 68.800781 C 67.894531 68.71875 67.691406 68.378906 67.773438 68.042969 C 67.859375 67.707031 68.195312 67.503906 68.53125 67.589844 L 78.980469 70.203125 C 80.667969 70.625 82.488281 70.34375 83.972656 69.4375 L 89.328125 66.15625 C 90.554688 65.40625 91.941406 65.019531 93.203125 65.015625 C 94.917969 65.019531 96.398438 65.628906 97.371094 66.734375 C 97.746094 67.164062 97.984375 67.699219 98.058594 68.277344 L 98.097656 68.601562 C 98.210938 69.492188 97.792969 70.363281 97.03125 70.820312 L 84.609375 78.246094 C 83.257812 79.050781 81.71875 79.476562 80.15625 79.476562 "/>
<path style=" stroke:none;fill-rule:nonzero;fill:rgb(100%,100%,100%);fill-opacity:1;" d="M 50.949219 66.496094 L 50.9375 66.496094 C 50.6875 66.492188 44.773438 66.3125 40.535156 61.679688 C 40.300781 61.425781 40.320312 61.027344 40.574219 60.796875 C 40.828125 60.5625 41.222656 60.578125 41.457031 60.835938 C 45.324219 65.066406 50.90625 65.246094 50.964844 65.246094 C 51.308594 65.257812 51.582031 65.542969 51.574219 65.886719 C 51.566406 66.226562 51.289062 66.496094 50.949219 66.496094 "/>
<path style=" stroke:none;fill-rule:nonzero;fill:rgb(100%,100%,100%);fill-opacity:1;" d="M 89.234375 38.234375 C 88.683594 38.234375 88.132812 38.164062 87.589844 38.019531 L 75.140625 34.183594 C 74.441406 33.964844 73.878906 33.414062 73.636719 32.703125 C 73.398438 32 73.5 31.261719 73.917969 30.671875 C 74.179688 30.300781 74.539062 29.902344 74.949219 29.519531 C 75.203125 29.285156 75.597656 29.300781 75.832031 29.554688 C 76.066406 29.804688 76.050781 30.203125 75.800781 30.4375 C 75.449219 30.761719 75.152344 31.09375 74.9375 31.394531 C 74.753906 31.652344 74.710938 31.980469 74.820312 32.300781 C 74.933594 32.632812 75.191406 32.890625 75.511719 32.988281 L 87.933594 36.820312 C 89.183594 37.148438 90.535156 36.992188 91.710938 36.375 C 91.714844 36.371094 95.785156 33.839844 98.117188 31.671875 C 98.367188 31.4375 98.765625 31.449219 99 31.703125 C 99.234375 31.957031 99.222656 32.351562 98.96875 32.585938 C 96.546875 34.839844 92.503906 37.351562 92.332031 37.457031 C 91.351562 37.972656 90.296875 38.234375 89.234375 38.234375 "/>
</g>
</svg>
