<?xml version="1.0" encoding="UTF-8" standalone="no"?>
<!DOCTYPE svg PUBLIC "-//W3C//DTD SVG 1.1//EN" "http://www.w3.org/Graphics/SVG/1.1/DTD/svg11.dtd">
<svg xmlns="http://www.w3.org/2000/svg" xmlns:xlink="http://www.w3.org/1999/xlink" version="1.1" width="150pt" height="150pt" viewBox="0 0 150 150">
<g enable-background="new">
<g id="Layer-1" data-name="09">
<path transform="matrix(1,0,0,-1,0,150)" d="M 0 50.073 L 149.95 50.073 L 149.95 150 L 0 150 Z " fill="#003366"/>
<path transform="matrix(1,0,0,-1,0,150)" d="M 0 .073 L 149.95 .073 L 149.95 50.073 L 0 50.073 Z " fill="#fd9d24"/>
<clipPath id="cp0">
<path transform="matrix(1,0,0,-1,0,150)" d="M 0 150 L 150 150 L 150 0 L 0 0 Z "/>
</clipPath>
<g clip-path="url(#cp0)">
<path transform="matrix(1,0,0,-1,22.9314,123.092807)" d="M 0 0 C .06 4.97 -.625 6.58 -2.47 6.58 C -4.017 6.58 -4.999 5.25 -4.999 2.17 C -4.999 -1.051 -4.017 -2.205 -2.708 -2.205 C -1.637 -2.205 -.714 -1.436 0 0 M 4.226 .91 C 4.226 -8.751 .714 -12.707 -6.963 -14.912 L -7.796 -11.446 C -3.243 -9.941 -.833 -7.911 -.179 -3.431 C -1.101 -4.796 -2.291 -5.671 -3.928 -5.671 C -6.725 -5.671 -9.135 -2.766 -9.135 2.03 C -9.135 7.141 -6.219 10.081 -2.47 10.081 C 1.964 10.081 4.226 6.511 4.226 .91 " fill="#ffffff"/>
<path transform="matrix(1,0,0,-1,46.8738,114.6045)" d="M 0 0 L -.88 -1.031 C -1.375 -.618 -1.869 -.385 -2.461 -.385 C -3.602 -.385 -4.468 -1.278 -4.468 -3.945 C -4.468 -6.53 -3.629 -7.492 -2.447 -7.492 C -1.718 -7.492 -1.224 -7.148 -.756 -6.764 L .097 -7.781 C -.467 -8.372 -1.347 -8.922 -2.529 -8.922 C -4.771 -8.922 -6.338 -7.272 -6.338 -3.945 C -6.338 -.659 -4.687 .99 -2.557 .99 C -1.457 .99 -.715 .619 0 0 " fill="#ffffff"/>
<path transform="matrix(1,0,0,-1,49.2449,118.5771)" d="M 0 0 C 0 -2.653 .715 -3.589 1.911 -3.589 C 3.162 -3.589 3.836 -2.653 3.836 .014 C 3.836 2.64 3.162 3.602 1.911 3.602 C .687 3.602 0 2.64 0 0 M 5.706 .014 C 5.706 -3.231 4.263 -4.949 1.911 -4.949 C -.412 -4.949 -1.869 -3.286 -1.869 0 C -1.869 3.23 -.412 4.963 1.911 4.963 C 4.249 4.963 5.706 3.313 5.706 .014 " fill="#ffffff"/>
<path transform="matrix(1,0,0,-1,62.7742,120.4609)" d="M 0 0 C 0 -1.732 -1.1 -3.065 -3.244 -3.065 C -5.417 -3.065 -6.489 -1.773 -6.489 0 L -6.489 6.641 L -4.701 6.641 L -4.701 .097 C -4.701 -1.086 -4.262 -1.678 -3.244 -1.678 C -2.241 -1.678 -1.787 -1.086 -1.787 .097 L -1.787 6.641 L 0 6.641 Z " fill="#ffffff"/>
<path transform="matrix(1,0,0,-1,70.9431,123.3203)" d="M 0 0 L -2.282 0 L -5.06 7.74 C -4.977 6.888 -4.825 5.691 -4.825 3.945 L -4.825 0 L -6.42 0 L -6.42 9.5 L -4.166 9.5 L -1.361 1.76 C -1.443 2.296 -1.595 3.643 -1.595 4.99 L -1.595 9.5 L 0 9.5 Z " fill="#ffffff"/>
<path transform="matrix(1,0,0,-1,78.2361,115.2227)" d="M 0 0 L -2.186 0 L -2.186 -8.098 L -3.959 -8.098 L -3.959 0 L -6.241 0 L -6.241 1.402 L .193 1.402 Z " fill="#ffffff"/>
<path transform="matrix(1,0,0,-1,84.3211,115.140598)" d="M 0 0 L -3.094 0 L -3.094 -2.694 L -.385 -2.694 L -.385 -4.001 L -3.094 -4.001 L -3.094 -6.847 L .22 -6.847 L .22 -8.18 L -4.881 -8.18 L -4.881 1.32 L .192 1.32 Z " fill="#ffffff"/>
<path transform="matrix(1,0,0,-1,88.4363,118.219699)" d="M 0 0 C 1.128 0 1.65 .495 1.65 1.608 C 1.65 2.64 1.128 3.093 -.109 3.093 L -.811 3.093 L -.811 0 Z M .165 -1.279 L -.811 -1.279 L -.811 -5.101 L -2.598 -5.101 L -2.598 4.399 L -.096 4.399 C 2.338 4.399 3.492 3.437 3.492 1.608 C 3.492 .412 2.942 -.481 1.788 -.949 L 4.001 -5.101 L 2.035 -5.101 Z " fill="#ffffff"/>
<path transform="matrix(1,0,0,-1,46.3513,127.2832)" d="M 0 0 L -.853 -.976 C -1.457 -.439 -2.034 -.192 -2.722 -.192 C -3.506 -.192 -4.014 -.618 -4.014 -1.333 C -4.014 -2.021 -3.685 -2.364 -2.282 -2.859 C -.742 -3.423 .248 -4.11 .248 -5.829 C .248 -7.492 -.989 -8.743 -3.052 -8.743 C -4.468 -8.743 -5.458 -8.207 -6.2 -7.451 L -5.293 -6.447 C -4.646 -7.012 -3.986 -7.369 -3.12 -7.369 C -2.199 -7.369 -1.608 -6.833 -1.608 -5.925 C -1.608 -5.142 -1.952 -4.743 -3.258 -4.289 C -5.072 -3.643 -5.843 -2.832 -5.843 -1.457 C -5.843 .083 -4.578 1.169 -2.846 1.169 C -1.608 1.169 -.742 .757 0 0 " fill="#ffffff"/>
<path transform="matrix(1,0,0,-1,56.1892,135.8203)" d="M 0 0 L -1.705 0 L -1.911 4 C -1.979 5.402 -2.035 6.86 -2.008 7.863 L -3.506 1.031 L -5.169 1.031 L -6.75 7.878 C -6.709 6.612 -6.736 5.307 -6.792 3.945 L -6.984 0 L -8.675 0 L -8.016 9.5 L -5.747 9.5 L -4.304 2.818 L -2.956 9.5 L -.66 9.5 Z " fill="#ffffff"/>
<path transform="matrix(1,0,0,-1,64.0672,132.9609)" d="M 0 0 C 0 -1.732 -1.101 -3.065 -3.245 -3.065 C -5.417 -3.065 -6.489 -1.773 -6.489 0 L -6.489 6.641 L -4.702 6.641 L -4.702 .097 C -4.702 -1.086 -4.262 -1.678 -3.245 -1.678 C -2.241 -1.678 -1.787 -1.086 -1.787 .097 L -1.787 6.641 L 0 6.641 Z " fill="#ffffff"/>
<path transform="matrix(1,0,0,-1,72.1638,127.2275)" d="M 0 0 L -.921 -.949 C -1.512 -.468 -1.993 -.234 -2.722 -.234 C -3.932 -.234 -4.908 -1.114 -4.908 -3.836 C -4.908 -6.586 -4.248 -7.438 -2.97 -7.438 C -2.488 -7.438 -2.048 -7.314 -1.663 -7.081 L -1.663 -4.551 L -2.9 -4.551 L -3.079 -3.231 L .056 -3.231 L .056 -7.864 C -.797 -8.441 -1.855 -8.799 -2.941 -8.799 C -5.444 -8.799 -6.764 -7.19 -6.764 -3.836 C -6.764 -.509 -4.963 1.113 -2.777 1.113 C -1.581 1.113 -.742 .687 0 0 " fill="#ffffff"/>
<path transform="matrix(1,0,0,-1,80.1512,127.2275)" d="M 0 0 L -.921 -.949 C -1.512 -.468 -1.993 -.234 -2.722 -.234 C -3.932 -.234 -4.908 -1.114 -4.908 -3.836 C -4.908 -6.586 -4.248 -7.438 -2.97 -7.438 C -2.488 -7.438 -2.048 -7.314 -1.663 -7.081 L -1.663 -4.551 L -2.9 -4.551 L -3.079 -3.231 L .056 -3.231 L .056 -7.864 C -.797 -8.441 -1.855 -8.799 -2.941 -8.799 C -5.444 -8.799 -6.764 -7.19 -6.764 -3.836 C -6.764 -.509 -4.963 1.113 -2.777 1.113 C -1.581 1.113 -.742 .687 0 0 " fill="#ffffff"/>
<path transform="matrix(1,0,0,-1,83.6023,134.3633)" d="M 0 0 L 3.382 0 L 3.189 -1.457 L -1.787 -1.457 L -1.787 8.043 L 0 8.043 Z " fill="#ffffff"/>
<path transform="matrix(1,0,0,-1,0,150)" d="M 89.837 14.18 L 88.049999 14.18 L 88.049999 23.68 L 89.837 23.68 Z " fill="#ffffff"/>
<path transform="matrix(1,0,0,-1,98.0662,135.8203)" d="M 0 0 L -2.282 0 L -5.06 7.74 C -4.977 6.888 -4.825 5.691 -4.825 3.945 L -4.825 0 L -6.42 0 L -6.42 9.5 L -4.166 9.5 L -1.361 1.76 C -1.443 2.296 -1.595 3.643 -1.595 4.99 L -1.595 9.5 L 0 9.5 Z " fill="#ffffff"/>
<path transform="matrix(1,0,0,-1,106.2771,127.2275)" d="M 0 0 L -.922 -.949 C -1.513 -.468 -1.994 -.234 -2.723 -.234 C -3.933 -.234 -4.908 -1.114 -4.908 -3.836 C -4.908 -6.586 -4.248 -7.438 -2.97 -7.438 C -2.488 -7.438 -2.049 -7.314 -1.664 -7.081 L -1.664 -4.551 L -2.901 -4.551 L -3.08 -3.231 L .055 -3.231 L .055 -7.864 C -.798 -8.441 -1.856 -8.799 -2.942 -8.799 C -5.444 -8.799 -6.765 -7.19 -6.765 -3.836 C -6.765 -.509 -4.963 1.113 -2.777 1.113 C -1.581 1.113 -.742 .687 0 0 " fill="#ffffff"/>
<path transform="matrix(1,0,0,-1,63.7498,68.3916)" d="M 0 0 L 24.469 0 L 24.469 47.267 L -26.227 47.267 L -26.227 0 L -20.953 0 C -20.334 5.241 -15.842 9.265 -10.477 9.265 C -5.111 9.265 -.619 5.241 0 0 M 25.094 -1.25 L -.571 -1.25 C -.901 -1.25 -1.175 -.993 -1.195 -.664 C -1.495 4.203 -5.571 8.015 -10.477 8.015 C -15.381 8.015 -19.458 4.203 -19.758 -.664 C -19.778 -.993 -20.052 -1.25 -20.382 -1.25 L -26.852 -1.25 C -27.196 -1.25 -27.477 -.97 -27.477 -.625 L -27.477 47.892 C -27.477 48.237 -27.196 48.517 -26.852 48.517 L 25.094 48.517 C 25.438 48.517 25.719 48.237 25.719 47.892 L 25.719 -.625 C 25.719 -.97 25.438 -1.25 25.094 -1.25 " fill="#ffffff"/>
<path transform="matrix(1,0,0,-1,109.366,68.3916)" d="M 0 0 L 3.111 0 L 3.111 20.093 L -3.645 35.41 L -19.72 35.41 L -19.72 3.849 C -17.911 7.103 -14.428 9.265 -10.477 9.265 C -5.111 9.265 -.619 5.241 0 0 M 3.736 -1.25 L -.571 -1.25 C -.901 -1.25 -1.175 -.993 -1.195 -.664 C -1.495 4.203 -5.572 8.015 -10.477 8.015 C -15.215 8.015 -19.189 4.491 -19.724 -.182 C -19.761 -.511 -20.054 -.742 -20.38 -.735 C -20.711 -.716 -20.97 -.442 -20.97 -.111 L -20.97 36.035 C -20.97 36.38 -20.689 36.66 -20.345 36.66 L -3.237 36.66 C -2.989 36.66 -2.766 36.514 -2.665 36.287 L 4.309 20.477 C 4.343 20.397 4.361 20.312 4.361 20.225 L 4.361 -.625 C 4.361 -.97 4.081 -1.25 3.736 -1.25 " fill="#ffffff"/>
<path transform="matrix(1,0,0,-1,113.1023,48.792)" d="M 0 0 L -18.407 0 C -18.752 0 -19.032 .28 -19.032 .625 L -19.032 16.269 L -17.782 16.269 L -17.782 1.25 L 0 1.25 Z " fill="#ffffff"/>
<path transform="matrix(1,0,0,-1,0,150)" d="M 88.844 101.208 L 36.899003 101.208 L 36.899003 102.458 L 88.844 102.458 Z " fill="#ffffff"/>
<path transform="matrix(1,0,0,-1,53.4461,25.798302)" d="M 0 0 C -2.002 0 -3.631 -1.647 -3.631 -3.672 C -3.631 -5.697 -2.002 -7.345 0 -7.345 C 2.003 -7.345 3.632 -5.697 3.632 -3.672 C 3.632 -1.647 2.003 0 0 0 M 0 -8.595 C -2.691 -8.595 -4.881 -6.387 -4.881 -3.672 C -4.881 -.958 -2.691 1.25 0 1.25 C 2.691 1.25 4.882 -.958 4.882 -3.672 C 4.882 -6.387 2.691 -8.595 0 -8.595 " fill="#ffffff"/>
<path transform="matrix(1,0,0,-1,61.8533,48.167)" d="M 0 0 L -1.25 0 L -1.25 8.584 C -1.25 9.552 -1.983 10.678 -2.789 10.945 C -6.462 12.135 -10.35 12.137 -14.028 10.943 C -14.829 10.678 -15.563 9.552 -15.563 8.583 L -15.563 0 L -16.813 0 L -16.813 8.584 C -16.812 10.103 -15.737 11.693 -14.417 12.131 C -10.483 13.407 -6.329 13.406 -2.399 12.133 C -1.074 11.693 0 10.102 0 8.584 Z " fill="#ffffff"/>
<path transform="matrix(1,0,0,-1,0,150)" d="M 49.815 101.833 L 48.565 101.833 L 48.565 107.342 L 49.815 107.342 Z " fill="#ffffff"/>
<path transform="matrix(1,0,0,-1,0,150)" d="M 58.328 101.833 L 57.078 101.833 L 57.078 107.342 L 58.328 107.342 Z " fill="#ffffff"/>
<path transform="matrix(1,0,0,-1,73.241,25.798302)" d="M 0 0 C -2.002 0 -3.631 -1.647 -3.631 -3.672 C -3.631 -5.697 -2.002 -7.345 0 -7.345 C 2.003 -7.345 3.632 -5.697 3.632 -3.672 C 3.632 -1.647 2.003 0 0 0 M 0 -8.595 C -2.691 -8.595 -4.881 -6.387 -4.881 -3.672 C -4.881 -.958 -2.691 1.25 0 1.25 C 2.691 1.25 4.882 -.958 4.882 -3.672 C 4.882 -6.387 2.691 -8.595 0 -8.595 " fill="#ffffff"/>
<path transform="matrix(1,0,0,-1,81.6482,48.167)" d="M 0 0 L -1.25 0 L -1.25 8.584 C -1.25 9.552 -1.983 10.677 -2.79 10.945 C -6.463 12.135 -10.35 12.137 -14.028 10.943 C -14.829 10.678 -15.563 9.552 -15.563 8.583 L -15.563 0 L -16.813 0 L -16.813 8.584 C -16.812 10.103 -15.737 11.693 -14.417 12.131 C -10.483 13.407 -6.328 13.406 -2.4 12.133 C -1.075 11.693 0 10.102 0 8.584 Z " fill="#ffffff"/>
<path transform="matrix(1,0,0,-1,0,150)" d="M 69.61 101.833 L 68.36 101.833 L 68.36 107.342 L 69.61 107.342 Z " fill="#ffffff"/>
<path transform="matrix(1,0,0,-1,0,150)" d="M 78.123 101.833 L 76.873 101.833 L 76.873 107.342 L 78.123 107.342 Z " fill="#ffffff"/>
<path transform="matrix(1,0,0,-1,98.8894,60.377)" d="M 0 0 C -5.135 0 -9.312 -4.149 -9.312 -9.249 C -9.312 -14.349 -5.135 -18.498 0 -18.498 C 5.134 -18.498 9.311 -14.349 9.311 -9.249 C 9.311 -4.149 5.134 0 0 0 M 0 -19.748 C -5.823 -19.748 -10.562 -15.038 -10.562 -9.249 C -10.562 -3.46 -5.823 1.25 0 1.25 C 5.823 1.25 10.561 -3.46 10.561 -9.249 C 10.561 -15.038 5.823 -19.748 0 -19.748 " fill="#ffffff"/>
<path transform="matrix(1,0,0,-1,53.2732,60.377)" d="M 0 0 C -5.134 0 -9.311 -4.149 -9.311 -9.249 C -9.311 -14.349 -5.134 -18.498 0 -18.498 C 5.135 -18.498 9.312 -14.349 9.312 -9.249 C 9.312 -4.149 5.135 0 0 0 M 0 -19.748 C -5.823 -19.748 -10.561 -15.038 -10.561 -9.249 C -10.561 -3.46 -5.823 1.25 0 1.25 C 5.823 1.25 10.562 -3.46 10.562 -9.249 C 10.562 -15.038 5.823 -19.748 0 -19.748 " fill="#ffffff"/>
</g>
</g>
</g>
</svg>
