<?xml version="1.0" encoding="UTF-8"?>
<svg xmlns="http://www.w3.org/2000/svg" xmlns:xlink="http://www.w3.org/1999/xlink" width="150pt" height="150pt" viewBox="0 0 150 150" version="1.1">
<g id="surface1">
<path style=" stroke:none;fill-rule:nonzero;fill:rgb(0%,19.999695%,39.99939%);fill-opacity:1;" d="M 0 99.925781 L 149.949219 99.925781 L 149.949219 0 L 0 0 Z M 0 99.925781 "/>
<path style=" stroke:none;fill-rule:nonzero;fill:rgb(33.699036%,75.299072%,16.899109%);fill-opacity:1;" d="M 0 149.925781 L 149.949219 149.925781 L 149.949219 99.925781 L 0 99.925781 Z M 0 149.925781 "/>
<path style=" stroke:none;fill-rule:nonzero;fill:rgb(100%,100%,100%);fill-opacity:1;" d="M 17.835938 137.058594 L 13.820312 137.058594 L 13.820312 118.261719 L 9.921875 121.378906 L 8.109375 118.191406 L 14.175781 113.464844 L 17.835938 113.464844 Z M 17.835938 137.058594 "/>
<path style=" stroke:none;fill-rule:nonzero;fill:rgb(100%,100%,100%);fill-opacity:1;" d="M 31.148438 117.003906 L 24.546875 117.003906 L 24.546875 122.566406 C 25.46875 121.972656 26.332031 121.726562 27.28125 121.726562 C 30.257812 121.726562 32.460938 124.421875 32.460938 129.324219 C 32.460938 134.257812 29.691406 137.621094 25.40625 137.621094 C 22.671875 137.621094 20.828125 136.21875 19.398438 134.191406 L 21.71875 131.703125 C 22.699219 133.070312 23.769531 133.910156 25.230469 133.910156 C 27.101562 133.910156 28.234375 132.367188 28.234375 129.324219 C 28.234375 126.105469 27.164062 125.121094 25.644531 125.121094 C 24.871094 125.121094 24.25 125.367188 23.445312 125.929688 L 20.617188 125.929688 L 20.617188 113.46875 L 31.628906 113.46875 Z M 31.148438 117.003906 "/>
<path style=" stroke:none;fill-rule:nonzero;fill:rgb(100%,100%,100%);fill-opacity:1;" d="M 44.730469 119.761719 L 43.65625 115.183594 L 42.585938 119.761719 Z M 45.03125 121.109375 L 42.28125 121.109375 L 41.757812 123.320312 L 39.957031 123.320312 L 42.597656 113.820312 L 44.769531 113.820312 L 47.394531 123.320312 L 45.554688 123.320312 Z M 45.03125 121.109375 "/>
<path style=" stroke:none;fill-rule:nonzero;fill:rgb(100%,100%,100%);fill-opacity:1;" d="M 54.042969 114.605469 L 53.164062 115.636719 C 52.667969 115.222656 52.171875 114.988281 51.582031 114.988281 C 50.441406 114.988281 49.574219 115.882812 49.574219 118.550781 C 49.574219 121.132812 50.414062 122.097656 51.597656 122.097656 C 52.324219 122.097656 52.820312 121.753906 53.285156 121.367188 L 54.140625 122.386719 C 53.574219 122.976562 52.695312 123.527344 51.515625 123.527344 C 49.273438 123.527344 47.703125 121.875 47.703125 118.550781 C 47.703125 115.261719 49.355469 113.613281 51.484375 113.613281 C 52.585938 113.613281 53.328125 113.984375 54.042969 114.605469 "/>
<path style=" stroke:none;fill-rule:nonzero;fill:rgb(100%,100%,100%);fill-opacity:1;" d="M 60.863281 114.605469 L 59.980469 115.636719 C 59.488281 115.222656 58.992188 114.988281 58.402344 114.988281 C 57.257812 114.988281 56.394531 115.882812 56.394531 118.550781 C 56.394531 121.132812 57.230469 122.097656 58.414062 122.097656 C 59.144531 122.097656 59.636719 121.753906 60.105469 121.367188 L 60.957031 122.386719 C 60.394531 122.976562 59.515625 123.527344 58.332031 123.527344 C 56.089844 123.527344 54.523438 121.875 54.523438 118.550781 C 54.523438 115.261719 56.175781 113.613281 58.304688 113.613281 C 59.40625 113.613281 60.148438 113.984375 60.863281 114.605469 "/>
<path style=" stroke:none;fill-rule:nonzero;fill:rgb(100%,100%,100%);fill-opacity:1;" d="M 66.898438 115.140625 L 63.804688 115.140625 L 63.804688 117.835938 L 66.511719 117.835938 L 66.511719 119.140625 L 63.804688 119.140625 L 63.804688 121.988281 L 67.117188 121.988281 L 67.117188 123.320312 L 62.015625 123.320312 L 62.015625 113.820312 L 67.089844 113.820312 Z M 66.898438 115.140625 "/>
<path style=" stroke:none;fill-rule:nonzero;fill:rgb(100%,100%,100%);fill-opacity:1;" d="M 74.15625 114.78125 L 73.304688 115.757812 C 72.699219 115.222656 72.121094 114.976562 71.433594 114.976562 C 70.652344 114.976562 70.140625 115.402344 70.140625 116.117188 C 70.140625 116.804688 70.472656 117.148438 71.875 117.640625 C 73.414062 118.207031 74.402344 118.894531 74.402344 120.613281 C 74.402344 122.273438 73.167969 123.527344 71.105469 123.527344 C 69.6875 123.527344 68.699219 122.988281 67.957031 122.234375 L 68.863281 121.230469 C 69.511719 121.796875 70.171875 122.152344 71.035156 122.152344 C 71.957031 122.152344 72.550781 121.617188 72.550781 120.707031 C 72.550781 119.925781 72.203125 119.527344 70.898438 119.070312 C 69.085938 118.425781 68.3125 117.613281 68.3125 116.238281 C 68.3125 114.699219 69.578125 113.613281 71.3125 113.613281 C 72.550781 113.613281 73.414062 114.027344 74.15625 114.78125 "/>
<path style=" stroke:none;fill-rule:nonzero;fill:rgb(100%,100%,100%);fill-opacity:1;" d="M 81.222656 114.78125 L 80.371094 115.757812 C 79.765625 115.222656 79.1875 114.976562 78.5 114.976562 C 77.71875 114.976562 77.210938 115.402344 77.210938 116.117188 C 77.210938 116.804688 77.539062 117.148438 78.941406 117.640625 C 80.480469 118.207031 81.472656 118.894531 81.472656 120.613281 C 81.472656 122.273438 80.234375 123.527344 78.171875 123.527344 C 76.753906 123.527344 75.765625 122.988281 75.023438 122.234375 L 75.929688 121.230469 C 76.578125 121.796875 77.238281 122.152344 78.101562 122.152344 C 79.023438 122.152344 79.617188 121.617188 79.617188 120.707031 C 79.617188 119.925781 79.273438 119.527344 77.964844 119.070312 C 76.152344 118.425781 75.382812 117.613281 75.382812 116.238281 C 75.382812 114.699219 76.644531 113.613281 78.378906 113.613281 C 79.617188 113.613281 80.480469 114.027344 81.222656 114.78125 "/>
<path style=" stroke:none;fill-rule:nonzero;fill:rgb(100%,100%,100%);fill-opacity:1;" d="M 91.246094 115.222656 L 89.0625 115.222656 L 89.0625 123.320312 L 87.289062 123.320312 L 87.289062 115.222656 L 85.003906 115.222656 L 85.003906 113.820312 L 91.441406 113.820312 Z M 91.246094 115.222656 "/>
<path style=" stroke:none;fill-rule:nonzero;fill:rgb(100%,100%,100%);fill-opacity:1;" d="M 93.679688 118.578125 C 93.679688 121.230469 94.394531 122.167969 95.589844 122.167969 C 96.84375 122.167969 97.515625 121.230469 97.515625 118.5625 C 97.515625 115.9375 96.84375 114.976562 95.589844 114.976562 C 94.367188 114.976562 93.679688 115.9375 93.679688 118.578125 M 99.386719 118.5625 C 99.386719 121.808594 97.945312 123.527344 95.589844 123.527344 C 93.269531 123.527344 91.8125 121.863281 91.8125 118.578125 C 91.8125 115.347656 93.269531 113.613281 95.589844 113.613281 C 97.929688 113.613281 99.386719 115.265625 99.386719 118.5625 "/>
<path style=" stroke:none;fill-rule:nonzero;fill:rgb(100%,100%,100%);fill-opacity:1;" d="M 45.390625 133.015625 C 45.390625 131.914062 44.742188 131.476562 43.671875 131.476562 L 42.738281 131.476562 L 42.738281 134.488281 L 43.558594 134.488281 C 44.660156 134.488281 45.390625 134.171875 45.390625 133.015625 M 42.738281 127.625 L 42.738281 130.238281 L 43.546875 130.238281 C 44.535156 130.238281 45.058594 129.773438 45.058594 128.890625 C 45.058594 127.96875 44.507812 127.625 43.382812 127.625 Z M 47.230469 133.085938 C 47.230469 135.078125 45.707031 135.820312 43.546875 135.820312 L 40.949219 135.820312 L 40.949219 126.320312 L 43.21875 126.320312 C 45.5 126.320312 46.859375 127.078125 46.859375 128.742188 C 46.859375 129.894531 46.089844 130.554688 45.167969 130.789062 C 46.253906 131.007812 47.230469 131.558594 47.230469 133.085938 "/>
<path style=" stroke:none;fill-rule:nonzero;fill:rgb(100%,100%,100%);fill-opacity:1;" d="M 52.414062 132.261719 L 51.34375 127.683594 L 50.269531 132.261719 Z M 52.71875 133.609375 L 49.96875 133.609375 L 49.445312 135.820312 L 47.644531 135.820312 L 50.28125 126.320312 L 52.453125 126.320312 L 55.082031 135.820312 L 53.238281 135.820312 Z M 52.71875 133.609375 "/>
<path style=" stroke:none;fill-rule:nonzero;fill:rgb(100%,100%,100%);fill-opacity:1;" d="M 61.742188 127.28125 L 60.890625 128.257812 C 60.285156 127.722656 59.707031 127.476562 59.019531 127.476562 C 58.238281 127.476562 57.726562 127.902344 57.726562 128.617188 C 57.726562 129.304688 58.058594 129.648438 59.460938 130.140625 C 61 130.707031 61.988281 131.394531 61.988281 133.113281 C 61.988281 134.773438 60.753906 136.027344 58.691406 136.027344 C 57.273438 136.027344 56.285156 135.488281 55.542969 134.734375 L 56.449219 133.730469 C 57.097656 134.296875 57.757812 134.652344 58.621094 134.652344 C 59.542969 134.652344 60.136719 134.117188 60.136719 133.207031 C 60.136719 132.425781 59.789062 132.027344 58.484375 131.570312 C 56.671875 130.925781 55.898438 130.113281 55.898438 128.738281 C 55.898438 127.199219 57.164062 126.113281 58.898438 126.113281 C 60.136719 126.113281 61 126.527344 61.742188 127.28125 "/>
<path style=" stroke:none;fill-rule:nonzero;fill:rgb(100%,100%,100%);fill-opacity:1;" d="M 65.035156 135.820312 L 63.246094 135.820312 L 63.246094 126.320312 L 65.035156 126.320312 Z M 65.035156 135.820312 "/>
<path style=" stroke:none;fill-rule:nonzero;fill:rgb(100%,100%,100%);fill-opacity:1;" d="M 72.792969 127.105469 L 71.914062 128.136719 C 71.417969 127.722656 70.925781 127.488281 70.332031 127.488281 C 69.191406 127.488281 68.328125 128.382812 68.328125 131.050781 C 68.328125 133.632812 69.164062 134.597656 70.347656 134.597656 C 71.078125 134.597656 71.570312 134.253906 72.039062 133.867188 L 72.890625 134.886719 C 72.328125 135.476562 71.449219 136.027344 70.265625 136.027344 C 68.023438 136.027344 66.457031 134.375 66.457031 131.050781 C 66.457031 127.761719 68.109375 126.113281 70.238281 126.113281 C 71.335938 126.113281 72.078125 126.484375 72.792969 127.105469 "/>
<path style=" stroke:none;fill-rule:nonzero;fill:rgb(100%,100%,100%);fill-opacity:1;" d="M 82.417969 127.28125 L 81.566406 128.257812 C 80.960938 127.722656 80.386719 127.476562 79.699219 127.476562 C 78.914062 127.476562 78.40625 127.902344 78.40625 128.617188 C 78.40625 129.304688 78.734375 129.648438 80.136719 130.140625 C 81.675781 130.707031 82.667969 131.394531 82.667969 133.113281 C 82.667969 134.773438 81.429688 136.027344 79.367188 136.027344 C 77.953125 136.027344 76.960938 135.488281 76.21875 134.734375 L 77.125 133.730469 C 77.773438 134.296875 78.433594 134.652344 79.300781 134.652344 C 80.21875 134.652344 80.8125 134.117188 80.8125 133.207031 C 80.8125 132.425781 80.46875 132.027344 79.160156 131.570312 C 77.347656 130.925781 76.578125 130.113281 76.578125 128.738281 C 76.578125 127.199219 77.839844 126.113281 79.574219 126.113281 C 80.8125 126.113281 81.675781 126.527344 82.417969 127.28125 "/>
<path style=" stroke:none;fill-rule:nonzero;fill:rgb(100%,100%,100%);fill-opacity:1;" d="M 88.8125 127.640625 L 85.71875 127.640625 L 85.71875 130.335938 L 88.425781 130.335938 L 88.425781 131.640625 L 85.71875 131.640625 L 85.71875 134.488281 L 89.035156 134.488281 L 89.035156 135.820312 L 83.933594 135.820312 L 83.933594 126.320312 L 89.003906 126.320312 Z M 88.8125 127.640625 "/>
<path style=" stroke:none;fill-rule:nonzero;fill:rgb(100%,100%,100%);fill-opacity:1;" d="M 92.925781 130.71875 C 94.054688 130.71875 94.578125 130.226562 94.578125 129.113281 C 94.578125 128.078125 94.054688 127.625 92.820312 127.625 L 92.117188 127.625 L 92.117188 130.71875 Z M 93.09375 132 L 92.117188 132 L 92.117188 135.820312 L 90.328125 135.820312 L 90.328125 126.320312 L 92.832031 126.320312 C 95.265625 126.320312 96.417969 127.28125 96.417969 129.113281 C 96.417969 130.308594 95.871094 131.199219 94.714844 131.667969 L 96.929688 135.820312 L 94.960938 135.820312 Z M 93.09375 132 "/>
<path style=" stroke:none;fill-rule:nonzero;fill:rgb(100%,100%,100%);fill-opacity:1;" d="M 101.660156 135.820312 L 99.5 135.820312 L 96.945312 126.320312 L 98.785156 126.320312 L 100.613281 134.253906 L 102.359375 126.320312 L 104.148438 126.320312 Z M 101.660156 135.820312 "/>
<path style=" stroke:none;fill-rule:nonzero;fill:rgb(100%,100%,100%);fill-opacity:1;" d="M 106.90625 135.820312 L 105.117188 135.820312 L 105.117188 126.320312 L 106.90625 126.320312 Z M 106.90625 135.820312 "/>
<path style=" stroke:none;fill-rule:nonzero;fill:rgb(100%,100%,100%);fill-opacity:1;" d="M 114.667969 127.105469 L 113.789062 128.136719 C 113.292969 127.722656 112.796875 127.488281 112.207031 127.488281 C 111.066406 127.488281 110.199219 128.382812 110.199219 131.050781 C 110.199219 133.632812 111.039062 134.597656 112.222656 134.597656 C 112.949219 134.597656 113.445312 134.253906 113.910156 133.867188 L 114.765625 134.886719 C 114.199219 135.476562 113.320312 136.027344 112.140625 136.027344 C 109.898438 136.027344 108.328125 134.375 108.328125 131.050781 C 108.328125 127.761719 109.980469 126.113281 112.109375 126.113281 C 113.210938 126.113281 113.953125 126.484375 114.667969 127.105469 "/>
<path style=" stroke:none;fill-rule:nonzero;fill:rgb(100%,100%,100%);fill-opacity:1;" d="M 120.703125 127.640625 L 117.609375 127.640625 L 117.609375 130.335938 L 120.316406 130.335938 L 120.316406 131.640625 L 117.609375 131.640625 L 117.609375 134.488281 L 120.925781 134.488281 L 120.925781 135.820312 L 115.824219 135.820312 L 115.824219 126.320312 L 120.894531 126.320312 Z M 120.703125 127.640625 "/>
<path style=" stroke:none;fill-rule:nonzero;fill:rgb(100%,100%,100%);fill-opacity:1;" d="M 127.960938 127.28125 L 127.109375 128.257812 C 126.503906 127.722656 125.929688 127.476562 125.242188 127.476562 C 124.457031 127.476562 123.949219 127.902344 123.949219 128.617188 C 123.949219 129.304688 124.277344 129.648438 125.679688 130.140625 C 127.21875 130.707031 128.210938 131.394531 128.210938 133.113281 C 128.210938 134.773438 126.972656 136.027344 124.910156 136.027344 C 123.496094 136.027344 122.503906 135.488281 121.761719 134.734375 L 122.667969 133.730469 C 123.316406 134.296875 123.976562 134.652344 124.84375 134.652344 C 125.765625 134.652344 126.355469 134.117188 126.355469 133.207031 C 126.355469 132.425781 126.011719 132.027344 124.703125 131.570312 C 122.890625 130.925781 122.121094 130.113281 122.121094 128.738281 C 122.121094 127.199219 123.382812 126.113281 125.117188 126.113281 C 126.355469 126.113281 127.21875 126.527344 127.960938 127.28125 "/>
<path style=" stroke:none;fill-rule:nonzero;fill:rgb(100%,100%,100%);fill-opacity:1;" d="M 67.808594 72.976562 L 59.15625 72.976562 L 59.15625 66.878906 L 52.941406 66.878906 L 52.941406 58.703125 L 54.191406 58.703125 L 54.191406 65.628906 L 60.40625 65.628906 L 60.40625 71.726562 L 66.558594 71.726562 L 66.558594 65.628906 L 72.769531 65.628906 L 72.769531 58.703125 L 74.019531 58.703125 L 74.019531 66.878906 L 67.808594 66.878906 Z M 67.808594 72.976562 "/>
<path style=" stroke:none;fill-rule:nonzero;fill:rgb(100%,100%,100%);fill-opacity:1;" d="M 63.242188 21.125 C 63.183594 21.125 63.074219 21.140625 62.984375 21.242188 C 59.425781 25.390625 41.664062 46.621094 41.664062 57.34375 C 41.664062 69.214844 51.34375 78.875 63.242188 78.875 C 74.632812 78.875 84.039062 70.0625 84.773438 58.757812 C 83.359375 57.285156 82.296875 55.566406 81.613281 53.644531 L 81.464844 53.230469 L 74.019531 53.230469 L 74.019531 59.328125 L 66.558594 59.328125 L 66.558594 53.230469 L 60.402344 53.230469 L 60.402344 59.328125 L 52.941406 59.328125 L 52.941406 44.496094 L 80.273438 44.496094 C 74.8125 34.695312 66.101562 24.273438 63.496094 21.242188 C 63.410156 21.140625 63.300781 21.125 63.242188 21.125 M 63.242188 80.125 C 50.652344 80.125 40.414062 69.90625 40.414062 57.34375 C 40.414062 46.460938 56.964844 26.335938 62.035156 20.429688 C 62.640625 19.726562 63.84375 19.726562 64.445312 20.429688 C 67.152344 23.578125 76.40625 34.652344 81.882812 44.824219 L 82.375 45.746094 L 54.191406 45.746094 L 54.191406 58.078125 L 59.152344 58.078125 L 59.152344 51.980469 L 67.808594 51.980469 L 67.808594 58.078125 L 72.769531 58.078125 L 72.769531 51.980469 L 82.34375 51.980469 L 82.789062 53.226562 C 83.441406 55.058594 84.472656 56.691406 85.855469 58.078125 L 86.050781 58.273438 L 86.035156 58.550781 C 85.402344 70.648438 75.390625 80.125 63.242188 80.125 "/>
<path style=" stroke:none;fill-rule:nonzero;fill:rgb(100%,100%,100%);fill-opacity:1;" d="M 95.128906 42.605469 C 91.65625 42.605469 88.832031 45.417969 88.832031 48.875 C 88.832031 52.332031 91.65625 55.144531 95.128906 55.144531 C 98.605469 55.144531 101.429688 52.332031 101.429688 48.875 C 101.429688 45.417969 98.605469 42.605469 95.128906 42.605469 M 95.128906 56.394531 C 90.96875 56.394531 87.582031 53.023438 87.582031 48.875 C 87.582031 44.730469 90.96875 41.355469 95.128906 41.355469 C 99.292969 41.355469 102.679688 44.730469 102.679688 48.875 C 102.679688 53.023438 99.292969 56.394531 95.128906 56.394531 M 72.773438 51.980469 L 82.34375 51.980469 L 82.789062 53.226562 C 84.648438 58.449219 89.625 61.957031 95.179688 61.957031 C 102.433594 61.957031 108.335938 56.082031 108.335938 48.863281 C 108.335938 41.640625 102.433594 35.765625 95.179688 35.765625 C 89.625 35.765625 84.648438 39.273438 82.789062 44.5 L 82.347656 45.746094 L 54.191406 45.746094 L 54.191406 58.078125 L 59.152344 58.078125 L 59.152344 51.980469 L 67.8125 51.980469 L 67.8125 58.078125 L 72.773438 58.078125 Z M 95.179688 63.207031 C 89.097656 63.207031 83.644531 59.363281 81.613281 53.644531 L 81.464844 53.230469 L 74.023438 53.230469 L 74.023438 59.328125 L 66.5625 59.328125 L 66.5625 53.230469 L 60.402344 53.230469 L 60.402344 59.328125 L 52.941406 59.328125 L 52.941406 44.496094 L 81.464844 44.496094 L 81.609375 44.082031 C 83.644531 38.359375 89.097656 34.515625 95.179688 34.515625 C 103.125 34.515625 109.585938 40.953125 109.585938 48.863281 C 109.585938 56.773438 103.125 63.207031 95.179688 63.207031 "/>
</g>
</svg>
