<?xml version="1.0" encoding="UTF-8"?>
<svg xmlns="http://www.w3.org/2000/svg" xmlns:xlink="http://www.w3.org/1999/xlink" width="150pt" height="150pt" viewBox="0 0 150 150" version="1.1">
<g id="surface1">
<path style=" stroke:none;fill-rule:nonzero;fill:rgb(0%,19.999695%,39.99939%);fill-opacity:1;" d="M 0 99.925781 L 149.949219 99.925781 L 149.949219 0 L 0 0 Z M 0 99.925781 "/>
<path style=" stroke:none;fill-rule:nonzero;fill:rgb(27.49939%,74.899292%,40.79895%);fill-opacity:1;" d="M 0 149.925781 L 149.949219 149.925781 L 149.949219 99.925781 L 0 99.925781 Z M 0 149.925781 "/>
<path style=" stroke:none;fill-rule:nonzero;fill:rgb(100%,100%,100%);fill-opacity:1;" d="M 17.402344 137.058594 L 13.386719 137.058594 L 13.386719 118.261719 L 9.488281 121.378906 L 7.671875 118.191406 L 13.742188 113.464844 L 17.402344 113.464844 Z M 17.402344 137.058594 "/>
<path style=" stroke:none;fill-rule:nonzero;fill:rgb(100%,100%,100%);fill-opacity:1;" d="M 26.765625 124.703125 C 25.722656 124.703125 24.742188 125.578125 23.9375 126.976562 C 23.996094 132.160156 24.679688 134.050781 26.527344 134.050781 C 28.132812 134.050781 28.90625 132.300781 28.90625 129.078125 C 28.9375 125.71875 28.101562 124.703125 26.765625 124.703125 M 33.042969 129.007812 C 33.042969 134.117188 30.542969 137.621094 26.527344 137.621094 C 21.738281 137.621094 19.710938 133.210938 19.710938 126.207031 C 19.710938 118.15625 22.6875 113.011719 27.539062 113.011719 C 29.234375 113.011719 30.574219 113.605469 31.613281 114.515625 L 30.125 117.457031 C 29.351562 116.898438 28.578125 116.546875 27.65625 116.546875 C 25.574219 116.546875 24.203125 118.964844 23.9375 123.652344 C 25.039062 122.007812 26.378906 121.273438 27.894531 121.273438 C 30.78125 121.273438 33.042969 124.003906 33.042969 129.007812 "/>
<path style=" stroke:none;fill-rule:nonzero;fill:rgb(100%,100%,100%);fill-opacity:1;" d="M 42.734375 123.320312 L 40.949219 123.320312 L 40.949219 113.820312 L 42.734375 113.820312 Z M 42.734375 123.320312 "/>
<path style=" stroke:none;fill-rule:nonzero;fill:rgb(100%,100%,100%);fill-opacity:1;" d="M 50.964844 123.320312 L 48.683594 123.320312 L 45.90625 115.582031 C 45.988281 116.433594 46.140625 117.628906 46.140625 119.375 L 46.140625 123.320312 L 44.546875 123.320312 L 44.546875 113.820312 L 46.800781 113.820312 L 49.605469 121.558594 C 49.523438 121.023438 49.371094 119.675781 49.371094 118.332031 L 49.371094 113.820312 L 50.964844 113.820312 Z M 50.964844 123.320312 "/>
<path style=" stroke:none;fill-rule:nonzero;fill:rgb(100%,100%,100%);fill-opacity:1;" d="M 58.75 114.605469 L 57.871094 115.636719 C 57.375 115.222656 56.878906 114.988281 56.289062 114.988281 C 55.148438 114.988281 54.28125 115.882812 54.28125 118.550781 C 54.28125 121.132812 55.121094 122.097656 56.304688 122.097656 C 57.03125 122.097656 57.527344 121.753906 57.992188 121.367188 L 58.847656 122.386719 C 58.28125 122.976562 57.402344 123.527344 56.222656 123.527344 C 53.980469 123.527344 52.410156 121.875 52.410156 118.550781 C 52.410156 115.261719 54.0625 113.613281 56.191406 113.613281 C 57.292969 113.613281 58.035156 113.984375 58.75 114.605469 "/>
<path style=" stroke:none;fill-rule:nonzero;fill:rgb(100%,100%,100%);fill-opacity:1;" d="M 61.691406 121.863281 L 65.074219 121.863281 L 64.882812 123.320312 L 59.90625 123.320312 L 59.90625 113.820312 L 61.691406 113.820312 Z M 61.691406 121.863281 "/>
<path style=" stroke:none;fill-rule:nonzero;fill:rgb(100%,100%,100%);fill-opacity:1;" d="M 72.457031 120.460938 C 72.457031 122.191406 71.355469 123.527344 69.210938 123.527344 C 67.039062 123.527344 65.96875 122.234375 65.96875 120.460938 L 65.96875 113.820312 L 67.753906 113.820312 L 67.753906 120.363281 C 67.753906 121.546875 68.195312 122.140625 69.210938 122.140625 C 70.21875 122.140625 70.671875 121.546875 70.671875 120.363281 L 70.671875 113.820312 L 72.457031 113.820312 Z M 72.457031 120.460938 "/>
<path style=" stroke:none;fill-rule:nonzero;fill:rgb(100%,100%,100%);fill-opacity:1;" d="M 79.550781 114.78125 L 78.699219 115.757812 C 78.09375 115.222656 77.515625 114.976562 76.828125 114.976562 C 76.046875 114.976562 75.539062 115.402344 75.539062 116.117188 C 75.539062 116.804688 75.867188 117.148438 77.269531 117.640625 C 78.808594 118.207031 79.800781 118.894531 79.800781 120.613281 C 79.800781 122.273438 78.5625 123.527344 76.5 123.527344 C 75.082031 123.527344 74.09375 122.988281 73.351562 122.234375 L 74.257812 121.230469 C 74.90625 121.796875 75.566406 122.152344 76.429688 122.152344 C 77.351562 122.152344 77.945312 121.617188 77.945312 120.707031 C 77.945312 119.925781 77.601562 119.527344 76.292969 119.070312 C 74.480469 118.425781 73.710938 117.613281 73.710938 116.238281 C 73.710938 114.699219 74.972656 113.613281 76.707031 113.613281 C 77.945312 113.613281 78.808594 114.027344 79.550781 114.78125 "/>
<path style=" stroke:none;fill-rule:nonzero;fill:rgb(100%,100%,100%);fill-opacity:1;" d="M 82.84375 123.320312 L 81.058594 123.320312 L 81.058594 113.820312 L 82.84375 113.820312 Z M 82.84375 123.320312 "/>
<path style=" stroke:none;fill-rule:nonzero;fill:rgb(100%,100%,100%);fill-opacity:1;" d="M 86.160156 118.578125 C 86.160156 121.230469 86.875 122.167969 88.070312 122.167969 C 89.320312 122.167969 89.996094 121.230469 89.996094 118.5625 C 89.996094 115.9375 89.320312 114.976562 88.070312 114.976562 C 86.847656 114.976562 86.160156 115.9375 86.160156 118.578125 M 91.863281 118.5625 C 91.863281 121.808594 90.421875 123.527344 88.070312 123.527344 C 85.746094 123.527344 84.289062 121.863281 84.289062 118.578125 C 84.289062 115.347656 85.746094 113.613281 88.070312 113.613281 C 90.40625 113.613281 91.863281 115.265625 91.863281 118.5625 "/>
<path style=" stroke:none;fill-rule:nonzero;fill:rgb(100%,100%,100%);fill-opacity:1;" d="M 99.730469 123.320312 L 97.449219 123.320312 L 94.671875 115.582031 C 94.753906 116.433594 94.90625 117.628906 94.90625 119.375 L 94.90625 123.320312 L 93.3125 123.320312 L 93.3125 113.820312 L 95.566406 113.820312 L 98.371094 121.558594 C 98.289062 121.023438 98.136719 119.675781 98.136719 118.332031 L 98.136719 113.820312 L 99.730469 113.820312 Z M 99.730469 123.320312 "/>
<path style=" stroke:none;fill-rule:nonzero;fill:rgb(100%,100%,100%);fill-opacity:1;" d="M 108.449219 119.761719 L 107.378906 115.183594 L 106.304688 119.761719 Z M 108.753906 121.109375 L 106.003906 121.109375 L 105.480469 123.320312 L 103.679688 123.320312 L 106.320312 113.820312 L 108.492188 113.820312 L 111.117188 123.320312 L 109.273438 123.320312 Z M 108.753906 121.109375 "/>
<path style=" stroke:none;fill-rule:nonzero;fill:rgb(100%,100%,100%);fill-opacity:1;" d="M 118.507812 123.320312 L 116.222656 123.320312 L 113.445312 115.582031 C 113.53125 116.433594 113.679688 117.628906 113.679688 119.375 L 113.679688 123.320312 L 112.085938 123.320312 L 112.085938 113.820312 L 114.339844 113.820312 L 117.144531 121.558594 C 117.0625 121.023438 116.910156 119.675781 116.910156 118.332031 L 116.910156 113.820312 L 118.507812 113.820312 Z M 118.507812 123.320312 "/>
<path style=" stroke:none;fill-rule:nonzero;fill:rgb(100%,100%,100%);fill-opacity:1;" d="M 122.121094 115.15625 L 122.121094 121.988281 L 122.878906 121.988281 C 124.117188 121.988281 125.105469 121.367188 125.105469 118.523438 C 125.105469 115.621094 124.0625 115.15625 122.835938 115.15625 Z M 126.949219 118.523438 C 126.949219 122.398438 124.859375 123.320312 122.753906 123.320312 L 120.335938 123.320312 L 120.335938 113.820312 L 122.5625 113.820312 C 124.816406 113.820312 126.949219 114.535156 126.949219 118.523438 "/>
<path style=" stroke:none;fill-rule:nonzero;fill:rgb(100%,100%,100%);fill-opacity:1;" d="M 46.351562 127.28125 L 45.5 128.257812 C 44.894531 127.722656 44.316406 127.476562 43.628906 127.476562 C 42.84375 127.476562 42.335938 127.902344 42.335938 128.617188 C 42.335938 129.304688 42.667969 129.648438 44.070312 130.140625 C 45.609375 130.707031 46.597656 131.394531 46.597656 133.113281 C 46.597656 134.773438 45.363281 136.027344 43.300781 136.027344 C 41.882812 136.027344 40.894531 135.488281 40.152344 134.734375 L 41.058594 133.730469 C 41.707031 134.296875 42.367188 134.652344 43.230469 134.652344 C 44.152344 134.652344 44.742188 134.117188 44.742188 133.207031 C 44.742188 132.425781 44.398438 132.027344 43.09375 131.570312 C 41.28125 130.925781 40.507812 130.113281 40.507812 128.738281 C 40.507812 127.199219 41.773438 126.113281 43.503906 126.113281 C 44.742188 126.113281 45.609375 126.527344 46.351562 127.28125 "/>
<path style=" stroke:none;fill-rule:nonzero;fill:rgb(100%,100%,100%);fill-opacity:1;" d="M 49.382812 131.078125 C 49.382812 133.730469 50.097656 134.667969 51.292969 134.667969 C 52.546875 134.667969 53.21875 133.730469 53.21875 131.0625 C 53.21875 128.4375 52.546875 127.476562 51.292969 127.476562 C 50.070312 127.476562 49.382812 128.4375 49.382812 131.078125 M 55.089844 131.0625 C 55.089844 134.308594 53.648438 136.027344 51.292969 136.027344 C 48.972656 136.027344 47.515625 134.363281 47.515625 131.078125 C 47.515625 127.847656 48.972656 126.113281 51.292969 126.113281 C 53.632812 126.113281 55.089844 127.765625 55.089844 131.0625 "/>
<path style=" stroke:none;fill-rule:nonzero;fill:rgb(100%,100%,100%);fill-opacity:1;" d="M 62.476562 127.105469 L 61.597656 128.136719 C 61.101562 127.722656 60.609375 127.488281 60.015625 127.488281 C 58.875 127.488281 58.011719 128.382812 58.011719 131.050781 C 58.011719 133.632812 58.847656 134.597656 60.03125 134.597656 C 60.761719 134.597656 61.253906 134.253906 61.722656 133.867188 L 62.574219 134.886719 C 62.011719 135.476562 61.132812 136.027344 59.949219 136.027344 C 57.707031 136.027344 56.140625 134.375 56.140625 131.050781 C 56.140625 127.761719 57.792969 126.113281 59.921875 126.113281 C 61.019531 126.113281 61.761719 126.484375 62.476562 127.105469 "/>
<path style=" stroke:none;fill-rule:nonzero;fill:rgb(100%,100%,100%);fill-opacity:1;" d="M 65.421875 135.820312 L 63.632812 135.820312 L 63.632812 126.320312 L 65.421875 126.320312 Z M 65.421875 135.820312 "/>
<path style=" stroke:none;fill-rule:nonzero;fill:rgb(100%,100%,100%);fill-opacity:1;" d="M 71.152344 132.261719 L 70.082031 127.683594 L 69.007812 132.261719 Z M 71.457031 133.609375 L 68.707031 133.609375 L 68.183594 135.820312 L 66.382812 135.820312 L 69.023438 126.320312 L 71.195312 126.320312 L 73.820312 135.820312 L 71.980469 135.820312 Z M 71.457031 133.609375 "/>
<path style=" stroke:none;fill-rule:nonzero;fill:rgb(100%,100%,100%);fill-opacity:1;" d="M 76.578125 134.363281 L 79.960938 134.363281 L 79.765625 135.820312 L 74.789062 135.820312 L 74.789062 126.320312 L 76.578125 126.320312 Z M 76.578125 134.363281 "/>
<path style=" stroke:none;fill-rule:nonzero;fill:rgb(100%,100%,100%);fill-opacity:1;" d="M 90.023438 127.105469 L 89.144531 128.136719 C 88.648438 127.722656 88.15625 127.488281 87.5625 127.488281 C 86.421875 127.488281 85.554688 128.382812 85.554688 131.050781 C 85.554688 133.632812 86.394531 134.597656 87.578125 134.597656 C 88.304688 134.597656 88.800781 134.253906 89.269531 133.867188 L 90.121094 134.886719 C 89.558594 135.476562 88.675781 136.027344 87.496094 136.027344 C 85.253906 136.027344 83.6875 134.375 83.6875 131.050781 C 83.6875 127.761719 85.335938 126.113281 87.46875 126.113281 C 88.566406 126.113281 89.308594 126.484375 90.023438 127.105469 "/>
<path style=" stroke:none;fill-rule:nonzero;fill:rgb(100%,100%,100%);fill-opacity:1;" d="M 92.394531 131.078125 C 92.394531 133.730469 93.109375 134.667969 94.308594 134.667969 C 95.558594 134.667969 96.230469 133.730469 96.230469 131.0625 C 96.230469 128.4375 95.558594 127.476562 94.308594 127.476562 C 93.082031 127.476562 92.394531 128.4375 92.394531 131.078125 M 98.101562 131.0625 C 98.101562 134.308594 96.660156 136.027344 94.308594 136.027344 C 91.984375 136.027344 90.527344 134.363281 90.527344 131.078125 C 90.527344 127.847656 91.984375 126.113281 94.308594 126.113281 C 96.644531 126.113281 98.101562 127.765625 98.101562 131.0625 "/>
<path style=" stroke:none;fill-rule:nonzero;fill:rgb(100%,100%,100%);fill-opacity:1;" d="M 104.195312 131.558594 L 101.335938 131.558594 L 101.335938 135.820312 L 99.546875 135.820312 L 99.546875 126.320312 L 101.335938 126.320312 L 101.335938 130.144531 L 104.195312 130.144531 L 104.195312 126.320312 L 105.980469 126.320312 L 105.980469 135.820312 L 104.195312 135.820312 Z M 104.195312 131.558594 "/>
<path style=" stroke:none;fill-rule:nonzero;fill:rgb(100%,100%,100%);fill-opacity:1;" d="M 112.691406 127.640625 L 109.597656 127.640625 L 109.597656 130.335938 L 112.304688 130.335938 L 112.304688 131.640625 L 109.597656 131.640625 L 109.597656 134.488281 L 112.910156 134.488281 L 112.910156 135.820312 L 107.808594 135.820312 L 107.808594 126.320312 L 112.882812 126.320312 Z M 112.691406 127.640625 "/>
<path style=" stroke:none;fill-rule:nonzero;fill:rgb(100%,100%,100%);fill-opacity:1;" d="M 119.949219 127.28125 L 119.097656 128.257812 C 118.492188 127.722656 117.914062 127.476562 117.226562 127.476562 C 116.445312 127.476562 115.9375 127.902344 115.9375 128.617188 C 115.9375 129.304688 116.265625 129.648438 117.667969 130.140625 C 119.210938 130.707031 120.199219 131.394531 120.199219 133.113281 C 120.199219 134.773438 118.960938 136.027344 116.898438 136.027344 C 115.480469 136.027344 114.492188 135.488281 113.75 134.734375 L 114.65625 133.730469 C 115.304688 134.296875 115.964844 134.652344 116.828125 134.652344 C 117.75 134.652344 118.34375 134.117188 118.34375 133.207031 C 118.34375 132.425781 118 132.027344 116.691406 131.570312 C 114.878906 130.925781 114.109375 130.113281 114.109375 128.738281 C 114.109375 127.199219 115.371094 126.113281 117.105469 126.113281 C 118.34375 126.113281 119.210938 126.527344 119.949219 127.28125 "/>
<path style=" stroke:none;fill-rule:nonzero;fill:rgb(100%,100%,100%);fill-opacity:1;" d="M 123.242188 135.820312 L 121.457031 135.820312 L 121.457031 126.320312 L 123.242188 126.320312 Z M 123.242188 135.820312 "/>
<path style=" stroke:none;fill-rule:nonzero;fill:rgb(100%,100%,100%);fill-opacity:1;" d="M 126.558594 131.078125 C 126.558594 133.730469 127.273438 134.667969 128.46875 134.667969 C 129.71875 134.667969 130.394531 133.730469 130.394531 131.0625 C 130.394531 128.4375 129.71875 127.476562 128.46875 127.476562 C 127.246094 127.476562 126.558594 128.4375 126.558594 131.078125 M 132.261719 131.0625 C 132.261719 134.308594 130.820312 136.027344 128.46875 136.027344 C 126.144531 136.027344 124.6875 134.363281 124.6875 131.078125 C 124.6875 127.847656 126.144531 126.113281 128.46875 126.113281 C 130.804688 126.113281 132.261719 127.765625 132.261719 131.0625 "/>
<path style=" stroke:none;fill-rule:nonzero;fill:rgb(100%,100%,100%);fill-opacity:1;" d="M 140.128906 135.820312 L 137.847656 135.820312 L 135.070312 128.082031 C 135.152344 128.933594 135.304688 130.128906 135.304688 131.875 L 135.304688 135.820312 L 133.710938 135.820312 L 133.710938 126.320312 L 135.964844 126.320312 L 138.769531 134.058594 C 138.6875 133.523438 138.535156 132.175781 138.535156 130.832031 L 138.535156 126.320312 L 140.128906 126.320312 Z M 140.128906 135.820312 "/>
<path style=" stroke:none;fill-rule:nonzero;fill:rgb(100%,100%,100%);fill-opacity:1;" d="M 96.730469 59.546875 L 95.480469 59.539062 L 95.601562 40.175781 L 96.851562 40.183594 Z M 96.730469 59.546875 "/>
<path style=" stroke:none;fill-rule:nonzero;fill:rgb(100%,100%,100%);fill-opacity:1;" d="M 53.289062 59.664062 L 53.148438 40.183594 L 54.398438 40.175781 L 54.539062 59.65625 Z M 53.289062 59.664062 "/>
<path style=" stroke:none;fill-rule:nonzero;fill:rgb(100%,100%,100%);fill-opacity:1;" d="M 61.078125 79.5 L 59.828125 79.5 L 59.828125 54.320312 L 61.078125 54.320312 Z M 61.078125 79.5 "/>
<path style=" stroke:none;fill-rule:nonzero;fill:rgb(100%,100%,100%);fill-opacity:1;" d="M 90.171875 79.5 L 88.921875 79.5 L 88.921875 54.320312 L 90.171875 54.320312 Z M 90.171875 79.5 "/>
<path style=" stroke:none;fill-rule:nonzero;fill:rgb(100%,100%,100%);fill-opacity:1;" d="M 75.625 79.5 L 74.375 79.5 L 74.375 54.320312 L 75.625 54.320312 Z M 75.625 79.5 "/>
<path style=" stroke:none;fill-rule:nonzero;fill:rgb(100%,100%,100%);fill-opacity:1;" d="M 82.898438 79.5 L 81.648438 79.5 L 81.648438 54.320312 L 82.898438 54.320312 Z M 82.898438 79.5 "/>
<path style=" stroke:none;fill-rule:nonzero;fill:rgb(100%,100%,100%);fill-opacity:1;" d="M 68.351562 79.5 L 67.101562 79.5 L 67.101562 54.320312 L 68.351562 54.320312 Z M 68.351562 79.5 "/>
<path style=" stroke:none;fill-rule:nonzero;fill:rgb(100%,100%,100%);fill-opacity:1;" d="M 68.148438 51.847656 L 66.898438 51.847656 L 66.898438 36.191406 L 68.148438 36.191406 Z M 68.148438 51.847656 "/>
<path style=" stroke:none;fill-rule:nonzero;fill:rgb(100%,100%,100%);fill-opacity:1;" d="M 82.871094 51.847656 L 81.621094 51.847656 L 81.621094 36.191406 L 82.871094 36.191406 Z M 82.871094 51.847656 "/>
<path style=" stroke:none;fill-rule:nonzero;fill:rgb(100%,100%,100%);fill-opacity:1;" d="M 57.667969 40.664062 L 60.144531 44.941406 L 62.625 40.664062 Z M 60.144531 47.433594 L 55.496094 39.414062 L 64.792969 39.414062 Z M 60.144531 47.433594 "/>
<path style=" stroke:none;fill-rule:nonzero;fill:rgb(100%,100%,100%);fill-opacity:1;" d="M 74.875 40.664062 C 73.519531 40.664062 72.414062 41.765625 72.414062 43.113281 C 72.414062 44.464844 73.519531 45.5625 74.875 45.5625 C 76.230469 45.5625 77.335938 44.464844 77.335938 43.113281 C 77.335938 41.765625 76.230469 40.664062 74.875 40.664062 M 74.875 46.8125 C 72.828125 46.8125 71.164062 45.152344 71.164062 43.113281 C 71.164062 41.074219 72.828125 39.414062 74.875 39.414062 C 76.921875 39.414062 78.585938 41.074219 78.585938 43.113281 C 78.585938 45.152344 76.921875 46.8125 74.875 46.8125 "/>
<path style=" stroke:none;fill-rule:nonzero;fill:rgb(100%,100%,100%);fill-opacity:1;" d="M 86.753906 45.5625 L 91.675781 45.5625 L 91.675781 40.664062 L 86.753906 40.664062 Z M 92.925781 46.8125 L 85.503906 46.8125 L 85.503906 39.414062 L 92.925781 39.414062 Z M 92.925781 46.8125 "/>
<path style=" stroke:none;fill-rule:nonzero;fill:rgb(100%,100%,100%);fill-opacity:1;" d="M 75.46875 21.125 C 73.1875 21.125 71.332031 22.972656 71.332031 25.242188 C 71.332031 27.511719 73.1875 29.359375 75.46875 29.359375 C 77.75 29.359375 79.605469 27.511719 79.605469 25.242188 C 79.605469 22.972656 77.75 21.125 75.46875 21.125 M 75.46875 30.609375 C 72.496094 30.609375 70.082031 28.199219 70.082031 25.242188 C 70.082031 22.28125 72.496094 19.875 75.46875 19.875 C 78.441406 19.875 80.855469 22.28125 80.855469 25.242188 C 80.855469 28.199219 78.441406 30.609375 75.46875 30.609375 "/>
<path style=" stroke:none;fill-rule:nonzero;fill:rgb(100%,100%,100%);fill-opacity:1;" d="M 61.570312 21.125 C 59.289062 21.125 57.433594 22.972656 57.433594 25.242188 C 57.433594 27.511719 59.289062 29.359375 61.570312 29.359375 C 63.851562 29.359375 65.710938 27.511719 65.710938 25.242188 C 65.710938 22.972656 63.851562 21.125 61.570312 21.125 M 61.570312 30.609375 C 58.597656 30.609375 56.183594 28.199219 56.183594 25.242188 C 56.183594 22.28125 58.597656 19.875 61.570312 19.875 C 64.542969 19.875 66.960938 22.28125 66.960938 25.242188 C 66.960938 28.199219 64.542969 30.609375 61.570312 30.609375 "/>
<path style=" stroke:none;fill-rule:nonzero;fill:rgb(100%,100%,100%);fill-opacity:1;" d="M 89.367188 21.125 C 87.085938 21.125 85.230469 22.972656 85.230469 25.242188 C 85.230469 27.511719 87.085938 29.359375 89.367188 29.359375 C 91.648438 29.359375 93.507812 27.511719 93.507812 25.242188 C 93.507812 22.972656 91.648438 21.125 89.367188 21.125 M 89.367188 30.609375 C 86.394531 30.609375 83.980469 28.199219 83.980469 25.242188 C 83.980469 22.28125 86.394531 19.875 89.367188 19.875 C 92.339844 19.875 94.757812 22.28125 94.757812 25.242188 C 94.757812 28.199219 92.339844 30.609375 89.367188 30.609375 "/>
<path style=" stroke:none;fill-rule:nonzero;fill:rgb(100%,100%,100%);fill-opacity:1;" d="M 53.335938 32.394531 C 52.746094 32.394531 52.199219 32.601562 51.820312 33.023438 C 51.398438 33.496094 51.335938 34.058594 51.359375 34.445312 C 51.402344 35.203125 51.796875 35.964844 52.4375 36.535156 C 53.597656 37.5625 55.203125 37.652344 56.019531 36.738281 C 56.355469 36.363281 56.515625 35.871094 56.484375 35.3125 C 56.4375 34.554688 56.042969 33.796875 55.402344 33.226562 C 54.78125 32.675781 54.027344 32.394531 53.335938 32.394531 M 54.503906 38.609375 C 53.515625 38.609375 52.464844 38.230469 51.609375 37.46875 C 50.71875 36.679688 50.171875 35.605469 50.109375 34.519531 C 50.0625 33.636719 50.335938 32.808594 50.890625 32.191406 C 52.164062 30.765625 54.5625 30.8125 56.234375 32.292969 C 57.121094 33.082031 57.667969 34.15625 57.730469 35.242188 C 57.78125 36.125 57.503906 36.953125 56.953125 37.570312 C 56.332031 38.265625 55.441406 38.609375 54.503906 38.609375 "/>
<path style=" stroke:none;fill-rule:nonzero;fill:rgb(100%,100%,100%);fill-opacity:1;" d="M 50.933594 36.71875 C 50.214844 37.648438 49.828125 38.777344 49.828125 39.964844 L 49.828125 54.40625 C 49.828125 55.347656 50.597656 56.117188 51.542969 56.117188 C 53.128906 56.117188 54.429688 57.347656 54.507812 58.925781 L 55.429688 77.253906 C 55.476562 78.164062 56.230469 78.875 57.144531 78.875 L 92.851562 78.875 C 93.769531 78.875 94.523438 78.160156 94.570312 77.253906 L 95.492188 58.925781 C 95.570312 57.351562 96.871094 56.117188 98.457031 56.117188 C 99.402344 56.117188 100.171875 55.347656 100.171875 54.40625 L 100.171875 39.964844 C 100.171875 38.777344 99.785156 37.65625 99.070312 36.726562 C 98.875 36.996094 98.652344 37.246094 98.402344 37.46875 C 96.726562 38.949219 94.332031 38.996094 93.058594 37.570312 C 92.351562 36.785156 92.117188 35.703125 92.378906 34.605469 L 57.628906 34.605469 C 57.890625 35.699219 57.65625 36.78125 56.953125 37.570312 C 55.675781 38.996094 53.28125 38.949219 51.609375 37.46875 C 51.355469 37.246094 51.128906 36.992188 50.933594 36.71875 M 92.851562 80.125 L 57.144531 80.125 C 55.5625 80.125 54.261719 78.890625 54.183594 77.316406 L 53.261719 58.988281 C 53.214844 58.078125 52.460938 57.367188 51.542969 57.367188 C 49.910156 57.367188 48.578125 56.039062 48.578125 54.40625 L 48.578125 39.964844 C 48.578125 38.160156 49.300781 36.472656 50.613281 35.210938 L 51.25 34.597656 L 51.617188 35.40625 C 51.8125 35.84375 52.089844 36.226562 52.4375 36.535156 C 53.59375 37.558594 55.203125 37.652344 56.019531 36.738281 C 56.570312 36.121094 56.632812 35.171875 56.179688 34.257812 L 55.738281 33.355469 L 94.269531 33.355469 L 93.828125 34.257812 C 93.375 35.171875 93.4375 36.121094 93.988281 36.738281 C 94.804688 37.648438 96.410156 37.5625 97.570312 36.535156 C 97.917969 36.226562 98.195312 35.847656 98.390625 35.410156 L 98.753906 34.605469 L 99.394531 35.21875 C 100.703125 36.480469 101.421875 38.164062 101.421875 39.964844 L 101.421875 54.40625 C 101.421875 56.039062 100.089844 57.367188 98.457031 57.367188 C 97.539062 57.367188 96.785156 58.078125 96.738281 58.988281 L 95.820312 77.316406 C 95.738281 78.890625 94.4375 80.125 92.851562 80.125 "/>
<path style=" stroke:none;fill-rule:nonzero;fill:rgb(100%,100%,100%);fill-opacity:1;" d="M 96.671875 32.394531 C 95.980469 32.394531 95.230469 32.675781 94.605469 33.226562 C 93.964844 33.796875 93.570312 34.558594 93.527344 35.3125 C 93.492188 35.871094 93.652344 36.363281 93.988281 36.738281 C 94.804688 37.652344 96.410156 37.558594 97.570312 36.535156 C 98.210938 35.964844 98.605469 35.203125 98.648438 34.445312 C 98.671875 34.058594 98.609375 33.496094 98.1875 33.023438 C 97.808594 32.601562 97.265625 32.394531 96.671875 32.394531 M 95.503906 38.609375 C 94.566406 38.609375 93.679688 38.265625 93.058594 37.570312 C 92.503906 36.953125 92.226562 36.125 92.277344 35.242188 C 92.339844 34.15625 92.886719 33.078125 93.777344 32.292969 C 95.449219 30.8125 97.84375 30.765625 99.117188 32.191406 C 99.671875 32.808594 99.949219 33.636719 99.898438 34.519531 C 99.835938 35.605469 99.289062 36.679688 98.402344 37.46875 C 97.542969 38.226562 96.496094 38.609375 95.503906 38.609375 "/>
</g>
</svg>
