<?xml version="1.0" encoding="UTF-8" standalone="no"?>
<!DOCTYPE svg PUBLIC "-//W3C//DTD SVG 1.1//EN" "http://www.w3.org/Graphics/SVG/1.1/DTD/svg11.dtd">
<svg xmlns="http://www.w3.org/2000/svg" xmlns:xlink="http://www.w3.org/1999/xlink" version="1.1" width="150pt" height="150pt" viewBox="0 0 150 150">
<g enable-background="new">
<g id="Layer-1" data-name="01">
<path transform="matrix(1,0,0,-1,0,150)" d="M 0 50.073 L 149.95 50.073 L 149.95 150 L 0 150 Z " fill="#1c3664"/>
<path transform="matrix(1,0,0,-1,0,150)" d="M 0 .073 L 149.95 .073 L 149.95 50.073 L 0 50.073 Z " fill="#5b366a"/>
<path transform="matrix(1,0,0,-1,24.4637,137.0596)" d="M 0 0 L -4.017 0 L -4.017 18.797 L -7.914 15.682 L -9.729 18.867 L -3.659 23.593 L 0 23.593 Z " fill="#ffffff"/>
<clipPath id="cp0">
<path transform="matrix(1,0,0,-1,0,150)" d="M 0 150 L 150 150 L 150 0 L 0 0 Z "/>
</clipPath>
<g clip-path="url(#cp0)">
<path transform="matrix(1,0,0,-1,43.0496,121.8096)" d="M 0 0 L 0 -7.454 L .824 -7.454 C 2.175 -7.454 3.255 -6.779 3.255 -3.675 C 3.255 -.51 2.114 0 .779 0 Z M 5.265 -3.675 C 5.265 -7.904 2.984 -8.909 .689 -8.909 L -1.95 -8.909 L -1.95 1.455 L .479 1.455 C 2.939 1.455 5.265 .676 5.265 -3.675 " fill="#ffffff"/>
<path transform="matrix(1,0,0,-1,53.8406,126.834)" d="M 0 0 L -1.17 4.995 L -2.34 0 Z M .33 -1.47 L -2.67 -1.47 L -3.24 -3.885 L -5.205 -3.885 L -2.325 6.479 L .045 6.479 L 2.909 -3.885 L .899 -3.885 Z " fill="#ffffff"/>
<path transform="matrix(1,0,0,-1,62.9549,121.883808)" d="M 0 0 L -2.385 0 L -2.385 -8.835 L -4.319 -8.835 L -4.319 0 L -6.81 0 L -6.81 1.529 L .21 1.529 Z " fill="#ffffff"/>
<path transform="matrix(1,0,0,-1,67.6248,126.834)" d="M 0 0 L -1.17 4.995 L -2.34 0 Z M .33 -1.47 L -2.67 -1.47 L -3.24 -3.885 L -5.205 -3.885 L -2.325 6.479 L .045 6.479 L 2.909 -3.885 L .899 -3.885 Z " fill="#ffffff"/>
<path transform="matrix(1,0,0,-1,65.5291,21.9478)" d="M 0 0 C -2.417 0 -4.384 -2.523 -4.384 -5.625 C -4.384 -8.727 -2.417 -11.25 0 -11.25 C 2.417 -11.25 4.384 -8.727 4.384 -5.625 C 4.384 -2.523 2.417 0 0 0 M 0 -12.5 C -3.106 -12.5 -5.634 -9.416 -5.634 -5.625 C -5.634 -1.834 -3.106 1.25 0 1.25 C 3.106 1.25 5.634 -1.834 5.634 -5.625 C 5.634 -9.416 3.106 -12.5 0 -12.5 " fill="#ffffff"/>
<path transform="matrix(1,0,0,-1,89.4705,21.947297)" d="M 0 0 C -2.417 0 -4.384 -2.523 -4.384 -5.625 C -4.384 -8.727 -2.417 -11.25 0 -11.25 C 2.417 -11.25 4.384 -8.727 4.384 -5.625 C 4.384 -2.523 2.417 0 0 0 M 0 -12.5 C -3.106 -12.5 -5.634 -9.416 -5.634 -5.625 C -5.634 -1.834 -3.106 1.25 0 1.25 C 3.106 1.25 5.634 -1.834 5.634 -5.625 C 5.634 -9.416 3.106 -12.5 0 -12.5 " fill="#ffffff"/>
<path transform="matrix(1,0,0,-1,102.3543,21.9478)" d="M 0 0 C -2.417 0 -4.384 -2.523 -4.384 -5.625 C -4.384 -8.727 -2.417 -11.25 0 -11.25 C 2.417 -11.25 4.384 -8.727 4.384 -5.625 C 4.384 -2.523 2.417 0 0 0 M 0 -12.5 C -3.106 -12.5 -5.634 -9.416 -5.634 -5.625 C -5.634 -1.834 -3.106 1.25 0 1.25 C 3.106 1.25 5.634 -1.834 5.634 -5.625 C 5.634 -9.416 3.106 -12.5 0 -12.5 " fill="#ffffff"/>
<path transform="matrix(1,0,0,-1,57.6414,33.5728)" d="M 0 0 L -1.25 0 L -1.25 9.687 L -3.349 8.742 L -3.862 9.882 L 0 11.621 Z " fill="#ffffff"/>
<path transform="matrix(1,0,0,-1,75.9109,33.5728)" d="M 0 0 L -1.25 0 L -1.25 9.687 L -3.35 8.742 L -3.863 9.882 L 0 11.621 Z " fill="#ffffff"/>
<path transform="matrix(1,0,0,-1,82.2205,33.5728)" d="M 0 0 L -1.25 0 L -1.25 9.687 L -3.35 8.742 L -3.863 9.882 L 0 11.621 Z " fill="#ffffff"/>
<path transform="matrix(1,0,0,-1,86.9734,63.3472)" d="M 0 0 L -1.25 0 L -1.25 9.687 L -3.349 8.742 L -3.862 9.882 L 0 11.621 Z " fill="#ffffff"/>
<path transform="matrix(1,0,0,-1,92.9959,63.3472)" d="M 0 0 L -1.25 0 L -1.25 9.687 L -3.349 8.742 L -3.862 9.882 L 0 11.621 Z " fill="#ffffff"/>
<path transform="matrix(1,0,0,-1,61.3738,51.7222)" d="M 0 0 C -2.417 0 -4.384 -2.523 -4.384 -5.625 C -4.384 -8.727 -2.417 -11.25 0 -11.25 C 2.417 -11.25 4.384 -8.727 4.384 -5.625 C 4.384 -2.523 2.417 0 0 0 M 0 -12.5 C -3.106 -12.5 -5.634 -9.416 -5.634 -5.625 C -5.634 -1.834 -3.106 1.25 0 1.25 C 3.106 1.25 5.634 -1.834 5.634 -5.625 C 5.634 -9.416 3.106 -12.5 0 -12.5 " fill="#ffffff"/>
<path transform="matrix(1,0,0,-1,75.6697,51.7222)" d="M 0 0 C -2.417 0 -4.384 -2.523 -4.384 -5.625 C -4.384 -8.727 -2.417 -11.25 0 -11.25 C 2.417 -11.25 4.384 -8.727 4.384 -5.625 C 4.384 -2.523 2.417 0 0 0 M 0 -12.5 C -3.106 -12.5 -5.634 -9.416 -5.634 -5.625 C -5.634 -1.834 -3.106 1.25 0 1.25 C 3.106 1.25 5.634 -1.834 5.634 -5.625 C 5.634 -9.416 3.106 -12.5 0 -12.5 " fill="#ffffff"/>
<path transform="matrix(1,0,0,-1,57.6414,48.46)" d="M 0 0 L -1.25 0 L -1.25 9.687 L -3.349 8.742 L -3.862 9.882 L 0 11.621 Z " fill="#ffffff"/>
<path transform="matrix(1,0,0,-1,63.489,48.46)" d="M 0 0 L -1.25 0 L -1.25 9.687 L -3.349 8.742 L -3.862 9.882 L 0 11.621 Z " fill="#ffffff"/>
<path transform="matrix(1,0,0,-1,69.3367,48.46)" d="M 0 0 L -1.25 0 L -1.25 9.687 L -3.35 8.742 L -3.863 9.882 L 0 11.621 Z " fill="#ffffff"/>
<path transform="matrix(1,0,0,-1,76.5867,36.835)" d="M 0 0 C -2.417 0 -4.384 -2.523 -4.384 -5.625 C -4.384 -8.727 -2.417 -11.25 0 -11.25 C 2.417 -11.25 4.384 -8.727 4.384 -5.625 C 4.384 -2.523 2.417 0 0 0 M 0 -12.5 C -3.106 -12.5 -5.634 -9.416 -5.634 -5.625 C -5.634 -1.834 -3.106 1.25 0 1.25 C 3.106 1.25 5.634 -1.834 5.634 -5.625 C 5.634 -9.416 3.106 -12.5 0 -12.5 " fill="#ffffff"/>
<path transform="matrix(1,0,0,-1,89.4705,36.835)" d="M 0 0 C -2.417 0 -4.384 -2.523 -4.384 -5.625 C -4.384 -8.727 -2.417 -11.25 0 -11.25 C 2.417 -11.25 4.384 -8.727 4.384 -5.625 C 4.384 -2.523 2.417 0 0 0 M 0 -12.5 C -3.106 -12.5 -5.634 -9.416 -5.634 -5.625 C -5.634 -1.834 -3.106 1.25 0 1.25 C 3.106 1.25 5.634 -1.834 5.634 -5.625 C 5.634 -9.416 3.106 -12.5 0 -12.5 " fill="#ffffff"/>
<path transform="matrix(1,0,0,-1,76.5867,78.2344)" d="M 0 0 L -1.25 0 L -1.25 9.687 L -3.349 8.742 L -3.862 9.882 L 0 11.621 Z " fill="#ffffff"/>
<path transform="matrix(1,0,0,-1,71.7107,78.2344)" d="M 0 0 L -1.25 0 L -1.25 9.687 L -3.35 8.742 L -3.863 9.882 L 0 11.621 Z " fill="#ffffff"/>
<path transform="matrix(1,0,0,-1,81.4627,78.2344)" d="M 0 0 L -1.25 0 L -1.25 9.687 L -3.349 8.742 L -3.862 9.882 L 0 11.621 Z " fill="#ffffff"/>
<path transform="matrix(1,0,0,-1,61.3738,66.6094)" d="M 0 0 C -2.417 0 -4.384 -2.523 -4.384 -5.625 C -4.384 -8.727 -2.417 -11.25 0 -11.25 C 2.417 -11.25 4.384 -8.727 4.384 -5.625 C 4.384 -2.523 2.417 0 0 0 M 0 -12.5 C -3.106 -12.5 -5.634 -9.416 -5.634 -5.625 C -5.634 -1.834 -3.106 1.25 0 1.25 C 3.106 1.25 5.634 -1.834 5.634 -5.625 C 5.634 -9.416 3.106 -12.5 0 -12.5 " fill="#ffffff"/>
<path transform="matrix(1,0,0,-1,89.4705,66.6094)" d="M 0 0 C -2.417 0 -4.384 -2.523 -4.384 -5.625 C -4.384 -8.727 -2.417 -11.25 0 -11.25 C 2.417 -11.25 4.384 -8.727 4.384 -5.625 C 4.384 -2.523 2.417 0 0 0 M 0 -12.5 C -3.106 -12.5 -5.634 -9.416 -5.634 -5.625 C -5.634 -1.834 -3.106 1.25 0 1.25 C 3.106 1.25 5.634 -1.834 5.634 -5.625 C 5.634 -9.416 3.106 -12.5 0 -12.5 " fill="#ffffff"/>
<path transform="matrix(1,0,0,-1,0,150)" d="M 47.977 106.359 L 41.977 106.359 L 41.977 107.609 L 47.977 107.609 Z " fill="#ffffff"/>
<path transform="matrix(1,0,0,-1,0,150)" d="M 47.977 121.803 L 41.977 121.803 L 41.977 123.053 L 47.977 123.053 Z " fill="#ffffff"/>
<path transform="matrix(1,0,0,-1,0,150)" d="M 47.977 92.028 L 41.977 92.028 L 41.977 93.278 L 47.977 93.278 Z " fill="#ffffff"/>
<path transform="matrix(1,0,0,-1,0,150)" d="M 47.977 77.141 L 41.977 77.141 L 41.977 78.391 L 47.977 78.391 Z " fill="#ffffff"/>
<path transform="matrix(1,0,0,-1,0,150)" d="M 51.512 126.823 L 50.262 126.823 L 50.262 128.073 L 51.512 128.073 Z M 51.512 124.323 L 50.262 124.323 L 50.262 125.573 L 51.512 125.573 Z M 51.512 121.823 L 50.262 121.823 L 50.262 123.073 L 51.512 123.073 Z M 51.512 119.323 L 50.262 119.323 L 50.262 120.573 L 51.512 120.573 Z M 51.512 116.823 L 50.262 116.823 L 50.262 118.073 L 51.512 118.073 Z M 51.512 114.323 L 50.262 114.323 L 50.262 115.573 L 51.512 115.573 Z M 51.512 111.823 L 50.262 111.823 L 50.262 113.073 L 51.512 113.073 Z M 51.512 109.323 L 50.262 109.323 L 50.262 110.573 L 51.512 110.573 Z M 51.512 106.823 L 50.262 106.823 L 50.262 108.073 L 51.512 108.073 Z M 51.512 104.323 L 50.262 104.323 L 50.262 105.573 L 51.512 105.573 Z M 51.512 101.823 L 50.262 101.823 L 50.262 103.073 L 51.512 103.073 Z M 51.512 99.323 L 50.262 99.323 L 50.262 100.573 L 51.512 100.573 Z M 51.512 96.823 L 50.262 96.823 L 50.262 98.073 L 51.512 98.073 Z M 51.512 94.323 L 50.262 94.323 L 50.262 95.573 L 51.512 95.573 Z M 51.512 91.823 L 50.262 91.823 L 50.262 93.073 L 51.512 93.073 Z M 51.512 89.323 L 50.262 89.323 L 50.262 90.573 L 51.512 90.573 Z M 51.512 86.823 L 50.262 86.823 L 50.262 88.073 L 51.512 88.073 Z M 51.512 84.323 L 50.262 84.323 L 50.262 85.573 L 51.512 85.573 Z M 51.512 81.823 L 50.262 81.823 L 50.262 83.073 L 51.512 83.073 Z M 51.512 79.323 L 50.262 79.323 L 50.262 80.573 L 51.512 80.573 Z M 51.512 76.823 L 50.262 76.823 L 50.262 78.073 L 51.512 78.073 Z M 51.512 74.323 L 50.262 74.323 L 50.262 75.573 L 51.512 75.573 Z M 51.512 72.073 L 50.262 72.073 L 50.262 73.073 L 51.512 73.073 Z " fill="#ffffff"/>
</g>
</g>
</g>
</svg>
