<?xml version="1.0" encoding="UTF-8" standalone="no"?>
<!DOCTYPE svg PUBLIC "-//W3C//DTD SVG 1.1//EN" "http://www.w3.org/Graphics/SVG/1.1/DTD/svg11.dtd">
<svg xmlns="http://www.w3.org/2000/svg" xmlns:xlink="http://www.w3.org/1999/xlink" version="1.1" width="150pt" height="150pt" viewBox="0 0 150 150">
<g enable-background="new">
<g id="Layer-1" data-name="05">
<path transform="matrix(1,0,0,-1,0,150)" d="M 0 50.073 L 149.95 50.073 L 149.95 150 L 0 150 Z " fill="#1c3664"/>
<path transform="matrix(1,0,0,-1,0,150)" d="M 0 .073 L 149.95 .073 L 149.95 50.073 L 0 50.073 Z " fill="#ed313a"/>
<clipPath id="cp0">
<path transform="matrix(1,0,0,-1,0,150)" d="M 0 150 L 150 150 L 150 0 L 0 0 Z "/>
</clipPath>
<g clip-path="url(#cp0)">
<path transform="matrix(1,0,0,-1,25.5349,117.0029)" d="M 0 0 L -6.605 0 L -6.605 -5.565 C -5.683 -4.97 -4.82 -4.725 -3.868 -4.725 C -.893 -4.725 1.31 -7.42 1.31 -12.321 C 1.31 -17.256 -1.458 -20.617 -5.742 -20.617 C -8.479 -20.617 -10.324 -19.217 -11.753 -17.187 L -9.432 -14.701 C -8.45 -16.066 -7.379 -16.906 -5.921 -16.906 C -4.047 -16.906 -2.916 -15.366 -2.916 -12.321 C -2.916 -9.101 -3.987 -8.12 -5.504 -8.12 C -6.278 -8.12 -6.902 -8.365 -7.706 -8.926 L -10.533 -8.926 L -10.533 3.536 L .477 3.536 Z " fill="#ffffff"/>
<path transform="matrix(1,0,0,-1,43.5467,118.219699)" d="M 0 0 C 1.128 0 1.65 .495 1.65 1.608 C 1.65 2.64 1.128 3.093 -.109 3.093 L -.811 3.093 L -.811 0 Z M .165 -1.279 L -.811 -1.279 L -.811 -5.101 L -2.598 -5.101 L -2.598 4.399 L -.096 4.399 C 2.338 4.399 3.492 3.437 3.492 1.608 C 3.492 .412 2.942 -.481 1.788 -.949 L 4.001 -5.101 L 2.035 -5.101 Z " fill="#ffffff"/>
<path transform="matrix(1,0,0,-1,53.4607,115.140598)" d="M 0 0 L -3.094 0 L -3.094 -2.694 L -.385 -2.694 L -.385 -4.001 L -3.094 -4.001 L -3.094 -6.847 L .22 -6.847 L .22 -8.18 L -4.881 -8.18 L -4.881 1.32 L .192 1.32 Z " fill="#ffffff"/>
<path transform="matrix(1,0,0,-1,61.1765,114.7275)" d="M 0 0 L -.921 -.949 C -1.512 -.468 -1.993 -.234 -2.722 -.234 C -3.932 -.234 -4.908 -1.114 -4.908 -3.836 C -4.908 -6.586 -4.248 -7.438 -2.97 -7.438 C -2.488 -7.438 -2.048 -7.314 -1.663 -7.081 L -1.663 -4.551 L -2.9 -4.551 L -3.079 -3.231 L .056 -3.231 L .056 -7.864 C -.797 -8.441 -1.855 -8.799 -2.941 -8.799 C -5.444 -8.799 -6.764 -7.19 -6.764 -3.836 C -6.764 -.509 -4.963 1.113 -2.777 1.113 C -1.581 1.113 -.742 .687 0 0 " fill="#ffffff"/>
<path transform="matrix(1,0,0,-1,69.2137,120.4609)" d="M 0 0 C 0 -1.732 -1.1 -3.065 -3.244 -3.065 C -5.417 -3.065 -6.489 -1.773 -6.489 0 L -6.489 6.641 L -4.701 6.641 L -4.701 .097 C -4.701 -1.086 -4.262 -1.678 -3.244 -1.678 C -2.241 -1.678 -1.787 -1.086 -1.787 .097 L -1.787 6.641 L 0 6.641 Z " fill="#ffffff"/>
<path transform="matrix(1,0,0,-1,72.7488,121.8633)" d="M 0 0 L 3.383 0 L 3.189 -1.457 L -1.787 -1.457 L -1.787 8.043 L 0 8.043 Z " fill="#ffffff"/>
<path transform="matrix(1,0,0,-1,81.3982,119.759799)" d="M 0 0 L -1.072 4.578 L -2.146 0 Z M .302 -1.348 L -2.447 -1.348 L -2.97 -3.561 L -4.771 -3.561 L -2.131 5.939 L .041 5.939 L 2.667 -3.561 L .824 -3.561 Z " fill="#ffffff"/>
<path transform="matrix(1,0,0,-1,87.6326,118.219699)" d="M 0 0 C 1.128 0 1.65 .495 1.65 1.608 C 1.65 2.64 1.128 3.093 -.109 3.093 L -.811 3.093 L -.811 0 Z M .165 -1.279 L -.811 -1.279 L -.811 -5.101 L -2.598 -5.101 L -2.598 4.399 L -.096 4.399 C 2.338 4.399 3.492 3.437 3.492 1.608 C 3.492 .412 2.942 -.481 1.788 -.949 L 4.001 -5.101 L 2.035 -5.101 Z " fill="#ffffff"/>
<path transform="matrix(1,0,0,-1,45.2244,129.3447)" d="M 0 0 C 0 1.195 -.591 1.718 -1.801 1.718 L -2.488 1.718 L -2.488 -1.815 L -1.801 -1.815 C -.633 -1.815 0 -1.389 0 0 M 1.842 0 C 1.842 -2.159 .439 -3.148 -1.691 -3.148 L -2.488 -3.148 L -2.488 -6.476 L -4.275 -6.476 L -4.275 3.024 L -1.814 3.024 C .522 3.024 1.842 2.021 1.842 0 " fill="#ffffff"/>
<path transform="matrix(1,0,0,-1,51.6844,132.2598)" d="M 0 0 L -1.072 4.578 L -2.146 0 Z M .302 -1.348 L -2.447 -1.348 L -2.97 -3.561 L -4.771 -3.561 L -2.131 5.939 L .041 5.939 L 2.667 -3.561 L .824 -3.561 Z " fill="#ffffff"/>
<path transform="matrix(1,0,0,-1,60.0476,127.7227)" d="M 0 0 L -2.187 0 L -2.187 -8.098 L -3.96 -8.098 L -3.96 0 L -6.242 0 L -6.242 1.402 L .192 1.402 Z " fill="#ffffff"/>
<path transform="matrix(1,0,0,-1,65.8982,131.5586)" d="M 0 0 L -2.859 0 L -2.859 -4.262 L -4.646 -4.262 L -4.646 5.238 L -2.859 5.238 L -2.859 1.416 L 0 1.416 L 0 5.238 L 1.787 5.238 L 1.787 -4.262 L 0 -4.262 Z " fill="#ffffff"/>
<path transform="matrix(1,0,0,-1,77.3787,135.8203)" d="M 0 0 L -2.31 0 L -3.52 7.616 L -4.771 0 L -7.039 0 L -8.537 9.5 L -6.791 9.5 L -5.76 1.416 L -4.44 9.5 L -2.557 9.5 L -1.265 1.416 L -.137 9.5 L 1.526 9.5 Z " fill="#ffffff"/>
<path transform="matrix(1,0,0,-1,83.6648,132.2598)" d="M 0 0 L -1.072 4.578 L -2.145 0 Z M .303 -1.348 L -2.447 -1.348 L -2.97 -3.561 L -4.771 -3.561 L -2.131 5.939 L .041 5.939 L 2.667 -3.561 L .825 -3.561 Z " fill="#ffffff"/>
<path transform="matrix(1,0,0,-1,90.1131,132.2187)" d="M 0 0 L 0 -3.602 L -1.787 -3.602 L -1.787 -.014 L -4.522 5.898 L -2.612 5.898 L -.853 1.457 L .907 5.898 L 2.75 5.898 Z " fill="#ffffff"/>
<path transform="matrix(1,0,0,-1,99.0906,127.2832)" d="M 0 0 L -.853 -.976 C -1.457 -.439 -2.035 -.192 -2.723 -.192 C -3.506 -.192 -4.015 -.618 -4.015 -1.333 C -4.015 -2.021 -3.685 -2.364 -2.282 -2.859 C -.742 -3.423 .247 -4.11 .247 -5.829 C .247 -7.492 -.99 -8.743 -3.053 -8.743 C -4.469 -8.743 -5.458 -8.207 -6.2 -7.451 L -5.293 -6.447 C -4.647 -7.012 -3.987 -7.369 -3.121 -7.369 C -2.2 -7.369 -1.608 -6.833 -1.608 -5.925 C -1.608 -5.142 -1.952 -4.743 -3.259 -4.289 C -5.073 -3.643 -5.843 -2.832 -5.843 -1.457 C -5.843 .083 -4.578 1.169 -2.846 1.169 C -1.608 1.169 -.742 .757 0 0 " fill="#ffffff"/>
<path transform="matrix(1,0,0,-1,121.9207,56.244104)" d="M 0 0 L -10.867 0 L -10.867 10.851 L -3.482 10.851 L -3.482 9.601 L -9.617 9.601 L -9.617 1.25 L -1.25 1.25 L -1.25 4.523 L 0 4.523 Z " fill="#ffffff"/>
<path transform="matrix(1,0,0,-1,116.6287,53.360399)" d="M 0 0 L -3.156 3.503 L -2.229 4.34 L -.039 1.911 L 3.722 6.447 L 4.685 5.649 Z " fill="#ffffff"/>
<path transform="matrix(1,0,0,-1,38.9461,56.244104)" d="M 0 0 L -10.866 0 L -10.866 10.851 L -3.482 10.851 L -3.482 9.601 L -9.616 9.601 L -9.616 1.25 L -1.25 1.25 L -1.25 4.523 L 0 4.523 Z " fill="#ffffff"/>
<path transform="matrix(1,0,0,-1,33.6541,53.360399)" d="M 0 0 L -3.156 3.503 L -2.227 4.34 L -.039 1.911 L 3.722 6.447 L 4.685 5.649 Z " fill="#ffffff"/>
<path transform="matrix(1,0,0,-1,80.6746,29.851098)" d="M 0 0 L -10.867 0 L -10.867 10.851 L -3.483 10.851 L -3.483 9.601 L -9.617 9.601 L -9.617 1.25 L -1.25 1.25 L -1.25 4.523 L 0 4.523 Z " fill="#ffffff"/>
<path transform="matrix(1,0,0,-1,75.3826,26.9673)" d="M 0 0 L -3.156 3.504 L -2.229 4.341 L -.039 1.911 L 3.721 6.447 L 4.684 5.649 Z " fill="#ffffff"/>
<path transform="matrix(1,0,0,-1,75.2478,69.3291)" d="M 0 0 C -2.878 0 -5.22 -2.337 -5.22 -5.21 C -5.22 -8.084 -2.878 -10.421 0 -10.421 C 2.879 -10.421 5.221 -8.084 5.221 -5.21 C 5.221 -2.337 2.879 0 0 0 M 0 -11.671 C -3.567 -11.671 -6.47 -8.772 -6.47 -5.21 C -6.47 -1.648 -3.567 1.25 0 1.25 C 3.568 1.25 6.471 -1.648 6.471 -5.21 C 6.471 -8.772 3.568 -11.671 0 -11.671 " fill="#ffffff"/>
<path transform="matrix(1,0,0,-1,84.9031,69.3618)" d="M 0 0 L -1.25 0 C -1.25 1.403 -1.053 2.792 -.662 4.127 C .889 9.443 5.416 13.528 10.871 14.535 C 11.055 14.565 11.242 14.52 11.384 14.4 C 11.527 14.282 11.609 14.105 11.609 13.92 L 11.609 10.214 L 22.793 18.03 L 11.609 25.845 L 11.609 21.73 C 11.609 21.414 11.372 21.147 11.058 21.11 C 5.431 20.447 .385 17.624 -3.149 13.161 C -3.639 12.543 -4.437 12.31 -5.181 12.571 C -5.928 12.831 -6.41 13.509 -6.41 14.299 L -6.41 24.469 C -6.41 24.814 -6.13 25.094 -5.785 25.094 L -1.826 25.094 L -9.655 36.258 L -17.483 25.094 L -13.525 25.094 C -13.181 25.094 -12.9 24.814 -12.9 24.469 L -12.9 14.299 C -12.9 13.509 -13.383 12.831 -14.129 12.571 C -14.876 12.31 -15.671 12.543 -16.16 13.161 C -19.695 17.624 -24.741 20.447 -30.368 21.11 C -30.683 21.147 -30.92 21.414 -30.92 21.73 L -30.92 25.845 L -42.104 18.03 L -30.92 10.214 L -30.92 13.92 C -30.92 14.105 -30.838 14.282 -30.694 14.4 C -30.552 14.52 -30.362 14.565 -30.182 14.535 C -24.775 13.538 -20.261 9.498 -18.681 4.241 C -18.269 2.869 -18.06 1.442 -18.06 0 L -19.31 0 C -19.31 1.32 -19.501 2.626 -19.878 3.881 C -21.252 8.452 -25.051 12.019 -29.67 13.147 L -29.67 9.015 C -29.67 8.782 -29.8 8.568 -30.006 8.46 C -30.213 8.353 -30.462 8.369 -30.653 8.502 L -43.553 17.518 C -43.72 17.634 -43.819 17.826 -43.819 18.03 C -43.819 18.234 -43.72 18.425 -43.553 18.542 L -30.653 27.557 C -30.462 27.69 -30.214 27.708 -30.006 27.599 C -29.8 27.491 -29.67 27.277 -29.67 27.044 L -29.67 22.279 C -23.936 21.462 -18.807 18.515 -15.18 13.937 C -14.945 13.64 -14.631 13.719 -14.54 13.751 C -14.449 13.783 -14.15 13.917 -14.15 14.299 L -14.15 23.844 L -18.685 23.844 C -18.918 23.844 -19.132 23.974 -19.239 24.18 C -19.347 24.387 -19.33 24.637 -19.196 24.828 L -10.167 37.706 C -9.933 38.04 -9.378 38.04 -9.144 37.706 L -.113 24.828 C .021 24.637 .037 24.387 -.07 24.18 C -.178 23.974 -.392 23.844 -.625 23.844 L -5.16 23.844 L -5.16 14.299 C -5.16 13.917 -4.861 13.783 -4.771 13.751 C -4.68 13.719 -4.364 13.64 -4.13 13.937 C -.504 18.515 4.624 21.462 10.359 22.279 L 10.359 27.044 C 10.359 27.277 10.489 27.491 10.695 27.599 C 10.902 27.707 11.151 27.69 11.343 27.557 L 24.242 18.542 C 24.409 18.425 24.509 18.234 24.509 18.03 C 24.509 17.826 24.409 17.634 24.242 17.518 L 11.343 8.502 C 11.15 8.37 10.902 8.354 10.695 8.46 C 10.489 8.568 10.359 8.782 10.359 9.015 L 10.359 13.147 C 5.697 12.01 1.887 8.402 .537 3.777 C .181 2.555 0 1.284 0 0 " fill="#ffffff"/>
</g>
</g>
</g>
</svg>
