<?xml version="1.0" encoding="UTF-8" standalone="no"?>
<!DOCTYPE svg PUBLIC "-//W3C//DTD SVG 1.1//EN" "http://www.w3.org/Graphics/SVG/1.1/DTD/svg11.dtd">
<svg xmlns="http://www.w3.org/2000/svg" xmlns:xlink="http://www.w3.org/1999/xlink" version="1.1" width="150pt" height="150pt" viewBox="0 0 150 150">
<g enable-background="new">
<g id="Layer-1" data-name="23">
<path transform="matrix(1,0,0,-1,0,150)" d="M 0 50.073 L 149.95 50.073 L 149.95 150 L 0 150 Z " fill="#003366"/>
<path transform="matrix(1,0,0,-1,0,150)" d="M 0 .073 L 149.95 .073 L 149.95 50.073 L 0 50.073 Z " fill="#115a85"/>
<clipPath id="cp0">
<path transform="matrix(1,0,0,-1,0,150)" d="M 0 150 L 150 150 L 150 0 L 0 0 Z "/>
</clipPath>
<g clip-path="url(#cp0)">
<path transform="matrix(1,0,0,-1,19.3699,119.5576)" d="M 0 0 C 0 -3.851 -1.547 -6.65 -7.23 -13.722 L .387 -13.722 L -.06 -17.502 L -11.753 -17.502 L -11.753 -13.967 C -5.653 -5.916 -4.255 -3.605 -4.255 -.385 C -4.255 1.646 -5.178 2.766 -6.605 2.766 C -7.944 2.766 -8.808 1.995 -9.908 .385 L -12.378 2.625 C -10.891 5.075 -8.867 6.546 -6.219 6.546 C -2.202 6.546 0 3.605 0 0 " fill="#ffffff"/>
<path transform="matrix(1,0,0,-1,32.7127,118.998)" d="M 0 0 C 0 -2.87 -1.339 -4.76 -3.838 -5.565 C -1.31 -5.915 .595 -7.7 .595 -11.341 C .595 -15.261 -1.875 -18.622 -6.278 -18.622 C -8.956 -18.622 -10.92 -17.361 -12.467 -15.156 L -10.176 -12.706 C -8.956 -14.176 -7.944 -14.876 -6.517 -14.876 C -4.85 -14.876 -3.63 -13.546 -3.63 -11.096 C -3.63 -8.4 -4.79 -7.421 -6.813 -7.421 L -8.242 -7.421 L -7.766 -4.06 L -6.813 -4.06 C -5.118 -4.06 -3.987 -2.87 -3.987 -.63 C -3.987 1.296 -4.969 2.346 -6.517 2.346 C -7.796 2.346 -8.927 1.681 -9.998 .386 L -12.051 2.905 C -10.354 4.936 -8.361 5.986 -6.011 5.986 C -2.202 5.986 0 3.256 0 0 " fill="#ffffff"/>
<path transform="matrix(1,0,0,-1,0,150)" d="M 42.736 26.68 L 40.949 26.68 L 40.949 36.18 L 42.736 36.18 Z " fill="#ffffff"/>
<path transform="matrix(1,0,0,-1,50.9666,123.3203)" d="M 0 0 L -2.282 0 L -5.06 7.74 C -4.978 6.888 -4.826 5.691 -4.826 3.945 L -4.826 0 L -6.421 0 L -6.421 9.5 L -4.166 9.5 L -1.361 1.76 C -1.444 2.296 -1.595 3.643 -1.595 4.99 L -1.595 9.5 L 0 9.5 Z " fill="#ffffff"/>
<path transform="matrix(1,0,0,-1,58.2596,115.2227)" d="M 0 0 L -2.187 0 L -2.187 -8.098 L -3.96 -8.098 L -3.96 0 L -6.242 0 L -6.242 1.402 L .192 1.402 Z " fill="#ffffff"/>
<path transform="matrix(1,0,0,-1,64.3435,115.140598)" d="M 0 0 L -3.093 0 L -3.093 -2.694 L -.385 -2.694 L -.385 -4.001 L -3.093 -4.001 L -3.093 -6.847 L .221 -6.847 L .221 -8.18 L -4.88 -8.18 L -4.88 1.32 L .192 1.32 Z " fill="#ffffff"/>
<path transform="matrix(1,0,0,-1,68.4597,118.219699)" d="M 0 0 C 1.127 0 1.649 .495 1.649 1.608 C 1.649 2.64 1.127 3.093 -.11 3.093 L -.812 3.093 L -.812 0 Z M .165 -1.279 L -.812 -1.279 L -.812 -5.101 L -2.599 -5.101 L -2.599 4.399 L -.097 4.399 C 2.337 4.399 3.492 3.437 3.492 1.608 C 3.492 .412 2.942 -.481 1.787 -.949 L 4.001 -5.101 L 2.034 -5.101 Z " fill="#ffffff"/>
<path transform="matrix(1,0,0,-1,79.9129,123.3203)" d="M 0 0 L -2.282 0 L -5.06 7.74 C -4.977 6.888 -4.825 5.691 -4.825 3.945 L -4.825 0 L -6.42 0 L -6.42 9.5 L -4.166 9.5 L -1.361 1.76 C -1.443 2.296 -1.595 3.643 -1.595 4.99 L -1.595 9.5 L 0 9.5 Z " fill="#ffffff"/>
<path transform="matrix(1,0,0,-1,85.6609,119.759799)" d="M 0 0 L -1.072 4.578 L -2.146 0 Z M .302 -1.348 L -2.447 -1.348 L -2.97 -3.561 L -4.771 -3.561 L -2.131 5.939 L .041 5.939 L 2.667 -3.561 L .824 -3.561 Z " fill="#ffffff"/>
<path transform="matrix(1,0,0,-1,94.0242,115.2227)" d="M 0 0 L -2.186 0 L -2.186 -8.098 L -3.959 -8.098 L -3.959 0 L -6.241 0 L -6.241 1.402 L .193 1.402 Z " fill="#ffffff"/>
<path transform="matrix(1,0,0,-1,0,150)" d="M 97.015 26.68 L 95.228 26.68 L 95.228 36.18 L 97.015 36.18 Z " fill="#ffffff"/>
<path transform="matrix(1,0,0,-1,100.3308,118.5771)" d="M 0 0 C 0 -2.653 .715 -3.589 1.911 -3.589 C 3.162 -3.589 3.836 -2.653 3.836 .014 C 3.836 2.64 3.162 3.602 1.911 3.602 C .687 3.602 0 2.64 0 0 M 5.705 .014 C 5.705 -3.231 4.262 -4.949 1.911 -4.949 C -.412 -4.949 -1.87 -3.286 -1.87 0 C -1.87 3.23 -.412 4.963 1.911 4.963 C 4.248 4.963 5.705 3.313 5.705 .014 " fill="#ffffff"/>
<path transform="matrix(1,0,0,-1,113.9031,123.3203)" d="M 0 0 L -2.282 0 L -5.06 7.74 C -4.978 6.888 -4.826 5.691 -4.826 3.945 L -4.826 0 L -6.421 0 L -6.421 9.5 L -4.166 9.5 L -1.361 1.76 C -1.444 2.296 -1.595 3.643 -1.595 4.99 L -1.595 9.5 L 0 9.5 Z " fill="#ffffff"/>
<path transform="matrix(1,0,0,-1,119.6502,119.759799)" d="M 0 0 L -1.072 4.578 L -2.145 0 Z M .303 -1.348 L -2.447 -1.348 L -2.97 -3.561 L -4.771 -3.561 L -2.131 5.939 L .041 5.939 L 2.667 -3.561 L .825 -3.561 Z " fill="#ffffff"/>
<path transform="matrix(1,0,0,-1,125.075,121.8633)" d="M 0 0 L 3.382 0 L 3.189 -1.457 L -1.787 -1.457 L -1.787 8.043 L 0 8.043 Z " fill="#ffffff"/>
<path transform="matrix(1,0,0,-1,46.8738,127.1045)" d="M 0 0 L -.88 -1.031 C -1.375 -.618 -1.869 -.385 -2.461 -.385 C -3.602 -.385 -4.468 -1.278 -4.468 -3.945 C -4.468 -6.53 -3.629 -7.492 -2.447 -7.492 C -1.718 -7.492 -1.224 -7.148 -.756 -6.764 L .097 -7.781 C -.467 -8.372 -1.347 -8.922 -2.529 -8.922 C -4.771 -8.922 -6.338 -7.272 -6.338 -3.945 C -6.338 -.659 -4.687 .99 -2.557 .99 C -1.457 .99 -.715 .619 0 0 " fill="#ffffff"/>
<path transform="matrix(1,0,0,-1,49.2449,131.0771)" d="M 0 0 C 0 -2.653 .715 -3.589 1.911 -3.589 C 3.162 -3.589 3.836 -2.653 3.836 .014 C 3.836 2.64 3.162 3.602 1.911 3.602 C .687 3.602 0 2.64 0 0 M 5.706 .014 C 5.706 -3.231 4.263 -4.949 1.911 -4.949 C -.412 -4.949 -1.869 -3.286 -1.869 0 C -1.869 3.23 -.412 4.963 1.911 4.963 C 4.249 4.963 5.706 3.313 5.706 .014 " fill="#ffffff"/>
<path transform="matrix(1,0,0,-1,57.8719,131.0771)" d="M 0 0 C 0 -2.653 .715 -3.589 1.911 -3.589 C 3.162 -3.589 3.836 -2.653 3.836 .014 C 3.836 2.64 3.162 3.602 1.911 3.602 C .687 3.602 0 2.64 0 0 M 5.705 .014 C 5.705 -3.231 4.262 -4.949 1.911 -4.949 C -.412 -4.949 -1.87 -3.286 -1.87 0 C -1.87 3.23 -.412 4.963 1.911 4.963 C 4.248 4.963 5.705 3.313 5.705 .014 " fill="#ffffff"/>
<path transform="matrix(1,0,0,-1,69.2986,129.3447)" d="M 0 0 C 0 1.195 -.591 1.718 -1.801 1.718 L -2.488 1.718 L -2.488 -1.815 L -1.801 -1.815 C -.632 -1.815 0 -1.389 0 0 M 1.843 0 C 1.843 -2.159 .44 -3.148 -1.69 -3.148 L -2.488 -3.148 L -2.488 -6.476 L -4.275 -6.476 L -4.275 3.024 L -1.814 3.024 C .522 3.024 1.843 2.021 1.843 0 " fill="#ffffff"/>
<path transform="matrix(1,0,0,-1,77.1482,127.6406)" d="M 0 0 L -3.093 0 L -3.093 -2.694 L -.385 -2.694 L -.385 -4.001 L -3.093 -4.001 L -3.093 -6.847 L .221 -6.847 L .221 -8.18 L -4.88 -8.18 L -4.88 1.32 L .192 1.32 Z " fill="#ffffff"/>
<path transform="matrix(1,0,0,-1,81.2635,130.7197)" d="M 0 0 C 1.128 0 1.65 .495 1.65 1.608 C 1.65 2.64 1.128 3.093 -.109 3.093 L -.811 3.093 L -.811 0 Z M .165 -1.279 L -.811 -1.279 L -.811 -5.101 L -2.598 -5.101 L -2.598 4.399 L -.096 4.399 C 2.338 4.399 3.492 3.437 3.492 1.608 C 3.492 .412 2.942 -.481 1.788 -.949 L 4.001 -5.101 L 2.035 -5.101 Z " fill="#ffffff"/>
<path transform="matrix(1,0,0,-1,90.5808,132.2598)" d="M 0 0 L -1.072 4.578 L -2.145 0 Z M .303 -1.348 L -2.447 -1.348 L -2.97 -3.561 L -4.771 -3.561 L -2.131 5.939 L .041 5.939 L 2.667 -3.561 L .825 -3.561 Z " fill="#ffffff"/>
<path transform="matrix(1,0,0,-1,98.9441,127.7227)" d="M 0 0 L -2.186 0 L -2.186 -8.098 L -3.959 -8.098 L -3.959 0 L -6.241 0 L -6.241 1.402 L .193 1.402 Z " fill="#ffffff"/>
<path transform="matrix(1,0,0,-1,0,150)" d="M 101.935 14.18 L 100.147998 14.18 L 100.147998 23.68 L 101.935 23.68 Z " fill="#ffffff"/>
<path transform="matrix(1,0,0,-1,105.2508,131.0771)" d="M 0 0 C 0 -2.653 .715 -3.589 1.911 -3.589 C 3.162 -3.589 3.836 -2.653 3.836 .014 C 3.836 2.64 3.162 3.602 1.911 3.602 C .687 3.602 0 2.64 0 0 M 5.706 .014 C 5.706 -3.231 4.263 -4.949 1.911 -4.949 C -.412 -4.949 -1.869 -3.286 -1.869 0 C -1.869 3.23 -.412 4.963 1.911 4.963 C 4.249 4.963 5.706 3.313 5.706 .014 " fill="#ffffff"/>
<path transform="matrix(1,0,0,-1,118.823,135.8203)" d="M 0 0 L -2.282 0 L -5.06 7.74 C -4.978 6.888 -4.826 5.691 -4.826 3.945 L -4.826 0 L -6.421 0 L -6.421 9.5 L -4.166 9.5 L -1.361 1.76 C -1.444 2.296 -1.595 3.643 -1.595 4.99 L -1.595 9.5 L 0 9.5 Z " fill="#ffffff"/>
<path transform="matrix(1,0,0,-1,74.8806,27.325699)" d="M 0 0 C -12.732 0 -23.092 -10.323 -23.092 -23.012 C -23.092 -35.701 -12.732 -46.024 0 -46.024 C 12.732 -46.024 23.092 -35.701 23.092 -23.012 C 23.092 -10.323 12.732 0 0 0 M 0 -47.274 C -13.422 -47.274 -24.342 -36.39 -24.342 -23.012 C -24.342 -9.634 -13.422 1.25 0 1.25 C 13.422 1.25 24.342 -9.634 24.342 -23.012 C 24.342 -36.39 13.422 -47.274 0 -47.274 " fill="#ffffff"/>
<path transform="matrix(1,0,0,-1,99.0564,75.8345)" d="M 0 0 L -15.064 15.536 C -15.178 15.651 -15.24 15.806 -15.241 15.968 C -15.247 17.241 -14.688 18.484 -13.578 19.663 C -13.072 20.2 -12.168 20.474 -11.211 20.764 C -10.465 20.99 -9.62 21.246 -9.293 21.572 C -8.758 22.105 -8.463 22.814 -8.463 23.569 C -8.463 24.324 -8.758 25.035 -9.294 25.568 C -9.311 25.586 -9.394 25.668 -9.408 25.687 C -10.478 26.747 -12.277 26.748 -13.384 25.645 C -13.711 25.319 -13.967 24.478 -14.193 23.736 C -14.484 22.78 -14.76 21.878 -15.3 21.374 C -16.477 20.274 -17.717 19.716 -18.984 19.716 C -19.156 19.716 -19.322 19.778 -19.443 19.898 L -24.176 24.616 L -28.715 20.091 C -28.646 19.229 -28.205 18.36 -27.4 17.505 C -27.123 17.21 -26.303 16.962 -25.58 16.743 C -24.651 16.461 -23.691 16.17 -23.143 15.624 C -22.371 14.854 -21.945 13.831 -21.945 12.742 C -21.945 11.652 -22.371 10.628 -23.144 9.858 C -23.153 9.849 -23.165 9.838 -23.179 9.826 C -23.191 9.812 -23.204 9.797 -23.218 9.783 C -24.813 8.194 -27.405 8.194 -28.999 9.782 C -29.547 10.329 -29.839 11.286 -30.121 12.211 C -30.342 12.932 -30.591 13.749 -30.886 14.025 C -31.745 14.828 -32.619 15.269 -33.486 15.336 L -48.673 .201 C -48.918 -.043 -49.313 -.042 -49.557 .202 C -49.801 .447 -49.8 .843 -49.556 1.086 L -49.555 1.087 L -34.177 16.414 C -34.056 16.533 -33.881 16.583 -33.723 16.596 C -32.451 16.596 -31.21 16.038 -30.032 14.938 C -29.492 14.433 -29.217 13.531 -28.926 12.576 C -28.699 11.834 -28.443 10.993 -28.116 10.668 C -27.01 9.566 -25.21 9.564 -24.102 10.668 C -24.076 10.693 -23.997 10.773 -23.968 10.793 C -23.49 11.277 -23.195 11.987 -23.195 12.742 C -23.195 13.496 -23.49 14.205 -24.025 14.738 C -24.353 15.064 -25.197 15.321 -25.942 15.546 C -26.899 15.837 -27.804 16.111 -28.311 16.648 C -29.419 17.826 -29.979 19.069 -29.975 20.343 C -29.974 20.509 -29.908 20.667 -29.791 20.784 L -24.617 25.941 C -24.373 26.184 -23.979 26.184 -23.734 25.941 L -18.753 20.975 C -17.887 21.042 -17.014 21.482 -16.153 22.287 C -15.858 22.563 -15.608 23.379 -15.389 24.1 C -15.106 25.026 -14.814 25.983 -14.267 26.53 C -12.671 28.118 -10.08 28.117 -8.486 26.529 C -8.478 26.52 -8.466 26.506 -8.453 26.493 C -8.438 26.48 -8.425 26.467 -8.41 26.453 C -7.639 25.684 -7.213 24.659 -7.213 23.569 C -7.213 22.48 -7.639 21.457 -8.41 20.687 C -8.959 20.141 -9.919 19.85 -10.848 19.568 C -11.571 19.349 -12.391 19.101 -12.668 18.806 C -13.475 17.949 -13.916 17.078 -13.982 16.215 L .896 .87 Z " fill="#ffffff"/>
<path transform="matrix(1,0,0,-1,62.0828,52.5615)" d="M 0 0 C -1.047 0 -2.094 .397 -2.892 1.192 C -2.9 1.201 -2.912 1.214 -2.925 1.228 C -2.939 1.241 -2.953 1.254 -2.968 1.268 C -3.739 2.037 -4.165 3.062 -4.165 4.151 C -4.165 5.241 -3.739 6.264 -2.968 7.033 C -2.42 7.58 -1.459 7.871 -.53 8.152 C .193 8.371 1.013 8.62 1.29 8.914 C 2.096 9.77 2.536 10.638 2.604 11.5 L -12.618 26.67 L -11.735 27.556 L 3.68 12.193 C 3.797 12.076 3.862 11.918 3.863 11.753 C 3.869 10.48 3.31 9.236 2.2 8.058 C 1.694 7.52 .79 7.246 -.168 6.956 C -.913 6.73 -1.758 6.474 -2.085 6.148 C -2.62 5.615 -2.915 4.906 -2.915 4.151 C -2.915 3.396 -2.62 2.686 -2.084 2.152 C -2.064 2.132 -1.986 2.056 -1.97 2.033 C -.9 .973 .9 .973 2.006 2.076 C 2.333 2.402 2.59 3.244 2.817 3.987 C 3.108 4.941 3.383 5.842 3.922 6.347 C 5.099 7.447 6.338 8.004 7.606 8.004 C 7.783 8.003 7.944 7.942 8.065 7.822 L 12.798 3.105 L 17.337 7.629 C 17.269 8.492 16.827 9.36 16.022 10.216 C 15.745 10.51 14.926 10.758 14.202 10.978 C 13.273 11.259 12.313 11.55 11.765 12.097 C 10.993 12.866 10.567 13.889 10.567 14.978 C 10.567 16.068 10.993 17.092 11.766 17.863 C 11.775 17.872 11.787 17.883 11.801 17.895 C 11.811 17.906 11.821 17.918 11.832 17.929 C 13.437 19.527 16.028 19.526 17.621 17.938 C 18.169 17.392 18.461 16.435 18.743 15.509 C 18.964 14.789 19.213 13.972 19.508 13.695 C 20.368 12.892 21.241 12.452 22.108 12.384 L 37.177 27.402 L 38.06 26.516 L 22.799 11.307 C 22.678 11.187 22.532 11.118 22.345 11.125 C 21.073 11.125 19.832 11.682 18.654 12.782 C 18.114 13.288 17.839 14.189 17.548 15.144 C 17.321 15.886 17.065 16.727 16.738 17.053 C 15.632 18.157 13.83 18.156 12.724 17.053 C 12.697 17.027 12.616 16.945 12.587 16.924 C 12.112 16.443 11.817 15.733 11.817 14.978 C 11.817 14.224 12.112 13.515 12.647 12.982 C 12.975 12.656 13.819 12.4 14.565 12.174 C 15.522 11.884 16.426 11.609 16.933 11.073 C 18.041 9.895 18.602 8.651 18.597 7.377 C 18.596 7.212 18.53 7.053 18.413 6.937 L 13.239 1.78 C 12.995 1.537 12.601 1.537 12.356 1.78 L 7.375 6.745 C 6.509 6.678 5.636 6.238 4.775 5.434 C 4.481 5.158 4.232 4.342 4.013 3.623 C 3.729 2.696 3.438 1.738 2.889 1.19 C 2.092 .397 1.046 0 0 0 " fill="#ffffff"/>
<path transform="matrix(1,0,0,-1,52.0867,26.751)" d="M 0 0 L 3.026 -3.017 L 8.531 2.47 L 5.505 5.486 Z M 3.026 -4.781 L -1.77 0 L 5.505 7.251 L 10.303 2.47 Z " fill="#ffffff"/>
<path transform="matrix(1,0,0,-1,88.0701,75.6597)" d="M 0 0 L 2.966 -3.076 L 8.58 2.3 L 5.614 5.375 Z M 2.931 -4.839 L -1.77 .035 L 5.649 7.14 L 10.35 2.265 Z " fill="#ffffff"/>
<path transform="matrix(1,0,0,-1,46.2478,67.0239)" d="M 0 0 L 5.504 -5.486 L 8.53 -2.47 L 3.025 3.016 Z M 5.504 -7.251 L -1.771 0 L 3.025 4.781 L 10.302 -2.47 Z " fill="#ffffff"/>
<path transform="matrix(1,0,0,-1,95.2215,30.954102)" d="M 0 0 L 5.505 -5.486 L 8.531 -2.47 L 3.026 3.017 Z M 5.505 -7.251 L -1.771 0 L 3.026 4.781 L 10.303 -2.47 Z " fill="#ffffff"/>
</g>
</g>
</g>
</svg>
