<?xml version="1.0" encoding="UTF-8" standalone="no"?>
<!DOCTYPE svg PUBLIC "-//W3C//DTD SVG 1.1//EN" "http://www.w3.org/Graphics/SVG/1.1/DTD/svg11.dtd">
<svg xmlns="http://www.w3.org/2000/svg" xmlns:xlink="http://www.w3.org/1999/xlink" version="1.1" width="150pt" height="150pt" viewBox="0 0 150 150">
<g enable-background="new">
<g id="Layer-1" data-name="03">
<path transform="matrix(1,0,0,-1,0,150)" d="M 0 50.073 L 149.95 50.073 L 149.95 150 L 0 150 Z " fill="#1c3664"/>
<path transform="matrix(1,0,0,-1,0,150)" d="M 0 .073 L 149.95 .073 L 149.95 50.073 L 0 50.073 Z " fill="#dc1768"/>
<clipPath id="cp0">
<path transform="matrix(1,0,0,-1,0,150)" d="M 0 150 L 150 150 L 150 0 L 0 0 Z "/>
</clipPath>
<g clip-path="url(#cp0)">
<path transform="matrix(1,0,0,-1,26.0115,118.998)" d="M 0 0 C 0 -2.87 -1.339 -4.76 -3.838 -5.565 C -1.31 -5.915 .595 -7.7 .595 -11.341 C .595 -15.261 -1.875 -18.622 -6.278 -18.622 C -8.956 -18.622 -10.92 -17.361 -12.467 -15.156 L -10.176 -12.706 C -8.956 -14.176 -7.944 -14.876 -6.517 -14.876 C -4.85 -14.876 -3.63 -13.546 -3.63 -11.096 C -3.63 -8.4 -4.79 -7.421 -6.813 -7.421 L -8.242 -7.421 L -7.766 -4.06 L -6.813 -4.06 C -5.118 -4.06 -3.987 -2.87 -3.987 -.63 C -3.987 1.296 -4.969 2.346 -6.517 2.346 C -7.796 2.346 -8.927 1.681 -9.998 .386 L -12.051 2.905 C -10.354 4.936 -8.361 5.986 -6.011 5.986 C -2.202 5.986 0 3.256 0 0 " fill="#ffffff"/>
<path transform="matrix(1,0,0,-1,0,150)" d="M 42.736 26.68 L 40.949 26.68 L 40.949 36.18 L 42.736 36.18 Z " fill="#ffffff"/>
<path transform="matrix(1,0,0,-1,50.9666,123.3203)" d="M 0 0 L -2.282 0 L -5.06 7.74 C -4.978 6.888 -4.826 5.691 -4.826 3.945 L -4.826 0 L -6.421 0 L -6.421 9.5 L -4.166 9.5 L -1.361 1.76 C -1.444 2.296 -1.595 3.643 -1.595 4.99 L -1.595 9.5 L 0 9.5 Z " fill="#ffffff"/>
<path transform="matrix(1,0,0,-1,52.7947,113.8203)" d="M 0 0 L 4.949 0 L 4.757 -1.32 L 1.787 -1.32 L 1.787 -4.207 L 4.371 -4.207 L 4.371 -5.527 L 1.787 -5.527 L 1.787 -9.5 L 0 -9.5 Z " fill="#ffffff"/>
<path transform="matrix(1,0,0,-1,60.1834,118.5771)" d="M 0 0 C 0 -2.653 .715 -3.589 1.911 -3.589 C 3.162 -3.589 3.836 -2.653 3.836 .014 C 3.836 2.64 3.162 3.602 1.911 3.602 C .687 3.602 0 2.64 0 0 M 5.705 .014 C 5.705 -3.231 4.262 -4.949 1.911 -4.949 C -.412 -4.949 -1.87 -3.286 -1.87 0 C -1.87 3.23 -.412 4.963 1.911 4.963 C 4.248 4.963 5.705 3.313 5.705 .014 " fill="#ffffff"/>
<path transform="matrix(1,0,0,-1,69.9324,118.219699)" d="M 0 0 C 1.128 0 1.65 .495 1.65 1.608 C 1.65 2.64 1.128 3.093 -.109 3.093 L -.811 3.093 L -.811 0 Z M .165 -1.279 L -.811 -1.279 L -.811 -5.101 L -2.598 -5.101 L -2.598 4.399 L -.096 4.399 C 2.338 4.399 3.492 3.437 3.492 1.608 C 3.492 .412 2.942 -.481 1.788 -.949 L 4.001 -5.101 L 2.035 -5.101 Z " fill="#ffffff"/>
<path transform="matrix(1,0,0,-1,83.4617,123.3203)" d="M 0 0 L -1.704 0 L -1.91 4 C -1.979 5.402 -2.034 6.86 -2.007 7.863 L -3.506 1.031 L -5.169 1.031 L -6.75 7.878 C -6.709 6.612 -6.736 5.307 -6.791 3.945 L -6.983 0 L -8.675 0 L -8.015 9.5 L -5.746 9.5 L -4.303 2.818 L -2.955 9.5 L -.659 9.5 Z " fill="#ffffff"/>
<path transform="matrix(1,0,0,-1,89.0388,119.759799)" d="M 0 0 L -1.072 4.578 L -2.146 0 Z M .302 -1.348 L -2.447 -1.348 L -2.97 -3.561 L -4.771 -3.561 L -2.131 5.939 L .041 5.939 L 2.667 -3.561 L .824 -3.561 Z " fill="#ffffff"/>
<path transform="matrix(1,0,0,-1,97.4021,115.2227)" d="M 0 0 L -2.187 0 L -2.187 -8.098 L -3.96 -8.098 L -3.96 0 L -6.242 0 L -6.242 1.402 L .192 1.402 Z " fill="#ffffff"/>
<path transform="matrix(1,0,0,-1,0,150)" d="M 100.393 26.68 L 98.605998 26.68 L 98.605998 36.18 L 100.393 36.18 Z " fill="#ffffff"/>
<path transform="matrix(1,0,0,-1,103.7088,118.5771)" d="M 0 0 C 0 -2.653 .715 -3.589 1.911 -3.589 C 3.162 -3.589 3.836 -2.653 3.836 .014 C 3.836 2.64 3.162 3.602 1.911 3.602 C .687 3.602 0 2.64 0 0 M 5.705 .014 C 5.705 -3.231 4.262 -4.949 1.911 -4.949 C -.412 -4.949 -1.87 -3.286 -1.87 0 C -1.87 3.23 -.412 4.963 1.911 4.963 C 4.248 4.963 5.705 3.313 5.705 .014 " fill="#ffffff"/>
<path transform="matrix(1,0,0,-1,117.2801,123.3203)" d="M 0 0 L -2.282 0 L -5.06 7.74 C -4.977 6.888 -4.825 5.691 -4.825 3.945 L -4.825 0 L -6.42 0 L -6.42 9.5 L -4.166 9.5 L -1.361 1.76 C -1.443 2.296 -1.595 3.643 -1.595 4.99 L -1.595 9.5 L 0 9.5 Z " fill="#ffffff"/>
<path transform="matrix(1,0,0,-1,45.2244,129.3447)" d="M 0 0 C 0 1.195 -.591 1.718 -1.801 1.718 L -2.488 1.718 L -2.488 -1.815 L -1.801 -1.815 C -.633 -1.815 0 -1.389 0 0 M 1.842 0 C 1.842 -2.159 .439 -3.148 -1.691 -3.148 L -2.488 -3.148 L -2.488 -6.476 L -4.275 -6.476 L -4.275 3.024 L -1.814 3.024 C .522 3.024 1.842 2.021 1.842 0 " fill="#ffffff"/>
<path transform="matrix(1,0,0,-1,50.7918,130.7197)" d="M 0 0 C 1.127 0 1.649 .495 1.649 1.608 C 1.649 2.64 1.127 3.093 -.11 3.093 L -.812 3.093 L -.812 0 Z M .165 -1.279 L -.812 -1.279 L -.812 -5.101 L -2.599 -5.101 L -2.599 4.399 L -.097 4.399 C 2.337 4.399 3.492 3.437 3.492 1.608 C 3.492 .412 2.942 -.481 1.787 -.949 L 4.001 -5.101 L 2.034 -5.101 Z " fill="#ffffff"/>
<path transform="matrix(1,0,0,-1,57.1775,131.0771)" d="M 0 0 C 0 -2.653 .715 -3.589 1.911 -3.589 C 3.162 -3.589 3.836 -2.653 3.836 .014 C 3.836 2.64 3.162 3.602 1.911 3.602 C .687 3.602 0 2.64 0 0 M 5.705 .014 C 5.705 -3.231 4.262 -4.949 1.911 -4.949 C -.412 -4.949 -1.87 -3.286 -1.87 0 C -1.87 3.23 -.412 4.963 1.911 4.963 C 4.248 4.963 5.705 3.313 5.705 .014 " fill="#ffffff"/>
<path transform="matrix(1,0,0,-1,67.9138,135.8203)" d="M 0 0 L -2.158 0 L -4.715 9.5 L -2.873 9.5 L -1.045 1.567 L .701 9.5 L 2.488 9.5 Z " fill="#ffffff"/>
<path transform="matrix(1,0,0,-1,0,150)" d="M 73.16 14.18 L 71.373 14.18 L 71.373 23.68 L 73.16 23.68 Z " fill="#ffffff"/>
<path transform="matrix(1,0,0,-1,80.4119,127.2832)" d="M 0 0 L -.853 -.976 C -1.457 -.439 -2.035 -.192 -2.723 -.192 C -3.506 -.192 -4.015 -.618 -4.015 -1.333 C -4.015 -2.021 -3.685 -2.364 -2.282 -2.859 C -.742 -3.423 .247 -4.11 .247 -5.829 C .247 -7.492 -.99 -8.743 -3.053 -8.743 C -4.469 -8.743 -5.458 -8.207 -6.2 -7.451 L -5.293 -6.447 C -4.647 -7.012 -3.987 -7.369 -3.121 -7.369 C -2.2 -7.369 -1.608 -6.833 -1.608 -5.925 C -1.608 -5.142 -1.952 -4.743 -3.259 -4.289 C -5.073 -3.643 -5.843 -2.832 -5.843 -1.457 C -5.843 .083 -4.578 1.169 -2.846 1.169 C -1.608 1.169 -.742 .757 0 0 " fill="#ffffff"/>
<path transform="matrix(1,0,0,-1,0,150)" d="M 83.704 14.18 L 81.917 14.18 L 81.917 23.68 L 83.704 23.68 Z " fill="#ffffff"/>
<path transform="matrix(1,0,0,-1,87.0183,131.0771)" d="M 0 0 C 0 -2.653 .715 -3.589 1.911 -3.589 C 3.162 -3.589 3.836 -2.653 3.836 .014 C 3.836 2.64 3.162 3.602 1.911 3.602 C .687 3.602 0 2.64 0 0 M 5.706 .014 C 5.706 -3.231 4.263 -4.949 1.911 -4.949 C -.412 -4.949 -1.869 -3.286 -1.869 0 C -1.869 3.23 -.412 4.963 1.911 4.963 C 4.249 4.963 5.706 3.313 5.706 .014 " fill="#ffffff"/>
<path transform="matrix(1,0,0,-1,100.5906,135.8203)" d="M 0 0 L -2.282 0 L -5.06 7.74 C -4.977 6.888 -4.825 5.691 -4.825 3.945 L -4.825 0 L -6.42 0 L -6.42 9.5 L -4.166 9.5 L -1.361 1.76 C -1.443 2.296 -1.595 3.643 -1.595 4.99 L -1.595 9.5 L 0 9.5 Z " fill="#ffffff"/>
<path transform="matrix(1,0,0,-1,0,150)" d="M 70.968 71.125 L 79.033008 71.125 L 79.033008 99.043 L 70.968 99.043 Z M 80.283 69.875 L 69.717998 69.875 L 69.717998 100.293 L 80.283 100.293 Z " fill="#ffffff"/>
<path transform="matrix(1,0,0,-1,0,150)" d="M 70.343 69.875 L 64.812007 69.875 L 64.812007 71.125 L 70.343 71.125 Z " fill="#ffffff"/>
<path transform="matrix(1,0,0,-1,0,150)" d="M 85.095 69.875 L 79.564 69.875 L 79.564 71.125 L 85.095 71.125 Z " fill="#ffffff"/>
<path transform="matrix(1,0,0,-1,74.9998,33.7949)" d="M 0 0 C -2.914 0 -5.285 -2.366 -5.285 -5.275 C -5.285 -8.184 -2.914 -10.55 0 -10.55 C 2.915 -10.55 5.286 -8.184 5.286 -5.275 C 5.286 -2.366 2.915 0 0 0 M 0 -11.8 C -3.604 -11.8 -6.535 -8.873 -6.535 -5.275 C -6.535 -1.677 -3.604 1.25 0 1.25 C 3.604 1.25 6.536 -1.677 6.536 -5.275 C 6.536 -8.873 3.604 -11.8 0 -11.8 " fill="#ffffff"/>
<path transform="matrix(1,0,0,-1,0,150)" d="M 70.343 99.043 L 64.812007 99.043 L 64.812007 100.293 L 70.343 100.293 Z " fill="#ffffff"/>
<path transform="matrix(1,0,0,-1,100.8572,33.773904)" d="M 0 0 C -2.914 0 -5.285 -2.366 -5.285 -5.275 C -5.285 -8.184 -2.914 -10.55 0 -10.55 C 2.915 -10.55 5.286 -8.184 5.286 -5.275 C 5.286 -2.366 2.915 0 0 0 M 0 -11.8 C -3.604 -11.8 -6.535 -8.873 -6.535 -5.275 C -6.535 -1.677 -3.604 1.25 0 1.25 C 3.604 1.25 6.536 -1.677 6.536 -5.275 C 6.536 -8.873 3.604 -11.8 0 -11.8 " fill="#ffffff"/>
<path transform="matrix(1,0,0,-1,49.1424,33.773904)" d="M 0 0 C -2.914 0 -5.285 -2.366 -5.285 -5.275 C -5.285 -8.184 -2.914 -10.55 0 -10.55 C 2.915 -10.55 5.286 -8.184 5.286 -5.275 C 5.286 -2.366 2.915 0 0 0 M 0 -11.8 C -3.604 -11.8 -6.535 -8.873 -6.535 -5.275 C -6.535 -1.677 -3.604 1.25 0 1.25 C 3.604 1.25 6.536 -1.677 6.536 -5.275 C 6.536 -8.873 3.604 -11.8 0 -11.8 " fill="#ffffff"/>
<path transform="matrix(1,0,0,-1,70.3426,74.7202)" d="M 0 0 L -.166 .009 C -13.41 2.333 -23.022 13.775 -23.022 27.214 C -23.022 28.108 -22.978 29.023 -22.888 29.933 L -22.821 30.608 L -22.153 30.487 C -21.817 30.426 -21.506 30.396 -21.2 30.396 C -18.285 30.396 -15.914 32.763 -15.914 35.671 C -15.914 37.703 -17.056 39.519 -18.894 40.411 L -19.506 40.708 L -19.158 41.293 C -14.188 49.652 -5.062 54.845 4.657 54.845 C 14.378 54.845 23.504 49.652 28.474 41.293 L 28.821 40.709 L 28.21 40.412 C 26.371 39.519 25.229 37.703 25.229 35.671 C 25.229 32.763 27.601 30.396 30.515 30.396 C 30.82 30.396 31.132 30.426 31.47 30.487 L 32.138 30.608 L 32.203 29.933 C 32.292 29.019 32.337 28.104 32.337 27.214 C 32.337 13.786 22.734 2.346 9.503 .013 L 9.395 .004 L 9.286 1.245 C 9.296 1.246 9.306 1.248 9.315 1.25 L 9.34 1.254 C 21.944 3.502 31.087 14.412 31.087 27.214 C 31.087 27.854 31.062 28.509 31.014 29.167 C 27.182 28.856 23.979 31.909 23.979 35.671 C 23.979 37.956 25.145 40.02 27.062 41.206 C 22.249 48.865 13.725 53.595 4.657 53.595 C -4.409 53.595 -12.934 48.864 -17.747 41.206 C -15.829 40.02 -14.664 37.956 -14.664 35.671 C -14.664 31.908 -17.854 28.85 -21.699 29.167 C -21.748 28.511 -21.772 27.856 -21.772 27.214 C -21.772 14.383 -12.595 3.459 .051 1.241 L -.035 .755 Z " fill="#ffffff"/>
<path transform="matrix(1,0,0,-1,0,150)" d="M 84.845 110.362 L 83.074 110.362 L 83.074 111.612 L 84.845 111.612 Z M 88.387 110.362 L 86.616 110.362 L 86.616 111.612 L 88.387 111.612 Z M 91.931 110.362 L 90.159 110.362 L 90.159 111.612 L 91.931 111.612 Z " fill="#ffffff"/>
<path transform="matrix(1,0,0,-1,0,150)" d="M 59.563 110.362 L 57.792 110.362 L 57.792 111.612 L 59.563 111.612 Z M 63.106 110.362 L 61.335 110.362 L 61.335 111.612 L 63.106 111.612 Z M 66.65 110.362 L 64.878 110.362 L 64.878 111.612 L 66.65 111.612 Z " fill="#ffffff"/>
</g>
</g>
</g>
</svg>
