<?xml version="1.0" encoding="UTF-8" standalone="no"?>
<!DOCTYPE svg PUBLIC "-//W3C//DTD SVG 1.1//EN" "http://www.w3.org/Graphics/SVG/1.1/DTD/svg11.dtd">
<svg xmlns="http://www.w3.org/2000/svg" xmlns:xlink="http://www.w3.org/1999/xlink" version="1.1" width="150pt" height="150pt" viewBox="0 0 150 150">
<g enable-background="new">
<g id="Layer-1" data-name="04">
<path transform="matrix(1,0,0,-1,0,150)" d="M 0 50.073 L 149.95 50.073 L 149.95 150 L 0 150 Z " fill="#1c3664"/>
<path transform="matrix(1,0,0,-1,0,150)" d="M 0 .073 L 149.95 .073 L 149.95 50.073 L 0 50.073 Z " fill="#e82050"/>
<path transform="matrix(1,0,0,-1,27.5594,131.7744)" d="M 0 0 L -2.054 0 L -2.054 -5.285 L -6.011 -5.285 L -6.04 0 L -13.776 0 L -13.776 3.291 L -8.6 18.832 L -5.118 17.362 L -9.552 3.711 L -6.011 3.711 L -5.534 9.521 L -2.054 9.521 L -2.054 3.711 L 0 3.711 Z " fill="#ffffff"/>
<path transform="matrix(1,0,0,-1,42.6853,115.612308)" d="M 0 0 L 3.348 0 L 3.157 -1.458 L -1.77 -1.458 L -1.77 8.042 L 0 8.042 Z " fill="#ffffff"/>
<path transform="matrix(1,0,0,-1,51.5789,108.8896)" d="M 0 0 L -3.063 0 L -3.063 -2.695 L -.381 -2.695 L -.381 -4.001 L -3.063 -4.001 L -3.063 -6.847 L .218 -6.847 L .218 -8.181 L -4.832 -8.181 L -4.832 1.319 L .19 1.319 Z " fill="#ffffff"/>
<clipPath id="cp0">
<path transform="matrix(1,0,0,-1,0,150)" d="M 0 150 L 150 150 L 150 0 L 0 0 Z "/>
</clipPath>
<g clip-path="url(#cp0)">
<path transform="matrix(1,0,0,-1,58.8797,108.4775)" d="M 0 0 L -.912 -.948 C -1.498 -.468 -1.974 -.233 -2.695 -.233 C -3.894 -.233 -4.859 -1.113 -4.859 -3.836 C -4.859 -6.585 -4.206 -7.437 -2.94 -7.437 C -2.464 -7.437 -2.028 -7.313 -1.647 -7.08 L -1.647 -4.551 L -2.872 -4.551 L -3.049 -3.23 L .054 -3.23 L .054 -7.864 C -.79 -8.441 -1.838 -8.799 -2.913 -8.799 C -5.391 -8.799 -6.697 -7.19 -6.697 -3.836 C -6.697 -.509 -4.914 1.113 -2.75 1.113 C -1.565 1.113 -.735 .687 0 0 " fill="#ffffff"/>
<path transform="matrix(1,0,0,-1,64.0515,113.509799)" d="M 0 0 L -1.062 4.579 L -2.123 0 Z M .3 -1.347 L -2.423 -1.347 L -2.939 -3.561 L -4.723 -3.561 L -2.109 5.939 L .041 5.939 L 2.641 -3.561 L .816 -3.561 Z " fill="#ffffff"/>
<path transform="matrix(1,0,0,-1,69.0818,115.612308)" d="M 0 0 L 3.349 0 L 3.158 -1.458 L -1.77 -1.458 L -1.77 8.042 L 0 8.042 Z " fill="#ffffff"/>
<path transform="matrix(1,0,0,-1,0,150)" d="M 42.685 20.43 L 40.915 20.43 L 40.915 29.93 L 42.685 29.93 Z " fill="#ffffff"/>
<path transform="matrix(1,0,0,-1,45.906,121.4033)" d="M 0 0 L 0 -6.833 L .748 -6.833 C 1.974 -6.833 2.953 -6.215 2.953 -3.368 C 2.953 -.468 1.919 0 .708 0 Z M 4.777 -3.368 C 4.777 -7.246 2.708 -8.167 .626 -8.167 L -1.77 -8.167 L -1.77 1.333 L .436 1.333 C 2.668 1.333 4.777 .618 4.777 -3.368 " fill="#ffffff"/>
<path transform="matrix(1,0,0,-1,56.5828,121.3896)" d="M 0 0 L -3.063 0 L -3.063 -2.695 L -.382 -2.695 L -.382 -4.001 L -3.063 -4.001 L -3.063 -6.847 L .218 -6.847 L .218 -8.181 L -4.832 -8.181 L -4.832 1.319 L .19 1.319 Z " fill="#ffffff"/>
<path transform="matrix(1,0,0,-1,64.1004,129.5703)" d="M 0 0 L -2.259 0 L -5.009 7.74 C -4.927 6.888 -4.777 5.692 -4.777 3.946 L -4.777 0 L -6.356 0 L -6.356 9.5 L -4.124 9.5 L -1.348 1.76 C -1.429 2.296 -1.579 3.644 -1.579 4.991 L -1.579 9.5 L 0 9.5 Z " fill="#ffffff"/>
<path transform="matrix(1,0,0,-1,70.9812,121.4727)" d="M 0 0 L -2.164 0 L -2.164 -8.098 L -3.92 -8.098 L -3.92 0 L -6.179 0 L -6.179 1.402 L .19 1.402 Z " fill="#ffffff"/>
<path transform="matrix(1,0,0,-1,0,150)" d="M 73.602 20.43 L 71.832 20.43 L 71.832 29.93 L 73.602 29.93 Z " fill="#ffffff"/>
<path transform="matrix(1,0,0,-1,80.4676,121.4727)" d="M 0 0 L -2.164 0 L -2.164 -8.098 L -3.92 -8.098 L -3.92 0 L -6.179 0 L -6.179 1.402 L .19 1.402 Z " fill="#ffffff"/>
<path transform="matrix(1,0,0,-1,85.3152,125.967807)" d="M 0 0 L 0 -3.603 L -1.77 -3.603 L -1.77 -.014 L -4.479 5.897 L -2.586 5.897 L -.844 1.457 L .898 5.897 L 2.722 5.897 Z " fill="#ffffff"/>
<path transform="matrix(1,0,0,-1,95.0066,126.009799)" d="M 0 0 L -1.062 4.579 L -2.123 0 Z M .3 -1.347 L -2.423 -1.347 L -2.939 -3.561 L -4.723 -3.561 L -2.109 5.939 L .041 5.939 L 2.641 -3.561 L .816 -3.561 Z " fill="#ffffff"/>
<path transform="matrix(1,0,0,-1,104.6238,129.5703)" d="M 0 0 L -2.259 0 L -5.009 7.74 C -4.927 6.888 -4.777 5.692 -4.777 3.946 L -4.777 0 L -6.356 0 L -6.356 9.5 L -4.124 9.5 L -1.348 1.76 C -1.429 2.296 -1.579 3.644 -1.579 4.991 L -1.579 9.5 L 0 9.5 Z " fill="#ffffff"/>
<path transform="matrix(1,0,0,-1,107.8621,121.4033)" d="M 0 0 L 0 -6.833 L .749 -6.833 C 1.974 -6.833 2.954 -6.215 2.954 -3.368 C 2.954 -.468 1.919 0 .708 0 Z M 4.777 -3.368 C 4.777 -7.246 2.709 -8.167 .626 -8.167 L -1.77 -8.167 L -1.77 1.333 L .436 1.333 C 2.668 1.333 4.777 .618 4.777 -3.368 " fill="#ffffff"/>
<path transform="matrix(1,0,0,-1,42.6853,133.9033)" d="M 0 0 L 0 -6.833 L .748 -6.833 C 1.974 -6.833 2.953 -6.215 2.953 -3.368 C 2.953 -.468 1.919 0 .708 0 Z M 4.777 -3.368 C 4.777 -7.246 2.708 -8.167 .626 -8.167 L -1.77 -8.167 L -1.77 1.333 L .436 1.333 C 2.668 1.333 4.777 .618 4.777 -3.368 " fill="#ffffff"/>
<path transform="matrix(1,0,0,-1,50.0154,137.3271)" d="M 0 0 C 0 -2.653 .708 -3.588 1.892 -3.588 C 3.13 -3.588 3.797 -2.653 3.797 .014 C 3.797 2.64 3.13 3.603 1.892 3.603 C .681 3.603 0 2.64 0 0 M 5.648 .014 C 5.648 -3.23 4.219 -4.949 1.892 -4.949 C -.408 -4.949 -1.852 -3.285 -1.852 0 C -1.852 3.231 -.408 4.963 1.892 4.963 C 4.205 4.963 5.648 3.313 5.648 .014 " fill="#ffffff"/>
<path transform="matrix(1,0,0,-1,62.6394,133.3535)" d="M 0 0 L -.871 -1.031 C -1.36 -.619 -1.851 -.385 -2.436 -.385 C -3.565 -.385 -4.423 -1.278 -4.423 -3.946 C -4.423 -6.53 -3.593 -7.493 -2.422 -7.493 C -1.701 -7.493 -1.211 -7.149 -.748 -6.765 L .096 -7.781 C -.462 -8.373 -1.333 -8.923 -2.504 -8.923 C -4.723 -8.923 -6.274 -7.273 -6.274 -3.946 C -6.274 -.66 -4.641 .989 -2.531 .989 C -1.442 .989 -.707 .618 0 0 " fill="#ffffff"/>
<path transform="matrix(1,0,0,-1,69.7527,139.21)" d="M 0 0 C 0 -1.732 -1.089 -3.066 -3.213 -3.066 C -5.363 -3.066 -6.425 -1.774 -6.425 0 L -6.425 6.64 L -4.655 6.64 L -4.655 .096 C -4.655 -1.087 -4.22 -1.678 -3.213 -1.678 C -2.219 -1.678 -1.77 -1.087 -1.77 .096 L -1.77 6.64 L 0 6.64 Z " fill="#ffffff"/>
<path transform="matrix(1,0,0,-1,79.368,142.0703)" d="M 0 0 L -1.687 0 L -1.892 4.001 C -1.96 5.403 -2.015 6.86 -1.987 7.864 L -3.471 1.031 L -5.117 1.031 L -6.683 7.878 C -6.642 6.613 -6.669 5.307 -6.724 3.946 L -6.914 0 L -8.588 0 L -7.935 9.5 L -5.689 9.5 L -4.26 2.818 L -2.926 9.5 L -.653 9.5 Z " fill="#ffffff"/>
<path transform="matrix(1,0,0,-1,85.3631,133.8896)" d="M 0 0 L -3.063 0 L -3.063 -2.695 L -.381 -2.695 L -.381 -4.001 L -3.063 -4.001 L -3.063 -6.847 L .218 -6.847 L .218 -8.181 L -4.832 -8.181 L -4.832 1.319 L .19 1.319 Z " fill="#ffffff"/>
<path transform="matrix(1,0,0,-1,92.8816,142.0703)" d="M 0 0 L -2.26 0 L -5.009 7.74 C -4.928 6.888 -4.777 5.692 -4.777 3.946 L -4.777 0 L -6.356 0 L -6.356 9.5 L -4.124 9.5 L -1.348 1.76 C -1.43 2.296 -1.579 3.644 -1.579 4.991 L -1.579 9.5 L 0 9.5 Z " fill="#ffffff"/>
<path transform="matrix(1,0,0,-1,99.7625,133.9727)" d="M 0 0 L -2.164 0 L -2.164 -8.098 L -3.92 -8.098 L -3.92 0 L -6.18 0 L -6.18 1.402 L .19 1.402 Z " fill="#ffffff"/>
<path transform="matrix(1,0,0,-1,103.6678,138.5098)" d="M 0 0 L -1.062 4.579 L -2.124 0 Z M .299 -1.347 L -2.423 -1.347 L -2.94 -3.561 L -4.724 -3.561 L -2.11 5.939 L .041 5.939 L 2.641 -3.561 L .816 -3.561 Z " fill="#ffffff"/>
<path transform="matrix(1,0,0,-1,111.6072,133.9727)" d="M 0 0 L -2.164 0 L -2.164 -8.098 L -3.92 -8.098 L -3.92 0 L -6.179 0 L -6.179 1.402 L .19 1.402 Z " fill="#ffffff"/>
<path transform="matrix(1,0,0,-1,0,150)" d="M 114.228 7.93 L 112.458 7.93 L 112.458 17.43 L 114.228 17.43 Z " fill="#ffffff"/>
<path transform="matrix(1,0,0,-1,117.1697,137.3271)" d="M 0 0 C 0 -2.653 .708 -3.588 1.893 -3.588 C 3.131 -3.588 3.798 -2.653 3.798 .014 C 3.798 2.64 3.131 3.603 1.893 3.603 C .681 3.603 0 2.64 0 0 M 5.648 .014 C 5.648 -3.23 4.22 -4.949 1.893 -4.949 C -.408 -4.949 -1.851 -3.285 -1.851 0 C -1.851 3.231 -.408 4.963 1.893 4.963 C 4.206 4.963 5.648 3.313 5.648 .014 " fill="#ffffff"/>
<path transform="matrix(1,0,0,-1,130.2654,142.0703)" d="M 0 0 L -2.259 0 L -5.009 7.74 C -4.927 6.888 -4.777 5.692 -4.777 3.946 L -4.777 0 L -6.356 0 L -6.356 9.5 L -4.124 9.5 L -1.348 1.76 C -1.429 2.296 -1.579 3.644 -1.579 4.991 L -1.579 9.5 L 0 9.5 Z " fill="#ffffff"/>
<path transform="matrix(1,0,0,-1,101.4832,74.0698)" d="M 0 0 L -.146 1.241 C 1.189 1.4 2.276 2.506 2.276 3.708 L 2.276 50.693 C 2.276 51.196 2.075 51.652 1.709 51.977 C 1.279 52.358 .66 52.532 0 52.455 L -36.164 48.164 C -37.5 48.005 -38.588 46.897 -38.588 45.696 L -38.588 44.316 L -39.838 44.316 L -39.838 45.696 C -39.838 47.51 -38.256 49.174 -36.312 49.405 L -.146 53.696 C .861 53.817 1.843 53.531 2.539 52.912 C 3.176 52.346 3.526 51.558 3.526 50.693 L 3.526 3.708 C 3.526 1.894 1.944 .23 0 0 " fill="#ffffff"/>
<path transform="matrix(1,0,0,-1,98.2762,79.6533)" d="M 0 0 L -33.269 0 C -35.122 0 -36.631 1.508 -36.631 3.36 L -36.631 7.006 L -35.381 7.006 L -35.381 3.36 C -35.381 2.196 -34.434 1.25 -33.269 1.25 L 0 1.25 C 1.165 1.25 2.112 2.196 2.112 3.36 L 2.112 50.345 C 2.112 51.508 1.165 52.455 0 52.455 L -33.269 52.455 C -34.434 52.455 -35.381 51.508 -35.381 50.345 L -35.381 47.611 L -36.631 47.611 L -36.631 50.345 C -36.631 52.197 -35.122 53.705 -33.269 53.705 L 0 53.705 C 1.854 53.705 3.362 52.197 3.362 50.345 L 3.362 3.36 C 3.362 1.508 1.854 0 0 0 " fill="#ffffff"/>
<path transform="matrix(1,0,0,-1,56.1355,41.0615)" d="M 0 0 C -2.811 0 -5.097 -2.285 -5.097 -5.093 C -5.097 -7.901 -2.811 -10.185 0 -10.185 C 2.81 -10.185 5.096 -7.901 5.096 -5.093 C 5.096 -2.285 2.81 0 0 0 M 0 -11.435 C -3.5 -11.435 -6.347 -8.59 -6.347 -5.093 C -6.347 -1.595 -3.5 1.25 0 1.25 C 3.499 1.25 6.346 -1.595 6.346 -5.093 C 6.346 -8.59 3.499 -11.435 0 -11.435 " fill="#ffffff"/>
<path transform="matrix(1,0,0,-1,66.9138,44.856004)" d="M 0 0 L -1.25 0 L -1.25 8.223 L -9.479 8.223 L -9.479 9.473 L 0 9.473 Z " fill="#ffffff"/>
<path transform="matrix(1,0,0,-1,66.9138,56.925798)" d="M 0 0 L -9.479 0 L -9.479 1.25 L -1.25 1.25 L -1.25 9.474 L 0 9.474 Z " fill="#ffffff"/>
<path transform="matrix(1,0,0,-1,54.8367,56.925798)" d="M 0 0 L -9.479 0 L -9.479 9.474 L -8.229 9.474 L -8.229 1.25 L 0 1.25 Z " fill="#ffffff"/>
<path transform="matrix(1,0,0,-1,46.6072,44.856004)" d="M 0 0 L -1.25 0 L -1.25 9.473 L 8.229 9.473 L 8.229 8.223 L 0 8.223 Z " fill="#ffffff"/>
<path transform="matrix(1,0,0,-1,0,150)" d="M 46.26 87.02 L 45.01 87.02 L 45.01 88.27 L 46.26 88.27 Z M 48.76 87.02 L 47.51 87.02 L 47.51 88.27 L 48.76 88.27 Z M 51.26 87.02 L 50.01 87.02 L 50.01 88.27 L 51.26 88.27 Z M 53.76 87.02 L 52.51 87.02 L 52.51 88.27 L 53.76 88.27 Z M 56.26 87.02 L 55.01 87.02 L 55.01 88.27 L 56.26 88.27 Z M 58.566 87.02 L 57.509004 87.02 L 57.509004 88.27 L 58.566 88.27 Z " fill="#ffffff"/>
<path transform="matrix(1,0,0,-1,0,150)" d="M 64.173 87.02 L 62.922998 87.02 L 62.922998 88.27 L 64.173 88.27 Z M 66.673 87.02 L 65.423 87.02 L 65.423 88.27 L 66.673 88.27 Z M 69.173 87.02 L 67.923 87.02 L 67.923 88.27 L 69.173 88.27 Z M 71.673 87.02 L 70.423 87.02 L 70.423 88.27 L 71.673 88.27 Z M 74.173 87.02 L 72.923 87.02 L 72.923 88.27 L 74.173 88.27 Z M 76.478 87.02 L 75.422 87.02 L 75.422 88.27 L 76.478 88.27 Z " fill="#ffffff"/>
<path transform="matrix(1,0,0,-1,0,150)" d="M 82.086 87.02 L 80.836 87.02 L 80.836 88.27 L 82.086 88.27 Z M 84.586 87.02 L 83.336 87.02 L 83.336 88.27 L 84.586 88.27 Z M 87.086 87.02 L 85.836 87.02 L 85.836 88.27 L 87.086 88.27 Z M 89.586 87.02 L 88.336 87.02 L 88.336 88.27 L 89.586 88.27 Z M 92.086 87.02 L 90.836 87.02 L 90.836 88.27 L 92.086 88.27 Z M 94.391 87.02 L 93.335 87.02 L 93.335 88.27 L 94.391 88.27 Z " fill="#ffffff"/>
<path transform="matrix(1,0,0,-1,0,150)" d="M 46.26 81.104 L 45.01 81.104 L 45.01 82.354 L 46.26 82.354 Z M 48.76 81.104 L 47.51 81.104 L 47.51 82.354 L 48.76 82.354 Z M 51.26 81.104 L 50.01 81.104 L 50.01 82.354 L 51.26 82.354 Z M 53.76 81.104 L 52.51 81.104 L 52.51 82.354 L 53.76 82.354 Z M 56.26 81.104 L 55.01 81.104 L 55.01 82.354 L 56.26 82.354 Z M 58.76 81.104 L 57.51 81.104 L 57.51 82.354 L 58.76 82.354 Z M 61.26 81.104 L 60.01 81.104 L 60.01 82.354 L 61.26 82.354 Z M 63.76 81.104 L 62.51 81.104 L 62.51 82.354 L 63.76 82.354 Z M 66.26 81.104 L 65.01 81.104 L 65.01 82.354 L 66.26 82.354 Z M 68.76 81.104 L 67.51 81.104 L 67.51 82.354 L 68.76 82.354 Z M 71.26 81.104 L 70.01 81.104 L 70.01 82.354 L 71.26 82.354 Z M 73.76 81.104 L 72.51 81.104 L 72.51 82.354 L 73.76 82.354 Z M 76.26 81.104 L 75.01 81.104 L 75.01 82.354 L 76.26 82.354 Z M 78.76 81.104 L 77.51 81.104 L 77.51 82.354 L 78.76 82.354 Z M 81.26 81.104 L 80.01 81.104 L 80.01 82.354 L 81.26 82.354 Z M 83.76 81.104 L 82.51 81.104 L 82.51 82.354 L 83.76 82.354 Z M 86.26 81.104 L 85.01 81.104 L 85.01 82.354 L 86.26 82.354 Z M 88.76 81.104 L 87.51 81.104 L 87.51 82.354 L 88.76 82.354 Z M 91.26 81.104 L 90.01 81.104 L 90.01 82.354 L 91.26 82.354 Z M 93.76 81.104 L 92.51 81.104 L 92.51 82.354 L 93.76 82.354 Z " fill="#ffffff"/>
<path transform="matrix(1,0,0,-1,0,150)" d="M 74.807 111.203 L 76.904 111.203 L 76.904 97.423007 L 74.807 97.423007 Z " fill="#ffffff"/>
<path transform="matrix(1,0,0,-1,82.9978,50.465799)" d="M 0 0 C 2.475 0 4.523 1.365 4.523 4.824 C 4.523 7.682 2.736 9.557 .246 9.557 L -1.459 9.557 L -1.459 0 Z M -3.557 -2.112 L -3.557 11.668 L .033 11.668 C 3.736 11.668 6.752 9.284 6.752 4.769 C 6.752 .4 3.949 -2.112 -.278 -2.112 Z " fill="#ffffff"/>
</g>
</g>
</g>
</svg>
