<?xml version="1.0" encoding="UTF-8" standalone="no"?>
<!DOCTYPE svg PUBLIC "-//W3C//DTD SVG 1.1//EN" "http://www.w3.org/Graphics/SVG/1.1/DTD/svg11.dtd">
<svg xmlns="http://www.w3.org/2000/svg" xmlns:xlink="http://www.w3.org/1999/xlink" version="1.1" width="150pt" height="150pt" viewBox="0 0 150 150">
<g enable-background="new">
<g id="Layer-1" data-name="11">
<path transform="matrix(1,0,0,-1,0,150)" d="M 0 50.073 L 149.95 50.073 L 149.95 150 L 0 150 Z " fill="#003366"/>
<path transform="matrix(1,0,0,-1,0,150)" d="M 0 .073 L 149.95 .073 L 149.95 50.073 L 0 50.073 Z " fill="#fcb613"/>
<path transform="matrix(1,0,0,-1,18.9002,137.0596)" d="M 0 0 L -4.017 0 L -4.017 18.797 L -7.914 15.682 L -9.729 18.867 L -3.659 23.593 L 0 23.593 Z " fill="#ffffff"/>
<path transform="matrix(1,0,0,-1,30.0262,137.0596)" d="M 0 0 L -4.017 0 L -4.017 18.797 L -7.914 15.682 L -9.729 18.867 L -3.659 23.593 L 0 23.593 Z " fill="#ffffff"/>
<clipPath id="cp0">
<path transform="matrix(1,0,0,-1,0,150)" d="M 0 150 L 150 150 L 150 0 L 0 0 Z "/>
</clipPath>
<g clip-path="url(#cp0)">
<path transform="matrix(1,0,0,-1,49.2664,123.3203)" d="M 0 0 L -1.705 0 L -1.911 4 C -1.979 5.402 -2.035 6.86 -2.008 7.863 L -3.506 1.031 L -5.169 1.031 L -6.75 7.878 C -6.709 6.612 -6.736 5.307 -6.792 3.945 L -6.984 0 L -8.675 0 L -8.016 9.5 L -5.747 9.5 L -4.304 2.818 L -2.956 9.5 L -.66 9.5 Z " fill="#ffffff"/>
<path transform="matrix(1,0,0,-1,54.8426,119.759799)" d="M 0 0 L -1.072 4.578 L -2.145 0 Z M .303 -1.348 L -2.447 -1.348 L -2.97 -3.561 L -4.771 -3.561 L -2.131 5.939 L .041 5.939 L 2.667 -3.561 L .825 -3.561 Z " fill="#ffffff"/>
<path transform="matrix(1,0,0,-1,64.9002,123.3203)" d="M 0 0 L -2.282 0 L -5.06 7.74 C -4.977 6.888 -4.825 5.691 -4.825 3.945 L -4.825 0 L -6.42 0 L -6.42 9.5 L -4.166 9.5 L -1.361 1.76 C -1.443 2.296 -1.595 3.643 -1.595 4.99 L -1.595 9.5 L 0 9.5 Z " fill="#ffffff"/>
<path transform="matrix(1,0,0,-1,70.6482,119.759799)" d="M 0 0 L -1.072 4.578 L -2.145 0 Z M .303 -1.348 L -2.447 -1.348 L -2.97 -3.561 L -4.771 -3.561 L -2.131 5.939 L .041 5.939 L 2.667 -3.561 L .825 -3.561 Z " fill="#ffffff"/>
<path transform="matrix(1,0,0,-1,80.4021,114.7275)" d="M 0 0 L -.922 -.949 C -1.513 -.468 -1.994 -.234 -2.723 -.234 C -3.933 -.234 -4.908 -1.114 -4.908 -3.836 C -4.908 -6.586 -4.248 -7.438 -2.97 -7.438 C -2.488 -7.438 -2.049 -7.314 -1.664 -7.081 L -1.664 -4.551 L -2.901 -4.551 L -3.08 -3.231 L .055 -3.231 L .055 -7.864 C -.798 -8.441 -1.856 -8.799 -2.942 -8.799 C -5.444 -8.799 -6.765 -7.19 -6.765 -3.836 C -6.765 -.509 -4.963 1.113 -2.777 1.113 C -1.581 1.113 -.742 .687 0 0 " fill="#ffffff"/>
<path transform="matrix(1,0,0,-1,86.9451,115.140598)" d="M 0 0 L -3.093 0 L -3.093 -2.694 L -.385 -2.694 L -.385 -4.001 L -3.093 -4.001 L -3.093 -6.847 L .221 -6.847 L .221 -8.18 L -4.88 -8.18 L -4.88 1.32 L .192 1.32 Z " fill="#ffffff"/>
<path transform="matrix(1,0,0,-1,45.3894,133.0156)" d="M 0 0 C 0 1.1 -.646 1.539 -1.719 1.539 L -2.653 1.539 L -2.653 -1.472 L -1.829 -1.472 C -.729 -1.472 0 -1.155 0 0 M -2.653 5.389 L -2.653 2.776 L -1.843 2.776 C -.853 2.776 -.33 3.244 -.33 4.124 C -.33 5.045 -.88 5.389 -2.008 5.389 Z M 1.842 -.069 C 1.842 -2.063 .316 -2.805 -1.843 -2.805 L -4.44 -2.805 L -4.44 6.695 L -2.172 6.695 C .109 6.695 1.471 5.938 1.471 4.275 C 1.471 3.12 .701 2.461 -.22 2.227 C .866 2.007 1.842 1.457 1.842 -.069 " fill="#ffffff"/>
<path transform="matrix(1,0,0,-1,50.0232,131.0771)" d="M 0 0 C 0 -2.653 .715 -3.589 1.911 -3.589 C 3.162 -3.589 3.836 -2.653 3.836 .014 C 3.836 2.64 3.162 3.602 1.911 3.602 C .687 3.602 0 2.64 0 0 M 5.705 .014 C 5.705 -3.231 4.262 -4.949 1.911 -4.949 C -.412 -4.949 -1.87 -3.286 -1.87 0 C -1.87 3.23 -.412 4.963 1.911 4.963 C 4.248 4.963 5.705 3.313 5.705 .014 " fill="#ffffff"/>
<path transform="matrix(1,0,0,-1,59.7722,130.7197)" d="M 0 0 C 1.128 0 1.65 .495 1.65 1.608 C 1.65 2.64 1.128 3.093 -.109 3.093 L -.811 3.093 L -.811 0 Z M .165 -1.279 L -.811 -1.279 L -.811 -5.101 L -2.598 -5.101 L -2.598 4.399 L -.096 4.399 C 2.338 4.399 3.492 3.437 3.492 1.608 C 3.492 .412 2.942 -.481 1.788 -.949 L 4.001 -5.101 L 2.035 -5.101 Z " fill="#ffffff"/>
<path transform="matrix(1,0,0,-1,66.5926,127.6543)" d="M 0 0 L 0 -6.833 L .757 -6.833 C 1.994 -6.833 2.983 -6.214 2.983 -3.368 C 2.983 -.468 1.938 0 .715 0 Z M 4.826 -3.368 C 4.826 -7.245 2.736 -8.166 .633 -8.166 L -1.787 -8.166 L -1.787 1.334 L .44 1.334 C 2.695 1.334 4.826 .619 4.826 -3.368 " fill="#ffffff"/>
<path transform="matrix(1,0,0,-1,77.7215,127.6406)" d="M 0 0 L -3.093 0 L -3.093 -2.694 L -.385 -2.694 L -.385 -4.001 L -3.093 -4.001 L -3.093 -6.847 L .221 -6.847 L .221 -8.18 L -4.88 -8.18 L -4.88 1.32 L .192 1.32 Z " fill="#ffffff"/>
<path transform="matrix(1,0,0,-1,81.8377,130.7197)" d="M 0 0 C 1.127 0 1.649 .495 1.649 1.608 C 1.649 2.64 1.127 3.093 -.11 3.093 L -.812 3.093 L -.812 0 Z M .165 -1.279 L -.812 -1.279 L -.812 -5.101 L -2.599 -5.101 L -2.599 4.399 L -.097 4.399 C 2.337 4.399 3.492 3.437 3.492 1.608 C 3.492 .412 2.942 -.481 1.787 -.949 L 4.001 -5.101 L 2.034 -5.101 Z " fill="#ffffff"/>
<path transform="matrix(1,0,0,-1,92.4519,127.2832)" d="M 0 0 L -.853 -.976 C -1.457 -.439 -2.034 -.192 -2.722 -.192 C -3.506 -.192 -4.014 -.618 -4.014 -1.333 C -4.014 -2.021 -3.685 -2.364 -2.282 -2.859 C -.742 -3.423 .248 -4.11 .248 -5.829 C .248 -7.492 -.989 -8.743 -3.052 -8.743 C -4.468 -8.743 -5.458 -8.207 -6.2 -7.451 L -5.293 -6.447 C -4.646 -7.012 -3.986 -7.369 -3.12 -7.369 C -2.199 -7.369 -1.608 -6.833 -1.608 -5.925 C -1.608 -5.142 -1.952 -4.743 -3.258 -4.289 C -5.072 -3.643 -5.843 -2.832 -5.843 -1.457 C -5.843 .083 -4.578 1.169 -2.846 1.169 C -1.608 1.169 -.742 .757 0 0 " fill="#ffffff"/>
<path transform="matrix(1,0,0,-1,99.2019,72.439)" d="M 0 0 C -.164 -.889 -1.017 -1.479 -1.908 -1.316 L -44.642 6.508 C -45.072 6.587 -45.446 6.829 -45.695 7.189 C -45.944 7.55 -46.037 7.986 -45.959 8.417 C -45.796 9.305 -44.943 9.893 -44.051 9.732 L -37.066 8.454 L -37.066 8.453 L -8.3 3.186 L -8.3 3.187 L -1.317 1.909 C -.429 1.746 .163 .889 0 0 M -36.85 24.488 C -36.405 26.899 -34.087 28.498 -31.66 28.058 L -23.974 26.651 L -24.893 21.654 L -28.239 22.267 C -29.806 22.558 -31.318 21.511 -31.606 19.943 L -32.911 12.851 L -36.148 13.444 L -36.84 9.683 L -39.483 10.167 Z M -21.131 33.259 C -20.798 33.201 -20.467 33.421 -20.403 33.761 C -20.342 34.101 -20.566 34.426 -20.906 34.488 L -21.861 34.663 C -21.862 34.663 -21.863 34.664 -21.864 34.664 C -21.865 34.664 -21.866 34.664 -21.867 34.664 L -22.697 34.816 L -24.395 45.694 L -6.892 42.489 L -12.35 32.922 L -13.181 33.074 L -13.182 33.074 L -13.183 33.074 L -15.416 33.483 C -15.754 33.543 -16.081 33.321 -16.144 32.981 C -16.205 32.641 -15.98 32.315 -15.641 32.253 L -14.022 31.957 L -16.211 20.064 L -23.664 21.429 L -21.477 33.322 Z M -20.095 51.198 L -8.657 49.104 L -6.845 43.751 L -23.941 46.882 Z M -22.994 20.036 L -15.207 18.61 L -11.864 17.998 C -11.433 17.919 -11.057 17.676 -10.808 17.314 C -10.558 16.952 -10.465 16.516 -10.544 16.083 L -11.849 8.995 L -31.683 12.626 L -30.378 19.717 C -30.214 20.607 -29.358 21.198 -28.464 21.037 Z M -35.611 9.458 L -35.145 11.99 L -33.138 11.623 L -33.138 11.622 L -10.845 7.541 L -8.837 7.173 L -9.304 4.642 Z M -6.158 23.389 C -4.987 23.175 -3.97 22.518 -3.294 21.541 C -2.618 20.563 -2.364 19.382 -2.579 18.215 L -5.213 3.893 L -8.073 4.417 L -7.382 8.177 L -10.619 8.77 L -9.315 15.857 C -9.175 16.617 -9.339 17.387 -9.778 18.023 C -10.217 18.66 -10.878 19.088 -11.64 19.228 L -14.98 19.839 L -14.062 24.836 Z M .765 1.937 C .326 2.572 -.333 2.999 -1.093 3.138 L -3.984 3.667 L -1.351 17.989 C -1.075 19.485 -1.4 21 -2.266 22.251 C -3.132 23.503 -4.435 24.344 -5.934 24.619 L -13.836 26.065 L -12.794 31.732 L -12.139 31.612 C -12.102 31.605 -12.063 31.602 -12.026 31.602 C -11.805 31.602 -11.596 31.72 -11.483 31.917 L -5.369 42.636 C -5.35 42.67 -5.35 42.709 -5.338 42.746 C -5.323 42.788 -5.307 42.826 -5.302 42.87 C -5.294 42.932 -5.303 42.989 -5.313 43.05 C -5.319 43.083 -5.31 43.115 -5.32 43.146 L -7.592 49.854 C -7.664 50.068 -7.848 50.227 -8.071 50.268 L -20.216 52.491 C -20.431 52.531 -20.649 52.455 -20.795 52.292 L -25.614 46.883 C -25.635 46.86 -25.638 46.828 -25.654 46.802 C -25.692 46.745 -25.727 46.689 -25.744 46.624 C -25.755 46.582 -25.752 46.542 -25.754 46.499 C -25.756 46.456 -25.771 46.415 -25.765 46.371 L -23.863 34.185 C -23.822 33.922 -23.62 33.714 -23.358 33.667 L -22.705 33.547 L -23.748 27.88 L -31.436 29.288 C -34.529 29.853 -37.511 27.803 -38.078 24.715 L -40.712 10.392 L -43.826 10.962 C -45.387 11.25 -46.899 10.208 -47.188 8.643 C -47.327 7.883 -47.162 7.115 -46.724 6.479 C -46.285 5.844 -45.626 5.417 -44.866 5.279 L -2.133 -2.545 C -1.958 -2.578 -1.784 -2.593 -1.612 -2.593 C -.246 -2.593 .973 -1.617 1.229 -.226 C 1.368 .533 1.203 1.301 .765 1.937 " fill="#ffffff"/>
<path transform="matrix(1,0,0,-1,57.1668,70.4277)" d="M 0 0 L 36.089 -6.608 L 36.313 -5.378 L .225 1.229 Z " fill="#ffffff"/>
<path transform="matrix(1,0,0,-1,60.5515,78.0332)" d="M 0 0 L -9.403 -2.029 L 29.307 -2.029 L 22.691 0 Z " fill="#ffffff"/>
</g>
</g>
</g>
</svg>
